<svg width="2079px" height="1075px"
 viewBox="0.00 0.00 2079.14 1074.60" xmlns="http://www.w3.org/2000/svg" xmlns:xlink="http://www.w3.org/1999/xlink">
<g id="graph0" class="graph" transform="scale(1.0 1.0) rotate(0) translate(14.4 1060.2)">
<title>org.owntracks.android.injection.modules.AndroidBindingModule → org.owntracks.android.injection.modules.AndroidBindingModule_BindEditorActivity.EditorActivitySubcomponent</title>
<polygon fill="#ffffff" stroke="transparent" points="-14.4,14.4 -14.4,-1060.2 2064.7362,-1060.2 2064.7362,14.4 -14.4,14.4"/>
<text text-anchor="middle" x="293.8135" y="-8.2" font-family="Times,serif" font-size="14.00" fill="#000000">AndroidBindingModule → AndroidBindingModule_BindEditorActivity.EditorActivitySubcomponent</text>
<g id="clust5" class="cluster">
<title>cluster_AndroidBindingModule → AndroidBindingModule_BindEditorActivity.EditorActivitySubcomponent</title>
<g id="a_clust5"><a xlink:href="full_org.owntracks.android.injection.modules.AndroidBindingModule_BindEditorActivity.EditorActivitySubcomponent.svg" xlink:title="Inherited from AndroidBindingModule_BindEditorActivity.EditorActivitySubcomponent\n@PerActivity">
<polygon fill="none" stroke="#7fffd4" stroke-dasharray="5,2" points="185.8002,-62.8 185.8002,-1037.8 2042.3362,-1037.8 2042.3362,-62.8 185.8002,-62.8"/>
<text text-anchor="middle" x="1114.0682" y="-1021.2" font-family="Times,serif" font-size="14.00" fill="#000000">Inherited from AndroidBindingModule_BindEditorActivity.EditorActivitySubcomponent</text>
<text text-anchor="middle" x="1114.0682" y="-1004.4" font-family="Times,serif" font-size="14.00" fill="#000000">@PerActivity</text>
</a>
</g>
</g>
<g id="clust6" class="cluster">
<title>cluster_Map&lt;Class&lt;?&gt;, Provider&lt;AndroidInjector.Factory&lt;?&gt;&gt;&gt;</title>
<g id="a_clust6"><a xlink:href="full_org.owntracks.android.injection.modules.AndroidBindingModule_BindEditorActivity.EditorActivitySubcomponent.svg" xlink:title="Map&lt;Class&lt;?&gt;, Provider&lt;AndroidInjector.Factory&lt;?&gt;&gt;&gt;">
<path fill="none" stroke="#000000" d="M604.5194,-262.8C604.5194,-262.8 1708.2966,-262.8 1708.2966,-262.8 1714.2966,-262.8 1720.2966,-268.8 1720.2966,-274.8 1720.2966,-274.8 1720.2966,-975.8 1720.2966,-975.8 1720.2966,-981.8 1714.2966,-987.8 1708.2966,-987.8 1708.2966,-987.8 604.5194,-987.8 604.5194,-987.8 598.5194,-987.8 592.5194,-981.8 592.5194,-975.8 592.5194,-975.8 592.5194,-274.8 592.5194,-274.8 592.5194,-268.8 598.5194,-262.8 604.5194,-262.8"/>
<text text-anchor="middle" x="1156.408" y="-971.2" font-family="Times,serif" font-size="14.00" fill="#000000">Map&lt;Class&lt;?&gt;, Provider&lt;AndroidInjector.Factory&lt;?&gt;&gt;&gt;</text>
</a>
</g>
</g>
<g id="clust1" class="cluster">
<title>cluster_Entry Points</title>
<polygon fill="none" stroke="#000000" points="8,-116.8 8,-193.8 164.8002,-193.8 164.8002,-116.8 8,-116.8"/>
<text text-anchor="middle" x="50.8061" y="-177.2" font-family="Times,serif" font-size="14.00" fill="#000000">Entry Points</text>
</g>
<!-- 9cb20489&#45;9d6e&#45;4759&#45;956b&#45;91386b363885 -->
<g id="node1" class="node">
<title>9cb20489&#45;9d6e&#45;4759&#45;956b&#45;91386b363885</title>
<polygon fill="#40e0d0" stroke="#40e0d0" stroke-width="2" points="156.7004,-160.8 16.0998,-160.8 16.0998,-156.8 12.0998,-156.8 12.0998,-152.8 16.0998,-152.8 16.0998,-132.8 12.0998,-132.8 12.0998,-128.8 16.0998,-128.8 16.0998,-124.8 156.7004,-124.8 156.7004,-160.8"/>
<polyline fill="none" stroke="#40e0d0" stroke-width="2" points="16.0998,-156.8 20.0998,-156.8 20.0998,-152.8 16.0998,-152.8 "/>
<polyline fill="none" stroke="#40e0d0" stroke-width="2" points="16.0998,-132.8 20.0998,-132.8 20.0998,-128.8 16.0998,-128.8 "/>
<text text-anchor="middle" x="86.4001" y="-138.6" font-family="Times,serif" font-size="14.00" fill="#000000">inject (EditorActivity)</text>
</g>
<!-- 4aa7e27f&#45;9b86&#45;488a&#45;84eb&#45;d3f8646e0636 -->
<g id="node2" class="node">
<title>4aa7e27f&#45;9b86&#45;488a&#45;84eb&#45;d3f8646e0636</title>
<polygon fill="#40e0d0" stroke="#40e0d0" points="447.5655,-461.8 220.6699,-461.8 220.6699,-425.8 447.5655,-425.8 447.5655,-461.8"/>
<text text-anchor="middle" x="334.1177" y="-439.6" font-family="Times,serif" font-size="14.00" fill="#000000">DispatchingAndroidInjector&lt;Object&gt;</text>
</g>
<!-- 9cb20489&#45;9d6e&#45;4759&#45;956b&#45;91386b363885&#45;&gt;4aa7e27f&#45;9b86&#45;488a&#45;84eb&#45;d3f8646e0636 -->
<g id="edge5" class="edge">
<title>9cb20489&#45;9d6e&#45;4759&#45;956b&#45;91386b363885&#45;&gt;4aa7e27f&#45;9b86&#45;488a&#45;84eb&#45;d3f8646e0636</title>
<path fill="none" stroke="#000000" d="M101.523,-161.1758C143.8608,-212.6201 263.6752,-358.2058 312.7526,-417.8394"/>
<polygon fill="#000000" stroke="#000000" points="310.1356,-420.1674 319.1927,-425.6647 315.5406,-415.7192 310.1356,-420.1674"/>
</g>
<!-- a973d5c3&#45;5e4e&#45;41ce&#45;b233&#45;dc47a6e09341 -->
<g id="node3" class="node">
<title>a973d5c3&#45;5e4e&#45;41ce&#45;b233&#45;dc47a6e09341</title>
<polygon fill="#40e0d0" stroke="#40e0d0" points="474.2529,-207.8 193.9825,-207.8 193.9825,-171.8 474.2529,-171.8 474.2529,-207.8"/>
<text text-anchor="middle" x="334.1177" y="-185.6" font-family="Times,serif" font-size="14.00" fill="#000000">EditorMvvm.ViewModel&lt;EditorMvvm.View&gt;</text>
</g>
<!-- 9cb20489&#45;9d6e&#45;4759&#45;956b&#45;91386b363885&#45;&gt;a973d5c3&#45;5e4e&#45;41ce&#45;b233&#45;dc47a6e09341 -->
<g id="edge4" class="edge">
<title>9cb20489&#45;9d6e&#45;4759&#45;956b&#45;91386b363885&#45;&gt;a973d5c3&#45;5e4e&#45;41ce&#45;b233&#45;dc47a6e09341</title>
<path fill="none" stroke="#000000" d="M156.7234,-156.1426C179.227,-160.4122 204.6501,-165.2358 229.0739,-169.8698"/>
<polygon fill="#000000" stroke="#000000" points="228.6247,-173.3469 239.1018,-171.7724 229.9296,-166.4696 228.6247,-173.3469"/>
</g>
<!-- bf3a7e28&#45;bfce&#45;47cb&#45;bc51&#45;e22726f5373a -->
<g id="node4" class="node">
<title>bf3a7e28&#45;bfce&#45;47cb&#45;bc51&#45;e22726f5373a</title>
<polygon fill="#7fffd4" stroke="#7fffd4" points="1121.016,-172.4019 1014.6706,-172.4019 1014.6706,-131.1981 1121.016,-131.1981 1121.016,-172.4019"/>
<text text-anchor="middle" x="1067.8433" y="-156" font-family="Times,serif" font-size="14.00" fill="#000000">@PerActivity</text>
<text text-anchor="middle" x="1067.8433" y="-139.2" font-family="Times,serif" font-size="14.00" fill="#000000">DrawerProvider</text>
</g>
<!-- 9cb20489&#45;9d6e&#45;4759&#45;956b&#45;91386b363885&#45;&gt;bf3a7e28&#45;bfce&#45;47cb&#45;bc51&#45;e22726f5373a -->
<g id="edge1" class="edge">
<title>9cb20489&#45;9d6e&#45;4759&#45;956b&#45;91386b363885&#45;&gt;bf3a7e28&#45;bfce&#45;47cb&#45;bc51&#45;e22726f5373a</title>
<path fill="none" stroke="#000000" d="M156.8725,-142.8C206.445,-142.8 274.3386,-142.8 334.1177,-142.8 334.1177,-142.8 334.1177,-142.8 977.257,-142.8 985.9839,-142.8 995.1606,-143.2187 1004.1871,-143.8756"/>
<polygon fill="#000000" stroke="#000000" points="1004.0285,-147.3743 1014.2825,-144.7087 1004.6043,-140.398 1004.0285,-147.3743"/>
</g>
<!-- 20423b44&#45;1574&#45;4c62&#45;8d02&#45;1fc4ece25c06 -->
<g id="node5" class="node">
<title>20423b44&#45;1574&#45;4c62&#45;8d02&#45;1fc4ece25c06</title>
<polygon fill="#76ee00" stroke="#76ee00" points="1977.4213,-112.4019 1895.2957,-112.4019 1895.2957,-71.1981 1977.4213,-71.1981 1977.4213,-112.4019"/>
<text text-anchor="middle" x="1936.3585" y="-96" font-family="Times,serif" font-size="14.00" fill="#000000">@Singleton</text>
<text text-anchor="middle" x="1936.3585" y="-79.2" font-family="Times,serif" font-size="14.00" fill="#000000">Preferences</text>
</g>
<!-- 9cb20489&#45;9d6e&#45;4759&#45;956b&#45;91386b363885&#45;&gt;20423b44&#45;1574&#45;4c62&#45;8d02&#45;1fc4ece25c06 -->
<g id="edge3" class="edge">
<title>9cb20489&#45;9d6e&#45;4759&#45;956b&#45;91386b363885&#45;&gt;20423b44&#45;1574&#45;4c62&#45;8d02&#45;1fc4ece25c06</title>
<path fill="none" stroke="#000000" d="M103.2851,-124.726C141.8103,-91.3283 240.1461,-24.8 334.1177,-24.8 334.1177,-24.8 334.1177,-24.8 1775.3387,-24.8 1821.9888,-24.8 1871.9822,-46.6151 1903.6719,-65.5635"/>
<polygon fill="#000000" stroke="#000000" points="1902.1629,-68.7472 1912.5005,-71.0673 1905.866,-62.8069 1902.1629,-68.7472"/>
</g>
<!-- 9cb20489&#45;9d6e&#45;4759&#45;956b&#45;91386b363885&#45;&gt;20423b44&#45;1574&#45;4c62&#45;8d02&#45;1fc4ece25c06 -->
<g id="edge6" class="edge">
<title>9cb20489&#45;9d6e&#45;4759&#45;956b&#45;91386b363885&#45;&gt;20423b44&#45;1574&#45;4c62&#45;8d02&#45;1fc4ece25c06</title>
<path fill="none" stroke="#000000" d="M118.0841,-124.584C163.3914,-95.4971 250.483,-42.8 334.1177,-42.8 334.1177,-42.8 334.1177,-42.8 1775.3387,-42.8 1813.9796,-42.8 1854.9144,-57.7675 1885.8408,-71.3157"/>
<polygon fill="#000000" stroke="#000000" points="1884.546,-74.5707 1895.1038,-75.4567 1887.4029,-68.1802 1884.546,-74.5707"/>
</g>
<!-- 147bf710&#45;8635&#45;4dc9&#45;a336&#45;6aa232b9c3ae -->
<g id="node6" class="node">
<title>147bf710&#45;8635&#45;4dc9&#45;a336&#45;6aa232b9c3ae</title>
<polygon fill="#76ee00" stroke="#76ee00" points="1108.9061,-112.4019 1026.7805,-112.4019 1026.7805,-71.1981 1108.9061,-71.1981 1108.9061,-112.4019"/>
<text text-anchor="middle" x="1067.8433" y="-96" font-family="Times,serif" font-size="14.00" fill="#000000">@Singleton</text>
<text text-anchor="middle" x="1067.8433" y="-79.2" font-family="Times,serif" font-size="14.00" fill="#000000">Parser</text>
</g>
<!-- 9cb20489&#45;9d6e&#45;4759&#45;956b&#45;91386b363885&#45;&gt;147bf710&#45;8635&#45;4dc9&#45;a336&#45;6aa232b9c3ae -->
<g id="edge2" class="edge">
<title>9cb20489&#45;9d6e&#45;4759&#45;956b&#45;91386b363885&#45;&gt;147bf710&#45;8635&#45;4dc9&#45;a336&#45;6aa232b9c3ae</title>
<path fill="none" stroke="#000000" d="M151.5568,-124.7766C201.1915,-112.6254 271.4374,-98.8 334.1177,-98.8 334.1177,-98.8 334.1177,-98.8 977.257,-98.8 989.9523,-98.8 1003.6188,-98.1081 1016.391,-97.1594"/>
<polygon fill="#000000" stroke="#000000" points="1016.7203,-100.6443 1026.4066,-96.3517 1016.1576,-93.6669 1016.7203,-100.6443"/>
</g>
<!-- c33f66b4&#45;c4fb&#45;4b36&#45;a126&#45;675ce7a5cf92 -->
<g id="node7" class="node">
<title>c33f66b4&#45;c4fb&#45;4b36&#45;a126&#45;675ce7a5cf92</title>
<polygon fill="#7fffd4" stroke="#7fffd4" points="1114.7783,-252.4019 1020.9083,-252.4019 1020.9083,-211.1981 1114.7783,-211.1981 1114.7783,-252.4019"/>
<text text-anchor="middle" x="1067.8433" y="-236" font-family="Times,serif" font-size="14.00" fill="#000000">@PerActivity</text>
<text text-anchor="middle" x="1067.8433" y="-219.2" font-family="Times,serif" font-size="14.00" fill="#000000">Navigator</text>
</g>
<!-- 9cb20489&#45;9d6e&#45;4759&#45;956b&#45;91386b363885&#45;&gt;c33f66b4&#45;c4fb&#45;4b36&#45;a126&#45;675ce7a5cf92 -->
<g id="edge7" class="edge">
<title>9cb20489&#45;9d6e&#45;4759&#45;956b&#45;91386b363885&#45;&gt;c33f66b4&#45;c4fb&#45;4b36&#45;a126&#45;675ce7a5cf92</title>
<path fill="none" stroke="#000000" d="M87.5334,-160.825C95.8013,-284.7547 151.7421,-1005.8 334.1177,-1005.8 334.1177,-1005.8 334.1177,-1005.8 977.257,-1005.8 1053.4044,-1005.8 1065.6784,-407.187 1067.5312,-262.8406"/>
<polygon fill="#000000" stroke="#000000" points="1071.0349,-262.5441 1067.6557,-252.5026 1064.0354,-262.4597 1071.0349,-262.5441"/>
</g>
<!-- c5359830&#45;26a1&#45;4885&#45;907b&#45;6891aacb71fc -->
<g id="node13" class="node">
<title>c5359830&#45;26a1&#45;4885&#45;907b&#45;6891aacb71fc</title>
<polygon fill="#40e0d0" stroke="#40e0d0" points="939.8759,-615.8 612.4005,-615.8 612.4005,-619.8 600.4005,-619.8 600.4005,-579.8 939.8759,-579.8 939.8759,-615.8"/>
<polyline fill="none" stroke="#40e0d0" points="600.4005,-615.8 612.4005,-615.8 "/>
<text text-anchor="middle" x="770.1382" y="-593.6" font-family="Times,serif" font-size="14.00" fill="#000000">Map&lt;Class&lt;?&gt;, Provider&lt;AndroidInjector.Factory&lt;?&gt;&gt;&gt;</text>
</g>
<!-- 4aa7e27f&#45;9b86&#45;488a&#45;84eb&#45;d3f8646e0636&#45;&gt;c5359830&#45;26a1&#45;4885&#45;907b&#45;6891aacb71fc -->
<g id="edge8" class="edge">
<title>4aa7e27f&#45;9b86&#45;488a&#45;84eb&#45;d3f8646e0636&#45;&gt;c5359830&#45;26a1&#45;4885&#45;907b&#45;6891aacb71fc</title>
<path fill="none" stroke="#000000" d="M361.4203,-461.845C407.1241,-491.0851 502.9434,-548.3111 592.5194,-575.8 593.9582,-576.2415 595.4062,-576.6743 596.8625,-577.0983"/>
<polygon fill="#000000" stroke="#000000" points="596.0145,-580.495 606.5848,-579.7733 597.8715,-573.7458 596.0145,-580.495"/>
</g>
<!-- 0da8e9cc&#45;742c&#45;4461&#45;af2e&#45;1dafe0974e83 -->
<g id="node8" class="node">
<title>0da8e9cc&#45;742c&#45;4461&#45;af2e&#45;1dafe0974e83</title>
<polygon fill="#7fffd4" stroke="#7fffd4" points="829.0009,-212.4019 711.2755,-212.4019 711.2755,-171.1981 829.0009,-171.1981 829.0009,-212.4019"/>
<text text-anchor="middle" x="770.1382" y="-196" font-family="Times,serif" font-size="14.00" fill="#000000">@PerActivity</text>
<text text-anchor="middle" x="770.1382" y="-179.2" font-family="Times,serif" font-size="14.00" fill="#000000">EditorViewModel</text>
</g>
<!-- a973d5c3&#45;5e4e&#45;41ce&#45;b233&#45;dc47a6e09341&#45;&gt;0da8e9cc&#45;742c&#45;4461&#45;af2e&#45;1dafe0974e83 -->
<g id="edge9" class="edge">
<title>a973d5c3&#45;5e4e&#45;41ce&#45;b233&#45;dc47a6e09341&#45;&gt;0da8e9cc&#45;742c&#45;4461&#45;af2e&#45;1dafe0974e83</title>
<path fill="none" stroke="#000000" stroke-dasharray="1,5" d="M474.4774,-190.4438C550.1379,-190.7909 640.1516,-191.2038 700.8197,-191.482"/>
<polygon fill="#000000" stroke="#000000" points="701.0298,-194.9829 711.0458,-191.5289 701.062,-187.983 701.0298,-194.9829"/>
<text text-anchor="middle" x="537.4773" y="-195" font-family="Times,serif" font-size="14.00" fill="#000000">delegates</text>
</g>
<!-- 51e5d61b&#45;df2f&#45;4329&#45;a3e0&#45;6739b4dfcc2f -->
<g id="node10" class="node">
<title>51e5d61b&#45;df2f&#45;4329&#45;a3e0&#45;6739b4dfcc2f</title>
<polygon fill="#7fffd4" stroke="#7fffd4" points="1519.4361,-252.4019 1388.7901,-252.4019 1388.7901,-211.1981 1519.4361,-211.1981 1519.4361,-252.4019"/>
<text text-anchor="middle" x="1454.1131" y="-236" font-family="Times,serif" font-size="14.00" fill="#000000">@PerActivity</text>
<text text-anchor="middle" x="1454.1131" y="-219.2" font-family="Times,serif" font-size="14.00" fill="#000000">AppCompatActivity</text>
</g>
<!-- bf3a7e28&#45;bfce&#45;47cb&#45;bc51&#45;e22726f5373a&#45;&gt;51e5d61b&#45;df2f&#45;4329&#45;a3e0&#45;6739b4dfcc2f -->
<g id="edge10" class="edge">
<title>bf3a7e28&#45;bfce&#45;47cb&#45;bc51&#45;e22726f5373a&#45;&gt;51e5d61b&#45;df2f&#45;4329&#45;a3e0&#45;6739b4dfcc2f</title>
<path fill="none" stroke="#000000" d="M1121.022,-164.7424C1144.0122,-170.2113 1171.2505,-176.5223 1195.9296,-181.8 1257.2492,-194.9135 1327.0863,-208.3478 1378.6519,-217.9842"/>
<polygon fill="#000000" stroke="#000000" points="1378.2414,-221.4679 1388.7134,-219.8596 1379.5241,-214.5864 1378.2414,-221.4679"/>
</g>
<!-- c3ae586a&#45;1b39&#45;476c&#45;86dd&#45;31b149414fcc -->
<g id="node12" class="node">
<title>c3ae586a&#45;1b39&#45;476c&#45;86dd&#45;31b149414fcc</title>
<polygon fill="#76ee00" stroke="#76ee00" points="1495.1759,-172.4019 1413.0503,-172.4019 1413.0503,-131.1981 1495.1759,-131.1981 1495.1759,-172.4019"/>
<text text-anchor="middle" x="1454.1131" y="-156" font-family="Times,serif" font-size="14.00" fill="#000000">@Singleton</text>
<text text-anchor="middle" x="1454.1131" y="-139.2" font-family="Times,serif" font-size="14.00" fill="#000000">Scheduler</text>
</g>
<!-- bf3a7e28&#45;bfce&#45;47cb&#45;bc51&#45;e22726f5373a&#45;&gt;c3ae586a&#45;1b39&#45;476c&#45;86dd&#45;31b149414fcc -->
<g id="edge11" class="edge">
<title>bf3a7e28&#45;bfce&#45;47cb&#45;bc51&#45;e22726f5373a&#45;&gt;c3ae586a&#45;1b39&#45;476c&#45;86dd&#45;31b149414fcc</title>
<path fill="none" stroke="#000000" d="M1121.1469,-151.8C1195.4151,-151.8 1329.1417,-151.8 1402.4968,-151.8"/>
<polygon fill="#000000" stroke="#000000" points="1402.8674,-155.3001 1412.8674,-151.8 1402.8673,-148.3001 1402.8674,-155.3001"/>
</g>
<!-- a890e5b0&#45;7104&#45;408d&#45;bc5a&#45;4b0af6d8bf2b -->
<g id="node9" class="node">
<title>a890e5b0&#45;7104&#45;408d&#45;bc5a&#45;4b0af6d8bf2b</title>
<polygon fill="#76ee00" stroke="#76ee00" points="1517.5318,-112.4019 1390.6944,-112.4019 1390.6944,-71.1981 1517.5318,-71.1981 1517.5318,-112.4019"/>
<text text-anchor="middle" x="1454.1131" y="-96" font-family="Times,serif" font-size="14.00" fill="#000000">@Singleton</text>
<text text-anchor="middle" x="1454.1131" y="-79.2" font-family="Times,serif" font-size="14.00" fill="#000000">EncryptionProvider</text>
</g>
<!-- 147bf710&#45;8635&#45;4dc9&#45;a336&#45;6aa232b9c3ae&#45;&gt;a890e5b0&#45;7104&#45;408d&#45;bc5a&#45;4b0af6d8bf2b -->
<g id="edge16" class="edge">
<title>147bf710&#45;8635&#45;4dc9&#45;a336&#45;6aa232b9c3ae&#45;&gt;a890e5b0&#45;7104&#45;408d&#45;bc5a&#45;4b0af6d8bf2b</title>
<path fill="none" stroke="#000000" d="M1109.1809,-91.8C1173.9452,-91.8 1300.2296,-91.8 1380.7081,-91.8"/>
<polygon fill="#000000" stroke="#000000" points="1380.7746,-95.3001 1390.7745,-91.8 1380.7745,-88.3001 1380.7746,-95.3001"/>
</g>
<!-- c33f66b4&#45;c4fb&#45;4b36&#45;a126&#45;675ce7a5cf92&#45;&gt;51e5d61b&#45;df2f&#45;4329&#45;a3e0&#45;6739b4dfcc2f -->
<g id="edge18" class="edge">
<title>c33f66b4&#45;c4fb&#45;4b36&#45;a126&#45;675ce7a5cf92&#45;&gt;51e5d61b&#45;df2f&#45;4329&#45;a3e0&#45;6739b4dfcc2f</title>
<path fill="none" stroke="#000000" d="M1114.8214,-231.8C1180.4361,-231.8 1300.2515,-231.8 1378.5152,-231.8"/>
<polygon fill="#000000" stroke="#000000" points="1378.7969,-235.3001 1388.7968,-231.8 1378.7968,-228.3001 1378.7969,-235.3001"/>
</g>
<!-- 0da8e9cc&#45;742c&#45;4461&#45;af2e&#45;1dafe0974e83&#45;&gt;20423b44&#45;1574&#45;4c62&#45;8d02&#45;1fc4ece25c06 -->
<g id="edge13" class="edge">
<title>0da8e9cc&#45;742c&#45;4461&#45;af2e&#45;1dafe0974e83&#45;&gt;20423b44&#45;1574&#45;4c62&#45;8d02&#45;1fc4ece25c06</title>
<path fill="none" stroke="#000000" d="M829.0608,-191.8C870.5088,-191.8 927.2752,-191.8 977.257,-191.8 977.257,-191.8 977.257,-191.8 1775.3387,-191.8 1830.2474,-191.8 1881.9847,-149.3164 1911.3577,-119.7304"/>
<polygon fill="#000000" stroke="#000000" points="1913.8951,-122.1412 1918.3318,-112.5201 1908.8637,-117.2745 1913.8951,-122.1412"/>
</g>
<!-- 0da8e9cc&#45;742c&#45;4461&#45;af2e&#45;1dafe0974e83&#45;&gt;147bf710&#45;8635&#45;4dc9&#45;a336&#45;6aa232b9c3ae -->
<g id="edge15" class="edge">
<title>0da8e9cc&#45;742c&#45;4461&#45;af2e&#45;1dafe0974e83&#45;&gt;147bf710&#45;8635&#45;4dc9&#45;a336&#45;6aa232b9c3ae</title>
<path fill="none" stroke="#000000" d="M829.0587,-186.6076C867.0641,-181.8785 917.0096,-173.0421 958.757,-156.8 986.11,-146.1582 989.5303,-136.8015 1014.757,-121.8 1017.1881,-120.3543 1019.6901,-118.8836 1022.2215,-117.4088"/>
<polygon fill="#000000" stroke="#000000" points="1023.9713,-120.4401 1030.8823,-112.4095 1020.4718,-114.3776 1023.9713,-120.4401"/>
</g>
<!-- 0da8e9cc&#45;742c&#45;4461&#45;af2e&#45;1dafe0974e83&#45;&gt;c33f66b4&#45;c4fb&#45;4b36&#45;a126&#45;675ce7a5cf92 -->
<g id="edge17" class="edge">
<title>0da8e9cc&#45;742c&#45;4461&#45;af2e&#45;1dafe0974e83&#45;&gt;c33f66b4&#45;c4fb&#45;4b36&#45;a126&#45;675ce7a5cf92</title>
<path fill="none" stroke="#000000" d="M829.3111,-199.7505C882.0897,-206.8419 958.8497,-217.1555 1010.9295,-224.153"/>
<polygon fill="#000000" stroke="#000000" points="1010.6249,-227.6434 1021.0019,-225.5063 1011.5571,-220.7058 1010.6249,-227.6434"/>
</g>
<!-- a890e5b0&#45;7104&#45;408d&#45;bc5a&#45;4b0af6d8bf2b&#45;&gt;20423b44&#45;1574&#45;4c62&#45;8d02&#45;1fc4ece25c06 -->
<g id="edge14" class="edge">
<title>a890e5b0&#45;7104&#45;408d&#45;bc5a&#45;4b0af6d8bf2b&#45;&gt;20423b44&#45;1574&#45;4c62&#45;8d02&#45;1fc4ece25c06</title>
<path fill="none" stroke="#000000" d="M1517.6542,-91.8C1614.2177,-91.8 1796.0455,-91.8 1884.8811,-91.8"/>
<polygon fill="#000000" stroke="#000000" points="1884.9848,-95.3001 1894.9847,-91.8 1884.9847,-88.3001 1884.9848,-95.3001"/>
</g>
<!-- df4e0e2f&#45;3a4c&#45;4224&#45;9e2d&#45;f4a391b08c8b -->
<g id="node11" class="node">
<title>df4e0e2f&#45;3a4c&#45;4224&#45;9e2d&#45;f4a391b08c8b</title>
<polygon fill="#40e0d0" stroke="#40e0d0" points="2034.3139,-249.8 1878.4888,-249.8 1838.4031,-213.8 1994.2282,-213.8 2034.3139,-249.8"/>
<text text-anchor="middle" x="1936.3585" y="-227.6" font-family="Times,serif" font-size="14.00" fill="#000000">EditorActivity</text>
</g>
<!-- 51e5d61b&#45;df2f&#45;4329&#45;a3e0&#45;6739b4dfcc2f&#45;&gt;df4e0e2f&#45;3a4c&#45;4224&#45;9e2d&#45;f4a391b08c8b -->
<g id="edge32" class="edge">
<title>51e5d61b&#45;df2f&#45;4329&#45;a3e0&#45;6739b4dfcc2f&#45;&gt;df4e0e2f&#45;3a4c&#45;4224&#45;9e2d&#45;f4a391b08c8b</title>
<path fill="none" stroke="#000000" stroke-dasharray="1,5" d="M1519.4016,-231.8C1604.3086,-231.8 1752.9608,-231.8 1847.9254,-231.8"/>
<polygon fill="#000000" stroke="#000000" points="1848.0867,-235.3001 1858.0866,-231.8 1848.0866,-228.3001 1848.0867,-235.3001"/>
<text text-anchor="middle" x="1775.3387" y="-236" font-family="Times,serif" font-size="14.00" fill="#000000">delegates</text>
</g>
<!-- c3ae586a&#45;1b39&#45;476c&#45;86dd&#45;31b149414fcc&#45;&gt;20423b44&#45;1574&#45;4c62&#45;8d02&#45;1fc4ece25c06 -->
<g id="edge12" class="edge">
<title>c3ae586a&#45;1b39&#45;476c&#45;86dd&#45;31b149414fcc&#45;&gt;20423b44&#45;1574&#45;4c62&#45;8d02&#45;1fc4ece25c06</title>
<path fill="none" stroke="#000000" d="M1495.1922,-147.5018C1547.5147,-141.9509 1640.7024,-131.8094 1720.2966,-121.8 1776.6498,-114.7133 1841.1302,-105.6335 1884.8739,-99.3283"/>
<polygon fill="#000000" stroke="#000000" points="1885.5833,-102.7622 1894.9799,-97.8678 1884.582,-95.8342 1885.5833,-102.7622"/>
</g>
<!-- 0a3f36f9&#45;22b0&#45;4b54&#45;8573&#45;1664c5e6600d -->
<g id="node14" class="node">
<title>0a3f36f9&#45;22b0&#45;4b54&#45;8573&#45;1664c5e6600d</title>
<polygon fill="#40e0d0" stroke="#40e0d0" points="1675.1555,-900.8 1233.0707,-900.8 1233.0707,-864.8 1675.1555,-864.8 1675.1555,-900.8"/>
<text text-anchor="middle" x="1454.1131" y="-878.6" font-family="Times,serif" font-size="14.00" fill="#000000">AndroidBindingModule_BindRegionActivity.bindAndroidInjectorFactory()</text>
</g>
<!-- c5359830&#45;26a1&#45;4885&#45;907b&#45;6891aacb71fc&#45;&gt;0a3f36f9&#45;22b0&#45;4b54&#45;8573&#45;1664c5e6600d -->
<g id="edge22" class="edge">
<title>c5359830&#45;26a1&#45;4885&#45;907b&#45;6891aacb71fc&#45;&gt;0a3f36f9&#45;22b0&#45;4b54&#45;8573&#45;1664c5e6600d</title>
<path fill="none" stroke="#000000" d="M935.5913,-615.8236C937.0188,-617.0944 938.4083,-618.4193 939.757,-619.8 977.9363,-658.8869 922.6178,-862.8 977.257,-862.8 977.257,-862.8 977.257,-862.8 1158.4296,-862.8 1180.9395,-862.8 1204.3914,-863.3841 1227.8059,-864.3527"/>
<polygon fill="#000000" stroke="#000000" points="1227.6923,-867.851 1237.8356,-864.7908 1227.9979,-860.8577 1227.6923,-867.851"/>
</g>
<!-- 1e89ccbf&#45;4d59&#45;433c&#45;b2e5&#45;00e6a78f3697 -->
<g id="node15" class="node">
<title>1e89ccbf&#45;4d59&#45;433c&#45;b2e5&#45;00e6a78f3697</title>
<polygon fill="#40e0d0" stroke="#40e0d0" points="1679.7051,-954.8 1228.5211,-954.8 1228.5211,-918.8 1679.7051,-918.8 1679.7051,-954.8"/>
<text text-anchor="middle" x="1454.1131" y="-932.6" font-family="Times,serif" font-size="14.00" fill="#000000">AndroidBindingModule_BindContactsActivity.bindAndroidInjectorFactory()</text>
</g>
<!-- c5359830&#45;26a1&#45;4885&#45;907b&#45;6891aacb71fc&#45;&gt;1e89ccbf&#45;4d59&#45;433c&#45;b2e5&#45;00e6a78f3697 -->
<g id="edge20" class="edge">
<title>c5359830&#45;26a1&#45;4885&#45;907b&#45;6891aacb71fc&#45;&gt;1e89ccbf&#45;4d59&#45;433c&#45;b2e5&#45;00e6a78f3697</title>
<path fill="none" stroke="#000000" d="M935.9722,-616.0676C937.2679,-617.2643 938.5303,-618.5079 939.757,-619.8 985.5606,-668.0439 910.733,-916.8 977.257,-916.8 977.257,-916.8 977.257,-916.8 1158.4296,-916.8 1180.9395,-916.8 1204.3914,-917.3841 1227.8059,-918.3527"/>
<polygon fill="#000000" stroke="#000000" points="1227.6923,-921.851 1237.8356,-918.7908 1227.9979,-914.8577 1227.6923,-921.851"/>
</g>
<!-- 68a8ac07&#45;242a&#45;4b2a&#45;9bf7&#45;05c0b4fa08dd -->
<g id="node16" class="node">
<title>68a8ac07&#45;242a&#45;4b2a&#45;9bf7&#45;05c0b4fa08dd</title>
<polygon fill="#40e0d0" stroke="#40e0d0" points="1681.8532,-306.8 1226.373,-306.8 1226.373,-270.8 1681.8532,-270.8 1681.8532,-306.8"/>
<text text-anchor="middle" x="1454.1131" y="-284.6" font-family="Times,serif" font-size="14.00" fill="#000000">AndroidBindingModule_BindWelcomeActivity.bindAndroidInjectorFactory()</text>
</g>
<!-- c5359830&#45;26a1&#45;4885&#45;907b&#45;6891aacb71fc&#45;&gt;68a8ac07&#45;242a&#45;4b2a&#45;9bf7&#45;05c0b4fa08dd -->
<g id="edge27" class="edge">
<title>c5359830&#45;26a1&#45;4885&#45;907b&#45;6891aacb71fc&#45;&gt;68a8ac07&#45;242a&#45;4b2a&#45;9bf7&#45;05c0b4fa08dd</title>
<path fill="none" stroke="#000000" d="M935.9624,-579.5231C937.2612,-578.3293 938.5269,-577.0888 939.757,-575.8 982.7972,-530.7059 914.9197,-297.8 977.257,-297.8 977.257,-297.8 977.257,-297.8 1158.4296,-297.8 1177.126,-297.8 1196.4843,-297.618 1215.9382,-297.3058"/>
<polygon fill="#000000" stroke="#000000" points="1216.1787,-300.8022 1226.1171,-297.1309 1216.0584,-293.8033 1216.1787,-300.8022"/>
</g>
<!-- 4d438c53&#45;e60a&#45;4cca&#45;a3ff&#45;d68547009ad5 -->
<g id="node17" class="node">
<title>4d438c53&#45;e60a&#45;4cca&#45;a3ff&#45;d68547009ad5</title>
<polygon fill="#40e0d0" stroke="#40e0d0" points="1687.2341,-360.8 1220.9921,-360.8 1220.9921,-324.8 1687.2341,-324.8 1687.2341,-360.8"/>
<text text-anchor="middle" x="1454.1131" y="-338.6" font-family="Times,serif" font-size="14.00" fill="#000000">AndroidBindingModule_BindBackgroundService.bindAndroidInjectorFactory()</text>
</g>
<!-- c5359830&#45;26a1&#45;4885&#45;907b&#45;6891aacb71fc&#45;&gt;4d438c53&#45;e60a&#45;4cca&#45;a3ff&#45;d68547009ad5 -->
<g id="edge19" class="edge">
<title>c5359830&#45;26a1&#45;4885&#45;907b&#45;6891aacb71fc&#45;&gt;4d438c53&#45;e60a&#45;4cca&#45;a3ff&#45;d68547009ad5</title>
<path fill="none" stroke="#000000" d="M935.5137,-579.6991C936.9657,-578.4527 938.3811,-577.1536 939.757,-575.8 976.673,-539.4819 925.471,-345.8 977.257,-345.8 977.257,-345.8 977.257,-345.8 1158.4296,-345.8 1175.3807,-345.8 1192.8781,-345.7501 1210.499,-345.6631"/>
<polygon fill="#000000" stroke="#000000" points="1210.9038,-349.1611 1220.8849,-345.6078 1210.8664,-342.1612 1210.9038,-349.1611"/>
</g>
<!-- 778857a0&#45;286b&#45;4afd&#45;8772&#45;502947fd8b32 -->
<g id="node18" class="node">
<title>778857a0&#45;286b&#45;4afd&#45;8772&#45;502947fd8b32</title>
<polygon fill="#40e0d0" stroke="#40e0d0" points="1672.7079,-414.8 1235.5183,-414.8 1235.5183,-378.8 1672.7079,-378.8 1672.7079,-414.8"/>
<text text-anchor="middle" x="1454.1131" y="-392.6" font-family="Times,serif" font-size="14.00" fill="#000000">AndroidBindingModule_BindEditorActivity.bindAndroidInjectorFactory()</text>
</g>
<!-- c5359830&#45;26a1&#45;4885&#45;907b&#45;6891aacb71fc&#45;&gt;778857a0&#45;286b&#45;4afd&#45;8772&#45;502947fd8b32 -->
<g id="edge30" class="edge">
<title>c5359830&#45;26a1&#45;4885&#45;907b&#45;6891aacb71fc&#45;&gt;778857a0&#45;286b&#45;4afd&#45;8772&#45;502947fd8b32</title>
<path fill="none" stroke="#000000" d="M935.4146,-579.5957C936.8979,-578.382 938.3463,-577.1173 939.757,-575.8 982.1491,-536.2132 919.2553,-450.8 977.257,-450.8 977.257,-450.8 977.257,-450.8 1158.4296,-450.8 1178.9668,-450.8 1176.7388,-431.1137 1195.9296,-423.8 1205.5038,-420.1512 1215.4137,-416.9376 1225.5241,-414.1106"/>
<polygon fill="#000000" stroke="#000000" points="1226.5104,-417.47 1235.2747,-411.517 1224.711,-410.7053 1226.5104,-417.47"/>
</g>
<!-- dba25852&#45;b8da&#45;4909&#45;b055&#45;08599f956d74 -->
<g id="node19" class="node">
<title>dba25852&#45;b8da&#45;4909&#45;b055&#45;08599f956d74</title>
<polygon fill="#40e0d0" stroke="#40e0d0" points="1712.4802,-468.8 1195.746,-468.8 1195.746,-432.8 1712.4802,-432.8 1712.4802,-468.8"/>
<text text-anchor="middle" x="1454.1131" y="-446.6" font-family="Times,serif" font-size="14.00" fill="#000000">AndroidBindingModule_BindBackgroundServiceReceiver.bindAndroidInjectorFactory()</text>
</g>
<!-- c5359830&#45;26a1&#45;4885&#45;907b&#45;6891aacb71fc&#45;&gt;dba25852&#45;b8da&#45;4909&#45;b055&#45;08599f956d74 -->
<g id="edge28" class="edge">
<title>c5359830&#45;26a1&#45;4885&#45;907b&#45;6891aacb71fc&#45;&gt;dba25852&#45;b8da&#45;4909&#45;b055&#45;08599f956d74</title>
<path fill="none" stroke="#000000" d="M934.3558,-579.7159C936.196,-578.4701 937.9978,-577.1656 939.757,-575.8 975.2879,-548.2189 932.2774,-481.8 977.257,-481.8 977.257,-481.8 977.257,-481.8 1158.4296,-481.8 1175.1908,-481.8 1179.2611,-479.5606 1195.9296,-477.8 1220.263,-475.2299 1245.8878,-472.5355 1271.1618,-469.8851"/>
<polygon fill="#000000" stroke="#000000" points="1271.6237,-473.356 1281.2042,-468.8324 1270.8938,-466.3941 1271.6237,-473.356"/>
</g>
<!-- 874dd814&#45;931e&#45;493f&#45;9e1b&#45;a3bf42e307dc -->
<g id="node20" class="node">
<title>874dd814&#45;931e&#45;493f&#45;9e1b&#45;a3bf42e307dc</title>
<polygon fill="#40e0d0" stroke="#40e0d0" points="1672.4366,-522.8 1235.7896,-522.8 1235.7896,-486.8 1672.4366,-486.8 1672.4366,-522.8"/>
<text text-anchor="middle" x="1454.1131" y="-500.6" font-family="Times,serif" font-size="14.00" fill="#000000">AndroidBindingModule_BindStatusActivity.bindAndroidInjectorFactory()</text>
</g>
<!-- c5359830&#45;26a1&#45;4885&#45;907b&#45;6891aacb71fc&#45;&gt;874dd814&#45;931e&#45;493f&#45;9e1b&#45;a3bf42e307dc -->
<g id="edge29" class="edge">
<title>c5359830&#45;26a1&#45;4885&#45;907b&#45;6891aacb71fc&#45;&gt;874dd814&#45;931e&#45;493f&#45;9e1b&#45;a3bf42e307dc</title>
<path fill="none" stroke="#000000" d="M930.2195,-579.72C933.4526,-578.4905 936.6357,-577.1853 939.757,-575.8 959.7833,-566.9119 955.347,-543.8 977.257,-543.8 977.257,-543.8 977.257,-543.8 1158.4296,-543.8 1175.9288,-543.8 1178.8038,-535.3957 1195.9296,-531.8 1208.9728,-529.0615 1222.4479,-526.5954 1236.0809,-524.3753"/>
<polygon fill="#000000" stroke="#000000" points="1236.7013,-527.8207 1246.0319,-522.8018 1235.6079,-520.9066 1236.7013,-527.8207"/>
</g>
<!-- 3a6d4128&#45;41c2&#45;440a&#45;bcd5&#45;3c4dce70e04d -->
<g id="node21" class="node">
<title>3a6d4128&#45;41c2&#45;440a&#45;bcd5&#45;3c4dce70e04d</title>
<polygon fill="#40e0d0" stroke="#40e0d0" points="1687.9957,-576.8 1220.2305,-576.8 1220.2305,-540.8 1687.9957,-540.8 1687.9957,-576.8"/>
<text text-anchor="middle" x="1454.1131" y="-554.6" font-family="Times,serif" font-size="14.00" fill="#000000">AndroidBindingModule_BindPreferencesActivity.bindAndroidInjectorFactory()</text>
</g>
<!-- c5359830&#45;26a1&#45;4885&#45;907b&#45;6891aacb71fc&#45;&gt;3a6d4128&#45;41c2&#45;440a&#45;bcd5&#45;3c4dce70e04d -->
<g id="edge31" class="edge">
<title>c5359830&#45;26a1&#45;4885&#45;907b&#45;6891aacb71fc&#45;&gt;3a6d4128&#45;41c2&#45;440a&#45;bcd5&#45;3c4dce70e04d</title>
<path fill="none" stroke="#000000" d="M939.9118,-585.4183C952.5438,-585.0259 965.0973,-584.8 977.257,-584.8 977.257,-584.8 977.257,-584.8 1158.4296,-584.8 1203.5835,-584.8 1252.4676,-581.754 1297.2383,-577.7472"/>
<polygon fill="#000000" stroke="#000000" points="1297.6838,-581.2211 1307.3224,-576.8224 1297.0446,-574.2503 1297.6838,-581.2211"/>
</g>
<!-- 8f69d7ec&#45;6602&#45;402e&#45;bd1c&#45;fab272a72739 -->
<g id="node22" class="node">
<title>8f69d7ec&#45;6602&#45;402e&#45;bd1c&#45;fab272a72739</title>
<polygon fill="#40e0d0" stroke="#40e0d0" points="1667.8728,-630.8 1240.3534,-630.8 1240.3534,-594.8 1667.8728,-594.8 1667.8728,-630.8"/>
<text text-anchor="middle" x="1454.1131" y="-608.6" font-family="Times,serif" font-size="14.00" fill="#000000">AndroidBindingModule_BindMapActivity.bindAndroidInjectorFactory()</text>
</g>
<!-- c5359830&#45;26a1&#45;4885&#45;907b&#45;6891aacb71fc&#45;&gt;8f69d7ec&#45;6602&#45;402e&#45;bd1c&#45;fab272a72739 -->
<g id="edge21" class="edge">
<title>c5359830&#45;26a1&#45;4885&#45;907b&#45;6891aacb71fc&#45;&gt;8f69d7ec&#45;6602&#45;402e&#45;bd1c&#45;fab272a72739</title>
<path fill="none" stroke="#000000" d="M939.9198,-609.2293C952.5499,-609.5914 965.1008,-609.8 977.257,-609.8 977.257,-609.8 977.257,-609.8 1158.4296,-609.8 1181.5631,-609.8 1205.7142,-609.893 1229.8079,-610.0461"/>
<polygon fill="#000000" stroke="#000000" points="1230.1038,-613.5481 1240.1271,-610.1154 1230.1508,-606.5483 1230.1038,-613.5481"/>
</g>
<!-- 0f17ce9c&#45;8157&#45;4cb4&#45;bd20&#45;40438a4197b8 -->
<g id="node23" class="node">
<title>0f17ce9c&#45;8157&#45;4cb4&#45;bd20&#45;40438a4197b8</title>
<polygon fill="#40e0d0" stroke="#40e0d0" points="1686.9597,-684.8 1221.2665,-684.8 1221.2665,-648.8 1686.9597,-648.8 1686.9597,-684.8"/>
<text text-anchor="middle" x="1454.1131" y="-662.6" font-family="Times,serif" font-size="14.00" fill="#000000">AndroidBindingModule_BindLogViewerActivity.bindAndroidInjectorFactory()</text>
</g>
<!-- c5359830&#45;26a1&#45;4885&#45;907b&#45;6891aacb71fc&#45;&gt;0f17ce9c&#45;8157&#45;4cb4&#45;bd20&#45;40438a4197b8 -->
<g id="edge25" class="edge">
<title>c5359830&#45;26a1&#45;4885&#45;907b&#45;6891aacb71fc&#45;&gt;0f17ce9c&#45;8157&#45;4cb4&#45;bd20&#45;40438a4197b8</title>
<path fill="none" stroke="#000000" d="M929.2144,-615.9437C932.7861,-617.1514 936.3052,-618.4353 939.757,-619.8 958.8557,-627.3509 956.7198,-646.8 977.257,-646.8 977.257,-646.8 977.257,-646.8 1158.4296,-646.8 1180.9395,-646.8 1204.3914,-647.3841 1227.8059,-648.3527"/>
<polygon fill="#000000" stroke="#000000" points="1227.6923,-651.851 1237.8356,-648.7908 1227.9979,-644.8577 1227.6923,-651.851"/>
</g>
<!-- 81f8d429&#45;608f&#45;4f06&#45;a4e3&#45;5cb9c5ed378f -->
<g id="node24" class="node">
<title>81f8d429&#45;608f&#45;4f06&#45;a4e3&#45;5cb9c5ed378f</title>
<polygon fill="#40e0d0" stroke="#40e0d0" points="1669.4807,-738.8 1238.7455,-738.8 1238.7455,-702.8 1669.4807,-702.8 1669.4807,-738.8"/>
<text text-anchor="middle" x="1454.1131" y="-716.6" font-family="Times,serif" font-size="14.00" fill="#000000">AndroidBindingModule_BindLoadActivity.bindAndroidInjectorFactory()</text>
</g>
<!-- c5359830&#45;26a1&#45;4885&#45;907b&#45;6891aacb71fc&#45;&gt;81f8d429&#45;608f&#45;4f06&#45;a4e3&#45;5cb9c5ed378f -->
<g id="edge24" class="edge">
<title>c5359830&#45;26a1&#45;4885&#45;907b&#45;6891aacb71fc&#45;&gt;81f8d429&#45;608f&#45;4f06&#45;a4e3&#45;5cb9c5ed378f</title>
<path fill="none" stroke="#000000" d="M934.2534,-616.0198C936.1257,-617.223 937.9615,-618.4824 939.757,-619.8 971.7396,-643.2711 937.5861,-700.8 977.257,-700.8 977.257,-700.8 977.257,-700.8 1158.4296,-700.8 1181.1646,-700.8 1204.8606,-701.3959 1228.5084,-702.3819"/>
<polygon fill="#000000" stroke="#000000" points="1228.493,-705.8845 1238.6372,-702.8278 1228.8009,-698.8913 1228.493,-705.8845"/>
</g>
<!-- 93262b84&#45;e072&#45;4885&#45;98ca&#45;291fb0f87636 -->
<g id="node25" class="node">
<title>93262b84&#45;e072&#45;4885&#45;98ca&#45;291fb0f87636</title>
<polygon fill="#40e0d0" stroke="#40e0d0" points="1678.0999,-792.8 1230.1263,-792.8 1230.1263,-756.8 1678.0999,-756.8 1678.0999,-792.8"/>
<text text-anchor="middle" x="1454.1131" y="-770.6" font-family="Times,serif" font-size="14.00" fill="#000000">AndroidBindingModule_BindRegionsActivity.bindAndroidInjectorFactory()</text>
</g>
<!-- c5359830&#45;26a1&#45;4885&#45;907b&#45;6891aacb71fc&#45;&gt;93262b84&#45;e072&#45;4885&#45;98ca&#45;291fb0f87636 -->
<g id="edge26" class="edge">
<title>c5359830&#45;26a1&#45;4885&#45;907b&#45;6891aacb71fc&#45;&gt;93262b84&#45;e072&#45;4885&#45;98ca&#45;291fb0f87636</title>
<path fill="none" stroke="#000000" d="M934.9896,-615.8148C936.6186,-617.0853 938.2089,-618.4129 939.757,-619.8 986.1361,-661.3543 914.9852,-754.8 977.257,-754.8 977.257,-754.8 977.257,-754.8 1158.4296,-754.8 1180.9395,-754.8 1204.3914,-755.3841 1227.8059,-756.3527"/>
<polygon fill="#000000" stroke="#000000" points="1227.6923,-759.851 1237.8356,-756.7908 1227.9979,-752.8577 1227.6923,-759.851"/>
</g>
<!-- 3b8a0665&#45;6ff9&#45;4577&#45;a6f2&#45;f9960a560946 -->
<g id="node26" class="node">
<title>3b8a0665&#45;6ff9&#45;4577&#45;a6f2&#45;f9960a560946</title>
<polygon fill="#40e0d0" stroke="#40e0d0" points="1687.2606,-846.8 1220.9656,-846.8 1220.9656,-810.8 1687.2606,-810.8 1687.2606,-846.8"/>
<text text-anchor="middle" x="1454.1131" y="-824.6" font-family="Times,serif" font-size="14.00" fill="#000000">AndroidBindingModule_BindConnectionActivity.bindAndroidInjectorFactory()</text>
</g>
<!-- c5359830&#45;26a1&#45;4885&#45;907b&#45;6891aacb71fc&#45;&gt;3b8a0665&#45;6ff9&#45;4577&#45;a6f2&#45;f9960a560946 -->
<g id="edge23" class="edge">
<title>c5359830&#45;26a1&#45;4885&#45;907b&#45;6891aacb71fc&#45;&gt;3b8a0665&#45;6ff9&#45;4577&#45;a6f2&#45;f9960a560946</title>
<path fill="none" stroke="#000000" d="M935.5365,-615.8779C936.9813,-617.1316 938.3891,-618.4383 939.757,-619.8 970.1032,-650.0085 934.4383,-808.8 977.257,-808.8 977.257,-808.8 977.257,-808.8 1158.4296,-808.8 1180.9395,-808.8 1204.3914,-809.3841 1227.8059,-810.3527"/>
<polygon fill="#000000" stroke="#000000" points="1227.6923,-813.851 1237.8356,-810.7908 1227.9979,-806.8577 1227.6923,-813.851"/>
</g>
</g>
</svg>
