<svg width="2048px" height="1040px"
 viewBox="0.00 0.00 2047.86 1039.60" xmlns="http://www.w3.org/2000/svg" xmlns:xlink="http://www.w3.org/1999/xlink">
<g id="graph0" class="graph" transform="scale(1.0 1.0) rotate(0) translate(14.4 1025.2)">
<title>org.owntracks.android.injection.modules.AndroidBindingModule → org.owntracks.android.injection.modules.AndroidBindingModule_BindLoadActivity.LoadActivitySubcomponent</title>
<polygon fill="#ffffff" stroke="transparent" points="-14.4,14.4 -14.4,-1025.2 2033.4588,-1025.2 2033.4588,14.4 -14.4,14.4"/>
<text text-anchor="middle" x="287.5863" y="-8.2" font-family="Times,serif" font-size="14.00" fill="#000000">AndroidBindingModule → AndroidBindingModule_BindLoadActivity.LoadActivitySubcomponent</text>
<g id="clust1" class="cluster">
<title>cluster_Entry Points</title>
<polygon fill="none" stroke="#000000" points="8,-147.8 8,-224.8 158.573,-224.8 158.573,-147.8 8,-147.8"/>
<text text-anchor="middle" x="50.8061" y="-208.2" font-family="Times,serif" font-size="14.00" fill="#000000">Entry Points</text>
</g>
<g id="clust2" class="cluster">
<title>cluster_Dependency Graph</title>
<polygon fill="none" stroke="#000000" points="179.573,-44.8 179.573,-1002.8 2011.0588,-1002.8 2011.0588,-44.8 179.573,-44.8"/>
<text text-anchor="middle" x="241.7964" y="-986.2" font-family="Times,serif" font-size="14.00" fill="#000000">Dependency Graph</text>
</g>
<g id="clust3" class="cluster">
<title>cluster_Map&lt;Class&lt;?&gt;, Provider&lt;AndroidInjector.Factory&lt;?&gt;&gt;&gt;</title>
<path fill="none" stroke="#000000" d="M585.8378,-244.8C585.8378,-244.8 1689.615,-244.8 1689.615,-244.8 1695.615,-244.8 1701.615,-250.8 1701.615,-256.8 1701.615,-256.8 1701.615,-957.8 1701.615,-957.8 1701.615,-963.8 1695.615,-969.8 1689.615,-969.8 1689.615,-969.8 585.8378,-969.8 585.8378,-969.8 579.8378,-969.8 573.8378,-963.8 573.8378,-957.8 573.8378,-957.8 573.8378,-256.8 573.8378,-256.8 573.8378,-250.8 579.8378,-244.8 585.8378,-244.8"/>
<text text-anchor="middle" x="1137.7264" y="-953.2" font-family="Times,serif" font-size="14.00" fill="#000000">Map&lt;Class&lt;?&gt;, Provider&lt;AndroidInjector.Factory&lt;?&gt;&gt;&gt;</text>
</g>
<!-- e5a0a7a5&#45;d545&#45;447a&#45;a5ae&#45;4008812d61b2 -->
<g id="node1" class="node">
<title>e5a0a7a5&#45;d545&#45;447a&#45;a5ae&#45;4008812d61b2</title>
<polygon fill="#40e0d0" stroke="#40e0d0" stroke-width="2" points="150.3602,-191.8 16.2128,-191.8 16.2128,-187.8 12.2128,-187.8 12.2128,-183.8 16.2128,-183.8 16.2128,-163.8 12.2128,-163.8 12.2128,-159.8 16.2128,-159.8 16.2128,-155.8 150.3602,-155.8 150.3602,-191.8"/>
<polyline fill="none" stroke="#40e0d0" stroke-width="2" points="16.2128,-187.8 20.2128,-187.8 20.2128,-183.8 16.2128,-183.8 "/>
<polyline fill="none" stroke="#40e0d0" stroke-width="2" points="16.2128,-163.8 20.2128,-163.8 20.2128,-159.8 16.2128,-159.8 "/>
<text text-anchor="middle" x="83.2865" y="-169.6" font-family="Times,serif" font-size="14.00" fill="#000000">inject (LoadActivity)</text>
</g>
<!-- 7ebb211c&#45;b581&#45;4812&#45;917e&#45;78beace4624b -->
<g id="node2" class="node">
<title>7ebb211c&#45;b581&#45;4812&#45;917e&#45;78beace4624b</title>
<polygon fill="#40e0d0" stroke="#40e0d0" points="435.1111,-438.8 208.2155,-438.8 208.2155,-402.8 435.1111,-402.8 435.1111,-438.8"/>
<text text-anchor="middle" x="321.6633" y="-416.6" font-family="Times,serif" font-size="14.00" fill="#000000">DispatchingAndroidInjector&lt;Object&gt;</text>
</g>
<!-- e5a0a7a5&#45;d545&#45;447a&#45;a5ae&#45;4008812d61b2&#45;&gt;7ebb211c&#45;b581&#45;4812&#45;917e&#45;78beace4624b -->
<g id="edge1" class="edge">
<title>e5a0a7a5&#45;d545&#45;447a&#45;a5ae&#45;4008812d61b2&#45;&gt;7ebb211c&#45;b581&#45;4812&#45;917e&#45;78beace4624b</title>
<path fill="none" stroke="#000000" d="M100.8149,-191.9625C142.7456,-235.41 248.9275,-345.433 297.1564,-395.4066"/>
<polygon fill="#000000" stroke="#000000" points="294.6464,-397.8458 304.1092,-402.6109 299.6833,-392.9848 294.6464,-397.8458"/>
</g>
<!-- 17925f2c&#45;2aa1&#45;4460&#45;ab0a&#45;5e57608c9625 -->
<g id="node3" class="node">
<title>17925f2c&#45;2aa1&#45;4460&#45;ab0a&#45;5e57608c9625</title>
<polygon fill="#40e0d0" stroke="#40e0d0" points="455.844,-191.8 187.4826,-191.8 187.4826,-155.8 455.844,-155.8 455.844,-191.8"/>
<text text-anchor="middle" x="321.6633" y="-169.6" font-family="Times,serif" font-size="14.00" fill="#000000">LoadMvvm.ViewModel&lt;LoadMvvm.View&gt;</text>
</g>
<!-- e5a0a7a5&#45;d545&#45;447a&#45;a5ae&#45;4008812d61b2&#45;&gt;17925f2c&#45;2aa1&#45;4460&#45;ab0a&#45;5e57608c9625 -->
<g id="edge4" class="edge">
<title>e5a0a7a5&#45;d545&#45;447a&#45;a5ae&#45;4008812d61b2&#45;&gt;17925f2c&#45;2aa1&#45;4460&#45;ab0a&#45;5e57608c9625</title>
<path fill="none" stroke="#000000" d="M150.6399,-173.8C159.0425,-173.8 167.872,-173.8 176.9072,-173.8"/>
<polygon fill="#000000" stroke="#000000" points="177.1838,-177.3001 187.1838,-173.8 177.1838,-170.3001 177.1838,-177.3001"/>
</g>
<!-- bdc5b8d6&#45;b099&#45;433e&#45;a372&#45;6174fc14f9c3 -->
<g id="node4" class="node">
<title>bdc5b8d6&#45;b099&#45;433e&#45;a372&#45;6174fc14f9c3</title>
<polygon fill="#7fffd4" stroke="#7fffd4" points="1102.3344,-94.4019 995.989,-94.4019 995.989,-53.1981 1102.3344,-53.1981 1102.3344,-94.4019"/>
<text text-anchor="middle" x="1049.1617" y="-78" font-family="Times,serif" font-size="14.00" fill="#000000">@PerActivity</text>
<text text-anchor="middle" x="1049.1617" y="-61.2" font-family="Times,serif" font-size="14.00" fill="#000000">DrawerProvider</text>
</g>
<!-- e5a0a7a5&#45;d545&#45;447a&#45;a5ae&#45;4008812d61b2&#45;&gt;bdc5b8d6&#45;b099&#45;433e&#45;a372&#45;6174fc14f9c3 -->
<g id="edge2" class="edge">
<title>e5a0a7a5&#45;d545&#45;447a&#45;a5ae&#45;4008812d61b2&#45;&gt;bdc5b8d6&#45;b099&#45;433e&#45;a372&#45;6174fc14f9c3</title>
<path fill="none" stroke="#000000" d="M113.3241,-155.7799C157.394,-131.0979 242.9002,-89.8 321.6633,-89.8 321.6633,-89.8 321.6633,-89.8 958.5754,-89.8 967.394,-89.8 976.6228,-89.0556 985.6747,-87.8879"/>
<polygon fill="#000000" stroke="#000000" points="986.4007,-91.319 995.788,-86.4068 985.3864,-84.3929 986.4007,-91.319"/>
</g>
<!-- d6b24bd9&#45;c102&#45;42a0&#45;b709&#45;761a533882a1 -->
<g id="node5" class="node">
<title>d6b24bd9&#45;c102&#45;42a0&#45;b709&#45;761a533882a1</title>
<polygon fill="#76ee00" stroke="#76ee00" points="1952.4418,-114.4019 1870.3163,-114.4019 1870.3163,-73.1981 1952.4418,-73.1981 1952.4418,-114.4019"/>
<text text-anchor="middle" x="1911.379" y="-98" font-family="Times,serif" font-size="14.00" fill="#000000">@Singleton</text>
<text text-anchor="middle" x="1911.379" y="-81.2" font-family="Times,serif" font-size="14.00" fill="#000000">Preferences</text>
</g>
<!-- e5a0a7a5&#45;d545&#45;447a&#45;a5ae&#45;4008812d61b2&#45;&gt;d6b24bd9&#45;c102&#45;42a0&#45;b709&#45;761a533882a1 -->
<g id="edge3" class="edge">
<title>e5a0a7a5&#45;d545&#45;447a&#45;a5ae&#45;4008812d61b2&#45;&gt;d6b24bd9&#45;c102&#45;42a0&#45;b709&#45;761a533882a1</title>
<path fill="none" stroke="#000000" d="M98.504,-155.5297C133.4659,-115.7424 224.0546,-24.8 321.6633,-24.8 321.6633,-24.8 321.6633,-24.8 1756.6571,-24.8 1800.2907,-24.8 1845.313,-47.9727 1875.4606,-67.4603"/>
<polygon fill="#000000" stroke="#000000" points="1873.673,-70.4747 1883.938,-73.0977 1877.5492,-64.6459 1873.673,-70.4747"/>
</g>
<!-- c89889d9&#45;622b&#45;4d82&#45;836c&#45;34bd5837a804 -->
<g id="node6" class="node">
<title>c89889d9&#45;622b&#45;4d82&#45;836c&#45;34bd5837a804</title>
<polygon fill="#7fffd4" stroke="#7fffd4" points="1096.0967,-234.4019 1002.2267,-234.4019 1002.2267,-193.1981 1096.0967,-193.1981 1096.0967,-234.4019"/>
<text text-anchor="middle" x="1049.1617" y="-218" font-family="Times,serif" font-size="14.00" fill="#000000">@PerActivity</text>
<text text-anchor="middle" x="1049.1617" y="-201.2" font-family="Times,serif" font-size="14.00" fill="#000000">Navigator</text>
</g>
<!-- e5a0a7a5&#45;d545&#45;447a&#45;a5ae&#45;4008812d61b2&#45;&gt;c89889d9&#45;622b&#45;4d82&#45;836c&#45;34bd5837a804 -->
<g id="edge5" class="edge">
<title>e5a0a7a5&#45;d545&#45;447a&#45;a5ae&#45;4008812d61b2&#45;&gt;c89889d9&#45;622b&#45;4d82&#45;836c&#45;34bd5837a804</title>
<path fill="none" stroke="#000000" d="M84.5308,-191.9428C93.2484,-312.0473 149.9277,-987.8 321.6633,-987.8 321.6633,-987.8 321.6633,-987.8 958.5754,-987.8 1034.7228,-987.8 1046.9968,-389.187 1048.8496,-244.8406"/>
<polygon fill="#000000" stroke="#000000" points="1052.3533,-244.5441 1048.9741,-234.5026 1045.3538,-244.4597 1052.3533,-244.5441"/>
</g>
<!-- 5e0b2d56&#45;b8ab&#45;4e36&#45;8e7d&#45;cffafe3746bb -->
<g id="node13" class="node">
<title>5e0b2d56&#45;b8ab&#45;4e36&#45;8e7d&#45;cffafe3746bb</title>
<polygon fill="#40e0d0" stroke="#40e0d0" points="921.1943,-586.8 593.7189,-586.8 593.7189,-590.8 581.7189,-590.8 581.7189,-550.8 921.1943,-550.8 921.1943,-586.8"/>
<polyline fill="none" stroke="#40e0d0" points="581.7189,-586.8 593.7189,-586.8 "/>
<text text-anchor="middle" x="751.4566" y="-564.6" font-family="Times,serif" font-size="14.00" fill="#000000">Map&lt;Class&lt;?&gt;, Provider&lt;AndroidInjector.Factory&lt;?&gt;&gt;&gt;</text>
</g>
<!-- 7ebb211c&#45;b581&#45;4812&#45;917e&#45;78beace4624b&#45;&gt;5e0b2d56&#45;b8ab&#45;4e36&#45;8e7d&#45;cffafe3746bb -->
<g id="edge6" class="edge">
<title>7ebb211c&#45;b581&#45;4812&#45;917e&#45;78beace4624b&#45;&gt;5e0b2d56&#45;b8ab&#45;4e36&#45;8e7d&#45;cffafe3746bb</title>
<path fill="none" stroke="#000000" d="M349.828,-438.9158C395.0732,-467.0634 487.6319,-520.7648 573.8378,-546.8 575.2786,-547.2351 576.7284,-547.6617 578.1865,-548.0798"/>
<polygon fill="#000000" stroke="#000000" points="577.3522,-551.4799 587.9197,-550.719 579.1842,-544.7239 577.3522,-551.4799"/>
</g>
<!-- 7198f4c4&#45;e90b&#45;44d0&#45;8ede&#45;5c63277c1403 -->
<g id="node7" class="node">
<title>7198f4c4&#45;e90b&#45;44d0&#45;8ede&#45;5c63277c1403</title>
<polygon fill="#7fffd4" stroke="#7fffd4" points="807.0926,-194.4019 695.8206,-194.4019 695.8206,-153.1981 807.0926,-153.1981 807.0926,-194.4019"/>
<text text-anchor="middle" x="751.4566" y="-178" font-family="Times,serif" font-size="14.00" fill="#000000">@PerActivity</text>
<text text-anchor="middle" x="751.4566" y="-161.2" font-family="Times,serif" font-size="14.00" fill="#000000">LoadViewModel</text>
</g>
<!-- 17925f2c&#45;2aa1&#45;4460&#45;ab0a&#45;5e57608c9625&#45;&gt;7198f4c4&#45;e90b&#45;44d0&#45;8ede&#45;5c63277c1403 -->
<g id="edge7" class="edge">
<title>17925f2c&#45;2aa1&#45;4460&#45;ab0a&#45;5e57608c9625&#45;&gt;7198f4c4&#45;e90b&#45;44d0&#45;8ede&#45;5c63277c1403</title>
<path fill="none" stroke="#000000" stroke-dasharray="1,5" d="M455.8847,-173.8C532.2535,-173.8 624.5239,-173.8 685.4287,-173.8"/>
<polygon fill="#000000" stroke="#000000" points="685.6749,-177.3001 695.6749,-173.8 685.6748,-170.3001 685.6749,-177.3001"/>
<text text-anchor="middle" x="518.7957" y="-178" font-family="Times,serif" font-size="14.00" fill="#000000">delegates</text>
</g>
<!-- b311adc0&#45;8dfe&#45;4afa&#45;a412&#45;231924d07783 -->
<g id="node10" class="node">
<title>b311adc0&#45;8dfe&#45;4afa&#45;a412&#45;231924d07783</title>
<polygon fill="#7fffd4" stroke="#7fffd4" points="1500.7545,-234.4019 1370.1085,-234.4019 1370.1085,-193.1981 1500.7545,-193.1981 1500.7545,-234.4019"/>
<text text-anchor="middle" x="1435.4315" y="-218" font-family="Times,serif" font-size="14.00" fill="#000000">@PerActivity</text>
<text text-anchor="middle" x="1435.4315" y="-201.2" font-family="Times,serif" font-size="14.00" fill="#000000">AppCompatActivity</text>
</g>
<!-- bdc5b8d6&#45;b099&#45;433e&#45;a372&#45;6174fc14f9c3&#45;&gt;b311adc0&#45;8dfe&#45;4afa&#45;a412&#45;231924d07783 -->
<g id="edge8" class="edge">
<title>bdc5b8d6&#45;b099&#45;433e&#45;a372&#45;6174fc14f9c3&#45;&gt;b311adc0&#45;8dfe&#45;4afa&#45;a412&#45;231924d07783</title>
<path fill="none" stroke="#000000" d="M1087.5962,-94.5463C1092.6014,-97.5299 1097.6001,-100.6572 1102.248,-103.8 1137.6101,-127.7111 1138.5004,-145.8879 1177.248,-163.8 1235.2585,-190.6169 1307.0216,-203.0564 1360.1537,-208.8236"/>
<polygon fill="#000000" stroke="#000000" points="1359.8796,-212.3138 1370.1858,-209.8575 1360.5973,-205.3506 1359.8796,-212.3138"/>
</g>
<!-- fd8df2ba&#45;82f6&#45;423d&#45;af06&#45;7332e6e8a16c -->
<g id="node12" class="node">
<title>fd8df2ba&#45;82f6&#45;423d&#45;af06&#45;7332e6e8a16c</title>
<polygon fill="#76ee00" stroke="#76ee00" points="1476.4943,-94.4019 1394.3687,-94.4019 1394.3687,-53.1981 1476.4943,-53.1981 1476.4943,-94.4019"/>
<text text-anchor="middle" x="1435.4315" y="-78" font-family="Times,serif" font-size="14.00" fill="#000000">@Singleton</text>
<text text-anchor="middle" x="1435.4315" y="-61.2" font-family="Times,serif" font-size="14.00" fill="#000000">Scheduler</text>
</g>
<!-- bdc5b8d6&#45;b099&#45;433e&#45;a372&#45;6174fc14f9c3&#45;&gt;fd8df2ba&#45;82f6&#45;423d&#45;af06&#45;7332e6e8a16c -->
<g id="edge9" class="edge">
<title>bdc5b8d6&#45;b099&#45;433e&#45;a372&#45;6174fc14f9c3&#45;&gt;fd8df2ba&#45;82f6&#45;423d&#45;af06&#45;7332e6e8a16c</title>
<path fill="none" stroke="#000000" d="M1102.4653,-73.8C1176.7335,-73.8 1310.4601,-73.8 1383.8152,-73.8"/>
<polygon fill="#000000" stroke="#000000" points="1384.1858,-77.3001 1394.1858,-73.8 1384.1857,-70.3001 1384.1858,-77.3001"/>
</g>
<!-- c89889d9&#45;622b&#45;4d82&#45;836c&#45;34bd5837a804&#45;&gt;b311adc0&#45;8dfe&#45;4afa&#45;a412&#45;231924d07783 -->
<g id="edge14" class="edge">
<title>c89889d9&#45;622b&#45;4d82&#45;836c&#45;34bd5837a804&#45;&gt;b311adc0&#45;8dfe&#45;4afa&#45;a412&#45;231924d07783</title>
<path fill="none" stroke="#000000" d="M1096.1398,-213.8C1161.7545,-213.8 1281.5699,-213.8 1359.8336,-213.8"/>
<polygon fill="#000000" stroke="#000000" points="1360.1153,-217.3001 1370.1152,-213.8 1360.1152,-210.3001 1360.1153,-217.3001"/>
</g>
<!-- 7198f4c4&#45;e90b&#45;44d0&#45;8ede&#45;5c63277c1403&#45;&gt;d6b24bd9&#45;c102&#45;42a0&#45;b709&#45;761a533882a1 -->
<g id="edge12" class="edge">
<title>7198f4c4&#45;e90b&#45;44d0&#45;8ede&#45;5c63277c1403&#45;&gt;d6b24bd9&#45;c102&#45;42a0&#45;b709&#45;761a533882a1</title>
<path fill="none" stroke="#000000" d="M807.2777,-173.8C848.9641,-173.8 907.3351,-173.8 958.5754,-173.8 958.5754,-173.8 958.5754,-173.8 1756.6571,-173.8 1803.9231,-173.8 1851.1499,-143.9768 1880.7651,-120.7484"/>
<polygon fill="#000000" stroke="#000000" points="1883.0485,-123.4034 1888.6365,-114.402 1878.6548,-117.954 1883.0485,-123.4034"/>
</g>
<!-- 7198f4c4&#45;e90b&#45;44d0&#45;8ede&#45;5c63277c1403&#45;&gt;c89889d9&#45;622b&#45;4d82&#45;836c&#45;34bd5837a804 -->
<g id="edge13" class="edge">
<title>7198f4c4&#45;e90b&#45;44d0&#45;8ede&#45;5c63277c1403&#45;&gt;c89889d9&#45;622b&#45;4d82&#45;836c&#45;34bd5837a804</title>
<path fill="none" stroke="#000000" d="M807.1034,-181.2768C859.9103,-188.372 938.9046,-198.9857 992.1553,-206.1406"/>
<polygon fill="#000000" stroke="#000000" points="991.7395,-209.6161 1002.1165,-207.479 992.6717,-202.6784 991.7395,-209.6161"/>
</g>
<!-- 186c93bd&#45;9b2a&#45;4964&#45;8167&#45;97a0334fea12 -->
<g id="node8" class="node">
<title>186c93bd&#45;9b2a&#45;4964&#45;8167&#45;97a0334fea12</title>
<polygon fill="#76ee00" stroke="#76ee00" points="1090.2245,-154.4019 1008.0989,-154.4019 1008.0989,-113.1981 1090.2245,-113.1981 1090.2245,-154.4019"/>
<text text-anchor="middle" x="1049.1617" y="-138" font-family="Times,serif" font-size="14.00" fill="#000000">@Singleton</text>
<text text-anchor="middle" x="1049.1617" y="-121.2" font-family="Times,serif" font-size="14.00" fill="#000000">Parser</text>
</g>
<!-- 7198f4c4&#45;e90b&#45;44d0&#45;8ede&#45;5c63277c1403&#45;&gt;186c93bd&#45;9b2a&#45;4964&#45;8167&#45;97a0334fea12 -->
<g id="edge28" class="edge">
<title>7198f4c4&#45;e90b&#45;44d0&#45;8ede&#45;5c63277c1403&#45;&gt;186c93bd&#45;9b2a&#45;4964&#45;8167&#45;97a0334fea12</title>
<path fill="none" stroke="#000000" d="M807.1034,-166.3232C861.6939,-158.9884 944.2705,-147.8933 997.4608,-140.7466"/>
<polygon fill="#000000" stroke="#000000" points="998.2452,-144.1727 1007.69,-139.3722 997.313,-137.2351 998.2452,-144.1727"/>
</g>
<!-- a5fd42fc&#45;adee&#45;4564&#45;bc78&#45;c268aa52123d -->
<g id="node9" class="node">
<title>a5fd42fc&#45;adee&#45;4564&#45;bc78&#45;c268aa52123d</title>
<polygon fill="#76ee00" stroke="#76ee00" points="1498.8502,-154.4019 1372.0128,-154.4019 1372.0128,-113.1981 1498.8502,-113.1981 1498.8502,-154.4019"/>
<text text-anchor="middle" x="1435.4315" y="-138" font-family="Times,serif" font-size="14.00" fill="#000000">@Singleton</text>
<text text-anchor="middle" x="1435.4315" y="-121.2" font-family="Times,serif" font-size="14.00" fill="#000000">EncryptionProvider</text>
</g>
<!-- 186c93bd&#45;9b2a&#45;4964&#45;8167&#45;97a0334fea12&#45;&gt;a5fd42fc&#45;adee&#45;4564&#45;bc78&#45;c268aa52123d -->
<g id="edge29" class="edge">
<title>186c93bd&#45;9b2a&#45;4964&#45;8167&#45;97a0334fea12&#45;&gt;a5fd42fc&#45;adee&#45;4564&#45;bc78&#45;c268aa52123d</title>
<path fill="none" stroke="#000000" d="M1090.4993,-133.8C1155.2636,-133.8 1281.548,-133.8 1362.0265,-133.8"/>
<polygon fill="#000000" stroke="#000000" points="1362.093,-137.3001 1372.0929,-133.8 1362.0929,-130.3001 1362.093,-137.3001"/>
</g>
<!-- a5fd42fc&#45;adee&#45;4564&#45;bc78&#45;c268aa52123d&#45;&gt;d6b24bd9&#45;c102&#45;42a0&#45;b709&#45;761a533882a1 -->
<g id="edge10" class="edge">
<title>a5fd42fc&#45;adee&#45;4564&#45;bc78&#45;c268aa52123d&#45;&gt;d6b24bd9&#45;c102&#45;42a0&#45;b709&#45;761a533882a1</title>
<path fill="none" stroke="#000000" d="M1499.126,-128.4469C1594.4206,-120.4381 1772.2499,-105.4928 1859.8747,-98.1286"/>
<polygon fill="#000000" stroke="#000000" points="1860.4301,-101.5943 1870.1018,-97.2691 1859.8438,-94.6189 1860.4301,-101.5943"/>
</g>
<!-- 170080fa&#45;e3fa&#45;4dc1&#45;8929&#45;37856cbd061e -->
<g id="node11" class="node">
<title>170080fa&#45;e3fa&#45;4dc1&#45;8929&#45;37856cbd061e</title>
<polygon fill="#40e0d0" stroke="#40e0d0" points="2003.239,-231.8 1857.1103,-231.8 1819.519,-195.8 1965.6477,-195.8 2003.239,-231.8"/>
<text text-anchor="middle" x="1911.379" y="-209.6" font-family="Times,serif" font-size="14.00" fill="#000000">LoadActivity</text>
</g>
<!-- b311adc0&#45;8dfe&#45;4afa&#45;a412&#45;231924d07783&#45;&gt;170080fa&#45;e3fa&#45;4dc1&#45;8929&#45;37856cbd061e -->
<g id="edge30" class="edge">
<title>b311adc0&#45;8dfe&#45;4afa&#45;a412&#45;231924d07783&#45;&gt;170080fa&#45;e3fa&#45;4dc1&#45;8929&#45;37856cbd061e</title>
<path fill="none" stroke="#000000" stroke-dasharray="1,5" d="M1500.612,-213.8C1585.64,-213.8 1734.5216,-213.8 1827.7733,-213.8"/>
<polygon fill="#000000" stroke="#000000" points="1828.0197,-217.3001 1838.0197,-213.8 1828.0197,-210.3001 1828.0197,-217.3001"/>
<text text-anchor="middle" x="1756.6571" y="-218" font-family="Times,serif" font-size="14.00" fill="#000000">delegates</text>
</g>
<!-- fd8df2ba&#45;82f6&#45;423d&#45;af06&#45;7332e6e8a16c&#45;&gt;d6b24bd9&#45;c102&#45;42a0&#45;b709&#45;761a533882a1 -->
<g id="edge11" class="edge">
<title>fd8df2ba&#45;82f6&#45;423d&#45;af06&#45;7332e6e8a16c&#45;&gt;d6b24bd9&#45;c102&#45;42a0&#45;b709&#45;761a533882a1</title>
<path fill="none" stroke="#000000" d="M1476.8361,-75.5399C1563.7053,-79.1903 1764.7955,-87.6403 1859.8404,-91.6343"/>
<polygon fill="#000000" stroke="#000000" points="1859.9325,-95.1411 1870.0707,-92.0642 1860.2265,-88.1473 1859.9325,-95.1411"/>
</g>
<!-- ef9412f1&#45;7a1f&#45;40dc&#45;a451&#45;329145eabfee -->
<g id="node14" class="node">
<title>ef9412f1&#45;7a1f&#45;40dc&#45;a451&#45;329145eabfee</title>
<polygon fill="#40e0d0" stroke="#40e0d0" points="1656.4739,-342.8 1214.3891,-342.8 1214.3891,-306.8 1656.4739,-306.8 1656.4739,-342.8"/>
<text text-anchor="middle" x="1435.4315" y="-320.6" font-family="Times,serif" font-size="14.00" fill="#000000">AndroidBindingModule_BindRegionActivity.bindAndroidInjectorFactory()</text>
</g>
<!-- 5e0b2d56&#45;b8ab&#45;4e36&#45;8e7d&#45;cffafe3746bb&#45;&gt;ef9412f1&#45;7a1f&#45;40dc&#45;a451&#45;329145eabfee -->
<g id="edge21" class="edge">
<title>5e0b2d56&#45;b8ab&#45;4e36&#45;8e7d&#45;cffafe3746bb&#45;&gt;ef9412f1&#45;7a1f&#45;40dc&#45;a451&#45;329145eabfee</title>
<path fill="none" stroke="#000000" d="M916.8969,-550.7638C918.3284,-549.497 919.7222,-548.1763 921.0754,-546.8 952.931,-514.3997 913.138,-345.8 958.5754,-345.8 958.5754,-345.8 958.5754,-345.8 1139.748,-345.8 1167.7146,-345.8 1197.1317,-344.8537 1226.1234,-343.3629"/>
<polygon fill="#000000" stroke="#000000" points="1226.5593,-346.8446 1236.3573,-342.8135 1226.184,-339.8547 1226.5593,-346.8446"/>
</g>
<!-- 73260f96&#45;4036&#45;49e7&#45;8e1d&#45;ca7dac93b074 -->
<g id="node15" class="node">
<title>73260f96&#45;4036&#45;49e7&#45;8e1d&#45;ca7dac93b074</title>
<polygon fill="#40e0d0" stroke="#40e0d0" points="1661.0235,-396.8 1209.8395,-396.8 1209.8395,-360.8 1661.0235,-360.8 1661.0235,-396.8"/>
<text text-anchor="middle" x="1435.4315" y="-374.6" font-family="Times,serif" font-size="14.00" fill="#000000">AndroidBindingModule_BindContactsActivity.bindAndroidInjectorFactory()</text>
</g>
<!-- 5e0b2d56&#45;b8ab&#45;4e36&#45;8e7d&#45;cffafe3746bb&#45;&gt;73260f96&#45;4036&#45;49e7&#45;8e1d&#45;ca7dac93b074 -->
<g id="edge26" class="edge">
<title>5e0b2d56&#45;b8ab&#45;4e36&#45;8e7d&#45;cffafe3746bb&#45;&gt;73260f96&#45;4036&#45;49e7&#45;8e1d&#45;ca7dac93b074</title>
<path fill="none" stroke="#000000" d="M916.7759,-550.6411C918.2457,-549.413 919.6798,-548.1333 921.0754,-546.8 973.5746,-496.6463 885.9699,-387.8 958.5754,-387.8 958.5754,-387.8 958.5754,-387.8 1139.748,-387.8 1159.1892,-387.8 1179.3461,-387.6032 1199.5819,-387.2678"/>
<polygon fill="#000000" stroke="#000000" points="1199.9057,-390.7628 1209.8422,-387.0863 1199.7818,-383.7638 1199.9057,-390.7628"/>
</g>
<!-- 650fbbd0&#45;776e&#45;4fef&#45;9b2f&#45;3e8b95e904d8 -->
<g id="node16" class="node">
<title>650fbbd0&#45;776e&#45;4fef&#45;9b2f&#45;3e8b95e904d8</title>
<polygon fill="#40e0d0" stroke="#40e0d0" points="1663.1716,-450.8 1207.6914,-450.8 1207.6914,-414.8 1663.1716,-414.8 1663.1716,-450.8"/>
<text text-anchor="middle" x="1435.4315" y="-428.6" font-family="Times,serif" font-size="14.00" fill="#000000">AndroidBindingModule_BindWelcomeActivity.bindAndroidInjectorFactory()</text>
</g>
<!-- 5e0b2d56&#45;b8ab&#45;4e36&#45;8e7d&#45;cffafe3746bb&#45;&gt;650fbbd0&#45;776e&#45;4fef&#45;9b2f&#45;3e8b95e904d8 -->
<g id="edge23" class="edge">
<title>5e0b2d56&#45;b8ab&#45;4e36&#45;8e7d&#45;cffafe3746bb&#45;&gt;650fbbd0&#45;776e&#45;4fef&#45;9b2f&#45;3e8b95e904d8</title>
<path fill="none" stroke="#000000" d="M916.1086,-550.5505C917.8003,-549.3539 919.457,-548.1044 921.0754,-546.8 959.6574,-515.7036 909.0218,-441.8 958.5754,-441.8 958.5754,-441.8 958.5754,-441.8 1139.748,-441.8 1158.4444,-441.8 1177.8027,-441.618 1197.2566,-441.3058"/>
<polygon fill="#000000" stroke="#000000" points="1197.4971,-444.8022 1207.4355,-441.1309 1197.3768,-437.8033 1197.4971,-444.8022"/>
</g>
<!-- de32f4ea&#45;4e52&#45;4b8c&#45;8a17&#45;6549f38abe28 -->
<g id="node17" class="node">
<title>de32f4ea&#45;4e52&#45;4b8c&#45;8a17&#45;6549f38abe28</title>
<polygon fill="#40e0d0" stroke="#40e0d0" points="1668.5525,-504.8 1202.3105,-504.8 1202.3105,-468.8 1668.5525,-468.8 1668.5525,-504.8"/>
<text text-anchor="middle" x="1435.4315" y="-482.6" font-family="Times,serif" font-size="14.00" fill="#000000">AndroidBindingModule_BindBackgroundService.bindAndroidInjectorFactory()</text>
</g>
<!-- 5e0b2d56&#45;b8ab&#45;4e36&#45;8e7d&#45;cffafe3746bb&#45;&gt;de32f4ea&#45;4e52&#45;4b8c&#45;8a17&#45;6549f38abe28 -->
<g id="edge15" class="edge">
<title>5e0b2d56&#45;b8ab&#45;4e36&#45;8e7d&#45;cffafe3746bb&#45;&gt;de32f4ea&#45;4e52&#45;4b8c&#45;8a17&#45;6549f38abe28</title>
<path fill="none" stroke="#000000" d="M912.015,-550.6821C915.0865,-549.4624 918.1101,-548.1698 921.0754,-546.8 941.4989,-537.3657 936.0782,-512.8 958.5754,-512.8 958.5754,-512.8 958.5754,-512.8 1139.748,-512.8 1184.9019,-512.8 1233.786,-509.754 1278.5567,-505.7472"/>
<polygon fill="#000000" stroke="#000000" points="1279.0022,-509.2211 1288.6408,-504.8224 1278.363,-502.2503 1279.0022,-509.2211"/>
</g>
<!-- ad558be4&#45;434c&#45;49d4&#45;a23b&#45;19af431d5e4d -->
<g id="node18" class="node">
<title>ad558be4&#45;434c&#45;49d4&#45;a23b&#45;19af431d5e4d</title>
<polygon fill="#40e0d0" stroke="#40e0d0" points="1654.0263,-558.8 1216.8367,-558.8 1216.8367,-522.8 1654.0263,-522.8 1654.0263,-558.8"/>
<text text-anchor="middle" x="1435.4315" y="-536.6" font-family="Times,serif" font-size="14.00" fill="#000000">AndroidBindingModule_BindEditorActivity.bindAndroidInjectorFactory()</text>
</g>
<!-- 5e0b2d56&#45;b8ab&#45;4e36&#45;8e7d&#45;cffafe3746bb&#45;&gt;ad558be4&#45;434c&#45;49d4&#45;a23b&#45;19af431d5e4d -->
<g id="edge25" class="edge">
<title>5e0b2d56&#45;b8ab&#45;4e36&#45;8e7d&#45;cffafe3746bb&#45;&gt;ad558be4&#45;434c&#45;49d4&#45;a23b&#45;19af431d5e4d</title>
<path fill="none" stroke="#000000" d="M919.2013,-550.7948C932.5103,-550.1654 945.7567,-549.8 958.5754,-549.8 958.5754,-549.8 958.5754,-549.8 1139.748,-549.8 1161.4456,-549.8 1184.0347,-549.5549 1206.6301,-549.1455"/>
<polygon fill="#000000" stroke="#000000" points="1206.7277,-552.6444 1216.6588,-548.9533 1206.5935,-545.6457 1206.7277,-552.6444"/>
</g>
<!-- e76d4a27&#45;26ef&#45;41ae&#45;9e01&#45;63b2bb13c50e -->
<g id="node19" class="node">
<title>e76d4a27&#45;26ef&#45;41ae&#45;9e01&#45;63b2bb13c50e</title>
<polygon fill="#40e0d0" stroke="#40e0d0" points="1693.7986,-612.8 1177.0644,-612.8 1177.0644,-576.8 1693.7986,-576.8 1693.7986,-612.8"/>
<text text-anchor="middle" x="1435.4315" y="-590.6" font-family="Times,serif" font-size="14.00" fill="#000000">AndroidBindingModule_BindBackgroundServiceReceiver.bindAndroidInjectorFactory()</text>
</g>
<!-- 5e0b2d56&#45;b8ab&#45;4e36&#45;8e7d&#45;cffafe3746bb&#45;&gt;e76d4a27&#45;26ef&#45;41ae&#45;9e01&#45;63b2bb13c50e -->
<g id="edge18" class="edge">
<title>5e0b2d56&#45;b8ab&#45;4e36&#45;8e7d&#45;cffafe3746bb&#45;&gt;e76d4a27&#45;26ef&#45;41ae&#45;9e01&#45;63b2bb13c50e</title>
<path fill="none" stroke="#000000" d="M921.1808,-585.9439C933.8243,-586.4871 946.3938,-586.8 958.5754,-586.8 958.5754,-586.8 958.5754,-586.8 1139.748,-586.8 1148.7046,-586.8 1157.8133,-586.8371 1167.0118,-586.9063"/>
<polygon fill="#000000" stroke="#000000" points="1166.9951,-590.4062 1177.0254,-586.9938 1167.0563,-583.4065 1166.9951,-590.4062"/>
</g>
<!-- 574431e5&#45;4a75&#45;4c97&#45;89c2&#45;195e2fd8e525 -->
<g id="node20" class="node">
<title>574431e5&#45;4a75&#45;4c97&#45;89c2&#45;195e2fd8e525</title>
<polygon fill="#40e0d0" stroke="#40e0d0" points="1653.755,-666.8 1217.108,-666.8 1217.108,-630.8 1653.755,-630.8 1653.755,-666.8"/>
<text text-anchor="middle" x="1435.4315" y="-644.6" font-family="Times,serif" font-size="14.00" fill="#000000">AndroidBindingModule_BindStatusActivity.bindAndroidInjectorFactory()</text>
</g>
<!-- 5e0b2d56&#45;b8ab&#45;4e36&#45;8e7d&#45;cffafe3746bb&#45;&gt;574431e5&#45;4a75&#45;4c97&#45;89c2&#45;195e2fd8e525 -->
<g id="edge27" class="edge">
<title>5e0b2d56&#45;b8ab&#45;4e36&#45;8e7d&#45;cffafe3746bb&#45;&gt;574431e5&#45;4a75&#45;4c97&#45;89c2&#45;195e2fd8e525</title>
<path fill="none" stroke="#000000" d="M911.0236,-586.9349C914.4296,-588.1464 917.7846,-589.4333 921.0754,-590.8 940.5331,-598.8808 937.5064,-619.8 958.5754,-619.8 958.5754,-619.8 958.5754,-619.8 1139.748,-619.8 1152.7373,-619.8 1201.2838,-624.2899 1255.3945,-629.7364"/>
<polygon fill="#000000" stroke="#000000" points="1255.2543,-633.24 1265.5556,-630.7637 1255.9584,-626.2755 1255.2543,-633.24"/>
</g>
<!-- 7a50bb9d&#45;81a4&#45;4c1b&#45;9f8b&#45;a748c19942c5 -->
<g id="node21" class="node">
<title>7a50bb9d&#45;81a4&#45;4c1b&#45;9f8b&#45;a748c19942c5</title>
<polygon fill="#40e0d0" stroke="#40e0d0" points="1669.3141,-720.8 1201.5489,-720.8 1201.5489,-684.8 1669.3141,-684.8 1669.3141,-720.8"/>
<text text-anchor="middle" x="1435.4315" y="-698.6" font-family="Times,serif" font-size="14.00" fill="#000000">AndroidBindingModule_BindPreferencesActivity.bindAndroidInjectorFactory()</text>
</g>
<!-- 5e0b2d56&#45;b8ab&#45;4e36&#45;8e7d&#45;cffafe3746bb&#45;&gt;7a50bb9d&#45;81a4&#45;4c1b&#45;9f8b&#45;a748c19942c5 -->
<g id="edge24" class="edge">
<title>5e0b2d56&#45;b8ab&#45;4e36&#45;8e7d&#45;cffafe3746bb&#45;&gt;7a50bb9d&#45;81a4&#45;4c1b&#45;9f8b&#45;a748c19942c5</title>
<path fill="none" stroke="#000000" d="M914.5111,-587.0002C916.7402,-588.2046 918.93,-589.4703 921.0754,-590.8 946.5354,-606.5804 928.6215,-646.8 958.5754,-646.8 958.5754,-646.8 958.5754,-646.8 1139.748,-646.8 1160.817,-646.8 1157.6916,-667.961 1177.248,-675.8 1182.4117,-677.8698 1187.6777,-679.8028 1193.0241,-681.6074"/>
<polygon fill="#000000" stroke="#000000" points="1192.1387,-684.9989 1202.7298,-684.7186 1194.2755,-678.333 1192.1387,-684.9989"/>
</g>
<!-- 1ab77a1a&#45;9e29&#45;4ca4&#45;98d5&#45;ed936a7564cd -->
<g id="node22" class="node">
<title>1ab77a1a&#45;9e29&#45;4ca4&#45;98d5&#45;ed936a7564cd</title>
<polygon fill="#40e0d0" stroke="#40e0d0" points="1649.1912,-774.8 1221.6718,-774.8 1221.6718,-738.8 1649.1912,-738.8 1649.1912,-774.8"/>
<text text-anchor="middle" x="1435.4315" y="-752.6" font-family="Times,serif" font-size="14.00" fill="#000000">AndroidBindingModule_BindMapActivity.bindAndroidInjectorFactory()</text>
</g>
<!-- 5e0b2d56&#45;b8ab&#45;4e36&#45;8e7d&#45;cffafe3746bb&#45;&gt;1ab77a1a&#45;9e29&#45;4ca4&#45;98d5&#45;ed936a7564cd -->
<g id="edge19" class="edge">
<title>5e0b2d56&#45;b8ab&#45;4e36&#45;8e7d&#45;cffafe3746bb&#45;&gt;1ab77a1a&#45;9e29&#45;4ca4&#45;98d5&#45;ed936a7564cd</title>
<path fill="none" stroke="#000000" d="M915.6724,-586.8864C917.5132,-588.1314 919.3155,-589.4352 921.0754,-590.8 952.743,-615.3589 918.5008,-672.8 958.5754,-672.8 958.5754,-672.8 958.5754,-672.8 1139.748,-672.8 1170.0722,-672.8 1151.3413,-714.0394 1177.248,-729.8 1188.1092,-736.4075 1199.7117,-741.8867 1211.7602,-746.406"/>
<polygon fill="#000000" stroke="#000000" points="1210.9181,-749.8197 1221.5129,-749.8278 1213.2356,-743.2144 1210.9181,-749.8197"/>
</g>
<!-- c877d95b&#45;f957&#45;4bad&#45;969c&#45;7d281189df12 -->
<g id="node23" class="node">
<title>c877d95b&#45;f957&#45;4bad&#45;969c&#45;7d281189df12</title>
<polygon fill="#40e0d0" stroke="#40e0d0" points="1668.2781,-828.8 1202.5849,-828.8 1202.5849,-792.8 1668.2781,-792.8 1668.2781,-828.8"/>
<text text-anchor="middle" x="1435.4315" y="-806.6" font-family="Times,serif" font-size="14.00" fill="#000000">AndroidBindingModule_BindLogViewerActivity.bindAndroidInjectorFactory()</text>
</g>
<!-- 5e0b2d56&#45;b8ab&#45;4e36&#45;8e7d&#45;cffafe3746bb&#45;&gt;c877d95b&#45;f957&#45;4bad&#45;969c&#45;7d281189df12 -->
<g id="edge20" class="edge">
<title>5e0b2d56&#45;b8ab&#45;4e36&#45;8e7d&#45;cffafe3746bb&#45;&gt;c877d95b&#45;f957&#45;4bad&#45;969c&#45;7d281189df12</title>
<path fill="none" stroke="#000000" d="M916.32,-586.8015C917.9452,-588.0762 919.5315,-589.4083 921.0754,-590.8 973.0781,-637.6774 888.5627,-743.8 958.5754,-743.8 958.5754,-743.8 958.5754,-743.8 1139.748,-743.8 1164.1166,-743.8 1155.4225,-772.9615 1177.248,-783.8 1182.2936,-786.3056 1187.462,-788.6309 1192.7292,-790.7876"/>
<polygon fill="#000000" stroke="#000000" points="1191.7224,-794.1506 1202.3118,-794.4898 1194.2452,-787.621 1191.7224,-794.1506"/>
</g>
<!-- ec182afa&#45;eb5f&#45;4f19&#45;a2e2&#45;58e8b224c8ef -->
<g id="node24" class="node">
<title>ec182afa&#45;eb5f&#45;4f19&#45;a2e2&#45;58e8b224c8ef</title>
<polygon fill="#40e0d0" stroke="#40e0d0" points="1650.7991,-882.8 1220.0639,-882.8 1220.0639,-846.8 1650.7991,-846.8 1650.7991,-882.8"/>
<text text-anchor="middle" x="1435.4315" y="-860.6" font-family="Times,serif" font-size="14.00" fill="#000000">AndroidBindingModule_BindLoadActivity.bindAndroidInjectorFactory()</text>
</g>
<!-- 5e0b2d56&#45;b8ab&#45;4e36&#45;8e7d&#45;cffafe3746bb&#45;&gt;ec182afa&#45;eb5f&#45;4f19&#45;a2e2&#45;58e8b224c8ef -->
<g id="edge22" class="edge">
<title>5e0b2d56&#45;b8ab&#45;4e36&#45;8e7d&#45;cffafe3746bb&#45;&gt;ec182afa&#45;eb5f&#45;4f19&#45;a2e2&#45;58e8b224c8ef</title>
<path fill="none" stroke="#000000" d="M916.8869,-586.846C918.3216,-588.1098 919.7187,-589.4271 921.0754,-590.8 952.5526,-622.6532 913.7932,-788.8 958.5754,-788.8 958.5754,-788.8 958.5754,-788.8 1139.748,-788.8 1167.1715,-788.8 1153.3261,-824.3913 1177.248,-837.8 1187.6906,-843.6533 1198.7458,-848.5826 1210.174,-852.7166"/>
<polygon fill="#000000" stroke="#000000" points="1209.2618,-856.1031 1219.8562,-856.005 1211.513,-849.475 1209.2618,-856.1031"/>
</g>
<!-- 1b5874ac&#45;77e1&#45;4638&#45;8183&#45;5c787dd51b30 -->
<g id="node25" class="node">
<title>1b5874ac&#45;77e1&#45;4638&#45;8183&#45;5c787dd51b30</title>
<polygon fill="#40e0d0" stroke="#40e0d0" points="1659.4183,-936.8 1211.4447,-936.8 1211.4447,-900.8 1659.4183,-900.8 1659.4183,-936.8"/>
<text text-anchor="middle" x="1435.4315" y="-914.6" font-family="Times,serif" font-size="14.00" fill="#000000">AndroidBindingModule_BindRegionsActivity.bindAndroidInjectorFactory()</text>
</g>
<!-- 5e0b2d56&#45;b8ab&#45;4e36&#45;8e7d&#45;cffafe3746bb&#45;&gt;1b5874ac&#45;77e1&#45;4638&#45;8183&#45;5c787dd51b30 -->
<g id="edge17" class="edge">
<title>5e0b2d56&#45;b8ab&#45;4e36&#45;8e7d&#45;cffafe3746bb&#45;&gt;1b5874ac&#45;77e1&#45;4638&#45;8183&#45;5c787dd51b30</title>
<path fill="none" stroke="#000000" d="M916.9233,-586.8104C918.3465,-588.0854 919.7315,-589.4146 921.0754,-590.8 970.9272,-642.1909 886.9777,-910.8 958.5754,-910.8 958.5754,-910.8 958.5754,-910.8 1139.748,-910.8 1159.7174,-910.8 1180.4426,-910.9846 1201.2333,-911.2977"/>
<polygon fill="#000000" stroke="#000000" points="1201.387,-914.8005 1211.4419,-911.4615 1201.4993,-907.8014 1201.387,-914.8005"/>
</g>
<!-- 6d1d94a5&#45;4e1e&#45;4bc9&#45;9d6b&#45;2cf94d344b1d -->
<g id="node26" class="node">
<title>6d1d94a5&#45;4e1e&#45;4bc9&#45;9d6b&#45;2cf94d344b1d</title>
<polygon fill="#40e0d0" stroke="#40e0d0" points="1668.579,-288.8 1202.284,-288.8 1202.284,-252.8 1668.579,-252.8 1668.579,-288.8"/>
<text text-anchor="middle" x="1435.4315" y="-266.6" font-family="Times,serif" font-size="14.00" fill="#000000">AndroidBindingModule_BindConnectionActivity.bindAndroidInjectorFactory()</text>
</g>
<!-- 5e0b2d56&#45;b8ab&#45;4e36&#45;8e7d&#45;cffafe3746bb&#45;&gt;6d1d94a5&#45;4e1e&#45;4bc9&#45;9d6b&#45;2cf94d344b1d -->
<g id="edge16" class="edge">
<title>5e0b2d56&#45;b8ab&#45;4e36&#45;8e7d&#45;cffafe3746bb&#45;&gt;6d1d94a5&#45;4e1e&#45;4bc9&#45;9d6b&#45;2cf94d344b1d</title>
<path fill="none" stroke="#000000" d="M916.9254,-550.7917C918.3479,-549.516 919.7322,-548.1861 921.0754,-546.8 961.5456,-505.0358 900.4197,-287.8 958.5754,-287.8 958.5754,-287.8 958.5754,-287.8 1139.748,-287.8 1156.7262,-287.8 1174.2438,-287.5172 1191.8791,-287.0245"/>
<polygon fill="#000000" stroke="#000000" points="1192.3832,-290.511 1202.273,-286.7107 1192.1719,-283.5142 1192.3832,-290.511"/>
</g>
</g>
</svg>
