<svg width="2355px" height="342px"
 viewBox="0.00 0.00 2354.63 341.60" xmlns="http://www.w3.org/2000/svg" xmlns:xlink="http://www.w3.org/1999/xlink">
<g id="graph0" class="graph" transform="scale(1.0 1.0) rotate(0) translate(14.4 327.2)">
<title>org.owntracks.android.ui.preferences.PreferencesActivityModule_BindNotificationPreferencesFragment</title>
<polygon fill="#ffffff" stroke="transparent" points="-14.4,14.4 -14.4,-327.2 2340.2256,-327.2 2340.2256,14.4 -14.4,14.4"/>
<text text-anchor="middle" x="195.7638" y="-8.2" font-family="Times,serif" font-size="14.00" fill="#000000">PreferencesActivityModule_BindNotificationPreferencesFragment</text>
<g id="clust2" class="cluster">
<title>cluster_Dependency Graph</title>
<polygon fill="none" stroke="#000000" points="8,-32.8 8,-304.8 1599.847,-304.8 1599.847,-32.8 8,-32.8"/>
<text text-anchor="middle" x="70.2234" y="-288.2" font-family="Times,serif" font-size="14.00" fill="#000000">Dependency Graph</text>
</g>
<g id="clust3" class="cluster">
<title>cluster_Map&lt;Class&lt;?&gt;, AndroidInjector.Factory&lt;?&gt;&gt;</title>
<path fill="none" stroke="#000000" d="M116.8863,-194.8C116.8863,-194.8 1194.2038,-194.8 1194.2038,-194.8 1200.2038,-194.8 1206.2038,-200.8 1206.2038,-206.8 1206.2038,-206.8 1206.2038,-259.8 1206.2038,-259.8 1206.2038,-265.8 1200.2038,-271.8 1194.2038,-271.8 1194.2038,-271.8 116.8863,-271.8 116.8863,-271.8 110.8863,-271.8 104.8863,-265.8 104.8863,-259.8 104.8863,-259.8 104.8863,-206.8 104.8863,-206.8 104.8863,-200.8 110.8863,-194.8 116.8863,-194.8"/>
<text text-anchor="middle" x="655.545" y="-255.2" font-family="Times,serif" font-size="14.00" fill="#000000">Map&lt;Class&lt;?&gt;, AndroidInjector.Factory&lt;?&gt;&gt;</text>
</g>
<g id="clust4" class="cluster">
<title>cluster_Subcomponents</title>
<polygon fill="none" stroke="#000000" points="1701.502,-191.8 1701.502,-274.8 2317.8256,-274.8 2317.8256,-191.8 1701.502,-191.8"/>
<text text-anchor="middle" x="1754.2208" y="-258.2" font-family="Times,serif" font-size="14.00" fill="#000000">Subcomponents</text>
</g>
<!-- 57772152&#45;89f1&#45;4993&#45;9acb&#45;bd24886b5192 -->
<g id="node1" class="node">
<title>57772152&#45;89f1&#45;4993&#45;9acb&#45;bd24886b5192</title>
<polygon fill="#40e0d0" stroke="#40e0d0" points="1198.2997,-238.8 635.9161,-238.8 635.9161,-202.8 1198.2997,-202.8 1198.2997,-238.8"/>
<text text-anchor="middle" x="917.1079" y="-216.6" font-family="Times,serif" font-size="14.00" fill="#000000">PreferencesActivityModule_BindNotificationPreferencesFragment.bindAndroidInjectorFactory()</text>
</g>
<!-- 06901ae3&#45;51dc&#45;40fa&#45;99bd&#45;91ba66febfff -->
<g id="node2" class="node">
<title>06901ae3&#45;51dc&#45;40fa&#45;99bd&#45;91ba66febfff</title>
<polygon fill="#40e0d0" stroke="#40e0d0" points="1591.6269,-249.4014 1324.5081,-249.4014 1324.5081,-192.1986 1591.6269,-192.1986 1591.6269,-249.4014"/>
<text text-anchor="middle" x="1458.0675" y="-233" font-family="Times,serif" font-size="14.00" fill="#000000">NotificationFragmentSubcomponent.Factory</text>
<text text-anchor="middle" x="1458.0675" y="-200.2" font-family="Times,serif" font-size="14.00" fill="#000000">Subcomponent Creator</text>
</g>
<!-- 57772152&#45;89f1&#45;4993&#45;9acb&#45;bd24886b5192&#45;&gt;06901ae3&#45;51dc&#45;40fa&#45;99bd&#45;91ba66febfff -->
<g id="edge2" class="edge">
<title>57772152&#45;89f1&#45;4993&#45;9acb&#45;bd24886b5192&#45;&gt;06901ae3&#45;51dc&#45;40fa&#45;99bd&#45;91ba66febfff</title>
<path fill="none" stroke="#000000" stroke-dasharray="1,5" d="M1198.2829,-220.8C1238.4527,-220.8 1278.3075,-220.8 1314.2959,-220.8"/>
<polygon fill="#000000" stroke="#000000" points="1314.341,-224.3001 1324.341,-220.8 1314.341,-217.3001 1314.341,-224.3001"/>
<text text-anchor="middle" x="1261.2459" y="-225" font-family="Times,serif" font-size="14.00" fill="#000000">delegates</text>
</g>
<!-- 2a30f6b7&#45;a27c&#45;4d0d&#45;bf75&#45;a49cab919c2d -->
<g id="node7" class="node">
<title>2a30f6b7&#45;a27c&#45;4d0d&#45;bf75&#45;a49cab919c2d</title>
<g id="a_node7"><a xlink:href="full_org.owntracks.android.ui.preferences.PreferencesActivityModule_BindNotificationPreferencesFragment.NotificationFragmentSubcomponent.svg" xlink:title="@PerFragment\nPreferencesActivityModule_BindNotificationPreferencesFragment.NotificationFragmentSubcomponent">
<polygon fill="#7fffd4" stroke="#7fffd4" points="2309.9875,-241.4019 1709.3401,-241.4019 1709.3401,-200.1981 2309.9875,-200.1981 2309.9875,-241.4019"/>
<text text-anchor="middle" x="2009.6638" y="-225" font-family="Times,serif" font-size="14.00" fill="#000000">@PerFragment</text>
<text text-anchor="middle" x="2009.6638" y="-208.2" font-family="Times,serif" font-size="14.00" fill="#000000">PreferencesActivityModule_BindNotificationPreferencesFragment.NotificationFragmentSubcomponent</text>
</a>
</g>
</g>
<!-- 06901ae3&#45;51dc&#45;40fa&#45;99bd&#45;91ba66febfff&#45;&gt;2a30f6b7&#45;a27c&#45;4d0d&#45;bf75&#45;a49cab919c2d -->
<g id="edge3" class="edge">
<title>06901ae3&#45;51dc&#45;40fa&#45;99bd&#45;91ba66febfff&#45;&gt;2a30f6b7&#45;a27c&#45;4d0d&#45;bf75&#45;a49cab919c2d:w</title>
<path fill="none" stroke="#000000" stroke-dasharray="5,2" d="M1591.904,-220.8C1626.5392,-220.8 1664.0171,-220.8 1699.2881,-220.8"/>
<polygon fill="#000000" stroke="#000000" points="1699.6638,-224.3001 1709.6638,-220.8 1699.6638,-217.3001 1699.6638,-224.3001"/>
<text text-anchor="middle" x="1650.6745" y="-225" font-family="Times,serif" font-size="14.00" fill="#000000">subcomponent</text>
</g>
<!-- 7ef59c13&#45;31d7&#45;40ee&#45;b6f3&#45;c5dce0f46b47 -->
<g id="node3" class="node">
<title>7ef59c13&#45;31d7&#45;40ee&#45;b6f3&#45;c5dce0f46b47</title>
<polygon fill="#ff3030" stroke="#ff3030" points="485.018,-184.8 15.994,-184.8 15.994,-148.8 485.018,-148.8 485.018,-184.8"/>
<text text-anchor="middle" x="250.506" y="-162.6" font-family="Times,serif" font-size="14.00" fill="#000000">@org.owntracks.android.injection.qualifier.AppContext android.content.Context</text>
</g>
<!-- 826d18e7&#45;0b57&#45;42f8&#45;8297&#45;184300c99b80 -->
<g id="node4" class="node">
<title>826d18e7&#45;0b57&#45;42f8&#45;8297&#45;184300c99b80</title>
<polygon fill="#ff3030" stroke="#ff3030" points="355.511,-130.8 145.501,-130.8 145.501,-94.8 355.511,-94.8 355.511,-130.8"/>
<text text-anchor="middle" x="250.506" y="-108.6" font-family="Times,serif" font-size="14.00" fill="#000000">org.greenrobot.eventbus.EventBus</text>
</g>
<!-- 23e4a415&#45;9364&#45;436a&#45;9d2d&#45;500692b56c85 -->
<g id="node5" class="node">
<title>23e4a415&#45;9364&#45;436a&#45;9d2d&#45;500692b56c85</title>
<polygon fill="#ff3030" stroke="#ff3030" points="427.2897,-76.8 73.7223,-76.8 73.7223,-40.8 427.2897,-40.8 427.2897,-76.8"/>
<text text-anchor="middle" x="250.506" y="-54.6" font-family="Times,serif" font-size="14.00" fill="#000000">org.owntracks.android.support.preferences.PreferencesStore</text>
</g>
<!-- d12dd03d&#45;0177&#45;41b2&#45;ab3f&#45;993beacc0a0e -->
<g id="node6" class="node">
<title>d12dd03d&#45;0177&#45;41b2&#45;ab3f&#45;993beacc0a0e</title>
<polygon fill="#40e0d0" stroke="#40e0d0" points="388.2455,-238.8 124.7665,-238.8 124.7665,-242.8 112.7665,-242.8 112.7665,-202.8 388.2455,-202.8 388.2455,-238.8"/>
<polyline fill="none" stroke="#40e0d0" points="112.7665,-238.8 124.7665,-238.8 "/>
<text text-anchor="middle" x="250.506" y="-216.6" font-family="Times,serif" font-size="14.00" fill="#000000">Map&lt;Class&lt;?&gt;, AndroidInjector.Factory&lt;?&gt;&gt;</text>
</g>
<!-- d12dd03d&#45;0177&#45;41b2&#45;ab3f&#45;993beacc0a0e&#45;&gt;57772152&#45;89f1&#45;4993&#45;9acb&#45;bd24886b5192 -->
<g id="edge1" class="edge">
<title>d12dd03d&#45;0177&#45;41b2&#45;ab3f&#45;993beacc0a0e&#45;&gt;57772152&#45;89f1&#45;4993&#45;9acb&#45;bd24886b5192</title>
<path fill="none" stroke="#000000" d="M388.1844,-220.8C431.2031,-220.8 478.8305,-220.8 522.512,-220.8 522.512,-220.8 522.512,-220.8 598.512,-220.8 607.3532,-220.8 616.3325,-220.8 625.3981,-220.8"/>
<polygon fill="#000000" stroke="#000000" points="625.6673,-224.3001 635.6673,-220.8 625.6672,-217.3001 625.6673,-224.3001"/>
</g>
</g>
</svg>
