<svg width="3031px" height="1026px"
 viewBox="0.00 0.00 3031.24 1025.60" xmlns="http://www.w3.org/2000/svg" xmlns:xlink="http://www.w3.org/1999/xlink">
<g id="graph0" class="graph" transform="scale(1.0 1.0) rotate(0) translate(14.4 1011.2)">
<title>org.owntracks.android.ui.welcome.WelcomeActivityModule</title>
<polygon fill="#ffffff" stroke="transparent" points="-14.4,14.4 -14.4,-1011.2 3016.8416,-1011.2 3016.8416,14.4 -14.4,14.4"/>
<text text-anchor="middle" x="79.5365" y="-8.2" font-family="Times,serif" font-size="14.00" fill="#000000">WelcomeActivityModule</text>
<g id="clust2" class="cluster">
<title>cluster_Dependency Graph</title>
<polygon fill="none" stroke="#000000" points="8,-363.8 8,-988.8 2994.4416,-988.8 2994.4416,-363.8 8,-363.8"/>
<text text-anchor="middle" x="70.2234" y="-972.2" font-family="Times,serif" font-size="14.00" fill="#000000">Dependency Graph</text>
</g>
<g id="clust3" class="cluster">
<title>cluster_Map&lt;Class&lt;?&gt;, AndroidInjector.Factory&lt;?&gt;&gt;</title>
<path fill="none" stroke="#000000" d="M171.0404,-580.8C171.0404,-580.8 1406.749,-580.8 1406.749,-580.8 1412.749,-580.8 1418.749,-586.8 1418.749,-592.8 1418.749,-592.8 1418.749,-861.8 1418.749,-861.8 1418.749,-867.8 1412.749,-873.8 1406.749,-873.8 1406.749,-873.8 171.0404,-873.8 171.0404,-873.8 165.0404,-873.8 159.0404,-867.8 159.0404,-861.8 159.0404,-861.8 159.0404,-592.8 159.0404,-592.8 159.0404,-586.8 165.0404,-580.8 171.0404,-580.8"/>
<text text-anchor="middle" x="788.8947" y="-857.2" font-family="Times,serif" font-size="14.00" fill="#000000">Map&lt;Class&lt;?&gt;, AndroidInjector.Factory&lt;?&gt;&gt;</text>
</g>
<g id="clust4" class="cluster">
<title>cluster_Subcomponents</title>
<polygon fill="none" stroke="#000000" points="2115.5002,-32.8 2115.5002,-355.8 2644.0382,-355.8 2644.0382,-32.8 2115.5002,-32.8"/>
<text text-anchor="middle" x="2168.219" y="-339.2" font-family="Times,serif" font-size="14.00" fill="#000000">Subcomponents</text>
</g>
<!-- 0b14fe32&#45;4678&#45;41d8&#45;8993&#45;900990e67d29 -->
<g id="node1" class="node">
<title>0b14fe32&#45;4678&#45;41d8&#45;8993&#45;900990e67d29</title>
<polygon fill="#7fffd4" stroke="#7fffd4" points="1836.6622,-879.4019 1706.0162,-879.4019 1706.0162,-838.1981 1836.6622,-838.1981 1836.6622,-879.4019"/>
<text text-anchor="middle" x="1771.3392" y="-863" font-family="Times,serif" font-size="14.00" fill="#000000">@PerActivity</text>
<text text-anchor="middle" x="1771.3392" y="-846.2" font-family="Times,serif" font-size="14.00" fill="#000000">AppCompatActivity</text>
</g>
<!-- b0071492&#45;889b&#45;4a71&#45;a563&#45;635a75050ea6 -->
<g id="node2" class="node">
<title>b0071492&#45;889b&#45;4a71&#45;a563&#45;635a75050ea6</title>
<polygon fill="#ff3030" stroke="#ff3030" points="2986.6436,-876.8 2672.8362,-876.8 2672.8362,-840.8 2986.6436,-840.8 2986.6436,-876.8"/>
<text text-anchor="middle" x="2829.7399" y="-854.6" font-family="Times,serif" font-size="14.00" fill="#000000">org.owntracks.android.ui.welcome.WelcomeActivity</text>
</g>
<!-- 0b14fe32&#45;4678&#45;41d8&#45;8993&#45;900990e67d29&#45;&gt;b0071492&#45;889b&#45;4a71&#45;a563&#45;635a75050ea6 -->
<g id="edge2" class="edge">
<title>0b14fe32&#45;4678&#45;41d8&#45;8993&#45;900990e67d29&#45;&gt;b0071492&#45;889b&#45;4a71&#45;a563&#45;635a75050ea6</title>
<path fill="none" stroke="#000000" stroke-dasharray="5,2" d="M1836.7482,-858.8C1999.1442,-858.8 2424.7703,-858.8 2662.6946,-858.8"/>
<polygon fill="#000000" stroke="#000000" points="2662.8295,-862.3001 2672.8294,-858.8 2662.8294,-855.3001 2662.8295,-862.3001"/>
<text text-anchor="middle" x="2379.7692" y="-863" font-family="Times,serif" font-size="14.00" fill="#000000">delegates</text>
<text text-anchor="middle" x="2627.1313" y="-846.2" font-family="Times,serif" font-size="14.00" fill="#000000">Missing binding</text>
</g>
<!-- 79739cf1&#45;a2b0&#45;460f&#45;930f&#45;0bf44e49c3e2 -->
<g id="node3" class="node">
<title>79739cf1&#45;a2b0&#45;460f&#45;930f&#45;0bf44e49c3e2</title>
<polygon fill="#7fffd4" stroke="#7fffd4" points="429.8213,-490.4019 179.4989,-490.4019 179.4989,-449.1981 429.8213,-449.1981 429.8213,-490.4019"/>
<text text-anchor="middle" x="304.6601" y="-474" font-family="Times,serif" font-size="14.00" fill="#000000">@PerActivity</text>
<text text-anchor="middle" x="304.6601" y="-457.2" font-family="Times,serif" font-size="14.00" fill="#000000">BaseViewModel&lt;WelcomeMvvm.View&gt;</text>
</g>
<!-- 6e496f6a&#45;f4a6&#45;495e&#45;af91&#45;419bffdf5d5e -->
<g id="node4" class="node">
<title>6e496f6a&#45;f4a6&#45;495e&#45;af91&#45;419bffdf5d5e</title>
<polygon fill="#7fffd4" stroke="#7fffd4" points="855.667,-490.4019 719.6496,-490.4019 719.6496,-449.1981 855.667,-449.1981 855.667,-490.4019"/>
<text text-anchor="middle" x="787.6583" y="-474" font-family="Times,serif" font-size="14.00" fill="#000000">@PerActivity</text>
<text text-anchor="middle" x="787.6583" y="-457.2" font-family="Times,serif" font-size="14.00" fill="#000000">WelcomeViewModel</text>
</g>
<!-- 79739cf1&#45;a2b0&#45;460f&#45;930f&#45;0bf44e49c3e2&#45;&gt;6e496f6a&#45;f4a6&#45;495e&#45;af91&#45;419bffdf5d5e -->
<g id="edge3" class="edge">
<title>79739cf1&#45;a2b0&#45;460f&#45;930f&#45;0bf44e49c3e2&#45;&gt;6e496f6a&#45;f4a6&#45;495e&#45;af91&#45;419bffdf5d5e</title>
<path fill="none" stroke="#000000" stroke-dasharray="1,5" d="M429.9867,-469.8C518.2158,-469.8 633.6022,-469.8 709.1259,-469.8"/>
<polygon fill="#000000" stroke="#000000" points="709.5111,-473.3001 719.511,-469.8 709.511,-466.3001 709.5111,-473.3001"/>
<text text-anchor="middle" x="656.3623" y="-474" font-family="Times,serif" font-size="14.00" fill="#000000">delegates</text>
</g>
<!-- c62c7b17&#45;1a9a&#45;4e3c&#45;84b1&#45;eb8370f93e05 -->
<g id="node5" class="node">
<title>c62c7b17&#45;1a9a&#45;4e3c&#45;84b1&#45;eb8370f93e05</title>
<polygon fill="#ffe4c4" stroke="#ffe4c4" points="1211.8934,-474.4019 1129.7678,-474.4019 1129.7678,-433.1981 1211.8934,-433.1981 1211.8934,-474.4019"/>
<text text-anchor="middle" x="1170.8306" y="-458" font-family="Times,serif" font-size="14.00" fill="#000000">@Singleton</text>
<text text-anchor="middle" x="1170.8306" y="-441.2" font-family="Times,serif" font-size="14.00" fill="#000000">Preferences</text>
</g>
<!-- 6e496f6a&#45;f4a6&#45;495e&#45;af91&#45;419bffdf5d5e&#45;&gt;c62c7b17&#45;1a9a&#45;4e3c&#45;84b1&#45;eb8370f93e05 -->
<g id="edge5" class="edge">
<title>6e496f6a&#45;f4a6&#45;495e&#45;af91&#45;419bffdf5d5e&#45;&gt;c62c7b17&#45;1a9a&#45;4e3c&#45;84b1&#45;eb8370f93e05</title>
<path fill="none" stroke="#000000" d="M855.7203,-466.958C931.3033,-463.8019 1051.6002,-458.7787 1119.6093,-455.9388"/>
<polygon fill="#000000" stroke="#000000" points="1119.8112,-459.4335 1129.6564,-455.5193 1119.5191,-452.4396 1119.8112,-459.4335"/>
</g>
<!-- 839ce897&#45;f70d&#45;4f9e&#45;ba7d&#45;dcd2d2bda7b5 -->
<g id="node6" class="node">
<title>839ce897&#45;f70d&#45;4f9e&#45;ba7d&#45;dcd2d2bda7b5</title>
<polygon fill="#7fffd4" stroke="#7fffd4" points="1217.7656,-554.4019 1123.8956,-554.4019 1123.8956,-513.1981 1217.7656,-513.1981 1217.7656,-554.4019"/>
<text text-anchor="middle" x="1170.8306" y="-538" font-family="Times,serif" font-size="14.00" fill="#000000">@PerActivity</text>
<text text-anchor="middle" x="1170.8306" y="-521.2" font-family="Times,serif" font-size="14.00" fill="#000000">Navigator</text>
</g>
<!-- 6e496f6a&#45;f4a6&#45;495e&#45;af91&#45;419bffdf5d5e&#45;&gt;839ce897&#45;f70d&#45;4f9e&#45;ba7d&#45;dcd2d2bda7b5 -->
<g id="edge4" class="edge">
<title>6e496f6a&#45;f4a6&#45;495e&#45;af91&#45;419bffdf5d5e&#45;&gt;839ce897&#45;f70d&#45;4f9e&#45;ba7d&#45;dcd2d2bda7b5</title>
<path fill="none" stroke="#000000" d="M855.7203,-481.1682C929.1555,-493.4338 1044.7994,-512.7494 1113.687,-524.2555"/>
<polygon fill="#000000" stroke="#000000" points="1113.4743,-527.7684 1123.9143,-525.9637 1114.6276,-520.864 1113.4743,-527.7684"/>
</g>
<!-- abd6518b&#45;4db0&#45;4581&#45;ada2&#45;5d3e5553e82b -->
<g id="node7" class="node">
<title>abd6518b&#45;4db0&#45;4581&#45;ada2&#45;5d3e5553e82b</title>
<polygon fill="#ff3030" stroke="#ff3030" points="2005.8512,-461.8 1536.8272,-461.8 1536.8272,-425.8 2005.8512,-425.8 2005.8512,-461.8"/>
<text text-anchor="middle" x="1771.3392" y="-439.6" font-family="Times,serif" font-size="14.00" fill="#000000">@org.owntracks.android.injection.qualifier.AppContext android.content.Context</text>
</g>
<!-- c62c7b17&#45;1a9a&#45;4e3c&#45;84b1&#45;eb8370f93e05&#45;&gt;abd6518b&#45;4db0&#45;4581&#45;ada2&#45;5d3e5553e82b -->
<g id="edge7" class="edge">
<title>c62c7b17&#45;1a9a&#45;4e3c&#45;84b1&#45;eb8370f93e05&#45;&gt;abd6518b&#45;4db0&#45;4581&#45;ada2&#45;5d3e5553e82b</title>
<path fill="none" stroke="#000000" stroke-dasharray="5,2" d="M1212.106,-453.1127C1276.9909,-452.0322 1407.7224,-449.8551 1526.4777,-447.8776"/>
<polygon fill="#000000" stroke="#000000" points="1526.8886,-451.3713 1536.8289,-447.7052 1526.772,-444.3723 1526.8886,-451.3713"/>
<text text-anchor="middle" x="1491.1308" y="-435.1052" font-family="Times,serif" font-size="14.00" fill="#000000">Missing binding</text>
</g>
<!-- 129e0217&#45;a940&#45;4ec8&#45;81e8&#45;f66b8bf86d3f -->
<g id="node8" class="node">
<title>129e0217&#45;a940&#45;4ec8&#45;81e8&#45;f66b8bf86d3f</title>
<polygon fill="#ff3030" stroke="#ff3030" points="1876.3442,-515.8 1666.3342,-515.8 1666.3342,-479.8 1876.3442,-479.8 1876.3442,-515.8"/>
<text text-anchor="middle" x="1771.3392" y="-493.6" font-family="Times,serif" font-size="14.00" fill="#000000">org.greenrobot.eventbus.EventBus</text>
</g>
<!-- c62c7b17&#45;1a9a&#45;4e3c&#45;84b1&#45;eb8370f93e05&#45;&gt;129e0217&#45;a940&#45;4ec8&#45;81e8&#45;f66b8bf86d3f -->
<g id="edge8" class="edge">
<title>c62c7b17&#45;1a9a&#45;4e3c&#45;84b1&#45;eb8370f93e05&#45;&gt;129e0217&#45;a940&#45;4ec8&#45;81e8&#45;f66b8bf86d3f</title>
<path fill="none" stroke="#000000" stroke-dasharray="5,2" d="M1212.106,-456.8243C1302.457,-463.4444 1520.4845,-479.4196 1656.0658,-489.3538"/>
<polygon fill="#000000" stroke="#000000" points="1655.8573,-492.8478 1666.0863,-490.088 1656.3689,-485.8665 1655.8573,-492.8478"/>
<text text-anchor="middle" x="1620.3882" y="-477.488" font-family="Times,serif" font-size="14.00" fill="#000000">Missing binding</text>
</g>
<!-- 0ee8f0cc&#45;5c58&#45;4073&#45;b694&#45;6241a4e17aa8 -->
<g id="node9" class="node">
<title>0ee8f0cc&#45;5c58&#45;4073&#45;b694&#45;6241a4e17aa8</title>
<polygon fill="#ff3030" stroke="#ff3030" points="1948.1229,-407.8 1594.5555,-407.8 1594.5555,-371.8 1948.1229,-371.8 1948.1229,-407.8"/>
<text text-anchor="middle" x="1771.3392" y="-385.6" font-family="Times,serif" font-size="14.00" fill="#000000">org.owntracks.android.support.preferences.PreferencesStore</text>
</g>
<!-- c62c7b17&#45;1a9a&#45;4e3c&#45;84b1&#45;eb8370f93e05&#45;&gt;0ee8f0cc&#45;5c58&#45;4073&#45;b694&#45;6241a4e17aa8 -->
<g id="edge6" class="edge">
<title>c62c7b17&#45;1a9a&#45;4e3c&#45;84b1&#45;eb8370f93e05&#45;&gt;0ee8f0cc&#45;5c58&#45;4073&#45;b694&#45;6241a4e17aa8</title>
<path fill="none" stroke="#000000" stroke-dasharray="5,2" d="M1212.106,-449.401C1289.26,-441.1782 1459.5168,-423.0329 1592.0334,-408.9097"/>
<polygon fill="#000000" stroke="#000000" points="1592.7386,-412.3545 1602.3113,-407.8144 1591.9967,-405.3939 1592.7386,-412.3545"/>
<text text-anchor="middle" x="1556.6132" y="-412.0144" font-family="Times,serif" font-size="14.00" fill="#000000">Missing binding</text>
</g>
<!-- 839ce897&#45;f70d&#45;4f9e&#45;ba7d&#45;dcd2d2bda7b5&#45;&gt;0b14fe32&#45;4678&#45;41d8&#45;8993&#45;900990e67d29 -->
<g id="edge1" class="edge">
<title>839ce897&#45;f70d&#45;4f9e&#45;ba7d&#45;dcd2d2bda7b5&#45;&gt;0b14fe32&#45;4678&#45;41d8&#45;8993&#45;900990e67d29</title>
<path fill="none" stroke="#000000" d="M1217.5907,-527.0277C1273.8281,-521.7825 1367.0911,-522.8417 1418.749,-576.8 1488.4752,-649.6312 1382.6135,-724.8358 1447.749,-801.8 1507.1414,-871.9782 1620.0076,-876.3848 1695.4763,-870.0196"/>
<polygon fill="#000000" stroke="#000000" points="1696.2336,-873.4645 1705.8676,-869.0557 1695.587,-866.4944 1696.2336,-873.4645"/>
</g>
<!-- ed3de320&#45;e476&#45;4561&#45;8609&#45;0894ea19bb0f -->
<g id="node10" class="node">
<title>ed3de320&#45;e476&#45;4561&#45;8609&#45;0894ea19bb0f</title>
<polygon fill="#40e0d0" stroke="#40e0d0" points="1391.8367,-732.8 949.8245,-732.8 949.8245,-696.8 1391.8367,-696.8 1391.8367,-732.8"/>
<text text-anchor="middle" x="1170.8306" y="-710.6" font-family="Times,serif" font-size="14.00" fill="#000000">WelcomeActivityModule_BindPlayFragment.bindAndroidInjectorFactory()</text>
</g>
<!-- 0ff011d9&#45;c852&#45;4ffa&#45;80a0&#45;4a60643a7c36 -->
<g id="node15" class="node">
<title>0ff011d9&#45;c852&#45;4ffa&#45;80a0&#45;4a60643a7c36</title>
<polygon fill="#40e0d0" stroke="#40e0d0" points="1883.6367,-743.4014 1659.0417,-743.4014 1659.0417,-686.1986 1883.6367,-686.1986 1883.6367,-743.4014"/>
<text text-anchor="middle" x="1771.3392" y="-727" font-family="Times,serif" font-size="14.00" fill="#000000">PlayFragmentSubcomponent.Factory</text>
<text text-anchor="middle" x="1771.3392" y="-694.2" font-family="Times,serif" font-size="14.00" fill="#000000">Subcomponent Creator</text>
</g>
<!-- ed3de320&#45;e476&#45;4561&#45;8609&#45;0894ea19bb0f&#45;&gt;0ff011d9&#45;c852&#45;4ffa&#45;80a0&#45;4a60643a7c36 -->
<g id="edge14" class="edge">
<title>ed3de320&#45;e476&#45;4561&#45;8609&#45;0894ea19bb0f&#45;&gt;0ff011d9&#45;c852&#45;4ffa&#45;80a0&#45;4a60643a7c36</title>
<path fill="none" stroke="#000000" stroke-dasharray="1,5" d="M1391.8795,-714.8C1478.5967,-714.8 1574.8068,-714.8 1648.6519,-714.8"/>
<polygon fill="#000000" stroke="#000000" points="1648.9201,-718.3001 1658.92,-714.8 1648.92,-711.3001 1648.9201,-718.3001"/>
<text text-anchor="middle" x="1473.7911" y="-719" font-family="Times,serif" font-size="14.00" fill="#000000">delegates</text>
</g>
<!-- 74b17eee&#45;c089&#45;49e7&#45;8deb&#45;9a379028c7b6 -->
<g id="node11" class="node">
<title>74b17eee&#45;c089&#45;49e7&#45;8deb&#45;9a379028c7b6</title>
<polygon fill="#40e0d0" stroke="#40e0d0" points="1393.1604,-678.8 948.5008,-678.8 948.5008,-642.8 1393.1604,-642.8 1393.1604,-678.8"/>
<text text-anchor="middle" x="1170.8306" y="-656.6" font-family="Times,serif" font-size="14.00" fill="#000000">WelcomeActivityModule_BindIntroFragment.bindAndroidInjectorFactory()</text>
</g>
<!-- 3e37134d&#45;5e4f&#45;412d&#45;8a8a&#45;ad76c6acab57 -->
<g id="node16" class="node">
<title>3e37134d&#45;5e4f&#45;412d&#45;8a8a&#45;ad76c6acab57</title>
<polygon fill="#40e0d0" stroke="#40e0d0" points="1884.9606,-667.4014 1657.7178,-667.4014 1657.7178,-610.1986 1884.9606,-610.1986 1884.9606,-667.4014"/>
<text text-anchor="middle" x="1771.3392" y="-651" font-family="Times,serif" font-size="14.00" fill="#000000">IntroFragmentSubcomponent.Factory</text>
<text text-anchor="middle" x="1771.3392" y="-618.2" font-family="Times,serif" font-size="14.00" fill="#000000">Subcomponent Creator</text>
</g>
<!-- 74b17eee&#45;c089&#45;49e7&#45;8deb&#45;9a379028c7b6&#45;&gt;3e37134d&#45;5e4f&#45;412d&#45;8a8a&#45;ad76c6acab57 -->
<g id="edge15" class="edge">
<title>74b17eee&#45;c089&#45;49e7&#45;8deb&#45;9a379028c7b6&#45;&gt;3e37134d&#45;5e4f&#45;412d&#45;8a8a&#45;ad76c6acab57</title>
<path fill="none" stroke="#000000" stroke-dasharray="1,5" d="M1393.5845,-652.6393C1479.3396,-649.4976 1574.1484,-646.0242 1647.3325,-643.3431"/>
<polygon fill="#000000" stroke="#000000" points="1647.6472,-646.834 1657.5123,-642.9701 1647.3909,-639.8387 1647.6472,-646.834"/>
<text text-anchor="middle" x="1473.7911" y="-654" font-family="Times,serif" font-size="14.00" fill="#000000">delegates</text>
</g>
<!-- 110fb94d&#45;aacf&#45;4625&#45;9676&#45;30d289fe18dc -->
<g id="node12" class="node">
<title>110fb94d&#45;aacf&#45;4625&#45;9676&#45;30d289fe18dc</title>
<polygon fill="#40e0d0" stroke="#40e0d0" points="1401.7656,-624.8 939.8956,-624.8 939.8956,-588.8 1401.7656,-588.8 1401.7656,-624.8"/>
<text text-anchor="middle" x="1170.8306" y="-602.6" font-family="Times,serif" font-size="14.00" fill="#000000">WelcomeActivityModule_BindVersionFragment.bindAndroidInjectorFactory()</text>
</g>
<!-- f298eaf5&#45;6994&#45;4e88&#45;9dce&#45;f7473629c449 -->
<g id="node17" class="node">
<title>f298eaf5&#45;6994&#45;4e88&#45;9dce&#45;f7473629c449</title>
<polygon fill="#40e0d0" stroke="#40e0d0" points="1893.5659,-591.4014 1649.1125,-591.4014 1649.1125,-534.1986 1893.5659,-534.1986 1893.5659,-591.4014"/>
<text text-anchor="middle" x="1771.3392" y="-575" font-family="Times,serif" font-size="14.00" fill="#000000">VersionFragmentSubcomponent.Factory</text>
<text text-anchor="middle" x="1771.3392" y="-542.2" font-family="Times,serif" font-size="14.00" fill="#000000">Subcomponent Creator</text>
</g>
<!-- 110fb94d&#45;aacf&#45;4625&#45;9676&#45;30d289fe18dc&#45;&gt;f298eaf5&#45;6994&#45;4e88&#45;9dce&#45;f7473629c449 -->
<g id="edge16" class="edge">
<title>110fb94d&#45;aacf&#45;4625&#45;9676&#45;30d289fe18dc&#45;&gt;f298eaf5&#45;6994&#45;4e88&#45;9dce&#45;f7473629c449</title>
<path fill="none" stroke="#000000" stroke-dasharray="1,5" d="M1402.1439,-589.8514C1482.2896,-583.979 1569.3629,-577.5991 1638.8103,-572.5106"/>
<polygon fill="#000000" stroke="#000000" points="1639.2083,-575.9909 1648.9258,-571.7694 1638.6967,-569.0096 1639.2083,-575.9909"/>
<text text-anchor="middle" x="1473.7911" y="-590" font-family="Times,serif" font-size="14.00" fill="#000000">delegates</text>
</g>
<!-- bffc941b&#45;6d99&#45;4e38&#45;bb12&#45;ae884fc6b783 -->
<g id="node13" class="node">
<title>bffc941b&#45;6d99&#45;4e38&#45;bb12&#45;ae884fc6b783</title>
<polygon fill="#40e0d0" stroke="#40e0d0" points="1410.6674,-840.8 930.9938,-840.8 930.9938,-804.8 1410.6674,-804.8 1410.6674,-840.8"/>
<text text-anchor="middle" x="1170.8306" y="-818.6" font-family="Times,serif" font-size="14.00" fill="#000000">WelcomeActivityModule_BindPermissionFragment.bindAndroidInjectorFactory()</text>
</g>
<!-- 4a113df7&#45;3b36&#45;41df&#45;b2c3&#45;cd54c82bc329 -->
<g id="node18" class="node">
<title>4a113df7&#45;3b36&#45;41df&#45;b2c3&#45;cd54c82bc329</title>
<polygon fill="#40e0d0" stroke="#40e0d0" points="1902.4676,-955.4014 1640.2108,-955.4014 1640.2108,-898.1986 1902.4676,-898.1986 1902.4676,-955.4014"/>
<text text-anchor="middle" x="1771.3392" y="-939" font-family="Times,serif" font-size="14.00" fill="#000000">PermissionFragmentSubcomponent.Factory</text>
<text text-anchor="middle" x="1771.3392" y="-906.2" font-family="Times,serif" font-size="14.00" fill="#000000">Subcomponent Creator</text>
</g>
<!-- bffc941b&#45;6d99&#45;4e38&#45;bb12&#45;ae884fc6b783&#45;&gt;4a113df7&#45;3b36&#45;41df&#45;b2c3&#45;cd54c82bc329 -->
<g id="edge17" class="edge">
<title>bffc941b&#45;6d99&#45;4e38&#45;bb12&#45;ae884fc6b783&#45;&gt;4a113df7&#45;3b36&#45;41df&#45;b2c3&#45;cd54c82bc329</title>
<path fill="none" stroke="#000000" stroke-dasharray="1,5" d="M1268.2295,-840.8493C1341.9262,-854.3883 1445.6669,-873.195 1536.8332,-888.8 1567.0047,-893.9645 1599.3921,-899.3283 1630.1747,-904.3419"/>
<polygon fill="#000000" stroke="#000000" points="1629.6757,-907.8067 1640.1078,-905.9567 1630.799,-900.8974 1629.6757,-907.8067"/>
<text text-anchor="middle" x="1473.7911" y="-886" font-family="Times,serif" font-size="14.00" fill="#000000">delegates</text>
</g>
<!-- 33bb2677&#45;43c0&#45;403b&#45;b4ab&#45;a543b1742114 -->
<g id="node14" class="node">
<title>33bb2677&#45;43c0&#45;403b&#45;b4ab&#45;a543b1742114</title>
<polygon fill="#40e0d0" stroke="#40e0d0" points="1396.9572,-786.8 944.704,-786.8 944.704,-750.8 1396.9572,-750.8 1396.9572,-786.8"/>
<text text-anchor="middle" x="1170.8306" y="-764.6" font-family="Times,serif" font-size="14.00" fill="#000000">WelcomeActivityModule_BindFinishFragment.bindAndroidInjectorFactory()</text>
</g>
<!-- ad9aace9&#45;cd38&#45;49c5&#45;833a&#45;ee8fab1ba367 -->
<g id="node19" class="node">
<title>ad9aace9&#45;cd38&#45;49c5&#45;833a&#45;ee8fab1ba367</title>
<polygon fill="#40e0d0" stroke="#40e0d0" points="1888.7572,-819.4014 1653.9212,-819.4014 1653.9212,-762.1986 1888.7572,-762.1986 1888.7572,-819.4014"/>
<text text-anchor="middle" x="1771.3392" y="-803" font-family="Times,serif" font-size="14.00" fill="#000000">FinishFragmentSubcomponent.Factory</text>
<text text-anchor="middle" x="1771.3392" y="-770.2" font-family="Times,serif" font-size="14.00" fill="#000000">Subcomponent Creator</text>
</g>
<!-- 33bb2677&#45;43c0&#45;403b&#45;b4ab&#45;a543b1742114&#45;&gt;ad9aace9&#45;cd38&#45;49c5&#45;833a&#45;ee8fab1ba367 -->
<g id="edge18" class="edge">
<title>33bb2677&#45;43c0&#45;403b&#45;b4ab&#45;a543b1742114&#45;&gt;ad9aace9&#45;cd38&#45;49c5&#45;833a&#45;ee8fab1ba367</title>
<path fill="none" stroke="#000000" stroke-dasharray="1,5" d="M1397.0015,-777.0859C1480.343,-780.1392 1571.807,-783.49 1643.463,-786.1152"/>
<polygon fill="#000000" stroke="#000000" points="1643.7666,-789.6286 1653.8881,-786.4971 1644.023,-782.6333 1643.7666,-789.6286"/>
<text text-anchor="middle" x="1473.7911" y="-785" font-family="Times,serif" font-size="14.00" fill="#000000">delegates</text>
</g>
<!-- a5fa400b&#45;5b31&#45;4bc6&#45;95ad&#45;1df567b21698 -->
<g id="node22" class="node">
<title>a5fa400b&#45;5b31&#45;4bc6&#45;95ad&#45;1df567b21698</title>
<g id="a_node22"><a xlink:href="full_org.owntracks.android.ui.welcome.WelcomeActivityModule_BindPlayFragment.PlayFragmentSubcomponent.svg" xlink:title="@PerFragment\nWelcomeActivityModule_BindPlayFragment.PlayFragmentSubcomponent">
<polygon fill="#ffff00" stroke="#ffff00" points="2598.6452,-202.4019 2160.8932,-202.4019 2160.8932,-161.1981 2598.6452,-161.1981 2598.6452,-202.4019"/>
<text text-anchor="middle" x="2379.7692" y="-186" font-family="Times,serif" font-size="14.00" fill="#000000">@PerFragment</text>
<text text-anchor="middle" x="2379.7692" y="-169.2" font-family="Times,serif" font-size="14.00" fill="#000000">WelcomeActivityModule_BindPlayFragment.PlayFragmentSubcomponent</text>
</a>
</g>
</g>
<!-- 0ff011d9&#45;c852&#45;4ffa&#45;80a0&#45;4a60643a7c36&#45;&gt;a5fa400b&#45;5b31&#45;4bc6&#45;95ad&#45;1df567b21698 -->
<g id="edge19" class="edge">
<title>0ff011d9&#45;c852&#45;4ffa&#45;80a0&#45;4a60643a7c36&#45;&gt;a5fa400b&#45;5b31&#45;4bc6&#45;95ad&#45;1df567b21698:w</title>
<path fill="none" stroke="#000000" stroke-dasharray="5,2" d="M1883.9147,-724.1767C1927.9484,-721.5426 1975.1531,-709.7895 2005.8452,-676.8 2036.6632,-643.6752 1998.8107,-511.6866 2023.8452,-474 2046.5631,-439.8009 2083.5209,-465.4785 2105.5002,-430.8 2131.5803,-389.6513 2091.4804,-254.1843 2115.5002,-211.8 2125.5412,-194.0822 2133.6825,-184.9058 2150.4798,-182.4707"/>
<polygon fill="#000000" stroke="#000000" points="2151.0181,-185.9431 2160.7692,-181.8 2150.5627,-178.9579 2151.0181,-185.9431"/>
<text text-anchor="middle" x="2064.6727" y="-478" font-family="Times,serif" font-size="14.00" fill="#000000">subcomponent</text>
</g>
<!-- 8ee7c034&#45;c2f6&#45;45b8&#45;9516&#45;d4a3bac6bc6f -->
<g id="node23" class="node">
<title>8ee7c034&#45;c2f6&#45;45b8&#45;9516&#45;d4a3bac6bc6f</title>
<g id="a_node23"><a xlink:href="full_org.owntracks.android.ui.welcome.WelcomeActivityModule_BindIntroFragment.IntroFragmentSubcomponent.svg" xlink:title="@PerFragment\nWelcomeActivityModule_BindIntroFragment.IntroFragmentSubcomponent">
<polygon fill="#ffff00" stroke="#ffff00" points="2600.7935,-142.4019 2158.7449,-142.4019 2158.7449,-101.1981 2600.7935,-101.1981 2600.7935,-142.4019"/>
<text text-anchor="middle" x="2379.7692" y="-126" font-family="Times,serif" font-size="14.00" fill="#000000">@PerFragment</text>
<text text-anchor="middle" x="2379.7692" y="-109.2" font-family="Times,serif" font-size="14.00" fill="#000000">WelcomeActivityModule_BindIntroFragment.IntroFragmentSubcomponent</text>
</a>
</g>
</g>
<!-- 3e37134d&#45;5e4f&#45;412d&#45;8a8a&#45;ad76c6acab57&#45;&gt;8ee7c034&#45;c2f6&#45;45b8&#45;9516&#45;d4a3bac6bc6f -->
<g id="edge20" class="edge">
<title>3e37134d&#45;5e4f&#45;412d&#45;8a8a&#45;ad76c6acab57&#45;&gt;8ee7c034&#45;c2f6&#45;45b8&#45;9516&#45;d4a3bac6bc6f:w</title>
<path fill="none" stroke="#000000" stroke-dasharray="5,2" d="M1885.0017,-647.9873C1928.6693,-645.1931 1975.3111,-633.3727 2005.8452,-600.8 2034.3665,-570.3746 2014.9001,-454.7328 2023.8452,-414 2053.778,-277.6973 2017.5794,-129.238 2148.6139,-122.0703"/>
<polygon fill="#000000" stroke="#000000" points="2148.8659,-125.5649 2158.7692,-121.8 2148.6796,-118.5674 2148.8659,-125.5649"/>
<text text-anchor="middle" x="2064.6727" y="-418" font-family="Times,serif" font-size="14.00" fill="#000000">subcomponent</text>
</g>
<!-- 0bffa92c&#45;f84e&#45;4403&#45;a4a4&#45;c672a364f0b0 -->
<g id="node24" class="node">
<title>0bffa92c&#45;f84e&#45;4403&#45;a4a4&#45;c672a364f0b0</title>
<g id="a_node24"><a xlink:href="full_org.owntracks.android.ui.welcome.WelcomeActivityModule_BindVersionFragment.VersionFragmentSubcomponent.svg" xlink:title="@PerFragment\nWelcomeActivityModule_BindVersionFragment.VersionFragmentSubcomponent">
<polygon fill="#ffff00" stroke="#ffff00" points="2618.0037,-82.4019 2141.5347,-82.4019 2141.5347,-41.1981 2618.0037,-41.1981 2618.0037,-82.4019"/>
<text text-anchor="middle" x="2379.7692" y="-66" font-family="Times,serif" font-size="14.00" fill="#000000">@PerFragment</text>
<text text-anchor="middle" x="2379.7692" y="-49.2" font-family="Times,serif" font-size="14.00" fill="#000000">WelcomeActivityModule_BindVersionFragment.VersionFragmentSubcomponent</text>
</a>
</g>
</g>
<!-- f298eaf5&#45;6994&#45;4e88&#45;9dce&#45;f7473629c449&#45;&gt;0bffa92c&#45;f84e&#45;4403&#45;a4a4&#45;c672a364f0b0 -->
<g id="edge21" class="edge">
<title>f298eaf5&#45;6994&#45;4e88&#45;9dce&#45;f7473629c449&#45;&gt;0bffa92c&#45;f84e&#45;4403&#45;a4a4&#45;c672a364f0b0:w</title>
<path fill="none" stroke="#000000" stroke-dasharray="5,2" d="M1893.5009,-572.2406C1935.0093,-568.6785 1977.9117,-556.2564 2005.8452,-524.8 2037.3613,-489.3091 1994.8359,-135.5677 2023.8452,-98 2055.1932,-57.4036 2083.1138,-61.0829 2131.475,-61.7258"/>
<polygon fill="#000000" stroke="#000000" points="2131.7442,-65.2278 2141.7692,-61.8 2131.7947,-58.2279 2131.7442,-65.2278"/>
<text text-anchor="middle" x="2064.6727" y="-103" font-family="Times,serif" font-size="14.00" fill="#000000">subcomponent</text>
</g>
<!-- 188a5546&#45;91ff&#45;46a4&#45;995a&#45;4a343c7d8bb1 -->
<g id="node25" class="node">
<title>188a5546&#45;91ff&#45;46a4&#45;995a&#45;4a343c7d8bb1</title>
<g id="a_node25"><a xlink:href="full_org.owntracks.android.ui.welcome.WelcomeActivityModule_BindPermissionFragment.PermissionFragmentSubcomponent.svg" xlink:title="@PerFragment\nWelcomeActivityModule_BindPermissionFragment.PermissionFragmentSubcomponent">
<polygon fill="#ffff00" stroke="#ffff00" points="2635.8074,-322.4019 2123.731,-322.4019 2123.731,-281.1981 2635.8074,-281.1981 2635.8074,-322.4019"/>
<text text-anchor="middle" x="2379.7692" y="-306" font-family="Times,serif" font-size="14.00" fill="#000000">@PerFragment</text>
<text text-anchor="middle" x="2379.7692" y="-289.2" font-family="Times,serif" font-size="14.00" fill="#000000">WelcomeActivityModule_BindPermissionFragment.PermissionFragmentSubcomponent</text>
</a>
</g>
</g>
<!-- 4a113df7&#45;3b36&#45;41df&#45;b2c3&#45;cd54c82bc329&#45;&gt;188a5546&#45;91ff&#45;46a4&#45;995a&#45;4a343c7d8bb1 -->
<g id="edge22" class="edge">
<title>4a113df7&#45;3b36&#45;41df&#45;b2c3&#45;cd54c82bc329&#45;&gt;188a5546&#45;91ff&#45;46a4&#45;995a&#45;4a343c7d8bb1:w</title>
<path fill="none" stroke="#000000" stroke-dasharray="5,2" d="M1902.4353,-930.9374C1939.6261,-925.8623 1977.63,-913.8614 2005.8452,-888.8 2126.1307,-781.9595 2078.75,-699.444 2105.5002,-540.8 2109.4442,-517.4101 2099.7285,-346.1056 2116.371,-308.9125"/>
<polygon fill="#000000" stroke="#000000" points="2118.986,-311.2537 2123.7692,-301.8 2114.1346,-306.2075 2118.986,-311.2537"/>
<text text-anchor="middle" x="2064.6727" y="-874" font-family="Times,serif" font-size="14.00" fill="#000000">subcomponent</text>
</g>
<!-- 97535d1b&#45;a8df&#45;4afb&#45;85f0&#45;3a37dc721cfb -->
<g id="node26" class="node">
<title>97535d1b&#45;a8df&#45;4afb&#45;85f0&#45;3a37dc721cfb</title>
<g id="a_node26"><a xlink:href="full_org.owntracks.android.ui.welcome.WelcomeActivityModule_BindFinishFragment.FinishFragmentSubcomponent.svg" xlink:title="@PerFragment\nWelcomeActivityModule_BindFinishFragment.FinishFragmentSubcomponent">
<polygon fill="#ffff00" stroke="#ffff00" points="2608.8864,-262.4019 2150.652,-262.4019 2150.652,-221.1981 2608.8864,-221.1981 2608.8864,-262.4019"/>
<text text-anchor="middle" x="2379.7692" y="-246" font-family="Times,serif" font-size="14.00" fill="#000000">@PerFragment</text>
<text text-anchor="middle" x="2379.7692" y="-229.2" font-family="Times,serif" font-size="14.00" fill="#000000">WelcomeActivityModule_BindFinishFragment.FinishFragmentSubcomponent</text>
</a>
</g>
</g>
<!-- ad9aace9&#45;cd38&#45;49c5&#45;833a&#45;ee8fab1ba367&#45;&gt;97535d1b&#45;a8df&#45;4afb&#45;85f0&#45;3a37dc721cfb -->
<g id="edge23" class="edge">
<title>ad9aace9&#45;cd38&#45;49c5&#45;833a&#45;ee8fab1ba367&#45;&gt;97535d1b&#45;a8df&#45;4afb&#45;85f0&#45;3a37dc721cfb:w</title>
<path fill="none" stroke="#000000" stroke-dasharray="5,2" d="M1888.9291,-800.0038C1931.5708,-796.8274 1976.4364,-784.7293 2005.8452,-752.8 2040.3977,-715.2862 1993.7334,-565.1635 2023.8452,-524 2046.9752,-492.3808 2082.8931,-522.7952 2105.5002,-490.8 2119.5567,-470.9063 2104.7782,-293.672 2115.5002,-271.8 2122.86,-256.7866 2127.958,-246.3653 2140.6489,-242.9851"/>
<polygon fill="#000000" stroke="#000000" points="2141.2442,-246.4394 2150.7692,-241.8 2140.43,-239.4869 2141.2442,-246.4394"/>
<text text-anchor="middle" x="2064.6727" y="-528" font-family="Times,serif" font-size="14.00" fill="#000000">subcomponent</text>
</g>
<!-- 9452c106&#45;f6ff&#45;464c&#45;8c10&#45;234d7b855935 -->
<g id="node20" class="node">
<title>9452c106&#45;f6ff&#45;464c&#45;8c10&#45;234d7b855935</title>
<polygon fill="#ff3030" stroke="#ff3030" points="593.4804,-422.8 15.8398,-422.8 15.8398,-386.8 593.4804,-386.8 593.4804,-422.8"/>
<text text-anchor="middle" x="304.6601" y="-400.6" font-family="Times,serif" font-size="14.00" fill="#000000">java.util.Map&lt;java.lang.String,javax.inject.Provider&lt;dagger.android.AndroidInjector.Factory&lt;?&gt;&gt;&gt;</text>
</g>
<!-- 33c088c7&#45;2fd2&#45;449f&#45;acb1&#45;6c2cd3826470 -->
<g id="node21" class="node">
<title>33c088c7&#45;2fd2&#45;449f&#45;acb1&#45;6c2cd3826470</title>
<polygon fill="#40e0d0" stroke="#40e0d0" points="442.3996,-732.8 178.9206,-732.8 178.9206,-736.8 166.9206,-736.8 166.9206,-696.8 442.3996,-696.8 442.3996,-732.8"/>
<polyline fill="none" stroke="#40e0d0" points="166.9206,-732.8 178.9206,-732.8 "/>
<text text-anchor="middle" x="304.6601" y="-710.6" font-family="Times,serif" font-size="14.00" fill="#000000">Map&lt;Class&lt;?&gt;, AndroidInjector.Factory&lt;?&gt;&gt;</text>
</g>
<!-- 33c088c7&#45;2fd2&#45;449f&#45;acb1&#45;6c2cd3826470&#45;&gt;ed3de320&#45;e476&#45;4561&#45;8609&#45;0894ea19bb0f -->
<g id="edge10" class="edge">
<title>33c088c7&#45;2fd2&#45;449f&#45;acb1&#45;6c2cd3826470&#45;&gt;ed3de320&#45;e476&#45;4561&#45;8609&#45;0894ea19bb0f</title>
<path fill="none" stroke="#000000" d="M442.461,-714.8C507.3605,-714.8 585.8387,-714.8 656.3623,-714.8 656.3623,-714.8 656.3623,-714.8 893.4122,-714.8 908.4255,-714.8 923.8958,-714.8 939.4892,-714.8"/>
<polygon fill="#000000" stroke="#000000" points="939.7506,-718.3001 949.7506,-714.8 939.7505,-711.3001 939.7506,-718.3001"/>
</g>
<!-- 33c088c7&#45;2fd2&#45;449f&#45;acb1&#45;6c2cd3826470&#45;&gt;74b17eee&#45;c089&#45;49e7&#45;8deb&#45;9a379028c7b6 -->
<g id="edge12" class="edge">
<title>33c088c7&#45;2fd2&#45;449f&#45;acb1&#45;6c2cd3826470&#45;&gt;74b17eee&#45;c089&#45;49e7&#45;8deb&#45;9a379028c7b6</title>
<path fill="none" stroke="#000000" d="M442.4585,-708.7338C490.3987,-705.4509 544.4064,-700.4344 593.3202,-692.8 621.7766,-688.3586 627.5614,-677.8 656.3623,-677.8 656.3623,-677.8 656.3623,-677.8 893.4122,-677.8 908.0578,-677.8 923.1302,-677.561 938.3223,-677.1398"/>
<polygon fill="#000000" stroke="#000000" points="938.4302,-680.6382 948.3197,-676.8373 938.2184,-673.6414 938.4302,-680.6382"/>
</g>
<!-- 33c088c7&#45;2fd2&#45;449f&#45;acb1&#45;6c2cd3826470&#45;&gt;110fb94d&#45;aacf&#45;4625&#45;9676&#45;30d289fe18dc -->
<g id="edge11" class="edge">
<title>33c088c7&#45;2fd2&#45;449f&#45;acb1&#45;6c2cd3826470&#45;&gt;110fb94d&#45;aacf&#45;4625&#45;9676&#45;30d289fe18dc</title>
<path fill="none" stroke="#000000" d="M442.3261,-724.8667C492.0448,-723.3024 547.232,-715.2498 593.3202,-692.8 630.6645,-674.6094 614.8233,-623.8 656.3623,-623.8 656.3623,-623.8 656.3623,-623.8 893.4122,-623.8 905.1928,-623.8 917.2495,-623.6454 929.4225,-623.3656"/>
<polygon fill="#000000" stroke="#000000" points="929.7651,-626.8581 939.6718,-623.1019 929.585,-619.8604 929.7651,-626.8581"/>
</g>
<!-- 33c088c7&#45;2fd2&#45;449f&#45;acb1&#45;6c2cd3826470&#45;&gt;bffc941b&#45;6d99&#45;4e38&#45;bb12&#45;ae884fc6b783 -->
<g id="edge9" class="edge">
<title>33c088c7&#45;2fd2&#45;449f&#45;acb1&#45;6c2cd3826470&#45;&gt;bffc941b&#45;6d99&#45;4e38&#45;bb12&#45;ae884fc6b783</title>
<path fill="none" stroke="#000000" d="M351.3524,-732.8968C417.9667,-757.0449 544.6048,-796.8 656.3623,-796.8 656.3623,-796.8 656.3623,-796.8 893.4122,-796.8 935.6209,-796.8 981.2849,-799.8205 1023.1454,-803.8024"/>
<polygon fill="#000000" stroke="#000000" points="1022.8433,-807.2895 1033.136,-804.7776 1023.5233,-800.3226 1022.8433,-807.2895"/>
</g>
<!-- 33c088c7&#45;2fd2&#45;449f&#45;acb1&#45;6c2cd3826470&#45;&gt;33bb2677&#45;43c0&#45;403b&#45;b4ab&#45;a543b1742114 -->
<g id="edge13" class="edge">
<title>33c088c7&#45;2fd2&#45;449f&#45;acb1&#45;6c2cd3826470&#45;&gt;33bb2677&#45;43c0&#45;403b&#45;b4ab&#45;a543b1742114</title>
<path fill="none" stroke="#000000" d="M417.9884,-732.8123C486.7554,-742.2219 576.3935,-751.8 656.3623,-751.8 656.3623,-751.8 656.3623,-751.8 893.4122,-751.8 906.8081,-751.8 920.5611,-751.9999 934.4362,-752.3564"/>
<polygon fill="#000000" stroke="#000000" points="934.4625,-755.8585 944.5576,-752.643 934.6607,-748.8613 934.4625,-755.8585"/>
</g>
</g>
</svg>
