<svg width="1393px" height="345px"
 viewBox="0.00 0.00 1393.12 344.60" xmlns="http://www.w3.org/2000/svg" xmlns:xlink="http://www.w3.org/1999/xlink">
<g id="graph0" class="graph" transform="scale(1.0 1.0) rotate(0) translate(14.4 330.2)">
<title>org.owntracks.android.injection.modules.AndroidBindingModule → org.owntracks.android.injection.modules.AndroidBindingModule_BindWelcomeActivity.WelcomeActivitySubcomponent → org.owntracks.android.ui.welcome.WelcomeActivityModule_BindFinishFragment.FinishFragmentSubcomponent</title>
<polygon fill="#ffffff" stroke="transparent" points="-14.4,14.4 -14.4,-330.2 1378.7163,-330.2 1378.7163,14.4 -14.4,14.4"/>
<text text-anchor="middle" x="542.2673" y="-8.2" font-family="Times,serif" font-size="14.00" fill="#000000">AndroidBindingModule → AndroidBindingModule_BindWelcomeActivity.WelcomeActivitySubcomponent → WelcomeActivityModule_BindFinishFragment.FinishFragmentSubcomponent</text>
<g id="clust4" class="cluster">
<title>cluster_AndroidBindingModule → AndroidBindingModule_BindWelcomeActivity.WelcomeActivitySubcomponent → WelcomeActivityModule_BindFinishFragment.FinishFragmentSubcomponent</title>
<g id="a_clust4"><a xlink:href="full_org.owntracks.android.ui.welcome.WelcomeActivityModule_BindFinishFragment.FinishFragmentSubcomponent.svg" xlink:title="Inherited from WelcomeActivityModule_BindFinishFragment.FinishFragmentSubcomponent\n@PerFragment">
<polygon fill="none" stroke="#ff7f50" stroke-dasharray="5,2" points="244.6684,-35.8 244.6684,-183.8 787.3685,-183.8 787.3685,-35.8 244.6684,-35.8"/>
<text text-anchor="middle" x="516.0185" y="-167.2" font-family="Times,serif" font-size="14.00" fill="#000000">Inherited from WelcomeActivityModule_BindFinishFragment.FinishFragmentSubcomponent</text>
<text text-anchor="middle" x="516.0185" y="-150.4" font-family="Times,serif" font-size="14.00" fill="#000000">@PerFragment</text>
</a>
</g>
</g>
<g id="clust2" class="cluster">
<title>cluster_Dependency Graph</title>
<polygon fill="none" stroke="#000000" points="28.6901,-32.8 28.6901,-115.8 152.8941,-115.8 152.8941,-32.8 28.6901,-32.8"/>
<text text-anchor="middle" x="90.9135" y="-99.2" font-family="Times,serif" font-size="14.00" fill="#000000">Dependency Graph</text>
</g>
<g id="clust5" class="cluster">
<title>cluster_AndroidBindingModule → AndroidBindingModule_BindWelcomeActivity.WelcomeActivitySubcomponent</title>
<g id="a_clust5"><a xlink:href="full_org.owntracks.android.injection.modules.AndroidBindingModule_BindWelcomeActivity.WelcomeActivitySubcomponent.svg" xlink:title="Inherited from AndroidBindingModule_BindWelcomeActivity.WelcomeActivitySubcomponent\n@PerActivity">
<polygon fill="none" stroke="#7fffd4" stroke-dasharray="5,2" points="808.3685,-153.8 808.3685,-307.8 1364.3163,-307.8 1364.3163,-153.8 808.3685,-153.8"/>
<text text-anchor="middle" x="1086.3424" y="-291.2" font-family="Times,serif" font-size="14.00" fill="#000000">Inherited from AndroidBindingModule_BindWelcomeActivity.WelcomeActivitySubcomponent</text>
<text text-anchor="middle" x="1086.3424" y="-274.4" font-family="Times,serif" font-size="14.00" fill="#000000">@PerActivity</text>
</a>
</g>
</g>
<g id="clust1" class="cluster">
<title>cluster_Entry Points</title>
<polygon fill="none" stroke="#000000" points="8,-175.8 8,-252.8 172.5842,-252.8 172.5842,-175.8 8,-175.8"/>
<text text-anchor="middle" x="50.8061" y="-236.2" font-family="Times,serif" font-size="14.00" fill="#000000">Entry Points</text>
</g>
<!-- d2205037&#45;b44a&#45;40f8&#45;82c6&#45;3dca103e1ce0 -->
<g id="node1" class="node">
<title>d2205037&#45;b44a&#45;40f8&#45;82c6&#45;3dca103e1ce0</title>
<polygon fill="#40e0d0" stroke="#40e0d0" stroke-width="2" points="164.3769,-219.8 16.2073,-219.8 16.2073,-215.8 12.2073,-215.8 12.2073,-211.8 16.2073,-211.8 16.2073,-191.8 12.2073,-191.8 12.2073,-187.8 16.2073,-187.8 16.2073,-183.8 164.3769,-183.8 164.3769,-219.8"/>
<polyline fill="none" stroke="#40e0d0" stroke-width="2" points="16.2073,-215.8 20.2073,-215.8 20.2073,-211.8 16.2073,-211.8 "/>
<polyline fill="none" stroke="#40e0d0" stroke-width="2" points="16.2073,-191.8 20.2073,-191.8 20.2073,-187.8 16.2073,-187.8 "/>
<text text-anchor="middle" x="90.2921" y="-197.6" font-family="Times,serif" font-size="14.00" fill="#000000">inject (FinishFragment)</text>
</g>
<!-- 3557136f&#45;3c7a&#45;4e9a&#45;9f59&#45;b425305b1223 -->
<g id="node2" class="node">
<title>3557136f&#45;3c7a&#45;4e9a&#45;9f59&#45;b425305b1223</title>
<polygon fill="#40e0d0" stroke="#40e0d0" points="574.0999,-133.8 456.937,-133.8 456.937,-97.8 574.0999,-97.8 574.0999,-133.8"/>
<text text-anchor="middle" x="515.5185" y="-111.6" font-family="Times,serif" font-size="14.00" fill="#000000">NoOpViewModel</text>
</g>
<!-- d2205037&#45;b44a&#45;40f8&#45;82c6&#45;3dca103e1ce0&#45;&gt;3557136f&#45;3c7a&#45;4e9a&#45;9f59&#45;b425305b1223 -->
<g id="edge2" class="edge">
<title>d2205037&#45;b44a&#45;40f8&#45;82c6&#45;3dca103e1ce0&#45;&gt;3557136f&#45;3c7a&#45;4e9a&#45;9f59&#45;b425305b1223</title>
<path fill="none" stroke="#000000" d="M164.8475,-186.7215C244.4037,-170.6317 369.3951,-145.3528 446.6861,-129.721"/>
<polygon fill="#000000" stroke="#000000" points="447.6921,-133.0885 456.7998,-127.6756 446.3044,-126.2274 447.6921,-133.0885"/>
</g>
<!-- f3a4b683&#45;ed21&#45;48df&#45;bd37&#45;293f67091860 -->
<g id="node5" class="node">
<title>f3a4b683&#45;ed21&#45;48df&#45;bd37&#45;293f67091860</title>
<polygon fill="#7fffd4" stroke="#7fffd4" points="1132.7774,-203.4019 1038.9074,-203.4019 1038.9074,-162.1981 1132.7774,-162.1981 1132.7774,-203.4019"/>
<text text-anchor="middle" x="1085.8424" y="-187" font-family="Times,serif" font-size="14.00" fill="#000000">@PerActivity</text>
<text text-anchor="middle" x="1085.8424" y="-170.2" font-family="Times,serif" font-size="14.00" fill="#000000">Navigator</text>
</g>
<!-- d2205037&#45;b44a&#45;40f8&#45;82c6&#45;3dca103e1ce0&#45;&gt;f3a4b683&#45;ed21&#45;48df&#45;bd37&#45;293f67091860 -->
<g id="edge3" class="edge">
<title>d2205037&#45;b44a&#45;40f8&#45;82c6&#45;3dca103e1ce0&#45;&gt;f3a4b683&#45;ed21&#45;48df&#45;bd37&#45;293f67091860</title>
<path fill="none" stroke="#000000" d="M164.713,-200.3797C355.3936,-196.7406 858.4083,-187.1406 1028.6128,-183.8922"/>
<polygon fill="#000000" stroke="#000000" points="1028.9286,-187.3869 1038.86,-183.6967 1028.795,-180.3882 1028.9286,-187.3869"/>
</g>
<!-- 902613c6&#45;73eb&#45;43ad&#45;9f03&#45;d4ada67225c3 -->
<g id="node6" class="node">
<title>902613c6&#45;73eb&#45;43ad&#45;9f03&#45;d4ada67225c3</title>
<polygon fill="#40e0d0" stroke="#40e0d0" points="1199.2902,-257.8 972.3946,-257.8 972.3946,-221.8 1199.2902,-221.8 1199.2902,-257.8"/>
<text text-anchor="middle" x="1085.8424" y="-235.6" font-family="Times,serif" font-size="14.00" fill="#000000">DispatchingAndroidInjector&lt;Object&gt;</text>
</g>
<!-- d2205037&#45;b44a&#45;40f8&#45;82c6&#45;3dca103e1ce0&#45;&gt;902613c6&#45;73eb&#45;43ad&#45;9f03&#45;d4ada67225c3 -->
<g id="edge1" class="edge">
<title>d2205037&#45;b44a&#45;40f8&#45;82c6&#45;3dca103e1ce0&#45;&gt;902613c6&#45;73eb&#45;43ad&#45;9f03&#45;d4ada67225c3</title>
<path fill="none" stroke="#000000" d="M164.5365,-211.2292C170.6358,-211.8271 176.7107,-212.3631 182.5842,-212.8 460.6174,-233.4834 787.9075,-238.4617 962.0881,-239.5722"/>
<polygon fill="#000000" stroke="#000000" points="962.2924,-243.0734 972.3134,-239.6341 962.3348,-236.0735 962.2924,-243.0734"/>
</g>
<!-- 3557136f&#45;3c7a&#45;4e9a&#45;9f59&#45;b425305b1223&#45;&gt;f3a4b683&#45;ed21&#45;48df&#45;bd37&#45;293f67091860 -->
<g id="edge4" class="edge">
<title>3557136f&#45;3c7a&#45;4e9a&#45;9f59&#45;b425305b1223&#45;&gt;f3a4b683&#45;ed21&#45;48df&#45;bd37&#45;293f67091860</title>
<path fill="none" stroke="#000000" d="M574.1387,-122.6865C684.1486,-135.6102 920.2197,-163.3431 1028.9189,-176.1128"/>
<polygon fill="#000000" stroke="#000000" points="1028.6919,-179.6101 1039.032,-177.3009 1029.5087,-172.6579 1028.6919,-179.6101"/>
</g>
<!-- 0a648470&#45;389b&#45;4bb2&#45;bfb2&#45;8a160b6f65a3 -->
<g id="node3" class="node">
<title>0a648470&#45;389b&#45;4bb2&#45;bfb2&#45;8a160b6f65a3</title>
<polygon fill="#ff7f50" stroke="#ff7f50" points="140.9963,-82.4019 39.5879,-82.4019 39.5879,-41.1981 140.9963,-41.1981 140.9963,-82.4019"/>
<text text-anchor="middle" x="90.2921" y="-66" font-family="Times,serif" font-size="14.00" fill="#000000">@PerFragment</text>
<text text-anchor="middle" x="90.2921" y="-49.2" font-family="Times,serif" font-size="14.00" fill="#000000">Fragment</text>
</g>
<!-- e9c7e056&#45;0ad5&#45;491c&#45;837a&#45;aa35bc6ad2bc -->
<g id="node4" class="node">
<title>e9c7e056&#45;0ad5&#45;491c&#45;837a&#45;aa35bc6ad2bc</title>
<polygon fill="#40e0d0" stroke="#40e0d0" points="621.2188,-79.8 453.0732,-79.8 409.8181,-43.8 577.9637,-43.8 621.2188,-79.8"/>
<text text-anchor="middle" x="515.5185" y="-57.6" font-family="Times,serif" font-size="14.00" fill="#000000">FinishFragment</text>
</g>
<!-- 0a648470&#45;389b&#45;4bb2&#45;bfb2&#45;8a160b6f65a3&#45;&gt;e9c7e056&#45;0ad5&#45;491c&#45;837a&#45;aa35bc6ad2bc -->
<g id="edge5" class="edge">
<title>0a648470&#45;389b&#45;4bb2&#45;bfb2&#45;8a160b6f65a3&#45;&gt;e9c7e056&#45;0ad5&#45;491c&#45;837a&#45;aa35bc6ad2bc</title>
<path fill="none" stroke="#000000" stroke-dasharray="1,5" d="M141.162,-61.8C210.1845,-61.8 334.7858,-61.8 421.1776,-61.8"/>
<polygon fill="#000000" stroke="#000000" points="421.2539,-65.3001 431.2538,-61.8 421.2538,-58.3001 421.2539,-65.3001"/>
<text text-anchor="middle" x="208.6263" y="-66" font-family="Times,serif" font-size="14.00" fill="#000000">delegates</text>
</g>
</g>
</svg>
