<svg width="1734px" height="207px"
 viewBox="0.00 0.00 1733.83 206.60" xmlns="http://www.w3.org/2000/svg" xmlns:xlink="http://www.w3.org/1999/xlink">
<g id="graph0" class="graph" transform="scale(1.0 1.0) rotate(0) translate(14.4 192.2)">
<title>org.owntracks.android.ui.welcome.StatusActivityModule</title>
<polygon fill="#ffffff" stroke="transparent" points="-14.4,14.4 -14.4,-192.2 1719.4266,-192.2 1719.4266,14.4 -14.4,14.4"/>
<text text-anchor="middle" x="69.8282" y="-8.2" font-family="Times,serif" font-size="14.00" fill="#000000">StatusActivityModule</text>
<g id="clust2" class="cluster">
<title>cluster_Dependency Graph</title>
<polygon fill="none" stroke="#000000" points="8,-32.8 8,-169.8 1697.0266,-169.8 1697.0266,-32.8 8,-32.8"/>
<text text-anchor="middle" x="70.2234" y="-153.2" font-family="Times,serif" font-size="14.00" fill="#000000">Dependency Graph</text>
</g>
<!-- 5e08322a&#45;2665&#45;4e36&#45;9536&#45;c3b47c447b30 -->
<g id="node1" class="node">
<title>5e08322a&#45;2665&#45;4e36&#45;9536&#45;c3b47c447b30</title>
<polygon fill="#7fffd4" stroke="#7fffd4" points="1287.7639,-136.4019 1157.1179,-136.4019 1157.1179,-95.1981 1287.7639,-95.1981 1287.7639,-136.4019"/>
<text text-anchor="middle" x="1222.4409" y="-120" font-family="Times,serif" font-size="14.00" fill="#000000">@PerActivity</text>
<text text-anchor="middle" x="1222.4409" y="-103.2" font-family="Times,serif" font-size="14.00" fill="#000000">AppCompatActivity</text>
</g>
<!-- b57ee78b&#45;be9c&#45;4ce5&#45;b98c&#45;a7c8b8acf77f -->
<g id="node2" class="node">
<title>b57ee78b&#45;be9c&#45;4ce5&#45;b98c&#45;a7c8b8acf77f</title>
<polygon fill="#ff3030" stroke="#ff3030" points="1689.1969,-133.8 1413.5161,-133.8 1413.5161,-97.8 1689.1969,-97.8 1689.1969,-133.8"/>
<text text-anchor="middle" x="1551.3565" y="-111.6" font-family="Times,serif" font-size="14.00" fill="#000000">org.owntracks.android.ui.status.StatusActivity</text>
</g>
<!-- 5e08322a&#45;2665&#45;4e36&#45;9536&#45;c3b47c447b30&#45;&gt;b57ee78b&#45;be9c&#45;4ce5&#45;b98c&#45;a7c8b8acf77f -->
<g id="edge2" class="edge">
<title>5e08322a&#45;2665&#45;4e36&#45;9536&#45;c3b47c447b30&#45;&gt;b57ee78b&#45;be9c&#45;4ce5&#45;b98c&#45;a7c8b8acf77f</title>
<path fill="none" stroke="#000000" stroke-dasharray="5,2" d="M1287.8173,-115.8C1320.9777,-115.8 1362.7066,-115.8 1403.1166,-115.8"/>
<polygon fill="#000000" stroke="#000000" points="1403.3559,-119.3001 1413.3558,-115.8 1403.3558,-112.3001 1403.3559,-119.3001"/>
<text text-anchor="middle" x="1350.6443" y="-120" font-family="Times,serif" font-size="14.00" fill="#000000">delegates</text>
<text text-anchor="middle" x="1367.6577" y="-103.2" font-family="Times,serif" font-size="14.00" fill="#000000">Missing binding</text>
</g>
<!-- 4b235f90&#45;be0d&#45;4c68&#45;9f58&#45;61aa39d7971d -->
<g id="node3" class="node">
<title>4b235f90&#45;be0d&#45;4c68&#45;9f58&#45;61aa39d7971d</title>
<polygon fill="#40e0d0" stroke="#40e0d0" points="295.1383,-87.8 15.9539,-87.8 15.9539,-51.8 295.1383,-51.8 295.1383,-87.8"/>
<text text-anchor="middle" x="155.5461" y="-65.6" font-family="Times,serif" font-size="14.00" fill="#000000">StatusMvvm.ViewModel&lt;StatusMvvm.View&gt;</text>
</g>
<!-- 0ba7886c&#45;76f3&#45;40ec&#45;82fa&#45;0631e6864421 -->
<g id="node4" class="node">
<title>0ba7886c&#45;76f3&#45;40ec&#45;82fa&#45;0631e6864421</title>
<polygon fill="#7fffd4" stroke="#7fffd4" points="538.3132,-90.4019 421.1308,-90.4019 421.1308,-49.1981 538.3132,-49.1981 538.3132,-90.4019"/>
<text text-anchor="middle" x="479.722" y="-74" font-family="Times,serif" font-size="14.00" fill="#000000">@PerActivity</text>
<text text-anchor="middle" x="479.722" y="-57.2" font-family="Times,serif" font-size="14.00" fill="#000000">StatusViewModel</text>
</g>
<!-- 4b235f90&#45;be0d&#45;4c68&#45;9f58&#45;61aa39d7971d&#45;&gt;0ba7886c&#45;76f3&#45;40ec&#45;82fa&#45;0631e6864421 -->
<g id="edge3" class="edge">
<title>4b235f90&#45;be0d&#45;4c68&#45;9f58&#45;61aa39d7971d&#45;&gt;0ba7886c&#45;76f3&#45;40ec&#45;82fa&#45;0631e6864421</title>
<path fill="none" stroke="#000000" stroke-dasharray="1,5" d="M295.378,-69.8C335.2895,-69.8 377.0362,-69.8 410.6895,-69.8"/>
<polygon fill="#000000" stroke="#000000" points="410.8628,-73.3001 420.8628,-69.8 410.8627,-66.3001 410.8628,-73.3001"/>
<text text-anchor="middle" x="358.1343" y="-74" font-family="Times,serif" font-size="14.00" fill="#000000">delegates</text>
</g>
<!-- 3fb47644&#45;8b87&#45;4b2b&#45;bbe1&#45;880362a8083a -->
<g id="node5" class="node">
<title>3fb47644&#45;8b87&#45;4b2b&#45;bbe1&#45;880362a8083a</title>
<polygon fill="#ff3030" stroke="#ff3030" points="1082.2856,-76.8 613.2616,-76.8 613.2616,-40.8 1082.2856,-40.8 1082.2856,-76.8"/>
<text text-anchor="middle" x="847.7736" y="-54.6" font-family="Times,serif" font-size="14.00" fill="#000000">@org.owntracks.android.injection.qualifier.AppContext android.content.Context</text>
</g>
<!-- 0ba7886c&#45;76f3&#45;40ec&#45;82fa&#45;0631e6864421&#45;&gt;3fb47644&#45;8b87&#45;4b2b&#45;bbe1&#45;880362a8083a -->
<g id="edge5" class="edge">
<title>0ba7886c&#45;76f3&#45;40ec&#45;82fa&#45;0631e6864421&#45;&gt;3fb47644&#45;8b87&#45;4b2b&#45;bbe1&#45;880362a8083a</title>
<path fill="none" stroke="#000000" stroke-dasharray="5,2" d="M538.4478,-68.0449C557.1828,-67.4849 579.2173,-66.8264 602.7526,-66.123"/>
<polygon fill="#000000" stroke="#000000" points="603.0349,-69.6162 612.9258,-65.8189 602.8257,-62.6193 603.0349,-69.6162"/>
<text text-anchor="middle" x="567.2277" y="-70.0189" font-family="Times,serif" font-size="14.00" fill="#000000">Missing binding</text>
</g>
<!-- 06bfc643&#45;c2fb&#45;42f5&#45;9a21&#45;3f950ea247de -->
<g id="node6" class="node">
<title>06bfc643&#45;c2fb&#45;42f5&#45;9a21&#45;3f950ea247de</title>
<polygon fill="#7fffd4" stroke="#7fffd4" points="894.7086,-136.4019 800.8386,-136.4019 800.8386,-95.1981 894.7086,-95.1981 894.7086,-136.4019"/>
<text text-anchor="middle" x="847.7736" y="-120" font-family="Times,serif" font-size="14.00" fill="#000000">@PerActivity</text>
<text text-anchor="middle" x="847.7736" y="-103.2" font-family="Times,serif" font-size="14.00" fill="#000000">Navigator</text>
</g>
<!-- 0ba7886c&#45;76f3&#45;40ec&#45;82fa&#45;0631e6864421&#45;&gt;06bfc643&#45;c2fb&#45;42f5&#45;9a21&#45;3f950ea247de -->
<g id="edge4" class="edge">
<title>0ba7886c&#45;76f3&#45;40ec&#45;82fa&#45;0631e6864421&#45;&gt;06bfc643&#45;c2fb&#45;42f5&#45;9a21&#45;3f950ea247de</title>
<path fill="none" stroke="#000000" d="M538.4478,-77.1397C607.7497,-85.8012 722.2007,-100.1056 790.7521,-108.6733"/>
<polygon fill="#000000" stroke="#000000" points="790.5772,-112.1786 800.9341,-109.9459 791.4454,-105.2326 790.5772,-112.1786"/>
</g>
<!-- 06bfc643&#45;c2fb&#45;42f5&#45;9a21&#45;3f950ea247de&#45;&gt;5e08322a&#45;2665&#45;4e36&#45;9536&#45;c3b47c447b30 -->
<g id="edge1" class="edge">
<title>06bfc643&#45;c2fb&#45;42f5&#45;9a21&#45;3f950ea247de&#45;&gt;5e08322a&#45;2665&#45;4e36&#45;9536&#45;c3b47c447b30</title>
<path fill="none" stroke="#000000" d="M894.8461,-115.8C958.1044,-115.8 1071.2896,-115.8 1146.6315,-115.8"/>
<polygon fill="#000000" stroke="#000000" points="1147.0023,-119.3001 1157.0023,-115.8 1147.0022,-112.3001 1147.0023,-119.3001"/>
</g>
</g>
</svg>
