<svg width="1159px" height="255px"
 viewBox="0.00 0.00 1159.19 254.60" xmlns="http://www.w3.org/2000/svg" xmlns:xlink="http://www.w3.org/1999/xlink">
<g id="graph0" class="graph" transform="scale(1.0 1.0) rotate(0) translate(14.4 240.2)">
<title>org.owntracks.android.data.repos.ObjectboxWaypointsModule</title>
<polygon fill="#ffffff" stroke="transparent" points="-14.4,14.4 -14.4,-240.2 1144.7872,-240.2 1144.7872,14.4 -14.4,14.4"/>
<text text-anchor="middle" x="89.2609" y="-8.2" font-family="Times,serif" font-size="14.00" fill="#000000">ObjectboxWaypointsModule</text>
<g id="clust2" class="cluster">
<title>cluster_Dependency Graph</title>
<polygon fill="none" stroke="#000000" points="8,-32.8 8,-217.8 1122.3872,-217.8 1122.3872,-32.8 8,-32.8"/>
<text text-anchor="middle" x="70.2234" y="-201.2" font-family="Times,serif" font-size="14.00" fill="#000000">Dependency Graph</text>
</g>
<!-- 54e0069b&#45;5033&#45;49f8&#45;8d4b&#45;161512e96f8c -->
<g id="node1" class="node">
<title>54e0069b&#45;5033&#45;49f8&#45;8d4b&#45;161512e96f8c</title>
<polygon fill="#40e0d0" stroke="#40e0d0" points="122.3095,-130.8 15.8967,-130.8 15.8967,-94.8 122.3095,-94.8 122.3095,-130.8"/>
<text text-anchor="middle" x="69.1031" y="-108.6" font-family="Times,serif" font-size="14.00" fill="#000000">WaypointsRepo</text>
</g>
<!-- 0c56cae5&#45;f049&#45;46ba&#45;ac78&#45;f4d210745bc6 -->
<g id="node2" class="node">
<title>0c56cae5&#45;f049&#45;46ba&#45;ac78&#45;f4d210745bc6</title>
<polygon fill="#7fffd4" stroke="#7fffd4" points="412.5759,-133.4019 248.5281,-133.4019 248.5281,-92.1981 412.5759,-92.1981 412.5759,-133.4019"/>
<text text-anchor="middle" x="330.552" y="-117" font-family="Times,serif" font-size="14.00" fill="#000000">@Singleton</text>
<text text-anchor="middle" x="330.552" y="-100.2" font-family="Times,serif" font-size="14.00" fill="#000000">ObjectboxWaypointsRepo</text>
</g>
<!-- 54e0069b&#45;5033&#45;49f8&#45;8d4b&#45;161512e96f8c&#45;&gt;0c56cae5&#45;f049&#45;46ba&#45;ac78&#45;f4d210745bc6 -->
<g id="edge1" class="edge">
<title>54e0069b&#45;5033&#45;49f8&#45;8d4b&#45;161512e96f8c&#45;&gt;0c56cae5&#45;f049&#45;46ba&#45;ac78&#45;f4d210745bc6</title>
<path fill="none" stroke="#000000" stroke-dasharray="1,5" d="M122.3263,-112.8C155.5626,-112.8 199.2596,-112.8 238.0383,-112.8"/>
<polygon fill="#000000" stroke="#000000" points="238.3055,-116.3001 248.3055,-112.8 238.3055,-109.3001 238.3055,-116.3001"/>
<text text-anchor="middle" x="185.2483" y="-117" font-family="Times,serif" font-size="14.00" fill="#000000">delegates</text>
</g>
<!-- 0600637d&#45;743e&#45;4c1d&#45;a369&#45;70e7767e0af5 -->
<g id="node3" class="node">
<title>0600637d&#45;743e&#45;4c1d&#45;a369&#45;70e7767e0af5</title>
<polygon fill="#ff3030" stroke="#ff3030" points="1114.3932,-76.8 645.3692,-76.8 645.3692,-40.8 1114.3932,-40.8 1114.3932,-76.8"/>
<text text-anchor="middle" x="879.8812" y="-54.6" font-family="Times,serif" font-size="14.00" fill="#000000">@org.owntracks.android.injection.qualifier.AppContext android.content.Context</text>
</g>
<!-- 0c56cae5&#45;f049&#45;46ba&#45;ac78&#45;f4d210745bc6&#45;&gt;0600637d&#45;743e&#45;4c1d&#45;a369&#45;70e7767e0af5 -->
<g id="edge3" class="edge">
<title>0c56cae5&#45;f049&#45;46ba&#45;ac78&#45;f4d210745bc6&#45;&gt;0600637d&#45;743e&#45;4c1d&#45;a369&#45;70e7767e0af5</title>
<path fill="none" stroke="#000000" stroke-dasharray="5,2" d="M360.5773,-92.0563C383.9459,-77.9367 417.7715,-61.8 450.3136,-61.8 450.3136,-61.8 450.3136,-61.8 607.8752,-61.8 616.8057,-61.8 625.9011,-61.7836 635.0882,-61.7533"/>
<polygon fill="#000000" stroke="#000000" points="635.1033,-65.2534 645.0898,-61.715 635.0764,-58.2534 635.1033,-65.2534"/>
<text text-anchor="middle" x="599.3917" y="-49.115" font-family="Times,serif" font-size="14.00" fill="#000000">Missing binding</text>
</g>
<!-- 7df9eb3c&#45;a84c&#45;485b&#45;8ae5&#45;222d1e9fd168 -->
<g id="node4" class="node">
<title>7df9eb3c&#45;a84c&#45;485b&#45;8ae5&#45;222d1e9fd168</title>
<polygon fill="#ff3030" stroke="#ff3030" points="984.8862,-184.8 774.8762,-184.8 774.8762,-148.8 984.8862,-148.8 984.8862,-184.8"/>
<text text-anchor="middle" x="879.8812" y="-162.6" font-family="Times,serif" font-size="14.00" fill="#000000">org.greenrobot.eventbus.EventBus</text>
</g>
<!-- 0c56cae5&#45;f049&#45;46ba&#45;ac78&#45;f4d210745bc6&#45;&gt;7df9eb3c&#45;a84c&#45;485b&#45;8ae5&#45;222d1e9fd168 -->
<g id="edge4" class="edge">
<title>0c56cae5&#45;f049&#45;46ba&#45;ac78&#45;f4d210745bc6&#45;&gt;7df9eb3c&#45;a84c&#45;485b&#45;8ae5&#45;222d1e9fd168</title>
<path fill="none" stroke="#000000" stroke-dasharray="5,2" d="M363.5302,-133.4149C386.8622,-146.0432 419.3786,-159.8 450.3136,-159.8 450.3136,-159.8 450.3136,-159.8 607.8752,-159.8 659.254,-159.8 716.0736,-161.0635 764.4369,-162.5169"/>
<polygon fill="#000000" stroke="#000000" points="764.521,-166.0211 774.6237,-162.8296 764.7358,-159.0244 764.521,-166.0211"/>
<text text-anchor="middle" x="728.9256" y="-150.2296" font-family="Times,serif" font-size="14.00" fill="#000000">Missing binding</text>
</g>
<!-- ab1ac498&#45;e471&#45;4f64&#45;8ea2&#45;ff61f6074b71 -->
<g id="node5" class="node">
<title>ab1ac498&#45;e471&#45;4f64&#45;8ea2&#45;ff61f6074b71</title>
<polygon fill="#7fffd4" stroke="#7fffd4" points="570.1572,-133.4019 488.0316,-133.4019 488.0316,-92.1981 570.1572,-92.1981 570.1572,-133.4019"/>
<text text-anchor="middle" x="529.0944" y="-117" font-family="Times,serif" font-size="14.00" fill="#000000">@Singleton</text>
<text text-anchor="middle" x="529.0944" y="-100.2" font-family="Times,serif" font-size="14.00" fill="#000000">Preferences</text>
</g>
<!-- 0c56cae5&#45;f049&#45;46ba&#45;ac78&#45;f4d210745bc6&#45;&gt;ab1ac498&#45;e471&#45;4f64&#45;8ea2&#45;ff61f6074b71 -->
<g id="edge2" class="edge">
<title>0c56cae5&#45;f049&#45;46ba&#45;ac78&#45;f4d210745bc6&#45;&gt;ab1ac498&#45;e471&#45;4f64&#45;8ea2&#45;ff61f6074b71</title>
<path fill="none" stroke="#000000" d="M412.74,-112.8C434.8153,-112.8 458.0526,-112.8 477.9068,-112.8"/>
<polygon fill="#000000" stroke="#000000" points="477.9568,-116.3001 487.9568,-112.8 477.9567,-109.3001 477.9568,-116.3001"/>
</g>
<!-- ab1ac498&#45;e471&#45;4f64&#45;8ea2&#45;ff61f6074b71&#45;&gt;0600637d&#45;743e&#45;4c1d&#45;a369&#45;70e7767e0af5 -->
<g id="edge5" class="edge">
<title>ab1ac498&#45;e471&#45;4f64&#45;8ea2&#45;ff61f6074b71&#45;&gt;0600637d&#45;743e&#45;4c1d&#45;a369&#45;70e7767e0af5</title>
<path fill="none" stroke="#000000" stroke-dasharray="5,2" d="M570.3008,-102.0299C592.4327,-96.5505 620.2573,-90.1477 645.3752,-85.8 661.0924,-83.0795 677.4511,-80.5621 693.893,-78.249"/>
<polygon fill="#000000" stroke="#000000" points="694.7086,-81.6697 704.1361,-76.8351 693.7514,-74.7354 694.7086,-81.6697"/>
<text text-anchor="middle" x="658.438" y="-81.0351" font-family="Times,serif" font-size="14.00" fill="#000000">Missing binding</text>
</g>
<!-- ab1ac498&#45;e471&#45;4f64&#45;8ea2&#45;ff61f6074b71&#45;&gt;7df9eb3c&#45;a84c&#45;485b&#45;8ae5&#45;222d1e9fd168 -->
<g id="edge6" class="edge">
<title>ab1ac498&#45;e471&#45;4f64&#45;8ea2&#45;ff61f6074b71&#45;&gt;7df9eb3c&#45;a84c&#45;485b&#45;8ae5&#45;222d1e9fd168</title>
<path fill="none" stroke="#000000" stroke-dasharray="5,2" d="M570.3008,-123.5701C592.4327,-129.0495 620.2573,-135.4523 645.3752,-139.8 684.0194,-146.4889 726.542,-151.95 764.6431,-156.1664"/>
<polygon fill="#000000" stroke="#000000" points="764.4253,-159.6633 774.7456,-157.267 765.1835,-152.7045 764.4253,-159.6633"/>
<text text-anchor="middle" x="729.0475" y="-161.467" font-family="Times,serif" font-size="14.00" fill="#000000">Missing binding</text>
</g>
<!-- bc5ff3db&#45;c925&#45;4022&#45;8a89&#45;8508c0902dc9 -->
<g id="node6" class="node">
<title>bc5ff3db&#45;c925&#45;4022&#45;8a89&#45;8508c0902dc9</title>
<polygon fill="#ff3030" stroke="#ff3030" points="1056.6649,-130.8 703.0975,-130.8 703.0975,-94.8 1056.6649,-94.8 1056.6649,-130.8"/>
<text text-anchor="middle" x="879.8812" y="-108.6" font-family="Times,serif" font-size="14.00" fill="#000000">org.owntracks.android.support.preferences.PreferencesStore</text>
</g>
<!-- ab1ac498&#45;e471&#45;4f64&#45;8ea2&#45;ff61f6074b71&#45;&gt;bc5ff3db&#45;c925&#45;4022&#45;8a89&#45;8508c0902dc9 -->
<g id="edge7" class="edge">
<title>ab1ac498&#45;e471&#45;4f64&#45;8ea2&#45;ff61f6074b71&#45;&gt;bc5ff3db&#45;c925&#45;4022&#45;8a89&#45;8508c0902dc9</title>
<path fill="none" stroke="#000000" stroke-dasharray="5,2" d="M570.3656,-112.8C601.496,-112.8 646.6088,-112.8 692.8071,-112.8"/>
<polygon fill="#000000" stroke="#000000" points="692.989,-116.3001 702.9889,-112.8 692.9889,-109.3001 692.989,-116.3001"/>
<text text-anchor="middle" x="657.2908" y="-100.2" font-family="Times,serif" font-size="14.00" fill="#000000">Missing binding</text>
</g>
</g>
</svg>
