<svg width="2216px" height="288px"
 viewBox="0.00 0.00 2215.76 287.60" xmlns="http://www.w3.org/2000/svg" xmlns:xlink="http://www.w3.org/1999/xlink">
<g id="graph0" class="graph" transform="scale(1.0 1.0) rotate(0) translate(14.4 273.2)">
<title>org.owntracks.android.ui.welcome.WelcomeActivityModule_BindVersionFragment</title>
<polygon fill="#ffffff" stroke="transparent" points="-14.4,14.4 -14.4,-273.2 2201.3554,-273.2 2201.3554,14.4 -14.4,14.4"/>
<text text-anchor="middle" x="145.6354" y="-8.2" font-family="Times,serif" font-size="14.00" fill="#000000">WelcomeActivityModule_BindVersionFragment</text>
<g id="clust4" class="cluster">
<title>cluster_Subcomponents</title>
<polygon fill="none" stroke="#000000" points="1686.221,-137.8 1686.221,-220.8 2178.9554,-220.8 2178.9554,-137.8 1686.221,-137.8"/>
<text text-anchor="middle" x="1738.9398" y="-204.2" font-family="Times,serif" font-size="14.00" fill="#000000">Subcomponents</text>
</g>
<g id="clust2" class="cluster">
<title>cluster_Dependency Graph</title>
<polygon fill="none" stroke="#000000" points="8,-32.8 8,-250.8 1584.566,-250.8 1584.566,-32.8 8,-32.8"/>
<text text-anchor="middle" x="70.2234" y="-234.2" font-family="Times,serif" font-size="14.00" fill="#000000">Dependency Graph</text>
</g>
<g id="clust3" class="cluster">
<title>cluster_Map&lt;Class&lt;?&gt;, AndroidInjector.Factory&lt;?&gt;&gt;</title>
<path fill="none" stroke="#000000" d="M171.0404,-140.8C171.0404,-140.8 1202.2552,-140.8 1202.2552,-140.8 1208.2552,-140.8 1214.2552,-146.8 1214.2552,-152.8 1214.2552,-152.8 1214.2552,-205.8 1214.2552,-205.8 1214.2552,-211.8 1208.2552,-217.8 1202.2552,-217.8 1202.2552,-217.8 171.0404,-217.8 171.0404,-217.8 165.0404,-217.8 159.0404,-211.8 159.0404,-205.8 159.0404,-205.8 159.0404,-152.8 159.0404,-152.8 159.0404,-146.8 165.0404,-140.8 171.0404,-140.8"/>
<text text-anchor="middle" x="686.6478" y="-201.2" font-family="Times,serif" font-size="14.00" fill="#000000">Map&lt;Class&lt;?&gt;, AndroidInjector.Factory&lt;?&gt;&gt;</text>
</g>
<!-- 0231eb54&#45;addf&#45;4c78&#45;b4e3&#45;304acb999e06 -->
<g id="node1" class="node">
<title>0231eb54&#45;addf&#45;4c78&#45;b4e3&#45;304acb999e06</title>
<polygon fill="#40e0d0" stroke="#40e0d0" points="1206.2227,-184.8 744.3527,-184.8 744.3527,-148.8 1206.2227,-148.8 1206.2227,-184.8"/>
<text text-anchor="middle" x="975.2877" y="-162.6" font-family="Times,serif" font-size="14.00" fill="#000000">WelcomeActivityModule_BindVersionFragment.bindAndroidInjectorFactory()</text>
</g>
<!-- c6a65ebf&#45;747d&#45;4327&#45;9bde&#45;243aa9926345 -->
<g id="node2" class="node">
<title>c6a65ebf&#45;747d&#45;4327&#45;9bde&#45;243aa9926345</title>
<polygon fill="#40e0d0" stroke="#40e0d0" points="1576.6794,-195.4014 1332.226,-195.4014 1332.226,-138.1986 1576.6794,-138.1986 1576.6794,-195.4014"/>
<text text-anchor="middle" x="1454.4527" y="-179" font-family="Times,serif" font-size="14.00" fill="#000000">VersionFragmentSubcomponent.Factory</text>
<text text-anchor="middle" x="1454.4527" y="-146.2" font-family="Times,serif" font-size="14.00" fill="#000000">Subcomponent Creator</text>
</g>
<!-- 0231eb54&#45;addf&#45;4c78&#45;b4e3&#45;304acb999e06&#45;&gt;c6a65ebf&#45;747d&#45;4327&#45;9bde&#45;243aa9926345 -->
<g id="edge2" class="edge">
<title>0231eb54&#45;addf&#45;4c78&#45;b4e3&#45;304acb999e06&#45;&gt;c6a65ebf&#45;747d&#45;4327&#45;9bde&#45;243aa9926345</title>
<path fill="none" stroke="#000000" stroke-dasharray="1,5" d="M1206.4489,-166.8C1246.1526,-166.8 1286.165,-166.8 1322.1174,-166.8"/>
<polygon fill="#000000" stroke="#000000" points="1322.1466,-170.3001 1332.1465,-166.8 1322.1465,-163.3001 1322.1466,-170.3001"/>
<text text-anchor="middle" x="1269.2973" y="-171" font-family="Times,serif" font-size="14.00" fill="#000000">delegates</text>
</g>
<!-- 2eac669e&#45;699d&#45;42bf&#45;b099&#45;a8e791bf95e4 -->
<g id="node6" class="node">
<title>2eac669e&#45;699d&#45;42bf&#45;b099&#45;a8e791bf95e4</title>
<g id="a_node6"><a xlink:href="full_org.owntracks.android.ui.welcome.WelcomeActivityModule_BindVersionFragment.VersionFragmentSubcomponent.svg" xlink:title="@PerFragment\nWelcomeActivityModule_BindVersionFragment.VersionFragmentSubcomponent">
<polygon fill="#7fffd4" stroke="#7fffd4" points="2170.8227,-187.4019 1694.3537,-187.4019 1694.3537,-146.1981 2170.8227,-146.1981 2170.8227,-187.4019"/>
<text text-anchor="middle" x="1932.5882" y="-171" font-family="Times,serif" font-size="14.00" fill="#000000">@PerFragment</text>
<text text-anchor="middle" x="1932.5882" y="-154.2" font-family="Times,serif" font-size="14.00" fill="#000000">WelcomeActivityModule_BindVersionFragment.VersionFragmentSubcomponent</text>
</a>
</g>
</g>
<!-- c6a65ebf&#45;747d&#45;4327&#45;9bde&#45;243aa9926345&#45;&gt;2eac669e&#45;699d&#45;42bf&#45;b099&#45;a8e791bf95e4 -->
<g id="edge3" class="edge">
<title>c6a65ebf&#45;747d&#45;4327&#45;9bde&#45;243aa9926345&#45;&gt;2eac669e&#45;699d&#45;42bf&#45;b099&#45;a8e791bf95e4:w</title>
<path fill="none" stroke="#000000" stroke-dasharray="5,2" d="M1576.6157,-166.8C1611.0347,-166.8 1648.7543,-166.8 1684.1723,-166.8"/>
<polygon fill="#000000" stroke="#000000" points="1684.5882,-170.3001 1694.5882,-166.8 1684.5882,-163.3001 1684.5882,-170.3001"/>
<text text-anchor="middle" x="1635.3935" y="-171" font-family="Times,serif" font-size="14.00" fill="#000000">subcomponent</text>
</g>
<!-- 9f9f96ba&#45;9b72&#45;490b&#45;a371&#45;db959f072420 -->
<g id="node3" class="node">
<title>9f9f96ba&#45;9b72&#45;490b&#45;a371&#45;db959f072420</title>
<polygon fill="#ff3030" stroke="#ff3030" points="593.4804,-130.8 15.8398,-130.8 15.8398,-94.8 593.4804,-94.8 593.4804,-130.8"/>
<text text-anchor="middle" x="304.6601" y="-108.6" font-family="Times,serif" font-size="14.00" fill="#000000">java.util.Map&lt;java.lang.String,javax.inject.Provider&lt;dagger.android.AndroidInjector.Factory&lt;?&gt;&gt;&gt;</text>
</g>
<!-- 6fa4a70e&#45;f508&#45;4c19&#45;a668&#45;b1826166c540 -->
<g id="node4" class="node">
<title>6fa4a70e&#45;f508&#45;4c19&#45;a668&#45;b1826166c540</title>
<polygon fill="#ff3030" stroke="#ff3030" points="440.8882,-76.8 168.432,-76.8 168.432,-40.8 440.8882,-40.8 440.8882,-76.8"/>
<text text-anchor="middle" x="304.6601" y="-54.6" font-family="Times,serif" font-size="14.00" fill="#000000">androidx.appcompat.app.AppCompatActivity</text>
</g>
<!-- add3074b&#45;b6f3&#45;4e4d&#45;bada&#45;fbf3065a41d5 -->
<g id="node5" class="node">
<title>add3074b&#45;b6f3&#45;4e4d&#45;bada&#45;fbf3065a41d5</title>
<polygon fill="#40e0d0" stroke="#40e0d0" points="442.3996,-184.8 178.9206,-184.8 178.9206,-188.8 166.9206,-188.8 166.9206,-148.8 442.3996,-148.8 442.3996,-184.8"/>
<polyline fill="none" stroke="#40e0d0" points="166.9206,-184.8 178.9206,-184.8 "/>
<text text-anchor="middle" x="304.6601" y="-162.6" font-family="Times,serif" font-size="14.00" fill="#000000">Map&lt;Class&lt;?&gt;, AndroidInjector.Factory&lt;?&gt;&gt;</text>
</g>
<!-- add3074b&#45;b6f3&#45;4e4d&#45;bada&#45;fbf3065a41d5&#45;&gt;0231eb54&#45;addf&#45;4c78&#45;b4e3&#45;304acb999e06 -->
<g id="edge1" class="edge">
<title>add3074b&#45;b6f3&#45;4e4d&#45;bada&#45;fbf3065a41d5&#45;&gt;0231eb54&#45;addf&#45;4c78&#45;b4e3&#45;304acb999e06</title>
<path fill="none" stroke="#000000" d="M442.3313,-166.8C500.4944,-166.8 568.9574,-166.8 630.8202,-166.8 630.8202,-166.8 630.8202,-166.8 706.8202,-166.8 715.8052,-166.8 724.9593,-166.8 734.2061,-166.8"/>
<polygon fill="#000000" stroke="#000000" points="734.2727,-170.3001 744.2727,-166.8 734.2727,-163.3001 734.2727,-170.3001"/>
</g>
</g>
</svg>
