<svg width="1165px" height="368px"
 viewBox="0.00 0.00 1164.55 367.60" xmlns="http://www.w3.org/2000/svg" xmlns:xlink="http://www.w3.org/1999/xlink">
<g id="graph0" class="graph" transform="scale(1.0 1.0) rotate(0) translate(14.4 353.2)">
<title>org.owntracks.android.injection.modules.AndroidBindingModule → org.owntracks.android.injection.modules.AndroidBindingModule_BindWelcomeActivity.WelcomeActivitySubcomponent → org.owntracks.android.ui.welcome.WelcomeActivityModule_BindIntroFragment.IntroFragmentSubcomponent</title>
<polygon fill="#ffffff" stroke="transparent" points="-14.4,14.4 -14.4,-353.2 1150.1467,-353.2 1150.1467,14.4 -14.4,14.4"/>
<text text-anchor="middle" x="534.4707" y="-8.2" font-family="Times,serif" font-size="14.00" fill="#000000">AndroidBindingModule → AndroidBindingModule_BindWelcomeActivity.WelcomeActivitySubcomponent → WelcomeActivityModule_BindIntroFragment.IntroFragmentSubcomponent</text>
<g id="clust2" class="cluster">
<title>cluster_Dependency Graph</title>
<polygon fill="none" stroke="#000000" points="185.7876,-193.8 185.7876,-330.8 1127.7467,-330.8 1127.7467,-193.8 185.7876,-193.8"/>
<text text-anchor="middle" x="248.011" y="-314.2" font-family="Times,serif" font-size="14.00" fill="#000000">Dependency Graph</text>
</g>
<g id="clust4" class="cluster">
<title>cluster_AndroidBindingModule → AndroidBindingModule_BindWelcomeActivity.WelcomeActivitySubcomponent</title>
<g id="a_clust4"><a xlink:href="full_org.owntracks.android.injection.modules.AndroidBindingModule_BindWelcomeActivity.WelcomeActivitySubcomponent.svg" xlink:title="Inherited from AndroidBindingModule_BindWelcomeActivity.WelcomeActivitySubcomponent\n@PerActivity">
<polygon fill="none" stroke="#7fffd4" stroke-dasharray="5,2" points="339.869,-32.8 339.869,-185.8 895.8168,-185.8 895.8168,-32.8 339.869,-32.8"/>
<text text-anchor="middle" x="617.8429" y="-169.2" font-family="Times,serif" font-size="14.00" fill="#000000">Inherited from AndroidBindingModule_BindWelcomeActivity.WelcomeActivitySubcomponent</text>
<text text-anchor="middle" x="617.8429" y="-152.4" font-family="Times,serif" font-size="14.00" fill="#000000">@PerActivity</text>
</a>
</g>
</g>
<g id="clust1" class="cluster">
<title>cluster_Entry Points</title>
<polygon fill="none" stroke="#000000" points="8,-89.8 8,-166.8 164.7876,-166.8 164.7876,-89.8 8,-89.8"/>
<text text-anchor="middle" x="50.8061" y="-150.2" font-family="Times,serif" font-size="14.00" fill="#000000">Entry Points</text>
</g>
<!-- eb63e2f8&#45;f14e&#45;41bd&#45;8cbd&#45;1e030c7dc2fd -->
<g id="node1" class="node">
<title>eb63e2f8&#45;f14e&#45;41bd&#45;8cbd&#45;1e030c7dc2fd</title>
<polygon fill="#40e0d0" stroke="#40e0d0" stroke-width="2" points="156.6816,-133.8 16.106,-133.8 16.106,-129.8 12.106,-129.8 12.106,-125.8 16.106,-125.8 16.106,-105.8 12.106,-105.8 12.106,-101.8 16.106,-101.8 16.106,-97.8 156.6816,-97.8 156.6816,-133.8"/>
<polyline fill="none" stroke="#40e0d0" stroke-width="2" points="16.106,-129.8 20.106,-129.8 20.106,-125.8 16.106,-125.8 "/>
<polyline fill="none" stroke="#40e0d0" stroke-width="2" points="16.106,-105.8 20.106,-105.8 20.106,-101.8 16.106,-101.8 "/>
<text text-anchor="middle" x="86.3938" y="-111.6" font-family="Times,serif" font-size="14.00" fill="#000000">inject (IntroFragment)</text>
</g>
<!-- 894fc358&#45;fe48&#45;46e2&#45;a5dd&#45;ed36f8038863 -->
<g id="node2" class="node">
<title>894fc358&#45;fe48&#45;46e2&#45;a5dd&#45;ed36f8038863</title>
<polygon fill="#40e0d0" stroke="#40e0d0" points="310.9097,-237.8 193.7469,-237.8 193.7469,-201.8 310.9097,-201.8 310.9097,-237.8"/>
<text text-anchor="middle" x="252.3283" y="-215.6" font-family="Times,serif" font-size="14.00" fill="#000000">NoOpViewModel</text>
</g>
<!-- eb63e2f8&#45;f14e&#45;41bd&#45;8cbd&#45;1e030c7dc2fd&#45;&gt;894fc358&#45;fe48&#45;46e2&#45;a5dd&#45;ed36f8038863 -->
<g id="edge2" class="edge">
<title>eb63e2f8&#45;f14e&#45;41bd&#45;8cbd&#45;1e030c7dc2fd&#45;&gt;894fc358&#45;fe48&#45;46e2&#45;a5dd&#45;ed36f8038863</title>
<path fill="none" stroke="#000000" d="M115.2974,-133.9154C142.9327,-151.236 184.7424,-177.4403 214.9096,-196.3477"/>
<polygon fill="#000000" stroke="#000000" points="213.146,-199.3729 223.478,-201.718 216.8635,-193.4416 213.146,-199.3729"/>
</g>
<!-- 32131005&#45;7126&#45;49a1&#45;a79a&#45;7e6b372ff64a -->
<g id="node5" class="node">
<title>32131005&#45;7126&#45;49a1&#45;a79a&#45;7e6b372ff64a</title>
<polygon fill="#7fffd4" stroke="#7fffd4" points="664.2779,-136.4019 570.4079,-136.4019 570.4079,-95.1981 664.2779,-95.1981 664.2779,-136.4019"/>
<text text-anchor="middle" x="617.3429" y="-120" font-family="Times,serif" font-size="14.00" fill="#000000">@PerActivity</text>
<text text-anchor="middle" x="617.3429" y="-103.2" font-family="Times,serif" font-size="14.00" fill="#000000">Navigator</text>
</g>
<!-- eb63e2f8&#45;f14e&#45;41bd&#45;8cbd&#45;1e030c7dc2fd&#45;&gt;32131005&#45;7126&#45;49a1&#45;a79a&#45;7e6b372ff64a -->
<g id="edge3" class="edge">
<title>eb63e2f8&#45;f14e&#45;41bd&#45;8cbd&#45;1e030c7dc2fd&#45;&gt;32131005&#45;7126&#45;49a1&#45;a79a&#45;7e6b372ff64a</title>
<path fill="none" stroke="#000000" d="M156.8997,-115.8C263.1821,-115.8 462.3821,-115.8 560.1926,-115.8"/>
<polygon fill="#000000" stroke="#000000" points="560.4713,-119.3001 570.4713,-115.8 560.4712,-112.3001 560.4713,-119.3001"/>
</g>
<!-- 05a501dd&#45;2b7d&#45;499c&#45;bc33&#45;03d761363a31 -->
<g id="node6" class="node">
<title>05a501dd&#45;2b7d&#45;499c&#45;bc33&#45;03d761363a31</title>
<polygon fill="#40e0d0" stroke="#40e0d0" points="730.7907,-76.8 503.8951,-76.8 503.8951,-40.8 730.7907,-40.8 730.7907,-76.8"/>
<text text-anchor="middle" x="617.3429" y="-54.6" font-family="Times,serif" font-size="14.00" fill="#000000">DispatchingAndroidInjector&lt;Object&gt;</text>
</g>
<!-- eb63e2f8&#45;f14e&#45;41bd&#45;8cbd&#45;1e030c7dc2fd&#45;&gt;05a501dd&#45;2b7d&#45;499c&#45;bc33&#45;03d761363a31 -->
<g id="edge1" class="edge">
<title>eb63e2f8&#45;f14e&#45;41bd&#45;8cbd&#45;1e030c7dc2fd&#45;&gt;05a501dd&#45;2b7d&#45;499c&#45;bc33&#45;03d761363a31</title>
<path fill="none" stroke="#000000" d="M156.8241,-107.066C207.6628,-100.8587 277.9676,-92.4741 339.869,-85.8 390.1857,-80.3749 445.6897,-74.8772 493.7492,-70.2712"/>
<polygon fill="#000000" stroke="#000000" points="494.2655,-73.7379 503.8871,-69.3022 493.5994,-66.7696 494.2655,-73.7379"/>
</g>
<!-- 894fc358&#45;fe48&#45;46e2&#45;a5dd&#45;ed36f8038863&#45;&gt;32131005&#45;7126&#45;49a1&#45;a79a&#45;7e6b372ff64a -->
<g id="edge4" class="edge">
<title>894fc358&#45;fe48&#45;46e2&#45;a5dd&#45;ed36f8038863&#45;&gt;32131005&#45;7126&#45;49a1&#45;a79a&#45;7e6b372ff64a</title>
<path fill="none" stroke="#000000" d="M303.053,-201.749C315.0707,-197.6581 327.8805,-193.448 339.869,-189.8 415.6861,-166.7294 504.3287,-143.7786 560.6386,-129.6936"/>
<polygon fill="#000000" stroke="#000000" points="561.5657,-133.0697 570.4219,-127.2543 559.8722,-126.2776 561.5657,-133.0697"/>
</g>
<!-- 67805423&#45;be83&#45;4150&#45;ab07&#45;83c02cbd4ee1 -->
<g id="node3" class="node">
<title>67805423&#45;be83&#45;4150&#45;ab07&#45;83c02cbd4ee1</title>
<polygon fill="#ff7f50" stroke="#ff7f50" points="303.0325,-297.4019 201.6241,-297.4019 201.6241,-256.1981 303.0325,-256.1981 303.0325,-297.4019"/>
<text text-anchor="middle" x="252.3283" y="-281" font-family="Times,serif" font-size="14.00" fill="#000000">@PerFragment</text>
<text text-anchor="middle" x="252.3283" y="-264.2" font-family="Times,serif" font-size="14.00" fill="#000000">Fragment</text>
</g>
<!-- f8f427d5&#45;af1b&#45;44a8&#45;9245&#45;685c473dba52 -->
<g id="node4" class="node">
<title>f8f427d5&#45;af1b&#45;44a8&#45;9245&#45;685c473dba52</title>
<polygon fill="#40e0d0" stroke="#40e0d0" points="1119.7117,-294.8 963.9271,-294.8 923.8518,-258.8 1079.6364,-258.8 1119.7117,-294.8"/>
<text text-anchor="middle" x="1021.7818" y="-272.6" font-family="Times,serif" font-size="14.00" fill="#000000">IntroFragment</text>
</g>
<!-- 67805423&#45;be83&#45;4150&#45;ab07&#45;83c02cbd4ee1&#45;&gt;f8f427d5&#45;af1b&#45;44a8&#45;9245&#45;685c473dba52 -->
<g id="edge5" class="edge">
<title>67805423&#45;be83&#45;4150&#45;ab07&#45;83c02cbd4ee1&#45;&gt;f8f427d5&#45;af1b&#45;44a8&#45;9245&#45;685c473dba52</title>
<path fill="none" stroke="#000000" stroke-dasharray="1,5" d="M303.1119,-276.8C431.6917,-276.8 771.3695,-276.8 933.3851,-276.8"/>
<polygon fill="#000000" stroke="#000000" points="933.7958,-280.3001 943.7957,-276.8 933.7957,-273.3001 933.7958,-280.3001"/>
<text text-anchor="middle" x="617.3429" y="-281" font-family="Times,serif" font-size="14.00" fill="#000000">delegates</text>
</g>
</g>
</svg>
