<svg width="2744px" height="562px"
 viewBox="0.00 0.00 2743.72 561.60" xmlns="http://www.w3.org/2000/svg" xmlns:xlink="http://www.w3.org/1999/xlink">
<g id="graph0" class="graph" transform="scale(1.0 1.0) rotate(0) translate(14.4 547.2)">
<title>org.owntracks.android.ui.preferences.PreferencesActivityModule</title>
<polygon fill="#ffffff" stroke="transparent" points="-14.4,14.4 -14.4,-547.2 2729.3234,-547.2 2729.3234,14.4 -14.4,14.4"/>
<text text-anchor="middle" x="85.3577" y="-8.2" font-family="Times,serif" font-size="14.00" fill="#000000">PreferencesActivityModule</text>
<g id="clust2" class="cluster">
<title>cluster_Dependency Graph</title>
<polygon fill="none" stroke="#000000" points="8,-32.8 8,-524.8 1988.9448,-524.8 1988.9448,-32.8 8,-32.8"/>
<text text-anchor="middle" x="70.2234" y="-508.2" font-family="Times,serif" font-size="14.00" fill="#000000">Dependency Graph</text>
</g>
<g id="clust3" class="cluster">
<title>cluster_Map&lt;Class&lt;?&gt;, AndroidInjector.Factory&lt;?&gt;&gt;</title>
<path fill="none" stroke="#000000" d="M116.8863,-252.8C116.8863,-252.8 1583.3016,-252.8 1583.3016,-252.8 1589.3016,-252.8 1595.3016,-258.8 1595.3016,-264.8 1595.3016,-264.8 1595.3016,-479.8 1595.3016,-479.8 1595.3016,-485.8 1589.3016,-491.8 1583.3016,-491.8 1583.3016,-491.8 116.8863,-491.8 116.8863,-491.8 110.8863,-491.8 104.8863,-485.8 104.8863,-479.8 104.8863,-479.8 104.8863,-264.8 104.8863,-264.8 104.8863,-258.8 110.8863,-252.8 116.8863,-252.8"/>
<text text-anchor="middle" x="850.0939" y="-475.2" font-family="Times,serif" font-size="14.00" fill="#000000">Map&lt;Class&lt;?&gt;, AndroidInjector.Factory&lt;?&gt;&gt;</text>
</g>
<g id="clust4" class="cluster">
<title>cluster_Subcomponents</title>
<polygon fill="none" stroke="#000000" points="2090.5998,-233.8 2090.5998,-496.8 2706.9234,-496.8 2706.9234,-233.8 2090.5998,-233.8"/>
<text text-anchor="middle" x="2143.3186" y="-480.2" font-family="Times,serif" font-size="14.00" fill="#000000">Subcomponents</text>
</g>
<!-- 452877c6&#45;d3ba&#45;4740&#45;8c62&#45;d3988a5addea -->
<g id="node1" class="node">
<title>452877c6&#45;d3ba&#45;4740&#45;8c62&#45;d3988a5addea</title>
<polygon fill="#7fffd4" stroke="#7fffd4" points="315.829,-244.4019 185.183,-244.4019 185.183,-203.1981 315.829,-203.1981 315.829,-244.4019"/>
<text text-anchor="middle" x="250.506" y="-228" font-family="Times,serif" font-size="14.00" fill="#000000">@PerActivity</text>
<text text-anchor="middle" x="250.506" y="-211.2" font-family="Times,serif" font-size="14.00" fill="#000000">AppCompatActivity</text>
</g>
<!-- 3d81463b&#45;70ff&#45;4343&#45;b460&#45;676335920cfb -->
<g id="node2" class="node">
<title>3d81463b&#45;70ff&#45;4343&#45;b460&#45;676335920cfb</title>
<polygon fill="#ff3030" stroke="#ff3030" points="950.1166,-241.8 611.0894,-241.8 611.0894,-205.8 950.1166,-205.8 950.1166,-241.8"/>
<text text-anchor="middle" x="780.603" y="-219.6" font-family="Times,serif" font-size="14.00" fill="#000000">org.owntracks.android.ui.preferences.PreferencesActivity</text>
</g>
<!-- 452877c6&#45;d3ba&#45;4740&#45;8c62&#45;d3988a5addea&#45;&gt;3d81463b&#45;70ff&#45;4343&#45;b460&#45;676335920cfb -->
<g id="edge1" class="edge">
<title>452877c6&#45;d3ba&#45;4740&#45;8c62&#45;d3988a5addea&#45;&gt;3d81463b&#45;70ff&#45;4343&#45;b460&#45;676335920cfb</title>
<path fill="none" stroke="#000000" stroke-dasharray="5,2" d="M315.7719,-223.8C386.5387,-223.8 502.5684,-223.8 600.9953,-223.8"/>
<polygon fill="#000000" stroke="#000000" points="601.0715,-227.3001 611.0714,-223.8 601.0714,-220.3001 601.0715,-227.3001"/>
<text text-anchor="middle" x="548.0541" y="-228" font-family="Times,serif" font-size="14.00" fill="#000000">delegates</text>
<text text-anchor="middle" x="565.3733" y="-211.2" font-family="Times,serif" font-size="14.00" fill="#000000">Missing binding</text>
</g>
<!-- 57d72331&#45;cc92&#45;4eaf&#45;8f5e&#45;597cdec9e497 -->
<g id="node3" class="node">
<title>57d72331&#45;cc92&#45;4eaf&#45;8f5e&#45;597cdec9e497</title>
<polygon fill="#40e0d0" stroke="#40e0d0" points="1553.2483,-458.8 1059.1631,-458.8 1059.1631,-422.8 1553.2483,-422.8 1553.2483,-458.8"/>
<text text-anchor="middle" x="1306.2057" y="-436.6" font-family="Times,serif" font-size="14.00" fill="#000000">PreferencesActivityModule_BindPreferencesFragment.bindAndroidInjectorFactory()</text>
</g>
<!-- 20fc0de2&#45;1c9e&#45;4ae8&#45;ac12&#45;dc4f4d17402f -->
<g id="node7" class="node">
<title>20fc0de2&#45;1c9e&#45;4ae8&#45;ac12&#45;dc4f4d17402f</title>
<polygon fill="#40e0d0" stroke="#40e0d0" points="1979.857,-491.4014 1714.4736,-491.4014 1714.4736,-434.1986 1979.857,-434.1986 1979.857,-491.4014"/>
<text text-anchor="middle" x="1847.1653" y="-475" font-family="Times,serif" font-size="14.00" fill="#000000">PreferencesFragmentSubcomponent.Factory</text>
<text text-anchor="middle" x="1847.1653" y="-442.2" font-family="Times,serif" font-size="14.00" fill="#000000">Subcomponent Creator</text>
</g>
<!-- 57d72331&#45;cc92&#45;4eaf&#45;8f5e&#45;597cdec9e497&#45;&gt;20fc0de2&#45;1c9e&#45;4ae8&#45;ac12&#45;dc4f4d17402f -->
<g id="edge6" class="edge">
<title>57d72331&#45;cc92&#45;4eaf&#45;8f5e&#45;597cdec9e497&#45;&gt;20fc0de2&#45;1c9e&#45;4ae8&#45;ac12&#45;dc4f4d17402f</title>
<path fill="none" stroke="#000000" stroke-dasharray="1,5" d="M1553.3349,-450.8504C1605.085,-452.955 1657.9836,-455.1063 1704.3773,-456.993"/>
<polygon fill="#000000" stroke="#000000" points="1704.3477,-460.4946 1714.4817,-457.404 1704.6322,-453.5004 1704.3477,-460.4946"/>
<text text-anchor="middle" x="1650.3437" y="-460" font-family="Times,serif" font-size="14.00" fill="#000000">delegates</text>
</g>
<!-- 507b609c&#45;c648&#45;4796&#45;91ff&#45;f20b9a6f3e5a -->
<g id="node4" class="node">
<title>507b609c&#45;c648&#45;4796&#45;91ff&#45;f20b9a6f3e5a</title>
<polygon fill="#40e0d0" stroke="#40e0d0" points="1581.2413,-404.8 1031.1701,-404.8 1031.1701,-368.8 1581.2413,-368.8 1581.2413,-404.8"/>
<text text-anchor="middle" x="1306.2057" y="-382.6" font-family="Times,serif" font-size="14.00" fill="#000000">PreferencesActivityModule_BindReportingPreferencesFragment.bindAndroidInjectorFactory()</text>
</g>
<!-- c7505541&#45;cf11&#45;47e0&#45;bf05&#45;d9bdcc8ddc45 -->
<g id="node8" class="node">
<title>c7505541&#45;cf11&#45;47e0&#45;bf05&#45;d9bdcc8ddc45</title>
<polygon fill="#40e0d0" stroke="#40e0d0" points="1975.0679,-415.4014 1719.2627,-415.4014 1719.2627,-358.1986 1975.0679,-358.1986 1975.0679,-415.4014"/>
<text text-anchor="middle" x="1847.1653" y="-399" font-family="Times,serif" font-size="14.00" fill="#000000">ReportingFragmentSubcomponent.Factory</text>
<text text-anchor="middle" x="1847.1653" y="-366.2" font-family="Times,serif" font-size="14.00" fill="#000000">Subcomponent Creator</text>
</g>
<!-- 507b609c&#45;c648&#45;4796&#45;91ff&#45;f20b9a6f3e5a&#45;&gt;c7505541&#45;cf11&#45;47e0&#45;bf05&#45;d9bdcc8ddc45 -->
<g id="edge7" class="edge">
<title>507b609c&#45;c648&#45;4796&#45;91ff&#45;f20b9a6f3e5a&#45;&gt;c7505541&#45;cf11&#45;47e0&#45;bf05&#45;d9bdcc8ddc45</title>
<path fill="none" stroke="#000000" stroke-dasharray="1,5" d="M1581.4398,-386.8C1625.6457,-386.8 1669.6822,-386.8 1708.8242,-386.8"/>
<polygon fill="#000000" stroke="#000000" points="1709.197,-390.3001 1719.197,-386.8 1709.197,-383.3001 1709.197,-390.3001"/>
<text text-anchor="middle" x="1650.3437" y="-391" font-family="Times,serif" font-size="14.00" fill="#000000">delegates</text>
</g>
<!-- e8c2c14f&#45;b6f4&#45;4b55&#45;b5c3&#45;82da2cd44d36 -->
<g id="node5" class="node">
<title>e8c2c14f&#45;b6f4&#45;4b55&#45;b5c3&#45;82da2cd44d36</title>
<polygon fill="#40e0d0" stroke="#40e0d0" points="1587.3975,-350.8 1025.0139,-350.8 1025.0139,-314.8 1587.3975,-314.8 1587.3975,-350.8"/>
<text text-anchor="middle" x="1306.2057" y="-328.6" font-family="Times,serif" font-size="14.00" fill="#000000">PreferencesActivityModule_BindNotificationPreferencesFragment.bindAndroidInjectorFactory()</text>
</g>
<!-- c614872e&#45;3d32&#45;4f53&#45;bf90&#45;1b1f31ef660a -->
<g id="node9" class="node">
<title>c614872e&#45;3d32&#45;4f53&#45;bf90&#45;1b1f31ef660a</title>
<polygon fill="#40e0d0" stroke="#40e0d0" points="1980.7247,-339.4014 1713.6059,-339.4014 1713.6059,-282.1986 1980.7247,-282.1986 1980.7247,-339.4014"/>
<text text-anchor="middle" x="1847.1653" y="-323" font-family="Times,serif" font-size="14.00" fill="#000000">NotificationFragmentSubcomponent.Factory</text>
<text text-anchor="middle" x="1847.1653" y="-290.2" font-family="Times,serif" font-size="14.00" fill="#000000">Subcomponent Creator</text>
</g>
<!-- e8c2c14f&#45;b6f4&#45;4b55&#45;b5c3&#45;82da2cd44d36&#45;&gt;c614872e&#45;3d32&#45;4f53&#45;bf90&#45;1b1f31ef660a -->
<g id="edge8" class="edge">
<title>e8c2c14f&#45;b6f4&#45;4b55&#45;b5c3&#45;82da2cd44d36&#45;&gt;c614872e&#45;3d32&#45;4f53&#45;bf90&#45;1b1f31ef660a</title>
<path fill="none" stroke="#000000" stroke-dasharray="1,5" d="M1587.3807,-321.365C1627.5505,-319.7314 1667.4053,-318.1106 1703.3937,-316.647"/>
<polygon fill="#000000" stroke="#000000" points="1703.5893,-320.142 1713.4388,-316.2385 1703.3048,-313.1478 1703.5893,-320.142"/>
<text text-anchor="middle" x="1650.3437" y="-323" font-family="Times,serif" font-size="14.00" fill="#000000">delegates</text>
</g>
<!-- 34d48532&#45;f0ad&#45;4466&#45;bf0a&#45;46aaf2c0f5ef -->
<g id="node6" class="node">
<title>34d48532&#45;f0ad&#45;4466&#45;bf0a&#45;46aaf2c0f5ef</title>
<polygon fill="#40e0d0" stroke="#40e0d0" points="1581.9986,-296.8 1030.4128,-296.8 1030.4128,-260.8 1581.9986,-260.8 1581.9986,-296.8"/>
<text text-anchor="middle" x="1306.2057" y="-274.6" font-family="Times,serif" font-size="14.00" fill="#000000">PreferencesActivityModule_BindAdvancedPreferencesFragment.bindAndroidInjectorFactory()</text>
</g>
<!-- eaf5aa7f&#45;6d83&#45;4126&#45;bb1b&#45;c468353e7239 -->
<g id="node10" class="node">
<title>eaf5aa7f&#45;6d83&#45;4126&#45;bb1b&#45;c468353e7239</title>
<polygon fill="#40e0d0" stroke="#40e0d0" points="1975.3255,-263.4014 1719.0051,-263.4014 1719.0051,-206.1986 1975.3255,-206.1986 1975.3255,-263.4014"/>
<text text-anchor="middle" x="1847.1653" y="-247" font-family="Times,serif" font-size="14.00" fill="#000000">AdvancedFragmentSubcomponent.Factory</text>
<text text-anchor="middle" x="1847.1653" y="-214.2" font-family="Times,serif" font-size="14.00" fill="#000000">Subcomponent Creator</text>
</g>
<!-- 34d48532&#45;f0ad&#45;4466&#45;bf0a&#45;46aaf2c0f5ef&#45;&gt;eaf5aa7f&#45;6d83&#45;4126&#45;bb1b&#45;c468353e7239 -->
<g id="edge9" class="edge">
<title>34d48532&#45;f0ad&#45;4466&#45;bf0a&#45;46aaf2c0f5ef&#45;&gt;eaf5aa7f&#45;6d83&#45;4126&#45;bb1b&#45;c468353e7239</title>
<path fill="none" stroke="#000000" stroke-dasharray="1,5" d="M1527.7955,-260.7766C1589.0508,-255.7942 1653.7665,-250.5305 1708.8065,-246.0537"/>
<polygon fill="#000000" stroke="#000000" points="1709.2848,-249.5264 1718.9681,-245.2272 1708.7172,-242.5495 1709.2848,-249.5264"/>
<text text-anchor="middle" x="1650.3437" y="-256" font-family="Times,serif" font-size="14.00" fill="#000000">delegates</text>
</g>
<!-- 0c6ea95b&#45;8075&#45;410e&#45;a4ff&#45;9642b55239c8 -->
<g id="node15" class="node">
<title>0c6ea95b&#45;8075&#45;410e&#45;a4ff&#45;9642b55239c8</title>
<g id="a_node15"><a xlink:href="full_org.owntracks.android.ui.preferences.PreferencesActivityModule_BindPreferencesFragment.PreferencesFragmentSubcomponent.svg" xlink:title="@PerFragment\nPreferencesActivityModule_BindPreferencesFragment.PreferencesFragmentSubcomponent">
<polygon fill="#ffe4c4" stroke="#ffe4c4" points="2664.0685,-463.4019 2133.4547,-463.4019 2133.4547,-422.1981 2664.0685,-422.1981 2664.0685,-463.4019"/>
<text text-anchor="middle" x="2398.7616" y="-447" font-family="Times,serif" font-size="14.00" fill="#000000">@PerFragment</text>
<text text-anchor="middle" x="2398.7616" y="-430.2" font-family="Times,serif" font-size="14.00" fill="#000000">PreferencesActivityModule_BindPreferencesFragment.PreferencesFragmentSubcomponent</text>
</a>
</g>
</g>
<!-- 20fc0de2&#45;1c9e&#45;4ae8&#45;ac12&#45;dc4f4d17402f&#45;&gt;0c6ea95b&#45;8075&#45;410e&#45;a4ff&#45;9642b55239c8 -->
<g id="edge10" class="edge">
<title>20fc0de2&#45;1c9e&#45;4ae8&#45;ac12&#45;dc4f4d17402f&#45;&gt;0c6ea95b&#45;8075&#45;410e&#45;a4ff&#45;9642b55239c8:w</title>
<path fill="none" stroke="#000000" stroke-dasharray="5,2" d="M1980.0886,-449.6549C2025.2129,-446.1472 2076.2237,-443.2143 2123.69,-442.8403"/>
<polygon fill="#000000" stroke="#000000" points="2123.7757,-446.3401 2133.7616,-442.8 2123.7477,-439.3401 2123.7757,-446.3401"/>
<text text-anchor="middle" x="2039.7723" y="-452" font-family="Times,serif" font-size="14.00" fill="#000000">subcomponent</text>
</g>
<!-- 32edeb7b&#45;0709&#45;4305&#45;9af6&#45;c584cc4178d0 -->
<g id="node16" class="node">
<title>32edeb7b&#45;0709&#45;4305&#45;9af6&#45;c584cc4178d0</title>
<g id="a_node16"><a xlink:href="full_org.owntracks.android.ui.preferences.PreferencesActivityModule_BindReportingPreferencesFragment.ReportingFragmentSubcomponent.svg" xlink:title="@PerFragment\nPreferencesActivityModule_BindReportingPreferencesFragment.ReportingFragmentSubcomponent">
<polygon fill="#ffe4c4" stroke="#ffe4c4" points="2687.2724,-403.4019 2110.2508,-403.4019 2110.2508,-362.1981 2687.2724,-362.1981 2687.2724,-403.4019"/>
<text text-anchor="middle" x="2398.7616" y="-387" font-family="Times,serif" font-size="14.00" fill="#000000">@PerFragment</text>
<text text-anchor="middle" x="2398.7616" y="-370.2" font-family="Times,serif" font-size="14.00" fill="#000000">PreferencesActivityModule_BindReportingPreferencesFragment.ReportingFragmentSubcomponent</text>
</a>
</g>
</g>
<!-- c7505541&#45;cf11&#45;47e0&#45;bf05&#45;d9bdcc8ddc45&#45;&gt;32edeb7b&#45;0709&#45;4305&#45;9af6&#45;c584cc4178d0 -->
<g id="edge11" class="edge">
<title>c7505541&#45;cf11&#45;47e0&#45;bf05&#45;d9bdcc8ddc45&#45;&gt;32edeb7b&#45;0709&#45;4305&#45;9af6&#45;c584cc4178d0:w</title>
<path fill="none" stroke="#000000" stroke-dasharray="5,2" d="M1975.3802,-384.0656C2014.8645,-383.4161 2058.7275,-382.8865 2099.6919,-382.8096"/>
<polygon fill="#000000" stroke="#000000" points="2099.765,-386.3096 2109.7616,-382.8 2099.7582,-379.3096 2099.765,-386.3096"/>
<text text-anchor="middle" x="2039.7723" y="-387" font-family="Times,serif" font-size="14.00" fill="#000000">subcomponent</text>
</g>
<!-- 96aa17a4&#45;f14e&#45;4ada&#45;af87&#45;2b0816a587ec -->
<g id="node17" class="node">
<title>96aa17a4&#45;f14e&#45;4ada&#45;af87&#45;2b0816a587ec</title>
<g id="a_node17"><a xlink:href="full_org.owntracks.android.ui.preferences.PreferencesActivityModule_BindNotificationPreferencesFragment.NotificationFragmentSubcomponent.svg" xlink:title="@PerFragment\nPreferencesActivityModule_BindNotificationPreferencesFragment.NotificationFragmentSubcomponent">
<polygon fill="#ffe4c4" stroke="#ffe4c4" points="2699.0853,-343.4019 2098.4379,-343.4019 2098.4379,-302.1981 2699.0853,-302.1981 2699.0853,-343.4019"/>
<text text-anchor="middle" x="2398.7616" y="-327" font-family="Times,serif" font-size="14.00" fill="#000000">@PerFragment</text>
<text text-anchor="middle" x="2398.7616" y="-310.2" font-family="Times,serif" font-size="14.00" fill="#000000">PreferencesActivityModule_BindNotificationPreferencesFragment.NotificationFragmentSubcomponent</text>
</a>
</g>
</g>
<!-- c614872e&#45;3d32&#45;4f53&#45;bf90&#45;1b1f31ef660a&#45;&gt;96aa17a4&#45;f14e&#45;4ada&#45;af87&#45;2b0816a587ec -->
<g id="edge12" class="edge">
<title>c614872e&#45;3d32&#45;4f53&#45;bf90&#45;1b1f31ef660a&#45;&gt;96aa17a4&#45;f14e&#45;4ada&#45;af87&#45;2b0816a587ec:w</title>
<path fill="none" stroke="#000000" stroke-dasharray="5,2" d="M1980.9453,-319.5526C2015.5798,-321.2323 2053.0691,-322.5445 2088.3749,-322.7667"/>
<polygon fill="#000000" stroke="#000000" points="2088.7504,-326.2679 2098.7616,-322.8 2088.7729,-319.2679 2088.7504,-326.2679"/>
<text text-anchor="middle" x="2039.7723" y="-326" font-family="Times,serif" font-size="14.00" fill="#000000">subcomponent</text>
</g>
<!-- ddc256e6&#45;7a91&#45;41e9&#45;8775&#45;3404375df644 -->
<g id="node18" class="node">
<title>ddc256e6&#45;7a91&#45;41e9&#45;8775&#45;3404375df644</title>
<g id="a_node18"><a xlink:href="full_org.owntracks.android.ui.preferences.PreferencesActivityModule_BindAdvancedPreferencesFragment.AdvancedFragmentSubcomponent.svg" xlink:title="@PerFragment\nPreferencesActivityModule_BindAdvancedPreferencesFragment.AdvancedFragmentSubcomponent">
<polygon fill="#ffe4c4" stroke="#ffe4c4" points="2687.7874,-283.4019 2109.7358,-283.4019 2109.7358,-242.1981 2687.7874,-242.1981 2687.7874,-283.4019"/>
<text text-anchor="middle" x="2398.7616" y="-267" font-family="Times,serif" font-size="14.00" fill="#000000">@PerFragment</text>
<text text-anchor="middle" x="2398.7616" y="-250.2" font-family="Times,serif" font-size="14.00" fill="#000000">PreferencesActivityModule_BindAdvancedPreferencesFragment.AdvancedFragmentSubcomponent</text>
</a>
</g>
</g>
<!-- eaf5aa7f&#45;6d83&#45;4126&#45;bb1b&#45;c468353e7239&#45;&gt;ddc256e6&#45;7a91&#45;41e9&#45;8775&#45;3404375df644 -->
<g id="edge13" class="edge">
<title>eaf5aa7f&#45;6d83&#45;4126&#45;bb1b&#45;c468353e7239&#45;&gt;ddc256e6&#45;7a91&#45;41e9&#45;8775&#45;3404375df644:w</title>
<path fill="none" stroke="#000000" stroke-dasharray="5,2" d="M1975.4293,-253.9791C2014.8182,-258.5094 2058.6106,-262.1975 2099.666,-262.7331"/>
<polygon fill="#000000" stroke="#000000" points="2099.7386,-266.2336 2109.7616,-262.8 2099.785,-259.2337 2099.7386,-266.2336"/>
<text text-anchor="middle" x="2039.7723" y="-266" font-family="Times,serif" font-size="14.00" fill="#000000">subcomponent</text>
</g>
<!-- b0606d26&#45;346b&#45;44e9&#45;b20e&#45;e5acef62df36 -->
<g id="node11" class="node">
<title>b0606d26&#45;346b&#45;44e9&#45;b20e&#45;e5acef62df36</title>
<polygon fill="#ff3030" stroke="#ff3030" points="485.018,-184.8 15.994,-184.8 15.994,-148.8 485.018,-148.8 485.018,-184.8"/>
<text text-anchor="middle" x="250.506" y="-162.6" font-family="Times,serif" font-size="14.00" fill="#000000">@org.owntracks.android.injection.qualifier.AppContext android.content.Context</text>
</g>
<!-- bd344114&#45;79d3&#45;471b&#45;9bb8&#45;dea53fdea94c -->
<g id="node12" class="node">
<title>bd344114&#45;79d3&#45;471b&#45;9bb8&#45;dea53fdea94c</title>
<polygon fill="#ff3030" stroke="#ff3030" points="355.511,-130.8 145.501,-130.8 145.501,-94.8 355.511,-94.8 355.511,-130.8"/>
<text text-anchor="middle" x="250.506" y="-108.6" font-family="Times,serif" font-size="14.00" fill="#000000">org.greenrobot.eventbus.EventBus</text>
</g>
<!-- 87901dc5&#45;8219&#45;4851&#45;b80a&#45;fade953fcb86 -->
<g id="node13" class="node">
<title>87901dc5&#45;8219&#45;4851&#45;b80a&#45;fade953fcb86</title>
<polygon fill="#ff3030" stroke="#ff3030" points="427.2897,-76.8 73.7223,-76.8 73.7223,-40.8 427.2897,-40.8 427.2897,-76.8"/>
<text text-anchor="middle" x="250.506" y="-54.6" font-family="Times,serif" font-size="14.00" fill="#000000">org.owntracks.android.support.preferences.PreferencesStore</text>
</g>
<!-- 450ecbd5&#45;f7c8&#45;4402&#45;be75&#45;e5ca4bc1f666 -->
<g id="node14" class="node">
<title>450ecbd5&#45;f7c8&#45;4402&#45;be75&#45;e5ca4bc1f666</title>
<polygon fill="#40e0d0" stroke="#40e0d0" points="388.2455,-376.8 124.7665,-376.8 124.7665,-380.8 112.7665,-380.8 112.7665,-340.8 388.2455,-340.8 388.2455,-376.8"/>
<polyline fill="none" stroke="#40e0d0" points="112.7665,-376.8 124.7665,-376.8 "/>
<text text-anchor="middle" x="250.506" y="-354.6" font-family="Times,serif" font-size="14.00" fill="#000000">Map&lt;Class&lt;?&gt;, AndroidInjector.Factory&lt;?&gt;&gt;</text>
</g>
<!-- 450ecbd5&#45;f7c8&#45;4402&#45;be75&#45;e5ca4bc1f666&#45;&gt;57d72331&#45;cc92&#45;4eaf&#45;8f5e&#45;597cdec9e497 -->
<g id="edge3" class="edge">
<title>450ecbd5&#45;f7c8&#45;4402&#45;be75&#45;e5ca4bc1f666&#45;&gt;57d72331&#45;cc92&#45;4eaf&#45;8f5e&#45;597cdec9e497</title>
<path fill="none" stroke="#000000" d="M295.039,-376.8449C352.5018,-398.4623 456.0361,-431.8 548.0541,-431.8 548.0541,-431.8 548.0541,-431.8 987.6098,-431.8 1007.463,-431.8 1028.0093,-431.9768 1048.6644,-432.2808"/>
<polygon fill="#000000" stroke="#000000" points="1048.7567,-435.7826 1058.8104,-432.44 1048.8666,-428.7834 1048.7567,-435.7826"/>
</g>
<!-- 450ecbd5&#45;f7c8&#45;4402&#45;be75&#45;e5ca4bc1f666&#45;&gt;507b609c&#45;c648&#45;4796&#45;91ff&#45;f20b9a6f3e5a -->
<g id="edge4" class="edge">
<title>450ecbd5&#45;f7c8&#45;4402&#45;be75&#45;e5ca4bc1f666&#45;&gt;507b609c&#45;c648&#45;4796&#45;91ff&#45;f20b9a6f3e5a</title>
<path fill="none" stroke="#000000" d="M388.158,-371.2613C438.4309,-374.8426 495.7736,-377.8 548.0541,-377.8 548.0541,-377.8 548.0541,-377.8 987.6098,-377.8 998.4129,-377.8 1009.4212,-377.8523 1020.5406,-377.9491"/>
<polygon fill="#000000" stroke="#000000" points="1020.7467,-381.4512 1030.7808,-378.0501 1020.8158,-374.4515 1020.7467,-381.4512"/>
</g>
<!-- 450ecbd5&#45;f7c8&#45;4402&#45;be75&#45;e5ca4bc1f666&#45;&gt;e8c2c14f&#45;b6f4&#45;4b55&#45;b5c3&#45;82da2cd44d36 -->
<g id="edge5" class="edge">
<title>450ecbd5&#45;f7c8&#45;4402&#45;be75&#45;e5ca4bc1f666&#45;&gt;e8c2c14f&#45;b6f4&#45;4b55&#45;b5c3&#45;82da2cd44d36</title>
<path fill="none" stroke="#000000" d="M388.17,-346.9946C438.444,-343.6018 495.7845,-340.8 548.0541,-340.8 548.0541,-340.8 548.0541,-340.8 987.6098,-340.8 996.4538,-340.8 1005.4355,-340.7688 1014.5032,-340.7103"/>
<polygon fill="#000000" stroke="#000000" points="1014.8014,-344.2083 1024.7747,-340.6329 1014.7486,-337.2085 1014.8014,-344.2083"/>
</g>
<!-- 450ecbd5&#45;f7c8&#45;4402&#45;be75&#45;e5ca4bc1f666&#45;&gt;34d48532&#45;f0ad&#45;4466&#45;bf0a&#45;46aaf2c0f5ef -->
<g id="edge2" class="edge">
<title>450ecbd5&#45;f7c8&#45;4402&#45;be75&#45;e5ca4bc1f666&#45;&gt;34d48532&#45;f0ad&#45;4466&#45;bf0a&#45;46aaf2c0f5ef</title>
<path fill="none" stroke="#000000" d="M388.3551,-356.9945C420.7088,-353.546 454.6009,-347.3896 485.012,-336.8 516.5761,-325.8089 514.6311,-295.8 548.0541,-295.8 548.0541,-295.8 548.0541,-295.8 987.6098,-295.8 998.3179,-295.8 1009.2256,-295.7031 1020.2416,-295.5238"/>
<polygon fill="#000000" stroke="#000000" points="1020.4526,-299.0206 1030.3862,-295.3365 1020.3233,-292.0218 1020.4526,-299.0206"/>
</g>
</g>
</svg>
