<svg width="2175px" height="558px"
 viewBox="0.00 0.00 2175.46 557.60" xmlns="http://www.w3.org/2000/svg" xmlns:xlink="http://www.w3.org/1999/xlink">
<g id="graph0" class="graph" transform="scale(1.0 1.0) rotate(0) translate(14.4 543.2)">
<title>org.owntracks.android.injection.modules.AndroidBindingModule_BindRegionsActivity</title>
<polygon fill="#ffffff" stroke="transparent" points="-14.4,14.4 -14.4,-543.2 2161.0578,-543.2 2161.0578,14.4 -14.4,14.4"/>
<text text-anchor="middle" x="138.6613" y="-8.2" font-family="Times,serif" font-size="14.00" fill="#000000">AndroidBindingModule_BindRegionsActivity</text>
<g id="clust2" class="cluster">
<title>cluster_Dependency Graph</title>
<polygon fill="none" stroke="#000000" points="8,-32.8 8,-520.8 1564.4172,-520.8 1564.4172,-32.8 8,-32.8"/>
<text text-anchor="middle" x="70.2234" y="-504.2" font-family="Times,serif" font-size="14.00" fill="#000000">Dependency Graph</text>
</g>
<g id="clust3" class="cluster">
<title>cluster_Map&lt;Class&lt;?&gt;, AndroidInjector.Factory&lt;?&gt;&gt;</title>
<path fill="none" stroke="#000000" d="M171.0404,-410.8C171.0404,-410.8 1188.307,-410.8 1188.307,-410.8 1194.307,-410.8 1200.307,-416.8 1200.307,-422.8 1200.307,-422.8 1200.307,-475.8 1200.307,-475.8 1200.307,-481.8 1194.307,-487.8 1188.307,-487.8 1188.307,-487.8 171.0404,-487.8 171.0404,-487.8 165.0404,-487.8 159.0404,-481.8 159.0404,-475.8 159.0404,-475.8 159.0404,-422.8 159.0404,-422.8 159.0404,-416.8 165.0404,-410.8 171.0404,-410.8"/>
<text text-anchor="middle" x="679.6737" y="-471.2" font-family="Times,serif" font-size="14.00" fill="#000000">Map&lt;Class&lt;?&gt;, AndroidInjector.Factory&lt;?&gt;&gt;</text>
</g>
<g id="clust4" class="cluster">
<title>cluster_Subcomponents</title>
<polygon fill="none" stroke="#000000" points="1666.0722,-407.8 1666.0722,-490.8 2138.6578,-490.8 2138.6578,-407.8 1666.0722,-407.8"/>
<text text-anchor="middle" x="1718.791" y="-474.2" font-family="Times,serif" font-size="14.00" fill="#000000">Subcomponents</text>
</g>
<!-- 2537257e&#45;44a1&#45;42d2&#45;900e&#45;71c08ff53a2c -->
<g id="node1" class="node">
<title>2537257e&#45;44a1&#45;42d2&#45;900e&#45;71c08ff53a2c</title>
<polygon fill="#40e0d0" stroke="#40e0d0" points="1192.3004,-454.8 744.3268,-454.8 744.3268,-418.8 1192.3004,-418.8 1192.3004,-454.8"/>
<text text-anchor="middle" x="968.3136" y="-432.6" font-family="Times,serif" font-size="14.00" fill="#000000">AndroidBindingModule_BindRegionsActivity.bindAndroidInjectorFactory()</text>
</g>
<!-- 892f5ac8&#45;87c6&#45;42c1&#45;b803&#45;7d938b5de8df -->
<g id="node2" class="node">
<title>892f5ac8&#45;87c6&#45;42c1&#45;b803&#45;7d938b5de8df</title>
<polygon fill="#40e0d0" stroke="#40e0d0" points="1556.4302,-465.4014 1318.3782,-465.4014 1318.3782,-408.1986 1556.4302,-408.1986 1556.4302,-465.4014"/>
<text text-anchor="middle" x="1437.4042" y="-449" font-family="Times,serif" font-size="14.00" fill="#000000">RegionsActivitySubcomponent.Factory</text>
<text text-anchor="middle" x="1437.4042" y="-416.2" font-family="Times,serif" font-size="14.00" fill="#000000">Subcomponent Creator</text>
</g>
<!-- 2537257e&#45;44a1&#45;42d2&#45;900e&#45;71c08ff53a2c&#45;&gt;892f5ac8&#45;87c6&#45;42c1&#45;b803&#45;7d938b5de8df -->
<g id="edge2" class="edge">
<title>2537257e&#45;44a1&#45;42d2&#45;900e&#45;71c08ff53a2c&#45;&gt;892f5ac8&#45;87c6&#45;42c1&#45;b803&#45;7d938b5de8df</title>
<path fill="none" stroke="#000000" stroke-dasharray="1,5" d="M1192.5547,-436.8C1232.2799,-436.8 1272.4001,-436.8 1308.3451,-436.8"/>
<polygon fill="#000000" stroke="#000000" points="1308.369,-440.3001 1318.3689,-436.8 1308.3689,-433.3001 1308.369,-440.3001"/>
<text text-anchor="middle" x="1255.3491" y="-441" font-family="Times,serif" font-size="14.00" fill="#000000">delegates</text>
</g>
<!-- a64e8b77&#45;7cb6&#45;4cad&#45;a119&#45;12a8e0ab85cb -->
<g id="node11" class="node">
<title>a64e8b77&#45;7cb6&#45;4cad&#45;a119&#45;12a8e0ab85cb</title>
<g id="a_node11"><a xlink:href="full_org.owntracks.android.injection.modules.AndroidBindingModule_BindRegionsActivity.RegionsActivitySubcomponent.svg" xlink:title="@PerActivity\nAndroidBindingModule_BindRegionsActivity.RegionsActivitySubcomponent">
<polygon fill="#7fffd4" stroke="#7fffd4" points="2130.4508,-457.4019 1674.2792,-457.4019 1674.2792,-416.1981 2130.4508,-416.1981 2130.4508,-457.4019"/>
<text text-anchor="middle" x="1902.365" y="-441" font-family="Times,serif" font-size="14.00" fill="#000000">@PerActivity</text>
<text text-anchor="middle" x="1902.365" y="-424.2" font-family="Times,serif" font-size="14.00" fill="#000000">AndroidBindingModule_BindRegionsActivity.RegionsActivitySubcomponent</text>
</a>
</g>
</g>
<!-- 892f5ac8&#45;87c6&#45;42c1&#45;b803&#45;7d938b5de8df&#45;&gt;a64e8b77&#45;7cb6&#45;4cad&#45;a119&#45;12a8e0ab85cb -->
<g id="edge3" class="edge">
<title>892f5ac8&#45;87c6&#45;42c1&#45;b803&#45;7d938b5de8df&#45;&gt;a64e8b77&#45;7cb6&#45;4cad&#45;a119&#45;12a8e0ab85cb:w</title>
<path fill="none" stroke="#000000" stroke-dasharray="5,2" d="M1556.4333,-436.8C1590.7589,-436.8 1628.5154,-436.8 1663.9461,-436.8"/>
<polygon fill="#000000" stroke="#000000" points="1664.365,-440.3001 1674.365,-436.8 1664.365,-433.3001 1664.365,-440.3001"/>
<text text-anchor="middle" x="1615.2447" y="-441" font-family="Times,serif" font-size="14.00" fill="#000000">subcomponent</text>
</g>
<!-- de0536d4&#45;d002&#45;446c&#45;a00d&#45;56e206524832 -->
<g id="node3" class="node">
<title>de0536d4&#45;d002&#45;446c&#45;a00d&#45;56e206524832</title>
<polygon fill="#ff3030" stroke="#ff3030" points="409.6651,-400.8 199.6551,-400.8 199.6551,-364.8 409.6651,-364.8 409.6651,-400.8"/>
<text text-anchor="middle" x="304.6601" y="-378.6" font-family="Times,serif" font-size="14.00" fill="#000000">org.greenrobot.eventbus.EventBus</text>
</g>
<!-- 5737c16d&#45;5f98&#45;4020&#45;8e34&#45;0d1195c162fd -->
<g id="node4" class="node">
<title>5737c16d&#45;5f98&#45;4020&#45;8e34&#45;0d1195c162fd</title>
<polygon fill="#ff3030" stroke="#ff3030" points="593.4804,-346.8 15.8398,-346.8 15.8398,-310.8 593.4804,-310.8 593.4804,-346.8"/>
<text text-anchor="middle" x="304.6601" y="-324.6" font-family="Times,serif" font-size="14.00" fill="#000000">java.util.Map&lt;java.lang.String,javax.inject.Provider&lt;dagger.android.AndroidInjector.Factory&lt;?&gt;&gt;&gt;</text>
</g>
<!-- 7c82582c&#45;82ec&#45;4047&#45;b270&#45;a88c55f5a0be -->
<g id="node5" class="node">
<title>7c82582c&#45;82ec&#45;4047&#45;b270&#45;a88c55f5a0be</title>
<polygon fill="#ff3030" stroke="#ff3030" points="452.9641,-292.8 156.3561,-292.8 156.3561,-256.8 452.9641,-256.8 452.9641,-292.8"/>
<text text-anchor="middle" x="304.6601" y="-270.6" font-family="Times,serif" font-size="14.00" fill="#000000">org.owntracks.android.data.repos.WaypointsRepo</text>
</g>
<!-- 512a79c7&#45;0923&#45;49e6&#45;8042&#45;d0918dbd2de8 -->
<g id="node6" class="node">
<title>512a79c7&#45;0923&#45;49e6&#45;8042&#45;d0918dbd2de8</title>
<polygon fill="#ff3030" stroke="#ff3030" points="539.1721,-238.8 70.1481,-238.8 70.1481,-202.8 539.1721,-202.8 539.1721,-238.8"/>
<text text-anchor="middle" x="304.6601" y="-216.6" font-family="Times,serif" font-size="14.00" fill="#000000">@org.owntracks.android.injection.qualifier.AppContext android.content.Context</text>
</g>
<!-- dffd81d8&#45;106d&#45;45a0&#45;8226&#45;f93c2bf6edbf -->
<g id="node7" class="node">
<title>dffd81d8&#45;106d&#45;45a0&#45;8226&#45;f93c2bf6edbf</title>
<polygon fill="#ff3030" stroke="#ff3030" points="446.8007,-184.8 162.5195,-184.8 162.5195,-148.8 446.8007,-148.8 446.8007,-184.8"/>
<text text-anchor="middle" x="304.6601" y="-162.6" font-family="Times,serif" font-size="14.00" fill="#000000">org.owntracks.android.data.repos.ContactsRepo</text>
</g>
<!-- 99d6f3ca&#45;9c6c&#45;482d&#45;ba87&#45;619c523c1f8b -->
<g id="node8" class="node">
<title>99d6f3ca&#45;9c6c&#45;482d&#45;ba87&#45;619c523c1f8b</title>
<polygon fill="#ff3030" stroke="#ff3030" points="463.1069,-130.8 146.2133,-130.8 146.2133,-94.8 463.1069,-94.8 463.1069,-130.8"/>
<text text-anchor="middle" x="304.6601" y="-108.6" font-family="Times,serif" font-size="14.00" fill="#000000">androidx.test.espresso.idling.CountingIdlingResource</text>
</g>
<!-- cdbf55fc&#45;3923&#45;403d&#45;9f35&#45;015525faf4c7 -->
<g id="node9" class="node">
<title>cdbf55fc&#45;3923&#45;403d&#45;9f35&#45;015525faf4c7</title>
<polygon fill="#ff3030" stroke="#ff3030" points="481.4438,-76.8 127.8764,-76.8 127.8764,-40.8 481.4438,-40.8 481.4438,-76.8"/>
<text text-anchor="middle" x="304.6601" y="-54.6" font-family="Times,serif" font-size="14.00" fill="#000000">org.owntracks.android.support.preferences.PreferencesStore</text>
</g>
<!-- 0a1b5ccf&#45;00fa&#45;478e&#45;8198&#45;c6593c7435bc -->
<g id="node10" class="node">
<title>0a1b5ccf&#45;00fa&#45;478e&#45;8198&#45;c6593c7435bc</title>
<polygon fill="#40e0d0" stroke="#40e0d0" points="442.3996,-454.8 178.9206,-454.8 178.9206,-458.8 166.9206,-458.8 166.9206,-418.8 442.3996,-418.8 442.3996,-454.8"/>
<polyline fill="none" stroke="#40e0d0" points="166.9206,-454.8 178.9206,-454.8 "/>
<text text-anchor="middle" x="304.6601" y="-432.6" font-family="Times,serif" font-size="14.00" fill="#000000">Map&lt;Class&lt;?&gt;, AndroidInjector.Factory&lt;?&gt;&gt;</text>
</g>
<!-- 0a1b5ccf&#45;00fa&#45;478e&#45;8198&#45;c6593c7435bc&#45;&gt;2537257e&#45;44a1&#45;42d2&#45;900e&#45;71c08ff53a2c -->
<g id="edge1" class="edge">
<title>0a1b5ccf&#45;00fa&#45;478e&#45;8198&#45;c6593c7435bc&#45;&gt;2537257e&#45;44a1&#45;42d2&#45;900e&#45;71c08ff53a2c</title>
<path fill="none" stroke="#000000" d="M442.3313,-436.8C500.4944,-436.8 568.9574,-436.8 630.8202,-436.8 630.8202,-436.8 630.8202,-436.8 706.8202,-436.8 715.6436,-436.8 724.6344,-436.8 733.7165,-436.8"/>
<polygon fill="#000000" stroke="#000000" points="734.0051,-440.3001 744.005,-436.8 734.005,-433.3001 734.0051,-440.3001"/>
</g>
</g>
</svg>
