<svg width="2287px" height="342px"
 viewBox="0.00 0.00 2287.36 341.60" xmlns="http://www.w3.org/2000/svg" xmlns:xlink="http://www.w3.org/1999/xlink">
<g id="graph0" class="graph" transform="scale(1.0 1.0) rotate(0) translate(14.4 327.2)">
<title>org.owntracks.android.ui.welcome.WelcomeActivityModule_BindPermissionFragment</title>
<polygon fill="#ffffff" stroke="transparent" points="-14.4,14.4 -14.4,-327.2 2272.9626,-327.2 2272.9626,14.4 -14.4,14.4"/>
<text text-anchor="middle" x="154.5863" y="-8.2" font-family="Times,serif" font-size="14.00" fill="#000000">WelcomeActivityModule_BindPermissionFragment</text>
<g id="clust2" class="cluster">
<title>cluster_Dependency Graph</title>
<polygon fill="none" stroke="#000000" points="8,-32.8 8,-304.8 1620.3696,-304.8 1620.3696,-32.8 8,-32.8"/>
<text text-anchor="middle" x="70.2234" y="-288.2" font-family="Times,serif" font-size="14.00" fill="#000000">Dependency Graph</text>
</g>
<g id="clust3" class="cluster">
<title>cluster_Map&lt;Class&lt;?&gt;, AndroidInjector.Factory&lt;?&gt;&gt;</title>
<path fill="none" stroke="#000000" d="M171.0404,-194.8C171.0404,-194.8 1220.157,-194.8 1220.157,-194.8 1226.157,-194.8 1232.157,-200.8 1232.157,-206.8 1232.157,-206.8 1232.157,-259.8 1232.157,-259.8 1232.157,-265.8 1226.157,-271.8 1220.157,-271.8 1220.157,-271.8 171.0404,-271.8 171.0404,-271.8 165.0404,-271.8 159.0404,-265.8 159.0404,-259.8 159.0404,-259.8 159.0404,-206.8 159.0404,-206.8 159.0404,-200.8 165.0404,-194.8 171.0404,-194.8"/>
<text text-anchor="middle" x="695.5987" y="-255.2" font-family="Times,serif" font-size="14.00" fill="#000000">Map&lt;Class&lt;?&gt;, AndroidInjector.Factory&lt;?&gt;&gt;</text>
</g>
<g id="clust4" class="cluster">
<title>cluster_Subcomponents</title>
<polygon fill="none" stroke="#000000" points="1722.0246,-191.8 1722.0246,-274.8 2250.5626,-274.8 2250.5626,-191.8 1722.0246,-191.8"/>
<text text-anchor="middle" x="1774.7434" y="-258.2" font-family="Times,serif" font-size="14.00" fill="#000000">Subcomponents</text>
</g>
<!-- 26b1f057&#45;3bb1&#45;4d37&#45;88f3&#45;013966f3bba7 -->
<g id="node1" class="node">
<title>26b1f057&#45;3bb1&#45;4d37&#45;88f3&#45;013966f3bba7</title>
<polygon fill="#40e0d0" stroke="#40e0d0" points="1224.0754,-238.8 744.4018,-238.8 744.4018,-202.8 1224.0754,-202.8 1224.0754,-238.8"/>
<text text-anchor="middle" x="984.2386" y="-216.6" font-family="Times,serif" font-size="14.00" fill="#000000">WelcomeActivityModule_BindPermissionFragment.bindAndroidInjectorFactory()</text>
</g>
<!-- 0cd1f2ea&#45;996d&#45;4bb3&#45;b858&#45;7d8f51013c35 -->
<g id="node2" class="node">
<title>0cd1f2ea&#45;996d&#45;4bb3&#45;b858&#45;7d8f51013c35</title>
<polygon fill="#40e0d0" stroke="#40e0d0" points="1612.4338,-249.4014 1350.177,-249.4014 1350.177,-192.1986 1612.4338,-192.1986 1612.4338,-249.4014"/>
<text text-anchor="middle" x="1481.3054" y="-233" font-family="Times,serif" font-size="14.00" fill="#000000">PermissionFragmentSubcomponent.Factory</text>
<text text-anchor="middle" x="1481.3054" y="-200.2" font-family="Times,serif" font-size="14.00" fill="#000000">Subcomponent Creator</text>
</g>
<!-- 26b1f057&#45;3bb1&#45;4d37&#45;88f3&#45;013966f3bba7&#45;&gt;0cd1f2ea&#45;996d&#45;4bb3&#45;b858&#45;7d8f51013c35 -->
<g id="edge2" class="edge">
<title>26b1f057&#45;3bb1&#45;4d37&#45;88f3&#45;013966f3bba7&#45;&gt;0cd1f2ea&#45;996d&#45;4bb3&#45;b858&#45;7d8f51013c35</title>
<path fill="none" stroke="#000000" stroke-dasharray="1,5" d="M1224.4,-220.8C1263.9625,-220.8 1303.8082,-220.8 1339.921,-220.8"/>
<polygon fill="#000000" stroke="#000000" points="1340.0044,-224.3001 1350.0043,-220.8 1340.0043,-217.3001 1340.0044,-224.3001"/>
<text text-anchor="middle" x="1287.1991" y="-225" font-family="Times,serif" font-size="14.00" fill="#000000">delegates</text>
</g>
<!-- f72a1c9c&#45;5fbf&#45;49df&#45;b8b0&#45;610fe1b1fc5e -->
<g id="node7" class="node">
<title>f72a1c9c&#45;5fbf&#45;49df&#45;b8b0&#45;610fe1b1fc5e</title>
<g id="a_node7"><a xlink:href="full_org.owntracks.android.ui.welcome.WelcomeActivityModule_BindPermissionFragment.PermissionFragmentSubcomponent.svg" xlink:title="@PerFragment\nWelcomeActivityModule_BindPermissionFragment.PermissionFragmentSubcomponent">
<polygon fill="#7fffd4" stroke="#7fffd4" points="2242.3318,-241.4019 1730.2554,-241.4019 1730.2554,-200.1981 2242.3318,-200.1981 2242.3318,-241.4019"/>
<text text-anchor="middle" x="1986.2936" y="-225" font-family="Times,serif" font-size="14.00" fill="#000000">@PerFragment</text>
<text text-anchor="middle" x="1986.2936" y="-208.2" font-family="Times,serif" font-size="14.00" fill="#000000">WelcomeActivityModule_BindPermissionFragment.PermissionFragmentSubcomponent</text>
</a>
</g>
</g>
<!-- 0cd1f2ea&#45;996d&#45;4bb3&#45;b858&#45;7d8f51013c35&#45;&gt;f72a1c9c&#45;5fbf&#45;49df&#45;b8b0&#45;610fe1b1fc5e -->
<g id="edge3" class="edge">
<title>0cd1f2ea&#45;996d&#45;4bb3&#45;b858&#45;7d8f51013c35&#45;&gt;f72a1c9c&#45;5fbf&#45;49df&#45;b8b0&#45;610fe1b1fc5e:w</title>
<path fill="none" stroke="#000000" stroke-dasharray="5,2" d="M1612.4647,-220.8C1647.0603,-220.8 1684.598,-220.8 1719.9073,-220.8"/>
<polygon fill="#000000" stroke="#000000" points="1720.2936,-224.3001 1730.2936,-220.8 1720.2936,-217.3001 1720.2936,-224.3001"/>
<text text-anchor="middle" x="1671.1971" y="-225" font-family="Times,serif" font-size="14.00" fill="#000000">subcomponent</text>
</g>
<!-- b8d66104&#45;4147&#45;43ab&#45;8c13&#45;bc8e471f3332 -->
<g id="node3" class="node">
<title>b8d66104&#45;4147&#45;43ab&#45;8c13&#45;bc8e471f3332</title>
<polygon fill="#ff3030" stroke="#ff3030" points="409.6651,-184.8 199.6551,-184.8 199.6551,-148.8 409.6651,-148.8 409.6651,-184.8"/>
<text text-anchor="middle" x="304.6601" y="-162.6" font-family="Times,serif" font-size="14.00" fill="#000000">org.greenrobot.eventbus.EventBus</text>
</g>
<!-- a8c89daa&#45;b451&#45;4966&#45;80b6&#45;8358f03dde99 -->
<g id="node4" class="node">
<title>a8c89daa&#45;b451&#45;4966&#45;80b6&#45;8358f03dde99</title>
<polygon fill="#ff3030" stroke="#ff3030" points="593.4804,-130.8 15.8398,-130.8 15.8398,-94.8 593.4804,-94.8 593.4804,-130.8"/>
<text text-anchor="middle" x="304.6601" y="-108.6" font-family="Times,serif" font-size="14.00" fill="#000000">java.util.Map&lt;java.lang.String,javax.inject.Provider&lt;dagger.android.AndroidInjector.Factory&lt;?&gt;&gt;&gt;</text>
</g>
<!-- d8dda318&#45;3f39&#45;4230&#45;aa25&#45;0e8831c9d2eb -->
<g id="node5" class="node">
<title>d8dda318&#45;3f39&#45;4230&#45;aa25&#45;0e8831c9d2eb</title>
<polygon fill="#ff3030" stroke="#ff3030" points="440.8882,-76.8 168.432,-76.8 168.432,-40.8 440.8882,-40.8 440.8882,-76.8"/>
<text text-anchor="middle" x="304.6601" y="-54.6" font-family="Times,serif" font-size="14.00" fill="#000000">androidx.appcompat.app.AppCompatActivity</text>
</g>
<!-- 68cd1c80&#45;6322&#45;4022&#45;bd2b&#45;48b5ae531553 -->
<g id="node6" class="node">
<title>68cd1c80&#45;6322&#45;4022&#45;bd2b&#45;48b5ae531553</title>
<polygon fill="#40e0d0" stroke="#40e0d0" points="442.3996,-238.8 178.9206,-238.8 178.9206,-242.8 166.9206,-242.8 166.9206,-202.8 442.3996,-202.8 442.3996,-238.8"/>
<polyline fill="none" stroke="#40e0d0" points="166.9206,-238.8 178.9206,-238.8 "/>
<text text-anchor="middle" x="304.6601" y="-216.6" font-family="Times,serif" font-size="14.00" fill="#000000">Map&lt;Class&lt;?&gt;, AndroidInjector.Factory&lt;?&gt;&gt;</text>
</g>
<!-- 68cd1c80&#45;6322&#45;4022&#45;bd2b&#45;48b5ae531553&#45;&gt;26b1f057&#45;3bb1&#45;4d37&#45;88f3&#45;013966f3bba7 -->
<g id="edge1" class="edge">
<title>68cd1c80&#45;6322&#45;4022&#45;bd2b&#45;48b5ae531553&#45;&gt;26b1f057&#45;3bb1&#45;4d37&#45;88f3&#45;013966f3bba7</title>
<path fill="none" stroke="#000000" d="M442.3313,-220.8C500.4944,-220.8 568.9574,-220.8 630.8202,-220.8 630.8202,-220.8 630.8202,-220.8 706.8202,-220.8 715.8395,-220.8 725.0237,-220.8 734.3004,-220.8"/>
<polygon fill="#000000" stroke="#000000" points="734.3996,-224.3001 744.3996,-220.8 734.3995,-217.3001 734.3996,-224.3001"/>
</g>
</g>
</svg>
