<svg width="1168px" height="368px"
 viewBox="0.00 0.00 1167.76 367.60" xmlns="http://www.w3.org/2000/svg" xmlns:xlink="http://www.w3.org/1999/xlink">
<g id="graph0" class="graph" transform="scale(1.0 1.0) rotate(0) translate(14.4 353.2)">
<title>org.owntracks.android.injection.modules.AndroidBindingModule → org.owntracks.android.injection.modules.AndroidBindingModule_BindWelcomeActivity.WelcomeActivitySubcomponent → org.owntracks.android.ui.welcome.WelcomeActivityModule_BindPermissionFragment.PermissionFragmentSubcomponent</title>
<polygon fill="#ffffff" stroke="transparent" points="-14.4,14.4 -14.4,-353.2 1153.3554,-353.2 1153.3554,14.4 -14.4,14.4"/>
<text text-anchor="middle" x="569.4777" y="-8.2" font-family="Times,serif" font-size="14.00" fill="#000000">AndroidBindingModule → AndroidBindingModule_BindWelcomeActivity.WelcomeActivitySubcomponent → WelcomeActivityModule_BindPermissionFragment.PermissionFragmentSubcomponent</text>
<g id="clust4" class="cluster">
<title>cluster_AndroidBindingModule → AndroidBindingModule_BindWelcomeActivity.WelcomeActivitySubcomponent</title>
<g id="a_clust4"><a xlink:href="full_org.owntracks.android.injection.modules.AndroidBindingModule_BindWelcomeActivity.WelcomeActivitySubcomponent.svg" xlink:title="Inherited from AndroidBindingModule_BindWelcomeActivity.WelcomeActivitySubcomponent\n@PerActivity">
<polygon fill="none" stroke="#7fffd4" stroke-dasharray="5,2" points="246.5318,-32.8 246.5318,-245.8 802.4796,-245.8 802.4796,-32.8 246.5318,-32.8"/>
<text text-anchor="middle" x="524.5057" y="-229.2" font-family="Times,serif" font-size="14.00" fill="#000000">Inherited from AndroidBindingModule_BindWelcomeActivity.WelcomeActivitySubcomponent</text>
<text text-anchor="middle" x="524.5057" y="-212.4" font-family="Times,serif" font-size="14.00" fill="#000000">@PerActivity</text>
</a>
</g>
</g>
<g id="clust2" class="cluster">
<title>cluster_Dependency Graph</title>
<polygon fill="none" stroke="#000000" points="86.8077,-253.8 86.8077,-330.8 1105.2182,-330.8 1105.2182,-253.8 86.8077,-253.8"/>
<text text-anchor="middle" x="149.0311" y="-314.2" font-family="Times,serif" font-size="14.00" fill="#000000">Dependency Graph</text>
</g>
<g id="clust1" class="cluster">
<title>cluster_Entry Points</title>
<polygon fill="none" stroke="#000000" points="33.7372,-89.8 33.7372,-166.8 225.5318,-166.8 225.5318,-89.8 33.7372,-89.8"/>
<text text-anchor="middle" x="76.5433" y="-150.2" font-family="Times,serif" font-size="14.00" fill="#000000">Entry Points</text>
</g>
<!-- 889c10e9&#45;f846&#45;4d16&#45;91f3&#45;4db47cf35adc -->
<g id="node1" class="node">
<title>889c10e9&#45;f846&#45;4d16&#45;91f3&#45;4db47cf35adc</title>
<polygon fill="#40e0d0" stroke="#40e0d0" stroke-width="2" points="217.4292,-133.8 41.8397,-133.8 41.8397,-129.8 37.8397,-129.8 37.8397,-125.8 41.8397,-125.8 41.8397,-105.8 37.8397,-105.8 37.8397,-101.8 41.8397,-101.8 41.8397,-97.8 217.4292,-97.8 217.4292,-133.8"/>
<polyline fill="none" stroke="#40e0d0" stroke-width="2" points="41.8397,-129.8 45.8397,-129.8 45.8397,-125.8 41.8397,-125.8 "/>
<polyline fill="none" stroke="#40e0d0" stroke-width="2" points="41.8397,-105.8 45.8397,-105.8 45.8397,-101.8 41.8397,-101.8 "/>
<text text-anchor="middle" x="129.6345" y="-111.6" font-family="Times,serif" font-size="14.00" fill="#000000">inject (PermissionFragment)</text>
</g>
<!-- df62043f&#45;a170&#45;4892&#45;9df1&#45;8233b339a201 -->
<g id="node4" class="node">
<title>df62043f&#45;a170&#45;4892&#45;9df1&#45;8233b339a201</title>
<polygon fill="#7fffd4" stroke="#7fffd4" points="623.2464,-196.4019 424.7649,-196.4019 424.7649,-155.1981 623.2464,-155.1981 623.2464,-196.4019"/>
<text text-anchor="middle" x="524.0057" y="-180" font-family="Times,serif" font-size="14.00" fill="#000000">@PerActivity</text>
<text text-anchor="middle" x="524.0057" y="-163.2" font-family="Times,serif" font-size="14.00" fill="#000000">PermissionFragmentViewModel</text>
</g>
<!-- 889c10e9&#45;f846&#45;4d16&#45;91f3&#45;4db47cf35adc&#45;&gt;df62043f&#45;a170&#45;4892&#45;9df1&#45;8233b339a201 -->
<g id="edge1" class="edge">
<title>889c10e9&#45;f846&#45;4d16&#45;91f3&#45;4db47cf35adc&#45;&gt;df62043f&#45;a170&#45;4892&#45;9df1&#45;8233b339a201</title>
<path fill="none" stroke="#000000" d="M192.9718,-133.8191C210.2342,-138.2458 229.0083,-142.6211 246.5318,-145.8 301.5072,-155.773 363.2547,-162.8484 414.5191,-167.6131"/>
<polygon fill="#000000" stroke="#000000" points="414.3505,-171.1122 424.6271,-168.5354 414.9866,-164.1412 414.3505,-171.1122"/>
</g>
<!-- 87b1174f&#45;011d&#45;4b80&#45;8cc4&#45;b56545f49858 -->
<g id="node5" class="node">
<title>87b1174f&#45;011d&#45;4b80&#45;8cc4&#45;b56545f49858</title>
<polygon fill="#7fffd4" stroke="#7fffd4" points="570.9407,-136.4019 477.0707,-136.4019 477.0707,-95.1981 570.9407,-95.1981 570.9407,-136.4019"/>
<text text-anchor="middle" x="524.0057" y="-120" font-family="Times,serif" font-size="14.00" fill="#000000">@PerActivity</text>
<text text-anchor="middle" x="524.0057" y="-103.2" font-family="Times,serif" font-size="14.00" fill="#000000">Navigator</text>
</g>
<!-- 889c10e9&#45;f846&#45;4d16&#45;91f3&#45;4db47cf35adc&#45;&gt;87b1174f&#45;011d&#45;4b80&#45;8cc4&#45;b56545f49858 -->
<g id="edge3" class="edge">
<title>889c10e9&#45;f846&#45;4d16&#45;91f3&#45;4db47cf35adc&#45;&gt;87b1174f&#45;011d&#45;4b80&#45;8cc4&#45;b56545f49858</title>
<path fill="none" stroke="#000000" d="M217.6482,-115.8C293.8218,-115.8 401.7349,-115.8 467.0681,-115.8"/>
<polygon fill="#000000" stroke="#000000" points="467.1767,-119.3001 477.1767,-115.8 467.1767,-112.3001 467.1767,-119.3001"/>
</g>
<!-- e5874052&#45;086f&#45;4dd0&#45;b82a&#45;839e2e29ab1c -->
<g id="node6" class="node">
<title>e5874052&#45;086f&#45;4dd0&#45;b82a&#45;839e2e29ab1c</title>
<polygon fill="#40e0d0" stroke="#40e0d0" points="637.4535,-76.8 410.5579,-76.8 410.5579,-40.8 637.4535,-40.8 637.4535,-76.8"/>
<text text-anchor="middle" x="524.0057" y="-54.6" font-family="Times,serif" font-size="14.00" fill="#000000">DispatchingAndroidInjector&lt;Object&gt;</text>
</g>
<!-- 889c10e9&#45;f846&#45;4d16&#45;91f3&#45;4db47cf35adc&#45;&gt;e5874052&#45;086f&#45;4dd0&#45;b82a&#45;839e2e29ab1c -->
<g id="edge2" class="edge">
<title>889c10e9&#45;f846&#45;4d16&#45;91f3&#45;4db47cf35adc&#45;&gt;e5874052&#45;086f&#45;4dd0&#45;b82a&#45;839e2e29ab1c</title>
<path fill="none" stroke="#000000" d="M192.6449,-97.7335C209.9908,-93.28 228.8884,-88.9033 246.5318,-85.8 296.4862,-77.0136 352.0397,-70.8963 400.2371,-66.7351"/>
<polygon fill="#000000" stroke="#000000" points="400.7355,-70.2056 410.4055,-65.8767 400.1465,-63.2304 400.7355,-70.2056"/>
</g>
<!-- f443aaea&#45;bb3c&#45;43bd&#45;9e96&#45;fecd2feef29a -->
<g id="node2" class="node">
<title>f443aaea&#45;bb3c&#45;43bd&#45;9e96&#45;fecd2feef29a</title>
<polygon fill="#40e0d0" stroke="#40e0d0" points="164.2889,-297.8 94.98,-297.8 94.98,-261.8 164.2889,-261.8 164.2889,-297.8"/>
<text text-anchor="middle" x="129.6345" y="-275.6" font-family="Times,serif" font-size="14.00" fill="#000000">Fragment</text>
</g>
<!-- 2e7137fb&#45;63c8&#45;4caf&#45;8606&#45;f4db5fb69cfd -->
<g id="node3" class="node">
<title>2e7137fb&#45;63c8&#45;4caf&#45;8606&#45;f4db5fb69cfd</title>
<polygon fill="#40e0d0" stroke="#40e0d0" points="1097.0877,-297.8 885.1346,-297.8 830.6101,-261.8 1042.5632,-261.8 1097.0877,-297.8"/>
<text text-anchor="middle" x="963.8489" y="-275.6" font-family="Times,serif" font-size="14.00" fill="#000000">PermissionFragment</text>
</g>
<!-- f443aaea&#45;bb3c&#45;43bd&#45;9e96&#45;fecd2feef29a&#45;&gt;2e7137fb&#45;63c8&#45;4caf&#45;8606&#45;f4db5fb69cfd -->
<g id="edge4" class="edge">
<title>f443aaea&#45;bb3c&#45;43bd&#45;9e96&#45;fecd2feef29a&#45;&gt;2e7137fb&#45;63c8&#45;4caf&#45;8606&#45;f4db5fb69cfd</title>
<path fill="none" stroke="#000000" stroke-dasharray="1,5" d="M164.4175,-279.8C280.0656,-279.8 655.2283,-279.8 847.6656,-279.8"/>
<polygon fill="#000000" stroke="#000000" points="847.8173,-283.3001 857.8172,-279.8 847.8172,-276.3001 847.8173,-283.3001"/>
<text text-anchor="middle" x="524.0057" y="-284" font-family="Times,serif" font-size="14.00" fill="#000000">delegates</text>
</g>
</g>
</svg>
