<svg width="2147px" height="288px"
 viewBox="0.00 0.00 2147.33 287.60" xmlns="http://www.w3.org/2000/svg" xmlns:xlink="http://www.w3.org/1999/xlink">
<g id="graph0" class="graph" transform="scale(1.0 1.0) rotate(0) translate(14.4 273.2)">
<title>org.owntracks.android.ui.welcome.WelcomeActivityModule_BindIntroFragment</title>
<polygon fill="#ffffff" stroke="transparent" points="-14.4,14.4 -14.4,-273.2 2132.9346,-273.2 2132.9346,14.4 -14.4,14.4"/>
<text text-anchor="middle" x="137.0828" y="-8.2" font-family="Times,serif" font-size="14.00" fill="#000000">WelcomeActivityModule_BindIntroFragment</text>
<g id="clust2" class="cluster">
<title>cluster_Dependency Graph</title>
<polygon fill="none" stroke="#000000" points="8,-32.8 8,-250.8 1550.3556,-250.8 1550.3556,-32.8 8,-32.8"/>
<text text-anchor="middle" x="70.2234" y="-234.2" font-family="Times,serif" font-size="14.00" fill="#000000">Dependency Graph</text>
</g>
<g id="clust3" class="cluster">
<title>cluster_Map&lt;Class&lt;?&gt;, AndroidInjector.Factory&lt;?&gt;&gt;</title>
<path fill="none" stroke="#000000" d="M171.0404,-140.8C171.0404,-140.8 1185.15,-140.8 1185.15,-140.8 1191.15,-140.8 1197.15,-146.8 1197.15,-152.8 1197.15,-152.8 1197.15,-205.8 1197.15,-205.8 1197.15,-211.8 1191.15,-217.8 1185.15,-217.8 1185.15,-217.8 171.0404,-217.8 171.0404,-217.8 165.0404,-217.8 159.0404,-211.8 159.0404,-205.8 159.0404,-205.8 159.0404,-152.8 159.0404,-152.8 159.0404,-146.8 165.0404,-140.8 171.0404,-140.8"/>
<text text-anchor="middle" x="678.0952" y="-201.2" font-family="Times,serif" font-size="14.00" fill="#000000">Map&lt;Class&lt;?&gt;, AndroidInjector.Factory&lt;?&gt;&gt;</text>
</g>
<g id="clust4" class="cluster">
<title>cluster_Subcomponents</title>
<polygon fill="none" stroke="#000000" points="1652.0106,-137.8 1652.0106,-220.8 2110.5346,-220.8 2110.5346,-137.8 1652.0106,-137.8"/>
<text text-anchor="middle" x="1704.7294" y="-204.2" font-family="Times,serif" font-size="14.00" fill="#000000">Subcomponents</text>
</g>
<!-- 9cf000c8&#45;0142&#45;4e3d&#45;987d&#45;7f17d5e770e6 -->
<g id="node1" class="node">
<title>9cf000c8&#45;0142&#45;4e3d&#45;987d&#45;7f17d5e770e6</title>
<polygon fill="#40e0d0" stroke="#40e0d0" points="1189.0649,-184.8 744.4053,-184.8 744.4053,-148.8 1189.0649,-148.8 1189.0649,-184.8"/>
<text text-anchor="middle" x="966.7351" y="-162.6" font-family="Times,serif" font-size="14.00" fill="#000000">WelcomeActivityModule_BindIntroFragment.bindAndroidInjectorFactory()</text>
</g>
<!-- b6c0ad75&#45;db00&#45;44e0&#45;8cfb&#45;9fcf74843c62 -->
<g id="node2" class="node">
<title>b6c0ad75&#45;db00&#45;44e0&#45;8cfb&#45;9fcf74843c62</title>
<polygon fill="#40e0d0" stroke="#40e0d0" points="1542.4163,-195.4014 1315.1735,-195.4014 1315.1735,-138.1986 1542.4163,-138.1986 1542.4163,-195.4014"/>
<text text-anchor="middle" x="1428.7949" y="-179" font-family="Times,serif" font-size="14.00" fill="#000000">IntroFragmentSubcomponent.Factory</text>
<text text-anchor="middle" x="1428.7949" y="-146.2" font-family="Times,serif" font-size="14.00" fill="#000000">Subcomponent Creator</text>
</g>
<!-- 9cf000c8&#45;0142&#45;4e3d&#45;987d&#45;7f17d5e770e6&#45;&gt;b6c0ad75&#45;db00&#45;44e0&#45;8cfb&#45;9fcf74843c62 -->
<g id="edge2" class="edge">
<title>9cf000c8&#45;0142&#45;4e3d&#45;987d&#45;7f17d5e770e6&#45;&gt;b6c0ad75&#45;db00&#45;44e0&#45;8cfb&#45;9fcf74843c62</title>
<path fill="none" stroke="#000000" stroke-dasharray="1,5" d="M1189.3061,-166.8C1228.935,-166.8 1268.8962,-166.8 1304.5174,-166.8"/>
<polygon fill="#000000" stroke="#000000" points="1304.9348,-170.3001 1314.9348,-166.8 1304.9348,-163.3001 1304.9348,-170.3001"/>
<text text-anchor="middle" x="1252.1921" y="-171" font-family="Times,serif" font-size="14.00" fill="#000000">delegates</text>
</g>
<!-- 93d7256b&#45;b173&#45;4424&#45;8476&#45;c6b7b544e41e -->
<g id="node6" class="node">
<title>93d7256b&#45;b173&#45;4424&#45;8476&#45;c6b7b544e41e</title>
<g id="a_node6"><a xlink:href="full_org.owntracks.android.ui.welcome.WelcomeActivityModule_BindIntroFragment.IntroFragmentSubcomponent.svg" xlink:title="@PerFragment\nWelcomeActivityModule_BindIntroFragment.IntroFragmentSubcomponent">
<polygon fill="#7fffd4" stroke="#7fffd4" points="2102.2969,-187.4019 1660.2483,-187.4019 1660.2483,-146.1981 2102.2969,-146.1981 2102.2969,-187.4019"/>
<text text-anchor="middle" x="1881.2726" y="-171" font-family="Times,serif" font-size="14.00" fill="#000000">@PerFragment</text>
<text text-anchor="middle" x="1881.2726" y="-154.2" font-family="Times,serif" font-size="14.00" fill="#000000">WelcomeActivityModule_BindIntroFragment.IntroFragmentSubcomponent</text>
</a>
</g>
</g>
<!-- b6c0ad75&#45;db00&#45;44e0&#45;8cfb&#45;9fcf74843c62&#45;&gt;93d7256b&#45;b173&#45;4424&#45;8476&#45;c6b7b544e41e -->
<g id="edge3" class="edge">
<title>b6c0ad75&#45;db00&#45;44e0&#45;8cfb&#45;9fcf74843c62&#45;&gt;93d7256b&#45;b173&#45;4424&#45;8476&#45;c6b7b544e41e:w</title>
<path fill="none" stroke="#000000" stroke-dasharray="5,2" d="M1542.4102,-166.8C1576.5645,-166.8 1614.3904,-166.8 1649.8475,-166.8"/>
<polygon fill="#000000" stroke="#000000" points="1650.2726,-170.3001 1660.2726,-166.8 1650.2726,-163.3001 1650.2726,-170.3001"/>
<text text-anchor="middle" x="1601.1831" y="-171" font-family="Times,serif" font-size="14.00" fill="#000000">subcomponent</text>
</g>
<!-- dd55d895&#45;38d4&#45;4b3d&#45;8951&#45;1fc35e8a5616 -->
<g id="node3" class="node">
<title>dd55d895&#45;38d4&#45;4b3d&#45;8951&#45;1fc35e8a5616</title>
<polygon fill="#ff3030" stroke="#ff3030" points="593.4804,-130.8 15.8398,-130.8 15.8398,-94.8 593.4804,-94.8 593.4804,-130.8"/>
<text text-anchor="middle" x="304.6601" y="-108.6" font-family="Times,serif" font-size="14.00" fill="#000000">java.util.Map&lt;java.lang.String,javax.inject.Provider&lt;dagger.android.AndroidInjector.Factory&lt;?&gt;&gt;&gt;</text>
</g>
<!-- 37f07465&#45;a34e&#45;4b77&#45;ae77&#45;9d4c36f9e196 -->
<g id="node4" class="node">
<title>37f07465&#45;a34e&#45;4b77&#45;ae77&#45;9d4c36f9e196</title>
<polygon fill="#ff3030" stroke="#ff3030" points="440.8882,-76.8 168.432,-76.8 168.432,-40.8 440.8882,-40.8 440.8882,-76.8"/>
<text text-anchor="middle" x="304.6601" y="-54.6" font-family="Times,serif" font-size="14.00" fill="#000000">androidx.appcompat.app.AppCompatActivity</text>
</g>
<!-- 0b289eae&#45;3686&#45;4b27&#45;a041&#45;2f96bca18288 -->
<g id="node5" class="node">
<title>0b289eae&#45;3686&#45;4b27&#45;a041&#45;2f96bca18288</title>
<polygon fill="#40e0d0" stroke="#40e0d0" points="442.3996,-184.8 178.9206,-184.8 178.9206,-188.8 166.9206,-188.8 166.9206,-148.8 442.3996,-148.8 442.3996,-184.8"/>
<polyline fill="none" stroke="#40e0d0" points="166.9206,-184.8 178.9206,-184.8 "/>
<text text-anchor="middle" x="304.6601" y="-162.6" font-family="Times,serif" font-size="14.00" fill="#000000">Map&lt;Class&lt;?&gt;, AndroidInjector.Factory&lt;?&gt;&gt;</text>
</g>
<!-- 0b289eae&#45;3686&#45;4b27&#45;a041&#45;2f96bca18288&#45;&gt;9cf000c8&#45;0142&#45;4e3d&#45;987d&#45;7f17d5e770e6 -->
<g id="edge1" class="edge">
<title>0b289eae&#45;3686&#45;4b27&#45;a041&#45;2f96bca18288&#45;&gt;9cf000c8&#45;0142&#45;4e3d&#45;987d&#45;7f17d5e770e6</title>
<path fill="none" stroke="#000000" d="M442.3313,-166.8C500.4944,-166.8 568.9574,-166.8 630.8202,-166.8 630.8202,-166.8 630.8202,-166.8 706.8202,-166.8 715.7675,-166.8 724.888,-166.8 734.1012,-166.8"/>
<polygon fill="#000000" stroke="#000000" points="734.1312,-170.3001 744.1312,-166.8 734.1311,-163.3001 734.1312,-170.3001"/>
</g>
</g>
</svg>
