<svg width="1257px" height="169px"
 viewBox="0.00 0.00 1257.03 168.60" xmlns="http://www.w3.org/2000/svg" xmlns:xlink="http://www.w3.org/1999/xlink">
<g id="graph0" class="graph" transform="scale(1.0 1.0) rotate(0) translate(14.4 154.2)">
<title>org.owntracks.android.injection.modules.AndroidBindingModule → org.owntracks.android.injection.modules.AndroidBindingModule_BindPreferencesActivity.PreferencesActivitySubcomponent → org.owntracks.android.ui.preferences.PreferencesActivityModule_BindAdvancedPreferencesFragment.AdvancedFragmentSubcomponent</title>
<polygon fill="#ffffff" stroke="transparent" points="-14.4,14.4 -14.4,-154.2 1242.6278,-154.2 1242.6278,14.4 -14.4,14.4"/>
<text text-anchor="middle" x="614.1139" y="-8.2" font-family="Times,serif" font-size="14.00" fill="#000000">AndroidBindingModule → AndroidBindingModule_BindPreferencesActivity.PreferencesActivitySubcomponent → PreferencesActivityModule_BindAdvancedPreferencesFragment.AdvancedFragmentSubcomponent</text>
<g id="clust1" class="cluster">
<title>cluster_Entry Points</title>
<polygon fill="none" stroke="#000000" points="225.17,-35.8 225.17,-112.8 411.4962,-112.8 411.4962,-35.8 225.17,-35.8"/>
<text text-anchor="middle" x="267.9761" y="-96.2" font-family="Times,serif" font-size="14.00" fill="#000000">Entry Points</text>
</g>
<g id="clust4" class="cluster">
<title>cluster_AndroidBindingModule → AndroidBindingModule_BindPreferencesActivity.PreferencesActivitySubcomponent</title>
<g id="a_clust4"><a xlink:href="full_org.owntracks.android.injection.modules.AndroidBindingModule_BindPreferencesActivity.PreferencesActivitySubcomponent.svg" xlink:title="Inherited from AndroidBindingModule_BindPreferencesActivity.PreferencesActivitySubcomponent\n@PerActivity">
<polygon fill="none" stroke="#7fffd4" stroke-dasharray="5,2" points="431.4962,-32.8 431.4962,-131.8 1011.0578,-131.8 1011.0578,-32.8 431.4962,-32.8"/>
<text text-anchor="middle" x="721.277" y="-115.2" font-family="Times,serif" font-size="14.00" fill="#000000">Inherited from AndroidBindingModule_BindPreferencesActivity.PreferencesActivitySubcomponent</text>
<text text-anchor="middle" x="721.277" y="-98.4" font-family="Times,serif" font-size="14.00" fill="#000000">@PerActivity</text>
</a>
</g>
</g>
<!-- eb29acd1&#45;d715&#45;4377&#45;864f&#45;d288d097a4a2 -->
<g id="node1" class="node">
<title>eb29acd1&#45;d715&#45;4377&#45;864f&#45;d288d097a4a2</title>
<polygon fill="#40e0d0" stroke="#40e0d0" stroke-width="2" points="403.6596,-79.8 233.0066,-79.8 233.0066,-75.8 229.0066,-75.8 229.0066,-71.8 233.0066,-71.8 233.0066,-51.8 229.0066,-51.8 229.0066,-47.8 233.0066,-47.8 233.0066,-43.8 403.6596,-43.8 403.6596,-79.8"/>
<polyline fill="none" stroke="#40e0d0" stroke-width="2" points="233.0066,-75.8 237.0066,-75.8 237.0066,-71.8 233.0066,-71.8 "/>
<polyline fill="none" stroke="#40e0d0" stroke-width="2" points="233.0066,-51.8 237.0066,-51.8 237.0066,-47.8 233.0066,-47.8 "/>
<text text-anchor="middle" x="318.3331" y="-57.6" font-family="Times,serif" font-size="14.00" fill="#000000">inject (AdvancedFragment)</text>
</g>
<!-- 567a7532&#45;1568&#45;4cca&#45;8f9f&#45;5393d305f0fd -->
<g id="node2" class="node">
<title>567a7532&#45;1568&#45;4cca&#45;8f9f&#45;5393d305f0fd</title>
<polygon fill="#76ee00" stroke="#76ee00" points="761.8398,-82.4019 679.7142,-82.4019 679.7142,-41.1981 761.8398,-41.1981 761.8398,-82.4019"/>
<text text-anchor="middle" x="720.777" y="-66" font-family="Times,serif" font-size="14.00" fill="#000000">@Singleton</text>
<text text-anchor="middle" x="720.777" y="-49.2" font-family="Times,serif" font-size="14.00" fill="#000000">Preferences</text>
</g>
<!-- eb29acd1&#45;d715&#45;4377&#45;864f&#45;d288d097a4a2&#45;&gt;567a7532&#45;1568&#45;4cca&#45;8f9f&#45;5393d305f0fd -->
<g id="edge1" class="edge">
<title>eb29acd1&#45;d715&#45;4377&#45;864f&#45;d288d097a4a2&#45;&gt;567a7532&#45;1568&#45;4cca&#45;8f9f&#45;5393d305f0fd</title>
<path fill="none" stroke="#000000" d="M403.6811,-61.8C484.1685,-61.8 602.1766,-61.8 669.2154,-61.8"/>
<polygon fill="#000000" stroke="#000000" points="669.5236,-65.3001 679.5236,-61.8 669.5235,-58.3001 669.5236,-65.3001"/>
</g>
</g>
</svg>
