<svg width="801px" height="153px"
 viewBox="0.00 0.00 801.41 152.60" xmlns="http://www.w3.org/2000/svg" xmlns:xlink="http://www.w3.org/1999/xlink">
<g id="graph0" class="graph" transform="scale(1.0 1.0) rotate(0) translate(14.4 138.2)">
<title>org.owntracks.android.injection.modules.AndroidBindingModule → org.owntracks.android.injection.modules.AndroidBindingModule_BindBackgroundServiceReceiver.StartBackgroundServiceReceiverSubcomponent</title>
<polygon fill="#ffffff" stroke="transparent" points="-14.4,14.4 -14.4,-138.2 787.0104,-138.2 787.0104,14.4 -14.4,14.4"/>
<text text-anchor="middle" x="386.3052" y="-8.2" font-family="Times,serif" font-size="14.00" fill="#000000">AndroidBindingModule → AndroidBindingModule_BindBackgroundServiceReceiver.StartBackgroundServiceReceiverSubcomponent</text>
<g id="clust2" class="cluster">
<title>cluster_Dependency Graph</title>
<polygon fill="none" stroke="#000000" points="469.7801,-32.8 469.7801,-115.8 593.3417,-115.8 593.3417,-32.8 469.7801,-32.8"/>
<text text-anchor="middle" x="532.0035" y="-99.2" font-family="Times,serif" font-size="14.00" fill="#000000">Dependency Graph</text>
</g>
<g id="clust1" class="cluster">
<title>cluster_Entry Points</title>
<polygon fill="none" stroke="#000000" points="187.2687,-35.8 187.2687,-112.8 449.7801,-112.8 449.7801,-35.8 187.2687,-35.8"/>
<text text-anchor="middle" x="230.0748" y="-96.2" font-family="Times,serif" font-size="14.00" fill="#000000">Entry Points</text>
</g>
<!-- 6b11b3d9&#45;9850&#45;459e&#45;90bc&#45;d976508f79a9 -->
<g id="node1" class="node">
<title>6b11b3d9&#45;9850&#45;459e&#45;90bc&#45;d976508f79a9</title>
<polygon fill="#40e0d0" stroke="#40e0d0" stroke-width="2" points="441.5363,-79.8 195.5125,-79.8 195.5125,-75.8 191.5125,-75.8 191.5125,-71.8 195.5125,-71.8 195.5125,-51.8 191.5125,-51.8 191.5125,-47.8 195.5125,-47.8 195.5125,-43.8 441.5363,-43.8 441.5363,-79.8"/>
<polyline fill="none" stroke="#40e0d0" stroke-width="2" points="195.5125,-75.8 199.5125,-75.8 199.5125,-71.8 195.5125,-71.8 "/>
<polyline fill="none" stroke="#40e0d0" stroke-width="2" points="195.5125,-51.8 199.5125,-51.8 199.5125,-47.8 195.5125,-47.8 "/>
<text text-anchor="middle" x="318.5244" y="-57.6" font-family="Times,serif" font-size="14.00" fill="#000000">inject (StartBackgroundServiceReceiver)</text>
</g>
<!-- cee7d896&#45;6961&#45;414e&#45;9230&#45;6b784fa13662 -->
<g id="node2" class="node">
<title>cee7d896&#45;6961&#45;414e&#45;9230&#45;6b784fa13662</title>
<polygon fill="#76ee00" stroke="#76ee00" points="572.1237,-82.4019 489.9981,-82.4019 489.9981,-41.1981 572.1237,-41.1981 572.1237,-82.4019"/>
<text text-anchor="middle" x="531.0609" y="-66" font-family="Times,serif" font-size="14.00" fill="#000000">@Singleton</text>
<text text-anchor="middle" x="531.0609" y="-49.2" font-family="Times,serif" font-size="14.00" fill="#000000">Preferences</text>
</g>
<!-- 6b11b3d9&#45;9850&#45;459e&#45;90bc&#45;d976508f79a9&#45;&gt;cee7d896&#45;6961&#45;414e&#45;9230&#45;6b784fa13662 -->
<g id="edge1" class="edge">
<title>6b11b3d9&#45;9850&#45;459e&#45;90bc&#45;d976508f79a9&#45;&gt;cee7d896&#45;6961&#45;414e&#45;9230&#45;6b784fa13662</title>
<path fill="none" stroke="#000000" d="M441.5423,-61.8C454.7557,-61.8 467.6147,-61.8 479.2743,-61.8"/>
<polygon fill="#000000" stroke="#000000" points="479.6207,-65.3001 489.6206,-61.8 479.6206,-58.3001 479.6207,-65.3001"/>
</g>
</g>
</svg>
