<svg width="2188px" height="450px"
 viewBox="0.00 0.00 2187.88 449.60" xmlns="http://www.w3.org/2000/svg" xmlns:xlink="http://www.w3.org/1999/xlink">
<g id="graph0" class="graph" transform="scale(1.0 1.0) rotate(0) translate(14.4 435.2)">
<title>org.owntracks.android.injection.modules.AndroidBindingModule_BindContactsActivity</title>
<polygon fill="#ffffff" stroke="transparent" points="-14.4,14.4 -14.4,-435.2 2173.4786,-435.2 2173.4786,14.4 -14.4,14.4"/>
<text text-anchor="middle" x="140.2139" y="-8.2" font-family="Times,serif" font-size="14.00" fill="#000000">AndroidBindingModule_BindContactsActivity</text>
<g id="clust2" class="cluster">
<title>cluster_Dependency Graph</title>
<polygon fill="none" stroke="#000000" points="8,-32.8 8,-412.8 1570.6276,-412.8 1570.6276,-32.8 8,-32.8"/>
<text text-anchor="middle" x="70.2234" y="-396.2" font-family="Times,serif" font-size="14.00" fill="#000000">Dependency Graph</text>
</g>
<g id="clust3" class="cluster">
<title>cluster_Map&lt;Class&lt;?&gt;, AndroidInjector.Factory&lt;?&gt;&gt;</title>
<path fill="none" stroke="#000000" d="M171.0404,-302.8C171.0404,-302.8 1191.4122,-302.8 1191.4122,-302.8 1197.4122,-302.8 1203.4122,-308.8 1203.4122,-314.8 1203.4122,-314.8 1203.4122,-367.8 1203.4122,-367.8 1203.4122,-373.8 1197.4122,-379.8 1191.4122,-379.8 1191.4122,-379.8 171.0404,-379.8 171.0404,-379.8 165.0404,-379.8 159.0404,-373.8 159.0404,-367.8 159.0404,-367.8 159.0404,-314.8 159.0404,-314.8 159.0404,-308.8 165.0404,-302.8 171.0404,-302.8"/>
<text text-anchor="middle" x="681.2263" y="-363.2" font-family="Times,serif" font-size="14.00" fill="#000000">Map&lt;Class&lt;?&gt;, AndroidInjector.Factory&lt;?&gt;&gt;</text>
</g>
<g id="clust4" class="cluster">
<title>cluster_Subcomponents</title>
<polygon fill="none" stroke="#000000" points="1672.2826,-299.8 1672.2826,-382.8 2151.0786,-382.8 2151.0786,-299.8 1672.2826,-299.8"/>
<text text-anchor="middle" x="1725.0014" y="-366.2" font-family="Times,serif" font-size="14.00" fill="#000000">Subcomponents</text>
</g>
<!-- 92d3711d&#45;dd88&#45;42cc&#45;9032&#45;99820d114801 -->
<g id="node1" class="node">
<title>92d3711d&#45;dd88&#45;42cc&#45;9032&#45;99820d114801</title>
<polygon fill="#40e0d0" stroke="#40e0d0" points="1195.4582,-346.8 744.2742,-346.8 744.2742,-310.8 1195.4582,-310.8 1195.4582,-346.8"/>
<text text-anchor="middle" x="969.8662" y="-324.6" font-family="Times,serif" font-size="14.00" fill="#000000">AndroidBindingModule_BindContactsActivity.bindAndroidInjectorFactory()</text>
</g>
<!-- a2a2862f&#45;3cc7&#45;4fd1&#45;9129&#45;87a71b8b8480 -->
<g id="node2" class="node">
<title>a2a2862f&#45;3cc7&#45;4fd1&#45;9129&#45;87a71b8b8480</title>
<polygon fill="#40e0d0" stroke="#40e0d0" points="1562.6932,-357.4014 1321.4308,-357.4014 1321.4308,-300.1986 1562.6932,-300.1986 1562.6932,-357.4014"/>
<text text-anchor="middle" x="1442.062" y="-341" font-family="Times,serif" font-size="14.00" fill="#000000">ContactsActivitySubcomponent.Factory</text>
<text text-anchor="middle" x="1442.062" y="-308.2" font-family="Times,serif" font-size="14.00" fill="#000000">Subcomponent Creator</text>
</g>
<!-- 92d3711d&#45;dd88&#45;42cc&#45;9032&#45;99820d114801&#45;&gt;a2a2862f&#45;3cc7&#45;4fd1&#45;9129&#45;87a71b8b8480 -->
<g id="edge2" class="edge">
<title>92d3711d&#45;dd88&#45;42cc&#45;9032&#45;99820d114801&#45;&gt;a2a2862f&#45;3cc7&#45;4fd1&#45;9129&#45;87a71b8b8480</title>
<path fill="none" stroke="#000000" stroke-dasharray="1,5" d="M1195.5917,-328.8C1235.2548,-328.8 1275.309,-328.8 1311.2653,-328.8"/>
<polygon fill="#000000" stroke="#000000" points="1311.2944,-332.3001 1321.2944,-328.8 1311.2943,-325.3001 1311.2944,-332.3001"/>
<text text-anchor="middle" x="1258.4543" y="-333" font-family="Times,serif" font-size="14.00" fill="#000000">delegates</text>
</g>
<!-- 48d589c1&#45;0845&#45;497c&#45;8296&#45;b332c09b3d27 -->
<g id="node9" class="node">
<title>48d589c1&#45;0845&#45;497c&#45;8296&#45;b332c09b3d27</title>
<g id="a_node9"><a xlink:href="full_org.owntracks.android.injection.modules.AndroidBindingModule_BindContactsActivity.ContactsActivitySubcomponent.svg" xlink:title="@PerActivity\nAndroidBindingModule_BindContactsActivity.ContactsActivitySubcomponent">
<polygon fill="#7fffd4" stroke="#7fffd4" points="2142.9766,-349.4019 1680.3846,-349.4019 1680.3846,-308.1981 2142.9766,-308.1981 2142.9766,-349.4019"/>
<text text-anchor="middle" x="1911.6806" y="-333" font-family="Times,serif" font-size="14.00" fill="#000000">@PerActivity</text>
<text text-anchor="middle" x="1911.6806" y="-316.2" font-family="Times,serif" font-size="14.00" fill="#000000">AndroidBindingModule_BindContactsActivity.ContactsActivitySubcomponent</text>
</a>
</g>
</g>
<!-- a2a2862f&#45;3cc7&#45;4fd1&#45;9129&#45;87a71b8b8480&#45;&gt;48d589c1&#45;0845&#45;497c&#45;8296&#45;b332c09b3d27 -->
<g id="edge3" class="edge">
<title>a2a2862f&#45;3cc7&#45;4fd1&#45;9129&#45;87a71b8b8480&#45;&gt;48d589c1&#45;0845&#45;497c&#45;8296&#45;b332c09b3d27:w</title>
<path fill="none" stroke="#000000" stroke-dasharray="5,2" d="M1562.841,-328.8C1597.1889,-328.8 1634.8858,-328.8 1670.2738,-328.8"/>
<polygon fill="#000000" stroke="#000000" points="1670.6806,-332.3001 1680.6806,-328.8 1670.6806,-325.3001 1670.6806,-332.3001"/>
<text text-anchor="middle" x="1621.4551" y="-333" font-family="Times,serif" font-size="14.00" fill="#000000">subcomponent</text>
</g>
<!-- 8665956e&#45;afea&#45;44e8&#45;a1ff&#45;1bafe0028f7d -->
<g id="node3" class="node">
<title>8665956e&#45;afea&#45;44e8&#45;a1ff&#45;1bafe0028f7d</title>
<polygon fill="#ff3030" stroke="#ff3030" points="409.6651,-292.8 199.6551,-292.8 199.6551,-256.8 409.6651,-256.8 409.6651,-292.8"/>
<text text-anchor="middle" x="304.6601" y="-270.6" font-family="Times,serif" font-size="14.00" fill="#000000">org.greenrobot.eventbus.EventBus</text>
</g>
<!-- 8785c5b2&#45;99c1&#45;4a34&#45;b7c8&#45;447f957f4635 -->
<g id="node4" class="node">
<title>8785c5b2&#45;99c1&#45;4a34&#45;b7c8&#45;447f957f4635</title>
<polygon fill="#ff3030" stroke="#ff3030" points="593.4804,-238.8 15.8398,-238.8 15.8398,-202.8 593.4804,-202.8 593.4804,-238.8"/>
<text text-anchor="middle" x="304.6601" y="-216.6" font-family="Times,serif" font-size="14.00" fill="#000000">java.util.Map&lt;java.lang.String,javax.inject.Provider&lt;dagger.android.AndroidInjector.Factory&lt;?&gt;&gt;&gt;</text>
</g>
<!-- 581e3250&#45;d0fd&#45;4512&#45;8b19&#45;54bd84d9a63d -->
<g id="node5" class="node">
<title>581e3250&#45;d0fd&#45;4512&#45;8b19&#45;54bd84d9a63d</title>
<polygon fill="#ff3030" stroke="#ff3030" points="446.8007,-184.8 162.5195,-184.8 162.5195,-148.8 446.8007,-148.8 446.8007,-184.8"/>
<text text-anchor="middle" x="304.6601" y="-162.6" font-family="Times,serif" font-size="14.00" fill="#000000">org.owntracks.android.data.repos.ContactsRepo</text>
</g>
<!-- 9a947a45&#45;eb83&#45;4c66&#45;a164&#45;ae8915cbdfa0 -->
<g id="node6" class="node">
<title>9a947a45&#45;eb83&#45;4c66&#45;a164&#45;ae8915cbdfa0</title>
<polygon fill="#ff3030" stroke="#ff3030" points="539.1721,-130.8 70.1481,-130.8 70.1481,-94.8 539.1721,-94.8 539.1721,-130.8"/>
<text text-anchor="middle" x="304.6601" y="-108.6" font-family="Times,serif" font-size="14.00" fill="#000000">@org.owntracks.android.injection.qualifier.AppContext android.content.Context</text>
</g>
<!-- 507c65a2&#45;e235&#45;4560&#45;8807&#45;7b54e8f0ad5e -->
<g id="node7" class="node">
<title>507c65a2&#45;e235&#45;4560&#45;8807&#45;7b54e8f0ad5e</title>
<polygon fill="#ff3030" stroke="#ff3030" points="481.4438,-76.8 127.8764,-76.8 127.8764,-40.8 481.4438,-40.8 481.4438,-76.8"/>
<text text-anchor="middle" x="304.6601" y="-54.6" font-family="Times,serif" font-size="14.00" fill="#000000">org.owntracks.android.support.preferences.PreferencesStore</text>
</g>
<!-- e7f8205a&#45;5f29&#45;4c13&#45;9b9e&#45;9b8fbb648638 -->
<g id="node8" class="node">
<title>e7f8205a&#45;5f29&#45;4c13&#45;9b9e&#45;9b8fbb648638</title>
<polygon fill="#40e0d0" stroke="#40e0d0" points="442.3996,-346.8 178.9206,-346.8 178.9206,-350.8 166.9206,-350.8 166.9206,-310.8 442.3996,-310.8 442.3996,-346.8"/>
<polyline fill="none" stroke="#40e0d0" points="166.9206,-346.8 178.9206,-346.8 "/>
<text text-anchor="middle" x="304.6601" y="-324.6" font-family="Times,serif" font-size="14.00" fill="#000000">Map&lt;Class&lt;?&gt;, AndroidInjector.Factory&lt;?&gt;&gt;</text>
</g>
<!-- e7f8205a&#45;5f29&#45;4c13&#45;9b9e&#45;9b8fbb648638&#45;&gt;92d3711d&#45;dd88&#45;42cc&#45;9032&#45;99820d114801 -->
<g id="edge1" class="edge">
<title>e7f8205a&#45;5f29&#45;4c13&#45;9b9e&#45;9b8fbb648638&#45;&gt;92d3711d&#45;dd88&#45;42cc&#45;9032&#45;99820d114801</title>
<path fill="none" stroke="#000000" d="M442.3313,-328.8C500.4944,-328.8 568.9574,-328.8 630.8202,-328.8 630.8202,-328.8 630.8202,-328.8 706.8202,-328.8 715.7914,-328.8 724.9347,-328.8 734.1709,-328.8"/>
<polygon fill="#000000" stroke="#000000" points="734.2259,-332.3001 744.2258,-328.8 734.2258,-325.3001 734.2259,-332.3001"/>
</g>
</g>
</svg>
