<svg width="2106px" height="1018px"
 viewBox="0.00 0.00 2106.50 1017.60" xmlns="http://www.w3.org/2000/svg" xmlns:xlink="http://www.w3.org/1999/xlink">
<g id="graph0" class="graph" transform="scale(1.0 1.0) rotate(0) translate(14.4 1003.2)">
<title>org.owntracks.android.injection.modules.AndroidBindingModule → org.owntracks.android.injection.modules.AndroidBindingModule_BindRegionActivity.RegionActivitySubcomponent</title>
<polygon fill="#ffffff" stroke="transparent" points="-14.4,14.4 -14.4,-1003.2 2092.0969,-1003.2 2092.0969,14.4 -14.4,14.4"/>
<text text-anchor="middle" x="299.2609" y="-8.2" font-family="Times,serif" font-size="14.00" fill="#000000">AndroidBindingModule → AndroidBindingModule_BindRegionActivity.RegionActivitySubcomponent</text>
<g id="clust2" class="cluster">
<title>cluster_Dependency Graph</title>
<polygon fill="none" stroke="#000000" points="191.2476,-44.8 191.2476,-980.8 2069.6969,-980.8 2069.6969,-44.8 191.2476,-44.8"/>
<text text-anchor="middle" x="253.471" y="-964.2" font-family="Times,serif" font-size="14.00" fill="#000000">Dependency Graph</text>
</g>
<g id="clust3" class="cluster">
<title>cluster_Map&lt;Class&lt;?&gt;, Provider&lt;AndroidInjector.Factory&lt;?&gt;&gt;&gt;</title>
<path fill="none" stroke="#000000" d="M620.8616,-222.8C620.8616,-222.8 1724.6388,-222.8 1724.6388,-222.8 1730.6388,-222.8 1736.6388,-228.8 1736.6388,-234.8 1736.6388,-234.8 1736.6388,-935.8 1736.6388,-935.8 1736.6388,-941.8 1730.6388,-947.8 1724.6388,-947.8 1724.6388,-947.8 620.8616,-947.8 620.8616,-947.8 614.8616,-947.8 608.8616,-941.8 608.8616,-935.8 608.8616,-935.8 608.8616,-234.8 608.8616,-234.8 608.8616,-228.8 614.8616,-222.8 620.8616,-222.8"/>
<text text-anchor="middle" x="1172.7502" y="-931.2" font-family="Times,serif" font-size="14.00" fill="#000000">Map&lt;Class&lt;?&gt;, Provider&lt;AndroidInjector.Factory&lt;?&gt;&gt;&gt;</text>
</g>
<g id="clust1" class="cluster">
<title>cluster_Entry Points</title>
<polygon fill="none" stroke="#000000" points="8,-144.8 8,-221.8 170.2476,-221.8 170.2476,-144.8 8,-144.8"/>
<text text-anchor="middle" x="50.8061" y="-205.2" font-family="Times,serif" font-size="14.00" fill="#000000">Entry Points</text>
</g>
<!-- be69c7d8&#45;e0ce&#45;4bd4&#45;9c3a&#45;5d0ed33e8e24 -->
<g id="node1" class="node">
<title>be69c7d8&#45;e0ce&#45;4bd4&#45;9c3a&#45;5d0ed33e8e24</title>
<polygon fill="#40e0d0" stroke="#40e0d0" stroke-width="2" points="162.3716,-188.8 15.876,-188.8 15.876,-184.8 11.876,-184.8 11.876,-180.8 15.876,-180.8 15.876,-160.8 11.876,-160.8 11.876,-156.8 15.876,-156.8 15.876,-152.8 162.3716,-152.8 162.3716,-188.8"/>
<polyline fill="none" stroke="#40e0d0" stroke-width="2" points="15.876,-184.8 19.876,-184.8 19.876,-180.8 15.876,-180.8 "/>
<polyline fill="none" stroke="#40e0d0" stroke-width="2" points="15.876,-160.8 19.876,-160.8 19.876,-156.8 15.876,-156.8 "/>
<text text-anchor="middle" x="89.1238" y="-166.6" font-family="Times,serif" font-size="14.00" fill="#000000">inject (RegionActivity)</text>
</g>
<!-- fd91bd1d&#45;b348&#45;4b2a&#45;a111&#45;2202d9ff292b -->
<g id="node2" class="node">
<title>fd91bd1d&#45;b348&#45;4b2a&#45;a111&#45;2202d9ff292b</title>
<polygon fill="#40e0d0" stroke="#40e0d0" points="458.4603,-444.8 231.5647,-444.8 231.5647,-408.8 458.4603,-408.8 458.4603,-444.8"/>
<text text-anchor="middle" x="345.0125" y="-422.6" font-family="Times,serif" font-size="14.00" fill="#000000">DispatchingAndroidInjector&lt;Object&gt;</text>
</g>
<!-- be69c7d8&#45;e0ce&#45;4bd4&#45;9c3a&#45;5d0ed33e8e24&#45;&gt;fd91bd1d&#45;b348&#45;4b2a&#45;a111&#45;2202d9ff292b -->
<g id="edge3" class="edge">
<title>be69c7d8&#45;e0ce&#45;4bd4&#45;9c3a&#45;5d0ed33e8e24&#45;&gt;fd91bd1d&#45;b348&#45;4b2a&#45;a111&#45;2202d9ff292b</title>
<path fill="none" stroke="#000000" d="M107.1174,-188.8014C151.79,-233.4934 267.877,-349.631 319.5551,-401.3316"/>
<polygon fill="#000000" stroke="#000000" points="317.1513,-403.8775 326.6963,-408.4758 322.1021,-398.9288 317.1513,-403.8775"/>
</g>
<!-- 6d648729&#45;0b8d&#45;4db1&#45;8645&#45;15d524243a4c -->
<g id="node3" class="node">
<title>6d648729&#45;0b8d&#45;4db1&#45;8645&#45;15d524243a4c</title>
<polygon fill="#40e0d0" stroke="#40e0d0" points="490.5427,-188.8 199.4823,-188.8 199.4823,-152.8 490.5427,-152.8 490.5427,-188.8"/>
<text text-anchor="middle" x="345.0125" y="-166.6" font-family="Times,serif" font-size="14.00" fill="#000000">RegionMvvm.ViewModel&lt;RegionMvvm.View&gt;</text>
</g>
<!-- be69c7d8&#45;e0ce&#45;4bd4&#45;9c3a&#45;5d0ed33e8e24&#45;&gt;6d648729&#45;0b8d&#45;4db1&#45;8645&#45;15d524243a4c -->
<g id="edge1" class="edge">
<title>be69c7d8&#45;e0ce&#45;4bd4&#45;9c3a&#45;5d0ed33e8e24&#45;&gt;6d648729&#45;0b8d&#45;4db1&#45;8645&#45;15d524243a4c</title>
<path fill="none" stroke="#000000" d="M162.4512,-170.8C171.0193,-170.8 179.9896,-170.8 189.161,-170.8"/>
<polygon fill="#000000" stroke="#000000" points="189.1824,-174.3001 199.1824,-170.8 189.1824,-167.3001 189.1824,-174.3001"/>
</g>
<!-- 8dc85818&#45;2648&#45;4eb6&#45;8e98&#45;03a621ce5ee3 -->
<g id="node4" class="node">
<title>8dc85818&#45;2648&#45;4eb6&#45;8e98&#45;03a621ce5ee3</title>
<polygon fill="#7fffd4" stroke="#7fffd4" points="1137.3582,-94.4019 1031.0128,-94.4019 1031.0128,-53.1981 1137.3582,-53.1981 1137.3582,-94.4019"/>
<text text-anchor="middle" x="1084.1855" y="-78" font-family="Times,serif" font-size="14.00" fill="#000000">@PerActivity</text>
<text text-anchor="middle" x="1084.1855" y="-61.2" font-family="Times,serif" font-size="14.00" fill="#000000">DrawerProvider</text>
</g>
<!-- be69c7d8&#45;e0ce&#45;4bd4&#45;9c3a&#45;5d0ed33e8e24&#45;&gt;8dc85818&#45;2648&#45;4eb6&#45;8e98&#45;03a621ce5ee3 -->
<g id="edge4" class="edge">
<title>be69c7d8&#45;e0ce&#45;4bd4&#45;9c3a&#45;5d0ed33e8e24&#45;&gt;8dc85818&#45;2648&#45;4eb6&#45;8e98&#45;03a621ce5ee3</title>
<path fill="none" stroke="#000000" d="M121.534,-152.7799C169.0457,-128.0979 261.0828,-86.8 345.0125,-86.8 345.0125,-86.8 345.0125,-86.8 993.5992,-86.8 1002.3723,-86.8 1011.5753,-86.1952 1020.6146,-85.2464"/>
<polygon fill="#000000" stroke="#000000" points="1021.2031,-88.7012 1030.719,-84.043 1020.3753,-81.7503 1021.2031,-88.7012"/>
</g>
<!-- e018ddea&#45;7fb9&#45;4c50&#45;bb6a&#45;d679fa2fddee -->
<g id="node5" class="node">
<title>e018ddea&#45;7fb9&#45;4c50&#45;bb6a&#45;d679fa2fddee</title>
<polygon fill="#76ee00" stroke="#76ee00" points="1999.2727,-94.4019 1917.1472,-94.4019 1917.1472,-53.1981 1999.2727,-53.1981 1999.2727,-94.4019"/>
<text text-anchor="middle" x="1958.2099" y="-78" font-family="Times,serif" font-size="14.00" fill="#000000">@Singleton</text>
<text text-anchor="middle" x="1958.2099" y="-61.2" font-family="Times,serif" font-size="14.00" fill="#000000">Preferences</text>
</g>
<!-- be69c7d8&#45;e0ce&#45;4bd4&#45;9c3a&#45;5d0ed33e8e24&#45;&gt;e018ddea&#45;7fb9&#45;4c50&#45;bb6a&#45;d679fa2fddee -->
<g id="edge2" class="edge">
<title>be69c7d8&#45;e0ce&#45;4bd4&#45;9c3a&#45;5d0ed33e8e24&#45;&gt;e018ddea&#45;7fb9&#45;4c50&#45;bb6a&#45;d679fa2fddee</title>
<path fill="none" stroke="#000000" d="M106.1039,-152.6042C144.5695,-113.4663 242.9731,-24.8 345.0125,-24.8 345.0125,-24.8 345.0125,-24.8 1791.6809,-24.8 1831.8648,-24.8 1875.366,-38.093 1907.8275,-50.8317"/>
<polygon fill="#000000" stroke="#000000" points="1906.5209,-54.0786 1917.1041,-54.5745 1909.1401,-47.587 1906.5209,-54.0786"/>
</g>
<!-- 2d5c9af7&#45;db91&#45;484a&#45;aab7&#45;15c5d2c74bc0 -->
<g id="node6" class="node">
<title>2d5c9af7&#45;db91&#45;484a&#45;aab7&#45;15c5d2c74bc0</title>
<polygon fill="#7fffd4" stroke="#7fffd4" points="1131.1205,-214.4019 1037.2505,-214.4019 1037.2505,-173.1981 1131.1205,-173.1981 1131.1205,-214.4019"/>
<text text-anchor="middle" x="1084.1855" y="-198" font-family="Times,serif" font-size="14.00" fill="#000000">@PerActivity</text>
<text text-anchor="middle" x="1084.1855" y="-181.2" font-family="Times,serif" font-size="14.00" fill="#000000">Navigator</text>
</g>
<!-- be69c7d8&#45;e0ce&#45;4bd4&#45;9c3a&#45;5d0ed33e8e24&#45;&gt;2d5c9af7&#45;db91&#45;484a&#45;aab7&#45;15c5d2c74bc0 -->
<g id="edge5" class="edge">
<title>be69c7d8&#45;e0ce&#45;4bd4&#45;9c3a&#45;5d0ed33e8e24&#45;&gt;2d5c9af7&#45;db91&#45;484a&#45;aab7&#45;15c5d2c74bc0</title>
<path fill="none" stroke="#000000" d="M90.8587,-188.8984C102.6858,-307.2344 176.0942,-965.8 345.0125,-965.8 345.0125,-965.8 345.0125,-965.8 993.5992,-965.8 1069.5525,-965.8 1081.9738,-368.7338 1083.8649,-224.7604"/>
<polygon fill="#000000" stroke="#000000" points="1087.3684,-224.4916 1083.9922,-214.4491 1080.3689,-224.4051 1087.3684,-224.4916"/>
</g>
<!-- a871f48f&#45;c7b0&#45;422b&#45;b309&#45;b3efa367eb7f -->
<g id="node12" class="node">
<title>a871f48f&#45;c7b0&#45;422b&#45;b309&#45;b3efa367eb7f</title>
<polygon fill="#40e0d0" stroke="#40e0d0" points="956.2181,-576.8 628.7427,-576.8 628.7427,-580.8 616.7427,-580.8 616.7427,-540.8 956.2181,-540.8 956.2181,-576.8"/>
<polyline fill="none" stroke="#40e0d0" points="616.7427,-576.8 628.7427,-576.8 "/>
<text text-anchor="middle" x="786.4804" y="-554.6" font-family="Times,serif" font-size="14.00" fill="#000000">Map&lt;Class&lt;?&gt;, Provider&lt;AndroidInjector.Factory&lt;?&gt;&gt;&gt;</text>
</g>
<!-- fd91bd1d&#45;b348&#45;4b2a&#45;a111&#45;2202d9ff292b&#45;&gt;a871f48f&#45;c7b0&#45;422b&#45;b309&#45;b3efa367eb7f -->
<g id="edge6" class="edge">
<title>fd91bd1d&#45;b348&#45;4b2a&#45;a111&#45;2202d9ff292b&#45;&gt;a871f48f&#45;c7b0&#45;422b&#45;b309&#45;b3efa367eb7f</title>
<path fill="none" stroke="#000000" d="M379.7878,-444.9088C429.2668,-469.8265 523.4717,-514.1655 608.8616,-536.8 610.9148,-537.3442 612.9849,-537.8751 615.0697,-538.3929"/>
<polygon fill="#000000" stroke="#000000" points="614.3874,-541.828 624.9244,-540.7222 615.9977,-535.0157 614.3874,-541.828"/>
</g>
<!-- 5ae22e73&#45;e0d4&#45;4997&#45;ad21&#45;2343cebc58dc -->
<g id="node7" class="node">
<title>5ae22e73&#45;e0d4&#45;4997&#45;ad21&#45;2343cebc58dc</title>
<polygon fill="#7fffd4" stroke="#7fffd4" points="848.2908,-191.4019 724.67,-191.4019 724.67,-150.1981 848.2908,-150.1981 848.2908,-191.4019"/>
<text text-anchor="middle" x="786.4804" y="-175" font-family="Times,serif" font-size="14.00" fill="#000000">@PerActivity</text>
<text text-anchor="middle" x="786.4804" y="-158.2" font-family="Times,serif" font-size="14.00" fill="#000000">RegionViewModel</text>
</g>
<!-- 6d648729&#45;0b8d&#45;4db1&#45;8645&#45;15d524243a4c&#45;&gt;5ae22e73&#45;e0d4&#45;4997&#45;ad21&#45;2343cebc58dc -->
<g id="edge7" class="edge">
<title>6d648729&#45;0b8d&#45;4db1&#45;8645&#45;15d524243a4c&#45;&gt;5ae22e73&#45;e0d4&#45;4997&#45;ad21&#45;2343cebc58dc</title>
<path fill="none" stroke="#000000" stroke-dasharray="1,5" d="M490.7891,-170.8C565.8129,-170.8 653.9459,-170.8 714.3536,-170.8"/>
<polygon fill="#000000" stroke="#000000" points="714.5513,-174.3001 724.5513,-170.8 714.5513,-167.3001 714.5513,-174.3001"/>
<text text-anchor="middle" x="553.8195" y="-175" font-family="Times,serif" font-size="14.00" fill="#000000">delegates</text>
</g>
<!-- 3ecdecf3&#45;205c&#45;468b&#45;9641&#45;ec9d4cc9bbfc -->
<g id="node9" class="node">
<title>3ecdecf3&#45;205c&#45;468b&#45;9641&#45;ec9d4cc9bbfc</title>
<polygon fill="#7fffd4" stroke="#7fffd4" points="1535.7783,-183.4019 1405.1323,-183.4019 1405.1323,-142.1981 1535.7783,-142.1981 1535.7783,-183.4019"/>
<text text-anchor="middle" x="1470.4553" y="-167" font-family="Times,serif" font-size="14.00" fill="#000000">@PerActivity</text>
<text text-anchor="middle" x="1470.4553" y="-150.2" font-family="Times,serif" font-size="14.00" fill="#000000">AppCompatActivity</text>
</g>
<!-- 8dc85818&#45;2648&#45;4eb6&#45;8e98&#45;03a621ce5ee3&#45;&gt;3ecdecf3&#45;205c&#45;468b&#45;9641&#45;ec9d4cc9bbfc -->
<g id="edge8" class="edge">
<title>8dc85818&#45;2648&#45;4eb6&#45;8e98&#45;03a621ce5ee3&#45;&gt;3ecdecf3&#45;205c&#45;468b&#45;9641&#45;ec9d4cc9bbfc</title>
<path fill="none" stroke="#000000" d="M1137.4529,-86.3441C1160.4584,-91.7441 1187.6842,-98.1113 1212.2718,-103.8 1273.7958,-118.0346 1343.618,-133.9776 1395.1258,-145.6986"/>
<polygon fill="#000000" stroke="#000000" points="1394.648,-149.1793 1405.1753,-147.9848 1396.2009,-142.3537 1394.648,-149.1793"/>
</g>
<!-- 6575aae9&#45;927c&#45;48eb&#45;81d8&#45;dcbde41e1457 -->
<g id="node11" class="node">
<title>6575aae9&#45;927c&#45;48eb&#45;81d8&#45;dcbde41e1457</title>
<polygon fill="#76ee00" stroke="#76ee00" points="1511.5181,-94.4019 1429.3925,-94.4019 1429.3925,-53.1981 1511.5181,-53.1981 1511.5181,-94.4019"/>
<text text-anchor="middle" x="1470.4553" y="-78" font-family="Times,serif" font-size="14.00" fill="#000000">@Singleton</text>
<text text-anchor="middle" x="1470.4553" y="-61.2" font-family="Times,serif" font-size="14.00" fill="#000000">Scheduler</text>
</g>
<!-- 8dc85818&#45;2648&#45;4eb6&#45;8e98&#45;03a621ce5ee3&#45;&gt;6575aae9&#45;927c&#45;48eb&#45;81d8&#45;dcbde41e1457 -->
<g id="edge9" class="edge">
<title>8dc85818&#45;2648&#45;4eb6&#45;8e98&#45;03a621ce5ee3&#45;&gt;6575aae9&#45;927c&#45;48eb&#45;81d8&#45;dcbde41e1457</title>
<path fill="none" stroke="#000000" d="M1137.4891,-73.8C1211.7573,-73.8 1345.4839,-73.8 1418.839,-73.8"/>
<polygon fill="#000000" stroke="#000000" points="1419.2096,-77.3001 1429.2096,-73.8 1419.2095,-70.3001 1419.2096,-77.3001"/>
</g>
<!-- 2d5c9af7&#45;db91&#45;484a&#45;aab7&#45;15c5d2c74bc0&#45;&gt;3ecdecf3&#45;205c&#45;468b&#45;9641&#45;ec9d4cc9bbfc -->
<g id="edge12" class="edge">
<title>2d5c9af7&#45;db91&#45;484a&#45;aab7&#45;15c5d2c74bc0&#45;&gt;3ecdecf3&#45;205c&#45;468b&#45;9641&#45;ec9d4cc9bbfc</title>
<path fill="none" stroke="#000000" d="M1131.1636,-190.0298C1196.7783,-184.7639 1316.5937,-175.1481 1394.8574,-168.8671"/>
<polygon fill="#000000" stroke="#000000" points="1395.4511,-172.3308 1405.139,-168.0419 1394.8911,-165.3532 1395.4511,-172.3308"/>
</g>
<!-- 5ae22e73&#45;e0d4&#45;4997&#45;ad21&#45;2343cebc58dc&#45;&gt;2d5c9af7&#45;db91&#45;484a&#45;aab7&#45;15c5d2c74bc0 -->
<g id="edge11" class="edge">
<title>5ae22e73&#45;e0d4&#45;4997&#45;ad21&#45;2343cebc58dc&#45;&gt;2d5c9af7&#45;db91&#45;484a&#45;aab7&#45;15c5d2c74bc0</title>
<path fill="none" stroke="#000000" d="M848.1651,-175.5656C900.7455,-179.6279 975.7312,-185.4211 1026.9838,-189.3807"/>
<polygon fill="#000000" stroke="#000000" points="1026.9838,-192.8911 1037.2237,-190.1718 1027.523,-185.9119 1026.9838,-192.8911"/>
</g>
<!-- 60ef4954&#45;e595&#45;44c9&#45;803f&#45;859a9b1d5fea -->
<g id="node8" class="node">
<title>60ef4954&#45;e595&#45;44c9&#45;803f&#45;859a9b1d5fea</title>
<polygon fill="#76ee00" stroke="#76ee00" points="1132.0002,-154.4019 1036.3708,-154.4019 1036.3708,-113.1981 1132.0002,-113.1981 1132.0002,-154.4019"/>
<text text-anchor="middle" x="1084.1855" y="-138" font-family="Times,serif" font-size="14.00" fill="#000000">@Singleton</text>
<text text-anchor="middle" x="1084.1855" y="-121.2" font-family="Times,serif" font-size="14.00" fill="#000000">LocationRepo</text>
</g>
<!-- 5ae22e73&#45;e0d4&#45;4997&#45;ad21&#45;2343cebc58dc&#45;&gt;60ef4954&#45;e595&#45;44c9&#45;803f&#45;859a9b1d5fea -->
<g id="edge26" class="edge">
<title>5ae22e73&#45;e0d4&#45;4997&#45;ad21&#45;2343cebc58dc&#45;&gt;60ef4954&#45;e595&#45;44c9&#45;803f&#45;859a9b1d5fea</title>
<path fill="none" stroke="#000000" d="M848.1651,-163.1336C900.4269,-156.6383 974.8231,-147.392 1026.0493,-141.0254"/>
<polygon fill="#000000" stroke="#000000" points="1026.8001,-144.4591 1036.2921,-139.7524 1025.9367,-137.5126 1026.8001,-144.4591"/>
</g>
<!-- 6565d266&#45;2f3a&#45;4d94&#45;ac3d&#45;2da53c11f689 -->
<g id="node10" class="node">
<title>6565d266&#45;2f3a&#45;4d94&#45;ac3d&#45;2da53c11f689</title>
<polygon fill="#40e0d0" stroke="#40e0d0" points="2061.6838,-180.8 1897.08,-180.8 1854.7361,-144.8 2019.3398,-144.8 2061.6838,-180.8"/>
<text text-anchor="middle" x="1958.2099" y="-158.6" font-family="Times,serif" font-size="14.00" fill="#000000">RegionActivity</text>
</g>
<!-- 3ecdecf3&#45;205c&#45;468b&#45;9641&#45;ec9d4cc9bbfc&#45;&gt;6565d266&#45;2f3a&#45;4d94&#45;ac3d&#45;2da53c11f689 -->
<g id="edge27" class="edge">
<title>3ecdecf3&#45;205c&#45;468b&#45;9641&#45;ec9d4cc9bbfc&#45;&gt;6565d266&#45;2f3a&#45;4d94&#45;ac3d&#45;2da53c11f689</title>
<path fill="none" stroke="#000000" stroke-dasharray="1,5" d="M1535.7299,-162.8C1620.5969,-162.8 1769.3395,-162.8 1865.7814,-162.8"/>
<polygon fill="#000000" stroke="#000000" points="1865.8188,-166.3001 1875.8187,-162.8 1865.8187,-159.3001 1865.8188,-166.3001"/>
<text text-anchor="middle" x="1791.6809" y="-167" font-family="Times,serif" font-size="14.00" fill="#000000">delegates</text>
</g>
<!-- 6575aae9&#45;927c&#45;48eb&#45;81d8&#45;dcbde41e1457&#45;&gt;e018ddea&#45;7fb9&#45;4c50&#45;bb6a&#45;d679fa2fddee -->
<g id="edge10" class="edge">
<title>6575aae9&#45;927c&#45;48eb&#45;81d8&#45;dcbde41e1457&#45;&gt;e018ddea&#45;7fb9&#45;4c50&#45;bb6a&#45;d679fa2fddee</title>
<path fill="none" stroke="#000000" d="M1511.6206,-73.8C1600.3698,-73.8 1809.5389,-73.8 1906.8071,-73.8"/>
<polygon fill="#000000" stroke="#000000" points="1906.9828,-77.3001 1916.9827,-73.8 1906.9827,-70.3001 1906.9828,-77.3001"/>
</g>
<!-- 06e64e38&#45;ad93&#45;4cf5&#45;ac55&#45;36158ae26663 -->
<g id="node13" class="node">
<title>06e64e38&#45;ad93&#45;4cf5&#45;ac55&#45;36158ae26663</title>
<polygon fill="#40e0d0" stroke="#40e0d0" points="1691.4977,-428.8 1249.4129,-428.8 1249.4129,-392.8 1691.4977,-392.8 1691.4977,-428.8"/>
<text text-anchor="middle" x="1470.4553" y="-406.6" font-family="Times,serif" font-size="14.00" fill="#000000">AndroidBindingModule_BindRegionActivity.bindAndroidInjectorFactory()</text>
</g>
<!-- a871f48f&#45;c7b0&#45;422b&#45;b309&#45;b3efa367eb7f&#45;&gt;06e64e38&#45;ad93&#45;4cf5&#45;ac55&#45;36158ae26663 -->
<g id="edge17" class="edge">
<title>a871f48f&#45;c7b0&#45;422b&#45;b309&#45;b3efa367eb7f&#45;&gt;06e64e38&#45;ad93&#45;4cf5&#45;ac55&#45;36158ae26663</title>
<path fill="none" stroke="#000000" d="M950.7448,-540.7755C952.5704,-539.511 954.3565,-538.1867 956.0992,-536.8 993.5675,-506.9853 945.7161,-435.8 993.5992,-435.8 993.5992,-435.8 993.5992,-435.8 1174.7718,-435.8 1217.3383,-435.8 1263.2296,-433.1957 1305.8652,-429.6682"/>
<polygon fill="#000000" stroke="#000000" points="1306.3852,-433.1367 1316.0531,-428.8029 1305.7928,-426.1618 1306.3852,-433.1367"/>
</g>
<!-- 68d9efad&#45;3c44&#45;4da9&#45;97c3&#45;5aa5b652a801 -->
<g id="node14" class="node">
<title>68d9efad&#45;3c44&#45;4da9&#45;97c3&#45;5aa5b652a801</title>
<polygon fill="#40e0d0" stroke="#40e0d0" points="1696.0473,-482.8 1244.8633,-482.8 1244.8633,-446.8 1696.0473,-446.8 1696.0473,-482.8"/>
<text text-anchor="middle" x="1470.4553" y="-460.6" font-family="Times,serif" font-size="14.00" fill="#000000">AndroidBindingModule_BindContactsActivity.bindAndroidInjectorFactory()</text>
</g>
<!-- a871f48f&#45;c7b0&#45;422b&#45;b309&#45;b3efa367eb7f&#45;&gt;68d9efad&#45;3c44&#45;4da9&#45;97c3&#45;5aa5b652a801 -->
<g id="edge25" class="edge">
<title>a871f48f&#45;c7b0&#45;422b&#45;b309&#45;b3efa367eb7f&#45;&gt;68d9efad&#45;3c44&#45;4da9&#45;97c3&#45;5aa5b652a801</title>
<path fill="none" stroke="#000000" d="M946.0784,-540.7389C949.4751,-539.5051 952.8197,-538.1937 956.0992,-536.8 975.7426,-528.4518 972.2555,-506.8 993.5992,-506.8 993.5992,-506.8 993.5992,-506.8 1174.7718,-506.8 1192.7223,-506.8 1194.8458,-496.1079 1212.2718,-491.8 1222.8233,-489.1916 1233.6781,-486.835 1244.6855,-484.7059"/>
<polygon fill="#000000" stroke="#000000" points="1245.6438,-488.0876 1254.8329,-482.8139 1244.3607,-481.2062 1245.6438,-488.0876"/>
</g>
<!-- f5aa9b8e&#45;f5ec&#45;42c6&#45;8337&#45;1e1d7564ecfb -->
<g id="node15" class="node">
<title>f5aa9b8e&#45;f5ec&#45;42c6&#45;8337&#45;1e1d7564ecfb</title>
<polygon fill="#40e0d0" stroke="#40e0d0" points="1698.1954,-536.8 1242.7152,-536.8 1242.7152,-500.8 1698.1954,-500.8 1698.1954,-536.8"/>
<text text-anchor="middle" x="1470.4553" y="-514.6" font-family="Times,serif" font-size="14.00" fill="#000000">AndroidBindingModule_BindWelcomeActivity.bindAndroidInjectorFactory()</text>
</g>
<!-- a871f48f&#45;c7b0&#45;422b&#45;b309&#45;b3efa367eb7f&#45;&gt;f5aa9b8e&#45;f5ec&#45;42c6&#45;8337&#45;1e1d7564ecfb -->
<g id="edge21" class="edge">
<title>a871f48f&#45;c7b0&#45;422b&#45;b309&#45;b3efa367eb7f&#45;&gt;f5aa9b8e&#45;f5ec&#45;42c6&#45;8337&#45;1e1d7564ecfb</title>
<path fill="none" stroke="#000000" d="M956.254,-546.4183C968.886,-546.0259 981.4395,-545.8 993.5992,-545.8 993.5992,-545.8 993.5992,-545.8 1174.7718,-545.8 1222.3153,-545.8 1273.9814,-542.2953 1320.6282,-537.8113"/>
<polygon fill="#000000" stroke="#000000" points="1321.2025,-541.2718 1330.8117,-536.8094 1320.517,-534.3054 1321.2025,-541.2718"/>
</g>
<!-- c764a13e&#45;3898&#45;4097&#45;9e2f&#45;4f0e8dd0592d -->
<g id="node16" class="node">
<title>c764a13e&#45;3898&#45;4097&#45;9e2f&#45;4f0e8dd0592d</title>
<polygon fill="#40e0d0" stroke="#40e0d0" points="1703.5763,-590.8 1237.3343,-590.8 1237.3343,-554.8 1703.5763,-554.8 1703.5763,-590.8"/>
<text text-anchor="middle" x="1470.4553" y="-568.6" font-family="Times,serif" font-size="14.00" fill="#000000">AndroidBindingModule_BindBackgroundService.bindAndroidInjectorFactory()</text>
</g>
<!-- a871f48f&#45;c7b0&#45;422b&#45;b309&#45;b3efa367eb7f&#45;&gt;c764a13e&#45;3898&#45;4097&#45;9e2f&#45;4f0e8dd0592d -->
<g id="edge18" class="edge">
<title>a871f48f&#45;c7b0&#45;422b&#45;b309&#45;b3efa367eb7f&#45;&gt;c764a13e&#45;3898&#45;4097&#45;9e2f&#45;4f0e8dd0592d</title>
<path fill="none" stroke="#000000" d="M956.262,-570.2293C968.8921,-570.5914 981.443,-570.8 993.5992,-570.8 993.5992,-570.8 993.5992,-570.8 1174.7718,-570.8 1191.7224,-570.8 1209.2195,-570.8333 1226.8401,-570.8912"/>
<polygon fill="#000000" stroke="#000000" points="1227.2135,-574.3925 1237.2259,-570.9282 1227.2384,-567.3925 1227.2135,-574.3925"/>
</g>
<!-- 600c350f&#45;339e&#45;45e9&#45;ba5a&#45;d72dc5c6e2bf -->
<g id="node17" class="node">
<title>600c350f&#45;339e&#45;45e9&#45;ba5a&#45;d72dc5c6e2bf</title>
<polygon fill="#40e0d0" stroke="#40e0d0" points="1689.0501,-644.8 1251.8605,-644.8 1251.8605,-608.8 1689.0501,-608.8 1689.0501,-644.8"/>
<text text-anchor="middle" x="1470.4553" y="-622.6" font-family="Times,serif" font-size="14.00" fill="#000000">AndroidBindingModule_BindEditorActivity.bindAndroidInjectorFactory()</text>
</g>
<!-- a871f48f&#45;c7b0&#45;422b&#45;b309&#45;b3efa367eb7f&#45;&gt;600c350f&#45;339e&#45;45e9&#45;ba5a&#45;d72dc5c6e2bf -->
<g id="edge20" class="edge">
<title>a871f48f&#45;c7b0&#45;422b&#45;b309&#45;b3efa367eb7f&#45;&gt;600c350f&#45;339e&#45;45e9&#45;ba5a&#45;d72dc5c6e2bf</title>
<path fill="none" stroke="#000000" d="M945.5566,-576.9437C949.1283,-578.1514 952.6474,-579.4353 956.0992,-580.8 975.1979,-588.3509 973.062,-607.8 993.5992,-607.8 993.5992,-607.8 993.5992,-607.8 1174.7718,-607.8 1196.5041,-607.8 1219.1165,-608.3175 1241.7265,-609.1816"/>
<polygon fill="#000000" stroke="#000000" points="1241.6278,-612.6804 1251.7611,-609.5875 1241.9107,-605.6861 1241.6278,-612.6804"/>
</g>
<!-- cfd15d4b&#45;7eea&#45;4f93&#45;bf3e&#45;1fcd2b892397 -->
<g id="node18" class="node">
<title>cfd15d4b&#45;7eea&#45;4f93&#45;bf3e&#45;1fcd2b892397</title>
<polygon fill="#40e0d0" stroke="#40e0d0" points="1728.8224,-698.8 1212.0882,-698.8 1212.0882,-662.8 1728.8224,-662.8 1728.8224,-698.8"/>
<text text-anchor="middle" x="1470.4553" y="-676.6" font-family="Times,serif" font-size="14.00" fill="#000000">AndroidBindingModule_BindBackgroundServiceReceiver.bindAndroidInjectorFactory()</text>
</g>
<!-- a871f48f&#45;c7b0&#45;422b&#45;b309&#45;b3efa367eb7f&#45;&gt;cfd15d4b&#45;7eea&#45;4f93&#45;bf3e&#45;1fcd2b892397 -->
<g id="edge16" class="edge">
<title>a871f48f&#45;c7b0&#45;422b&#45;b309&#45;b3efa367eb7f&#45;&gt;cfd15d4b&#45;7eea&#45;4f93&#45;bf3e&#45;1fcd2b892397</title>
<path fill="none" stroke="#000000" d="M950.5956,-577.0198C952.4679,-578.223 954.3037,-579.4824 956.0992,-580.8 988.0818,-604.2711 953.9283,-661.8 993.5992,-661.8 993.5992,-661.8 993.5992,-661.8 1174.7718,-661.8 1189.7516,-661.8 1205.1496,-662.0459 1220.6767,-662.4816"/>
<polygon fill="#000000" stroke="#000000" points="1220.7932,-665.9868 1230.8958,-662.7948 1221.0077,-658.9901 1220.7932,-665.9868"/>
</g>
<!-- e65d42f8&#45;5071&#45;4c44&#45;bfbc&#45;15bc6867476c -->
<g id="node19" class="node">
<title>e65d42f8&#45;5071&#45;4c44&#45;bfbc&#45;15bc6867476c</title>
<polygon fill="#40e0d0" stroke="#40e0d0" points="1688.7788,-752.8 1252.1318,-752.8 1252.1318,-716.8 1688.7788,-716.8 1688.7788,-752.8"/>
<text text-anchor="middle" x="1470.4553" y="-730.6" font-family="Times,serif" font-size="14.00" fill="#000000">AndroidBindingModule_BindStatusActivity.bindAndroidInjectorFactory()</text>
</g>
<!-- a871f48f&#45;c7b0&#45;422b&#45;b309&#45;b3efa367eb7f&#45;&gt;e65d42f8&#45;5071&#45;4c44&#45;bfbc&#45;15bc6867476c -->
<g id="edge22" class="edge">
<title>a871f48f&#45;c7b0&#45;422b&#45;b309&#45;b3efa367eb7f&#45;&gt;e65d42f8&#45;5071&#45;4c44&#45;bfbc&#45;15bc6867476c</title>
<path fill="none" stroke="#000000" d="M951.3318,-576.8148C952.9608,-578.0853 954.5511,-579.4129 956.0992,-580.8 997.084,-617.5212 938.5701,-698.8 993.5992,-698.8 993.5992,-698.8 993.5992,-698.8 1174.7718,-698.8 1191.9117,-698.8 1195.3786,-704.9024 1212.2718,-707.8 1228.5169,-710.5864 1245.3898,-713.1278 1262.3795,-715.4372"/>
<polygon fill="#000000" stroke="#000000" points="1262.0179,-718.9198 1272.3924,-716.7702 1262.9417,-711.9811 1262.0179,-718.9198"/>
</g>
<!-- 6801a641&#45;6ada&#45;4c64&#45;8c9b&#45;73195e2a38d5 -->
<g id="node20" class="node">
<title>6801a641&#45;6ada&#45;4c64&#45;8c9b&#45;73195e2a38d5</title>
<polygon fill="#40e0d0" stroke="#40e0d0" points="1704.3379,-806.8 1236.5727,-806.8 1236.5727,-770.8 1704.3379,-770.8 1704.3379,-806.8"/>
<text text-anchor="middle" x="1470.4553" y="-784.6" font-family="Times,serif" font-size="14.00" fill="#000000">AndroidBindingModule_BindPreferencesActivity.bindAndroidInjectorFactory()</text>
</g>
<!-- a871f48f&#45;c7b0&#45;422b&#45;b309&#45;b3efa367eb7f&#45;&gt;6801a641&#45;6ada&#45;4c64&#45;8c9b&#45;73195e2a38d5 -->
<g id="edge19" class="edge">
<title>a871f48f&#45;c7b0&#45;422b&#45;b309&#45;b3efa367eb7f&#45;&gt;6801a641&#45;6ada&#45;4c64&#45;8c9b&#45;73195e2a38d5</title>
<path fill="none" stroke="#000000" d="M951.8418,-576.9153C953.2982,-578.1572 954.7183,-579.4514 956.0992,-580.8 986.7328,-610.717 950.7805,-769.8 993.5992,-769.8 993.5992,-769.8 993.5992,-769.8 1174.7718,-769.8 1191.542,-769.8 1208.8362,-770.1081 1226.249,-770.6459"/>
<polygon fill="#000000" stroke="#000000" points="1226.4008,-774.1529 1236.512,-770.9885 1226.6344,-767.1568 1226.4008,-774.1529"/>
</g>
<!-- e741b45a&#45;30f7&#45;4aad&#45;8f45&#45;12b2458b0b2a -->
<g id="node21" class="node">
<title>e741b45a&#45;30f7&#45;4aad&#45;8f45&#45;12b2458b0b2a</title>
<polygon fill="#40e0d0" stroke="#40e0d0" points="1684.215,-860.8 1256.6956,-860.8 1256.6956,-824.8 1684.215,-824.8 1684.215,-860.8"/>
<text text-anchor="middle" x="1470.4553" y="-838.6" font-family="Times,serif" font-size="14.00" fill="#000000">AndroidBindingModule_BindMapActivity.bindAndroidInjectorFactory()</text>
</g>
<!-- a871f48f&#45;c7b0&#45;422b&#45;b309&#45;b3efa367eb7f&#45;&gt;e741b45a&#45;30f7&#45;4aad&#45;8f45&#45;12b2458b0b2a -->
<g id="edge13" class="edge">
<title>a871f48f&#45;c7b0&#45;422b&#45;b309&#45;b3efa367eb7f&#45;&gt;e741b45a&#45;30f7&#45;4aad&#45;8f45&#45;12b2458b0b2a</title>
<path fill="none" stroke="#000000" d="M951.9335,-576.8236C953.361,-578.0944 954.7505,-579.4193 956.0992,-580.8 994.2785,-619.8869 938.96,-823.8 993.5992,-823.8 993.5992,-823.8 993.5992,-823.8 1174.7718,-823.8 1198.0553,-823.8 1222.349,-824.394 1246.5677,-825.3719"/>
<polygon fill="#000000" stroke="#000000" points="1246.4313,-828.8692 1256.571,-825.7974 1246.7289,-821.8755 1246.4313,-828.8692"/>
</g>
<!-- ee4462b2&#45;9937&#45;4164&#45;8523&#45;50434f430bae -->
<g id="node22" class="node">
<title>ee4462b2&#45;9937&#45;4164&#45;8523&#45;50434f430bae</title>
<polygon fill="#40e0d0" stroke="#40e0d0" points="1703.3019,-914.8 1237.6087,-914.8 1237.6087,-878.8 1703.3019,-878.8 1703.3019,-914.8"/>
<text text-anchor="middle" x="1470.4553" y="-892.6" font-family="Times,serif" font-size="14.00" fill="#000000">AndroidBindingModule_BindLogViewerActivity.bindAndroidInjectorFactory()</text>
</g>
<!-- a871f48f&#45;c7b0&#45;422b&#45;b309&#45;b3efa367eb7f&#45;&gt;ee4462b2&#45;9937&#45;4164&#45;8523&#45;50434f430bae -->
<g id="edge15" class="edge">
<title>a871f48f&#45;c7b0&#45;422b&#45;b309&#45;b3efa367eb7f&#45;&gt;ee4462b2&#45;9937&#45;4164&#45;8523&#45;50434f430bae</title>
<path fill="none" stroke="#000000" d="M952.3144,-577.0676C953.6101,-578.2643 954.8725,-579.5079 956.0992,-580.8 1001.9028,-629.0439 927.0752,-877.8 993.5992,-877.8 993.5992,-877.8 993.5992,-877.8 1174.7718,-877.8 1191.757,-877.8 1209.2797,-878.1161 1226.9188,-878.6667"/>
<polygon fill="#000000" stroke="#000000" points="1227.2023,-882.1782 1237.3146,-879.0174 1227.4384,-875.1822 1227.2023,-882.1782"/>
</g>
<!-- 0ae56b6f&#45;ecaa&#45;4024&#45;88e4&#45;f03d97cc1a9a -->
<g id="node23" class="node">
<title>0ae56b6f&#45;ecaa&#45;4024&#45;88e4&#45;f03d97cc1a9a</title>
<polygon fill="#40e0d0" stroke="#40e0d0" points="1685.8229,-266.8 1255.0877,-266.8 1255.0877,-230.8 1685.8229,-230.8 1685.8229,-266.8"/>
<text text-anchor="middle" x="1470.4553" y="-244.6" font-family="Times,serif" font-size="14.00" fill="#000000">AndroidBindingModule_BindLoadActivity.bindAndroidInjectorFactory()</text>
</g>
<!-- a871f48f&#45;c7b0&#45;422b&#45;b309&#45;b3efa367eb7f&#45;&gt;0ae56b6f&#45;ecaa&#45;4024&#45;88e4&#45;f03d97cc1a9a -->
<g id="edge24" class="edge">
<title>a871f48f&#45;c7b0&#45;422b&#45;b309&#45;b3efa367eb7f&#45;&gt;0ae56b6f&#45;ecaa&#45;4024&#45;88e4&#45;f03d97cc1a9a</title>
<path fill="none" stroke="#000000" d="M951.9335,-540.7764C953.361,-539.5056 954.7505,-538.1807 956.0992,-536.8 1000.7349,-491.1031 929.72,-251.8 993.5992,-251.8 993.5992,-251.8 993.5992,-251.8 1174.7718,-251.8 1197.4562,-251.8 1221.1189,-251.7106 1244.7465,-251.5627"/>
<polygon fill="#000000" stroke="#000000" points="1244.8909,-255.0619 1254.8675,-251.4958 1244.8446,-248.0621 1244.8909,-255.0619"/>
</g>
<!-- 76955350&#45;86cb&#45;48b0&#45;803d&#45;3c664ff9f7a8 -->
<g id="node24" class="node">
<title>76955350&#45;86cb&#45;48b0&#45;803d&#45;3c664ff9f7a8</title>
<polygon fill="#40e0d0" stroke="#40e0d0" points="1694.4421,-320.8 1246.4685,-320.8 1246.4685,-284.8 1694.4421,-284.8 1694.4421,-320.8"/>
<text text-anchor="middle" x="1470.4553" y="-298.6" font-family="Times,serif" font-size="14.00" fill="#000000">AndroidBindingModule_BindRegionsActivity.bindAndroidInjectorFactory()</text>
</g>
<!-- a871f48f&#45;c7b0&#45;422b&#45;b309&#45;b3efa367eb7f&#45;&gt;76955350&#45;86cb&#45;48b0&#45;803d&#45;3c664ff9f7a8 -->
<g id="edge14" class="edge">
<title>a871f48f&#45;c7b0&#45;422b&#45;b309&#45;b3efa367eb7f&#45;&gt;76955350&#45;86cb&#45;48b0&#45;803d&#45;3c664ff9f7a8</title>
<path fill="none" stroke="#000000" d="M951.9207,-540.7638C953.3522,-539.497 954.746,-538.1763 956.0992,-536.8 986.1189,-506.267 950.7805,-347.8 993.5992,-347.8 993.5992,-347.8 993.5992,-347.8 1174.7718,-347.8 1193.259,-347.8 1194.4835,-334.8354 1212.2718,-329.8 1221.0293,-327.321 1230.0118,-325.065 1239.1294,-323.0124"/>
<polygon fill="#000000" stroke="#000000" points="1240.0365,-326.3973 1249.0716,-320.864 1238.558,-319.5552 1240.0365,-326.3973"/>
</g>
<!-- 71fd7a43&#45;111a&#45;4c6e&#45;b9cc&#45;d9a53c085010 -->
<g id="node25" class="node">
<title>71fd7a43&#45;111a&#45;4c6e&#45;b9cc&#45;d9a53c085010</title>
<polygon fill="#40e0d0" stroke="#40e0d0" points="1703.6028,-374.8 1237.3078,-374.8 1237.3078,-338.8 1703.6028,-338.8 1703.6028,-374.8"/>
<text text-anchor="middle" x="1470.4553" y="-352.6" font-family="Times,serif" font-size="14.00" fill="#000000">AndroidBindingModule_BindConnectionActivity.bindAndroidInjectorFactory()</text>
</g>
<!-- a871f48f&#45;c7b0&#45;422b&#45;b309&#45;b3efa367eb7f&#45;&gt;71fd7a43&#45;111a&#45;4c6e&#45;b9cc&#45;d9a53c085010 -->
<g id="edge23" class="edge">
<title>a871f48f&#45;c7b0&#45;422b&#45;b309&#45;b3efa367eb7f&#45;&gt;71fd7a43&#45;111a&#45;4c6e&#45;b9cc&#45;d9a53c085010</title>
<path fill="none" stroke="#000000" d="M951.7865,-540.6272C953.2604,-539.4035 954.6989,-538.1284 956.0992,-536.8 1008.773,-486.8298 920.9937,-377.8 993.5992,-377.8 993.5992,-377.8 993.5992,-377.8 1174.7718,-377.8 1202.7384,-377.8 1232.1555,-376.8537 1261.1472,-375.3629"/>
<polygon fill="#000000" stroke="#000000" points="1261.5831,-378.8446 1271.3811,-374.8135 1261.2078,-371.8547 1261.5831,-378.8446"/>
</g>
</g>
</svg>
