<svg width="4267px" height="541px"
 viewBox="0.00 0.00 4266.57 540.60" xmlns="http://www.w3.org/2000/svg" xmlns:xlink="http://www.w3.org/1999/xlink">
<g id="graph0" class="graph" transform="scale(1.0 1.0) rotate(0) translate(14.4 526.2)">
<title>org.owntracks.android.services.worker.WorkerModule</title>
<polygon fill="#ffffff" stroke="transparent" points="-14.4,14.4 -14.4,-526.2 4252.1708,-526.2 4252.1708,14.4 -14.4,14.4"/>
<text text-anchor="middle" x="51.1501" y="-8.2" font-family="Times,serif" font-size="14.00" fill="#000000">WorkerModule</text>
<g id="clust2" class="cluster">
<title>cluster_Dependency Graph</title>
<polygon fill="none" stroke="#000000" points="8,-32.8 8,-503.8 4229.7708,-503.8 4229.7708,-32.8 8,-32.8"/>
<text text-anchor="middle" x="70.2234" y="-487.2" font-family="Times,serif" font-size="14.00" fill="#000000">Dependency Graph</text>
</g>
<g id="clust4" class="cluster">
<title>cluster_Map&lt;Class&lt;? extends androidx.work.ListenableWorker&gt;, Provider&lt;ChildWorkerFactory&gt;&gt;</title>
<path fill="none" stroke="#000000" d="M492.5374,-47.8C492.5374,-47.8 2051.0066,-47.8 2051.0066,-47.8 2057.0066,-47.8 2063.0066,-53.8 2063.0066,-59.8 2063.0066,-59.8 2063.0066,-220.8 2063.0066,-220.8 2063.0066,-226.8 2057.0066,-232.8 2051.0066,-232.8 2051.0066,-232.8 492.5374,-232.8 492.5374,-232.8 486.5374,-232.8 480.5374,-226.8 480.5374,-220.8 480.5374,-220.8 480.5374,-59.8 480.5374,-59.8 480.5374,-53.8 486.5374,-47.8 492.5374,-47.8"/>
<text text-anchor="middle" x="1271.772" y="-216.2" font-family="Times,serif" font-size="14.00" fill="#000000">Map&lt;Class&lt;? extends androidx.work.ListenableWorker&gt;, Provider&lt;ChildWorkerFactory&gt;&gt;</text>
</g>
<g id="clust3" class="cluster">
<title>cluster_Map&lt;Class&lt;? extends androidx.work.ListenableWorker&gt;, ChildWorkerFactory&gt;</title>
<path fill="none" stroke="#000000" d="M1101.3106,-240.8C1101.3106,-240.8 1563.0856,-240.8 1563.0856,-240.8 1569.0856,-240.8 1575.0856,-246.8 1575.0856,-252.8 1575.0856,-252.8 1575.0856,-305.8 1575.0856,-305.8 1575.0856,-311.8 1569.0856,-317.8 1563.0856,-317.8 1563.0856,-317.8 1101.3106,-317.8 1101.3106,-317.8 1095.3106,-317.8 1089.3106,-311.8 1089.3106,-305.8 1089.3106,-305.8 1089.3106,-252.8 1089.3106,-252.8 1089.3106,-246.8 1095.3106,-240.8 1101.3106,-240.8"/>
<text text-anchor="middle" x="1332.1981" y="-301.2" font-family="Times,serif" font-size="14.00" fill="#000000">Map&lt;Class&lt;? extends androidx.work.ListenableWorker&gt;, ChildWorkerFactory&gt;</text>
</g>
<!-- 57cf8f35&#45;4906&#45;455c&#45;b255&#45;f08dc2b4fb4c -->
<g id="node1" class="node">
<title>57cf8f35&#45;4906&#45;455c&#45;b255&#45;f08dc2b4fb4c</title>
<polygon fill="#40e0d0" stroke="#40e0d0" points="2054.9671,-145.8 1642.1251,-145.8 1642.1251,-109.8 2054.9671,-109.8 2054.9671,-145.8"/>
<text text-anchor="middle" x="1848.5461" y="-123.6" font-family="Times,serif" font-size="14.00" fill="#000000">WorkerModule.bindMQTTMaybeReconnectAndPingWorkerFactory()</text>
</g>
<!-- c89be82c&#45;a21a&#45;4a95&#45;90a2&#45;6345e6e72a06 -->
<g id="node4" class="node">
<title>c89be82c&#45;a21a&#45;4a95&#45;90a2&#45;6345e6e72a06</title>
<polygon fill="#40e0d0" stroke="#40e0d0" points="2473.7046,-145.8 2180.886,-145.8 2180.886,-109.8 2473.7046,-109.8 2473.7046,-145.8"/>
<text text-anchor="middle" x="2327.2953" y="-123.6" font-family="Times,serif" font-size="14.00" fill="#000000">MQTTMaybeReconnectAndPingWorker.Factory</text>
</g>
<!-- 57cf8f35&#45;4906&#45;455c&#45;b255&#45;f08dc2b4fb4c&#45;&gt;c89be82c&#45;a21a&#45;4a95&#45;90a2&#45;6345e6e72a06 -->
<g id="edge5" class="edge">
<title>57cf8f35&#45;4906&#45;455c&#45;b255&#45;f08dc2b4fb4c&#45;&gt;c89be82c&#45;a21a&#45;4a95&#45;90a2&#45;6345e6e72a06</title>
<path fill="none" stroke="#000000" stroke-dasharray="1,5" d="M2055.0525,-127.8C2093.7993,-127.8 2133.7172,-127.8 2170.641,-127.8"/>
<polygon fill="#000000" stroke="#000000" points="2170.9726,-131.3001 2180.9725,-127.8 2170.9725,-124.3001 2170.9726,-131.3001"/>
<text text-anchor="middle" x="2118.0487" y="-132" font-family="Times,serif" font-size="14.00" fill="#000000">delegates</text>
</g>
<!-- a70da0df&#45;49a9&#45;4e8c&#45;a910&#45;ca55f19e56fb -->
<g id="node2" class="node">
<title>a70da0df&#45;49a9&#45;4e8c&#45;a910&#45;ca55f19e56fb</title>
<polygon fill="#40e0d0" stroke="#40e0d0" points="2010.8136,-199.8 1686.2786,-199.8 1686.2786,-163.8 2010.8136,-163.8 2010.8136,-199.8"/>
<text text-anchor="middle" x="1848.5461" y="-177.6" font-family="Times,serif" font-size="14.00" fill="#000000">WorkerModule.bindMQTTReconnectWorkerFactory()</text>
</g>
<!-- bf2d5d00&#45;3b07&#45;4d79&#45;8f1c&#45;2c9e40fe3511 -->
<g id="node21" class="node">
<title>bf2d5d00&#45;3b07&#45;4d79&#45;8f1c&#45;2c9e40fe3511</title>
<polygon fill="#40e0d0" stroke="#40e0d0" points="2429.0508,-199.8 2225.5398,-199.8 2225.5398,-163.8 2429.0508,-163.8 2429.0508,-199.8"/>
<text text-anchor="middle" x="2327.2953" y="-177.6" font-family="Times,serif" font-size="14.00" fill="#000000">MQTTReconnectWorker.Factory</text>
</g>
<!-- a70da0df&#45;49a9&#45;4e8c&#45;a910&#45;ca55f19e56fb&#45;&gt;bf2d5d00&#45;3b07&#45;4d79&#45;8f1c&#45;2c9e40fe3511 -->
<g id="edge7" class="edge">
<title>a70da0df&#45;49a9&#45;4e8c&#45;a910&#45;ca55f19e56fb&#45;&gt;bf2d5d00&#45;3b07&#45;4d79&#45;8f1c&#45;2c9e40fe3511</title>
<path fill="none" stroke="#000000" stroke-dasharray="1,5" d="M2010.9627,-181.8C2078.2629,-181.8 2154.6454,-181.8 2215.4919,-181.8"/>
<polygon fill="#000000" stroke="#000000" points="2215.5052,-185.3001 2225.5052,-181.8 2215.5052,-178.3001 2215.5052,-185.3001"/>
<text text-anchor="middle" x="2118.0487" y="-186" font-family="Times,serif" font-size="14.00" fill="#000000">delegates</text>
</g>
<!-- 104256b0&#45;326d&#45;4e4d&#45;a182&#45;0682f71ddae1 -->
<g id="node3" class="node">
<title>104256b0&#45;326d&#45;4e4d&#45;a182&#45;0682f71ddae1</title>
<polygon fill="#40e0d0" stroke="#40e0d0" points="2013.0049,-91.8 1684.0873,-91.8 1684.0873,-55.8 2013.0049,-55.8 2013.0049,-91.8"/>
<text text-anchor="middle" x="1848.5461" y="-69.6" font-family="Times,serif" font-size="14.00" fill="#000000">WorkerModule.bindSendLocationPingWorkerFactory()</text>
</g>
<!-- 8920049d&#45;6906&#45;46ce&#45;aa47&#45;fe7f6be154a5 -->
<g id="node22" class="node">
<title>8920049d&#45;6906&#45;46ce&#45;aa47&#45;fe7f6be154a5</title>
<polygon fill="#40e0d0" stroke="#40e0d0" points="2757.1705,-83.8 2548.2759,-83.8 2548.2759,-47.8 2757.1705,-47.8 2757.1705,-83.8"/>
<text text-anchor="middle" x="2652.7232" y="-61.6" font-family="Times,serif" font-size="14.00" fill="#000000">SendLocationPingWorker.Factory</text>
</g>
<!-- 104256b0&#45;326d&#45;4e4d&#45;a182&#45;0682f71ddae1&#45;&gt;8920049d&#45;6906&#45;46ce&#45;aa47&#45;fe7f6be154a5 -->
<g id="edge9" class="edge">
<title>104256b0&#45;326d&#45;4e4d&#45;a182&#45;0682f71ddae1&#45;&gt;8920049d&#45;6906&#45;46ce&#45;aa47&#45;fe7f6be154a5</title>
<path fill="none" stroke="#000000" stroke-dasharray="1,5" d="M2013.1536,-70.5807C2047.7981,-70.1208 2084.1232,-69.8 2118.0487,-69.8 2118.0487,-69.8 2118.0487,-69.8 2510.9998,-69.8 2519.8572,-69.8 2529.0247,-69.721 2538.2402,-69.5851"/>
<polygon fill="#000000" stroke="#000000" points="2538.3068,-73.0846 2548.2464,-69.4165 2538.1888,-66.0856 2538.3068,-73.0846"/>
<text text-anchor="middle" x="2327.2953" y="-74" font-family="Times,serif" font-size="14.00" fill="#000000">delegates</text>
</g>
<!-- 960b3ee0&#45;ef7b&#45;4ae5&#45;a27a&#45;51e0127bbb0f -->
<g id="node5" class="node">
<title>960b3ee0&#45;ef7b&#45;4ae5&#45;a27a&#45;51e0127bbb0f</title>
<polygon fill="#7fffd4" stroke="#7fffd4" points="2712.6237,-202.4019 2592.8227,-202.4019 2592.8227,-161.1981 2712.6237,-161.1981 2712.6237,-202.4019"/>
<text text-anchor="middle" x="2652.7232" y="-186" font-family="Times,serif" font-size="14.00" fill="#000000">@Singleton</text>
<text text-anchor="middle" x="2652.7232" y="-169.2" font-family="Times,serif" font-size="14.00" fill="#000000">MessageProcessor</text>
</g>
<!-- c89be82c&#45;a21a&#45;4a95&#45;90a2&#45;6345e6e72a06&#45;&gt;960b3ee0&#45;ef7b&#45;4ae5&#45;a27a&#45;51e0127bbb0f -->
<g id="edge10" class="edge">
<title>c89be82c&#45;a21a&#45;4a95&#45;90a2&#45;6345e6e72a06&#45;&gt;960b3ee0&#45;ef7b&#45;4ae5&#45;a27a&#45;51e0127bbb0f</title>
<path fill="none" stroke="#000000" d="M2436.1105,-145.8563C2484.5206,-153.8892 2540.1063,-163.1129 2582.848,-170.2052"/>
<polygon fill="#000000" stroke="#000000" points="2582.4316,-173.6839 2592.8696,-171.8682 2583.5775,-166.7783 2582.4316,-173.6839"/>
</g>
<!-- 70322cab&#45;1a0f&#45;47f8&#45;8a3c&#45;6c1917e8cf7c -->
<g id="node6" class="node">
<title>70322cab&#45;1a0f&#45;47f8&#45;8a3c&#45;6c1917e8cf7c</title>
<polygon fill="#ff3030" stroke="#ff3030" points="4221.7768,-373.8 3752.7528,-373.8 3752.7528,-337.8 4221.7768,-337.8 4221.7768,-373.8"/>
<text text-anchor="middle" x="3987.2648" y="-351.6" font-family="Times,serif" font-size="14.00" fill="#000000">@org.owntracks.android.injection.qualifier.AppContext android.content.Context</text>
</g>
<!-- 960b3ee0&#45;ef7b&#45;4ae5&#45;a27a&#45;51e0127bbb0f&#45;&gt;70322cab&#45;1a0f&#45;47f8&#45;8a3c&#45;6c1917e8cf7c -->
<g id="edge23" class="edge">
<title>960b3ee0&#45;ef7b&#45;4ae5&#45;a27a&#45;51e0127bbb0f&#45;&gt;70322cab&#45;1a0f&#45;47f8&#45;8a3c&#45;6c1917e8cf7c</title>
<path fill="none" stroke="#000000" stroke-dasharray="5,2" d="M2655.2626,-202.5659C2663.5365,-259.8345 2695.1818,-415.8 2794.4466,-415.8 2794.4466,-415.8 2794.4466,-415.8 3715.2588,-415.8 3789.4645,-415.8 3872.4408,-394.2424 3927.0117,-376.9709"/>
<polygon fill="#000000" stroke="#000000" points="3928.4145,-380.1963 3936.8621,-373.802 3926.2707,-373.5327 3928.4145,-380.1963"/>
<text text-anchor="middle" x="3982.5602" y="-378.002" font-family="Times,serif" font-size="14.00" fill="#000000">Missing binding</text>
</g>
<!-- 978a1a58&#45;ae53&#45;4425&#45;aefd&#45;834df4756cf8 -->
<g id="node7" class="node">
<title>978a1a58&#45;ae53&#45;4425&#45;aefd&#45;834df4756cf8</title>
<polygon fill="#ff3030" stroke="#ff3030" points="4092.2698,-99.8 3882.2598,-99.8 3882.2598,-63.8 4092.2698,-63.8 4092.2698,-99.8"/>
<text text-anchor="middle" x="3987.2648" y="-77.6" font-family="Times,serif" font-size="14.00" fill="#000000">org.greenrobot.eventbus.EventBus</text>
</g>
<!-- 960b3ee0&#45;ef7b&#45;4ae5&#45;a27a&#45;51e0127bbb0f&#45;&gt;978a1a58&#45;ae53&#45;4425&#45;aefd&#45;834df4756cf8 -->
<g id="edge21" class="edge">
<title>960b3ee0&#45;ef7b&#45;4ae5&#45;a27a&#45;51e0127bbb0f&#45;&gt;978a1a58&#45;ae53&#45;4425&#45;aefd&#45;834df4756cf8</title>
<path fill="none" stroke="#000000" stroke-dasharray="5,2" d="M2677.3512,-161.0869C2717.9788,-127.4196 2797.9302,-63.4009 2831.9466,-51.8 2973.1165,-3.6554 3018.2397,-41.8 3167.3934,-41.8 3167.3934,-41.8 3167.3934,-41.8 3715.2588,-41.8 3776.467,-41.8 3844.6063,-51.8368 3897.3744,-61.8552"/>
<polygon fill="#000000" stroke="#000000" points="3896.8969,-65.3276 3907.3795,-63.7893 3898.2255,-58.4548 3896.8969,-65.3276"/>
<text text-anchor="middle" x="3861.6814" y="-51.1893" font-family="Times,serif" font-size="14.00" fill="#000000">Missing binding</text>
</g>
<!-- 97d09904&#45;43c3&#45;4387&#45;8bae&#45;0ec8416cbd7d -->
<g id="node8" class="node">
<title>97d09904&#45;43c3&#45;4387&#45;8bae&#45;0ec8416cbd7d</title>
<polygon fill="#ff3030" stroke="#ff3030" points="3132.5606,-470.8 2848.2794,-470.8 2848.2794,-434.8 3132.5606,-434.8 3132.5606,-470.8"/>
<text text-anchor="middle" x="2990.42" y="-448.6" font-family="Times,serif" font-size="14.00" fill="#000000">org.owntracks.android.data.repos.ContactsRepo</text>
</g>
<!-- 960b3ee0&#45;ef7b&#45;4ae5&#45;a27a&#45;51e0127bbb0f&#45;&gt;97d09904&#45;43c3&#45;4387&#45;8bae&#45;0ec8416cbd7d -->
<g id="edge20" class="edge">
<title>960b3ee0&#45;ef7b&#45;4ae5&#45;a27a&#45;51e0127bbb0f&#45;&gt;97d09904&#45;43c3&#45;4387&#45;8bae&#45;0ec8416cbd7d</title>
<path fill="none" stroke="#000000" stroke-dasharray="5,2" d="M2656.6875,-202.5891C2666.9049,-249.9865 2698.8575,-366.1624 2774.9466,-420.8 2793.695,-434.2627 2815.7507,-443.1251 2838.4712,-448.8154"/>
<polygon fill="#000000" stroke="#000000" points="2837.7113,-452.232 2848.2415,-451.0641 2839.2813,-445.4103 2837.7113,-452.232"/>
<text text-anchor="middle" x="2802.5434" y="-438.4641" font-family="Times,serif" font-size="14.00" fill="#000000">Missing binding</text>
</g>
<!-- cc06f03d&#45;737f&#45;4da3&#45;a93b&#45;02a74691a6ad -->
<g id="node9" class="node">
<title>cc06f03d&#45;737f&#45;4da3&#45;a93b&#45;02a74691a6ad</title>
<polygon fill="#7fffd4" stroke="#7fffd4" points="3677.5408,-286.4019 3595.4152,-286.4019 3595.4152,-245.1981 3677.5408,-245.1981 3677.5408,-286.4019"/>
<text text-anchor="middle" x="3636.478" y="-270" font-family="Times,serif" font-size="14.00" fill="#000000">@Singleton</text>
<text text-anchor="middle" x="3636.478" y="-253.2" font-family="Times,serif" font-size="14.00" fill="#000000">Preferences</text>
</g>
<!-- 960b3ee0&#45;ef7b&#45;4ae5&#45;a27a&#45;51e0127bbb0f&#45;&gt;cc06f03d&#45;737f&#45;4da3&#45;a93b&#45;02a74691a6ad -->
<g id="edge14" class="edge">
<title>960b3ee0&#45;ef7b&#45;4ae5&#45;a27a&#45;51e0127bbb0f&#45;&gt;cc06f03d&#45;737f&#45;4da3&#45;a93b&#45;02a74691a6ad</title>
<path fill="none" stroke="#000000" d="M2712.5605,-169.2305C2747.248,-162.5863 2791.861,-155.1318 2831.9466,-151.8 2902.1372,-145.966 3085.4321,-121.2482 3148.8934,-151.8 3197.0496,-174.9836 3176.3128,-221.4571 3223.8934,-245.8 3255.2565,-261.8458 3481.5606,-265.0423 3585.0599,-265.6614"/>
<polygon fill="#000000" stroke="#000000" points="3585.2574,-269.1624 3595.2761,-265.7165 3585.2952,-262.1625 3585.2574,-269.1624"/>
</g>
<!-- c6c6d2a3&#45;9e51&#45;4eec&#45;b84c&#45;ae139401ccb7 -->
<g id="node10" class="node">
<title>c6c6d2a3&#45;9e51&#45;4eec&#45;b84c&#45;ae139401ccb7</title>
<polygon fill="#ff3030" stroke="#ff3030" points="3520.3493,-236.8 3223.7413,-236.8 3223.7413,-200.8 3520.3493,-200.8 3520.3493,-236.8"/>
<text text-anchor="middle" x="3372.0453" y="-214.6" font-family="Times,serif" font-size="14.00" fill="#000000">org.owntracks.android.data.repos.WaypointsRepo</text>
</g>
<!-- 960b3ee0&#45;ef7b&#45;4ae5&#45;a27a&#45;51e0127bbb0f&#45;&gt;c6c6d2a3&#45;9e51&#45;4eec&#45;b84c&#45;ae139401ccb7 -->
<g id="edge22" class="edge">
<title>960b3ee0&#45;ef7b&#45;4ae5&#45;a27a&#45;51e0127bbb0f&#45;&gt;c6c6d2a3&#45;9e51&#45;4eec&#45;b84c&#45;ae139401ccb7</title>
<path fill="none" stroke="#000000" stroke-dasharray="5,2" d="M2697.2241,-161.1062C2719.9458,-151.6619 2748.3447,-141.5415 2774.9466,-136.8 2856.7565,-122.2181 3072.5563,-103.965 3148.8934,-136.8 3159.5791,-141.3962 3158.5519,-147.6927 3166.8934,-155.8 3175.019,-163.6974 3176.3185,-166.7407 3185.8934,-172.8 3202.4981,-183.308 3221.3423,-191.4158 3240.5105,-197.6716"/>
<polygon fill="#000000" stroke="#000000" points="3239.6565,-201.0711 3250.2444,-200.6864 3241.7276,-194.3845 3239.6565,-201.0711"/>
<text text-anchor="middle" x="3204.5463" y="-188.0864" font-family="Times,serif" font-size="14.00" fill="#000000">Missing binding</text>
</g>
<!-- 076ff280&#45;5b95&#45;4e23&#45;9154&#45;3d352a029417 -->
<g id="node11" class="node">
<title>076ff280&#45;5b95&#45;4e23&#45;9154&#45;3d352a029417</title>
<polygon fill="#7fffd4" stroke="#7fffd4" points="3031.4828,-262.4019 2949.3572,-262.4019 2949.3572,-221.1981 3031.4828,-221.1981 3031.4828,-262.4019"/>
<text text-anchor="middle" x="2990.42" y="-246" font-family="Times,serif" font-size="14.00" fill="#000000">@Singleton</text>
<text text-anchor="middle" x="2990.42" y="-229.2" font-family="Times,serif" font-size="14.00" fill="#000000">Parser</text>
</g>
<!-- 960b3ee0&#45;ef7b&#45;4ae5&#45;a27a&#45;51e0127bbb0f&#45;&gt;076ff280&#45;5b95&#45;4e23&#45;9154&#45;3d352a029417 -->
<g id="edge17" class="edge">
<title>960b3ee0&#45;ef7b&#45;4ae5&#45;a27a&#45;51e0127bbb0f&#45;&gt;076ff280&#45;5b95&#45;4e23&#45;9154&#45;3d352a029417</title>
<path fill="none" stroke="#000000" d="M2712.7075,-192.4577C2777.0286,-203.8859 2878.0922,-221.8422 2938.9317,-232.6519"/>
<polygon fill="#000000" stroke="#000000" points="2938.6137,-236.1501 2949.0718,-234.4535 2939.8383,-229.258 2938.6137,-236.1501"/>
</g>
<!-- a2ed78c4&#45;08d2&#45;40e0&#45;9c2c&#45;2e4539c512aa -->
<g id="node12" class="node">
<title>a2ed78c4&#45;08d2&#45;40e0&#45;9c2c&#45;2e4539c512aa</title>
<polygon fill="#7fffd4" stroke="#7fffd4" points="3413.1081,-376.4019 3330.9825,-376.4019 3330.9825,-335.1981 3413.1081,-335.1981 3413.1081,-376.4019"/>
<text text-anchor="middle" x="3372.0453" y="-360" font-family="Times,serif" font-size="14.00" fill="#000000">@Singleton</text>
<text text-anchor="middle" x="3372.0453" y="-343.2" font-family="Times,serif" font-size="14.00" fill="#000000">Scheduler</text>
</g>
<!-- 960b3ee0&#45;ef7b&#45;4ae5&#45;a27a&#45;51e0127bbb0f&#45;&gt;a2ed78c4&#45;08d2&#45;40e0&#45;9c2c&#45;2e4539c512aa -->
<g id="edge15" class="edge">
<title>960b3ee0&#45;ef7b&#45;4ae5&#45;a27a&#45;51e0127bbb0f&#45;&gt;a2ed78c4&#45;08d2&#45;40e0&#45;9c2c&#45;2e4539c512aa</title>
<path fill="none" stroke="#000000" d="M2668.0538,-202.5201C2691.6636,-231.8107 2739.9418,-281.8 2794.4466,-281.8 2794.4466,-281.8 2794.4466,-281.8 3186.3934,-281.8 3212.0877,-281.8 3201.7553,-312.7577 3223.8934,-325.8 3253.12,-343.0183 3290.603,-350.4972 3320.5535,-353.6822"/>
<polygon fill="#000000" stroke="#000000" points="3320.5255,-357.1947 3330.8073,-354.6386 3321.1757,-350.225 3320.5255,-357.1947"/>
</g>
<!-- 5b801f6c&#45;2c02&#45;4bcc&#45;b687&#45;33c0fee43ddd -->
<g id="node13" class="node">
<title>5b801f6c&#45;2c02&#45;4bcc&#45;b687&#45;33c0fee43ddd</title>
<polygon fill="#7fffd4" stroke="#7fffd4" points="3038.5,-202.4019 2942.34,-202.4019 2942.34,-161.1981 3038.5,-161.1981 3038.5,-202.4019"/>
<text text-anchor="middle" x="2990.42" y="-186" font-family="Times,serif" font-size="14.00" fill="#000000">@Singleton</text>
<text text-anchor="middle" x="2990.42" y="-169.2" font-family="Times,serif" font-size="14.00" fill="#000000">ServiceBridge</text>
</g>
<!-- 960b3ee0&#45;ef7b&#45;4ae5&#45;a27a&#45;51e0127bbb0f&#45;&gt;5b801f6c&#45;2c02&#45;4bcc&#45;b687&#45;33c0fee43ddd -->
<g id="edge18" class="edge">
<title>960b3ee0&#45;ef7b&#45;4ae5&#45;a27a&#45;51e0127bbb0f&#45;&gt;5b801f6c&#45;2c02&#45;4bcc&#45;b687&#45;33c0fee43ddd</title>
<path fill="none" stroke="#000000" d="M2712.7075,-181.8C2774.6098,-181.8 2870.5432,-181.8 2931.9016,-181.8"/>
<polygon fill="#000000" stroke="#000000" points="2932.1902,-185.3001 2942.1902,-181.8 2932.1901,-178.3001 2932.1902,-185.3001"/>
</g>
<!-- fa968a3d&#45;3130&#45;4a66&#45;99b9&#45;faf0041f6495 -->
<g id="node14" class="node">
<title>fa968a3d&#45;3130&#45;4a66&#45;99b9&#45;faf0041f6495</title>
<polygon fill="#7fffd4" stroke="#7fffd4" points="3076.7106,-396.4019 2904.1294,-396.4019 2904.1294,-355.1981 3076.7106,-355.1981 3076.7106,-396.4019"/>
<text text-anchor="middle" x="2990.42" y="-380" font-family="Times,serif" font-size="14.00" fill="#000000">@Singleton</text>
<text text-anchor="middle" x="2990.42" y="-363.2" font-family="Times,serif" font-size="14.00" fill="#000000">RunThingsOnOtherThreads</text>
</g>
<!-- 960b3ee0&#45;ef7b&#45;4ae5&#45;a27a&#45;51e0127bbb0f&#45;&gt;fa968a3d&#45;3130&#45;4a66&#45;99b9&#45;faf0041f6495 -->
<g id="edge16" class="edge">
<title>960b3ee0&#45;ef7b&#45;4ae5&#45;a27a&#45;51e0127bbb0f&#45;&gt;fa968a3d&#45;3130&#45;4a66&#45;99b9&#45;faf0041f6495</title>
<path fill="none" stroke="#000000" d="M2668.705,-202.5706C2697.2849,-238.117 2760.8534,-310.2147 2831.9466,-345.8 2851.0771,-355.3756 2872.9035,-361.9078 2894.113,-366.3601"/>
<polygon fill="#000000" stroke="#000000" points="2893.6439,-369.8347 2904.1303,-368.3228 2894.9899,-362.9653 2893.6439,-369.8347"/>
</g>
<!-- 67f4999d&#45;1228&#45;4b56&#45;8ca2&#45;dc492cc36793 -->
<g id="node15" class="node">
<title>67f4999d&#45;1228&#45;4b56&#45;8ca2&#45;dc492cc36793</title>
<polygon fill="#7fffd4" stroke="#7fffd4" points="3050.6053,-102.4019 2930.2347,-102.4019 2930.2347,-61.1981 3050.6053,-61.1981 3050.6053,-102.4019"/>
<text text-anchor="middle" x="2990.42" y="-86" font-family="Times,serif" font-size="14.00" fill="#000000">@Singleton</text>
<text text-anchor="middle" x="2990.42" y="-69.2" font-family="Times,serif" font-size="14.00" fill="#000000">LocationProcessor</text>
</g>
<!-- 960b3ee0&#45;ef7b&#45;4ae5&#45;a27a&#45;51e0127bbb0f&#45;&gt;67f4999d&#45;1228&#45;4b56&#45;8ca2&#45;dc492cc36793 -->
<g id="edge19" class="edge">
<title>960b3ee0&#45;ef7b&#45;4ae5&#45;a27a&#45;51e0127bbb0f&#45;&gt;67f4999d&#45;1228&#45;4b56&#45;8ca2&#45;dc492cc36793</title>
<path fill="none" stroke="#000000" d="M2674.2608,-160.8904C2697.9388,-143.5192 2737.5939,-120.3818 2774.9466,-107.8 2821.996,-91.9521 2877.3153,-83.1586 2920.1212,-79.5555"/>
<polygon fill="#000000" stroke="#000000" points="2920.46,-83.0399 2930.1642,-78.7881 2919.9266,-76.0603 2920.46,-83.0399"/>
</g>
<!-- d6201b39&#45;b7be&#45;4fe7&#45;b347&#45;57faf9160325 -->
<g id="node16" class="node">
<title>d6201b39&#45;b7be&#45;4fe7&#45;b347&#45;57faf9160325</title>
<polygon fill="#ff3030" stroke="#ff3030" points="3148.8668,-336.8 2831.9732,-336.8 2831.9732,-300.8 3148.8668,-300.8 3148.8668,-336.8"/>
<text text-anchor="middle" x="2990.42" y="-314.6" font-family="Times,serif" font-size="14.00" fill="#000000">androidx.test.espresso.idling.CountingIdlingResource</text>
</g>
<!-- 960b3ee0&#45;ef7b&#45;4ae5&#45;a27a&#45;51e0127bbb0f&#45;&gt;d6201b39&#45;b7be&#45;4fe7&#45;b347&#45;57faf9160325 -->
<g id="edge13" class="edge">
<title>960b3ee0&#45;ef7b&#45;4ae5&#45;a27a&#45;51e0127bbb0f&#45;&gt;d6201b39&#45;b7be&#45;4fe7&#45;b347&#45;57faf9160325</title>
<path fill="none" stroke="#000000" stroke-dasharray="5,2" d="M2670.1914,-202.6962C2691.9867,-227.2184 2731.6916,-267.0362 2774.9466,-286.8 2789.6881,-293.5356 2805.5325,-298.9128 2821.6975,-303.1978"/>
<polygon fill="#000000" stroke="#000000" points="2821.2461,-306.6927 2831.7968,-305.7269 2822.9467,-299.9024 2821.2461,-306.6927"/>
<text text-anchor="middle" x="2786.0987" y="-293.1269" font-family="Times,serif" font-size="14.00" fill="#000000">Missing binding</text>
</g>
<!-- cc06f03d&#45;737f&#45;4da3&#45;a93b&#45;02a74691a6ad&#45;&gt;70322cab&#45;1a0f&#45;47f8&#45;8a3c&#45;6c1917e8cf7c -->
<g id="edge25" class="edge">
<title>cc06f03d&#45;737f&#45;4da3&#45;a93b&#45;02a74691a6ad&#45;&gt;70322cab&#45;1a0f&#45;47f8&#45;8a3c&#45;6c1917e8cf7c</title>
<path fill="none" stroke="#000000" stroke-dasharray="5,2" d="M3677.7492,-276.3888C3733.8789,-290.7898 3835.4656,-316.8535 3906.9109,-335.1839"/>
<polygon fill="#000000" stroke="#000000" points="3906.2281,-338.622 3916.7842,-337.7171 3907.9678,-331.8416 3906.2281,-338.622"/>
<text text-anchor="middle" x="3871.0861" y="-325.1171" font-family="Times,serif" font-size="14.00" fill="#000000">Missing binding</text>
</g>
<!-- cc06f03d&#45;737f&#45;4da3&#45;a93b&#45;02a74691a6ad&#45;&gt;978a1a58&#45;ae53&#45;4425&#45;aefd&#45;834df4756cf8 -->
<g id="edge28" class="edge">
<title>cc06f03d&#45;737f&#45;4da3&#45;a93b&#45;02a74691a6ad&#45;&gt;978a1a58&#45;ae53&#45;4425&#45;aefd&#45;834df4756cf8</title>
<path fill="none" stroke="#000000" stroke-dasharray="5,2" d="M3676.0358,-245.0505C3742.1776,-210.3569 3874.7237,-140.8318 3943.5422,-104.734"/>
<polygon fill="#000000" stroke="#000000" points="3945.5864,-107.6141 3952.8163,-99.8694 3942.3348,-101.4151 3945.5864,-107.6141"/>
<text text-anchor="middle" x="3907.1182" y="-104.0694" font-family="Times,serif" font-size="14.00" fill="#000000">Missing binding</text>
</g>
<!-- 4a38a39c&#45;5600&#45;4bdc&#45;a115&#45;072c31309216 -->
<g id="node17" class="node">
<title>4a38a39c&#45;5600&#45;4bdc&#45;a115&#45;072c31309216</title>
<polygon fill="#ff3030" stroke="#ff3030" points="4164.0485,-283.8 3810.4811,-283.8 3810.4811,-247.8 4164.0485,-247.8 4164.0485,-283.8"/>
<text text-anchor="middle" x="3987.2648" y="-261.6" font-family="Times,serif" font-size="14.00" fill="#000000">org.owntracks.android.support.preferences.PreferencesStore</text>
</g>
<!-- cc06f03d&#45;737f&#45;4da3&#45;a93b&#45;02a74691a6ad&#45;&gt;4a38a39c&#45;5600&#45;4bdc&#45;a115&#45;072c31309216 -->
<g id="edge33" class="edge">
<title>cc06f03d&#45;737f&#45;4da3&#45;a93b&#45;02a74691a6ad&#45;&gt;4a38a39c&#45;5600&#45;4bdc&#45;a115&#45;072c31309216</title>
<path fill="none" stroke="#000000" stroke-dasharray="5,2" d="M3677.7492,-265.8C3708.8796,-265.8 3753.9924,-265.8 3800.1907,-265.8"/>
<polygon fill="#000000" stroke="#000000" points="3800.3726,-269.3001 3810.3725,-265.8 3800.3725,-262.3001 3800.3726,-269.3001"/>
<text text-anchor="middle" x="3764.6744" y="-253.2" font-family="Times,serif" font-size="14.00" fill="#000000">Missing binding</text>
</g>
<!-- 61416f7a&#45;e3cc&#45;4dcf&#45;a70d&#45;a01ab40d2fab -->
<g id="node18" class="node">
<title>61416f7a&#45;e3cc&#45;4dcf&#45;a70d&#45;a01ab40d2fab</title>
<polygon fill="#7fffd4" stroke="#7fffd4" points="3435.464,-316.4019 3308.6266,-316.4019 3308.6266,-275.1981 3435.464,-275.1981 3435.464,-316.4019"/>
<text text-anchor="middle" x="3372.0453" y="-300" font-family="Times,serif" font-size="14.00" fill="#000000">@Singleton</text>
<text text-anchor="middle" x="3372.0453" y="-283.2" font-family="Times,serif" font-size="14.00" fill="#000000">EncryptionProvider</text>
</g>
<!-- 076ff280&#45;5b95&#45;4e23&#45;9154&#45;3d352a029417&#45;&gt;61416f7a&#45;e3cc&#45;4dcf&#45;a70d&#45;a01ab40d2fab -->
<g id="edge35" class="edge">
<title>076ff280&#45;5b95&#45;4e23&#45;9154&#45;3d352a029417&#45;&gt;61416f7a&#45;e3cc&#45;4dcf&#45;a70d&#45;a01ab40d2fab</title>
<path fill="none" stroke="#000000" d="M3031.6232,-247.6303C3095.4816,-256.6662 3219.2508,-274.1796 3298.6487,-285.4144"/>
<polygon fill="#000000" stroke="#000000" points="3298.1928,-288.8847 3308.5846,-286.8203 3299.1736,-281.9537 3298.1928,-288.8847"/>
</g>
<!-- a2ed78c4&#45;08d2&#45;40e0&#45;9c2c&#45;2e4539c512aa&#45;&gt;70322cab&#45;1a0f&#45;47f8&#45;8a3c&#45;6c1917e8cf7c -->
<g id="edge27" class="edge">
<title>a2ed78c4&#45;08d2&#45;40e0&#45;9c2c&#45;2e4539c512aa&#45;&gt;70322cab&#45;1a0f&#45;47f8&#45;8a3c&#45;6c1917e8cf7c</title>
<path fill="none" stroke="#000000" stroke-dasharray="5,2" d="M3413.3378,-355.8C3450.9602,-355.8 3508.0611,-355.8 3557.6972,-355.8 3557.6972,-355.8 3557.6972,-355.8 3715.2588,-355.8 3724.1888,-355.8 3733.2837,-355.8 3742.4704,-355.8"/>
<polygon fill="#000000" stroke="#000000" points="3742.4716,-359.3001 3752.4716,-355.8 3742.4715,-352.3001 3742.4716,-359.3001"/>
<text text-anchor="middle" x="3706.7735" y="-343.2" font-family="Times,serif" font-size="14.00" fill="#000000">Missing binding</text>
</g>
<!-- a2ed78c4&#45;08d2&#45;40e0&#45;9c2c&#45;2e4539c512aa&#45;&gt;cc06f03d&#45;737f&#45;4da3&#45;a93b&#45;02a74691a6ad -->
<g id="edge32" class="edge">
<title>a2ed78c4&#45;08d2&#45;40e0&#45;9c2c&#45;2e4539c512aa&#45;&gt;cc06f03d&#45;737f&#45;4da3&#45;a93b&#45;02a74691a6ad</title>
<path fill="none" stroke="#000000" d="M3413.4218,-350.5557C3443.5976,-345.9827 3485.1655,-338.1162 3520.1972,-325.8 3545.5123,-316.8999 3572.2231,-303.4384 3593.6517,-291.52"/>
<polygon fill="#000000" stroke="#000000" points="3595.5081,-294.4912 3602.4925,-286.5244 3592.0644,-288.3968 3595.5081,-294.4912"/>
</g>
<!-- fa968a3d&#45;3130&#45;4a66&#45;99b9&#45;faf0041f6495&#45;&gt;70322cab&#45;1a0f&#45;47f8&#45;8a3c&#45;6c1917e8cf7c -->
<g id="edge24" class="edge">
<title>fa968a3d&#45;3130&#45;4a66&#45;99b9&#45;faf0041f6495&#45;&gt;70322cab&#45;1a0f&#45;47f8&#45;8a3c&#45;6c1917e8cf7c</title>
<path fill="none" stroke="#000000" stroke-dasharray="5,2" d="M3076.5666,-388.4096C3110.6872,-392.4033 3150.3125,-395.8 3186.3934,-395.8 3186.3934,-395.8 3186.3934,-395.8 3715.2588,-395.8 3776.467,-395.8 3844.6063,-385.7632 3897.3744,-375.7448"/>
<polygon fill="#000000" stroke="#000000" points="3898.2255,-379.1452 3907.3795,-373.8107 3896.8969,-372.2724 3898.2255,-379.1452"/>
<text text-anchor="middle" x="3861.6814" y="-378.0107" font-family="Times,serif" font-size="14.00" fill="#000000">Missing binding</text>
</g>
<!-- 67f4999d&#45;1228&#45;4b56&#45;8ca2&#45;dc492cc36793&#45;&gt;960b3ee0&#45;ef7b&#45;4ae5&#45;a27a&#45;51e0127bbb0f -->
<g id="edge12" class="edge">
<title>67f4999d&#45;1228&#45;4b56&#45;8ca2&#45;dc492cc36793&#45;&gt;960b3ee0&#45;ef7b&#45;4ae5&#45;a27a&#45;51e0127bbb0f</title>
<path fill="none" stroke="#000000" d="M2930.1642,-93.7484C2886.2382,-99.794 2825.7679,-108.6816 2774.9466,-125.8 2751.8329,-133.5855 2727.8376,-145.4129 2707.2919,-156.2935"/>
<polygon fill="#000000" stroke="#000000" points="2705.5771,-153.2415 2698.4114,-161.0455 2708.8798,-159.4134 2705.5771,-153.2415"/>
</g>
<!-- 67f4999d&#45;1228&#45;4b56&#45;8ca2&#45;dc492cc36793&#45;&gt;cc06f03d&#45;737f&#45;4da3&#45;a93b&#45;02a74691a6ad -->
<g id="edge31" class="edge">
<title>67f4999d&#45;1228&#45;4b56&#45;8ca2&#45;dc492cc36793&#45;&gt;cc06f03d&#45;737f&#45;4da3&#45;a93b&#45;02a74691a6ad</title>
<path fill="none" stroke="#000000" d="M3050.7597,-87.3867C3081.2189,-91.8249 3118.1329,-99.7388 3148.8934,-113.8 3187.2171,-131.3185 3184.4988,-156.8443 3223.8934,-171.8 3347.2905,-218.6464 3394.7864,-150.6473 3520.1972,-191.8 3551.0428,-201.9218 3581.8524,-222.0983 3604.0013,-238.8298"/>
<polygon fill="#000000" stroke="#000000" points="3601.9944,-241.7023 3612.048,-245.0455 3606.2736,-236.1625 3601.9944,-241.7023"/>
</g>
<!-- 67f4999d&#45;1228&#45;4b56&#45;8ca2&#45;dc492cc36793&#45;&gt;c6c6d2a3&#45;9e51&#45;4eec&#45;b84c&#45;ae139401ccb7 -->
<g id="edge34" class="edge">
<title>67f4999d&#45;1228&#45;4b56&#45;8ca2&#45;dc492cc36793&#45;&gt;c6c6d2a3&#45;9e51&#45;4eec&#45;b84c&#45;ae139401ccb7</title>
<path fill="none" stroke="#000000" stroke-dasharray="5,2" d="M3050.8112,-83.1991C3082.7366,-86.6941 3120.9811,-95.5531 3148.8934,-116.8 3162.4984,-127.1562 3155.2739,-138.2568 3166.8934,-150.8 3187.2556,-172.7809 3196.1579,-175.4633 3223.8934,-186.8 3234.255,-191.0352 3245.2638,-194.7465 3256.4186,-197.991"/>
<polygon fill="#000000" stroke="#000000" points="3255.6742,-201.4168 3266.2463,-200.7236 3257.5494,-194.6726 3255.6742,-201.4168"/>
<text text-anchor="middle" x="3311.9444" y="-188.1236" font-family="Times,serif" font-size="14.00" fill="#000000">Missing binding</text>
</g>
<!-- a51ea747&#45;690a&#45;4e4d&#45;8d5e&#45;9588eb95278e -->
<g id="node19" class="node">
<title>a51ea747&#45;690a&#45;4e4d&#45;8d5e&#45;9588eb95278e</title>
<polygon fill="#7fffd4" stroke="#7fffd4" points="3419.86,-102.4019 3324.2306,-102.4019 3324.2306,-61.1981 3419.86,-61.1981 3419.86,-102.4019"/>
<text text-anchor="middle" x="3372.0453" y="-86" font-family="Times,serif" font-size="14.00" fill="#000000">@Singleton</text>
<text text-anchor="middle" x="3372.0453" y="-69.2" font-family="Times,serif" font-size="14.00" fill="#000000">LocationRepo</text>
</g>
<!-- 67f4999d&#45;1228&#45;4b56&#45;8ca2&#45;dc492cc36793&#45;&gt;a51ea747&#45;690a&#45;4e4d&#45;8d5e&#45;9588eb95278e -->
<g id="edge37" class="edge">
<title>67f4999d&#45;1228&#45;4b56&#45;8ca2&#45;dc492cc36793&#45;&gt;a51ea747&#45;690a&#45;4e4d&#45;8d5e&#45;9588eb95278e</title>
<path fill="none" stroke="#000000" d="M3050.8897,-81.8C3123.105,-81.8 3243.0326,-81.8 3314.1096,-81.8"/>
<polygon fill="#000000" stroke="#000000" points="3314.2304,-85.3001 3324.2304,-81.8 3314.2304,-78.3001 3314.2304,-85.3001"/>
</g>
<!-- c4969365&#45;c7d8&#45;46e2&#45;9bd4&#45;27332dd4caa9 -->
<g id="node20" class="node">
<title>c4969365&#45;c7d8&#45;46e2&#45;9bd4&#45;27332dd4caa9</title>
<polygon fill="#7fffd4" stroke="#7fffd4" points="3445.156,-162.4019 3298.9346,-162.4019 3298.9346,-121.1981 3445.156,-121.1981 3445.156,-162.4019"/>
<text text-anchor="middle" x="3372.0453" y="-146" font-family="Times,serif" font-size="14.00" fill="#000000">@Singleton</text>
<text text-anchor="middle" x="3372.0453" y="-129.2" font-family="Times,serif" font-size="14.00" fill="#000000">DeviceMetricsProvider</text>
</g>
<!-- 67f4999d&#45;1228&#45;4b56&#45;8ca2&#45;dc492cc36793&#45;&gt;c4969365&#45;c7d8&#45;46e2&#45;9bd4&#45;27332dd4caa9 -->
<g id="edge38" class="edge">
<title>67f4999d&#45;1228&#45;4b56&#45;8ca2&#45;dc492cc36793&#45;&gt;c4969365&#45;c7d8&#45;46e2&#45;9bd4&#45;27332dd4caa9</title>
<path fill="none" stroke="#000000" d="M3050.8897,-91.3072C3115.1234,-101.4062 3217.1054,-117.44 3288.8824,-128.7249"/>
<polygon fill="#000000" stroke="#000000" points="3288.3806,-132.189 3298.8029,-130.2847 3289.4678,-125.2739 3288.3806,-132.189"/>
</g>
<!-- 61416f7a&#45;e3cc&#45;4dcf&#45;a70d&#45;a01ab40d2fab&#45;&gt;cc06f03d&#45;737f&#45;4da3&#45;a93b&#45;02a74691a6ad -->
<g id="edge30" class="edge">
<title>61416f7a&#45;e3cc&#45;4dcf&#45;a70d&#45;a01ab40d2fab&#45;&gt;cc06f03d&#45;737f&#45;4da3&#45;a93b&#45;02a74691a6ad</title>
<path fill="none" stroke="#000000" d="M3435.3835,-288.6143C3481.1176,-283.4257 3542.1063,-276.5065 3584.8831,-271.6535"/>
<polygon fill="#000000" stroke="#000000" points="3585.5324,-275.1023 3595.0741,-270.4973 3584.7433,-268.147 3585.5324,-275.1023"/>
</g>
<!-- a51ea747&#45;690a&#45;4e4d&#45;8d5e&#45;9588eb95278e&#45;&gt;978a1a58&#45;ae53&#45;4425&#45;aefd&#45;834df4756cf8 -->
<g id="edge29" class="edge">
<title>a51ea747&#45;690a&#45;4e4d&#45;8d5e&#45;9588eb95278e&#45;&gt;978a1a58&#45;ae53&#45;4425&#45;aefd&#45;834df4756cf8</title>
<path fill="none" stroke="#000000" stroke-dasharray="5,2" d="M3419.7409,-81.8C3457.2408,-81.8 3510.8008,-81.8 3557.6972,-81.8 3557.6972,-81.8 3557.6972,-81.8 3715.2588,-81.8 3766.6206,-81.8 3823.4377,-81.8 3871.8036,-81.8"/>
<polygon fill="#000000" stroke="#000000" points="3871.9911,-85.3001 3881.9911,-81.8 3871.9911,-78.3001 3871.9911,-85.3001"/>
<text text-anchor="middle" x="3836.293" y="-69.2" font-family="Times,serif" font-size="14.00" fill="#000000">Missing binding</text>
</g>
<!-- c4969365&#45;c7d8&#45;46e2&#45;9bd4&#45;27332dd4caa9&#45;&gt;70322cab&#45;1a0f&#45;47f8&#45;8a3c&#45;6c1917e8cf7c -->
<g id="edge26" class="edge">
<title>c4969365&#45;c7d8&#45;46e2&#45;9bd4&#45;27332dd4caa9&#45;&gt;70322cab&#45;1a0f&#45;47f8&#45;8a3c&#45;6c1917e8cf7c</title>
<path fill="none" stroke="#000000" stroke-dasharray="5,2" d="M3445.1822,-147.5591C3479.3435,-149.782 3520.5776,-151.8 3557.6972,-151.8 3557.6972,-151.8 3557.6972,-151.8 3715.2588,-151.8 3780.1039,-151.8 3706.964,-246.89 3752.7588,-292.8 3771.4361,-311.5243 3795.0424,-324.8549 3820.0403,-334.3109"/>
<polygon fill="#000000" stroke="#000000" points="3819.0871,-337.6868 3829.6817,-337.7484 3821.4379,-331.0933 3819.0871,-337.6868"/>
<text text-anchor="middle" x="3783.9836" y="-325.1484" font-family="Times,serif" font-size="14.00" fill="#000000">Missing binding</text>
</g>
<!-- bf2d5d00&#45;3b07&#45;4d79&#45;8f1c&#45;2c9e40fe3511&#45;&gt;960b3ee0&#45;ef7b&#45;4ae5&#45;a27a&#45;51e0127bbb0f -->
<g id="edge11" class="edge">
<title>bf2d5d00&#45;3b07&#45;4d79&#45;8f1c&#45;2c9e40fe3511&#45;&gt;960b3ee0&#45;ef7b&#45;4ae5&#45;a27a&#45;51e0127bbb0f</title>
<path fill="none" stroke="#000000" d="M2429.3698,-181.8C2479.1739,-181.8 2537.8228,-181.8 2582.5221,-181.8"/>
<polygon fill="#000000" stroke="#000000" points="2582.7029,-185.3001 2592.7029,-181.8 2582.7029,-178.3001 2582.7029,-185.3001"/>
</g>
<!-- 8920049d&#45;6906&#45;46ce&#45;aa47&#45;fe7f6be154a5&#45;&gt;67f4999d&#45;1228&#45;4b56&#45;8ca2&#45;dc492cc36793 -->
<g id="edge36" class="edge">
<title>8920049d&#45;6906&#45;46ce&#45;aa47&#45;fe7f6be154a5&#45;&gt;67f4999d&#45;1228&#45;4b56&#45;8ca2&#45;dc492cc36793</title>
<path fill="none" stroke="#000000" d="M2757.0432,-57.6031C2763.0981,-57.2876 2769.0994,-57.015 2774.9466,-56.8 2823.621,-55.0103 2878.1117,-61.4102 2920.1177,-68.1813"/>
<polygon fill="#000000" stroke="#000000" points="2919.8056,-71.6773 2930.2433,-69.8594 2920.9501,-64.7714 2919.8056,-71.6773"/>
</g>
<!-- 779981e4&#45;0739&#45;4fd5&#45;a747&#45;9f0d33cc0029 -->
<g id="node23" class="node">
<title>779981e4&#45;0739&#45;4fd5&#45;a747&#45;9f0d33cc0029</title>
<polygon fill="#40e0d0" stroke="#40e0d0" points="117.2713,-145.8 16.2421,-145.8 16.2421,-109.8 117.2713,-109.8 117.2713,-145.8"/>
<text text-anchor="middle" x="66.7567" y="-123.6" font-family="Times,serif" font-size="14.00" fill="#000000">WorkerFactory</text>
</g>
<!-- e6a10c7b&#45;6de5&#45;43ad&#45;89db&#45;a7696eac0995 -->
<g id="node24" class="node">
<title>e6a10c7b&#45;6de5&#45;43ad&#45;89db&#45;a7696eac0995</title>
<polygon fill="#40e0d0" stroke="#40e0d0" points="413.5073,-145.8 243.6277,-145.8 243.6277,-109.8 413.5073,-109.8 413.5073,-145.8"/>
<text text-anchor="middle" x="328.5675" y="-123.6" font-family="Times,serif" font-size="14.00" fill="#000000">BackgroundWorkerFactory</text>
</g>
<!-- 779981e4&#45;0739&#45;4fd5&#45;a747&#45;9f0d33cc0029&#45;&gt;e6a10c7b&#45;6de5&#45;43ad&#45;89db&#45;a7696eac0995 -->
<g id="edge39" class="edge">
<title>779981e4&#45;0739&#45;4fd5&#45;a747&#45;9f0d33cc0029&#45;&gt;e6a10c7b&#45;6de5&#45;43ad&#45;89db&#45;a7696eac0995</title>
<path fill="none" stroke="#000000" stroke-dasharray="1,5" d="M117.5469,-127.8C150.3081,-127.8 193.9469,-127.8 233.0362,-127.8"/>
<polygon fill="#000000" stroke="#000000" points="233.3955,-131.3001 243.3954,-127.8 233.3954,-124.3001 233.3955,-131.3001"/>
<text text-anchor="middle" x="180.5555" y="-132" font-family="Times,serif" font-size="14.00" fill="#000000">delegates</text>
</g>
<!-- cb163c22&#45;3200&#45;4e6c&#45;bf52&#45;9fa313470686 -->
<g id="node26" class="node">
<title>cb163c22&#45;3200&#45;4e6c&#45;bf52&#45;9fa313470686</title>
<polygon fill="#40e0d0" stroke="#40e0d0" points="1022.1972,-145.8 500.6508,-145.8 500.6508,-149.8 488.6508,-149.8 488.6508,-109.8 1022.1972,-109.8 1022.1972,-145.8"/>
<polyline fill="none" stroke="#40e0d0" points="488.6508,-145.8 500.6508,-145.8 "/>
<text text-anchor="middle" x="755.424" y="-123.6" font-family="Times,serif" font-size="14.00" fill="#000000">Map&lt;Class&lt;? extends androidx.work.ListenableWorker&gt;, Provider&lt;ChildWorkerFactory&gt;&gt;</text>
</g>
<!-- e6a10c7b&#45;6de5&#45;43ad&#45;89db&#45;a7696eac0995&#45;&gt;cb163c22&#45;3200&#45;4e6c&#45;bf52&#45;9fa313470686 -->
<g id="edge40" class="edge">
<title>e6a10c7b&#45;6de5&#45;43ad&#45;89db&#45;a7696eac0995&#45;&gt;cb163c22&#45;3200&#45;4e6c&#45;bf52&#45;9fa313470686</title>
<path fill="none" stroke="#000000" d="M413.6665,-127.8C433.2639,-127.8 455.1573,-127.8 478.1386,-127.8"/>
<polygon fill="#000000" stroke="#000000" points="478.4087,-131.3001 488.4087,-127.8 478.4086,-124.3001 478.4087,-131.3001"/>
</g>
<!-- f4c49ca4&#45;be3d&#45;4046&#45;8842&#45;d90a4c588665 -->
<g id="node25" class="node">
<title>f4c49ca4&#45;be3d&#45;4046&#45;8842&#45;d90a4c588665</title>
<polygon fill="#40e0d0" stroke="#40e0d0" points="1566.9732,-284.8 1109.423,-284.8 1109.423,-288.8 1097.423,-288.8 1097.423,-248.8 1566.9732,-248.8 1566.9732,-284.8"/>
<polyline fill="none" stroke="#40e0d0" points="1097.423,-284.8 1109.423,-284.8 "/>
<text text-anchor="middle" x="1332.1981" y="-262.6" font-family="Times,serif" font-size="14.00" fill="#000000">Map&lt;Class&lt;? extends androidx.work.ListenableWorker&gt;, ChildWorkerFactory&gt;</text>
</g>
<!-- f4c49ca4&#45;be3d&#45;4046&#45;8842&#45;d90a4c588665&#45;&gt;57cf8f35&#45;4906&#45;455c&#45;b255&#45;f08dc2b4fb4c -->
<g id="edge2" class="edge">
<title>f4c49ca4&#45;be3d&#45;4046&#45;8842&#45;d90a4c588665&#45;&gt;57cf8f35&#45;4906&#45;455c&#45;b255&#45;f08dc2b4fb4c</title>
<path fill="none" stroke="#000000" d="M1549.4997,-248.7479C1558.3309,-245.2787 1566.9018,-241.3167 1575.0856,-236.8 1616.2895,-214.059 1600.9632,-177.6881 1642.0856,-154.8 1645.0468,-153.1518 1648.068,-151.5882 1651.1408,-150.1051"/>
<polygon fill="#000000" stroke="#000000" points="1652.8213,-153.187 1660.5059,-145.8933 1649.9502,-146.8029 1652.8213,-153.187"/>
</g>
<!-- f4c49ca4&#45;be3d&#45;4046&#45;8842&#45;d90a4c588665&#45;&gt;a70da0df&#45;49a9&#45;4e8c&#45;a910&#45;ca55f19e56fb -->
<g id="edge1" class="edge">
<title>f4c49ca4&#45;be3d&#45;4046&#45;8842&#45;d90a4c588665&#45;&gt;a70da0df&#45;49a9&#45;4e8c&#45;a910&#45;ca55f19e56fb</title>
<path fill="none" stroke="#000000" d="M1492.1639,-248.7867C1519.8651,-245.1693 1548.3482,-241.1337 1575.0856,-236.8 1636.0487,-226.919 1704.137,-213.2334 1757.1222,-201.986"/>
<polygon fill="#000000" stroke="#000000" points="1758.1221,-205.3516 1767.1725,-199.8434 1756.6625,-198.5054 1758.1221,-205.3516"/>
</g>
<!-- f4c49ca4&#45;be3d&#45;4046&#45;8842&#45;d90a4c588665&#45;&gt;104256b0&#45;326d&#45;4e4d&#45;a182&#45;0682f71ddae1 -->
<g id="edge3" class="edge">
<title>f4c49ca4&#45;be3d&#45;4046&#45;8842&#45;d90a4c588665&#45;&gt;104256b0&#45;326d&#45;4e4d&#45;a182&#45;0682f71ddae1</title>
<path fill="none" stroke="#000000" d="M1567.1526,-252.0168C1573.7385,-248.3991 1580.0725,-244.3416 1586.0856,-239.8 1639.2326,-199.6584 1589.4259,-141.5788 1642.0856,-100.8 1651.9523,-93.1594 1662.9123,-87.0885 1674.4913,-82.3029"/>
<polygon fill="#000000" stroke="#000000" points="1675.7916,-85.5531 1683.9012,-78.735 1673.3098,-79.0078 1675.7916,-85.5531"/>
</g>
<!-- cb163c22&#45;3200&#45;4e6c&#45;bf52&#45;9fa313470686&#45;&gt;57cf8f35&#45;4906&#45;455c&#45;b255&#45;f08dc2b4fb4c -->
<g id="edge4" class="edge">
<title>cb163c22&#45;3200&#45;4e6c&#45;bf52&#45;9fa313470686&#45;&gt;57cf8f35&#45;4906&#45;455c&#45;b255&#45;f08dc2b4fb4c</title>
<path fill="none" stroke="#000000" d="M1022.2664,-127.8C1034.9588,-127.8 1047.5242,-127.8 1059.8106,-127.8 1059.8106,-127.8 1059.8106,-127.8 1604.5856,-127.8 1613.528,-127.8 1622.6547,-127.8 1631.8746,-127.8"/>
<polygon fill="#000000" stroke="#000000" points="1631.9114,-131.3001 1641.9114,-127.8 1631.9114,-124.3001 1631.9114,-131.3001"/>
</g>
<!-- cb163c22&#45;3200&#45;4e6c&#45;bf52&#45;9fa313470686&#45;&gt;a70da0df&#45;49a9&#45;4e8c&#45;a910&#45;ca55f19e56fb -->
<g id="edge6" class="edge">
<title>cb163c22&#45;3200&#45;4e6c&#45;bf52&#45;9fa313470686&#45;&gt;a70da0df&#45;49a9&#45;4e8c&#45;a910&#45;ca55f19e56fb</title>
<path fill="none" stroke="#000000" d="M853.4141,-145.8123C912.8969,-155.2219 990.4735,-164.8 1059.8106,-164.8 1059.8106,-164.8 1059.8106,-164.8 1604.5856,-164.8 1627.7114,-164.8 1652.0405,-165.5696 1676.0139,-166.7813"/>
<polygon fill="#000000" stroke="#000000" points="1676.09,-170.2902 1686.262,-167.3267 1676.4621,-163.3001 1676.09,-170.2902"/>
</g>
<!-- cb163c22&#45;3200&#45;4e6c&#45;bf52&#45;9fa313470686&#45;&gt;104256b0&#45;326d&#45;4e4d&#45;a182&#45;0682f71ddae1 -->
<g id="edge8" class="edge">
<title>cb163c22&#45;3200&#45;4e6c&#45;bf52&#45;9fa313470686&#45;&gt;104256b0&#45;326d&#45;4e4d&#45;a182&#45;0682f71ddae1</title>
<path fill="none" stroke="#000000" d="M853.4141,-109.7877C912.8969,-100.3781 990.4735,-90.8 1059.8106,-90.8 1059.8106,-90.8 1059.8106,-90.8 1604.5856,-90.8 1626.9609,-90.8 1650.4627,-90.0795 1673.679,-88.9353"/>
<polygon fill="#000000" stroke="#000000" points="1674.1577,-92.4152 1683.9624,-88.4004 1673.794,-85.4246 1674.1577,-92.4152"/>
</g>
</g>
</svg>
