<svg width="1216px" height="368px"
 viewBox="0.00 0.00 1216.25 367.60" xmlns="http://www.w3.org/2000/svg" xmlns:xlink="http://www.w3.org/1999/xlink">
<g id="graph0" class="graph" transform="scale(1.0 1.0) rotate(0) translate(14.4 353.2)">
<title>org.owntracks.android.injection.modules.AndroidBindingModule → org.owntracks.android.injection.modules.AndroidBindingModule_BindWelcomeActivity.WelcomeActivitySubcomponent → org.owntracks.android.ui.welcome.WelcomeActivityModule_BindVersionFragment.VersionFragmentSubcomponent</title>
<polygon fill="#ffffff" stroke="transparent" points="-14.4,14.4 -14.4,-353.2 1201.8506,-353.2 1201.8506,14.4 -14.4,14.4"/>
<text text-anchor="middle" x="551.5759" y="-8.2" font-family="Times,serif" font-size="14.00" fill="#000000">AndroidBindingModule → AndroidBindingModule_BindWelcomeActivity.WelcomeActivitySubcomponent → WelcomeActivityModule_BindVersionFragment.VersionFragmentSubcomponent</text>
<g id="clust2" class="cluster">
<title>cluster_Dependency Graph</title>
<polygon fill="none" stroke="#000000" points="202.8928,-193.8 202.8928,-330.8 1179.4506,-330.8 1179.4506,-193.8 202.8928,-193.8"/>
<text text-anchor="middle" x="265.1162" y="-314.2" font-family="Times,serif" font-size="14.00" fill="#000000">Dependency Graph</text>
</g>
<g id="clust1" class="cluster">
<title>cluster_Entry Points</title>
<polygon fill="none" stroke="#000000" points="8,-89.8 8,-166.8 181.8928,-166.8 181.8928,-89.8 8,-89.8"/>
<text text-anchor="middle" x="50.8061" y="-150.2" font-family="Times,serif" font-size="14.00" fill="#000000">Entry Points</text>
</g>
<g id="clust4" class="cluster">
<title>cluster_AndroidBindingModule → AndroidBindingModule_BindWelcomeActivity.WelcomeActivitySubcomponent</title>
<g id="a_clust4"><a xlink:href="full_org.owntracks.android.injection.modules.AndroidBindingModule_BindWelcomeActivity.WelcomeActivitySubcomponent.svg" xlink:title="Inherited from AndroidBindingModule_BindWelcomeActivity.WelcomeActivitySubcomponent\n@PerActivity">
<polygon fill="none" stroke="#7fffd4" stroke-dasharray="5,2" points="356.9742,-32.8 356.9742,-185.8 912.922,-185.8 912.922,-32.8 356.9742,-32.8"/>
<text text-anchor="middle" x="634.9481" y="-169.2" font-family="Times,serif" font-size="14.00" fill="#000000">Inherited from AndroidBindingModule_BindWelcomeActivity.WelcomeActivitySubcomponent</text>
<text text-anchor="middle" x="634.9481" y="-152.4" font-family="Times,serif" font-size="14.00" fill="#000000">@PerActivity</text>
</a>
</g>
</g>
<!-- a663bda4&#45;764e&#45;42cb&#45;8f23&#45;4745a08cdc81 -->
<g id="node1" class="node">
<title>a663bda4&#45;764e&#45;42cb&#45;8f23&#45;4745a08cdc81</title>
<polygon fill="#40e0d0" stroke="#40e0d0" stroke-width="2" points="173.8392,-133.8 16.0536,-133.8 16.0536,-129.8 12.0536,-129.8 12.0536,-125.8 16.0536,-125.8 16.0536,-105.8 12.0536,-105.8 12.0536,-101.8 16.0536,-101.8 16.0536,-97.8 173.8392,-97.8 173.8392,-133.8"/>
<polyline fill="none" stroke="#40e0d0" stroke-width="2" points="16.0536,-129.8 20.0536,-129.8 20.0536,-125.8 16.0536,-125.8 "/>
<polyline fill="none" stroke="#40e0d0" stroke-width="2" points="16.0536,-105.8 20.0536,-105.8 20.0536,-101.8 16.0536,-101.8 "/>
<text text-anchor="middle" x="94.9464" y="-111.6" font-family="Times,serif" font-size="14.00" fill="#000000">inject (VersionFragment)</text>
</g>
<!-- ffc81fda&#45;5523&#45;4946&#45;9978&#45;9dc740567137 -->
<g id="node2" class="node">
<title>ffc81fda&#45;5523&#45;4946&#45;9978&#45;9dc740567137</title>
<polygon fill="#40e0d0" stroke="#40e0d0" points="328.0149,-237.8 210.8521,-237.8 210.8521,-201.8 328.0149,-201.8 328.0149,-237.8"/>
<text text-anchor="middle" x="269.4335" y="-215.6" font-family="Times,serif" font-size="14.00" fill="#000000">NoOpViewModel</text>
</g>
<!-- a663bda4&#45;764e&#45;42cb&#45;8f23&#45;4745a08cdc81&#45;&gt;ffc81fda&#45;5523&#45;4946&#45;9978&#45;9dc740567137 -->
<g id="edge2" class="edge">
<title>a663bda4&#45;764e&#45;42cb&#45;8f23&#45;4745a08cdc81&#45;&gt;ffc81fda&#45;5523&#45;4946&#45;9978&#45;9dc740567137</title>
<path fill="none" stroke="#000000" d="M125.3397,-133.9154C154.5242,-151.3103 198.7417,-177.6654 230.4939,-196.5907"/>
<polygon fill="#000000" stroke="#000000" points="228.7143,-199.6046 239.0962,-201.718 232.2983,-193.5916 228.7143,-199.6046"/>
</g>
<!-- fbe8aac0&#45;01e7&#45;418c&#45;ab17&#45;8ddf51c1e8ba -->
<g id="node5" class="node">
<title>fbe8aac0&#45;01e7&#45;418c&#45;ab17&#45;8ddf51c1e8ba</title>
<polygon fill="#7fffd4" stroke="#7fffd4" points="681.3831,-136.4019 587.5131,-136.4019 587.5131,-95.1981 681.3831,-95.1981 681.3831,-136.4019"/>
<text text-anchor="middle" x="634.4481" y="-120" font-family="Times,serif" font-size="14.00" fill="#000000">@PerActivity</text>
<text text-anchor="middle" x="634.4481" y="-103.2" font-family="Times,serif" font-size="14.00" fill="#000000">Navigator</text>
</g>
<!-- a663bda4&#45;764e&#45;42cb&#45;8f23&#45;4745a08cdc81&#45;&gt;fbe8aac0&#45;01e7&#45;418c&#45;ab17&#45;8ddf51c1e8ba -->
<g id="edge3" class="edge">
<title>a663bda4&#45;764e&#45;42cb&#45;8f23&#45;4745a08cdc81&#45;&gt;fbe8aac0&#45;01e7&#45;418c&#45;ab17&#45;8ddf51c1e8ba</title>
<path fill="none" stroke="#000000" d="M173.9724,-115.8C283.9632,-115.8 480.5703,-115.8 577.3837,-115.8"/>
<polygon fill="#000000" stroke="#000000" points="577.5601,-119.3001 587.5601,-115.8 577.56,-112.3001 577.5601,-119.3001"/>
</g>
<!-- 4c5a5cd4&#45;0755&#45;48a0&#45;ab4b&#45;d3ff46d4ec09 -->
<g id="node6" class="node">
<title>4c5a5cd4&#45;0755&#45;48a0&#45;ab4b&#45;d3ff46d4ec09</title>
<polygon fill="#40e0d0" stroke="#40e0d0" points="747.8959,-76.8 521.0003,-76.8 521.0003,-40.8 747.8959,-40.8 747.8959,-76.8"/>
<text text-anchor="middle" x="634.4481" y="-54.6" font-family="Times,serif" font-size="14.00" fill="#000000">DispatchingAndroidInjector&lt;Object&gt;</text>
</g>
<!-- a663bda4&#45;764e&#45;42cb&#45;8f23&#45;4745a08cdc81&#45;&gt;4c5a5cd4&#45;0755&#45;48a0&#45;ab4b&#45;d3ff46d4ec09 -->
<g id="edge1" class="edge">
<title>a663bda4&#45;764e&#45;42cb&#45;8f23&#45;4745a08cdc81&#45;&gt;4c5a5cd4&#45;0755&#45;48a0&#45;ab4b&#45;d3ff46d4ec09</title>
<path fill="none" stroke="#000000" d="M174.0257,-106.3918C225.9979,-100.2959 295.5039,-92.3092 356.9742,-85.8 407.1888,-80.4827 462.5593,-75.0151 510.5433,-70.4028"/>
<polygon fill="#000000" stroke="#000000" points="511.0458,-73.8707 520.6659,-69.4319 510.3774,-66.9027 511.0458,-73.8707"/>
</g>
<!-- ffc81fda&#45;5523&#45;4946&#45;9978&#45;9dc740567137&#45;&gt;fbe8aac0&#45;01e7&#45;418c&#45;ab17&#45;8ddf51c1e8ba -->
<g id="edge4" class="edge">
<title>ffc81fda&#45;5523&#45;4946&#45;9978&#45;9dc740567137&#45;&gt;fbe8aac0&#45;01e7&#45;418c&#45;ab17&#45;8ddf51c1e8ba</title>
<path fill="none" stroke="#000000" d="M320.1582,-201.749C332.1759,-197.6581 344.9857,-193.448 356.9742,-189.8 432.7913,-166.7294 521.4339,-143.7786 577.7438,-129.6936"/>
<polygon fill="#000000" stroke="#000000" points="578.6709,-133.0697 587.5271,-127.2543 576.9774,-126.2776 578.6709,-133.0697"/>
</g>
<!-- b230bf9d&#45;bda9&#45;4cae&#45;81ae&#45;9134483519c3 -->
<g id="node3" class="node">
<title>b230bf9d&#45;bda9&#45;4cae&#45;81ae&#45;9134483519c3</title>
<polygon fill="#ff7f50" stroke="#ff7f50" points="320.1377,-297.4019 218.7293,-297.4019 218.7293,-256.1981 320.1377,-256.1981 320.1377,-297.4019"/>
<text text-anchor="middle" x="269.4335" y="-281" font-family="Times,serif" font-size="14.00" fill="#000000">@PerFragment</text>
<text text-anchor="middle" x="269.4335" y="-264.2" font-family="Times,serif" font-size="14.00" fill="#000000">Fragment</text>
</g>
<!-- d6ca52f0&#45;3e73&#45;4f4c&#45;9ddc&#45;2eac9045d548 -->
<g id="node4" class="node">
<title>d6ca52f0&#45;3e73&#45;4f4c&#45;9ddc&#45;2eac9045d548</title>
<polygon fill="#40e0d0" stroke="#40e0d0" points="1171.2155,-294.8 988.2299,-294.8 941.1572,-258.8 1124.1428,-258.8 1171.2155,-294.8"/>
<text text-anchor="middle" x="1056.1863" y="-272.6" font-family="Times,serif" font-size="14.00" fill="#000000">VersionFragment</text>
</g>
<!-- b230bf9d&#45;bda9&#45;4cae&#45;81ae&#45;9134483519c3&#45;&gt;d6ca52f0&#45;3e73&#45;4f4c&#45;9ddc&#45;2eac9045d548 -->
<g id="edge5" class="edge">
<title>b230bf9d&#45;bda9&#45;4cae&#45;81ae&#45;9134483519c3&#45;&gt;d6ca52f0&#45;3e73&#45;4f4c&#45;9ddc&#45;2eac9045d548</title>
<path fill="none" stroke="#000000" stroke-dasharray="1,5" d="M320.1464,-276.8C447.779,-276.8 784.2215,-276.8 954.4505,-276.8"/>
<polygon fill="#000000" stroke="#000000" points="954.6718,-280.3001 964.6718,-276.8 954.6717,-273.3001 954.6718,-280.3001"/>
<text text-anchor="middle" x="634.4481" y="-281" font-family="Times,serif" font-size="14.00" fill="#000000">delegates</text>
</g>
</g>
</svg>
