<svg width="1209px" height="169px"
 viewBox="0.00 0.00 1208.81 168.60" xmlns="http://www.w3.org/2000/svg" xmlns:xlink="http://www.w3.org/1999/xlink">
<g id="graph0" class="graph" transform="scale(1.0 1.0) rotate(0) translate(14.4 154.2)">
<title>org.owntracks.android.injection.modules.AndroidBindingModule → org.owntracks.android.injection.modules.AndroidBindingModule_BindPreferencesActivity.PreferencesActivitySubcomponent → org.owntracks.android.ui.preferences.PreferencesActivityModule_BindPreferencesFragment.PreferencesFragmentSubcomponent</title>
<polygon fill="#ffffff" stroke="transparent" points="-14.4,14.4 -14.4,-154.2 1194.409,-154.2 1194.409,14.4 -14.4,14.4"/>
<text text-anchor="middle" x="590.0045" y="-8.2" font-family="Times,serif" font-size="14.00" fill="#000000">AndroidBindingModule → AndroidBindingModule_BindPreferencesActivity.PreferencesActivitySubcomponent → PreferencesActivityModule_BindPreferencesFragment.PreferencesFragmentSubcomponent</text>
<g id="clust1" class="cluster">
<title>cluster_Entry Points</title>
<polygon fill="none" stroke="#000000" points="196.7948,-35.8 196.7948,-112.8 391.6526,-112.8 391.6526,-35.8 196.7948,-35.8"/>
<text text-anchor="middle" x="239.6009" y="-96.2" font-family="Times,serif" font-size="14.00" fill="#000000">Entry Points</text>
</g>
<g id="clust4" class="cluster">
<title>cluster_AndroidBindingModule → AndroidBindingModule_BindPreferencesActivity.PreferencesActivitySubcomponent</title>
<g id="a_clust4"><a xlink:href="full_org.owntracks.android.injection.modules.AndroidBindingModule_BindPreferencesActivity.PreferencesActivitySubcomponent.svg" xlink:title="Inherited from AndroidBindingModule_BindPreferencesActivity.PreferencesActivitySubcomponent\n@PerActivity">
<polygon fill="none" stroke="#7fffd4" stroke-dasharray="5,2" points="411.6526,-32.8 411.6526,-131.8 991.2142,-131.8 991.2142,-32.8 411.6526,-32.8"/>
<text text-anchor="middle" x="701.4334" y="-115.2" font-family="Times,serif" font-size="14.00" fill="#000000">Inherited from AndroidBindingModule_BindPreferencesActivity.PreferencesActivitySubcomponent</text>
<text text-anchor="middle" x="701.4334" y="-98.4" font-family="Times,serif" font-size="14.00" fill="#000000">@PerActivity</text>
</a>
</g>
</g>
<!-- 7ffff920&#45;3fa3&#45;4008&#45;a602&#45;9d54457a042e -->
<g id="node1" class="node">
<title>7ffff920&#45;3fa3&#45;4008&#45;a602&#45;9d54457a042e</title>
<polygon fill="#40e0d0" stroke="#40e0d0" stroke-width="2" points="383.5816,-79.8 204.8658,-79.8 204.8658,-75.8 200.8658,-75.8 200.8658,-71.8 204.8658,-71.8 204.8658,-51.8 200.8658,-51.8 200.8658,-47.8 204.8658,-47.8 204.8658,-43.8 383.5816,-43.8 383.5816,-79.8"/>
<polyline fill="none" stroke="#40e0d0" stroke-width="2" points="204.8658,-75.8 208.8658,-75.8 208.8658,-71.8 204.8658,-71.8 "/>
<polyline fill="none" stroke="#40e0d0" stroke-width="2" points="204.8658,-51.8 208.8658,-51.8 208.8658,-47.8 204.8658,-47.8 "/>
<text text-anchor="middle" x="294.2237" y="-57.6" font-family="Times,serif" font-size="14.00" fill="#000000">inject (PreferencesFragment)</text>
</g>
<!-- 6b0c8ada&#45;4d44&#45;4761&#45;9608&#45;56b0a8bff58b -->
<g id="node2" class="node">
<title>6b0c8ada&#45;4d44&#45;4761&#45;9608&#45;56b0a8bff58b</title>
<polygon fill="#76ee00" stroke="#76ee00" points="741.9962,-82.4019 659.8706,-82.4019 659.8706,-41.1981 741.9962,-41.1981 741.9962,-82.4019"/>
<text text-anchor="middle" x="700.9334" y="-66" font-family="Times,serif" font-size="14.00" fill="#000000">@Singleton</text>
<text text-anchor="middle" x="700.9334" y="-49.2" font-family="Times,serif" font-size="14.00" fill="#000000">Preferences</text>
</g>
<!-- 7ffff920&#45;3fa3&#45;4008&#45;a602&#45;9d54457a042e&#45;&gt;6b0c8ada&#45;4d44&#45;4761&#45;9608&#45;56b0a8bff58b -->
<g id="edge1" class="edge">
<title>7ffff920&#45;3fa3&#45;4008&#45;a602&#45;9d54457a042e&#45;&gt;6b0c8ada&#45;4d44&#45;4761&#45;9608&#45;56b0a8bff58b</title>
<path fill="none" stroke="#000000" d="M383.7295,-61.8C465.2049,-61.8 582.6555,-61.8 649.4082,-61.8"/>
<polygon fill="#000000" stroke="#000000" points="649.6731,-65.3001 659.673,-61.8 649.673,-58.3001 649.6731,-65.3001"/>
</g>
</g>
</svg>
