<svg width="1764px" height="975px"
 viewBox="0.00 0.00 1764.31 974.60" xmlns="http://www.w3.org/2000/svg" xmlns:xlink="http://www.w3.org/1999/xlink">
<g id="graph0" class="graph" transform="scale(1.0 1.0) rotate(0) translate(14.4 960.2)">
<title>org.owntracks.android.injection.modules.AndroidBindingModule → org.owntracks.android.injection.modules.AndroidBindingModule_BindLogViewerActivity.LogViewerActivitySubcomponent</title>
<polygon fill="#ffffff" stroke="transparent" points="-14.4,14.4 -14.4,-960.2 1749.9112,-960.2 1749.9112,14.4 -14.4,14.4"/>
<text text-anchor="middle" x="322.5653" y="-8.2" font-family="Times,serif" font-size="14.00" fill="#000000">AndroidBindingModule → AndroidBindingModule_BindLogViewerActivity.LogViewerActivitySubcomponent</text>
<g id="clust5" class="cluster">
<title>cluster_AndroidBindingModule → AndroidBindingModule_BindLogViewerActivity.LogViewerActivitySubcomponent</title>
<g id="a_clust5"><a xlink:href="full_org.owntracks.android.injection.modules.AndroidBindingModule_BindLogViewerActivity.LogViewerActivitySubcomponent.svg" xlink:title="Inherited from AndroidBindingModule_BindLogViewerActivity.LogViewerActivitySubcomponent\n@PerActivity">
<polygon fill="none" stroke="#7fffd4" stroke-dasharray="5,2" points="214.552,-44.8 214.552,-937.8 1727.5112,-937.8 1727.5112,-44.8 214.552,-44.8"/>
<text text-anchor="middle" x="971.0316" y="-921.2" font-family="Times,serif" font-size="14.00" fill="#000000">Inherited from AndroidBindingModule_BindLogViewerActivity.LogViewerActivitySubcomponent</text>
<text text-anchor="middle" x="971.0316" y="-904.4" font-family="Times,serif" font-size="14.00" fill="#000000">@PerActivity</text>
</a>
</g>
</g>
<g id="clust6" class="cluster">
<title>cluster_Map&lt;Class&lt;?&gt;, Provider&lt;AndroidInjector.Factory&lt;?&gt;&gt;&gt;</title>
<g id="a_clust6"><a xlink:href="full_org.owntracks.android.injection.modules.AndroidBindingModule_BindLogViewerActivity.LogViewerActivitySubcomponent.svg" xlink:title="Map&lt;Class&lt;?&gt;, Provider&lt;AndroidInjector.Factory&lt;?&gt;&gt;&gt;">
<path fill="none" stroke="#000000" d="M528.4998,-162.8C528.4998,-162.8 1707.5112,-162.8 1707.5112,-162.8 1713.5112,-162.8 1719.5112,-168.8 1719.5112,-174.8 1719.5112,-174.8 1719.5112,-875.8 1719.5112,-875.8 1719.5112,-881.8 1713.5112,-887.8 1707.5112,-887.8 1707.5112,-887.8 528.4998,-887.8 528.4998,-887.8 522.4998,-887.8 516.4998,-881.8 516.4998,-875.8 516.4998,-875.8 516.4998,-174.8 516.4998,-174.8 516.4998,-168.8 522.4998,-162.8 528.4998,-162.8"/>
<text text-anchor="middle" x="1118.0055" y="-871.2" font-family="Times,serif" font-size="14.00" fill="#000000">Map&lt;Class&lt;?&gt;, Provider&lt;AndroidInjector.Factory&lt;?&gt;&gt;&gt;</text>
</a>
</g>
</g>
<g id="clust1" class="cluster">
<title>cluster_Entry Points</title>
<polygon fill="none" stroke="#000000" points="8,-67.8 8,-144.8 193.552,-144.8 193.552,-67.8 8,-67.8"/>
<text text-anchor="middle" x="50.8061" y="-128.2" font-family="Times,serif" font-size="14.00" fill="#000000">Entry Points</text>
</g>
<!-- d3dc71d4&#45;28b3&#45;4662&#45;ac9c&#45;da2e407c5a55 -->
<g id="node1" class="node">
<title>d3dc71d4&#45;28b3&#45;4662&#45;ac9c&#45;da2e407c5a55</title>
<polygon fill="#40e0d0" stroke="#40e0d0" stroke-width="2" points="185.3286,-111.8 16.2234,-111.8 16.2234,-107.8 12.2234,-107.8 12.2234,-103.8 16.2234,-103.8 16.2234,-83.8 12.2234,-83.8 12.2234,-79.8 16.2234,-79.8 16.2234,-75.8 185.3286,-75.8 185.3286,-111.8"/>
<polyline fill="none" stroke="#40e0d0" stroke-width="2" points="16.2234,-107.8 20.2234,-107.8 20.2234,-103.8 16.2234,-103.8 "/>
<polyline fill="none" stroke="#40e0d0" stroke-width="2" points="16.2234,-83.8 20.2234,-83.8 20.2234,-79.8 16.2234,-79.8 "/>
<text text-anchor="middle" x="100.776" y="-89.6" font-family="Times,serif" font-size="14.00" fill="#000000">inject (LogViewerActivity)</text>
</g>
<!-- 0f3f341b&#45;6f02&#45;47ab&#45;bcb5&#45;00d0f9cf4f58 -->
<g id="node2" class="node">
<title>0f3f341b&#45;6f02&#45;47ab&#45;bcb5&#45;00d0f9cf4f58</title>
<polygon fill="#40e0d0" stroke="#40e0d0" points="449.4737,-340.8 222.5781,-340.8 222.5781,-304.8 449.4737,-304.8 449.4737,-340.8"/>
<text text-anchor="middle" x="336.0259" y="-318.6" font-family="Times,serif" font-size="14.00" fill="#000000">DispatchingAndroidInjector&lt;Object&gt;</text>
</g>
<!-- d3dc71d4&#45;28b3&#45;4662&#45;ac9c&#45;da2e407c5a55&#45;&gt;0f3f341b&#45;6f02&#45;47ab&#45;bcb5&#45;00d0f9cf4f58 -->
<g id="edge1" class="edge">
<title>d3dc71d4&#45;28b3&#45;4662&#45;ac9c&#45;da2e407c5a55&#45;&gt;0f3f341b&#45;6f02&#45;47ab&#45;bcb5&#45;00d0f9cf4f58</title>
<path fill="none" stroke="#000000" d="M119.6298,-112.1529C161.545,-152.9546 262.5143,-251.2414 310.2259,-297.6854"/>
<polygon fill="#000000" stroke="#000000" points="307.8019,-300.2102 317.4088,-304.6775 312.6845,-295.1943 307.8019,-300.2102"/>
</g>
<!-- 81c0ef37&#45;3758&#45;4325&#45;9c56&#45;1431e067bbd9 -->
<g id="node3" class="node">
<title>81c0ef37&#45;3758&#45;4325&#45;9c56&#45;1431e067bbd9</title>
<polygon fill="#40e0d0" stroke="#40e0d0" points="394.6073,-147.8 277.4445,-147.8 277.4445,-111.8 394.6073,-111.8 394.6073,-147.8"/>
<text text-anchor="middle" x="336.0259" y="-125.6" font-family="Times,serif" font-size="14.00" fill="#000000">NoOpViewModel</text>
</g>
<!-- d3dc71d4&#45;28b3&#45;4662&#45;ac9c&#45;da2e407c5a55&#45;&gt;81c0ef37&#45;3758&#45;4325&#45;9c56&#45;1431e067bbd9 -->
<g id="edge4" class="edge">
<title>d3dc71d4&#45;28b3&#45;4662&#45;ac9c&#45;da2e407c5a55&#45;&gt;81c0ef37&#45;3758&#45;4325&#45;9c56&#45;1431e067bbd9</title>
<path fill="none" stroke="#000000" d="M185.3742,-106.746C212.2371,-110.8568 241.6009,-115.3503 267.2117,-119.2694"/>
<polygon fill="#000000" stroke="#000000" points="266.7833,-122.7445 277.1976,-120.7976 267.8422,-115.8251 266.7833,-122.7445"/>
</g>
<!-- ed0ad733&#45;1d17&#45;414e&#45;b74a&#45;b0f8ebf7539a -->
<g id="node4" class="node">
<title>ed0ad733&#45;1d17&#45;414e&#45;b74a&#45;b0f8ebf7539a</title>
<polygon fill="#7fffd4" stroke="#7fffd4" points="747.2913,-94.4019 640.9459,-94.4019 640.9459,-53.1981 747.2913,-53.1981 747.2913,-94.4019"/>
<text text-anchor="middle" x="694.1186" y="-78" font-family="Times,serif" font-size="14.00" fill="#000000">@PerActivity</text>
<text text-anchor="middle" x="694.1186" y="-61.2" font-family="Times,serif" font-size="14.00" fill="#000000">DrawerProvider</text>
</g>
<!-- d3dc71d4&#45;28b3&#45;4662&#45;ac9c&#45;da2e407c5a55&#45;&gt;ed0ad733&#45;1d17&#45;414e&#45;b74a&#45;b0f8ebf7539a -->
<g id="edge3" class="edge">
<title>d3dc71d4&#45;28b3&#45;4662&#45;ac9c&#45;da2e407c5a55&#45;&gt;ed0ad733&#45;1d17&#45;414e&#45;b74a&#45;b0f8ebf7539a</title>
<path fill="none" stroke="#000000" d="M185.4722,-90.9451C305.8244,-86.8884 523.6021,-79.5477 630.8956,-75.9311"/>
<polygon fill="#000000" stroke="#000000" points="631.0505,-79.4279 640.9269,-75.5929 630.8147,-72.4319 631.0505,-79.4279"/>
</g>
<!-- 0a671398&#45;cb20&#45;4a13&#45;a733&#45;3d6bec8ac79d -->
<g id="node5" class="node">
<title>0a671398&#45;cb20&#45;4a13&#45;a733&#45;3d6bec8ac79d</title>
<polygon fill="#76ee00" stroke="#76ee00" points="1494.3905,-94.4019 1412.2649,-94.4019 1412.2649,-53.1981 1494.3905,-53.1981 1494.3905,-94.4019"/>
<text text-anchor="middle" x="1453.3277" y="-78" font-family="Times,serif" font-size="14.00" fill="#000000">@Singleton</text>
<text text-anchor="middle" x="1453.3277" y="-61.2" font-family="Times,serif" font-size="14.00" fill="#000000">Preferences</text>
</g>
<!-- d3dc71d4&#45;28b3&#45;4662&#45;ac9c&#45;da2e407c5a55&#45;&gt;0a671398&#45;cb20&#45;4a13&#45;a733&#45;3d6bec8ac79d -->
<g id="edge2" class="edge">
<title>d3dc71d4&#45;28b3&#45;4662&#45;ac9c&#45;da2e407c5a55&#45;&gt;0a671398&#45;cb20&#45;4a13&#45;a733&#45;3d6bec8ac79d</title>
<path fill="none" stroke="#000000" d="M138.088,-75.6711C183.6712,-55.2276 263.6696,-24.8 336.0259,-24.8 336.0259,-24.8 336.0259,-24.8 1132.1021,-24.8 1228.2914,-24.8 1338.849,-46.5373 1401.9637,-61.0557"/>
<polygon fill="#000000" stroke="#000000" points="1401.5191,-64.5459 1412.0527,-63.4084 1403.1088,-57.7288 1401.5191,-64.5459"/>
</g>
<!-- 884bbc53&#45;400d&#45;4bdd&#45;b1e3&#45;5eec8118dc9f -->
<g id="node10" class="node">
<title>884bbc53&#45;400d&#45;4bdd&#45;b1e3&#45;5eec8118dc9f</title>
<polygon fill="#40e0d0" stroke="#40e0d0" points="863.8563,-502.8 536.3809,-502.8 536.3809,-506.8 524.3809,-506.8 524.3809,-466.8 863.8563,-466.8 863.8563,-502.8"/>
<polyline fill="none" stroke="#40e0d0" points="524.3809,-502.8 536.3809,-502.8 "/>
<text text-anchor="middle" x="694.1186" y="-480.6" font-family="Times,serif" font-size="14.00" fill="#000000">Map&lt;Class&lt;?&gt;, Provider&lt;AndroidInjector.Factory&lt;?&gt;&gt;&gt;</text>
</g>
<!-- 0f3f341b&#45;6f02&#45;47ab&#45;bcb5&#45;00d0f9cf4f58&#45;&gt;884bbc53&#45;400d&#45;4bdd&#45;b1e3&#45;5eec8118dc9f -->
<g id="edge5" class="edge">
<title>0f3f341b&#45;6f02&#45;47ab&#45;bcb5&#45;00d0f9cf4f58&#45;&gt;884bbc53&#45;400d&#45;4bdd&#45;b1e3&#45;5eec8118dc9f</title>
<path fill="none" stroke="#000000" d="M352.876,-341.1648C382.5608,-372.1848 447.5902,-434.3534 516.4998,-462.8 516.7062,-462.8852 516.9129,-462.9701 517.1198,-463.0547"/>
<polygon fill="#000000" stroke="#000000" points="515.9906,-466.3699 526.5815,-466.6604 518.4834,-459.8288 515.9906,-466.3699"/>
</g>
<!-- d459022b&#45;c06e&#45;43d5&#45;8ffa&#45;78eee7723594 -->
<g id="node6" class="node">
<title>d459022b&#45;c06e&#45;43d5&#45;8ffa&#45;78eee7723594</title>
<polygon fill="#7fffd4" stroke="#7fffd4" points="741.0536,-154.4019 647.1836,-154.4019 647.1836,-113.1981 741.0536,-113.1981 741.0536,-154.4019"/>
<text text-anchor="middle" x="694.1186" y="-138" font-family="Times,serif" font-size="14.00" fill="#000000">@PerActivity</text>
<text text-anchor="middle" x="694.1186" y="-121.2" font-family="Times,serif" font-size="14.00" fill="#000000">Navigator</text>
</g>
<!-- 81c0ef37&#45;3758&#45;4325&#45;9c56&#45;1431e067bbd9&#45;&gt;d459022b&#45;c06e&#45;43d5&#45;8ffa&#45;78eee7723594 -->
<g id="edge6" class="edge">
<title>81c0ef37&#45;3758&#45;4325&#45;9c56&#45;1431e067bbd9&#45;&gt;d459022b&#45;c06e&#45;43d5&#45;8ffa&#45;78eee7723594</title>
<path fill="none" stroke="#000000" d="M394.7566,-130.456C461.8064,-131.205 570.7535,-132.422 637.0859,-133.1629"/>
<polygon fill="#000000" stroke="#000000" points="637.3146,-136.6656 647.3531,-133.2776 637.3928,-129.666 637.3146,-136.6656"/>
</g>
<!-- 35604893&#45;0c86&#45;4a96&#45;80f2&#45;41ad0c97b2aa -->
<g id="node7" class="node">
<title>35604893&#45;0c86&#45;4a96&#45;80f2&#45;41ad0c97b2aa</title>
<polygon fill="#7fffd4" stroke="#7fffd4" points="1069.2217,-154.4019 938.5757,-154.4019 938.5757,-113.1981 1069.2217,-113.1981 1069.2217,-154.4019"/>
<text text-anchor="middle" x="1003.8987" y="-138" font-family="Times,serif" font-size="14.00" fill="#000000">@PerActivity</text>
<text text-anchor="middle" x="1003.8987" y="-121.2" font-family="Times,serif" font-size="14.00" fill="#000000">AppCompatActivity</text>
</g>
<!-- ed0ad733&#45;1d17&#45;414e&#45;b74a&#45;b0f8ebf7539a&#45;&gt;35604893&#45;0c86&#45;4a96&#45;80f2&#45;41ad0c97b2aa -->
<g id="edge7" class="edge">
<title>ed0ad733&#45;1d17&#45;414e&#45;b74a&#45;b0f8ebf7539a&#45;&gt;35604893&#45;0c86&#45;4a96&#45;80f2&#45;41ad0c97b2aa</title>
<path fill="none" stroke="#000000" d="M747.3059,-82.7042C780.7774,-88.4322 824.849,-96.2017 863.7374,-103.8 884.8212,-107.9195 907.624,-112.6722 928.5888,-117.1625"/>
<polygon fill="#000000" stroke="#000000" points="927.8846,-120.591 938.3971,-119.2726 929.3569,-113.7476 927.8846,-120.591"/>
</g>
<!-- be2d8d4e&#45;e3fa&#45;4ace&#45;bff3&#45;dc7cc06757d1 -->
<g id="node9" class="node">
<title>be2d8d4e&#45;e3fa&#45;4ace&#45;bff3&#45;dc7cc06757d1</title>
<polygon fill="#76ee00" stroke="#76ee00" points="1044.9615,-94.4019 962.8359,-94.4019 962.8359,-53.1981 1044.9615,-53.1981 1044.9615,-94.4019"/>
<text text-anchor="middle" x="1003.8987" y="-78" font-family="Times,serif" font-size="14.00" fill="#000000">@Singleton</text>
<text text-anchor="middle" x="1003.8987" y="-61.2" font-family="Times,serif" font-size="14.00" fill="#000000">Scheduler</text>
</g>
<!-- ed0ad733&#45;1d17&#45;414e&#45;b74a&#45;b0f8ebf7539a&#45;&gt;be2d8d4e&#45;e3fa&#45;4ace&#45;bff3&#45;dc7cc06757d1 -->
<g id="edge8" class="edge">
<title>ed0ad733&#45;1d17&#45;414e&#45;b74a&#45;b0f8ebf7539a&#45;&gt;be2d8d4e&#45;e3fa&#45;4ace&#45;bff3&#45;dc7cc06757d1</title>
<path fill="none" stroke="#000000" d="M747.3717,-73.8C804.859,-73.8 895.7893,-73.8 952.532,-73.8"/>
<polygon fill="#000000" stroke="#000000" points="952.7136,-77.3001 962.7135,-73.8 952.7135,-70.3001 952.7136,-77.3001"/>
</g>
<!-- d459022b&#45;c06e&#45;43d5&#45;8ffa&#45;78eee7723594&#45;&gt;35604893&#45;0c86&#45;4a96&#45;80f2&#45;41ad0c97b2aa -->
<g id="edge23" class="edge">
<title>d459022b&#45;c06e&#45;43d5&#45;8ffa&#45;78eee7723594&#45;&gt;35604893&#45;0c86&#45;4a96&#45;80f2&#45;41ad0c97b2aa</title>
<path fill="none" stroke="#000000" d="M741.1675,-133.8C790.8252,-133.8 869.8409,-133.8 928.2643,-133.8"/>
<polygon fill="#000000" stroke="#000000" points="928.5543,-137.3001 938.5542,-133.8 928.5542,-130.3001 928.5543,-137.3001"/>
</g>
<!-- 22191dc8&#45;19d5&#45;46cb&#45;8636&#45;7470551fc5e3 -->
<g id="node8" class="node">
<title>22191dc8&#45;19d5&#45;46cb&#45;8636&#45;7470551fc5e3</title>
<polygon fill="#40e0d0" stroke="#40e0d0" points="1580.4395,-151.8 1378.2331,-151.8 1326.2159,-115.8 1528.4223,-115.8 1580.4395,-151.8"/>
<text text-anchor="middle" x="1453.3277" y="-129.6" font-family="Times,serif" font-size="14.00" fill="#000000">LogViewerActivity</text>
</g>
<!-- 35604893&#45;0c86&#45;4a96&#45;80f2&#45;41ad0c97b2aa&#45;&gt;22191dc8&#45;19d5&#45;46cb&#45;8636&#45;7470551fc5e3 -->
<g id="edge24" class="edge">
<title>35604893&#45;0c86&#45;4a96&#45;80f2&#45;41ad0c97b2aa&#45;&gt;22191dc8&#45;19d5&#45;46cb&#45;8636&#45;7470551fc5e3</title>
<path fill="none" stroke="#000000" stroke-dasharray="1,5" d="M1069.2495,-133.8C1140.6748,-133.8 1256.3552,-133.8 1342.1208,-133.8"/>
<polygon fill="#000000" stroke="#000000" points="1342.1629,-137.3001 1352.1629,-133.8 1342.1629,-130.3001 1342.1629,-137.3001"/>
<text text-anchor="middle" x="1132.1021" y="-138" font-family="Times,serif" font-size="14.00" fill="#000000">delegates</text>
</g>
<!-- be2d8d4e&#45;e3fa&#45;4ace&#45;bff3&#45;dc7cc06757d1&#45;&gt;0a671398&#45;cb20&#45;4a13&#45;a733&#45;3d6bec8ac79d -->
<g id="edge9" class="edge">
<title>be2d8d4e&#45;e3fa&#45;4ace&#45;bff3&#45;dc7cc06757d1&#45;&gt;0a671398&#45;cb20&#45;4a13&#45;a733&#45;3d6bec8ac79d</title>
<path fill="none" stroke="#000000" d="M1044.974,-73.8C1127.2035,-73.8 1311.8597,-73.8 1401.9425,-73.8"/>
<polygon fill="#000000" stroke="#000000" points="1402.1857,-77.3001 1412.1857,-73.8 1402.1857,-70.3001 1402.1857,-77.3001"/>
</g>
<!-- f882bb7c&#45;b14e&#45;4b55&#45;8544&#45;4450f908c530 -->
<g id="node11" class="node">
<title>f882bb7c&#45;b14e&#45;4b55&#45;8544&#45;4450f908c530</title>
<polygon fill="#40e0d0" stroke="#40e0d0" points="1674.3701,-206.8 1232.2853,-206.8 1232.2853,-170.8 1674.3701,-170.8 1674.3701,-206.8"/>
<text text-anchor="middle" x="1453.3277" y="-184.6" font-family="Times,serif" font-size="14.00" fill="#000000">AndroidBindingModule_BindRegionActivity.bindAndroidInjectorFactory()</text>
</g>
<!-- 884bbc53&#45;400d&#45;4bdd&#45;b1e3&#45;5eec8118dc9f&#45;&gt;f882bb7c&#45;b14e&#45;4b55&#45;8544&#45;4450f908c530 -->
<g id="edge22" class="edge">
<title>884bbc53&#45;400d&#45;4bdd&#45;b1e3&#45;5eec8118dc9f&#45;&gt;f882bb7c&#45;b14e&#45;4b55&#45;8544&#45;4450f908c530</title>
<path fill="none" stroke="#000000" d="M859.5705,-466.7752C860.9983,-465.5047 862.3883,-464.1803 863.7374,-462.8 899.1682,-426.5494 850.5477,-237.8 901.2374,-237.8 901.2374,-237.8 901.2374,-237.8 1132.1021,-237.8 1152.2438,-237.8 1158.8673,-241.2641 1177.1442,-232.8 1187.1294,-228.1759 1185.1444,-220.3924 1195.1442,-215.8 1203.8832,-211.7866 1212.9592,-208.2547 1222.2551,-205.1519"/>
<polygon fill="#000000" stroke="#000000" points="1223.534,-208.4185 1232.0172,-202.0715 1221.4275,-201.743 1223.534,-208.4185"/>
</g>
<!-- dbc0465c&#45;9d62&#45;444e&#45;831f&#45;365009c64322 -->
<g id="node12" class="node">
<title>dbc0465c&#45;9d62&#45;444e&#45;831f&#45;365009c64322</title>
<polygon fill="#40e0d0" stroke="#40e0d0" points="1678.9197,-260.8 1227.7357,-260.8 1227.7357,-224.8 1678.9197,-224.8 1678.9197,-260.8"/>
<text text-anchor="middle" x="1453.3277" y="-238.6" font-family="Times,serif" font-size="14.00" fill="#000000">AndroidBindingModule_BindContactsActivity.bindAndroidInjectorFactory()</text>
</g>
<!-- 884bbc53&#45;400d&#45;4bdd&#45;b1e3&#45;5eec8118dc9f&#45;&gt;dbc0465c&#45;9d62&#45;444e&#45;831f&#45;365009c64322 -->
<g id="edge16" class="edge">
<title>884bbc53&#45;400d&#45;4bdd&#45;b1e3&#45;5eec8118dc9f&#45;&gt;dbc0465c&#45;9d62&#45;444e&#45;831f&#45;365009c64322</title>
<path fill="none" stroke="#000000" d="M859.5188,-466.724C860.963,-465.4697 862.3702,-464.1624 863.7374,-462.8 893.9144,-432.7305 858.6366,-274.8 901.2374,-274.8 901.2374,-274.8 901.2374,-274.8 1132.1021,-274.8 1139.9311,-274.8 1202.1394,-268.7019 1269.7578,-261.8298"/>
<polygon fill="#000000" stroke="#000000" points="1270.1736,-265.3056 1279.7677,-260.8109 1269.4647,-258.3416 1270.1736,-265.3056"/>
</g>
<!-- f36fe3a1&#45;778a&#45;432d&#45;a203&#45;d8f3ce16e437 -->
<g id="node13" class="node">
<title>f36fe3a1&#45;778a&#45;432d&#45;a203&#45;d8f3ce16e437</title>
<polygon fill="#40e0d0" stroke="#40e0d0" points="1681.0678,-314.8 1225.5876,-314.8 1225.5876,-278.8 1681.0678,-278.8 1681.0678,-314.8"/>
<text text-anchor="middle" x="1453.3277" y="-292.6" font-family="Times,serif" font-size="14.00" fill="#000000">AndroidBindingModule_BindWelcomeActivity.bindAndroidInjectorFactory()</text>
</g>
<!-- 884bbc53&#45;400d&#45;4bdd&#45;b1e3&#45;5eec8118dc9f&#45;&gt;f36fe3a1&#45;778a&#45;432d&#45;a203&#45;d8f3ce16e437 -->
<g id="edge10" class="edge">
<title>884bbc53&#45;400d&#45;4bdd&#45;b1e3&#45;5eec8118dc9f&#45;&gt;f36fe3a1&#45;778a&#45;432d&#45;a203&#45;d8f3ce16e437</title>
<path fill="none" stroke="#000000" d="M858.9234,-466.7325C860.5671,-465.4786 862.1729,-464.1685 863.7374,-462.8 910.9311,-421.5197 838.5373,-326.8 901.2374,-326.8 901.2374,-326.8 901.2374,-326.8 1132.1021,-326.8 1161.4826,-326.8 1220.7289,-321.7618 1280.4286,-315.8148"/>
<polygon fill="#000000" stroke="#000000" points="1280.7979,-319.2954 1290.3982,-314.8139 1280.0986,-312.3304 1280.7979,-319.2954"/>
</g>
<!-- e34ed2de&#45;663b&#45;4c46&#45;ad0f&#45;014ea397d9ac -->
<g id="node14" class="node">
<title>e34ed2de&#45;663b&#45;4c46&#45;ad0f&#45;014ea397d9ac</title>
<polygon fill="#40e0d0" stroke="#40e0d0" points="1686.4487,-368.8 1220.2067,-368.8 1220.2067,-332.8 1686.4487,-332.8 1686.4487,-368.8"/>
<text text-anchor="middle" x="1453.3277" y="-346.6" font-family="Times,serif" font-size="14.00" fill="#000000">AndroidBindingModule_BindBackgroundService.bindAndroidInjectorFactory()</text>
</g>
<!-- 884bbc53&#45;400d&#45;4bdd&#45;b1e3&#45;5eec8118dc9f&#45;&gt;e34ed2de&#45;663b&#45;4c46&#45;ad0f&#45;014ea397d9ac -->
<g id="edge17" class="edge">
<title>884bbc53&#45;400d&#45;4bdd&#45;b1e3&#45;5eec8118dc9f&#45;&gt;e34ed2de&#45;663b&#45;4c46&#45;ad0f&#45;014ea397d9ac</title>
<path fill="none" stroke="#000000" d="M857.7895,-466.7239C859.8134,-465.4784 861.7976,-464.1713 863.7374,-462.8 893.8446,-441.5159 864.3666,-388.8 901.2374,-388.8 901.2374,-388.8 901.2374,-388.8 1132.1021,-388.8 1160.5441,-388.8 1166.9744,-381.7259 1195.1442,-377.8 1214.8994,-375.0468 1235.5406,-372.4386 1256.1709,-370.0075"/>
<polygon fill="#000000" stroke="#000000" points="1256.7659,-373.462 1266.2938,-368.8285 1255.956,-366.509 1256.7659,-373.462"/>
</g>
<!-- b5aa94dd&#45;815a&#45;4868&#45;a822&#45;384d0da945eb -->
<g id="node15" class="node">
<title>b5aa94dd&#45;815a&#45;4868&#45;a822&#45;384d0da945eb</title>
<polygon fill="#40e0d0" stroke="#40e0d0" points="1671.9225,-422.8 1234.7329,-422.8 1234.7329,-386.8 1671.9225,-386.8 1671.9225,-422.8"/>
<text text-anchor="middle" x="1453.3277" y="-400.6" font-family="Times,serif" font-size="14.00" fill="#000000">AndroidBindingModule_BindEditorActivity.bindAndroidInjectorFactory()</text>
</g>
<!-- 884bbc53&#45;400d&#45;4bdd&#45;b1e3&#45;5eec8118dc9f&#45;&gt;b5aa94dd&#45;815a&#45;4868&#45;a822&#45;384d0da945eb -->
<g id="edge14" class="edge">
<title>884bbc53&#45;400d&#45;4bdd&#45;b1e3&#45;5eec8118dc9f&#45;&gt;b5aa94dd&#45;815a&#45;4868&#45;a822&#45;384d0da945eb</title>
<path fill="none" stroke="#000000" d="M854.229,-466.785C857.4534,-465.5358 860.6268,-464.209 863.7374,-462.8 883.9605,-453.6396 879.0363,-429.8 901.2374,-429.8 901.2374,-429.8 901.2374,-429.8 1132.1021,-429.8 1178.6131,-429.8 1228.7983,-427.1626 1275.3643,-423.6011"/>
<polygon fill="#000000" stroke="#000000" points="1275.8572,-427.0733 1285.5533,-422.8029 1275.3105,-420.0947 1275.8572,-427.0733"/>
</g>
<!-- ae34bcb1&#45;2d02&#45;4703&#45;aa01&#45;88173d33482d -->
<g id="node16" class="node">
<title>ae34bcb1&#45;2d02&#45;4703&#45;aa01&#45;88173d33482d</title>
<polygon fill="#40e0d0" stroke="#40e0d0" points="1711.6948,-476.8 1194.9606,-476.8 1194.9606,-440.8 1711.6948,-440.8 1711.6948,-476.8"/>
<text text-anchor="middle" x="1453.3277" y="-454.6" font-family="Times,serif" font-size="14.00" fill="#000000">AndroidBindingModule_BindBackgroundServiceReceiver.bindAndroidInjectorFactory()</text>
</g>
<!-- 884bbc53&#45;400d&#45;4bdd&#45;b1e3&#45;5eec8118dc9f&#45;&gt;ae34bcb1&#45;2d02&#45;4703&#45;aa01&#45;88173d33482d -->
<g id="edge12" class="edge">
<title>884bbc53&#45;400d&#45;4bdd&#45;b1e3&#45;5eec8118dc9f&#45;&gt;ae34bcb1&#45;2d02&#45;4703&#45;aa01&#45;88173d33482d</title>
<path fill="none" stroke="#000000" d="M863.8428,-467.6561C876.4863,-467.1129 889.0558,-466.8 901.2374,-466.8 901.2374,-466.8 901.2374,-466.8 1132.1021,-466.8 1149.1233,-466.8 1166.6502,-466.6864 1184.3205,-466.4862"/>
<polygon fill="#000000" stroke="#000000" points="1184.782,-469.9809 1194.7383,-466.3585 1184.6962,-462.9814 1184.782,-469.9809"/>
</g>
<!-- 422787e4&#45;4589&#45;492c&#45;9ee6&#45;103ab72d3ade -->
<g id="node17" class="node">
<title>422787e4&#45;4589&#45;492c&#45;9ee6&#45;103ab72d3ade</title>
<polygon fill="#40e0d0" stroke="#40e0d0" points="1671.6512,-530.8 1235.0042,-530.8 1235.0042,-494.8 1671.6512,-494.8 1671.6512,-530.8"/>
<text text-anchor="middle" x="1453.3277" y="-508.6" font-family="Times,serif" font-size="14.00" fill="#000000">AndroidBindingModule_BindStatusActivity.bindAndroidInjectorFactory()</text>
</g>
<!-- 884bbc53&#45;400d&#45;4bdd&#45;b1e3&#45;5eec8118dc9f&#45;&gt;422787e4&#45;4589&#45;492c&#45;9ee6&#45;103ab72d3ade -->
<g id="edge11" class="edge">
<title>884bbc53&#45;400d&#45;4bdd&#45;b1e3&#45;5eec8118dc9f&#45;&gt;422787e4&#45;4589&#45;492c&#45;9ee6&#45;103ab72d3ade</title>
<path fill="none" stroke="#000000" d="M861.8633,-502.8052C875.1723,-503.4346 888.4187,-503.8 901.2374,-503.8 901.2374,-503.8 901.2374,-503.8 1132.1021,-503.8 1162.0556,-503.8 1193.574,-504.1959 1224.6834,-504.8215"/>
<polygon fill="#000000" stroke="#000000" points="1224.696,-508.3225 1234.767,-505.0325 1224.8425,-501.324 1224.696,-508.3225"/>
</g>
<!-- 0b2de6ec&#45;c096&#45;4bf9&#45;b3f2&#45;2434fe0b5975 -->
<g id="node18" class="node">
<title>0b2de6ec&#45;c096&#45;4bf9&#45;b3f2&#45;2434fe0b5975</title>
<polygon fill="#40e0d0" stroke="#40e0d0" points="1687.2103,-584.8 1219.4451,-584.8 1219.4451,-548.8 1687.2103,-548.8 1687.2103,-584.8"/>
<text text-anchor="middle" x="1453.3277" y="-562.6" font-family="Times,serif" font-size="14.00" fill="#000000">AndroidBindingModule_BindPreferencesActivity.bindAndroidInjectorFactory()</text>
</g>
<!-- 884bbc53&#45;400d&#45;4bdd&#45;b1e3&#45;5eec8118dc9f&#45;&gt;0b2de6ec&#45;c096&#45;4bf9&#45;b3f2&#45;2434fe0b5975 -->
<g id="edge20" class="edge">
<title>884bbc53&#45;400d&#45;4bdd&#45;b1e3&#45;5eec8118dc9f&#45;&gt;0b2de6ec&#45;c096&#45;4bf9&#45;b3f2&#45;2434fe0b5975</title>
<path fill="none" stroke="#000000" d="M729.7514,-502.9686C770.222,-521.8898 838.7622,-548.8 901.2374,-548.8 901.2374,-548.8 901.2374,-548.8 1132.1021,-548.8 1157.2378,-548.8 1183.4625,-549.3562 1209.6167,-550.2731"/>
<polygon fill="#000000" stroke="#000000" points="1209.5127,-553.7715 1219.6346,-550.6417 1209.7701,-546.7763 1209.5127,-553.7715"/>
</g>
<!-- 9d294349&#45;a8e8&#45;448a&#45;be29&#45;fec57bfe86dc -->
<g id="node19" class="node">
<title>9d294349&#45;a8e8&#45;448a&#45;be29&#45;fec57bfe86dc</title>
<polygon fill="#40e0d0" stroke="#40e0d0" points="1667.0874,-638.8 1239.568,-638.8 1239.568,-602.8 1667.0874,-602.8 1667.0874,-638.8"/>
<text text-anchor="middle" x="1453.3277" y="-616.6" font-family="Times,serif" font-size="14.00" fill="#000000">AndroidBindingModule_BindMapActivity.bindAndroidInjectorFactory()</text>
</g>
<!-- 884bbc53&#45;400d&#45;4bdd&#45;b1e3&#45;5eec8118dc9f&#45;&gt;9d294349&#45;a8e8&#45;448a&#45;be29&#45;fec57bfe86dc -->
<g id="edge19" class="edge">
<title>884bbc53&#45;400d&#45;4bdd&#45;b1e3&#45;5eec8118dc9f&#45;&gt;9d294349&#45;a8e8&#45;448a&#45;be29&#45;fec57bfe86dc</title>
<path fill="none" stroke="#000000" d="M711.9683,-502.8636C745.7314,-535.0085 822.6361,-598.8 901.2374,-598.8 901.2374,-598.8 901.2374,-598.8 1132.1021,-598.8 1167.6132,-598.8 1205.2811,-600.1548 1241.8485,-602.1919"/>
<polygon fill="#000000" stroke="#000000" points="1241.9457,-605.7032 1252.1305,-602.784 1242.3483,-598.7148 1241.9457,-605.7032"/>
</g>
<!-- ffba85f1&#45;1303&#45;4606&#45;a428&#45;caa59d3a8036 -->
<g id="node20" class="node">
<title>ffba85f1&#45;1303&#45;4606&#45;a428&#45;caa59d3a8036</title>
<polygon fill="#40e0d0" stroke="#40e0d0" points="1686.1743,-692.8 1220.4811,-692.8 1220.4811,-656.8 1686.1743,-656.8 1686.1743,-692.8"/>
<text text-anchor="middle" x="1453.3277" y="-670.6" font-family="Times,serif" font-size="14.00" fill="#000000">AndroidBindingModule_BindLogViewerActivity.bindAndroidInjectorFactory()</text>
</g>
<!-- 884bbc53&#45;400d&#45;4bdd&#45;b1e3&#45;5eec8118dc9f&#45;&gt;ffba85f1&#45;1303&#45;4606&#45;a428&#45;caa59d3a8036 -->
<g id="edge18" class="edge">
<title>884bbc53&#45;400d&#45;4bdd&#45;b1e3&#45;5eec8118dc9f&#45;&gt;ffba85f1&#45;1303&#45;4606&#45;a428&#45;caa59d3a8036</title>
<path fill="none" stroke="#000000" d="M704.8463,-502.8809C731.8957,-545.9045 807.4606,-650.8 901.2374,-650.8 901.2374,-650.8 901.2374,-650.8 1132.1021,-650.8 1175.4239,-650.8 1221.941,-652.9976 1265.7528,-656.0628"/>
<polygon fill="#000000" stroke="#000000" points="1265.7139,-659.569 1275.9389,-656.7943 1266.2153,-652.5869 1265.7139,-659.569"/>
</g>
<!-- 07728db6&#45;87c5&#45;4afe&#45;8104&#45;52e0f51d4167 -->
<g id="node21" class="node">
<title>07728db6&#45;87c5&#45;4afe&#45;8104&#45;52e0f51d4167</title>
<polygon fill="#40e0d0" stroke="#40e0d0" points="1668.6953,-746.8 1237.9601,-746.8 1237.9601,-710.8 1668.6953,-710.8 1668.6953,-746.8"/>
<text text-anchor="middle" x="1453.3277" y="-724.6" font-family="Times,serif" font-size="14.00" fill="#000000">AndroidBindingModule_BindLoadActivity.bindAndroidInjectorFactory()</text>
</g>
<!-- 884bbc53&#45;400d&#45;4bdd&#45;b1e3&#45;5eec8118dc9f&#45;&gt;07728db6&#45;87c5&#45;4afe&#45;8104&#45;52e0f51d4167 -->
<g id="edge13" class="edge">
<title>884bbc53&#45;400d&#45;4bdd&#45;b1e3&#45;5eec8118dc9f&#45;&gt;07728db6&#45;87c5&#45;4afe&#45;8104&#45;52e0f51d4167</title>
<path fill="none" stroke="#000000" d="M700.9817,-503.0951C722.0425,-555.7296 791.0799,-703.8 901.2374,-703.8 901.2374,-703.8 901.2374,-703.8 1132.1021,-703.8 1178.6131,-703.8 1228.7983,-706.4374 1275.3643,-709.9989"/>
<polygon fill="#000000" stroke="#000000" points="1275.3105,-713.5053 1285.5533,-710.7971 1275.8572,-706.5267 1275.3105,-713.5053"/>
</g>
<!-- 657689f3&#45;b886&#45;4e4c&#45;bb80&#45;a33e1afffcb9 -->
<g id="node22" class="node">
<title>657689f3&#45;b886&#45;4e4c&#45;bb80&#45;a33e1afffcb9</title>
<polygon fill="#40e0d0" stroke="#40e0d0" points="1677.3145,-800.8 1229.3409,-800.8 1229.3409,-764.8 1677.3145,-764.8 1677.3145,-800.8"/>
<text text-anchor="middle" x="1453.3277" y="-778.6" font-family="Times,serif" font-size="14.00" fill="#000000">AndroidBindingModule_BindRegionsActivity.bindAndroidInjectorFactory()</text>
</g>
<!-- 884bbc53&#45;400d&#45;4bdd&#45;b1e3&#45;5eec8118dc9f&#45;&gt;657689f3&#45;b886&#45;4e4c&#45;bb80&#45;a33e1afffcb9 -->
<g id="edge15" class="edge">
<title>884bbc53&#45;400d&#45;4bdd&#45;b1e3&#45;5eec8118dc9f&#45;&gt;657689f3&#45;b886&#45;4e4c&#45;bb80&#45;a33e1afffcb9</title>
<path fill="none" stroke="#000000" d="M698.7168,-502.9458C715.0299,-562.5909 775.9885,-748.8 901.2374,-748.8 901.2374,-748.8 901.2374,-748.8 1132.1021,-748.8 1160.293,-748.8 1167.1157,-752.7784 1195.1442,-755.8 1219.2742,-758.4014 1244.677,-761.103 1269.7495,-763.7477"/>
<polygon fill="#000000" stroke="#000000" points="1269.4011,-767.2303 1279.7128,-764.7975 1270.1347,-760.2688 1269.4011,-767.2303"/>
</g>
<!-- 0b60abaf&#45;5215&#45;4f03&#45;a240&#45;51281047ff8d -->
<g id="node23" class="node">
<title>0b60abaf&#45;5215&#45;4f03&#45;a240&#45;51281047ff8d</title>
<polygon fill="#40e0d0" stroke="#40e0d0" points="1686.4752,-854.8 1220.1802,-854.8 1220.1802,-818.8 1686.4752,-818.8 1686.4752,-854.8"/>
<text text-anchor="middle" x="1453.3277" y="-832.6" font-family="Times,serif" font-size="14.00" fill="#000000">AndroidBindingModule_BindConnectionActivity.bindAndroidInjectorFactory()</text>
</g>
<!-- 884bbc53&#45;400d&#45;4bdd&#45;b1e3&#45;5eec8118dc9f&#45;&gt;0b60abaf&#45;5215&#45;4f03&#45;a240&#45;51281047ff8d -->
<g id="edge21" class="edge">
<title>884bbc53&#45;400d&#45;4bdd&#45;b1e3&#45;5eec8118dc9f&#45;&gt;0b60abaf&#45;5215&#45;4f03&#45;a240&#45;51281047ff8d</title>
<path fill="none" stroke="#000000" d="M696.4157,-503.233C706.2628,-573.2525 751.4719,-818.8 901.2374,-818.8 901.2374,-818.8 901.2374,-818.8 1132.1021,-818.8 1157.3616,-818.8 1183.7209,-819.3617 1210.0032,-820.2867"/>
<polygon fill="#000000" stroke="#000000" points="1209.9475,-823.7869 1220.0699,-820.6585 1210.2059,-816.7917 1209.9475,-823.7869"/>
</g>
</g>
</svg>
