<svg width="1279px" height="169px"
 viewBox="0.00 0.00 1278.83 168.60" xmlns="http://www.w3.org/2000/svg" xmlns:xlink="http://www.w3.org/1999/xlink">
<g id="graph0" class="graph" transform="scale(1.0 1.0) rotate(0) translate(14.4 154.2)">
<title>org.owntracks.android.injection.modules.AndroidBindingModule → org.owntracks.android.injection.modules.AndroidBindingModule_BindPreferencesActivity.PreferencesActivitySubcomponent → org.owntracks.android.ui.preferences.PreferencesActivityModule_BindNotificationPreferencesFragment.NotificationFragmentSubcomponent</title>
<polygon fill="#ffffff" stroke="transparent" points="-14.4,14.4 -14.4,-154.2 1264.4258,-154.2 1264.4258,14.4 -14.4,14.4"/>
<text text-anchor="middle" x="625.0129" y="-8.2" font-family="Times,serif" font-size="14.00" fill="#000000">AndroidBindingModule → AndroidBindingModule_BindPreferencesActivity.PreferencesActivitySubcomponent → PreferencesActivityModule_BindNotificationPreferencesFragment.NotificationFragmentSubcomponent</text>
<g id="clust4" class="cluster">
<title>cluster_AndroidBindingModule → AndroidBindingModule_BindPreferencesActivity.PreferencesActivitySubcomponent</title>
<g id="a_clust4"><a xlink:href="full_org.owntracks.android.injection.modules.AndroidBindingModule_BindPreferencesActivity.PreferencesActivitySubcomponent.svg" xlink:title="Inherited from AndroidBindingModule_BindPreferencesActivity.PreferencesActivitySubcomponent\n@PerActivity">
<polygon fill="none" stroke="#7fffd4" stroke-dasharray="5,2" points="447.8447,-32.8 447.8447,-131.8 1027.4063,-131.8 1027.4063,-32.8 447.8447,-32.8"/>
<text text-anchor="middle" x="737.6255" y="-115.2" font-family="Times,serif" font-size="14.00" fill="#000000">Inherited from AndroidBindingModule_BindPreferencesActivity.PreferencesActivitySubcomponent</text>
<text text-anchor="middle" x="737.6255" y="-98.4" font-family="Times,serif" font-size="14.00" fill="#000000">@PerActivity</text>
</a>
</g>
</g>
<g id="clust1" class="cluster">
<title>cluster_Entry Points</title>
<polygon fill="none" stroke="#000000" points="230.6195,-35.8 230.6195,-112.8 427.8447,-112.8 427.8447,-35.8 230.6195,-35.8"/>
<text text-anchor="middle" x="273.4256" y="-96.2" font-family="Times,serif" font-size="14.00" fill="#000000">Entry Points</text>
</g>
<!-- 50baa0da&#45;d692&#45;4613&#45;afaf&#45;40006d8408bc -->
<g id="node1" class="node">
<title>50baa0da&#45;d692&#45;4613&#45;afaf&#45;40006d8408bc</title>
<polygon fill="#40e0d0" stroke="#40e0d0" stroke-width="2" points="419.9574,-79.8 238.5068,-79.8 238.5068,-75.8 234.5068,-75.8 234.5068,-71.8 238.5068,-71.8 238.5068,-51.8 234.5068,-51.8 234.5068,-47.8 238.5068,-47.8 238.5068,-43.8 419.9574,-43.8 419.9574,-79.8"/>
<polyline fill="none" stroke="#40e0d0" stroke-width="2" points="238.5068,-75.8 242.5068,-75.8 242.5068,-71.8 238.5068,-71.8 "/>
<polyline fill="none" stroke="#40e0d0" stroke-width="2" points="238.5068,-51.8 242.5068,-51.8 242.5068,-47.8 238.5068,-47.8 "/>
<text text-anchor="middle" x="329.2321" y="-57.6" font-family="Times,serif" font-size="14.00" fill="#000000">inject (NotificationFragment)</text>
</g>
<!-- c05aa04f&#45;8c7e&#45;4986&#45;ae81&#45;90f42e32fa1e -->
<g id="node2" class="node">
<title>c05aa04f&#45;8c7e&#45;4986&#45;ae81&#45;90f42e32fa1e</title>
<polygon fill="#76ee00" stroke="#76ee00" points="778.1883,-82.4019 696.0627,-82.4019 696.0627,-41.1981 778.1883,-41.1981 778.1883,-82.4019"/>
<text text-anchor="middle" x="737.1255" y="-66" font-family="Times,serif" font-size="14.00" fill="#000000">@Singleton</text>
<text text-anchor="middle" x="737.1255" y="-49.2" font-family="Times,serif" font-size="14.00" fill="#000000">Preferences</text>
</g>
<!-- 50baa0da&#45;d692&#45;4613&#45;afaf&#45;40006d8408bc&#45;&gt;c05aa04f&#45;8c7e&#45;4986&#45;ae81&#45;90f42e32fa1e -->
<g id="edge1" class="edge">
<title>50baa0da&#45;d692&#45;4613&#45;afaf&#45;40006d8408bc&#45;&gt;c05aa04f&#45;8c7e&#45;4986&#45;ae81&#45;90f42e32fa1e</title>
<path fill="none" stroke="#000000" d="M420.0101,-61.8C501.7886,-61.8 619.0889,-61.8 685.7145,-61.8"/>
<polygon fill="#000000" stroke="#000000" points="685.9593,-65.3001 695.9592,-61.8 685.9592,-58.3001 685.9593,-65.3001"/>
</g>
</g>
</svg>
