<svg width="2075px" height="960px"
 viewBox="0.00 0.00 2075.26 959.60" xmlns="http://www.w3.org/2000/svg" xmlns:xlink="http://www.w3.org/1999/xlink">
<g id="graph0" class="graph" transform="scale(1.0 1.0) rotate(0) translate(14.4 945.2)">
<title>org.owntracks.android.injection.modules.AndroidBindingModule → org.owntracks.android.injection.modules.AndroidBindingModule_BindStatusActivity.StatusActivitySubcomponent</title>
<polygon fill="#ffffff" stroke="transparent" points="-14.4,14.4 -14.4,-945.2 2060.8617,-945.2 2060.8617,14.4 -14.4,14.4"/>
<text text-anchor="middle" x="293.0421" y="-8.2" font-family="Times,serif" font-size="14.00" fill="#000000">AndroidBindingModule → AndroidBindingModule_BindStatusActivity.StatusActivitySubcomponent</text>
<g id="clust1" class="cluster">
<title>cluster_Entry Points</title>
<polygon fill="none" stroke="#000000" points="8,-67.8 8,-144.8 164.0288,-144.8 164.0288,-67.8 8,-67.8"/>
<text text-anchor="middle" x="50.8061" y="-128.2" font-family="Times,serif" font-size="14.00" fill="#000000">Entry Points</text>
</g>
<g id="clust2" class="cluster">
<title>cluster_Dependency Graph</title>
<polygon fill="none" stroke="#000000" points="185.0288,-44.8 185.0288,-922.8 2038.4617,-922.8 2038.4617,-44.8 185.0288,-44.8"/>
<text text-anchor="middle" x="247.2522" y="-906.2" font-family="Times,serif" font-size="14.00" fill="#000000">Dependency Graph</text>
</g>
<g id="clust3" class="cluster">
<title>cluster_Map&lt;Class&lt;?&gt;, Provider&lt;AndroidInjector.Factory&lt;?&gt;&gt;&gt;</title>
<path fill="none" stroke="#000000" d="M602.2052,-164.8C602.2052,-164.8 1705.9824,-164.8 1705.9824,-164.8 1711.9824,-164.8 1717.9824,-170.8 1717.9824,-176.8 1717.9824,-176.8 1717.9824,-877.8 1717.9824,-877.8 1717.9824,-883.8 1711.9824,-889.8 1705.9824,-889.8 1705.9824,-889.8 602.2052,-889.8 602.2052,-889.8 596.2052,-889.8 590.2052,-883.8 590.2052,-877.8 590.2052,-877.8 590.2052,-176.8 590.2052,-176.8 590.2052,-170.8 596.2052,-164.8 602.2052,-164.8"/>
<text text-anchor="middle" x="1154.0938" y="-873.2" font-family="Times,serif" font-size="14.00" fill="#000000">Map&lt;Class&lt;?&gt;, Provider&lt;AndroidInjector.Factory&lt;?&gt;&gt;&gt;</text>
</g>
<!-- 8f673e09&#45;e410&#45;4d6f&#45;ad8e&#45;f181909d015b -->
<g id="node1" class="node">
<title>8f673e09&#45;e410&#45;4d6f&#45;ad8e&#45;f181909d015b</title>
<polygon fill="#40e0d0" stroke="#40e0d0" stroke-width="2" points="156.0432,-111.8 15.9856,-111.8 15.9856,-107.8 11.9856,-107.8 11.9856,-103.8 15.9856,-103.8 15.9856,-83.8 11.9856,-83.8 11.9856,-79.8 15.9856,-79.8 15.9856,-75.8 156.0432,-75.8 156.0432,-111.8"/>
<polyline fill="none" stroke="#40e0d0" stroke-width="2" points="15.9856,-107.8 19.9856,-107.8 19.9856,-103.8 15.9856,-103.8 "/>
<polyline fill="none" stroke="#40e0d0" stroke-width="2" points="15.9856,-83.8 19.9856,-83.8 19.9856,-79.8 15.9856,-79.8 "/>
<text text-anchor="middle" x="86.0144" y="-89.6" font-family="Times,serif" font-size="14.00" fill="#000000">inject (StatusActivity)</text>
</g>
<!-- 31a764c8&#45;b21b&#45;43f4&#45;8669&#45;5d3311ae5813 -->
<g id="node2" class="node">
<title>31a764c8&#45;b21b&#45;43f4&#45;8669&#45;5d3311ae5813</title>
<polygon fill="#40e0d0" stroke="#40e0d0" points="446.0227,-338.8 219.1271,-338.8 219.1271,-302.8 446.0227,-302.8 446.0227,-338.8"/>
<text text-anchor="middle" x="332.5749" y="-316.6" font-family="Times,serif" font-size="14.00" fill="#000000">DispatchingAndroidInjector&lt;Object&gt;</text>
</g>
<!-- 8f673e09&#45;e410&#45;4d6f&#45;ad8e&#45;f181909d015b&#45;&gt;31a764c8&#45;b21b&#45;43f4&#45;8669&#45;5d3311ae5813 -->
<g id="edge3" class="edge">
<title>8f673e09&#45;e410&#45;4d6f&#45;ad8e&#45;f181909d015b&#45;&gt;31a764c8&#45;b21b&#45;43f4&#45;8669&#45;5d3311ae5813</title>
<path fill="none" stroke="#000000" d="M105.7747,-111.9926C149.5967,-152.3381 255.0067,-249.3855 305.163,-295.5628"/>
<polygon fill="#000000" stroke="#000000" points="302.993,-298.3224 312.7205,-302.5207 307.7342,-293.1726 302.993,-298.3224"/>
</g>
<!-- 55c8afbb&#45;07f2&#45;4ae4&#45;a06b&#45;46adb34e1815 -->
<g id="node3" class="node">
<title>55c8afbb&#45;07f2&#45;4ae4&#45;a06b&#45;46adb34e1815</title>
<polygon fill="#40e0d0" stroke="#40e0d0" points="472.1671,-141.8 192.9827,-141.8 192.9827,-105.8 472.1671,-105.8 472.1671,-141.8"/>
<text text-anchor="middle" x="332.5749" y="-119.6" font-family="Times,serif" font-size="14.00" fill="#000000">StatusMvvm.ViewModel&lt;StatusMvvm.View&gt;</text>
</g>
<!-- 8f673e09&#45;e410&#45;4d6f&#45;ad8e&#45;f181909d015b&#45;&gt;55c8afbb&#45;07f2&#45;4ae4&#45;a06b&#45;46adb34e1815 -->
<g id="edge4" class="edge">
<title>8f673e09&#45;e410&#45;4d6f&#45;ad8e&#45;f181909d015b&#45;&gt;55c8afbb&#45;07f2&#45;4ae4&#45;a06b&#45;46adb34e1815</title>
<path fill="none" stroke="#000000" d="M156.3388,-102.3566C164.7155,-103.3759 173.495,-104.4441 182.474,-105.5366"/>
<polygon fill="#000000" stroke="#000000" points="182.336,-109.0456 192.6855,-106.7791 183.1815,-102.0968 182.336,-109.0456"/>
</g>
<!-- 04f649a2&#45;0959&#45;4492&#45;a43e&#45;1adb0b051a09 -->
<g id="node4" class="node">
<title>04f649a2&#45;0959&#45;4492&#45;a43e&#45;1adb0b051a09</title>
<polygon fill="#7fffd4" stroke="#7fffd4" points="1118.7018,-94.4019 1012.3564,-94.4019 1012.3564,-53.1981 1118.7018,-53.1981 1118.7018,-94.4019"/>
<text text-anchor="middle" x="1065.5291" y="-78" font-family="Times,serif" font-size="14.00" fill="#000000">@PerActivity</text>
<text text-anchor="middle" x="1065.5291" y="-61.2" font-family="Times,serif" font-size="14.00" fill="#000000">DrawerProvider</text>
</g>
<!-- 8f673e09&#45;e410&#45;4d6f&#45;ad8e&#45;f181909d015b&#45;&gt;04f649a2&#45;0959&#45;4492&#45;a43e&#45;1adb0b051a09 -->
<g id="edge1" class="edge">
<title>8f673e09&#45;e410&#45;4d6f&#45;ad8e&#45;f181909d015b&#45;&gt;04f649a2&#45;0959&#45;4492&#45;a43e&#45;1adb0b051a09</title>
<path fill="none" stroke="#000000" d="M156.0691,-86.393C205.3695,-81.8119 272.9338,-76.8 332.5749,-76.8 332.5749,-76.8 332.5749,-76.8 974.9428,-76.8 983.746,-76.8 993.0278,-76.6567 1002.1586,-76.4328"/>
<polygon fill="#000000" stroke="#000000" points="1002.471,-79.9256 1012.3699,-76.149 1002.2765,-72.9283 1002.471,-79.9256"/>
</g>
<!-- dd4a744e&#45;772d&#45;442d&#45;a28c&#45;3f024b2cbba8 -->
<g id="node5" class="node">
<title>dd4a744e&#45;772d&#45;442d&#45;a28c&#45;3f024b2cbba8</title>
<polygon fill="#76ee00" stroke="#76ee00" points="1974.3269,-94.4019 1892.2014,-94.4019 1892.2014,-53.1981 1974.3269,-53.1981 1974.3269,-94.4019"/>
<text text-anchor="middle" x="1933.2641" y="-78" font-family="Times,serif" font-size="14.00" fill="#000000">@Singleton</text>
<text text-anchor="middle" x="1933.2641" y="-61.2" font-family="Times,serif" font-size="14.00" fill="#000000">Preferences</text>
</g>
<!-- 8f673e09&#45;e410&#45;4d6f&#45;ad8e&#45;f181909d015b&#45;&gt;dd4a744e&#45;772d&#45;442d&#45;a28c&#45;3f024b2cbba8 -->
<g id="edge2" class="edge">
<title>8f673e09&#45;e410&#45;4d6f&#45;ad8e&#45;f181909d015b&#45;&gt;dd4a744e&#45;772d&#45;442d&#45;a28c&#45;3f024b2cbba8</title>
<path fill="none" stroke="#000000" d="M125.2117,-75.6711C173.0764,-55.2276 257.0095,-24.8 332.5749,-24.8 332.5749,-24.8 332.5749,-24.8 1773.0245,-24.8 1810.9883,-24.8 1851.8868,-37.5332 1882.8627,-50.0177"/>
<polygon fill="#000000" stroke="#000000" points="1881.5654,-53.2687 1892.1432,-53.8698 1884.249,-46.8035 1881.5654,-53.2687"/>
</g>
<!-- aff3a110&#45;71f5&#45;42f7&#45;b66e&#45;170bb6d0857c -->
<g id="node11" class="node">
<title>aff3a110&#45;71f5&#45;42f7&#45;b66e&#45;170bb6d0857c</title>
<polygon fill="#40e0d0" stroke="#40e0d0" points="937.5617,-501.8 610.0863,-501.8 610.0863,-505.8 598.0863,-505.8 598.0863,-465.8 937.5617,-465.8 937.5617,-501.8"/>
<polyline fill="none" stroke="#40e0d0" points="598.0863,-501.8 610.0863,-501.8 "/>
<text text-anchor="middle" x="767.824" y="-479.6" font-family="Times,serif" font-size="14.00" fill="#000000">Map&lt;Class&lt;?&gt;, Provider&lt;AndroidInjector.Factory&lt;?&gt;&gt;&gt;</text>
</g>
<!-- 31a764c8&#45;b21b&#45;43f4&#45;8669&#45;5d3311ae5813&#45;&gt;aff3a110&#45;71f5&#45;42f7&#45;b66e&#45;170bb6d0857c -->
<g id="edge5" class="edge">
<title>31a764c8&#45;b21b&#45;43f4&#45;8669&#45;5d3311ae5813&#45;&gt;aff3a110&#45;71f5&#45;42f7&#45;b66e&#45;170bb6d0857c</title>
<path fill="none" stroke="#000000" d="M357.7849,-338.8854C402.2861,-369.7946 498.7329,-432.2972 590.2052,-461.8 591.2772,-462.1458 592.3544,-462.4861 593.4366,-462.8212"/>
<polygon fill="#000000" stroke="#000000" points="592.7181,-466.2574 603.298,-465.6961 594.6773,-459.5371 592.7181,-466.2574"/>
</g>
<!-- bd3a71fa&#45;f836&#45;4ed6&#45;bab4&#45;f91832bee960 -->
<g id="node6" class="node">
<title>bd3a71fa&#45;f836&#45;4ed6&#45;bab4&#45;f91832bee960</title>
<polygon fill="#7fffd4" stroke="#7fffd4" points="826.4152,-151.4019 709.2328,-151.4019 709.2328,-110.1981 826.4152,-110.1981 826.4152,-151.4019"/>
<text text-anchor="middle" x="767.824" y="-135" font-family="Times,serif" font-size="14.00" fill="#000000">@PerActivity</text>
<text text-anchor="middle" x="767.824" y="-118.2" font-family="Times,serif" font-size="14.00" fill="#000000">StatusViewModel</text>
</g>
<!-- 55c8afbb&#45;07f2&#45;4ae4&#45;a06b&#45;46adb34e1815&#45;&gt;bd3a71fa&#45;f836&#45;4ed6&#45;bab4&#45;f91832bee960 -->
<g id="edge6" class="edge">
<title>55c8afbb&#45;07f2&#45;4ae4&#45;a06b&#45;46adb34e1815&#45;&gt;bd3a71fa&#45;f836&#45;4ed6&#45;bab4&#45;f91832bee960</title>
<path fill="none" stroke="#000000" stroke-dasharray="1,5" d="M472.3862,-126.0486C548.0517,-127.2655 638.1702,-128.7148 698.813,-129.6901"/>
<polygon fill="#000000" stroke="#000000" points="698.9783,-133.1931 709.0334,-129.8545 699.091,-126.194 698.9783,-133.1931"/>
<text text-anchor="middle" x="535.1631" y="-131" font-family="Times,serif" font-size="14.00" fill="#000000">delegates</text>
</g>
<!-- de329f15&#45;09e1&#45;4d5e&#45;9850&#45;989572e0b32b -->
<g id="node8" class="node">
<title>de329f15&#45;09e1&#45;4d5e&#45;9850&#45;989572e0b32b</title>
<polygon fill="#7fffd4" stroke="#7fffd4" points="1517.1219,-154.4019 1386.4759,-154.4019 1386.4759,-113.1981 1517.1219,-113.1981 1517.1219,-154.4019"/>
<text text-anchor="middle" x="1451.7989" y="-138" font-family="Times,serif" font-size="14.00" fill="#000000">@PerActivity</text>
<text text-anchor="middle" x="1451.7989" y="-121.2" font-family="Times,serif" font-size="14.00" fill="#000000">AppCompatActivity</text>
</g>
<!-- 04f649a2&#45;0959&#45;4492&#45;a43e&#45;1adb0b051a09&#45;&gt;de329f15&#45;09e1&#45;4d5e&#45;9850&#45;989572e0b32b -->
<g id="edge8" class="edge">
<title>04f649a2&#45;0959&#45;4492&#45;a43e&#45;1adb0b051a09&#45;&gt;de329f15&#45;09e1&#45;4d5e&#45;9850&#45;989572e0b32b</title>
<path fill="none" stroke="#000000" d="M1118.8435,-87.7264C1141.738,-93.3319 1168.867,-99.4785 1193.6154,-103.8 1254.7723,-114.479 1324.7631,-122.3444 1376.4299,-127.336"/>
<polygon fill="#000000" stroke="#000000" points="1376.2241,-130.8321 1386.5109,-128.296 1376.8877,-123.8636 1376.2241,-130.8321"/>
</g>
<!-- f6fb3d4c&#45;7704&#45;4d57&#45;98f0&#45;fe4b74effe8f -->
<g id="node10" class="node">
<title>f6fb3d4c&#45;7704&#45;4d57&#45;98f0&#45;fe4b74effe8f</title>
<polygon fill="#76ee00" stroke="#76ee00" points="1492.8617,-94.4019 1410.7361,-94.4019 1410.7361,-53.1981 1492.8617,-53.1981 1492.8617,-94.4019"/>
<text text-anchor="middle" x="1451.7989" y="-78" font-family="Times,serif" font-size="14.00" fill="#000000">@Singleton</text>
<text text-anchor="middle" x="1451.7989" y="-61.2" font-family="Times,serif" font-size="14.00" fill="#000000">Scheduler</text>
</g>
<!-- 04f649a2&#45;0959&#45;4492&#45;a43e&#45;1adb0b051a09&#45;&gt;f6fb3d4c&#45;7704&#45;4d57&#45;98f0&#45;fe4b74effe8f -->
<g id="edge7" class="edge">
<title>04f649a2&#45;0959&#45;4492&#45;a43e&#45;1adb0b051a09&#45;&gt;f6fb3d4c&#45;7704&#45;4d57&#45;98f0&#45;fe4b74effe8f</title>
<path fill="none" stroke="#000000" d="M1118.8327,-73.8C1193.1009,-73.8 1326.8275,-73.8 1400.1826,-73.8"/>
<polygon fill="#000000" stroke="#000000" points="1400.5532,-77.3001 1410.5532,-73.8 1400.5531,-70.3001 1400.5532,-77.3001"/>
</g>
<!-- f6e1ac2b&#45;2d12&#45;4e6d&#45;b89b&#45;df1e57109b87 -->
<g id="node7" class="node">
<title>f6e1ac2b&#45;2d12&#45;4e6d&#45;b89b&#45;df1e57109b87</title>
<polygon fill="#7fffd4" stroke="#7fffd4" points="1112.4641,-154.4019 1018.5941,-154.4019 1018.5941,-113.1981 1112.4641,-113.1981 1112.4641,-154.4019"/>
<text text-anchor="middle" x="1065.5291" y="-138" font-family="Times,serif" font-size="14.00" fill="#000000">@PerActivity</text>
<text text-anchor="middle" x="1065.5291" y="-121.2" font-family="Times,serif" font-size="14.00" fill="#000000">Navigator</text>
</g>
<!-- bd3a71fa&#45;f836&#45;4ed6&#45;bab4&#45;f91832bee960&#45;&gt;f6e1ac2b&#45;2d12&#45;4e6d&#45;b89b&#45;df1e57109b87 -->
<g id="edge23" class="edge">
<title>bd3a71fa&#45;f836&#45;4ed6&#45;bab4&#45;f91832bee960&#45;&gt;f6e1ac2b&#45;2d12&#45;4e6d&#45;b89b&#45;df1e57109b87</title>
<path fill="none" stroke="#000000" d="M826.6409,-131.3927C879.3835,-131.9242 956.2828,-132.6991 1008.4774,-133.2251"/>
<polygon fill="#000000" stroke="#000000" points="1008.5376,-136.7258 1018.5724,-133.3268 1008.6082,-129.7261 1008.5376,-136.7258"/>
</g>
<!-- f6e1ac2b&#45;2d12&#45;4e6d&#45;b89b&#45;df1e57109b87&#45;&gt;de329f15&#45;09e1&#45;4d5e&#45;9850&#45;989572e0b32b -->
<g id="edge24" class="edge">
<title>f6e1ac2b&#45;2d12&#45;4e6d&#45;b89b&#45;df1e57109b87&#45;&gt;de329f15&#45;09e1&#45;4d5e&#45;9850&#45;989572e0b32b</title>
<path fill="none" stroke="#000000" d="M1112.5072,-133.8C1178.1219,-133.8 1297.9373,-133.8 1376.201,-133.8"/>
<polygon fill="#000000" stroke="#000000" points="1376.4827,-137.3001 1386.4826,-133.8 1376.4826,-130.3001 1376.4827,-137.3001"/>
</g>
<!-- 4b644f28&#45;6e53&#45;4723&#45;b889&#45;61954e10fed2 -->
<g id="node9" class="node">
<title>4b644f28&#45;6e53&#45;4723&#45;b889&#45;61954e10fed2</title>
<polygon fill="#40e0d0" stroke="#40e0d0" points="2030.6596,-151.8 1875.7252,-151.8 1835.8687,-115.8 1990.8031,-115.8 2030.6596,-151.8"/>
<text text-anchor="middle" x="1933.2641" y="-129.6" font-family="Times,serif" font-size="14.00" fill="#000000">StatusActivity</text>
</g>
<!-- de329f15&#45;09e1&#45;4d5e&#45;9850&#45;989572e0b32b&#45;&gt;4b644f28&#45;6e53&#45;4723&#45;b889&#45;61954e10fed2 -->
<g id="edge25" class="edge">
<title>de329f15&#45;09e1&#45;4d5e&#45;9850&#45;989572e0b32b&#45;&gt;4b644f28&#45;6e53&#45;4723&#45;b889&#45;61954e10fed2</title>
<path fill="none" stroke="#000000" stroke-dasharray="1,5" d="M1516.9818,-133.8C1601.8754,-133.8 1750.5972,-133.8 1845.3896,-133.8"/>
<polygon fill="#000000" stroke="#000000" points="1845.531,-137.3001 1855.531,-133.8 1845.531,-130.3001 1845.531,-137.3001"/>
<text text-anchor="middle" x="1773.0245" y="-138" font-family="Times,serif" font-size="14.00" fill="#000000">delegates</text>
</g>
<!-- f6fb3d4c&#45;7704&#45;4d57&#45;98f0&#45;fe4b74effe8f&#45;&gt;dd4a744e&#45;772d&#45;442d&#45;a28c&#45;3f024b2cbba8 -->
<g id="edge9" class="edge">
<title>f6fb3d4c&#45;7704&#45;4d57&#45;98f0&#45;fe4b74effe8f&#45;&gt;dd4a744e&#45;772d&#45;442d&#45;a28c&#45;3f024b2cbba8</title>
<path fill="none" stroke="#000000" d="M1493.2651,-73.8C1581.1865,-73.8 1786.1047,-73.8 1882.0283,-73.8"/>
<polygon fill="#000000" stroke="#000000" points="1882.0688,-77.3001 1892.0688,-73.8 1882.0688,-70.3001 1882.0688,-77.3001"/>
</g>
<!-- 7f5a65b2&#45;1240&#45;4be1&#45;a497&#45;26f5f5eabb55 -->
<g id="node12" class="node">
<title>7f5a65b2&#45;1240&#45;4be1&#45;a497&#45;26f5f5eabb55</title>
<polygon fill="#40e0d0" stroke="#40e0d0" points="1672.8413,-208.8 1230.7565,-208.8 1230.7565,-172.8 1672.8413,-172.8 1672.8413,-208.8"/>
<text text-anchor="middle" x="1451.7989" y="-186.6" font-family="Times,serif" font-size="14.00" fill="#000000">AndroidBindingModule_BindRegionActivity.bindAndroidInjectorFactory()</text>
</g>
<!-- aff3a110&#45;71f5&#45;42f7&#45;b66e&#45;170bb6d0857c&#45;&gt;7f5a65b2&#45;1240&#45;4be1&#45;a497&#45;26f5f5eabb55 -->
<g id="edge15" class="edge">
<title>aff3a110&#45;71f5&#45;42f7&#45;b66e&#45;170bb6d0857c&#45;&gt;7f5a65b2&#45;1240&#45;4be1&#45;a497&#45;26f5f5eabb55</title>
<path fill="none" stroke="#000000" d="M933.283,-465.7821C934.7086,-464.5095 936.0962,-463.1828 937.4428,-461.8 975.2571,-422.9706 920.7428,-220.8 974.9428,-220.8 974.9428,-220.8 974.9428,-220.8 1156.1154,-220.8 1162.8678,-220.8 1213.5495,-215.7826 1271.1006,-209.8516"/>
<polygon fill="#000000" stroke="#000000" points="1271.563,-213.3225 1281.1506,-208.8139 1270.844,-206.3596 1271.563,-213.3225"/>
</g>
<!-- 5b3aaf9e&#45;0155&#45;454e&#45;ac01&#45;a98db8366c7e -->
<g id="node13" class="node">
<title>5b3aaf9e&#45;0155&#45;454e&#45;ac01&#45;a98db8366c7e</title>
<polygon fill="#40e0d0" stroke="#40e0d0" points="1677.3909,-262.8 1226.2069,-262.8 1226.2069,-226.8 1677.3909,-226.8 1677.3909,-262.8"/>
<text text-anchor="middle" x="1451.7989" y="-240.6" font-family="Times,serif" font-size="14.00" fill="#000000">AndroidBindingModule_BindContactsActivity.bindAndroidInjectorFactory()</text>
</g>
<!-- aff3a110&#45;71f5&#45;42f7&#45;b66e&#45;170bb6d0857c&#45;&gt;5b3aaf9e&#45;0155&#45;454e&#45;ac01&#45;a98db8366c7e -->
<g id="edge11" class="edge">
<title>aff3a110&#45;71f5&#45;42f7&#45;b66e&#45;170bb6d0857c&#45;&gt;5b3aaf9e&#45;0155&#45;454e&#45;ac01&#45;a98db8366c7e</title>
<path fill="none" stroke="#000000" d="M933.2418,-465.7416C934.6804,-464.4818 936.0817,-463.1685 937.4428,-461.8 967.9447,-431.1306 931.688,-270.8 974.9428,-270.8 974.9428,-270.8 974.9428,-270.8 1156.1154,-270.8 1201.2693,-270.8 1250.1534,-267.754 1294.9241,-263.7472"/>
<polygon fill="#000000" stroke="#000000" points="1295.3696,-267.2211 1305.0082,-262.8224 1294.7304,-260.2503 1295.3696,-267.2211"/>
</g>
<!-- 7418d519&#45;f085&#45;45c1&#45;a984&#45;2c7333a52b18 -->
<g id="node14" class="node">
<title>7418d519&#45;f085&#45;45c1&#45;a984&#45;2c7333a52b18</title>
<polygon fill="#40e0d0" stroke="#40e0d0" points="1679.539,-316.8 1224.0588,-316.8 1224.0588,-280.8 1679.539,-280.8 1679.539,-316.8"/>
<text text-anchor="middle" x="1451.7989" y="-294.6" font-family="Times,serif" font-size="14.00" fill="#000000">AndroidBindingModule_BindWelcomeActivity.bindAndroidInjectorFactory()</text>
</g>
<!-- aff3a110&#45;71f5&#45;42f7&#45;b66e&#45;170bb6d0857c&#45;&gt;7418d519&#45;f085&#45;45c1&#45;a984&#45;2c7333a52b18 -->
<g id="edge22" class="edge">
<title>aff3a110&#45;71f5&#45;42f7&#45;b66e&#45;170bb6d0857c&#45;&gt;7418d519&#45;f085&#45;45c1&#45;a984&#45;2c7333a52b18</title>
<path fill="none" stroke="#000000" d="M932.6471,-465.7533C934.285,-464.4929 935.8847,-463.1758 937.4428,-461.8 987.3392,-417.7408 908.3781,-316.8 974.9428,-316.8 974.9428,-316.8 974.9428,-316.8 1156.1154,-316.8 1174.8378,-316.8 1194.2146,-316.436 1213.6813,-315.8115"/>
<polygon fill="#000000" stroke="#000000" points="1213.9923,-319.303 1223.8663,-315.4618 1213.752,-312.3071 1213.9923,-319.303"/>
</g>
<!-- 5e727a06&#45;ddaf&#45;48f9&#45;a6dc&#45;92d2e9b0005f -->
<g id="node15" class="node">
<title>5e727a06&#45;ddaf&#45;48f9&#45;a6dc&#45;92d2e9b0005f</title>
<polygon fill="#40e0d0" stroke="#40e0d0" points="1684.9199,-370.8 1218.6779,-370.8 1218.6779,-334.8 1684.9199,-334.8 1684.9199,-370.8"/>
<text text-anchor="middle" x="1451.7989" y="-348.6" font-family="Times,serif" font-size="14.00" fill="#000000">AndroidBindingModule_BindBackgroundService.bindAndroidInjectorFactory()</text>
</g>
<!-- aff3a110&#45;71f5&#45;42f7&#45;b66e&#45;170bb6d0857c&#45;&gt;5e727a06&#45;ddaf&#45;48f9&#45;a6dc&#45;92d2e9b0005f -->
<g id="edge20" class="edge">
<title>aff3a110&#45;71f5&#45;42f7&#45;b66e&#45;170bb6d0857c&#45;&gt;5e727a06&#45;ddaf&#45;48f9&#45;a6dc&#45;92d2e9b0005f</title>
<path fill="none" stroke="#000000" d="M931.4949,-465.7239C933.5188,-464.4784 935.503,-463.1713 937.4428,-461.8 967.55,-440.5159 938.072,-387.8 974.9428,-387.8 974.9428,-387.8 974.9428,-387.8 1156.1154,-387.8 1173.1571,-387.8 1176.7838,-382.4678 1193.6154,-379.8 1211.2547,-377.0042 1229.6196,-374.427 1248.0628,-372.0677"/>
<polygon fill="#000000" stroke="#000000" points="1248.5255,-375.5372 1258.0106,-370.8167 1247.652,-368.5919 1248.5255,-375.5372"/>
</g>
<!-- f2f94f32&#45;7c3d&#45;4cc3&#45;b103&#45;8286e37079ee -->
<g id="node16" class="node">
<title>f2f94f32&#45;7c3d&#45;4cc3&#45;b103&#45;8286e37079ee</title>
<polygon fill="#40e0d0" stroke="#40e0d0" points="1670.3937,-424.8 1233.2041,-424.8 1233.2041,-388.8 1670.3937,-388.8 1670.3937,-424.8"/>
<text text-anchor="middle" x="1451.7989" y="-402.6" font-family="Times,serif" font-size="14.00" fill="#000000">AndroidBindingModule_BindEditorActivity.bindAndroidInjectorFactory()</text>
</g>
<!-- aff3a110&#45;71f5&#45;42f7&#45;b66e&#45;170bb6d0857c&#45;&gt;f2f94f32&#45;7c3d&#45;4cc3&#45;b103&#45;8286e37079ee -->
<g id="edge14" class="edge">
<title>aff3a110&#45;71f5&#45;42f7&#45;b66e&#45;170bb6d0857c&#45;&gt;f2f94f32&#45;7c3d&#45;4cc3&#45;b103&#45;8286e37079ee</title>
<path fill="none" stroke="#000000" d="M927.391,-465.6651C930.797,-464.4536 934.152,-463.1667 937.4428,-461.8 956.9005,-453.7192 953.8738,-432.8 974.9428,-432.8 974.9428,-432.8 974.9428,-432.8 1156.1154,-432.8 1201.2693,-432.8 1250.1534,-429.754 1294.9241,-425.7472"/>
<polygon fill="#000000" stroke="#000000" points="1295.3696,-429.2211 1305.0082,-424.8224 1294.7304,-422.2503 1295.3696,-429.2211"/>
</g>
<!-- d1ab2c99&#45;a1ce&#45;4a49&#45;9f1d&#45;9d07ccd7e75a -->
<g id="node17" class="node">
<title>d1ab2c99&#45;a1ce&#45;4a49&#45;9f1d&#45;9d07ccd7e75a</title>
<polygon fill="#40e0d0" stroke="#40e0d0" points="1710.166,-478.8 1193.4318,-478.8 1193.4318,-442.8 1710.166,-442.8 1710.166,-478.8"/>
<text text-anchor="middle" x="1451.7989" y="-456.6" font-family="Times,serif" font-size="14.00" fill="#000000">AndroidBindingModule_BindBackgroundServiceReceiver.bindAndroidInjectorFactory()</text>
</g>
<!-- aff3a110&#45;71f5&#45;42f7&#45;b66e&#45;170bb6d0857c&#45;&gt;d1ab2c99&#45;a1ce&#45;4a49&#45;9f1d&#45;9d07ccd7e75a -->
<g id="edge13" class="edge">
<title>aff3a110&#45;71f5&#45;42f7&#45;b66e&#45;170bb6d0857c&#45;&gt;d1ab2c99&#45;a1ce&#45;4a49&#45;9f1d&#45;9d07ccd7e75a</title>
<path fill="none" stroke="#000000" d="M937.5482,-466.6561C950.1917,-466.1129 962.7612,-465.8 974.9428,-465.8 974.9428,-465.8 974.9428,-465.8 1156.1154,-465.8 1165.07,-465.8 1174.177,-465.7768 1183.374,-465.7335"/>
<polygon fill="#000000" stroke="#000000" points="1183.4053,-469.2335 1193.386,-465.6789 1183.3671,-462.2336 1183.4053,-469.2335"/>
</g>
<!-- e03f7d44&#45;535a&#45;4d34&#45;8387&#45;d710952e8912 -->
<g id="node18" class="node">
<title>e03f7d44&#45;535a&#45;4d34&#45;8387&#45;d710952e8912</title>
<polygon fill="#40e0d0" stroke="#40e0d0" points="1670.1224,-532.8 1233.4754,-532.8 1233.4754,-496.8 1670.1224,-496.8 1670.1224,-532.8"/>
<text text-anchor="middle" x="1451.7989" y="-510.6" font-family="Times,serif" font-size="14.00" fill="#000000">AndroidBindingModule_BindStatusActivity.bindAndroidInjectorFactory()</text>
</g>
<!-- aff3a110&#45;71f5&#45;42f7&#45;b66e&#45;170bb6d0857c&#45;&gt;e03f7d44&#45;535a&#45;4d34&#45;8387&#45;d710952e8912 -->
<g id="edge18" class="edge">
<title>aff3a110&#45;71f5&#45;42f7&#45;b66e&#45;170bb6d0857c&#45;&gt;e03f7d44&#45;535a&#45;4d34&#45;8387&#45;d710952e8912</title>
<path fill="none" stroke="#000000" d="M935.5687,-501.8052C948.8777,-502.4346 962.1241,-502.8 974.9428,-502.8 974.9428,-502.8 974.9428,-502.8 1156.1154,-502.8 1177.9327,-502.8 1200.6481,-503.1302 1223.3633,-503.6811"/>
<polygon fill="#000000" stroke="#000000" points="1223.3582,-507.182 1233.4447,-503.9397 1223.5378,-500.1843 1223.3582,-507.182"/>
</g>
<!-- 6fcc747a&#45;c1f4&#45;4db0&#45;889f&#45;8e990ffbd324 -->
<g id="node19" class="node">
<title>6fcc747a&#45;c1f4&#45;4db0&#45;889f&#45;8e990ffbd324</title>
<polygon fill="#40e0d0" stroke="#40e0d0" points="1685.6815,-586.8 1217.9163,-586.8 1217.9163,-550.8 1685.6815,-550.8 1685.6815,-586.8"/>
<text text-anchor="middle" x="1451.7989" y="-564.6" font-family="Times,serif" font-size="14.00" fill="#000000">AndroidBindingModule_BindPreferencesActivity.bindAndroidInjectorFactory()</text>
</g>
<!-- aff3a110&#45;71f5&#45;42f7&#45;b66e&#45;170bb6d0857c&#45;&gt;6fcc747a&#45;c1f4&#45;4db0&#45;889f&#45;8e990ffbd324 -->
<g id="edge12" class="edge">
<title>aff3a110&#45;71f5&#45;42f7&#45;b66e&#45;170bb6d0857c&#45;&gt;6fcc747a&#45;c1f4&#45;4db0&#45;889f&#45;8e990ffbd324</title>
<path fill="none" stroke="#000000" d="M798.2217,-501.8449C837.5859,-523.4623 908.9845,-556.8 974.9428,-556.8 974.9428,-556.8 974.9428,-556.8 1156.1154,-556.8 1172.8648,-556.8 1190.1436,-556.9946 1207.5452,-557.3343"/>
<polygon fill="#000000" stroke="#000000" points="1207.7305,-560.8389 1217.8021,-557.5507 1207.8782,-553.8404 1207.7305,-560.8389"/>
</g>
<!-- be07dc15&#45;e697&#45;4d6e&#45;9ba1&#45;b3dc7cc68afa -->
<g id="node20" class="node">
<title>be07dc15&#45;e697&#45;4d6e&#45;9ba1&#45;b3dc7cc68afa</title>
<polygon fill="#40e0d0" stroke="#40e0d0" points="1665.5586,-640.8 1238.0392,-640.8 1238.0392,-604.8 1665.5586,-604.8 1665.5586,-640.8"/>
<text text-anchor="middle" x="1451.7989" y="-618.6" font-family="Times,serif" font-size="14.00" fill="#000000">AndroidBindingModule_BindMapActivity.bindAndroidInjectorFactory()</text>
</g>
<!-- aff3a110&#45;71f5&#45;42f7&#45;b66e&#45;170bb6d0857c&#45;&gt;be07dc15&#45;e697&#45;4d6e&#45;9ba1&#45;b3dc7cc68afa -->
<g id="edge19" class="edge">
<title>aff3a110&#45;71f5&#45;42f7&#45;b66e&#45;170bb6d0857c&#45;&gt;be07dc15&#45;e697&#45;4d6e&#45;9ba1&#45;b3dc7cc68afa</title>
<path fill="none" stroke="#000000" d="M783.489,-501.996C815.5718,-537.1126 892.6924,-610.8 974.9428,-610.8 974.9428,-610.8 974.9428,-610.8 1156.1154,-610.8 1179.3702,-610.8 1203.6452,-611.1751 1227.8528,-611.7928"/>
<polygon fill="#000000" stroke="#000000" points="1227.7615,-615.2915 1237.8519,-612.0615 1227.9496,-608.294 1227.7615,-615.2915"/>
</g>
<!-- 3ff3344c&#45;112f&#45;439d&#45;9ee3&#45;73154fda3ad3 -->
<g id="node21" class="node">
<title>3ff3344c&#45;112f&#45;439d&#45;9ee3&#45;73154fda3ad3</title>
<polygon fill="#40e0d0" stroke="#40e0d0" points="1684.6455,-694.8 1218.9523,-694.8 1218.9523,-658.8 1684.6455,-658.8 1684.6455,-694.8"/>
<text text-anchor="middle" x="1451.7989" y="-672.6" font-family="Times,serif" font-size="14.00" fill="#000000">AndroidBindingModule_BindLogViewerActivity.bindAndroidInjectorFactory()</text>
</g>
<!-- aff3a110&#45;71f5&#45;42f7&#45;b66e&#45;170bb6d0857c&#45;&gt;3ff3344c&#45;112f&#45;439d&#45;9ee3&#45;73154fda3ad3 -->
<g id="edge17" class="edge">
<title>aff3a110&#45;71f5&#45;42f7&#45;b66e&#45;170bb6d0857c&#45;&gt;3ff3344c&#45;112f&#45;439d&#45;9ee3&#45;73154fda3ad3</title>
<path fill="none" stroke="#000000" d="M779.3884,-501.9246C807.4452,-543.4261 883.5856,-641.8 974.9428,-641.8 974.9428,-641.8 974.9428,-641.8 1156.1154,-641.8 1173.1571,-641.8 1176.7838,-647.1322 1193.6154,-649.8 1211.2547,-652.5958 1229.6196,-655.173 1248.0628,-657.5323"/>
<polygon fill="#000000" stroke="#000000" points="1247.652,-661.0081 1258.0106,-658.7833 1248.5255,-654.0628 1247.652,-661.0081"/>
</g>
<!-- 107387ef&#45;7808&#45;4aeb&#45;83e0&#45;4ffeb83faa57 -->
<g id="node22" class="node">
<title>107387ef&#45;7808&#45;4aeb&#45;83e0&#45;4ffeb83faa57</title>
<polygon fill="#40e0d0" stroke="#40e0d0" points="1667.1665,-748.8 1236.4313,-748.8 1236.4313,-712.8 1667.1665,-712.8 1667.1665,-748.8"/>
<text text-anchor="middle" x="1451.7989" y="-726.6" font-family="Times,serif" font-size="14.00" fill="#000000">AndroidBindingModule_BindLoadActivity.bindAndroidInjectorFactory()</text>
</g>
<!-- aff3a110&#45;71f5&#45;42f7&#45;b66e&#45;170bb6d0857c&#45;&gt;107387ef&#45;7808&#45;4aeb&#45;83e0&#45;4ffeb83faa57 -->
<g id="edge16" class="edge">
<title>aff3a110&#45;71f5&#45;42f7&#45;b66e&#45;170bb6d0857c&#45;&gt;107387ef&#45;7808&#45;4aeb&#45;83e0&#45;4ffeb83faa57</title>
<path fill="none" stroke="#000000" d="M774.1458,-502.1529C794.1557,-556.4938 861.5661,-712.8 974.9428,-712.8 974.9428,-712.8 974.9428,-712.8 1156.1154,-712.8 1178.8406,-712.8 1202.5301,-713.3363 1226.1739,-714.2237"/>
<polygon fill="#000000" stroke="#000000" points="1226.1705,-717.7262 1236.3013,-714.625 1226.4477,-710.7317 1226.1705,-717.7262"/>
</g>
<!-- abd41525&#45;e318&#45;4a2f&#45;9ccb&#45;2be6f83983b5 -->
<g id="node23" class="node">
<title>abd41525&#45;e318&#45;4a2f&#45;9ccb&#45;2be6f83983b5</title>
<polygon fill="#40e0d0" stroke="#40e0d0" points="1675.7857,-802.8 1227.8121,-802.8 1227.8121,-766.8 1675.7857,-766.8 1675.7857,-802.8"/>
<text text-anchor="middle" x="1451.7989" y="-780.6" font-family="Times,serif" font-size="14.00" fill="#000000">AndroidBindingModule_BindRegionsActivity.bindAndroidInjectorFactory()</text>
</g>
<!-- aff3a110&#45;71f5&#45;42f7&#45;b66e&#45;170bb6d0857c&#45;&gt;abd41525&#45;e318&#45;4a2f&#45;9ccb&#45;2be6f83983b5 -->
<g id="edge10" class="edge">
<title>aff3a110&#45;71f5&#45;42f7&#45;b66e&#45;170bb6d0857c&#45;&gt;abd41525&#45;e318&#45;4a2f&#45;9ccb&#45;2be6f83983b5</title>
<path fill="none" stroke="#000000" d="M771.4111,-502.0034C785.1238,-565.7104 840.3793,-774.8 974.9428,-774.8 974.9428,-774.8 974.9428,-774.8 1156.1154,-774.8 1175.9785,-774.8 1196.588,-775.0282 1217.265,-775.4156"/>
<polygon fill="#000000" stroke="#000000" points="1217.35,-778.9179 1227.4179,-775.6183 1217.4898,-771.9193 1217.35,-778.9179"/>
</g>
<!-- ad1186dc&#45;f53e&#45;4fc0&#45;8137&#45;53ad1348f339 -->
<g id="node24" class="node">
<title>ad1186dc&#45;f53e&#45;4fc0&#45;8137&#45;53ad1348f339</title>
<polygon fill="#40e0d0" stroke="#40e0d0" points="1684.9464,-856.8 1218.6514,-856.8 1218.6514,-820.8 1684.9464,-820.8 1684.9464,-856.8"/>
<text text-anchor="middle" x="1451.7989" y="-834.6" font-family="Times,serif" font-size="14.00" fill="#000000">AndroidBindingModule_BindConnectionActivity.bindAndroidInjectorFactory()</text>
</g>
<!-- aff3a110&#45;71f5&#45;42f7&#45;b66e&#45;170bb6d0857c&#45;&gt;ad1186dc&#45;f53e&#45;4fc0&#45;8137&#45;53ad1348f339 -->
<g id="edge21" class="edge">
<title>aff3a110&#45;71f5&#45;42f7&#45;b66e&#45;170bb6d0857c&#45;&gt;ad1186dc&#45;f53e&#45;4fc0&#45;8137&#45;53ad1348f339</title>
<path fill="none" stroke="#000000" d="M769.7055,-502.0724C778.1968,-573.8817 819.5854,-832.8 974.9428,-832.8 974.9428,-832.8 974.9428,-832.8 1156.1154,-832.8 1173.0691,-832.8 1190.5685,-832.8998 1208.1907,-833.0737"/>
<polygon fill="#000000" stroke="#000000" points="1208.5407,-836.5775 1218.5775,-833.1845 1208.6154,-829.5779 1208.5407,-836.5775"/>
</g>
</g>
</svg>
