<svg width="2154px" height="450px"
 viewBox="0.00 0.00 2153.68 449.60" xmlns="http://www.w3.org/2000/svg" xmlns:xlink="http://www.w3.org/1999/xlink">
<g id="graph0" class="graph" transform="scale(1.0 1.0) rotate(0) translate(14.4 435.2)">
<title>org.owntracks.android.injection.modules.AndroidBindingModule_BindRegionActivity</title>
<polygon fill="#ffffff" stroke="transparent" points="-14.4,14.4 -14.4,-435.2 2139.2794,-435.2 2139.2794,14.4 -14.4,14.4"/>
<text text-anchor="middle" x="135.939" y="-8.2" font-family="Times,serif" font-size="14.00" fill="#000000">AndroidBindingModule_BindRegionActivity</text>
<g id="clust2" class="cluster">
<title>cluster_Dependency Graph</title>
<polygon fill="none" stroke="#000000" points="8,-32.8 8,-412.8 1553.528,-412.8 1553.528,-32.8 8,-32.8"/>
<text text-anchor="middle" x="70.2234" y="-396.2" font-family="Times,serif" font-size="14.00" fill="#000000">Dependency Graph</text>
</g>
<g id="clust3" class="cluster">
<title>cluster_Map&lt;Class&lt;?&gt;, AndroidInjector.Factory&lt;?&gt;&gt;</title>
<path fill="none" stroke="#000000" d="M171.0404,-302.8C171.0404,-302.8 1182.8624,-302.8 1182.8624,-302.8 1188.8624,-302.8 1194.8624,-308.8 1194.8624,-314.8 1194.8624,-314.8 1194.8624,-367.8 1194.8624,-367.8 1194.8624,-373.8 1188.8624,-379.8 1182.8624,-379.8 1182.8624,-379.8 171.0404,-379.8 171.0404,-379.8 165.0404,-379.8 159.0404,-373.8 159.0404,-367.8 159.0404,-367.8 159.0404,-314.8 159.0404,-314.8 159.0404,-308.8 165.0404,-302.8 171.0404,-302.8"/>
<text text-anchor="middle" x="676.9514" y="-363.2" font-family="Times,serif" font-size="14.00" fill="#000000">Map&lt;Class&lt;?&gt;, AndroidInjector.Factory&lt;?&gt;&gt;</text>
</g>
<g id="clust4" class="cluster">
<title>cluster_Subcomponents</title>
<polygon fill="none" stroke="#000000" points="1655.183,-299.8 1655.183,-382.8 2116.8794,-382.8 2116.8794,-299.8 1655.183,-299.8"/>
<text text-anchor="middle" x="1707.9018" y="-366.2" font-family="Times,serif" font-size="14.00" fill="#000000">Subcomponents</text>
</g>
<!-- d024a2d8&#45;c464&#45;442b&#45;b7f1&#45;501af5325f69 -->
<g id="node1" class="node">
<title>d024a2d8&#45;c464&#45;442b&#45;b7f1&#45;501af5325f69</title>
<polygon fill="#40e0d0" stroke="#40e0d0" points="1186.6337,-346.8 744.5489,-346.8 744.5489,-310.8 1186.6337,-310.8 1186.6337,-346.8"/>
<text text-anchor="middle" x="965.5913" y="-324.6" font-family="Times,serif" font-size="14.00" fill="#000000">AndroidBindingModule_BindRegionActivity.bindAndroidInjectorFactory()</text>
</g>
<!-- 565dfcb5&#45;28a6&#45;4551&#45;8bd3&#45;ca267ba65540 -->
<g id="node2" class="node">
<title>565dfcb5&#45;28a6&#45;4551&#45;8bd3&#45;ca267ba65540</title>
<polygon fill="#40e0d0" stroke="#40e0d0" points="1545.3191,-357.4014 1313.1555,-357.4014 1313.1555,-300.1986 1545.3191,-300.1986 1545.3191,-357.4014"/>
<text text-anchor="middle" x="1429.2373" y="-341" font-family="Times,serif" font-size="14.00" fill="#000000">RegionActivitySubcomponent.Factory</text>
<text text-anchor="middle" x="1429.2373" y="-308.2" font-family="Times,serif" font-size="14.00" fill="#000000">Subcomponent Creator</text>
</g>
<!-- d024a2d8&#45;c464&#45;442b&#45;b7f1&#45;501af5325f69&#45;&gt;565dfcb5&#45;28a6&#45;4551&#45;8bd3&#45;ca267ba65540 -->
<g id="edge2" class="edge">
<title>d024a2d8&#45;c464&#45;442b&#45;b7f1&#45;501af5325f69&#45;&gt;565dfcb5&#45;28a6&#45;4551&#45;8bd3&#45;ca267ba65540</title>
<path fill="none" stroke="#000000" stroke-dasharray="1,5" d="M1186.8904,-328.8C1226.7221,-328.8 1266.9688,-328.8 1302.9142,-328.8"/>
<polygon fill="#000000" stroke="#000000" points="1302.9347,-332.3001 1312.9346,-328.8 1302.9346,-325.3001 1302.9347,-332.3001"/>
<text text-anchor="middle" x="1249.9045" y="-333" font-family="Times,serif" font-size="14.00" fill="#000000">delegates</text>
</g>
<!-- f5a80f17&#45;be39&#45;4f38&#45;b7fe&#45;393e0a66ffd8 -->
<g id="node9" class="node">
<title>f5a80f17&#45;be39&#45;4f38&#45;b7fe&#45;393e0a66ffd8</title>
<g id="a_node9"><a xlink:href="full_org.owntracks.android.injection.modules.AndroidBindingModule_BindRegionActivity.RegionActivitySubcomponent.svg" xlink:title="@PerActivity\nAndroidBindingModule_BindRegionActivity.RegionActivitySubcomponent">
<polygon fill="#7fffd4" stroke="#7fffd4" points="2108.7277,-349.4019 1663.3347,-349.4019 1663.3347,-308.1981 2108.7277,-308.1981 2108.7277,-349.4019"/>
<text text-anchor="middle" x="1886.0312" y="-333" font-family="Times,serif" font-size="14.00" fill="#000000">@PerActivity</text>
<text text-anchor="middle" x="1886.0312" y="-316.2" font-family="Times,serif" font-size="14.00" fill="#000000">AndroidBindingModule_BindRegionActivity.RegionActivitySubcomponent</text>
</a>
</g>
</g>
<!-- 565dfcb5&#45;28a6&#45;4551&#45;8bd3&#45;ca267ba65540&#45;&gt;f5a80f17&#45;be39&#45;4f38&#45;b7fe&#45;393e0a66ffd8 -->
<g id="edge3" class="edge">
<title>565dfcb5&#45;28a6&#45;4551&#45;8bd3&#45;ca267ba65540&#45;&gt;f5a80f17&#45;be39&#45;4f38&#45;b7fe&#45;393e0a66ffd8:w</title>
<path fill="none" stroke="#000000" stroke-dasharray="5,2" d="M1545.48,-328.8C1579.6286,-328.8 1617.3035,-328.8 1652.6406,-328.8"/>
<polygon fill="#000000" stroke="#000000" points="1653.0312,-332.3001 1663.0312,-328.8 1653.0312,-325.3001 1653.0312,-332.3001"/>
<text text-anchor="middle" x="1604.3555" y="-333" font-family="Times,serif" font-size="14.00" fill="#000000">subcomponent</text>
</g>
<!-- 7e1e4542&#45;6680&#45;42b0&#45;9b05&#45;20074c9b2fea -->
<g id="node3" class="node">
<title>7e1e4542&#45;6680&#45;42b0&#45;9b05&#45;20074c9b2fea</title>
<polygon fill="#ff3030" stroke="#ff3030" points="409.6651,-292.8 199.6551,-292.8 199.6551,-256.8 409.6651,-256.8 409.6651,-292.8"/>
<text text-anchor="middle" x="304.6601" y="-270.6" font-family="Times,serif" font-size="14.00" fill="#000000">org.greenrobot.eventbus.EventBus</text>
</g>
<!-- fefa70cd&#45;697d&#45;48b4&#45;9949&#45;621618974e4a -->
<g id="node4" class="node">
<title>fefa70cd&#45;697d&#45;48b4&#45;9949&#45;621618974e4a</title>
<polygon fill="#ff3030" stroke="#ff3030" points="593.4804,-238.8 15.8398,-238.8 15.8398,-202.8 593.4804,-202.8 593.4804,-238.8"/>
<text text-anchor="middle" x="304.6601" y="-216.6" font-family="Times,serif" font-size="14.00" fill="#000000">java.util.Map&lt;java.lang.String,javax.inject.Provider&lt;dagger.android.AndroidInjector.Factory&lt;?&gt;&gt;&gt;</text>
</g>
<!-- 8d7437ef&#45;ae97&#45;4977&#45;8711&#45;9bc6fc3b063f -->
<g id="node5" class="node">
<title>8d7437ef&#45;ae97&#45;4977&#45;8711&#45;9bc6fc3b063f</title>
<polygon fill="#ff3030" stroke="#ff3030" points="452.9641,-184.8 156.3561,-184.8 156.3561,-148.8 452.9641,-148.8 452.9641,-184.8"/>
<text text-anchor="middle" x="304.6601" y="-162.6" font-family="Times,serif" font-size="14.00" fill="#000000">org.owntracks.android.data.repos.WaypointsRepo</text>
</g>
<!-- abb601c1&#45;ebf1&#45;4747&#45;ba6d&#45;3bbb4be10cbd -->
<g id="node6" class="node">
<title>abb601c1&#45;ebf1&#45;4747&#45;ba6d&#45;3bbb4be10cbd</title>
<polygon fill="#ff3030" stroke="#ff3030" points="539.1721,-130.8 70.1481,-130.8 70.1481,-94.8 539.1721,-94.8 539.1721,-130.8"/>
<text text-anchor="middle" x="304.6601" y="-108.6" font-family="Times,serif" font-size="14.00" fill="#000000">@org.owntracks.android.injection.qualifier.AppContext android.content.Context</text>
</g>
<!-- 3d13a17d&#45;a893&#45;4cb3&#45;a3cc&#45;58b61606a776 -->
<g id="node7" class="node">
<title>3d13a17d&#45;a893&#45;4cb3&#45;a3cc&#45;58b61606a776</title>
<polygon fill="#ff3030" stroke="#ff3030" points="481.4438,-76.8 127.8764,-76.8 127.8764,-40.8 481.4438,-40.8 481.4438,-76.8"/>
<text text-anchor="middle" x="304.6601" y="-54.6" font-family="Times,serif" font-size="14.00" fill="#000000">org.owntracks.android.support.preferences.PreferencesStore</text>
</g>
<!-- e9a1a37c&#45;2312&#45;4787&#45;bc7f&#45;1bdd8617e08e -->
<g id="node8" class="node">
<title>e9a1a37c&#45;2312&#45;4787&#45;bc7f&#45;1bdd8617e08e</title>
<polygon fill="#40e0d0" stroke="#40e0d0" points="442.3996,-346.8 178.9206,-346.8 178.9206,-350.8 166.9206,-350.8 166.9206,-310.8 442.3996,-310.8 442.3996,-346.8"/>
<polyline fill="none" stroke="#40e0d0" points="166.9206,-346.8 178.9206,-346.8 "/>
<text text-anchor="middle" x="304.6601" y="-324.6" font-family="Times,serif" font-size="14.00" fill="#000000">Map&lt;Class&lt;?&gt;, AndroidInjector.Factory&lt;?&gt;&gt;</text>
</g>
<!-- e9a1a37c&#45;2312&#45;4787&#45;bc7f&#45;1bdd8617e08e&#45;&gt;d024a2d8&#45;c464&#45;442b&#45;b7f1&#45;501af5325f69 -->
<g id="edge1" class="edge">
<title>e9a1a37c&#45;2312&#45;4787&#45;bc7f&#45;1bdd8617e08e&#45;&gt;d024a2d8&#45;c464&#45;442b&#45;b7f1&#45;501af5325f69</title>
<path fill="none" stroke="#000000" d="M442.3313,-328.8C500.4944,-328.8 568.9574,-328.8 630.8202,-328.8 630.8202,-328.8 630.8202,-328.8 706.8202,-328.8 715.8106,-328.8 724.9766,-328.8 734.236,-328.8"/>
<polygon fill="#000000" stroke="#000000" points="734.3161,-332.3001 744.3161,-328.8 734.3161,-325.3001 734.3161,-332.3001"/>
</g>
</g>
</svg>
