<svg width="1670px" height="267px"
 viewBox="0.00 0.00 1669.56 266.60" xmlns="http://www.w3.org/2000/svg" xmlns:xlink="http://www.w3.org/1999/xlink">
<g id="graph0" class="graph" transform="scale(1.0 1.0) rotate(0) translate(14.4 252.2)">
<title>org.owntracks.android.ui.region.RegionActivityModule</title>
<polygon fill="#ffffff" stroke="transparent" points="-14.4,14.4 -14.4,-252.2 1655.1568,-252.2 1655.1568,14.4 -14.4,14.4"/>
<text text-anchor="middle" x="72.9376" y="-8.2" font-family="Times,serif" font-size="14.00" fill="#000000">RegionActivityModule</text>
<g id="clust2" class="cluster">
<title>cluster_Dependency Graph</title>
<polygon fill="none" stroke="#000000" points="8,-32.8 8,-229.8 1632.7568,-229.8 1632.7568,-32.8 8,-32.8"/>
<text text-anchor="middle" x="70.2234" y="-213.2" font-family="Times,serif" font-size="14.00" fill="#000000">Dependency Graph</text>
</g>
<!-- 4579e7af&#45;584e&#45;49eb&#45;81be&#45;63c68ac5cfea -->
<g id="node1" class="node">
<title>4579e7af&#45;584e&#45;49eb&#45;81be&#45;63c68ac5cfea</title>
<polygon fill="#7fffd4" stroke="#7fffd4" points="1173.5533,-196.4019 1042.9073,-196.4019 1042.9073,-155.1981 1173.5533,-155.1981 1173.5533,-196.4019"/>
<text text-anchor="middle" x="1108.2303" y="-180" font-family="Times,serif" font-size="14.00" fill="#000000">@PerActivity</text>
<text text-anchor="middle" x="1108.2303" y="-163.2" font-family="Times,serif" font-size="14.00" fill="#000000">AppCompatActivity</text>
</g>
<!-- 45678f67&#45;9aca&#45;4ee9&#45;956f&#45;34cb0d0a347d -->
<g id="node2" class="node">
<title>45678f67&#45;9aca&#45;4ee9&#45;956f&#45;34cb0d0a347d</title>
<polygon fill="#ff3030" stroke="#ff3030" points="1624.977,-193.8 1339.0968,-193.8 1339.0968,-157.8 1624.977,-157.8 1624.977,-193.8"/>
<text text-anchor="middle" x="1482.0369" y="-171.6" font-family="Times,serif" font-size="14.00" fill="#000000">org.owntracks.android.ui.region.RegionActivity</text>
</g>
<!-- 4579e7af&#45;584e&#45;49eb&#45;81be&#45;63c68ac5cfea&#45;&gt;45678f67&#45;9aca&#45;4ee9&#45;956f&#45;34cb0d0a347d -->
<g id="edge2" class="edge">
<title>4579e7af&#45;584e&#45;49eb&#45;81be&#45;63c68ac5cfea&#45;&gt;45678f67&#45;9aca&#45;4ee9&#45;956f&#45;34cb0d0a347d</title>
<path fill="none" stroke="#000000" stroke-dasharray="5,2" d="M1173.7702,-175.8C1216.742,-175.8 1274.7931,-175.8 1328.9307,-175.8"/>
<polygon fill="#000000" stroke="#000000" points="1328.9894,-179.3001 1338.9894,-175.8 1328.9893,-172.3001 1328.9894,-179.3001"/>
<text text-anchor="middle" x="1276.2749" y="-180" font-family="Times,serif" font-size="14.00" fill="#000000">delegates</text>
<text text-anchor="middle" x="1293.2913" y="-163.2" font-family="Times,serif" font-size="14.00" fill="#000000">Missing binding</text>
</g>
<!-- e3de34f9&#45;eb84&#45;4f93&#45;b6a8&#45;f4bc2ef8678b -->
<g id="node3" class="node">
<title>e3de34f9&#45;eb84&#45;4f93&#45;b6a8&#45;f4bc2ef8678b</title>
<polygon fill="#40e0d0" stroke="#40e0d0" points="307.2951,-133.8 16.2347,-133.8 16.2347,-97.8 307.2951,-97.8 307.2951,-133.8"/>
<text text-anchor="middle" x="161.7649" y="-111.6" font-family="Times,serif" font-size="14.00" fill="#000000">RegionMvvm.ViewModel&lt;RegionMvvm.View&gt;</text>
</g>
<!-- 0c192c39&#45;8de9&#45;486c&#45;92a7&#45;3e709aa36687 -->
<g id="node4" class="node">
<title>0c192c39&#45;8de9&#45;486c&#45;92a7&#45;3e709aa36687</title>
<polygon fill="#7fffd4" stroke="#7fffd4" points="557.0794,-136.4019 433.4586,-136.4019 433.4586,-95.1981 557.0794,-95.1981 557.0794,-136.4019"/>
<text text-anchor="middle" x="495.269" y="-120" font-family="Times,serif" font-size="14.00" fill="#000000">@PerActivity</text>
<text text-anchor="middle" x="495.269" y="-103.2" font-family="Times,serif" font-size="14.00" fill="#000000">RegionViewModel</text>
</g>
<!-- e3de34f9&#45;eb84&#45;4f93&#45;b6a8&#45;f4bc2ef8678b&#45;&gt;0c192c39&#45;8de9&#45;486c&#45;92a7&#45;3e709aa36687 -->
<g id="edge3" class="edge">
<title>e3de34f9&#45;eb84&#45;4f93&#45;b6a8&#45;f4bc2ef8678b&#45;&gt;0c192c39&#45;8de9&#45;486c&#45;92a7&#45;3e709aa36687</title>
<path fill="none" stroke="#000000" stroke-dasharray="1,5" d="M307.5595,-115.8C347.5879,-115.8 389.2534,-115.8 423.1315,-115.8"/>
<polygon fill="#000000" stroke="#000000" points="423.385,-119.3001 433.385,-115.8 423.385,-112.3001 423.385,-119.3001"/>
<text text-anchor="middle" x="370.5719" y="-120" font-family="Times,serif" font-size="14.00" fill="#000000">delegates</text>
</g>
<!-- 14fcf093&#45;d2f3&#45;4da0&#45;ad67&#45;fc7d691a6c7e -->
<g id="node5" class="node">
<title>14fcf093&#45;d2f3&#45;4da0&#45;ad67&#45;fc7d691a6c7e</title>
<polygon fill="#ff3030" stroke="#ff3030" points="928.3799,-76.8 631.7719,-76.8 631.7719,-40.8 928.3799,-40.8 928.3799,-76.8"/>
<text text-anchor="middle" x="780.0759" y="-54.6" font-family="Times,serif" font-size="14.00" fill="#000000">org.owntracks.android.data.repos.WaypointsRepo</text>
</g>
<!-- 0c192c39&#45;8de9&#45;486c&#45;92a7&#45;3e709aa36687&#45;&gt;14fcf093&#45;d2f3&#45;4da0&#45;ad67&#45;fc7d691a6c7e -->
<g id="edge4" class="edge">
<title>0c192c39&#45;8de9&#45;486c&#45;92a7&#45;3e709aa36687&#45;&gt;14fcf093&#45;d2f3&#45;4da0&#45;ad67&#45;fc7d691a6c7e</title>
<path fill="none" stroke="#000000" stroke-dasharray="5,2" d="M557.0753,-101.7398C580.4827,-96.5444 607.3952,-90.7259 631.924,-85.8 643.7561,-83.4239 656.1381,-81.0268 668.4869,-78.6936"/>
<polygon fill="#000000" stroke="#000000" points="669.1898,-82.1228 678.3722,-76.8377 667.8981,-75.243 669.1898,-82.1228"/>
<text text-anchor="middle" x="632.6741" y="-81.0377" font-family="Times,serif" font-size="14.00" fill="#000000">Missing binding</text>
</g>
<!-- 545332cd&#45;0f5d&#45;4967&#45;8572&#45;9d20e65c2aab -->
<g id="node6" class="node">
<title>545332cd&#45;0f5d&#45;4967&#45;8572&#45;9d20e65c2aab</title>
<polygon fill="#ffe4c4" stroke="#ffe4c4" points="827.8906,-136.4019 732.2612,-136.4019 732.2612,-95.1981 827.8906,-95.1981 827.8906,-136.4019"/>
<text text-anchor="middle" x="780.0759" y="-120" font-family="Times,serif" font-size="14.00" fill="#000000">@Singleton</text>
<text text-anchor="middle" x="780.0759" y="-103.2" font-family="Times,serif" font-size="14.00" fill="#000000">LocationRepo</text>
</g>
<!-- 0c192c39&#45;8de9&#45;486c&#45;92a7&#45;3e709aa36687&#45;&gt;545332cd&#45;0f5d&#45;4967&#45;8572&#45;9d20e65c2aab -->
<g id="edge6" class="edge">
<title>0c192c39&#45;8de9&#45;486c&#45;92a7&#45;3e709aa36687&#45;&gt;545332cd&#45;0f5d&#45;4967&#45;8572&#45;9d20e65c2aab</title>
<path fill="none" stroke="#000000" d="M557.0679,-115.8C605.994,-115.8 673.8481,-115.8 721.8267,-115.8"/>
<polygon fill="#000000" stroke="#000000" points="722.0517,-119.3001 732.0517,-115.8 722.0516,-112.3001 722.0517,-119.3001"/>
</g>
<!-- c9c64ae3&#45;dd54&#45;4e65&#45;81ef&#45;463d3b4acc3d -->
<g id="node7" class="node">
<title>c9c64ae3&#45;dd54&#45;4e65&#45;81ef&#45;463d3b4acc3d</title>
<polygon fill="#7fffd4" stroke="#7fffd4" points="827.0109,-196.4019 733.1409,-196.4019 733.1409,-155.1981 827.0109,-155.1981 827.0109,-196.4019"/>
<text text-anchor="middle" x="780.0759" y="-180" font-family="Times,serif" font-size="14.00" fill="#000000">@PerActivity</text>
<text text-anchor="middle" x="780.0759" y="-163.2" font-family="Times,serif" font-size="14.00" fill="#000000">Navigator</text>
</g>
<!-- 0c192c39&#45;8de9&#45;486c&#45;92a7&#45;3e709aa36687&#45;&gt;c9c64ae3&#45;dd54&#45;4e65&#45;81ef&#45;463d3b4acc3d -->
<g id="edge5" class="edge">
<title>0c192c39&#45;8de9&#45;486c&#45;92a7&#45;3e709aa36687&#45;&gt;c9c64ae3&#45;dd54&#45;4e65&#45;81ef&#45;463d3b4acc3d</title>
<path fill="none" stroke="#000000" d="M557.1281,-129.6038C580.5416,-134.7696 607.4445,-140.6349 631.924,-145.8 662.1111,-152.1694 695.8165,-159.0155 723.4427,-164.5573"/>
<polygon fill="#000000" stroke="#000000" points="722.8353,-168.005 733.3279,-166.5366 724.2097,-161.1413 722.8353,-168.005"/>
</g>
<!-- cf4b8d0b&#45;4023&#45;4198&#45;8084&#45;0c07f630bfa2 -->
<g id="node8" class="node">
<title>cf4b8d0b&#45;4023&#45;4198&#45;8084&#45;0c07f630bfa2</title>
<polygon fill="#ff3030" stroke="#ff3030" points="1213.2353,-133.8 1003.2253,-133.8 1003.2253,-97.8 1213.2353,-97.8 1213.2353,-133.8"/>
<text text-anchor="middle" x="1108.2303" y="-111.6" font-family="Times,serif" font-size="14.00" fill="#000000">org.greenrobot.eventbus.EventBus</text>
</g>
<!-- 545332cd&#45;0f5d&#45;4967&#45;8572&#45;9d20e65c2aab&#45;&gt;cf4b8d0b&#45;4023&#45;4198&#45;8084&#45;0c07f630bfa2 -->
<g id="edge7" class="edge">
<title>545332cd&#45;0f5d&#45;4967&#45;8572&#45;9d20e65c2aab&#45;&gt;cf4b8d0b&#45;4023&#45;4198&#45;8084&#45;0c07f630bfa2</title>
<path fill="none" stroke="#000000" stroke-dasharray="5,2" d="M827.7924,-115.8C870.9728,-115.8 936.3055,-115.8 993.0507,-115.8"/>
<polygon fill="#000000" stroke="#000000" points="993.1724,-119.3001 1003.1724,-115.8 993.1723,-112.3001 993.1724,-119.3001"/>
<text text-anchor="middle" x="957.4743" y="-103.2" font-family="Times,serif" font-size="14.00" fill="#000000">Missing binding</text>
</g>
<!-- c9c64ae3&#45;dd54&#45;4e65&#45;81ef&#45;463d3b4acc3d&#45;&gt;4579e7af&#45;584e&#45;49eb&#45;81be&#45;63c68ac5cfea -->
<g id="edge1" class="edge">
<title>c9c64ae3&#45;dd54&#45;4e65&#45;81ef&#45;463d3b4acc3d&#45;&gt;4579e7af&#45;584e&#45;49eb&#45;81be&#45;63c68ac5cfea</title>
<path fill="none" stroke="#000000" d="M827.0924,-175.8C880.7289,-175.8 969.1893,-175.8 1032.5621,-175.8"/>
<polygon fill="#000000" stroke="#000000" points="1032.9024,-179.3001 1042.9024,-175.8 1032.9024,-172.3001 1032.9024,-179.3001"/>
</g>
</g>
</svg>
