<svg width="1256px" height="169px"
 viewBox="0.00 0.00 1255.51 168.60" xmlns="http://www.w3.org/2000/svg" xmlns:xlink="http://www.w3.org/1999/xlink">
<g id="graph0" class="graph" transform="scale(1.0 1.0) rotate(0) translate(14.4 154.2)">
<title>org.owntracks.android.injection.modules.AndroidBindingModule → org.owntracks.android.injection.modules.AndroidBindingModule_BindPreferencesActivity.PreferencesActivitySubcomponent → org.owntracks.android.ui.preferences.PreferencesActivityModule_BindReportingPreferencesFragment.ReportingFragmentSubcomponent</title>
<polygon fill="#ffffff" stroke="transparent" points="-14.4,14.4 -14.4,-154.2 1241.113,-154.2 1241.113,14.4 -14.4,14.4"/>
<text text-anchor="middle" x="613.3565" y="-8.2" font-family="Times,serif" font-size="14.00" fill="#000000">AndroidBindingModule → AndroidBindingModule_BindPreferencesActivity.PreferencesActivitySubcomponent → PreferencesActivityModule_BindReportingPreferencesFragment.ReportingFragmentSubcomponent</text>
<g id="clust1" class="cluster">
<title>cluster_Entry Points</title>
<polygon fill="none" stroke="#000000" points="224.7913,-35.8 224.7913,-112.8 410.3601,-112.8 410.3601,-35.8 224.7913,-35.8"/>
<text text-anchor="middle" x="267.5974" y="-96.2" font-family="Times,serif" font-size="14.00" fill="#000000">Entry Points</text>
</g>
<g id="clust4" class="cluster">
<title>cluster_AndroidBindingModule → AndroidBindingModule_BindPreferencesActivity.PreferencesActivitySubcomponent</title>
<g id="a_clust4"><a xlink:href="full_org.owntracks.android.injection.modules.AndroidBindingModule_BindPreferencesActivity.PreferencesActivitySubcomponent.svg" xlink:title="Inherited from AndroidBindingModule_BindPreferencesActivity.PreferencesActivitySubcomponent\n@PerActivity">
<polygon fill="none" stroke="#7fffd4" stroke-dasharray="5,2" points="430.3601,-32.8 430.3601,-131.8 1009.9217,-131.8 1009.9217,-32.8 430.3601,-32.8"/>
<text text-anchor="middle" x="720.1409" y="-115.2" font-family="Times,serif" font-size="14.00" fill="#000000">Inherited from AndroidBindingModule_BindPreferencesActivity.PreferencesActivitySubcomponent</text>
<text text-anchor="middle" x="720.1409" y="-98.4" font-family="Times,serif" font-size="14.00" fill="#000000">@PerActivity</text>
</a>
</g>
</g>
<!-- 99fc3cc0&#45;4817&#45;4e27&#45;b5dd&#45;07dacaa12d34 -->
<g id="node1" class="node">
<title>99fc3cc0&#45;4817&#45;4e27&#45;b5dd&#45;07dacaa12d34</title>
<polygon fill="#40e0d0" stroke="#40e0d0" stroke-width="2" points="402.145,-79.8 233.0064,-79.8 233.0064,-75.8 229.0064,-75.8 229.0064,-71.8 233.0064,-71.8 233.0064,-51.8 229.0064,-51.8 229.0064,-47.8 233.0064,-47.8 233.0064,-43.8 402.145,-43.8 402.145,-79.8"/>
<polyline fill="none" stroke="#40e0d0" stroke-width="2" points="233.0064,-75.8 237.0064,-75.8 237.0064,-71.8 233.0064,-71.8 "/>
<polyline fill="none" stroke="#40e0d0" stroke-width="2" points="233.0064,-51.8 237.0064,-51.8 237.0064,-47.8 233.0064,-47.8 "/>
<text text-anchor="middle" x="317.5757" y="-57.6" font-family="Times,serif" font-size="14.00" fill="#000000">inject (ReportingFragment)</text>
</g>
<!-- cbb4327a&#45;8578&#45;4107&#45;bf37&#45;e6e71d28d70a -->
<g id="node2" class="node">
<title>cbb4327a&#45;8578&#45;4107&#45;bf37&#45;e6e71d28d70a</title>
<polygon fill="#76ee00" stroke="#76ee00" points="760.7037,-82.4019 678.5781,-82.4019 678.5781,-41.1981 760.7037,-41.1981 760.7037,-82.4019"/>
<text text-anchor="middle" x="719.6409" y="-66" font-family="Times,serif" font-size="14.00" fill="#000000">@Singleton</text>
<text text-anchor="middle" x="719.6409" y="-49.2" font-family="Times,serif" font-size="14.00" fill="#000000">Preferences</text>
</g>
<!-- 99fc3cc0&#45;4817&#45;4e27&#45;b5dd&#45;07dacaa12d34&#45;&gt;cbb4327a&#45;8578&#45;4107&#45;bf37&#45;e6e71d28d70a -->
<g id="edge1" class="edge">
<title>99fc3cc0&#45;4817&#45;4e27&#45;b5dd&#45;07dacaa12d34&#45;&gt;cbb4327a&#45;8578&#45;4107&#45;bf37&#45;e6e71d28d70a</title>
<path fill="none" stroke="#000000" d="M402.3521,-61.8C482.722,-61.8 600.8622,-61.8 667.9972,-61.8"/>
<polygon fill="#000000" stroke="#000000" points="668.3205,-65.3001 678.3205,-61.8 668.3204,-58.3001 668.3205,-65.3001"/>
</g>
</g>
</svg>
