<svg width="2253px" height="396px"
 viewBox="0.00 0.00 2253.04 395.60" xmlns="http://www.w3.org/2000/svg" xmlns:xlink="http://www.w3.org/1999/xlink">
<g id="graph0" class="graph" transform="scale(1.0 1.0) rotate(0) translate(14.4 381.2)">
<title>org.owntracks.android.injection.modules.AndroidBindingModule_BindPreferencesActivity</title>
<polygon fill="#ffffff" stroke="transparent" points="-14.4,14.4 -14.4,-381.2 2238.6402,-381.2 2238.6402,14.4 -14.4,14.4"/>
<text text-anchor="middle" x="148.3591" y="-8.2" font-family="Times,serif" font-size="14.00" fill="#000000">AndroidBindingModule_BindPreferencesActivity</text>
<g id="clust2" class="cluster">
<title>cluster_Dependency Graph</title>
<polygon fill="none" stroke="#000000" points="8,-32.8 8,-358.8 1603.2084,-358.8 1603.2084,-32.8 8,-32.8"/>
<text text-anchor="middle" x="70.2234" y="-342.2" font-family="Times,serif" font-size="14.00" fill="#000000">Dependency Graph</text>
</g>
<g id="clust3" class="cluster">
<title>cluster_Map&lt;Class&lt;?&gt;, AndroidInjector.Factory&lt;?&gt;&gt;</title>
<path fill="none" stroke="#000000" d="M171.0404,-248.8C171.0404,-248.8 1207.7026,-248.8 1207.7026,-248.8 1213.7026,-248.8 1219.7026,-254.8 1219.7026,-260.8 1219.7026,-260.8 1219.7026,-313.8 1219.7026,-313.8 1219.7026,-319.8 1213.7026,-325.8 1207.7026,-325.8 1207.7026,-325.8 171.0404,-325.8 171.0404,-325.8 165.0404,-325.8 159.0404,-319.8 159.0404,-313.8 159.0404,-313.8 159.0404,-260.8 159.0404,-260.8 159.0404,-254.8 165.0404,-248.8 171.0404,-248.8"/>
<text text-anchor="middle" x="689.3715" y="-309.2" font-family="Times,serif" font-size="14.00" fill="#000000">Map&lt;Class&lt;?&gt;, AndroidInjector.Factory&lt;?&gt;&gt;</text>
</g>
<g id="clust4" class="cluster">
<title>cluster_Subcomponents</title>
<polygon fill="none" stroke="#000000" points="1704.8634,-245.8 1704.8634,-328.8 2216.2402,-328.8 2216.2402,-245.8 1704.8634,-245.8"/>
<text text-anchor="middle" x="1757.5822" y="-312.2" font-family="Times,serif" font-size="14.00" fill="#000000">Subcomponents</text>
</g>
<!-- 82fb7cc5&#45;336f&#45;489f&#45;baac&#45;2c2d5b81a13d -->
<g id="node1" class="node">
<title>82fb7cc5&#45;336f&#45;489f&#45;baac&#45;2c2d5b81a13d</title>
<polygon fill="#40e0d0" stroke="#40e0d0" points="1211.894,-292.8 744.1288,-292.8 744.1288,-256.8 1211.894,-256.8 1211.894,-292.8"/>
<text text-anchor="middle" x="978.0114" y="-270.6" font-family="Times,serif" font-size="14.00" fill="#000000">AndroidBindingModule_BindPreferencesActivity.bindAndroidInjectorFactory()</text>
</g>
<!-- bec2acf2&#45;ac49&#45;4c92&#45;bb78&#45;76508dc0a191 -->
<g id="node2" class="node">
<title>bec2acf2&#45;ac49&#45;4c92&#45;bb78&#45;76508dc0a191</title>
<polygon fill="#40e0d0" stroke="#40e0d0" points="1595.4195,-303.4014 1337.5757,-303.4014 1337.5757,-246.1986 1595.4195,-246.1986 1595.4195,-303.4014"/>
<text text-anchor="middle" x="1466.4976" y="-287" font-family="Times,serif" font-size="14.00" fill="#000000">PreferencesActivitySubcomponent.Factory</text>
<text text-anchor="middle" x="1466.4976" y="-254.2" font-family="Times,serif" font-size="14.00" fill="#000000">Subcomponent Creator</text>
</g>
<!-- 82fb7cc5&#45;336f&#45;489f&#45;baac&#45;2c2d5b81a13d&#45;&gt;bec2acf2&#45;ac49&#45;4c92&#45;bb78&#45;76508dc0a191 -->
<g id="edge2" class="edge">
<title>82fb7cc5&#45;336f&#45;489f&#45;baac&#45;2c2d5b81a13d&#45;&gt;bec2acf2&#45;ac49&#45;4c92&#45;bb78&#45;76508dc0a191</title>
<path fill="none" stroke="#000000" stroke-dasharray="1,5" d="M1211.8817,-274.8C1251.4205,-274.8 1291.3223,-274.8 1327.4327,-274.8"/>
<polygon fill="#000000" stroke="#000000" points="1327.5137,-278.3001 1337.5137,-274.8 1327.5137,-271.3001 1327.5137,-278.3001"/>
<text text-anchor="middle" x="1274.7447" y="-279" font-family="Times,serif" font-size="14.00" fill="#000000">delegates</text>
</g>
<!-- 659deecd&#45;8bab&#45;4cf8&#45;bbbe&#45;e967b1df781c -->
<g id="node8" class="node">
<title>659deecd&#45;8bab&#45;4cf8&#45;bbbe&#45;e967b1df781c</title>
<g id="a_node8"><a xlink:href="full_org.owntracks.android.injection.modules.AndroidBindingModule_BindPreferencesActivity.PreferencesActivitySubcomponent.svg" xlink:title="@PerActivity\nAndroidBindingModule_BindPreferencesActivity.PreferencesActivitySubcomponent">
<polygon fill="#7fffd4" stroke="#7fffd4" points="2208.4287,-295.4019 1712.6749,-295.4019 1712.6749,-254.1981 2208.4287,-254.1981 2208.4287,-295.4019"/>
<text text-anchor="middle" x="1960.5518" y="-279" font-family="Times,serif" font-size="14.00" fill="#000000">@PerActivity</text>
<text text-anchor="middle" x="1960.5518" y="-262.2" font-family="Times,serif" font-size="14.00" fill="#000000">AndroidBindingModule_BindPreferencesActivity.PreferencesActivitySubcomponent</text>
</a>
</g>
</g>
<!-- bec2acf2&#45;ac49&#45;4c92&#45;bb78&#45;76508dc0a191&#45;&gt;659deecd&#45;8bab&#45;4cf8&#45;bbbe&#45;e967b1df781c -->
<g id="edge3" class="edge">
<title>bec2acf2&#45;ac49&#45;4c92&#45;bb78&#45;76508dc0a191&#45;&gt;659deecd&#45;8bab&#45;4cf8&#45;bbbe&#45;e967b1df781c:w</title>
<path fill="none" stroke="#000000" stroke-dasharray="5,2" d="M1595.475,-274.8C1629.8196,-274.8 1667.1367,-274.8 1702.2295,-274.8"/>
<polygon fill="#000000" stroke="#000000" points="1702.5518,-278.3001 1712.5518,-274.8 1702.5518,-271.3001 1702.5518,-278.3001"/>
<text text-anchor="middle" x="1654.0359" y="-279" font-family="Times,serif" font-size="14.00" fill="#000000">subcomponent</text>
</g>
<!-- 391cf1a9&#45;476e&#45;49c3&#45;807e&#45;5c71052bd272 -->
<g id="node3" class="node">
<title>391cf1a9&#45;476e&#45;49c3&#45;807e&#45;5c71052bd272</title>
<polygon fill="#ff3030" stroke="#ff3030" points="409.6651,-238.8 199.6551,-238.8 199.6551,-202.8 409.6651,-202.8 409.6651,-238.8"/>
<text text-anchor="middle" x="304.6601" y="-216.6" font-family="Times,serif" font-size="14.00" fill="#000000">org.greenrobot.eventbus.EventBus</text>
</g>
<!-- 0142642b&#45;b80f&#45;4ad9&#45;8c4a&#45;b87a47656d00 -->
<g id="node4" class="node">
<title>0142642b&#45;b80f&#45;4ad9&#45;8c4a&#45;b87a47656d00</title>
<polygon fill="#ff3030" stroke="#ff3030" points="593.4804,-184.8 15.8398,-184.8 15.8398,-148.8 593.4804,-148.8 593.4804,-184.8"/>
<text text-anchor="middle" x="304.6601" y="-162.6" font-family="Times,serif" font-size="14.00" fill="#000000">java.util.Map&lt;java.lang.String,javax.inject.Provider&lt;dagger.android.AndroidInjector.Factory&lt;?&gt;&gt;&gt;</text>
</g>
<!-- 3655be10&#45;8cc1&#45;4d04&#45;8200&#45;d03423ff3837 -->
<g id="node5" class="node">
<title>3655be10&#45;8cc1&#45;4d04&#45;8200&#45;d03423ff3837</title>
<polygon fill="#ff3030" stroke="#ff3030" points="539.1721,-130.8 70.1481,-130.8 70.1481,-94.8 539.1721,-94.8 539.1721,-130.8"/>
<text text-anchor="middle" x="304.6601" y="-108.6" font-family="Times,serif" font-size="14.00" fill="#000000">@org.owntracks.android.injection.qualifier.AppContext android.content.Context</text>
</g>
<!-- 2992735f&#45;23df&#45;4451&#45;9e60&#45;7d8d9e99fe29 -->
<g id="node6" class="node">
<title>2992735f&#45;23df&#45;4451&#45;9e60&#45;7d8d9e99fe29</title>
<polygon fill="#ff3030" stroke="#ff3030" points="481.4438,-76.8 127.8764,-76.8 127.8764,-40.8 481.4438,-40.8 481.4438,-76.8"/>
<text text-anchor="middle" x="304.6601" y="-54.6" font-family="Times,serif" font-size="14.00" fill="#000000">org.owntracks.android.support.preferences.PreferencesStore</text>
</g>
<!-- 04a1ca6e&#45;fce3&#45;4493&#45;82e8&#45;67d7c968c71f -->
<g id="node7" class="node">
<title>04a1ca6e&#45;fce3&#45;4493&#45;82e8&#45;67d7c968c71f</title>
<polygon fill="#40e0d0" stroke="#40e0d0" points="442.3996,-292.8 178.9206,-292.8 178.9206,-296.8 166.9206,-296.8 166.9206,-256.8 442.3996,-256.8 442.3996,-292.8"/>
<polyline fill="none" stroke="#40e0d0" points="166.9206,-292.8 178.9206,-292.8 "/>
<text text-anchor="middle" x="304.6601" y="-270.6" font-family="Times,serif" font-size="14.00" fill="#000000">Map&lt;Class&lt;?&gt;, AndroidInjector.Factory&lt;?&gt;&gt;</text>
</g>
<!-- 04a1ca6e&#45;fce3&#45;4493&#45;82e8&#45;67d7c968c71f&#45;&gt;82fb7cc5&#45;336f&#45;489f&#45;baac&#45;2c2d5b81a13d -->
<g id="edge1" class="edge">
<title>04a1ca6e&#45;fce3&#45;4493&#45;82e8&#45;67d7c968c71f&#45;&gt;82fb7cc5&#45;336f&#45;489f&#45;baac&#45;2c2d5b81a13d</title>
<path fill="none" stroke="#000000" d="M442.3313,-274.8C500.4944,-274.8 568.9574,-274.8 630.8202,-274.8 630.8202,-274.8 630.8202,-274.8 706.8202,-274.8 715.8099,-274.8 724.9672,-274.8 734.2171,-274.8"/>
<polygon fill="#000000" stroke="#000000" points="734.2871,-278.3001 744.287,-274.8 734.287,-271.3001 734.2871,-278.3001"/>
</g>
</g>
</svg>
