<svg width="1363px" height="350px"
 viewBox="0.00 0.00 1362.52 349.60" xmlns="http://www.w3.org/2000/svg" xmlns:xlink="http://www.w3.org/1999/xlink">
<g id="graph0" class="graph" transform="scale(1.0 1.0) rotate(0) translate(14.4 335.2)">
<title>org.owntracks.android.injection.modules.AndroidBindingModule → org.owntracks.android.injection.modules.AndroidBindingModule_BindWelcomeActivity.WelcomeActivitySubcomponent → org.owntracks.android.ui.welcome.WelcomeActivityModule_BindPlayFragment.PlayFragmentSubcomponent</title>
<polygon fill="#ffffff" stroke="transparent" points="-14.4,14.4 -14.4,-335.2 1348.1247,-335.2 1348.1247,14.4 -14.4,14.4"/>
<text text-anchor="middle" x="532.1467" y="-8.2" font-family="Times,serif" font-size="14.00" fill="#000000">AndroidBindingModule → AndroidBindingModule_BindWelcomeActivity.WelcomeActivitySubcomponent → WelcomeActivityModule_BindPlayFragment.PlayFragmentSubcomponent</text>
<g id="clust4" class="cluster">
<title>cluster_AndroidBindingModule → AndroidBindingModule_BindWelcomeActivity.WelcomeActivitySubcomponent</title>
<g id="a_clust4"><a xlink:href="full_org.owntracks.android.injection.modules.AndroidBindingModule_BindWelcomeActivity.WelcomeActivitySubcomponent.svg" xlink:title="Inherited from AndroidBindingModule_BindWelcomeActivity.WelcomeActivitySubcomponent\n@PerActivity">
<polygon fill="none" stroke="#7fffd4" stroke-dasharray="5,2" points="777.7769,-158.8 777.7769,-312.8 1333.7247,-312.8 1333.7247,-158.8 777.7769,-158.8"/>
<text text-anchor="middle" x="1055.7508" y="-296.2" font-family="Times,serif" font-size="14.00" fill="#000000">Inherited from AndroidBindingModule_BindWelcomeActivity.WelcomeActivitySubcomponent</text>
<text text-anchor="middle" x="1055.7508" y="-279.4" font-family="Times,serif" font-size="14.00" fill="#000000">@PerActivity</text>
</a>
</g>
</g>
<g id="clust1" class="cluster">
<title>cluster_Entry Points</title>
<polygon fill="none" stroke="#000000" points="8,-180.8 8,-257.8 162.4636,-257.8 162.4636,-180.8 8,-180.8"/>
<text text-anchor="middle" x="50.8061" y="-241.2" font-family="Times,serif" font-size="14.00" fill="#000000">Entry Points</text>
</g>
<g id="clust5" class="cluster">
<title>cluster_AndroidBindingModule → AndroidBindingModule_BindWelcomeActivity.WelcomeActivitySubcomponent → WelcomeActivityModule_BindPlayFragment.PlayFragmentSubcomponent</title>
<g id="a_clust5"><a xlink:href="full_org.owntracks.android.ui.welcome.WelcomeActivityModule_BindPlayFragment.PlayFragmentSubcomponent.svg" xlink:title="Inherited from WelcomeActivityModule_BindPlayFragment.PlayFragmentSubcomponent\n@PerFragment">
<polygon fill="none" stroke="#ff7f50" stroke-dasharray="5,2" points="234.5478,-35.8 234.5478,-188.8 756.7769,-188.8 756.7769,-35.8 234.5478,-35.8"/>
<text text-anchor="middle" x="495.6624" y="-172.2" font-family="Times,serif" font-size="14.00" fill="#000000">Inherited from WelcomeActivityModule_BindPlayFragment.PlayFragmentSubcomponent</text>
<text text-anchor="middle" x="495.6624" y="-155.4" font-family="Times,serif" font-size="14.00" fill="#000000">@PerFragment</text>
</a>
</g>
</g>
<g id="clust2" class="cluster">
<title>cluster_Dependency Graph</title>
<polygon fill="none" stroke="#000000" points="23.6298,-32.8 23.6298,-115.8 147.8338,-115.8 147.8338,-32.8 23.6298,-32.8"/>
<text text-anchor="middle" x="85.8532" y="-99.2" font-family="Times,serif" font-size="14.00" fill="#000000">Dependency Graph</text>
</g>
<!-- 6bbffbc9&#45;9b46&#45;4e9d&#45;b238&#45;fc40591a8114 -->
<g id="node1" class="node">
<title>6bbffbc9&#45;9b46&#45;4e9d&#45;b238&#45;fc40591a8114</title>
<polygon fill="#40e0d0" stroke="#40e0d0" stroke-width="2" points="154.6962,-224.8 15.7674,-224.8 15.7674,-220.8 11.7674,-220.8 11.7674,-216.8 15.7674,-216.8 15.7674,-196.8 11.7674,-196.8 11.7674,-192.8 15.7674,-192.8 15.7674,-188.8 154.6962,-188.8 154.6962,-224.8"/>
<polyline fill="none" stroke="#40e0d0" stroke-width="2" points="15.7674,-220.8 19.7674,-220.8 19.7674,-216.8 15.7674,-216.8 "/>
<polyline fill="none" stroke="#40e0d0" stroke-width="2" points="15.7674,-196.8 19.7674,-196.8 19.7674,-192.8 15.7674,-192.8 "/>
<text text-anchor="middle" x="85.2318" y="-202.6" font-family="Times,serif" font-size="14.00" fill="#000000">inject (PlayFragment)</text>
</g>
<!-- 9ed6416f&#45;1a41&#45;4610&#45;8277&#45;466f7b8fe210 -->
<g id="node2" class="node">
<title>9ed6416f&#45;1a41&#45;4610&#45;8277&#45;466f7b8fe210</title>
<polygon fill="#ff7f50" stroke="#ff7f50" points="576.0725,-139.4019 414.2523,-139.4019 414.2523,-98.1981 576.0725,-98.1981 576.0725,-139.4019"/>
<text text-anchor="middle" x="495.1624" y="-123" font-family="Times,serif" font-size="14.00" fill="#000000">@PerFragment</text>
<text text-anchor="middle" x="495.1624" y="-106.2" font-family="Times,serif" font-size="14.00" fill="#000000">PlayFragmentViewModel</text>
</g>
<!-- 6bbffbc9&#45;9b46&#45;4e9d&#45;b238&#45;fc40591a8114&#45;&gt;9ed6416f&#45;1a41&#45;4610&#45;8277&#45;466f7b8fe210 -->
<g id="edge2" class="edge">
<title>6bbffbc9&#45;9b46&#45;4e9d&#45;b238&#45;fc40591a8114&#45;&gt;9ed6416f&#45;1a41&#45;4610&#45;8277&#45;466f7b8fe210</title>
<path fill="none" stroke="#000000" d="M154.7709,-191.872C223.5246,-177.1126 329.0765,-154.4537 404.4017,-138.2836"/>
<polygon fill="#000000" stroke="#000000" points="405.3161,-141.6672 414.3587,-136.1462 403.8468,-134.8231 405.3161,-141.6672"/>
</g>
<!-- 9a53a134&#45;3d39&#45;4bfe&#45;a7af&#45;85c5deea1bcf -->
<g id="node5" class="node">
<title>9a53a134&#45;3d39&#45;4bfe&#45;a7af&#45;85c5deea1bcf</title>
<polygon fill="#7fffd4" stroke="#7fffd4" points="1102.1859,-208.4019 1008.3158,-208.4019 1008.3158,-167.1981 1102.1859,-167.1981 1102.1859,-208.4019"/>
<text text-anchor="middle" x="1055.2508" y="-192" font-family="Times,serif" font-size="14.00" fill="#000000">@PerActivity</text>
<text text-anchor="middle" x="1055.2508" y="-175.2" font-family="Times,serif" font-size="14.00" fill="#000000">Navigator</text>
</g>
<!-- 6bbffbc9&#45;9b46&#45;4e9d&#45;b238&#45;fc40591a8114&#45;&gt;9a53a134&#45;3d39&#45;4bfe&#45;a7af&#45;85c5deea1bcf -->
<g id="edge3" class="edge">
<title>6bbffbc9&#45;9b46&#45;4e9d&#45;b238&#45;fc40591a8114&#45;&gt;9a53a134&#45;3d39&#45;4bfe&#45;a7af&#45;85c5deea1bcf</title>
<path fill="none" stroke="#000000" d="M154.6039,-205.4412C337.5555,-201.8577 830.5823,-192.2006 998.4097,-188.9134"/>
<polygon fill="#000000" stroke="#000000" points="998.5882,-192.4106 1008.5177,-188.7154 998.451,-185.412 998.5882,-192.4106"/>
</g>
<!-- 9b18c21e&#45;fc70&#45;4bf2&#45;8bfe&#45;757ab18cb108 -->
<g id="node6" class="node">
<title>9b18c21e&#45;fc70&#45;4bf2&#45;8bfe&#45;757ab18cb108</title>
<polygon fill="#40e0d0" stroke="#40e0d0" points="1168.6987,-262.8 941.803,-262.8 941.803,-226.8 1168.6987,-226.8 1168.6987,-262.8"/>
<text text-anchor="middle" x="1055.2508" y="-240.6" font-family="Times,serif" font-size="14.00" fill="#000000">DispatchingAndroidInjector&lt;Object&gt;</text>
</g>
<!-- 6bbffbc9&#45;9b46&#45;4e9d&#45;b238&#45;fc40591a8114&#45;&gt;9b18c21e&#45;fc70&#45;4bf2&#45;8bfe&#45;757ab18cb108 -->
<g id="edge1" class="edge">
<title>6bbffbc9&#45;9b46&#45;4e9d&#45;b238&#45;fc40591a8114&#45;&gt;9b18c21e&#45;fc70&#45;4bf2&#45;8bfe&#45;757ab18cb108</title>
<path fill="none" stroke="#000000" d="M154.6877,-216.1615C160.6927,-216.7878 166.6808,-217.348 172.4636,-217.8 442.6248,-238.9173 760.4956,-243.7457 931.4494,-244.7111"/>
<polygon fill="#000000" stroke="#000000" points="931.4708,-248.2112 941.4893,-244.7643 931.508,-241.2113 931.4708,-248.2112"/>
</g>
<!-- 9ed6416f&#45;1a41&#45;4610&#45;8277&#45;466f7b8fe210&#45;&gt;9a53a134&#45;3d39&#45;4bfe&#45;a7af&#45;85c5deea1bcf -->
<g id="edge4" class="edge">
<title>9ed6416f&#45;1a41&#45;4610&#45;8277&#45;466f7b8fe210&#45;&gt;9a53a134&#45;3d39&#45;4bfe&#45;a7af&#45;85c5deea1bcf</title>
<path fill="none" stroke="#000000" d="M576.0059,-128.7595C690.6998,-142.8892 897.8204,-168.4054 997.9626,-180.7424"/>
<polygon fill="#000000" stroke="#000000" points="997.8308,-184.2525 1008.1838,-182.0016 998.6868,-177.305 997.8308,-184.2525"/>
</g>
<!-- 965fbdd6&#45;8657&#45;4d32&#45;ae6a&#45;16ee3798958a -->
<g id="node3" class="node">
<title>965fbdd6&#45;8657&#45;4d32&#45;ae6a&#45;16ee3798958a</title>
<polygon fill="#ff7f50" stroke="#ff7f50" points="135.936,-82.4019 34.5276,-82.4019 34.5276,-41.1981 135.936,-41.1981 135.936,-82.4019"/>
<text text-anchor="middle" x="85.2318" y="-66" font-family="Times,serif" font-size="14.00" fill="#000000">@PerFragment</text>
<text text-anchor="middle" x="85.2318" y="-49.2" font-family="Times,serif" font-size="14.00" fill="#000000">Fragment</text>
</g>
<!-- d83a71c1&#45;008d&#45;490d&#45;8a5e&#45;930c0d3c5d3e -->
<g id="node4" class="node">
<title>d83a71c1&#45;008d&#45;490d&#45;8a5e&#45;930c0d3c5d3e</title>
<polygon fill="#40e0d0" stroke="#40e0d0" points="590.8917,-79.8 438.6078,-79.8 399.4331,-43.8 551.717,-43.8 590.8917,-79.8"/>
<text text-anchor="middle" x="495.1624" y="-57.6" font-family="Times,serif" font-size="14.00" fill="#000000">PlayFragment</text>
</g>
<!-- 965fbdd6&#45;8657&#45;4d32&#45;ae6a&#45;16ee3798958a&#45;&gt;d83a71c1&#45;008d&#45;490d&#45;8a5e&#45;930c0d3c5d3e -->
<g id="edge5" class="edge">
<title>965fbdd6&#45;8657&#45;4d32&#45;ae6a&#45;16ee3798958a&#45;&gt;d83a71c1&#45;008d&#45;490d&#45;8a5e&#45;930c0d3c5d3e</title>
<path fill="none" stroke="#000000" stroke-dasharray="1,5" d="M135.9085,-61.8C203.9741,-61.8 325.9212,-61.8 408.6571,-61.8"/>
<polygon fill="#000000" stroke="#000000" points="408.7982,-65.3001 418.7982,-61.8 408.7981,-58.3001 408.7982,-65.3001"/>
<text text-anchor="middle" x="198.5057" y="-66" font-family="Times,serif" font-size="14.00" fill="#000000">delegates</text>
</g>
</g>
</svg>
