<svg width="2308px" height="342px"
 viewBox="0.00 0.00 2308.00 341.60" xmlns="http://www.w3.org/2000/svg" xmlns:xlink="http://www.w3.org/1999/xlink">
<g id="graph0" class="graph" transform="scale(1.0 1.0) rotate(0) translate(14.4 327.2)">
<title>org.owntracks.android.ui.preferences.PreferencesActivityModule_BindReportingPreferencesFragment</title>
<polygon fill="#ffffff" stroke="transparent" points="-14.4,14.4 -14.4,-327.2 2293.6,-327.2 2293.6,14.4 -14.4,14.4"/>
<text text-anchor="middle" x="189.9356" y="-8.2" font-family="Times,serif" font-size="14.00" fill="#000000">PreferencesActivityModule_BindReportingPreferencesFragment</text>
<g id="clust2" class="cluster">
<title>cluster_Dependency Graph</title>
<polygon fill="none" stroke="#000000" points="8,-32.8 8,-304.8 1576.5342,-304.8 1576.5342,-32.8 8,-32.8"/>
<text text-anchor="middle" x="70.2234" y="-288.2" font-family="Times,serif" font-size="14.00" fill="#000000">Dependency Graph</text>
</g>
<g id="clust3" class="cluster">
<title>cluster_Map&lt;Class&lt;?&gt;, AndroidInjector.Factory&lt;?&gt;&gt;</title>
<path fill="none" stroke="#000000" d="M116.8863,-194.8C116.8863,-194.8 1182.5474,-194.8 1182.5474,-194.8 1188.5474,-194.8 1194.5474,-200.8 1194.5474,-206.8 1194.5474,-206.8 1194.5474,-259.8 1194.5474,-259.8 1194.5474,-265.8 1188.5474,-271.8 1182.5474,-271.8 1182.5474,-271.8 116.8863,-271.8 116.8863,-271.8 110.8863,-271.8 104.8863,-265.8 104.8863,-259.8 104.8863,-259.8 104.8863,-206.8 104.8863,-206.8 104.8863,-200.8 110.8863,-194.8 116.8863,-194.8"/>
<text text-anchor="middle" x="649.7168" y="-255.2" font-family="Times,serif" font-size="14.00" fill="#000000">Map&lt;Class&lt;?&gt;, AndroidInjector.Factory&lt;?&gt;&gt;</text>
</g>
<g id="clust4" class="cluster">
<title>cluster_Subcomponents</title>
<polygon fill="none" stroke="#000000" points="1678.1892,-191.8 1678.1892,-274.8 2271.2,-274.8 2271.2,-191.8 1678.1892,-191.8"/>
<text text-anchor="middle" x="1730.908" y="-258.2" font-family="Times,serif" font-size="14.00" fill="#000000">Subcomponents</text>
</g>
<!-- 87527db3&#45;b886&#45;4cb5&#45;b50a&#45;62894b44f5b3 -->
<g id="node1" class="node">
<title>87527db3&#45;b886&#45;4cb5&#45;b50a&#45;62894b44f5b3</title>
<polygon fill="#40e0d0" stroke="#40e0d0" points="1186.3153,-238.8 636.2441,-238.8 636.2441,-202.8 1186.3153,-202.8 1186.3153,-238.8"/>
<text text-anchor="middle" x="911.2797" y="-216.6" font-family="Times,serif" font-size="14.00" fill="#000000">PreferencesActivityModule_BindReportingPreferencesFragment.bindAndroidInjectorFactory()</text>
</g>
<!-- 32b1cd66&#45;dca1&#45;4bfc&#45;8fea&#45;2c4ff525725a -->
<g id="node2" class="node">
<title>32b1cd66&#45;dca1&#45;4bfc&#45;8fea&#45;2c4ff525725a</title>
<polygon fill="#40e0d0" stroke="#40e0d0" points="1568.4855,-249.4014 1312.6803,-249.4014 1312.6803,-192.1986 1568.4855,-192.1986 1568.4855,-249.4014"/>
<text text-anchor="middle" x="1440.5829" y="-233" font-family="Times,serif" font-size="14.00" fill="#000000">ReportingFragmentSubcomponent.Factory</text>
<text text-anchor="middle" x="1440.5829" y="-200.2" font-family="Times,serif" font-size="14.00" fill="#000000">Subcomponent Creator</text>
</g>
<!-- 87527db3&#45;b886&#45;4cb5&#45;b50a&#45;62894b44f5b3&#45;&gt;32b1cd66&#45;dca1&#45;4bfc&#45;8fea&#45;2c4ff525725a -->
<g id="edge2" class="edge">
<title>87527db3&#45;b886&#45;4cb5&#45;b50a&#45;62894b44f5b3&#45;&gt;32b1cd66&#45;dca1&#45;4bfc&#45;8fea&#45;2c4ff525725a</title>
<path fill="none" stroke="#000000" stroke-dasharray="1,5" d="M1186.3961,-220.8C1226.6197,-220.8 1266.5205,-220.8 1302.3741,-220.8"/>
<polygon fill="#000000" stroke="#000000" points="1302.3762,-224.3001 1312.3762,-220.8 1302.3762,-217.3001 1302.3762,-224.3001"/>
<text text-anchor="middle" x="1249.5895" y="-225" font-family="Times,serif" font-size="14.00" fill="#000000">delegates</text>
</g>
<!-- d0ed3a0a&#45;4322&#45;4033&#45;ad9b&#45;172bb1962f0f -->
<g id="node7" class="node">
<title>d0ed3a0a&#45;4322&#45;4033&#45;ad9b&#45;172bb1962f0f</title>
<g id="a_node7"><a xlink:href="full_org.owntracks.android.ui.preferences.PreferencesActivityModule_BindReportingPreferencesFragment.ReportingFragmentSubcomponent.svg" xlink:title="@PerFragment\nPreferencesActivityModule_BindReportingPreferencesFragment.ReportingFragmentSubcomponent">
<polygon fill="#7fffd4" stroke="#7fffd4" points="2263.2054,-241.4019 1686.1838,-241.4019 1686.1838,-200.1981 2263.2054,-200.1981 2263.2054,-241.4019"/>
<text text-anchor="middle" x="1974.6946" y="-225" font-family="Times,serif" font-size="14.00" fill="#000000">@PerFragment</text>
<text text-anchor="middle" x="1974.6946" y="-208.2" font-family="Times,serif" font-size="14.00" fill="#000000">PreferencesActivityModule_BindReportingPreferencesFragment.ReportingFragmentSubcomponent</text>
</a>
</g>
</g>
<!-- 32b1cd66&#45;dca1&#45;4bfc&#45;8fea&#45;2c4ff525725a&#45;&gt;d0ed3a0a&#45;4322&#45;4033&#45;ad9b&#45;172bb1962f0f -->
<g id="edge3" class="edge">
<title>32b1cd66&#45;dca1&#45;4bfc&#45;8fea&#45;2c4ff525725a&#45;&gt;d0ed3a0a&#45;4322&#45;4033&#45;ad9b&#45;172bb1962f0f:w</title>
<path fill="none" stroke="#000000" stroke-dasharray="5,2" d="M1568.7496,-220.8C1603.0404,-220.8 1640.325,-220.8 1675.3828,-220.8"/>
<polygon fill="#000000" stroke="#000000" points="1675.6946,-224.3001 1685.6946,-220.8 1675.6946,-217.3001 1675.6946,-224.3001"/>
<text text-anchor="middle" x="1627.3617" y="-225" font-family="Times,serif" font-size="14.00" fill="#000000">subcomponent</text>
</g>
<!-- 6651187b&#45;817f&#45;4c11&#45;8eec&#45;cb49b6f3269f -->
<g id="node3" class="node">
<title>6651187b&#45;817f&#45;4c11&#45;8eec&#45;cb49b6f3269f</title>
<polygon fill="#ff3030" stroke="#ff3030" points="485.018,-184.8 15.994,-184.8 15.994,-148.8 485.018,-148.8 485.018,-184.8"/>
<text text-anchor="middle" x="250.506" y="-162.6" font-family="Times,serif" font-size="14.00" fill="#000000">@org.owntracks.android.injection.qualifier.AppContext android.content.Context</text>
</g>
<!-- 577bebbe&#45;af8d&#45;4043&#45;8ea5&#45;070a0f106a35 -->
<g id="node4" class="node">
<title>577bebbe&#45;af8d&#45;4043&#45;8ea5&#45;070a0f106a35</title>
<polygon fill="#ff3030" stroke="#ff3030" points="355.511,-130.8 145.501,-130.8 145.501,-94.8 355.511,-94.8 355.511,-130.8"/>
<text text-anchor="middle" x="250.506" y="-108.6" font-family="Times,serif" font-size="14.00" fill="#000000">org.greenrobot.eventbus.EventBus</text>
</g>
<!-- 2c3b1a79&#45;c5a6&#45;4efb&#45;885f&#45;71e146481533 -->
<g id="node5" class="node">
<title>2c3b1a79&#45;c5a6&#45;4efb&#45;885f&#45;71e146481533</title>
<polygon fill="#ff3030" stroke="#ff3030" points="427.2897,-76.8 73.7223,-76.8 73.7223,-40.8 427.2897,-40.8 427.2897,-76.8"/>
<text text-anchor="middle" x="250.506" y="-54.6" font-family="Times,serif" font-size="14.00" fill="#000000">org.owntracks.android.support.preferences.PreferencesStore</text>
</g>
<!-- 22d839d4&#45;177c&#45;406e&#45;a4e2&#45;9ad8fc736fe2 -->
<g id="node6" class="node">
<title>22d839d4&#45;177c&#45;406e&#45;a4e2&#45;9ad8fc736fe2</title>
<polygon fill="#40e0d0" stroke="#40e0d0" points="388.2455,-238.8 124.7665,-238.8 124.7665,-242.8 112.7665,-242.8 112.7665,-202.8 388.2455,-202.8 388.2455,-238.8"/>
<polyline fill="none" stroke="#40e0d0" points="112.7665,-238.8 124.7665,-238.8 "/>
<text text-anchor="middle" x="250.506" y="-216.6" font-family="Times,serif" font-size="14.00" fill="#000000">Map&lt;Class&lt;?&gt;, AndroidInjector.Factory&lt;?&gt;&gt;</text>
</g>
<!-- 22d839d4&#45;177c&#45;406e&#45;a4e2&#45;9ad8fc736fe2&#45;&gt;87527db3&#45;b886&#45;4cb5&#45;b50a&#45;62894b44f5b3 -->
<g id="edge1" class="edge">
<title>22d839d4&#45;177c&#45;406e&#45;a4e2&#45;9ad8fc736fe2&#45;&gt;87527db3&#45;b886&#45;4cb5&#45;b50a&#45;62894b44f5b3</title>
<path fill="none" stroke="#000000" d="M388.1844,-220.8C431.2031,-220.8 478.8305,-220.8 522.512,-220.8 522.512,-220.8 522.512,-220.8 598.512,-220.8 607.4842,-220.8 616.6012,-220.8 625.8069,-220.8"/>
<polygon fill="#000000" stroke="#000000" points="625.8283,-224.3001 635.8283,-220.8 625.8282,-217.3001 625.8283,-224.3001"/>
</g>
</g>
</svg>
