<svg width="2250px" height="558px"
 viewBox="0.00 0.00 2250.10 557.60" xmlns="http://www.w3.org/2000/svg" xmlns:xlink="http://www.w3.org/1999/xlink">
<g id="graph0" class="graph" transform="scale(1.0 1.0) rotate(0) translate(14.4 543.2)">
<title>org.owntracks.android.injection.modules.AndroidBindingModule_BindConnectionActivity</title>
<polygon fill="#ffffff" stroke="transparent" points="-14.4,14.4 -14.4,-543.2 2235.7002,-543.2 2235.7002,14.4 -14.4,14.4"/>
<text text-anchor="middle" x="147.9916" y="-8.2" font-family="Times,serif" font-size="14.00" fill="#000000">AndroidBindingModule_BindConnectionActivity</text>
<g id="clust2" class="cluster">
<title>cluster_Dependency Graph</title>
<polygon fill="none" stroke="#000000" points="8,-32.8 8,-520.8 1601.7384,-520.8 1601.7384,-32.8 8,-32.8"/>
<text text-anchor="middle" x="70.2234" y="-504.2" font-family="Times,serif" font-size="14.00" fill="#000000">Dependency Graph</text>
</g>
<g id="clust3" class="cluster">
<title>cluster_Map&lt;Class&lt;?&gt;, AndroidInjector.Factory&lt;?&gt;&gt;</title>
<path fill="none" stroke="#000000" d="M171.0404,-410.8C171.0404,-410.8 1206.9676,-410.8 1206.9676,-410.8 1212.9676,-410.8 1218.9676,-416.8 1218.9676,-422.8 1218.9676,-422.8 1218.9676,-475.8 1218.9676,-475.8 1218.9676,-481.8 1212.9676,-487.8 1206.9676,-487.8 1206.9676,-487.8 171.0404,-487.8 171.0404,-487.8 165.0404,-487.8 159.0404,-481.8 159.0404,-475.8 159.0404,-475.8 159.0404,-422.8 159.0404,-422.8 159.0404,-416.8 165.0404,-410.8 171.0404,-410.8"/>
<text text-anchor="middle" x="689.004" y="-471.2" font-family="Times,serif" font-size="14.00" fill="#000000">Map&lt;Class&lt;?&gt;, AndroidInjector.Factory&lt;?&gt;&gt;</text>
</g>
<g id="clust4" class="cluster">
<title>cluster_Subcomponents</title>
<polygon fill="none" stroke="#000000" points="1703.3934,-407.8 1703.3934,-490.8 2213.3002,-490.8 2213.3002,-407.8 1703.3934,-407.8"/>
<text text-anchor="middle" x="1756.1122" y="-474.2" font-family="Times,serif" font-size="14.00" fill="#000000">Subcomponents</text>
</g>
<!-- 555f923b&#45;af5c&#45;4e65&#45;b983&#45;282cb9b82b30 -->
<g id="node1" class="node">
<title>555f923b&#45;af5c&#45;4e65&#45;b983&#45;282cb9b82b30</title>
<polygon fill="#40e0d0" stroke="#40e0d0" points="1210.7914,-454.8 744.4964,-454.8 744.4964,-418.8 1210.7914,-418.8 1210.7914,-454.8"/>
<text text-anchor="middle" x="977.6439" y="-432.6" font-family="Times,serif" font-size="14.00" fill="#000000">AndroidBindingModule_BindConnectionActivity.bindAndroidInjectorFactory()</text>
</g>
<!-- 406e4790&#45;9bb6&#45;47cb&#45;b6de&#45;c635870eae1d -->
<g id="node2" class="node">
<title>406e4790&#45;9bb6&#45;47cb&#45;b6de&#45;c635870eae1d</title>
<polygon fill="#40e0d0" stroke="#40e0d0" points="1593.5819,-465.4014 1337.2083,-465.4014 1337.2083,-408.1986 1593.5819,-408.1986 1593.5819,-465.4014"/>
<text text-anchor="middle" x="1465.3951" y="-449" font-family="Times,serif" font-size="14.00" fill="#000000">ConnectionActivitySubcomponent.Factory</text>
<text text-anchor="middle" x="1465.3951" y="-416.2" font-family="Times,serif" font-size="14.00" fill="#000000">Subcomponent Creator</text>
</g>
<!-- 555f923b&#45;af5c&#45;4e65&#45;b983&#45;282cb9b82b30&#45;&gt;406e4790&#45;9bb6&#45;47cb&#45;b6de&#45;c635870eae1d -->
<g id="edge2" class="edge">
<title>555f923b&#45;af5c&#45;4e65&#45;b983&#45;282cb9b82b30&#45;&gt;406e4790&#45;9bb6&#45;47cb&#45;b6de&#45;c635870eae1d</title>
<path fill="none" stroke="#000000" stroke-dasharray="1,5" d="M1210.8054,-436.8C1250.5438,-436.8 1290.6622,-436.8 1326.9295,-436.8"/>
<polygon fill="#000000" stroke="#000000" points="1327.0531,-440.3001 1337.053,-436.8 1327.053,-433.3001 1327.0531,-440.3001"/>
<text text-anchor="middle" x="1274.0097" y="-441" font-family="Times,serif" font-size="14.00" fill="#000000">delegates</text>
</g>
<!-- 2105b59d&#45;4742&#45;4053&#45;a4f0&#45;b6e24a7755b9 -->
<g id="node11" class="node">
<title>2105b59d&#45;4742&#45;4053&#45;a4f0&#45;b6e24a7755b9</title>
<g id="a_node11"><a xlink:href="full_org.owntracks.android.injection.modules.AndroidBindingModule_BindConnectionActivity.ConnectionActivitySubcomponent.svg" xlink:title="@PerActivity\nAndroidBindingModule_BindConnectionActivity.ConnectionActivitySubcomponent">
<polygon fill="#7fffd4" stroke="#7fffd4" points="2205.2536,-457.4019 1711.44,-457.4019 1711.44,-416.1981 2205.2536,-416.1981 2205.2536,-457.4019"/>
<text text-anchor="middle" x="1958.3468" y="-441" font-family="Times,serif" font-size="14.00" fill="#000000">@PerActivity</text>
<text text-anchor="middle" x="1958.3468" y="-424.2" font-family="Times,serif" font-size="14.00" fill="#000000">AndroidBindingModule_BindConnectionActivity.ConnectionActivitySubcomponent</text>
</a>
</g>
</g>
<!-- 406e4790&#45;9bb6&#45;47cb&#45;b6de&#45;c635870eae1d&#45;&gt;2105b59d&#45;4742&#45;4053&#45;a4f0&#45;b6e24a7755b9 -->
<g id="edge3" class="edge">
<title>406e4790&#45;9bb6&#45;47cb&#45;b6de&#45;c635870eae1d&#45;&gt;2105b59d&#45;4742&#45;4053&#45;a4f0&#45;b6e24a7755b9:w</title>
<path fill="none" stroke="#000000" stroke-dasharray="5,2" d="M1593.6834,-436.8C1628.1695,-436.8 1665.6927,-436.8 1700.9705,-436.8"/>
<polygon fill="#000000" stroke="#000000" points="1701.3468,-440.3001 1711.3468,-436.8 1701.3468,-433.3001 1701.3468,-440.3001"/>
<text text-anchor="middle" x="1652.5659" y="-441" font-family="Times,serif" font-size="14.00" fill="#000000">subcomponent</text>
</g>
<!-- eb959e25&#45;4d9b&#45;4999&#45;9bf7&#45;2b6c05d0d2de -->
<g id="node3" class="node">
<title>eb959e25&#45;4d9b&#45;4999&#45;9bf7&#45;2b6c05d0d2de</title>
<polygon fill="#ff3030" stroke="#ff3030" points="409.6651,-400.8 199.6551,-400.8 199.6551,-364.8 409.6651,-364.8 409.6651,-400.8"/>
<text text-anchor="middle" x="304.6601" y="-378.6" font-family="Times,serif" font-size="14.00" fill="#000000">org.greenrobot.eventbus.EventBus</text>
</g>
<!-- 8bf5a57d&#45;6d3c&#45;4e71&#45;8236&#45;92b1f66a72dd -->
<g id="node4" class="node">
<title>8bf5a57d&#45;6d3c&#45;4e71&#45;8236&#45;92b1f66a72dd</title>
<polygon fill="#ff3030" stroke="#ff3030" points="593.4804,-346.8 15.8398,-346.8 15.8398,-310.8 593.4804,-310.8 593.4804,-346.8"/>
<text text-anchor="middle" x="304.6601" y="-324.6" font-family="Times,serif" font-size="14.00" fill="#000000">java.util.Map&lt;java.lang.String,javax.inject.Provider&lt;dagger.android.AndroidInjector.Factory&lt;?&gt;&gt;&gt;</text>
</g>
<!-- 405bb00a&#45;8a74&#45;4ac9&#45;860e&#45;f5d152d44e4e -->
<g id="node5" class="node">
<title>405bb00a&#45;8a74&#45;4ac9&#45;860e&#45;f5d152d44e4e</title>
<polygon fill="#ff3030" stroke="#ff3030" points="539.1721,-292.8 70.1481,-292.8 70.1481,-256.8 539.1721,-256.8 539.1721,-292.8"/>
<text text-anchor="middle" x="304.6601" y="-270.6" font-family="Times,serif" font-size="14.00" fill="#000000">@org.owntracks.android.injection.qualifier.AppContext android.content.Context</text>
</g>
<!-- b5a0156a&#45;2769&#45;4027&#45;86f0&#45;9e5bad22a012 -->
<g id="node6" class="node">
<title>b5a0156a&#45;2769&#45;4027&#45;86f0&#45;9e5bad22a012</title>
<polygon fill="#ff3030" stroke="#ff3030" points="481.4438,-238.8 127.8764,-238.8 127.8764,-202.8 481.4438,-202.8 481.4438,-238.8"/>
<text text-anchor="middle" x="304.6601" y="-216.6" font-family="Times,serif" font-size="14.00" fill="#000000">org.owntracks.android.support.preferences.PreferencesStore</text>
</g>
<!-- 6908ce36&#45;0ece&#45;4328&#45;890c&#45;6b96fca369fe -->
<g id="node7" class="node">
<title>6908ce36&#45;0ece&#45;4328&#45;890c&#45;6b96fca369fe</title>
<polygon fill="#ff3030" stroke="#ff3030" points="446.8007,-184.8 162.5195,-184.8 162.5195,-148.8 446.8007,-148.8 446.8007,-184.8"/>
<text text-anchor="middle" x="304.6601" y="-162.6" font-family="Times,serif" font-size="14.00" fill="#000000">org.owntracks.android.data.repos.ContactsRepo</text>
</g>
<!-- 0cf6c5fc&#45;5e88&#45;4183&#45;be73&#45;a66b59b67c51 -->
<g id="node8" class="node">
<title>0cf6c5fc&#45;5e88&#45;4183&#45;be73&#45;a66b59b67c51</title>
<polygon fill="#ff3030" stroke="#ff3030" points="452.9641,-130.8 156.3561,-130.8 156.3561,-94.8 452.9641,-94.8 452.9641,-130.8"/>
<text text-anchor="middle" x="304.6601" y="-108.6" font-family="Times,serif" font-size="14.00" fill="#000000">org.owntracks.android.data.repos.WaypointsRepo</text>
</g>
<!-- e57f93fc&#45;05ad&#45;4f2d&#45;85fe&#45;43778e0fc6d0 -->
<g id="node9" class="node">
<title>e57f93fc&#45;05ad&#45;4f2d&#45;85fe&#45;43778e0fc6d0</title>
<polygon fill="#ff3030" stroke="#ff3030" points="463.1069,-76.8 146.2133,-76.8 146.2133,-40.8 463.1069,-40.8 463.1069,-76.8"/>
<text text-anchor="middle" x="304.6601" y="-54.6" font-family="Times,serif" font-size="14.00" fill="#000000">androidx.test.espresso.idling.CountingIdlingResource</text>
</g>
<!-- 4d52c8b5&#45;595d&#45;4b39&#45;9388&#45;3073e06906db -->
<g id="node10" class="node">
<title>4d52c8b5&#45;595d&#45;4b39&#45;9388&#45;3073e06906db</title>
<polygon fill="#40e0d0" stroke="#40e0d0" points="442.3996,-454.8 178.9206,-454.8 178.9206,-458.8 166.9206,-458.8 166.9206,-418.8 442.3996,-418.8 442.3996,-454.8"/>
<polyline fill="none" stroke="#40e0d0" points="166.9206,-454.8 178.9206,-454.8 "/>
<text text-anchor="middle" x="304.6601" y="-432.6" font-family="Times,serif" font-size="14.00" fill="#000000">Map&lt;Class&lt;?&gt;, AndroidInjector.Factory&lt;?&gt;&gt;</text>
</g>
<!-- 4d52c8b5&#45;595d&#45;4b39&#45;9388&#45;3073e06906db&#45;&gt;555f923b&#45;af5c&#45;4e65&#45;b983&#45;282cb9b82b30 -->
<g id="edge1" class="edge">
<title>4d52c8b5&#45;595d&#45;4b39&#45;9388&#45;3073e06906db&#45;&gt;555f923b&#45;af5c&#45;4e65&#45;b983&#45;282cb9b82b30</title>
<path fill="none" stroke="#000000" d="M442.3313,-436.8C500.4944,-436.8 568.9574,-436.8 630.8202,-436.8 630.8202,-436.8 630.8202,-436.8 706.8202,-436.8 715.7977,-436.8 724.9426,-436.8 734.18,-436.8"/>
<polygon fill="#000000" stroke="#000000" points="734.2363,-440.3001 744.2363,-436.8 734.2362,-433.3001 734.2363,-440.3001"/>
</g>
</g>
</svg>
