<svg width="2107px" height="450px"
 viewBox="0.00 0.00 2106.98 449.60" xmlns="http://www.w3.org/2000/svg" xmlns:xlink="http://www.w3.org/1999/xlink">
<g id="graph0" class="graph" transform="scale(1.0 1.0) rotate(0) translate(14.4 435.2)">
<title>org.owntracks.android.injection.modules.AndroidBindingModule_BindLoadActivity</title>
<polygon fill="#ffffff" stroke="transparent" points="-14.4,14.4 -14.4,-435.2 2092.581,-435.2 2092.581,14.4 -14.4,14.4"/>
<text text-anchor="middle" x="130.1017" y="-8.2" font-family="Times,serif" font-size="14.00" fill="#000000">AndroidBindingModule_BindLoadActivity</text>
<g id="clust2" class="cluster">
<title>cluster_Dependency Graph</title>
<polygon fill="none" stroke="#000000" points="8,-32.8 8,-412.8 1530.1788,-412.8 1530.1788,-32.8 8,-32.8"/>
<text text-anchor="middle" x="70.2234" y="-396.2" font-family="Times,serif" font-size="14.00" fill="#000000">Dependency Graph</text>
</g>
<g id="clust3" class="cluster">
<title>cluster_Map&lt;Class&lt;?&gt;, AndroidInjector.Factory&lt;?&gt;&gt;</title>
<path fill="none" stroke="#000000" d="M171.0404,-302.8C171.0404,-302.8 1171.1878,-302.8 1171.1878,-302.8 1177.1878,-302.8 1183.1878,-308.8 1183.1878,-314.8 1183.1878,-314.8 1183.1878,-367.8 1183.1878,-367.8 1183.1878,-373.8 1177.1878,-379.8 1171.1878,-379.8 1171.1878,-379.8 171.0404,-379.8 171.0404,-379.8 165.0404,-379.8 159.0404,-373.8 159.0404,-367.8 159.0404,-367.8 159.0404,-314.8 159.0404,-314.8 159.0404,-308.8 165.0404,-302.8 171.0404,-302.8"/>
<text text-anchor="middle" x="671.1141" y="-363.2" font-family="Times,serif" font-size="14.00" fill="#000000">Map&lt;Class&lt;?&gt;, AndroidInjector.Factory&lt;?&gt;&gt;</text>
</g>
<g id="clust4" class="cluster">
<title>cluster_Subcomponents</title>
<polygon fill="none" stroke="#000000" points="1631.8338,-299.8 1631.8338,-382.8 2070.181,-382.8 2070.181,-299.8 1631.8338,-299.8"/>
<text text-anchor="middle" x="1684.5526" y="-366.2" font-family="Times,serif" font-size="14.00" fill="#000000">Subcomponents</text>
</g>
<!-- e0ff38d0&#45;57c9&#45;4dc7&#45;a707&#45;f7f6e8d30643 -->
<g id="node1" class="node">
<title>e0ff38d0&#45;57c9&#45;4dc7&#45;a707&#45;f7f6e8d30643</title>
<polygon fill="#40e0d0" stroke="#40e0d0" points="1175.1216,-346.8 744.3864,-346.8 744.3864,-310.8 1175.1216,-310.8 1175.1216,-346.8"/>
<text text-anchor="middle" x="959.754" y="-324.6" font-family="Times,serif" font-size="14.00" fill="#000000">AndroidBindingModule_BindLoadActivity.bindAndroidInjectorFactory()</text>
</g>
<!-- 22a5d3dd&#45;f718&#45;4afc&#45;aa45&#45;974ec07991d0 -->
<g id="node2" class="node">
<title>22a5d3dd&#45;f718&#45;4afc&#45;aa45&#45;974ec07991d0</title>
<polygon fill="#40e0d0" stroke="#40e0d0" points="1522.1322,-357.4014 1301.3186,-357.4014 1301.3186,-300.1986 1522.1322,-300.1986 1522.1322,-357.4014"/>
<text text-anchor="middle" x="1411.7254" y="-341" font-family="Times,serif" font-size="14.00" fill="#000000">LoadActivitySubcomponent.Factory</text>
<text text-anchor="middle" x="1411.7254" y="-308.2" font-family="Times,serif" font-size="14.00" fill="#000000">Subcomponent Creator</text>
</g>
<!-- e0ff38d0&#45;57c9&#45;4dc7&#45;a707&#45;f7f6e8d30643&#45;&gt;22a5d3dd&#45;f718&#45;4afc&#45;aa45&#45;974ec07991d0 -->
<g id="edge2" class="edge">
<title>e0ff38d0&#45;57c9&#45;4dc7&#45;a707&#45;f7f6e8d30643&#45;&gt;22a5d3dd&#45;f718&#45;4afc&#45;aa45&#45;974ec07991d0</title>
<path fill="none" stroke="#000000" stroke-dasharray="1,5" d="M1175.1501,-328.8C1214.8818,-328.8 1255.051,-328.8 1290.7307,-328.8"/>
<polygon fill="#000000" stroke="#000000" points="1291.1608,-332.3001 1301.1608,-328.8 1291.1607,-325.3001 1291.1608,-332.3001"/>
<text text-anchor="middle" x="1238.2299" y="-333" font-family="Times,serif" font-size="14.00" fill="#000000">delegates</text>
</g>
<!-- 527c07ec&#45;e915&#45;48e8&#45;bebe&#45;aa836770c829 -->
<g id="node9" class="node">
<title>527c07ec&#45;e915&#45;48e8&#45;bebe&#45;aa836770c829</title>
<g id="a_node9"><a xlink:href="full_org.owntracks.android.injection.modules.AndroidBindingModule_BindLoadActivity.LoadActivitySubcomponent.svg" xlink:title="@PerActivity\nAndroidBindingModule_BindLoadActivity.LoadActivitySubcomponent">
<polygon fill="#7fffd4" stroke="#7fffd4" points="2062.3547,-349.4019 1639.6601,-349.4019 1639.6601,-308.1981 2062.3547,-308.1981 2062.3547,-349.4019"/>
<text text-anchor="middle" x="1851.0074" y="-333" font-family="Times,serif" font-size="14.00" fill="#000000">@PerActivity</text>
<text text-anchor="middle" x="1851.0074" y="-316.2" font-family="Times,serif" font-size="14.00" fill="#000000">AndroidBindingModule_BindLoadActivity.LoadActivitySubcomponent</text>
</a>
</g>
</g>
<!-- 22a5d3dd&#45;f718&#45;4afc&#45;aa45&#45;974ec07991d0&#45;&gt;527c07ec&#45;e915&#45;48e8&#45;bebe&#45;aa836770c829 -->
<g id="edge3" class="edge">
<title>22a5d3dd&#45;f718&#45;4afc&#45;aa45&#45;974ec07991d0&#45;&gt;527c07ec&#45;e915&#45;48e8&#45;bebe&#45;aa836770c829:w</title>
<path fill="none" stroke="#000000" stroke-dasharray="5,2" d="M1522.3212,-328.8C1556.3382,-328.8 1594.1593,-328.8 1629.5907,-328.8"/>
<polygon fill="#000000" stroke="#000000" points="1630.0074,-332.3001 1640.0074,-328.8 1630.0074,-325.3001 1630.0074,-332.3001"/>
<text text-anchor="middle" x="1581.0063" y="-333" font-family="Times,serif" font-size="14.00" fill="#000000">subcomponent</text>
</g>
<!-- a2ed4c3c&#45;5f3e&#45;4d8a&#45;b389&#45;346e64167b1f -->
<g id="node3" class="node">
<title>a2ed4c3c&#45;5f3e&#45;4d8a&#45;b389&#45;346e64167b1f</title>
<polygon fill="#ff3030" stroke="#ff3030" points="409.6651,-292.8 199.6551,-292.8 199.6551,-256.8 409.6651,-256.8 409.6651,-292.8"/>
<text text-anchor="middle" x="304.6601" y="-270.6" font-family="Times,serif" font-size="14.00" fill="#000000">org.greenrobot.eventbus.EventBus</text>
</g>
<!-- 0b2f74c4&#45;8b02&#45;45f6&#45;ad31&#45;ac37de100147 -->
<g id="node4" class="node">
<title>0b2f74c4&#45;8b02&#45;45f6&#45;ad31&#45;ac37de100147</title>
<polygon fill="#ff3030" stroke="#ff3030" points="593.4804,-238.8 15.8398,-238.8 15.8398,-202.8 593.4804,-202.8 593.4804,-238.8"/>
<text text-anchor="middle" x="304.6601" y="-216.6" font-family="Times,serif" font-size="14.00" fill="#000000">java.util.Map&lt;java.lang.String,javax.inject.Provider&lt;dagger.android.AndroidInjector.Factory&lt;?&gt;&gt;&gt;</text>
</g>
<!-- 2ef18a3d&#45;3141&#45;4023&#45;8d8e&#45;c9337bbec958 -->
<g id="node5" class="node">
<title>2ef18a3d&#45;3141&#45;4023&#45;8d8e&#45;c9337bbec958</title>
<polygon fill="#ff3030" stroke="#ff3030" points="452.9641,-184.8 156.3561,-184.8 156.3561,-148.8 452.9641,-148.8 452.9641,-184.8"/>
<text text-anchor="middle" x="304.6601" y="-162.6" font-family="Times,serif" font-size="14.00" fill="#000000">org.owntracks.android.data.repos.WaypointsRepo</text>
</g>
<!-- b4ea58c4&#45;e22f&#45;4966&#45;9d3c&#45;bdff85a83025 -->
<g id="node6" class="node">
<title>b4ea58c4&#45;e22f&#45;4966&#45;9d3c&#45;bdff85a83025</title>
<polygon fill="#ff3030" stroke="#ff3030" points="539.1721,-130.8 70.1481,-130.8 70.1481,-94.8 539.1721,-94.8 539.1721,-130.8"/>
<text text-anchor="middle" x="304.6601" y="-108.6" font-family="Times,serif" font-size="14.00" fill="#000000">@org.owntracks.android.injection.qualifier.AppContext android.content.Context</text>
</g>
<!-- 06fa7aa6&#45;affa&#45;48bb&#45;8de4&#45;226db74c8d09 -->
<g id="node7" class="node">
<title>06fa7aa6&#45;affa&#45;48bb&#45;8de4&#45;226db74c8d09</title>
<polygon fill="#ff3030" stroke="#ff3030" points="481.4438,-76.8 127.8764,-76.8 127.8764,-40.8 481.4438,-40.8 481.4438,-76.8"/>
<text text-anchor="middle" x="304.6601" y="-54.6" font-family="Times,serif" font-size="14.00" fill="#000000">org.owntracks.android.support.preferences.PreferencesStore</text>
</g>
<!-- 22e709dc&#45;b968&#45;48e6&#45;ae11&#45;a036bc16a33d -->
<g id="node8" class="node">
<title>22e709dc&#45;b968&#45;48e6&#45;ae11&#45;a036bc16a33d</title>
<polygon fill="#40e0d0" stroke="#40e0d0" points="442.3996,-346.8 178.9206,-346.8 178.9206,-350.8 166.9206,-350.8 166.9206,-310.8 442.3996,-310.8 442.3996,-346.8"/>
<polyline fill="none" stroke="#40e0d0" points="166.9206,-346.8 178.9206,-346.8 "/>
<text text-anchor="middle" x="304.6601" y="-324.6" font-family="Times,serif" font-size="14.00" fill="#000000">Map&lt;Class&lt;?&gt;, AndroidInjector.Factory&lt;?&gt;&gt;</text>
</g>
<!-- 22e709dc&#45;b968&#45;48e6&#45;ae11&#45;a036bc16a33d&#45;&gt;e0ff38d0&#45;57c9&#45;4dc7&#45;a707&#45;f7f6e8d30643 -->
<g id="edge1" class="edge">
<title>22e709dc&#45;b968&#45;48e6&#45;ae11&#45;a036bc16a33d&#45;&gt;e0ff38d0&#45;57c9&#45;4dc7&#45;a707&#45;f7f6e8d30643</title>
<path fill="none" stroke="#000000" d="M442.3313,-328.8C500.4944,-328.8 568.9574,-328.8 630.8202,-328.8 630.8202,-328.8 630.8202,-328.8 706.8202,-328.8 715.769,-328.8 724.8959,-328.8 734.1158,-328.8"/>
<polygon fill="#000000" stroke="#000000" points="734.153,-332.3001 744.1529,-328.8 734.1529,-325.3001 734.153,-332.3001"/>
</g>
</g>
</svg>
