<svg width="645px" height="153px"
 viewBox="0.00 0.00 644.65 152.60" xmlns="http://www.w3.org/2000/svg" xmlns:xlink="http://www.w3.org/1999/xlink">
<g id="graph0" class="graph" transform="scale(1.0 1.0) rotate(0) translate(14.4 138.2)">
<title>org.owntracks.android.ui.welcome.version.VersionFragmentModule</title>
<polygon fill="#ffffff" stroke="transparent" points="-14.4,14.4 -14.4,-138.2 630.2494,-138.2 630.2494,14.4 -14.4,14.4"/>
<text text-anchor="middle" x="78.7602" y="-8.2" font-family="Times,serif" font-size="14.00" fill="#000000">VersionFragmentModule</text>
<g id="clust2" class="cluster">
<title>cluster_Dependency Graph</title>
<polygon fill="none" stroke="#000000" points="8,-32.8 8,-115.8 607.8494,-115.8 607.8494,-32.8 8,-32.8"/>
<text text-anchor="middle" x="70.2234" y="-99.2" font-family="Times,serif" font-size="14.00" fill="#000000">Dependency Graph</text>
</g>
<!-- 9e717d7b&#45;35ec&#45;4a90&#45;b3d4&#45;36c422a7af60 -->
<g id="node1" class="node">
<title>9e717d7b&#45;35ec&#45;4a90&#45;b3d4&#45;36c422a7af60</title>
<polygon fill="#7fffd4" stroke="#7fffd4" points="117.3062,-82.4019 15.8978,-82.4019 15.8978,-41.1981 117.3062,-41.1981 117.3062,-82.4019"/>
<text text-anchor="middle" x="66.602" y="-66" font-family="Times,serif" font-size="14.00" fill="#000000">@PerFragment</text>
<text text-anchor="middle" x="66.602" y="-49.2" font-family="Times,serif" font-size="14.00" fill="#000000">Fragment</text>
</g>
<!-- 1e1a6a8e&#45;2fdb&#45;49c9&#45;a53e&#45;39f453782d91 -->
<g id="node2" class="node">
<title>1e1a6a8e&#45;2fdb&#45;49c9&#45;a53e&#45;39f453782d91</title>
<polygon fill="#ff3030" stroke="#ff3030" points="599.6303,-79.8 243.5073,-79.8 243.5073,-43.8 599.6303,-43.8 599.6303,-79.8"/>
<text text-anchor="middle" x="421.5688" y="-57.6" font-family="Times,serif" font-size="14.00" fill="#000000">org.owntracks.android.ui.welcome.version.VersionFragment</text>
</g>
<!-- 9e717d7b&#45;35ec&#45;4a90&#45;b3d4&#45;36c422a7af60&#45;&gt;1e1a6a8e&#45;2fdb&#45;49c9&#45;a53e&#45;39f453782d91 -->
<g id="edge1" class="edge">
<title>9e717d7b&#45;35ec&#45;4a90&#45;b3d4&#45;36c422a7af60&#45;&gt;1e1a6a8e&#45;2fdb&#45;49c9&#45;a53e&#45;39f453782d91</title>
<path fill="none" stroke="#000000" stroke-dasharray="5,2" d="M117.4601,-61.8C148.5836,-61.8 190.547,-61.8 233.3463,-61.8"/>
<polygon fill="#000000" stroke="#000000" points="233.3583,-65.3001 243.3583,-61.8 233.3582,-58.3001 233.3583,-65.3001"/>
<text text-anchor="middle" x="180.2461" y="-66" font-family="Times,serif" font-size="14.00" fill="#000000">delegates</text>
<text text-anchor="middle" x="197.6602" y="-49.2" font-family="Times,serif" font-size="14.00" fill="#000000">Missing binding</text>
</g>
</g>
</svg>
