<svg width="2179px" height="288px"
 viewBox="0.00 0.00 2178.52 287.60" xmlns="http://www.w3.org/2000/svg" xmlns:xlink="http://www.w3.org/1999/xlink">
<g id="graph0" class="graph" transform="scale(1.0 1.0) rotate(0) translate(14.4 273.2)">
<title>org.owntracks.android.ui.welcome.WelcomeActivityModule_BindFinishFragment</title>
<polygon fill="#ffffff" stroke="transparent" points="-14.4,14.4 -14.4,-273.2 2164.121,-273.2 2164.121,14.4 -14.4,14.4"/>
<text text-anchor="middle" x="140.9811" y="-8.2" font-family="Times,serif" font-size="14.00" fill="#000000">WelcomeActivityModule_BindFinishFragment</text>
<g id="clust2" class="cluster">
<title>cluster_Dependency Graph</title>
<polygon fill="none" stroke="#000000" points="8,-32.8 8,-250.8 1565.9488,-250.8 1565.9488,-32.8 8,-32.8"/>
<text text-anchor="middle" x="70.2234" y="-234.2" font-family="Times,serif" font-size="14.00" fill="#000000">Dependency Graph</text>
</g>
<g id="clust3" class="cluster">
<title>cluster_Map&lt;Class&lt;?&gt;, AndroidInjector.Factory&lt;?&gt;&gt;</title>
<path fill="none" stroke="#000000" d="M171.0404,-140.8C171.0404,-140.8 1192.9466,-140.8 1192.9466,-140.8 1198.9466,-140.8 1204.9466,-146.8 1204.9466,-152.8 1204.9466,-152.8 1204.9466,-205.8 1204.9466,-205.8 1204.9466,-211.8 1198.9466,-217.8 1192.9466,-217.8 1192.9466,-217.8 171.0404,-217.8 171.0404,-217.8 165.0404,-217.8 159.0404,-211.8 159.0404,-205.8 159.0404,-205.8 159.0404,-152.8 159.0404,-152.8 159.0404,-146.8 165.0404,-140.8 171.0404,-140.8"/>
<text text-anchor="middle" x="681.9935" y="-201.2" font-family="Times,serif" font-size="14.00" fill="#000000">Map&lt;Class&lt;?&gt;, AndroidInjector.Factory&lt;?&gt;&gt;</text>
</g>
<g id="clust4" class="cluster">
<title>cluster_Subcomponents</title>
<polygon fill="none" stroke="#000000" points="1667.6038,-137.8 1667.6038,-220.8 2141.721,-220.8 2141.721,-137.8 1667.6038,-137.8"/>
<text text-anchor="middle" x="1720.3226" y="-204.2" font-family="Times,serif" font-size="14.00" fill="#000000">Subcomponents</text>
</g>
<!-- 2742d32c&#45;7812&#45;447e&#45;9437&#45;08989f2f1129 -->
<g id="node1" class="node">
<title>2742d32c&#45;7812&#45;447e&#45;9437&#45;08989f2f1129</title>
<polygon fill="#40e0d0" stroke="#40e0d0" points="1196.76,-184.8 744.5068,-184.8 744.5068,-148.8 1196.76,-148.8 1196.76,-184.8"/>
<text text-anchor="middle" x="970.6334" y="-162.6" font-family="Times,serif" font-size="14.00" fill="#000000">WelcomeActivityModule_BindFinishFragment.bindAndroidInjectorFactory()</text>
</g>
<!-- 1aafe20c&#45;eb88&#45;4bc4&#45;8653&#45;fcfd2d18784a -->
<g id="node2" class="node">
<title>1aafe20c&#45;eb88&#45;4bc4&#45;8653&#45;fcfd2d18784a</title>
<polygon fill="#40e0d0" stroke="#40e0d0" points="1557.9078,-195.4014 1323.0718,-195.4014 1323.0718,-138.1986 1557.9078,-138.1986 1557.9078,-195.4014"/>
<text text-anchor="middle" x="1440.4898" y="-179" font-family="Times,serif" font-size="14.00" fill="#000000">FinishFragmentSubcomponent.Factory</text>
<text text-anchor="middle" x="1440.4898" y="-146.2" font-family="Times,serif" font-size="14.00" fill="#000000">Subcomponent Creator</text>
</g>
<!-- 2742d32c&#45;7812&#45;447e&#45;9437&#45;08989f2f1129&#45;&gt;1aafe20c&#45;eb88&#45;4bc4&#45;8653&#45;fcfd2d18784a -->
<g id="edge2" class="edge">
<title>2742d32c&#45;7812&#45;447e&#45;9437&#45;08989f2f1129&#45;&gt;1aafe20c&#45;eb88&#45;4bc4&#45;8653&#45;fcfd2d18784a</title>
<path fill="none" stroke="#000000" stroke-dasharray="1,5" d="M1196.96,-166.8C1236.7864,-166.8 1276.9429,-166.8 1312.843,-166.8"/>
<polygon fill="#000000" stroke="#000000" points="1312.852,-170.3001 1322.852,-166.8 1312.852,-163.3001 1312.852,-170.3001"/>
<text text-anchor="middle" x="1259.9887" y="-171" font-family="Times,serif" font-size="14.00" fill="#000000">delegates</text>
</g>
<!-- 6371e88a&#45;2bd1&#45;4afa&#45;8c48&#45;900a6d43b5a1 -->
<g id="node6" class="node">
<title>6371e88a&#45;2bd1&#45;4afa&#45;8c48&#45;900a6d43b5a1</title>
<g id="a_node6"><a xlink:href="full_org.owntracks.android.ui.welcome.WelcomeActivityModule_BindFinishFragment.FinishFragmentSubcomponent.svg" xlink:title="@PerFragment\nWelcomeActivityModule_BindFinishFragment.FinishFragmentSubcomponent">
<polygon fill="#7fffd4" stroke="#7fffd4" points="2133.7796,-187.4019 1675.5452,-187.4019 1675.5452,-146.1981 2133.7796,-146.1981 2133.7796,-187.4019"/>
<text text-anchor="middle" x="1904.6624" y="-171" font-family="Times,serif" font-size="14.00" fill="#000000">@PerFragment</text>
<text text-anchor="middle" x="1904.6624" y="-154.2" font-family="Times,serif" font-size="14.00" fill="#000000">WelcomeActivityModule_BindFinishFragment.FinishFragmentSubcomponent</text>
</a>
</g>
</g>
<!-- 1aafe20c&#45;eb88&#45;4bc4&#45;8653&#45;fcfd2d18784a&#45;&gt;6371e88a&#45;2bd1&#45;4afa&#45;8c48&#45;900a6d43b5a1 -->
<g id="edge3" class="edge">
<title>1aafe20c&#45;eb88&#45;4bc4&#45;8653&#45;fcfd2d18784a&#45;&gt;6371e88a&#45;2bd1&#45;4afa&#45;8c48&#45;900a6d43b5a1:w</title>
<path fill="none" stroke="#000000" stroke-dasharray="5,2" d="M1558.019,-166.8C1592.2277,-166.8 1629.9119,-166.8 1665.2663,-166.8"/>
<polygon fill="#000000" stroke="#000000" points="1665.6624,-170.3001 1675.6624,-166.8 1665.6624,-163.3001 1665.6624,-170.3001"/>
<text text-anchor="middle" x="1616.7763" y="-171" font-family="Times,serif" font-size="14.00" fill="#000000">subcomponent</text>
</g>
<!-- 31cd5350&#45;5ec1&#45;43eb&#45;adb3&#45;2121dad5131f -->
<g id="node3" class="node">
<title>31cd5350&#45;5ec1&#45;43eb&#45;adb3&#45;2121dad5131f</title>
<polygon fill="#ff3030" stroke="#ff3030" points="593.4804,-130.8 15.8398,-130.8 15.8398,-94.8 593.4804,-94.8 593.4804,-130.8"/>
<text text-anchor="middle" x="304.6601" y="-108.6" font-family="Times,serif" font-size="14.00" fill="#000000">java.util.Map&lt;java.lang.String,javax.inject.Provider&lt;dagger.android.AndroidInjector.Factory&lt;?&gt;&gt;&gt;</text>
</g>
<!-- 1e365ae5&#45;3a7c&#45;4759&#45;8a1b&#45;96cf3a79bbc3 -->
<g id="node4" class="node">
<title>1e365ae5&#45;3a7c&#45;4759&#45;8a1b&#45;96cf3a79bbc3</title>
<polygon fill="#ff3030" stroke="#ff3030" points="440.8882,-76.8 168.432,-76.8 168.432,-40.8 440.8882,-40.8 440.8882,-76.8"/>
<text text-anchor="middle" x="304.6601" y="-54.6" font-family="Times,serif" font-size="14.00" fill="#000000">androidx.appcompat.app.AppCompatActivity</text>
</g>
<!-- 5f0ff66a&#45;4efa&#45;418c&#45;b192&#45;1219f143e895 -->
<g id="node5" class="node">
<title>5f0ff66a&#45;4efa&#45;418c&#45;b192&#45;1219f143e895</title>
<polygon fill="#40e0d0" stroke="#40e0d0" points="442.3996,-184.8 178.9206,-184.8 178.9206,-188.8 166.9206,-188.8 166.9206,-148.8 442.3996,-148.8 442.3996,-184.8"/>
<polyline fill="none" stroke="#40e0d0" points="166.9206,-184.8 178.9206,-184.8 "/>
<text text-anchor="middle" x="304.6601" y="-162.6" font-family="Times,serif" font-size="14.00" fill="#000000">Map&lt;Class&lt;?&gt;, AndroidInjector.Factory&lt;?&gt;&gt;</text>
</g>
<!-- 5f0ff66a&#45;4efa&#45;418c&#45;b192&#45;1219f143e895&#45;&gt;2742d32c&#45;7812&#45;447e&#45;9437&#45;08989f2f1129 -->
<g id="edge1" class="edge">
<title>5f0ff66a&#45;4efa&#45;418c&#45;b192&#45;1219f143e895&#45;&gt;2742d32c&#45;7812&#45;447e&#45;9437&#45;08989f2f1129</title>
<path fill="none" stroke="#000000" d="M442.3313,-166.8C500.4944,-166.8 568.9574,-166.8 630.8202,-166.8 630.8202,-166.8 630.8202,-166.8 706.8202,-166.8 715.8176,-166.8 724.9876,-166.8 734.2507,-166.8"/>
<polygon fill="#000000" stroke="#000000" points="734.335,-170.3001 744.3349,-166.8 734.3349,-163.3001 734.335,-170.3001"/>
</g>
</g>
</svg>
