<svg width="2142px" height="558px"
 viewBox="0.00 0.00 2141.69 557.60" xmlns="http://www.w3.org/2000/svg" xmlns:xlink="http://www.w3.org/1999/xlink">
<g id="graph0" class="graph" transform="scale(1.0 1.0) rotate(0) translate(14.4 543.2)">
<title>org.owntracks.android.injection.modules.AndroidBindingModule_BindBackgroundService</title>
<polygon fill="#ffffff" stroke="transparent" points="-14.4,14.4 -14.4,-543.2 2127.2856,-543.2 2127.2856,14.4 -14.4,14.4"/>
<text text-anchor="middle" x="147.9783" y="-8.2" font-family="Times,serif" font-size="14.00" fill="#000000">AndroidBindingModule_BindBackgroundService</text>
<g id="clust2" class="cluster">
<title>cluster_Dependency Graph</title>
<polygon fill="none" stroke="#000000" points="8,-32.8 8,-520.8 1493.377,-520.8 1493.377,-32.8 8,-32.8"/>
<text text-anchor="middle" x="70.2234" y="-504.2" font-family="Times,serif" font-size="14.00" fill="#000000">Dependency Graph</text>
</g>
<g id="clust3" class="cluster">
<title>cluster_Map&lt;Class&lt;?&gt;, AndroidInjector.Factory&lt;?&gt;&gt;</title>
<path fill="none" stroke="#000000" d="M116.8863,-410.8C116.8863,-410.8 1098.6328,-410.8 1098.6328,-410.8 1104.6328,-410.8 1110.6328,-416.8 1110.6328,-422.8 1110.6328,-422.8 1110.6328,-475.8 1110.6328,-475.8 1110.6328,-481.8 1104.6328,-487.8 1098.6328,-487.8 1098.6328,-487.8 116.8863,-487.8 116.8863,-487.8 110.8863,-487.8 104.8863,-481.8 104.8863,-475.8 104.8863,-475.8 104.8863,-422.8 104.8863,-422.8 104.8863,-416.8 110.8863,-410.8 116.8863,-410.8"/>
<text text-anchor="middle" x="607.7595" y="-471.2" font-family="Times,serif" font-size="14.00" fill="#000000">Map&lt;Class&lt;?&gt;, AndroidInjector.Factory&lt;?&gt;&gt;</text>
</g>
<g id="clust4" class="cluster">
<title>cluster_Subcomponents</title>
<polygon fill="none" stroke="#000000" points="1595.032,-407.8 1595.032,-490.8 2104.8856,-490.8 2104.8856,-407.8 1595.032,-407.8"/>
<text text-anchor="middle" x="1647.7508" y="-474.2" font-family="Times,serif" font-size="14.00" fill="#000000">Subcomponents</text>
</g>
<!-- 894c19f2&#45;dd21&#45;43e9&#45;a0b1&#45;d4e67f0c6109 -->
<g id="node1" class="node">
<title>894c19f2&#45;dd21&#45;43e9&#45;a0b1&#45;d4e67f0c6109</title>
<polygon fill="#40e0d0" stroke="#40e0d0" points="1102.4434,-454.8 636.2014,-454.8 636.2014,-418.8 1102.4434,-418.8 1102.4434,-454.8"/>
<text text-anchor="middle" x="869.3224" y="-432.6" font-family="Times,serif" font-size="14.00" fill="#000000">AndroidBindingModule_BindBackgroundService.bindAndroidInjectorFactory()</text>
</g>
<!-- db780d40&#45;5be1&#45;4c4d&#45;9a58&#45;59fe8b5e527a -->
<g id="node2" class="node">
<title>db780d40&#45;5be1&#45;4c4d&#45;9a58&#45;59fe8b5e527a</title>
<polygon fill="#40e0d0" stroke="#40e0d0" points="1485.2072,-465.4014 1228.8868,-465.4014 1228.8868,-408.1986 1485.2072,-408.1986 1485.2072,-465.4014"/>
<text text-anchor="middle" x="1357.047" y="-449" font-family="Times,serif" font-size="14.00" fill="#000000">BackgroundServiceSubcomponent.Factory</text>
<text text-anchor="middle" x="1357.047" y="-416.2" font-family="Times,serif" font-size="14.00" fill="#000000">Subcomponent Creator</text>
</g>
<!-- 894c19f2&#45;dd21&#45;43e9&#45;a0b1&#45;d4e67f0c6109&#45;&gt;db780d40&#45;5be1&#45;4c4d&#45;9a58&#45;59fe8b5e527a -->
<g id="edge2" class="edge">
<title>894c19f2&#45;dd21&#45;43e9&#45;a0b1&#45;d4e67f0c6109&#45;&gt;db780d40&#45;5be1&#45;4c4d&#45;9a58&#45;59fe8b5e527a</title>
<path fill="none" stroke="#000000" stroke-dasharray="1,5" d="M1102.4712,-436.8C1142.2074,-436.8 1182.3237,-436.8 1218.5889,-436.8"/>
<polygon fill="#000000" stroke="#000000" points="1218.712,-440.3001 1228.7119,-436.8 1218.7119,-433.3001 1218.712,-440.3001"/>
<text text-anchor="middle" x="1165.6749" y="-441" font-family="Times,serif" font-size="14.00" fill="#000000">delegates</text>
</g>
<!-- 91cee3d7&#45;d95f&#45;495d&#45;b30a&#45;42cb50af306c -->
<g id="node11" class="node">
<title>91cee3d7&#45;d95f&#45;495d&#45;b30a&#45;42cb50af306c</title>
<g id="a_node11"><a xlink:href="full_org.owntracks.android.injection.modules.AndroidBindingModule_BindBackgroundService.BackgroundServiceSubcomponent.svg" xlink:title="@PerService\nAndroidBindingModule_BindBackgroundService.BackgroundServiceSubcomponent">
<polygon fill="#7fffd4" stroke="#7fffd4" points="2096.8124,-457.4019 1603.1052,-457.4019 1603.1052,-416.1981 2096.8124,-416.1981 2096.8124,-457.4019"/>
<text text-anchor="middle" x="1849.9588" y="-441" font-family="Times,serif" font-size="14.00" fill="#000000">@PerService</text>
<text text-anchor="middle" x="1849.9588" y="-424.2" font-family="Times,serif" font-size="14.00" fill="#000000">AndroidBindingModule_BindBackgroundService.BackgroundServiceSubcomponent</text>
</a>
</g>
</g>
<!-- db780d40&#45;5be1&#45;4c4d&#45;9a58&#45;59fe8b5e527a&#45;&gt;91cee3d7&#45;d95f&#45;495d&#45;b30a&#45;42cb50af306c -->
<g id="edge3" class="edge">
<title>db780d40&#45;5be1&#45;4c4d&#45;9a58&#45;59fe8b5e527a&#45;&gt;91cee3d7&#45;d95f&#45;495d&#45;b30a&#45;42cb50af306c:w</title>
<path fill="none" stroke="#000000" stroke-dasharray="5,2" d="M1485.3145,-436.8C1519.795,-436.8 1557.3121,-436.8 1592.5842,-436.8"/>
<polygon fill="#000000" stroke="#000000" points="1592.9588,-440.3001 1602.9588,-436.8 1592.9588,-433.3001 1592.9588,-440.3001"/>
<text text-anchor="middle" x="1544.2045" y="-441" font-family="Times,serif" font-size="14.00" fill="#000000">subcomponent</text>
</g>
<!-- 89bebe5e&#45;da42&#45;407b&#45;a3a1&#45;adaee831317b -->
<g id="node3" class="node">
<title>89bebe5e&#45;da42&#45;407b&#45;a3a1&#45;adaee831317b</title>
<polygon fill="#ff3030" stroke="#ff3030" points="355.511,-400.8 145.501,-400.8 145.501,-364.8 355.511,-364.8 355.511,-400.8"/>
<text text-anchor="middle" x="250.506" y="-378.6" font-family="Times,serif" font-size="14.00" fill="#000000">org.greenrobot.eventbus.EventBus</text>
</g>
<!-- a5ab20b8&#45;5c3b&#45;45b3&#45;bfac&#45;91844c81a3a0 -->
<g id="node4" class="node">
<title>a5ab20b8&#45;5c3b&#45;45b3&#45;bfac&#45;91844c81a3a0</title>
<polygon fill="#ff3030" stroke="#ff3030" points="392.6466,-346.8 108.3654,-346.8 108.3654,-310.8 392.6466,-310.8 392.6466,-346.8"/>
<text text-anchor="middle" x="250.506" y="-324.6" font-family="Times,serif" font-size="14.00" fill="#000000">org.owntracks.android.data.repos.ContactsRepo</text>
</g>
<!-- 3058fb29&#45;d05e&#45;4d6b&#45;a5ce&#45;55b7afd77c5a -->
<g id="node5" class="node">
<title>3058fb29&#45;d05e&#45;4d6b&#45;a5ce&#45;55b7afd77c5a</title>
<polygon fill="#ff3030" stroke="#ff3030" points="398.81,-292.8 102.202,-292.8 102.202,-256.8 398.81,-256.8 398.81,-292.8"/>
<text text-anchor="middle" x="250.506" y="-270.6" font-family="Times,serif" font-size="14.00" fill="#000000">org.owntracks.android.data.repos.WaypointsRepo</text>
</g>
<!-- b97f138a&#45;42b6&#45;42b5&#45;95ee&#45;2b20a0fbd150 -->
<g id="node6" class="node">
<title>b97f138a&#45;42b6&#45;42b5&#45;95ee&#45;2b20a0fbd150</title>
<polygon fill="#ff3030" stroke="#ff3030" points="485.018,-238.8 15.994,-238.8 15.994,-202.8 485.018,-202.8 485.018,-238.8"/>
<text text-anchor="middle" x="250.506" y="-216.6" font-family="Times,serif" font-size="14.00" fill="#000000">@org.owntracks.android.injection.qualifier.AppContext android.content.Context</text>
</g>
<!-- fef68b8b&#45;8d05&#45;44b8&#45;8176&#45;571d8a78077b -->
<g id="node7" class="node">
<title>fef68b8b&#45;8d05&#45;44b8&#45;8176&#45;571d8a78077b</title>
<polygon fill="#ff3030" stroke="#ff3030" points="427.2897,-184.8 73.7223,-184.8 73.7223,-148.8 427.2897,-148.8 427.2897,-184.8"/>
<text text-anchor="middle" x="250.506" y="-162.6" font-family="Times,serif" font-size="14.00" fill="#000000">org.owntracks.android.support.preferences.PreferencesStore</text>
</g>
<!-- 168a4337&#45;af61&#45;48cd&#45;8301&#45;3dec8a05af48 -->
<g id="node8" class="node">
<title>168a4337&#45;af61&#45;48cd&#45;8301&#45;3dec8a05af48</title>
<polygon fill="#ff3030" stroke="#ff3030" points="408.9528,-130.8 92.0592,-130.8 92.0592,-94.8 408.9528,-94.8 408.9528,-130.8"/>
<text text-anchor="middle" x="250.506" y="-108.6" font-family="Times,serif" font-size="14.00" fill="#000000">androidx.test.espresso.idling.CountingIdlingResource</text>
</g>
<!-- fd5d7fe3&#45;7977&#45;48ae&#45;a1ce&#45;507b14fca98e -->
<g id="node9" class="node">
<title>fd5d7fe3&#45;7977&#45;48ae&#45;a1ce&#45;507b14fca98e</title>
<polygon fill="#ff3030" stroke="#ff3030" points="314.464,-76.8 186.548,-76.8 186.548,-40.8 314.464,-40.8 314.464,-76.8"/>
<text text-anchor="middle" x="250.506" y="-54.6" font-family="Times,serif" font-size="14.00" fill="#000000">android.app.Service</text>
</g>
<!-- 5a7d71bc&#45;3d9e&#45;4cfd&#45;a8ee&#45;a12d219fd04e -->
<g id="node10" class="node">
<title>5a7d71bc&#45;3d9e&#45;4cfd&#45;a8ee&#45;a12d219fd04e</title>
<polygon fill="#40e0d0" stroke="#40e0d0" points="388.2455,-454.8 124.7665,-454.8 124.7665,-458.8 112.7665,-458.8 112.7665,-418.8 388.2455,-418.8 388.2455,-454.8"/>
<polyline fill="none" stroke="#40e0d0" points="112.7665,-454.8 124.7665,-454.8 "/>
<text text-anchor="middle" x="250.506" y="-432.6" font-family="Times,serif" font-size="14.00" fill="#000000">Map&lt;Class&lt;?&gt;, AndroidInjector.Factory&lt;?&gt;&gt;</text>
</g>
<!-- 5a7d71bc&#45;3d9e&#45;4cfd&#45;a8ee&#45;a12d219fd04e&#45;&gt;894c19f2&#45;dd21&#45;43e9&#45;a0b1&#45;d4e67f0c6109 -->
<g id="edge1" class="edge">
<title>5a7d71bc&#45;3d9e&#45;4cfd&#45;a8ee&#45;a12d219fd04e&#45;&gt;894c19f2&#45;dd21&#45;43e9&#45;a0b1&#45;d4e67f0c6109</title>
<path fill="none" stroke="#000000" d="M388.1844,-436.8C431.2031,-436.8 478.8305,-436.8 522.512,-436.8 522.512,-436.8 522.512,-436.8 598.512,-436.8 607.4891,-436.8 616.6335,-436.8 625.8704,-436.8"/>
<polygon fill="#000000" stroke="#000000" points="625.9263,-440.3001 635.9262,-436.8 625.9262,-433.3001 625.9263,-440.3001"/>
</g>
</g>
</svg>
