<svg width="2068px" height="1010px"
 viewBox="0.00 0.00 2067.76 1009.60" xmlns="http://www.w3.org/2000/svg" xmlns:xlink="http://www.w3.org/1999/xlink">
<g id="graph0" class="graph" transform="scale(1.0 1.0) rotate(0) translate(14.4 995.2)">
<title>org.owntracks.android.injection.modules.AndroidBindingModule → org.owntracks.android.injection.modules.AndroidBindingModule_BindContactsActivity.ContactsActivitySubcomponent</title>
<polygon fill="#ffffff" stroke="transparent" points="-14.4,14.4 -14.4,-995.2 2053.3584,-995.2 2053.3584,14.4 -14.4,14.4"/>
<text text-anchor="middle" x="307.8107" y="-8.2" font-family="Times,serif" font-size="14.00" fill="#000000">AndroidBindingModule → AndroidBindingModule_BindContactsActivity.ContactsActivitySubcomponent</text>
<g id="clust1" class="cluster">
<title>cluster_Entry Points</title>
<polygon fill="none" stroke="#000000" points="8,-772.8 8,-849.8 178.7974,-849.8 178.7974,-772.8 8,-772.8"/>
<text text-anchor="middle" x="50.8061" y="-833.2" font-family="Times,serif" font-size="14.00" fill="#000000">Entry Points</text>
</g>
<g id="clust2" class="cluster">
<title>cluster_Dependency Graph</title>
<polygon fill="none" stroke="#000000" points="199.7974,-36.8 199.7974,-972.8 2030.9584,-972.8 2030.9584,-36.8 199.7974,-36.8"/>
<text text-anchor="middle" x="262.0208" y="-956.2" font-family="Times,serif" font-size="14.00" fill="#000000">Dependency Graph</text>
</g>
<g id="clust3" class="cluster">
<title>cluster_Map&lt;Class&lt;?&gt;, Provider&lt;AndroidInjector.Factory&lt;?&gt;&gt;&gt;</title>
<path fill="none" stroke="#000000" d="M564.8294,-44.8C564.8294,-44.8 1668.6066,-44.8 1668.6066,-44.8 1674.6066,-44.8 1680.6066,-50.8 1680.6066,-56.8 1680.6066,-56.8 1680.6066,-757.8 1680.6066,-757.8 1680.6066,-763.8 1674.6066,-769.8 1668.6066,-769.8 1668.6066,-769.8 564.8294,-769.8 564.8294,-769.8 558.8294,-769.8 552.8294,-763.8 552.8294,-757.8 552.8294,-757.8 552.8294,-56.8 552.8294,-56.8 552.8294,-50.8 558.8294,-44.8 564.8294,-44.8"/>
<text text-anchor="middle" x="1116.718" y="-753.2" font-family="Times,serif" font-size="14.00" fill="#000000">Map&lt;Class&lt;?&gt;, Provider&lt;AndroidInjector.Factory&lt;?&gt;&gt;&gt;</text>
</g>
<!-- 44d31580&#45;d0a2&#45;4339&#45;bcbc&#45;e406b3288083 -->
<g id="node1" class="node">
<title>44d31580&#45;d0a2&#45;4339&#45;bcbc&#45;e406b3288083</title>
<polygon fill="#40e0d0" stroke="#40e0d0" stroke-width="2" points="170.6962,-816.8 16.1012,-816.8 16.1012,-812.8 12.1012,-812.8 12.1012,-808.8 16.1012,-808.8 16.1012,-788.8 12.1012,-788.8 12.1012,-784.8 16.1012,-784.8 16.1012,-780.8 170.6962,-780.8 170.6962,-816.8"/>
<polyline fill="none" stroke="#40e0d0" stroke-width="2" points="16.1012,-812.8 20.1012,-812.8 20.1012,-808.8 16.1012,-808.8 "/>
<polyline fill="none" stroke="#40e0d0" stroke-width="2" points="16.1012,-788.8 20.1012,-788.8 20.1012,-784.8 16.1012,-784.8 "/>
<text text-anchor="middle" x="93.3987" y="-794.6" font-family="Times,serif" font-size="14.00" fill="#000000">inject (ContactsActivity)</text>
</g>
<!-- c036ca16&#45;3316&#45;4eb6&#45;9568&#45;b458bfa3753f -->
<g id="node2" class="node">
<title>c036ca16&#45;3316&#45;4eb6&#45;9568&#45;b458bfa3753f</title>
<polygon fill="#40e0d0" stroke="#40e0d0" points="434.7191,-651.8 207.8235,-651.8 207.8235,-615.8 434.7191,-615.8 434.7191,-651.8"/>
<text text-anchor="middle" x="321.2713" y="-629.6" font-family="Times,serif" font-size="14.00" fill="#000000">DispatchingAndroidInjector&lt;Object&gt;</text>
</g>
<!-- 44d31580&#45;d0a2&#45;4339&#45;bcbc&#45;e406b3288083&#45;&gt;c036ca16&#45;3316&#45;4eb6&#45;9568&#45;b458bfa3753f -->
<g id="edge5" class="edge">
<title>44d31580&#45;d0a2&#45;4339&#45;bcbc&#45;e406b3288083&#45;&gt;c036ca16&#45;3316&#45;4eb6&#45;9568&#45;b458bfa3753f</title>
<path fill="none" stroke="#000000" d="M118.6557,-780.5117C160.0001,-750.5747 242.1152,-691.1161 288.1004,-657.8187"/>
<polygon fill="#000000" stroke="#000000" points="290.2015,-660.6185 296.2485,-651.9188 286.0961,-654.9488 290.2015,-660.6185"/>
</g>
<!-- 592731c6&#45;2a9f&#45;4559&#45;b5c2&#45;ce8563a8de59 -->
<g id="node3" class="node">
<title>592731c6&#45;2a9f&#45;4559&#45;b5c2&#45;ce8563a8de59</title>
<polygon fill="#40e0d0" stroke="#40e0d0" points="418.4703,-816.8 224.0723,-816.8 224.0723,-780.8 418.4703,-780.8 418.4703,-816.8"/>
<text text-anchor="middle" x="321.2713" y="-794.6" font-family="Times,serif" font-size="14.00" fill="#000000">ContactsMvvm.ViewModel&lt;?&gt;</text>
</g>
<!-- 44d31580&#45;d0a2&#45;4339&#45;bcbc&#45;e406b3288083&#45;&gt;592731c6&#45;2a9f&#45;4559&#45;b5c2&#45;ce8563a8de59 -->
<g id="edge1" class="edge">
<title>44d31580&#45;d0a2&#45;4339&#45;bcbc&#45;e406b3288083&#45;&gt;592731c6&#45;2a9f&#45;4559&#45;b5c2&#45;ce8563a8de59</title>
<path fill="none" stroke="#000000" d="M170.8639,-798.8C184.7018,-798.8 199.3421,-798.8 213.8414,-798.8"/>
<polygon fill="#000000" stroke="#000000" points="213.8453,-802.3001 223.8453,-798.8 213.8452,-795.3001 213.8453,-802.3001"/>
</g>
<!-- e5b83cd7&#45;cf08&#45;4378&#45;9d8c&#45;35536aeb312b -->
<g id="node4" class="node">
<title>e5b83cd7&#45;cf08&#45;4378&#45;9d8c&#45;35536aeb312b</title>
<polygon fill="#7fffd4" stroke="#7fffd4" points="1081.326,-879.4019 974.9806,-879.4019 974.9806,-838.1981 1081.326,-838.1981 1081.326,-879.4019"/>
<text text-anchor="middle" x="1028.1533" y="-863" font-family="Times,serif" font-size="14.00" fill="#000000">@PerActivity</text>
<text text-anchor="middle" x="1028.1533" y="-846.2" font-family="Times,serif" font-size="14.00" fill="#000000">DrawerProvider</text>
</g>
<!-- 44d31580&#45;d0a2&#45;4339&#45;bcbc&#45;e406b3288083&#45;&gt;e5b83cd7&#45;cf08&#45;4378&#45;9d8c&#45;35536aeb312b -->
<g id="edge2" class="edge">
<title>44d31580&#45;d0a2&#45;4339&#45;bcbc&#45;e406b3288083&#45;&gt;e5b83cd7&#45;cf08&#45;4378&#45;9d8c&#45;35536aeb312b</title>
<path fill="none" stroke="#000000" d="M141.0748,-816.9314C186.6495,-832.619 257.6433,-852.8 321.2713,-852.8 321.2713,-852.8 321.2713,-852.8 937.567,-852.8 946.3847,-852.8 955.6746,-853.0865 964.8093,-853.5344"/>
<polygon fill="#000000" stroke="#000000" points="964.8444,-857.0417 975.0232,-854.1019 965.2328,-850.0524 964.8444,-857.0417"/>
</g>
<!-- d9caa903&#45;ad73&#45;4358&#45;bbe3&#45;034e264045ca -->
<g id="node5" class="node">
<title>d9caa903&#45;ad73&#45;4358&#45;bbe3&#45;034e264045ca</title>
<polygon fill="#76ee00" stroke="#76ee00" points="1951.8873,-879.4019 1869.7618,-879.4019 1869.7618,-838.1981 1951.8873,-838.1981 1951.8873,-879.4019"/>
<text text-anchor="middle" x="1910.8246" y="-863" font-family="Times,serif" font-size="14.00" fill="#000000">@Singleton</text>
<text text-anchor="middle" x="1910.8246" y="-846.2" font-family="Times,serif" font-size="14.00" fill="#000000">Preferences</text>
</g>
<!-- 44d31580&#45;d0a2&#45;4339&#45;bcbc&#45;e406b3288083&#45;&gt;d9caa903&#45;ad73&#45;4358&#45;bbe3&#45;034e264045ca -->
<g id="edge3" class="edge">
<title>44d31580&#45;d0a2&#45;4339&#45;bcbc&#45;e406b3288083&#45;&gt;d9caa903&#45;ad73&#45;4358&#45;bbe3&#45;034e264045ca</title>
<path fill="none" stroke="#000000" d="M94.6902,-780.4307C103.418,-663.2207 158.4311,-24.8 321.2713,-24.8 321.2713,-24.8 321.2713,-24.8 1735.6487,-24.8 1824.9239,-24.8 1742.4467,-756.4699 1798.6908,-825.8 1813.3809,-843.908 1837.474,-852.4089 1859.5698,-856.2788"/>
<polygon fill="#000000" stroke="#000000" points="1859.1369,-859.7528 1869.5405,-857.7489 1860.158,-852.8276 1859.1369,-859.7528"/>
</g>
<!-- 25c6a916&#45;fed7&#45;4a84&#45;8270&#45;75cbaf8c619a -->
<g id="node6" class="node">
<title>25c6a916&#45;fed7&#45;4a84&#45;8270&#45;75cbaf8c619a</title>
<polygon fill="#76ee00" stroke="#76ee00" points="1473.5437,-939.4019 1355.3025,-939.4019 1355.3025,-898.1981 1473.5437,-898.1981 1473.5437,-939.4019"/>
<text text-anchor="middle" x="1414.4231" y="-923" font-family="Times,serif" font-size="14.00" fill="#000000">@Singleton</text>
<text text-anchor="middle" x="1414.4231" y="-906.2" font-family="Times,serif" font-size="14.00" fill="#000000">GeocoderProvider</text>
</g>
<!-- 44d31580&#45;d0a2&#45;4339&#45;bcbc&#45;e406b3288083&#45;&gt;25c6a916&#45;fed7&#45;4a84&#45;8270&#45;75cbaf8c619a -->
<g id="edge4" class="edge">
<title>44d31580&#45;d0a2&#45;4339&#45;bcbc&#45;e406b3288083&#45;&gt;25c6a916&#45;fed7&#45;4a84&#45;8270&#45;75cbaf8c619a</title>
<path fill="none" stroke="#000000" d="M113.3733,-816.8636C151.0731,-849.0085 236.5599,-912.8 321.2713,-912.8 321.2713,-912.8 321.2713,-912.8 1118.7396,-912.8 1196.2768,-912.8 1285.2276,-914.8879 1345.145,-916.6004"/>
<polygon fill="#000000" stroke="#000000" points="1345.1473,-920.1018 1355.2446,-916.8933 1345.3503,-913.1047 1345.1473,-920.1018"/>
</g>
<!-- 76fa2d52&#45;3e63&#45;49c2&#45;aaf6&#45;0ac36cead7d6 -->
<g id="node12" class="node">
<title>76fa2d52&#45;3e63&#45;49c2&#45;aaf6&#45;0ac36cead7d6</title>
<polygon fill="#40e0d0" stroke="#40e0d0" points="900.1859,-438.8 572.7105,-438.8 572.7105,-442.8 560.7105,-442.8 560.7105,-402.8 900.1859,-402.8 900.1859,-438.8"/>
<polyline fill="none" stroke="#40e0d0" points="560.7105,-438.8 572.7105,-438.8 "/>
<text text-anchor="middle" x="730.4482" y="-416.6" font-family="Times,serif" font-size="14.00" fill="#000000">Map&lt;Class&lt;?&gt;, Provider&lt;AndroidInjector.Factory&lt;?&gt;&gt;&gt;</text>
</g>
<!-- c036ca16&#45;3316&#45;4eb6&#45;9568&#45;b458bfa3753f&#45;&gt;76fa2d52&#45;3e63&#45;49c2&#45;aaf6&#45;0ac36cead7d6 -->
<g id="edge6" class="edge">
<title>c036ca16&#45;3316&#45;4eb6&#45;9568&#45;b458bfa3753f&#45;&gt;76fa2d52&#45;3e63&#45;49c2&#45;aaf6&#45;0ac36cead7d6</title>
<path fill="none" stroke="#000000" d="M336.4314,-615.7077C370.4896,-576.4727 457.5755,-483.8013 552.8294,-442.8 553.0345,-442.7117 553.2399,-442.6237 553.4455,-442.5361"/>
<polygon fill="#000000" stroke="#000000" points="554.8488,-445.7448 562.8542,-438.8047 552.2682,-439.2378 554.8488,-445.7448"/>
</g>
<!-- a6d3bd8e&#45;0d06&#45;42b9&#45;8bad&#45;618a6fb392b4 -->
<g id="node7" class="node">
<title>a6d3bd8e&#45;0d06&#45;42b9&#45;8bad&#45;618a6fb392b4</title>
<polygon fill="#7fffd4" stroke="#7fffd4" points="796.3081,-819.4019 664.5883,-819.4019 664.5883,-778.1981 796.3081,-778.1981 796.3081,-819.4019"/>
<text text-anchor="middle" x="730.4482" y="-803" font-family="Times,serif" font-size="14.00" fill="#000000">@PerActivity</text>
<text text-anchor="middle" x="730.4482" y="-786.2" font-family="Times,serif" font-size="14.00" fill="#000000">ContactsViewModel</text>
</g>
<!-- 592731c6&#45;2a9f&#45;4559&#45;b5c2&#45;ce8563a8de59&#45;&gt;a6d3bd8e&#45;0d06&#45;42b9&#45;8bad&#45;618a6fb392b4 -->
<g id="edge7" class="edge">
<title>592731c6&#45;2a9f&#45;4559&#45;b5c2&#45;ce8563a8de59&#45;&gt;a6d3bd8e&#45;0d06&#45;42b9&#45;8bad&#45;618a6fb392b4</title>
<path fill="none" stroke="#000000" stroke-dasharray="1,5" d="M418.4999,-798.8C490.7771,-798.8 587.9979,-798.8 654.5827,-798.8"/>
<polygon fill="#000000" stroke="#000000" points="654.5873,-802.3001 664.5873,-798.8 654.5872,-795.3001 654.5873,-802.3001"/>
<text text-anchor="middle" x="497.7873" y="-803" font-family="Times,serif" font-size="14.00" fill="#000000">delegates</text>
</g>
<!-- 52f74bdd&#45;8c5f&#45;4529&#45;ad03&#45;62449f3ba9d7 -->
<g id="node9" class="node">
<title>52f74bdd&#45;8c5f&#45;4529&#45;ad03&#45;62449f3ba9d7</title>
<polygon fill="#7fffd4" stroke="#7fffd4" points="1479.7461,-819.4019 1349.1001,-819.4019 1349.1001,-778.1981 1479.7461,-778.1981 1479.7461,-819.4019"/>
<text text-anchor="middle" x="1414.4231" y="-803" font-family="Times,serif" font-size="14.00" fill="#000000">@PerActivity</text>
<text text-anchor="middle" x="1414.4231" y="-786.2" font-family="Times,serif" font-size="14.00" fill="#000000">AppCompatActivity</text>
</g>
<!-- e5b83cd7&#45;cf08&#45;4378&#45;9d8c&#45;35536aeb312b&#45;&gt;52f74bdd&#45;8c5f&#45;4529&#45;ad03&#45;62449f3ba9d7 -->
<g id="edge8" class="edge">
<title>e5b83cd7&#45;cf08&#45;4378&#45;9d8c&#45;35536aeb312b&#45;&gt;52f74bdd&#45;8c5f&#45;4529&#45;ad03&#45;62449f3ba9d7</title>
<path fill="none" stroke="#000000" d="M1081.4677,-844.8736C1104.3622,-839.2681 1131.4912,-833.1215 1156.2396,-828.8 1217.3965,-818.121 1287.3873,-810.2556 1339.0541,-805.264"/>
<polygon fill="#000000" stroke="#000000" points="1339.5119,-808.7364 1349.1351,-804.304 1338.8483,-801.7679 1339.5119,-808.7364"/>
</g>
<!-- cfd9630d&#45;0c78&#45;40eb&#45;b1c2&#45;b76c336d107f -->
<g id="node11" class="node">
<title>cfd9630d&#45;0c78&#45;40eb&#45;b1c2&#45;b76c336d107f</title>
<polygon fill="#76ee00" stroke="#76ee00" points="1455.4859,-879.4019 1373.3603,-879.4019 1373.3603,-838.1981 1455.4859,-838.1981 1455.4859,-879.4019"/>
<text text-anchor="middle" x="1414.4231" y="-863" font-family="Times,serif" font-size="14.00" fill="#000000">@Singleton</text>
<text text-anchor="middle" x="1414.4231" y="-846.2" font-family="Times,serif" font-size="14.00" fill="#000000">Scheduler</text>
</g>
<!-- e5b83cd7&#45;cf08&#45;4378&#45;9d8c&#45;35536aeb312b&#45;&gt;cfd9630d&#45;0c78&#45;40eb&#45;b1c2&#45;b76c336d107f -->
<g id="edge9" class="edge">
<title>e5b83cd7&#45;cf08&#45;4378&#45;9d8c&#45;35536aeb312b&#45;&gt;cfd9630d&#45;0c78&#45;40eb&#45;b1c2&#45;b76c336d107f</title>
<path fill="none" stroke="#000000" d="M1081.4569,-858.8C1155.7251,-858.8 1289.4517,-858.8 1362.8068,-858.8"/>
<polygon fill="#000000" stroke="#000000" points="1363.1774,-862.3001 1373.1774,-858.8 1363.1773,-855.3001 1363.1774,-862.3001"/>
</g>
<!-- 25c6a916&#45;fed7&#45;4a84&#45;8270&#45;75cbaf8c619a&#45;&gt;d9caa903&#45;ad73&#45;4358&#45;bbe3&#45;034e264045ca -->
<g id="edge10" class="edge">
<title>25c6a916&#45;fed7&#45;4a84&#45;8270&#45;75cbaf8c619a&#45;&gt;d9caa903&#45;ad73&#45;4358&#45;bbe3&#45;034e264045ca</title>
<path fill="none" stroke="#000000" d="M1473.6617,-912.4213C1527.6271,-906.5397 1609.5117,-897.4379 1680.6066,-888.8 1742.1705,-881.3201 1812.8939,-871.9944 1859.5276,-865.7437"/>
<polygon fill="#000000" stroke="#000000" points="1860.2353,-869.1801 1869.6805,-864.3803 1859.3037,-862.2424 1860.2353,-869.1801"/>
</g>
<!-- 2d9f6ea8&#45;5b48&#45;45c9&#45;90e7&#45;0fd64a30de56 -->
<g id="node8" class="node">
<title>2d9f6ea8&#45;5b48&#45;45c9&#45;90e7&#45;0fd64a30de56</title>
<polygon fill="#7fffd4" stroke="#7fffd4" points="1075.0883,-819.4019 981.2183,-819.4019 981.2183,-778.1981 1075.0883,-778.1981 1075.0883,-819.4019"/>
<text text-anchor="middle" x="1028.1533" y="-803" font-family="Times,serif" font-size="14.00" fill="#000000">@PerActivity</text>
<text text-anchor="middle" x="1028.1533" y="-786.2" font-family="Times,serif" font-size="14.00" fill="#000000">Navigator</text>
</g>
<!-- a6d3bd8e&#45;0d06&#45;42b9&#45;8bad&#45;618a6fb392b4&#45;&gt;2d9f6ea8&#45;5b48&#45;45c9&#45;90e7&#45;0fd64a30de56 -->
<g id="edge25" class="edge">
<title>a6d3bd8e&#45;0d06&#45;42b9&#45;8bad&#45;618a6fb392b4&#45;&gt;2d9f6ea8&#45;5b48&#45;45c9&#45;90e7&#45;0fd64a30de56</title>
<path fill="none" stroke="#000000" d="M796.5186,-798.8C848.8144,-798.8 921.0986,-798.8 970.9421,-798.8"/>
<polygon fill="#000000" stroke="#000000" points="971.2223,-802.3001 981.2223,-798.8 971.2222,-795.3001 971.2223,-802.3001"/>
</g>
<!-- 2d9f6ea8&#45;5b48&#45;45c9&#45;90e7&#45;0fd64a30de56&#45;&gt;52f74bdd&#45;8c5f&#45;4529&#45;ad03&#45;62449f3ba9d7 -->
<g id="edge26" class="edge">
<title>2d9f6ea8&#45;5b48&#45;45c9&#45;90e7&#45;0fd64a30de56&#45;&gt;52f74bdd&#45;8c5f&#45;4529&#45;ad03&#45;62449f3ba9d7</title>
<path fill="none" stroke="#000000" d="M1075.1314,-798.8C1140.7461,-798.8 1260.5615,-798.8 1338.8252,-798.8"/>
<polygon fill="#000000" stroke="#000000" points="1339.1069,-802.3001 1349.1068,-798.8 1339.1068,-795.3001 1339.1069,-802.3001"/>
</g>
<!-- fb56b506&#45;0166&#45;4a2e&#45;b552&#45;dfa0252482a6 -->
<g id="node10" class="node">
<title>fb56b506&#45;0166&#45;4a2e&#45;b552&#45;dfa0252482a6</title>
<polygon fill="#40e0d0" stroke="#40e0d0" points="2023.0923,-816.8 1844.4995,-816.8 1798.5569,-780.8 1977.1497,-780.8 2023.0923,-816.8"/>
<text text-anchor="middle" x="1910.8246" y="-794.6" font-family="Times,serif" font-size="14.00" fill="#000000">ContactsActivity</text>
</g>
<!-- 52f74bdd&#45;8c5f&#45;4529&#45;ad03&#45;62449f3ba9d7&#45;&gt;fb56b506&#45;0166&#45;4a2e&#45;b552&#45;dfa0252482a6 -->
<g id="edge27" class="edge">
<title>52f74bdd&#45;8c5f&#45;4529&#45;ad03&#45;62449f3ba9d7&#45;&gt;fb56b506&#45;0166&#45;4a2e&#45;b552&#45;dfa0252482a6</title>
<path fill="none" stroke="#000000" stroke-dasharray="1,5" d="M1479.8294,-798.8C1564.3748,-798.8 1712.4177,-798.8 1811.0443,-798.8"/>
<polygon fill="#000000" stroke="#000000" points="1811.3247,-802.3001 1821.3246,-798.8 1811.3246,-795.3001 1811.3247,-802.3001"/>
<text text-anchor="middle" x="1735.6487" y="-803" font-family="Times,serif" font-size="14.00" fill="#000000">delegates</text>
</g>
<!-- cfd9630d&#45;0c78&#45;40eb&#45;b1c2&#45;b76c336d107f&#45;&gt;d9caa903&#45;ad73&#45;4358&#45;bbe3&#45;034e264045ca -->
<g id="edge11" class="edge">
<title>cfd9630d&#45;0c78&#45;40eb&#45;b1c2&#45;b76c336d107f&#45;&gt;d9caa903&#45;ad73&#45;4358&#45;bbe3&#45;034e264045ca</title>
<path fill="none" stroke="#000000" d="M1455.8922,-858.8C1546.2511,-858.8 1760.6966,-858.8 1859.4365,-858.8"/>
<polygon fill="#000000" stroke="#000000" points="1859.4742,-862.3001 1869.4741,-858.8 1859.4741,-855.3001 1859.4742,-862.3001"/>
</g>
<!-- 8e31d362&#45;80ad&#45;4aa8&#45;b2cb&#45;8a994b19f78b -->
<g id="node13" class="node">
<title>8e31d362&#45;80ad&#45;4aa8&#45;b2cb&#45;8a994b19f78b</title>
<polygon fill="#40e0d0" stroke="#40e0d0" points="1635.4655,-358.8 1193.3807,-358.8 1193.3807,-322.8 1635.4655,-322.8 1635.4655,-358.8"/>
<text text-anchor="middle" x="1414.4231" y="-336.6" font-family="Times,serif" font-size="14.00" fill="#000000">AndroidBindingModule_BindRegionActivity.bindAndroidInjectorFactory()</text>
</g>
<!-- 76fa2d52&#45;3e63&#45;49c2&#45;aaf6&#45;0ac36cead7d6&#45;&gt;8e31d362&#45;80ad&#45;4aa8&#45;b2cb&#45;8a994b19f78b -->
<g id="edge24" class="edge">
<title>76fa2d52&#45;3e63&#45;49c2&#45;aaf6&#45;0ac36cead7d6&#45;&gt;8e31d362&#45;80ad&#45;4aa8&#45;b2cb&#45;8a994b19f78b</title>
<path fill="none" stroke="#000000" d="M769.2169,-402.7775C810.1452,-385.4266 876.9975,-361.8 937.567,-361.8 937.567,-361.8 937.567,-361.8 1118.7396,-361.8 1146.7062,-361.8 1176.1233,-360.8537 1205.115,-359.3629"/>
<polygon fill="#000000" stroke="#000000" points="1205.5509,-362.8446 1215.3489,-358.8135 1205.1756,-355.8547 1205.5509,-362.8446"/>
</g>
<!-- 0a9af08c&#45;3b64&#45;44f2&#45;8624&#45;7cac9d867e99 -->
<g id="node14" class="node">
<title>0a9af08c&#45;3b64&#45;44f2&#45;8624&#45;7cac9d867e99</title>
<polygon fill="#40e0d0" stroke="#40e0d0" points="1640.0151,-412.8 1188.8311,-412.8 1188.8311,-376.8 1640.0151,-376.8 1640.0151,-412.8"/>
<text text-anchor="middle" x="1414.4231" y="-390.6" font-family="Times,serif" font-size="14.00" fill="#000000">AndroidBindingModule_BindContactsActivity.bindAndroidInjectorFactory()</text>
</g>
<!-- 76fa2d52&#45;3e63&#45;49c2&#45;aaf6&#45;0ac36cead7d6&#45;&gt;0a9af08c&#45;3b64&#45;44f2&#45;8624&#45;7cac9d867e99 -->
<g id="edge20" class="edge">
<title>76fa2d52&#45;3e63&#45;49c2&#45;aaf6&#45;0ac36cead7d6&#45;&gt;0a9af08c&#45;3b64&#45;44f2&#45;8624&#45;7cac9d867e99</title>
<path fill="none" stroke="#000000" d="M900.1724,-403.6561C912.8159,-403.1129 925.3854,-402.8 937.567,-402.8 937.567,-402.8 937.567,-402.8 1118.7396,-402.8 1138.1789,-402.8 1158.3345,-402.6251 1178.5694,-402.327"/>
<polygon fill="#000000" stroke="#000000" points="1178.8855,-405.8225 1188.8292,-402.1656 1178.7754,-398.8234 1178.8855,-405.8225"/>
</g>
<!-- 53832ee3&#45;0514&#45;40f7&#45;ab78&#45;90917bb67efc -->
<g id="node15" class="node">
<title>53832ee3&#45;0514&#45;40f7&#45;ab78&#45;90917bb67efc</title>
<polygon fill="#40e0d0" stroke="#40e0d0" points="1642.1632,-466.8 1186.683,-466.8 1186.683,-430.8 1642.1632,-430.8 1642.1632,-466.8"/>
<text text-anchor="middle" x="1414.4231" y="-444.6" font-family="Times,serif" font-size="14.00" fill="#000000">AndroidBindingModule_BindWelcomeActivity.bindAndroidInjectorFactory()</text>
</g>
<!-- 76fa2d52&#45;3e63&#45;49c2&#45;aaf6&#45;0ac36cead7d6&#45;&gt;53832ee3&#45;0514&#45;40f7&#45;ab78&#45;90917bb67efc -->
<g id="edge15" class="edge">
<title>76fa2d52&#45;3e63&#45;49c2&#45;aaf6&#45;0ac36cead7d6&#45;&gt;53832ee3&#45;0514&#45;40f7&#45;ab78&#45;90917bb67efc</title>
<path fill="none" stroke="#000000" d="M898.1929,-438.8052C911.5019,-439.4346 924.7483,-439.8 937.567,-439.8 937.567,-439.8 937.567,-439.8 1118.7396,-439.8 1137.436,-439.8 1156.7943,-439.982 1176.2482,-440.2942"/>
<polygon fill="#000000" stroke="#000000" points="1176.3684,-443.7967 1186.4271,-440.4691 1176.4887,-436.7978 1176.3684,-443.7967"/>
</g>
<!-- 7480b6f8&#45;c42f&#45;4dc0&#45;9b6e&#45;d6111a68a9e6 -->
<g id="node16" class="node">
<title>7480b6f8&#45;c42f&#45;4dc0&#45;9b6e&#45;d6111a68a9e6</title>
<polygon fill="#40e0d0" stroke="#40e0d0" points="1647.5441,-520.8 1181.3021,-520.8 1181.3021,-484.8 1647.5441,-484.8 1647.5441,-520.8"/>
<text text-anchor="middle" x="1414.4231" y="-498.6" font-family="Times,serif" font-size="14.00" fill="#000000">AndroidBindingModule_BindBackgroundService.bindAndroidInjectorFactory()</text>
</g>
<!-- 76fa2d52&#45;3e63&#45;49c2&#45;aaf6&#45;0ac36cead7d6&#45;&gt;7480b6f8&#45;c42f&#45;4dc0&#45;9b6e&#45;d6111a68a9e6 -->
<g id="edge18" class="edge">
<title>76fa2d52&#45;3e63&#45;49c2&#45;aaf6&#45;0ac36cead7d6&#45;&gt;7480b6f8&#45;c42f&#45;4dc0&#45;9b6e&#45;d6111a68a9e6</title>
<path fill="none" stroke="#000000" d="M891.034,-438.8591C894.0972,-440.0966 897.1117,-441.4089 900.067,-442.8 920.694,-452.5097 914.7689,-477.8 937.567,-477.8 937.567,-477.8 937.567,-477.8 1118.7396,-477.8 1161.3061,-477.8 1207.1974,-480.4043 1249.833,-483.9318"/>
<polygon fill="#000000" stroke="#000000" points="1249.7606,-487.4382 1260.0209,-484.7971 1250.353,-480.4633 1249.7606,-487.4382"/>
</g>
<!-- ad90f436&#45;e549&#45;470b&#45;82e8&#45;27dfb331144b -->
<g id="node17" class="node">
<title>ad90f436&#45;e549&#45;470b&#45;82e8&#45;27dfb331144b</title>
<polygon fill="#40e0d0" stroke="#40e0d0" points="1633.0179,-574.8 1195.8283,-574.8 1195.8283,-538.8 1633.0179,-538.8 1633.0179,-574.8"/>
<text text-anchor="middle" x="1414.4231" y="-552.6" font-family="Times,serif" font-size="14.00" fill="#000000">AndroidBindingModule_BindEditorActivity.bindAndroidInjectorFactory()</text>
</g>
<!-- 76fa2d52&#45;3e63&#45;49c2&#45;aaf6&#45;0ac36cead7d6&#45;&gt;ad90f436&#45;e549&#45;470b&#45;82e8&#45;27dfb331144b -->
<g id="edge19" class="edge">
<title>76fa2d52&#45;3e63&#45;49c2&#45;aaf6&#45;0ac36cead7d6&#45;&gt;ad90f436&#45;e549&#45;470b&#45;82e8&#45;27dfb331144b</title>
<path fill="none" stroke="#000000" d="M894.6865,-438.8576C896.5202,-440.1117 898.3151,-441.425 900.067,-442.8 936.4262,-471.3368 891.3464,-539.8 937.567,-539.8 937.567,-539.8 937.567,-539.8 1118.7396,-539.8 1140.463,-539.8 1163.0694,-540.263 1185.6756,-541.0362"/>
<polygon fill="#000000" stroke="#000000" points="1185.5886,-544.5352 1195.7087,-541.3993 1185.8419,-537.5398 1185.5886,-544.5352"/>
</g>
<!-- 356bac40&#45;7950&#45;4bfe&#45;88c4&#45;86d7ee4a056c -->
<g id="node18" class="node">
<title>356bac40&#45;7950&#45;4bfe&#45;88c4&#45;86d7ee4a056c</title>
<polygon fill="#40e0d0" stroke="#40e0d0" points="1672.7902,-628.8 1156.056,-628.8 1156.056,-592.8 1672.7902,-592.8 1672.7902,-628.8"/>
<text text-anchor="middle" x="1414.4231" y="-606.6" font-family="Times,serif" font-size="14.00" fill="#000000">AndroidBindingModule_BindBackgroundServiceReceiver.bindAndroidInjectorFactory()</text>
</g>
<!-- 76fa2d52&#45;3e63&#45;49c2&#45;aaf6&#45;0ac36cead7d6&#45;&gt;356bac40&#45;7950&#45;4bfe&#45;88c4&#45;86d7ee4a056c -->
<g id="edge14" class="edge">
<title>76fa2d52&#45;3e63&#45;49c2&#45;aaf6&#45;0ac36cead7d6&#45;&gt;356bac40&#45;7950&#45;4bfe&#45;88c4&#45;86d7ee4a056c</title>
<path fill="none" stroke="#000000" d="M895.7363,-438.9918C897.2159,-440.2095 898.6604,-441.4783 900.067,-442.8 951.7184,-491.3345 866.6907,-597.8 937.567,-597.8 937.567,-597.8 937.567,-597.8 1118.7396,-597.8 1127.7016,-597.8 1136.8149,-597.8603 1146.0174,-597.9728"/>
<polygon fill="#000000" stroke="#000000" points="1145.9863,-601.4726 1156.035,-598.1149 1146.0857,-594.4733 1145.9863,-601.4726"/>
</g>
<!-- 64c7b220&#45;4871&#45;4859&#45;8c58&#45;c4b3a857f3a0 -->
<g id="node19" class="node">
<title>64c7b220&#45;4871&#45;4859&#45;8c58&#45;c4b3a857f3a0</title>
<polygon fill="#40e0d0" stroke="#40e0d0" points="1632.7466,-682.8 1196.0996,-682.8 1196.0996,-646.8 1632.7466,-646.8 1632.7466,-682.8"/>
<text text-anchor="middle" x="1414.4231" y="-660.6" font-family="Times,serif" font-size="14.00" fill="#000000">AndroidBindingModule_BindStatusActivity.bindAndroidInjectorFactory()</text>
</g>
<!-- 76fa2d52&#45;3e63&#45;49c2&#45;aaf6&#45;0ac36cead7d6&#45;&gt;64c7b220&#45;4871&#45;4859&#45;8c58&#45;c4b3a857f3a0 -->
<g id="edge13" class="edge">
<title>76fa2d52&#45;3e63&#45;49c2&#45;aaf6&#45;0ac36cead7d6&#45;&gt;64c7b220&#45;4871&#45;4859&#45;8c58&#45;c4b3a857f3a0</title>
<path fill="none" stroke="#000000" d="M895.8814,-438.8431C897.3152,-440.1078 898.7113,-441.4261 900.067,-442.8 933.5161,-476.6994 889.9433,-653.8 937.567,-653.8 937.567,-653.8 937.567,-653.8 1118.7396,-653.8 1140.5541,-653.8 1163.2675,-654.1027 1185.9815,-654.6076"/>
<polygon fill="#000000" stroke="#000000" points="1185.9829,-658.1085 1196.0624,-654.8448 1186.1475,-651.1105 1185.9829,-658.1085"/>
</g>
<!-- 3724be28&#45;099f&#45;4415&#45;a457&#45;5e792460c4ce -->
<g id="node20" class="node">
<title>3724be28&#45;099f&#45;4415&#45;a457&#45;5e792460c4ce</title>
<polygon fill="#40e0d0" stroke="#40e0d0" points="1648.3057,-736.8 1180.5405,-736.8 1180.5405,-700.8 1648.3057,-700.8 1648.3057,-736.8"/>
<text text-anchor="middle" x="1414.4231" y="-714.6" font-family="Times,serif" font-size="14.00" fill="#000000">AndroidBindingModule_BindPreferencesActivity.bindAndroidInjectorFactory()</text>
</g>
<!-- 76fa2d52&#45;3e63&#45;49c2&#45;aaf6&#45;0ac36cead7d6&#45;&gt;3724be28&#45;099f&#45;4415&#45;a457&#45;5e792460c4ce -->
<g id="edge16" class="edge">
<title>76fa2d52&#45;3e63&#45;49c2&#45;aaf6&#45;0ac36cead7d6&#45;&gt;3724be28&#45;099f&#45;4415&#45;a457&#45;5e792460c4ce</title>
<path fill="none" stroke="#000000" d="M896.2563,-439.0923C897.5603,-440.2812 898.8313,-441.5166 900.067,-442.8 940.0984,-484.3766 879.8511,-699.8 937.567,-699.8 937.567,-699.8 937.567,-699.8 1118.7396,-699.8 1135.5098,-699.8 1152.804,-700.1081 1170.2168,-700.6459"/>
<polygon fill="#000000" stroke="#000000" points="1170.3686,-704.1529 1180.4798,-700.9885 1170.6022,-697.1568 1170.3686,-704.1529"/>
</g>
<!-- f05f336b&#45;391d&#45;4424&#45;ac37&#45;452fa7860491 -->
<g id="node21" class="node">
<title>f05f336b&#45;391d&#45;4424&#45;ac37&#45;452fa7860491</title>
<polygon fill="#40e0d0" stroke="#40e0d0" points="1628.1828,-88.8 1200.6634,-88.8 1200.6634,-52.8 1628.1828,-52.8 1628.1828,-88.8"/>
<text text-anchor="middle" x="1414.4231" y="-66.6" font-family="Times,serif" font-size="14.00" fill="#000000">AndroidBindingModule_BindMapActivity.bindAndroidInjectorFactory()</text>
</g>
<!-- 76fa2d52&#45;3e63&#45;49c2&#45;aaf6&#45;0ac36cead7d6&#45;&gt;f05f336b&#45;391d&#45;4424&#45;ac37&#45;452fa7860491 -->
<g id="edge22" class="edge">
<title>76fa2d52&#45;3e63&#45;49c2&#45;aaf6&#45;0ac36cead7d6&#45;&gt;f05f336b&#45;391d&#45;4424&#45;ac37&#45;452fa7860491</title>
<path fill="none" stroke="#000000" d="M733.0148,-402.452C743.729,-333.9119 791.3601,-96.8 937.567,-96.8 937.567,-96.8 937.567,-96.8 1118.7396,-96.8 1163.8935,-96.8 1212.7776,-93.754 1257.5483,-89.7472"/>
<polygon fill="#000000" stroke="#000000" points="1257.9938,-93.2211 1267.6324,-88.8224 1257.3546,-86.2503 1257.9938,-93.2211"/>
</g>
<!-- fe1194f6&#45;7514&#45;4967&#45;833b&#45;f09f12200428 -->
<g id="node22" class="node">
<title>fe1194f6&#45;7514&#45;4967&#45;833b&#45;f09f12200428</title>
<polygon fill="#40e0d0" stroke="#40e0d0" points="1647.2697,-142.8 1181.5765,-142.8 1181.5765,-106.8 1647.2697,-106.8 1647.2697,-142.8"/>
<text text-anchor="middle" x="1414.4231" y="-120.6" font-family="Times,serif" font-size="14.00" fill="#000000">AndroidBindingModule_BindLogViewerActivity.bindAndroidInjectorFactory()</text>
</g>
<!-- 76fa2d52&#45;3e63&#45;49c2&#45;aaf6&#45;0ac36cead7d6&#45;&gt;fe1194f6&#45;7514&#45;4967&#45;833b&#45;f09f12200428 -->
<g id="edge21" class="edge">
<title>76fa2d52&#45;3e63&#45;49c2&#45;aaf6&#45;0ac36cead7d6&#45;&gt;fe1194f6&#45;7514&#45;4967&#45;833b&#45;f09f12200428</title>
<path fill="none" stroke="#000000" d="M735.5344,-402.6049C752.9744,-344.5943 816.0898,-167.8 937.567,-167.8 937.567,-167.8 937.567,-167.8 1118.7396,-167.8 1136.8599,-167.8 1138.6995,-156.3487 1156.2396,-151.8 1166.1574,-149.228 1176.3499,-146.8999 1186.6901,-144.7926"/>
<polygon fill="#000000" stroke="#000000" points="1187.506,-148.1994 1196.6449,-142.8392 1186.1581,-141.3304 1187.506,-148.1994"/>
</g>
<!-- 378830bc&#45;ee10&#45;4e42&#45;80b0&#45;f1590465b1a9 -->
<g id="node23" class="node">
<title>378830bc&#45;ee10&#45;4e42&#45;80b0&#45;f1590465b1a9</title>
<polygon fill="#40e0d0" stroke="#40e0d0" points="1629.7907,-196.8 1199.0555,-196.8 1199.0555,-160.8 1629.7907,-160.8 1629.7907,-196.8"/>
<text text-anchor="middle" x="1414.4231" y="-174.6" font-family="Times,serif" font-size="14.00" fill="#000000">AndroidBindingModule_BindLoadActivity.bindAndroidInjectorFactory()</text>
</g>
<!-- 76fa2d52&#45;3e63&#45;49c2&#45;aaf6&#45;0ac36cead7d6&#45;&gt;378830bc&#45;ee10&#45;4e42&#45;80b0&#45;f1590465b1a9 -->
<g id="edge23" class="edge">
<title>76fa2d52&#45;3e63&#45;49c2&#45;aaf6&#45;0ac36cead7d6&#45;&gt;378830bc&#45;ee10&#45;4e42&#45;80b0&#45;f1590465b1a9</title>
<path fill="none" stroke="#000000" d="M737.8989,-402.7052C760.0721,-352.1001 830.8042,-212.8 937.567,-212.8 937.567,-212.8 937.567,-212.8 1118.7396,-212.8 1135.6942,-212.8 1139.4614,-208.2392 1156.2396,-205.8 1175.3162,-203.0266 1195.2257,-200.4262 1215.1572,-198.0185"/>
<polygon fill="#000000" stroke="#000000" points="1215.742,-201.4737 1225.2575,-196.8147 1214.9135,-194.5229 1215.742,-201.4737"/>
</g>
<!-- 4e477cc2&#45;0593&#45;40be&#45;b260&#45;4311c8b75af4 -->
<g id="node24" class="node">
<title>4e477cc2&#45;0593&#45;40be&#45;b260&#45;4311c8b75af4</title>
<polygon fill="#40e0d0" stroke="#40e0d0" points="1638.4099,-250.8 1190.4363,-250.8 1190.4363,-214.8 1638.4099,-214.8 1638.4099,-250.8"/>
<text text-anchor="middle" x="1414.4231" y="-228.6" font-family="Times,serif" font-size="14.00" fill="#000000">AndroidBindingModule_BindRegionsActivity.bindAndroidInjectorFactory()</text>
</g>
<!-- 76fa2d52&#45;3e63&#45;49c2&#45;aaf6&#45;0ac36cead7d6&#45;&gt;4e477cc2&#45;0593&#45;40be&#45;b260&#45;4311c8b75af4 -->
<g id="edge17" class="edge">
<title>76fa2d52&#45;3e63&#45;49c2&#45;aaf6&#45;0ac36cead7d6&#45;&gt;4e477cc2&#45;0593&#45;40be&#45;b260&#45;4311c8b75af4</title>
<path fill="none" stroke="#000000" d="M741.4607,-402.7334C768.869,-360.2943 844.6782,-257.8 937.567,-257.8 937.567,-257.8 937.567,-257.8 1118.7396,-257.8 1161.3061,-257.8 1207.1974,-255.1957 1249.833,-251.6682"/>
<polygon fill="#000000" stroke="#000000" points="1250.353,-255.1367 1260.0209,-250.8029 1249.7606,-248.1618 1250.353,-255.1367"/>
</g>
<!-- c9a37278&#45;725b&#45;4595&#45;9072&#45;ca3e1434e44b -->
<g id="node25" class="node">
<title>c9a37278&#45;725b&#45;4595&#45;9072&#45;ca3e1434e44b</title>
<polygon fill="#40e0d0" stroke="#40e0d0" points="1647.5706,-304.8 1181.2756,-304.8 1181.2756,-268.8 1647.5706,-268.8 1647.5706,-304.8"/>
<text text-anchor="middle" x="1414.4231" y="-282.6" font-family="Times,serif" font-size="14.00" fill="#000000">AndroidBindingModule_BindConnectionActivity.bindAndroidInjectorFactory()</text>
</g>
<!-- 76fa2d52&#45;3e63&#45;49c2&#45;aaf6&#45;0ac36cead7d6&#45;&gt;c9a37278&#45;725b&#45;4595&#45;9072&#45;ca3e1434e44b -->
<g id="edge12" class="edge">
<title>76fa2d52&#45;3e63&#45;49c2&#45;aaf6&#45;0ac36cead7d6&#45;&gt;c9a37278&#45;725b&#45;4595&#45;9072&#45;ca3e1434e44b</title>
<path fill="none" stroke="#000000" d="M747.6823,-402.7752C781.0156,-369.9557 858.067,-303.8 937.567,-303.8 937.567,-303.8 937.567,-303.8 1118.7396,-303.8 1135.7178,-303.8 1153.2354,-303.5172 1170.8707,-303.0245"/>
<polygon fill="#000000" stroke="#000000" points="1171.3748,-306.511 1181.2646,-302.7107 1171.1635,-299.5142 1171.3748,-306.511"/>
</g>
</g>
</svg>
