<svg width="613px" height="153px"
 viewBox="0.00 0.00 612.78 152.60" xmlns="http://www.w3.org/2000/svg" xmlns:xlink="http://www.w3.org/1999/xlink">
<g id="graph0" class="graph" transform="scale(1.0 1.0) rotate(0) translate(14.4 138.2)">
<title>org.owntracks.android.ui.welcome.intro.IntroFragmentModule</title>
<polygon fill="#ffffff" stroke="transparent" points="-14.4,14.4 -14.4,-138.2 598.3756,-138.2 598.3756,14.4 -14.4,14.4"/>
<text text-anchor="middle" x="70.2076" y="-8.2" font-family="Times,serif" font-size="14.00" fill="#000000">IntroFragmentModule</text>
<g id="clust2" class="cluster">
<title>cluster_Dependency Graph</title>
<polygon fill="none" stroke="#000000" points="8,-32.8 8,-115.8 575.9756,-115.8 575.9756,-32.8 8,-32.8"/>
<text text-anchor="middle" x="70.2234" y="-99.2" font-family="Times,serif" font-size="14.00" fill="#000000">Dependency Graph</text>
</g>
<!-- f7e0f4f9&#45;935c&#45;42f9&#45;921e&#45;f7de20f823c0 -->
<g id="node1" class="node">
<title>f7e0f4f9&#45;935c&#45;42f9&#45;921e&#45;f7de20f823c0</title>
<polygon fill="#7fffd4" stroke="#7fffd4" points="117.3062,-82.4019 15.8978,-82.4019 15.8978,-41.1981 117.3062,-41.1981 117.3062,-82.4019"/>
<text text-anchor="middle" x="66.602" y="-66" font-family="Times,serif" font-size="14.00" fill="#000000">@PerFragment</text>
<text text-anchor="middle" x="66.602" y="-49.2" font-family="Times,serif" font-size="14.00" fill="#000000">Fragment</text>
</g>
<!-- 57193928&#45;483e&#45;47d6&#45;aa63&#45;466de0c84b50 -->
<g id="node2" class="node">
<title>57193928&#45;483e&#45;47d6&#45;aa63&#45;466de0c84b50</title>
<polygon fill="#ff3030" stroke="#ff3030" points="567.8195,-79.8 243.4443,-79.8 243.4443,-43.8 567.8195,-43.8 567.8195,-79.8"/>
<text text-anchor="middle" x="405.6319" y="-57.6" font-family="Times,serif" font-size="14.00" fill="#000000">org.owntracks.android.ui.welcome.intro.IntroFragment</text>
</g>
<!-- f7e0f4f9&#45;935c&#45;42f9&#45;921e&#45;f7de20f823c0&#45;&gt;57193928&#45;483e&#45;47d6&#45;aa63&#45;466de0c84b50 -->
<g id="edge1" class="edge">
<title>f7e0f4f9&#45;935c&#45;42f9&#45;921e&#45;f7de20f823c0&#45;&gt;57193928&#45;483e&#45;47d6&#45;aa63&#45;466de0c84b50</title>
<path fill="none" stroke="#000000" stroke-dasharray="5,2" d="M117.3582,-61.8C148.6535,-61.8 190.8014,-61.8 233.1931,-61.8"/>
<polygon fill="#000000" stroke="#000000" points="233.3879,-65.3001 243.3878,-61.8 233.3878,-58.3001 233.3879,-65.3001"/>
<text text-anchor="middle" x="180.2461" y="-66" font-family="Times,serif" font-size="14.00" fill="#000000">delegates</text>
<text text-anchor="middle" x="197.6897" y="-49.2" font-family="Times,serif" font-size="14.00" fill="#000000">Missing binding</text>
</g>
</g>
</svg>
