<svg width="2664px" height="589px"
 viewBox="0.00 0.00 2664.04 588.60" xmlns="http://www.w3.org/2000/svg" xmlns:xlink="http://www.w3.org/1999/xlink">
<g id="graph0" class="graph" transform="scale(1.0 1.0) rotate(0) translate(14.4 574.2)">
<title>org.owntracks.android.ui.map.MapActivityModule</title>
<polygon fill="#ffffff" stroke="transparent" points="-14.4,14.4 -14.4,-574.2 2649.6372,-574.2 2649.6372,14.4 -14.4,14.4"/>
<text text-anchor="middle" x="65.5463" y="-8.2" font-family="Times,serif" font-size="14.00" fill="#000000">MapActivityModule</text>
<g id="clust2" class="cluster">
<title>cluster_Dependency Graph</title>
<polygon fill="none" stroke="#000000" points="8,-32.8 8,-551.8 2627.2372,-551.8 2627.2372,-32.8 8,-32.8"/>
<text text-anchor="middle" x="70.2234" y="-535.2" font-family="Times,serif" font-size="14.00" fill="#000000">Dependency Graph</text>
</g>
<!-- dfdc7184&#45;4402&#45;4d12&#45;9773&#45;6b595919744b -->
<g id="node1" class="node">
<title>dfdc7184&#45;4402&#45;4d12&#45;9773&#45;6b595919744b</title>
<polygon fill="#7fffd4" stroke="#7fffd4" points="913.2457,-507.4019 782.5997,-507.4019 782.5997,-466.1981 913.2457,-466.1981 913.2457,-507.4019"/>
<text text-anchor="middle" x="847.9227" y="-491" font-family="Times,serif" font-size="14.00" fill="#000000">@PerActivity</text>
<text text-anchor="middle" x="847.9227" y="-474.2" font-family="Times,serif" font-size="14.00" fill="#000000">AppCompatActivity</text>
</g>
<!-- f828c3ca&#45;6847&#45;417c&#45;824c&#45;0350685663fe -->
<g id="node2" class="node">
<title>f828c3ca&#45;6847&#45;417c&#45;824c&#45;0350685663fe</title>
<polygon fill="#ff3030" stroke="#ff3030" points="1515.9784,-518.8 1256.9852,-518.8 1256.9852,-482.8 1515.9784,-482.8 1515.9784,-518.8"/>
<text text-anchor="middle" x="1386.4818" y="-496.6" font-family="Times,serif" font-size="14.00" fill="#000000">org.owntracks.android.ui.map.MapActivity</text>
</g>
<!-- dfdc7184&#45;4402&#45;4d12&#45;9773&#45;6b595919744b&#45;&gt;f828c3ca&#45;6847&#45;417c&#45;824c&#45;0350685663fe -->
<g id="edge2" class="edge">
<title>dfdc7184&#45;4402&#45;4d12&#45;9773&#45;6b595919744b&#45;&gt;f828c3ca&#45;6847&#45;417c&#45;824c&#45;0350685663fe</title>
<path fill="none" stroke="#000000" stroke-dasharray="5,2" d="M913.1536,-488.4957C995.4239,-490.6343 1139.1135,-494.3696 1246.6555,-497.1652"/>
<polygon fill="#000000" stroke="#000000" points="1246.859,-500.6716 1256.9466,-497.4327 1247.041,-493.6739 1246.859,-500.6716"/>
<text text-anchor="middle" x="1143.3513" y="-499" font-family="Times,serif" font-size="14.00" fill="#000000">delegates</text>
<text text-anchor="middle" x="1211.2485" y="-484.8327" font-family="Times,serif" font-size="14.00" fill="#000000">Missing binding</text>
</g>
<!-- d718a401&#45;d264&#45;46ee&#45;bd16&#45;94beb462bba6 -->
<g id="node3" class="node">
<title>d718a401&#45;d264&#45;46ee&#45;bd16&#45;94beb462bba6</title>
<polygon fill="#40e0d0" stroke="#40e0d0" points="277.9469,-206.8 16.0177,-206.8 16.0177,-170.8 277.9469,-170.8 277.9469,-206.8"/>
<text text-anchor="middle" x="146.9823" y="-184.6" font-family="Times,serif" font-size="14.00" fill="#000000">MapMvvm.ViewModel&lt;MapMvvm.View&gt;</text>
</g>
<!-- abdaaadd&#45;56bd&#45;4e23&#45;8fb9&#45;4716b2476e9f -->
<g id="node4" class="node">
<title>abdaaadd&#45;56bd&#45;4e23&#45;8fb9&#45;4716b2476e9f</title>
<polygon fill="#7fffd4" stroke="#7fffd4" points="512.3409,-209.4019 404.2841,-209.4019 404.2841,-168.1981 512.3409,-168.1981 512.3409,-209.4019"/>
<text text-anchor="middle" x="458.3125" y="-193" font-family="Times,serif" font-size="14.00" fill="#000000">@PerActivity</text>
<text text-anchor="middle" x="458.3125" y="-176.2" font-family="Times,serif" font-size="14.00" fill="#000000">MapViewModel</text>
</g>
<!-- d718a401&#45;d264&#45;46ee&#45;bd16&#45;94beb462bba6&#45;&gt;abdaaadd&#45;56bd&#45;4e23&#45;8fb9&#45;4716b2476e9f -->
<g id="edge3" class="edge">
<title>d718a401&#45;d264&#45;46ee&#45;bd16&#45;94beb462bba6&#45;&gt;abdaaadd&#45;56bd&#45;4e23&#45;8fb9&#45;4716b2476e9f</title>
<path fill="none" stroke="#000000" stroke-dasharray="1,5" d="M278.112,-188.8C318.1719,-188.8 360.4555,-188.8 393.9886,-188.8"/>
<polygon fill="#000000" stroke="#000000" points="394.1024,-192.3001 404.1024,-188.8 394.1023,-185.3001 394.1024,-192.3001"/>
<text text-anchor="middle" x="341.0067" y="-193" font-family="Times,serif" font-size="14.00" fill="#000000">delegates</text>
</g>
<!-- 8e1abb52&#45;3a69&#45;485f&#45;9d45&#45;0bd76cb0b0c9 -->
<g id="node5" class="node">
<title>8e1abb52&#45;3a69&#45;485f&#45;9d45&#45;0bd76cb0b0c9</title>
<polygon fill="#ff3030" stroke="#ff3030" points="1528.6224,-96.8 1244.3412,-96.8 1244.3412,-60.8 1528.6224,-60.8 1528.6224,-96.8"/>
<text text-anchor="middle" x="1386.4818" y="-74.6" font-family="Times,serif" font-size="14.00" fill="#000000">org.owntracks.android.data.repos.ContactsRepo</text>
</g>
<!-- abdaaadd&#45;56bd&#45;4e23&#45;8fb9&#45;4716b2476e9f&#45;&gt;8e1abb52&#45;3a69&#45;485f&#45;9d45&#45;0bd76cb0b0c9 -->
<g id="edge4" class="edge">
<title>abdaaadd&#45;56bd&#45;4e23&#45;8fb9&#45;4716b2476e9f&#45;&gt;8e1abb52&#45;3a69&#45;485f&#45;9d45&#45;0bd76cb0b0c9</title>
<path fill="none" stroke="#000000" stroke-dasharray="5,2" d="M466.3442,-168.0799C479.2146,-138.7893 507.4273,-88.8 550.0762,-88.8 550.0762,-88.8 550.0762,-88.8 847.9227,-88.8 978.151,-88.8 1126.0621,-85.8409 1233.8821,-83.1421"/>
<polygon fill="#000000" stroke="#000000" points="1234.2807,-86.6332 1244.1892,-82.8818 1234.104,-79.6354 1234.2807,-86.6332"/>
<text text-anchor="middle" x="1198.4911" y="-70.2818" font-family="Times,serif" font-size="14.00" fill="#000000">Missing binding</text>
</g>
<!-- 2fb43b3b&#45;694b&#45;4a28&#45;b6a0&#45;cc062f183afd -->
<g id="node6" class="node">
<title>2fb43b3b&#45;694b&#45;4a28&#45;b6a0&#45;cc062f183afd</title>
<polygon fill="#ffe4c4" stroke="#ffe4c4" points="707.8541,-249.4019 587.4835,-249.4019 587.4835,-208.1981 707.8541,-208.1981 707.8541,-249.4019"/>
<text text-anchor="middle" x="647.6688" y="-233" font-family="Times,serif" font-size="14.00" fill="#000000">@Singleton</text>
<text text-anchor="middle" x="647.6688" y="-216.2" font-family="Times,serif" font-size="14.00" fill="#000000">LocationProcessor</text>
</g>
<!-- abdaaadd&#45;56bd&#45;4e23&#45;8fb9&#45;4716b2476e9f&#45;&gt;2fb43b3b&#45;694b&#45;4a28&#45;b6a0&#45;cc062f183afd -->
<g id="edge6" class="edge">
<title>abdaaadd&#45;56bd&#45;4e23&#45;8fb9&#45;4716b2476e9f&#45;&gt;2fb43b3b&#45;694b&#45;4a28&#45;b6a0&#45;cc062f183afd</title>
<path fill="none" stroke="#000000" d="M512.5744,-200.2624C532.7641,-204.5273 555.9725,-209.4299 577.3925,-213.9547"/>
<polygon fill="#000000" stroke="#000000" points="576.9083,-217.4296 587.4158,-216.072 578.3551,-210.5807 576.9083,-217.4296"/>
</g>
<!-- 1b6f8ced&#45;2d13&#45;42aa&#45;aa26&#45;3cadf20aad3a -->
<g id="node7" class="node">
<title>1b6f8ced&#45;2d13&#45;42aa&#45;aa26&#45;3cadf20aad3a</title>
<polygon fill="#ffe4c4" stroke="#ffe4c4" points="907.8232,-249.4019 788.0222,-249.4019 788.0222,-208.1981 907.8232,-208.1981 907.8232,-249.4019"/>
<text text-anchor="middle" x="847.9227" y="-233" font-family="Times,serif" font-size="14.00" fill="#000000">@Singleton</text>
<text text-anchor="middle" x="847.9227" y="-216.2" font-family="Times,serif" font-size="14.00" fill="#000000">MessageProcessor</text>
</g>
<!-- abdaaadd&#45;56bd&#45;4e23&#45;8fb9&#45;4716b2476e9f&#45;&gt;1b6f8ced&#45;2d13&#45;42aa&#45;aa26&#45;3cadf20aad3a -->
<g id="edge5" class="edge">
<title>abdaaadd&#45;56bd&#45;4e23&#45;8fb9&#45;4716b2476e9f&#45;&gt;1b6f8ced&#45;2d13&#45;42aa&#45;aa26&#45;3cadf20aad3a</title>
<path fill="none" stroke="#000000" d="M512.7233,-172.944C524.9076,-170.5166 537.8473,-168.8 550.0762,-168.8 550.0762,-168.8 550.0762,-168.8 745.2614,-168.8 773.2597,-168.8 800.406,-185.6403 819.7447,-201.4775"/>
<polygon fill="#000000" stroke="#000000" points="817.6632,-204.3031 827.5345,-208.1514 822.2176,-198.9872 817.6632,-204.3031"/>
</g>
<!-- c921f481&#45;e3f9&#45;4a9a&#45;89f5&#45;36302a4d9fb3 -->
<g id="node8" class="node">
<title>c921f481&#45;e3f9&#45;4a9a&#45;89f5&#45;36302a4d9fb3</title>
<polygon fill="#7fffd4" stroke="#7fffd4" points="694.6038,-403.4019 600.7338,-403.4019 600.7338,-362.1981 694.6038,-362.1981 694.6038,-403.4019"/>
<text text-anchor="middle" x="647.6688" y="-387" font-family="Times,serif" font-size="14.00" fill="#000000">@PerActivity</text>
<text text-anchor="middle" x="647.6688" y="-370.2" font-family="Times,serif" font-size="14.00" fill="#000000">Navigator</text>
</g>
<!-- abdaaadd&#45;56bd&#45;4e23&#45;8fb9&#45;4716b2476e9f&#45;&gt;c921f481&#45;e3f9&#45;4a9a&#45;89f5&#45;36302a4d9fb3 -->
<g id="edge7" class="edge">
<title>abdaaadd&#45;56bd&#45;4e23&#45;8fb9&#45;4716b2476e9f&#45;&gt;c921f481&#45;e3f9&#45;4a9a&#45;89f5&#45;36302a4d9fb3</title>
<path fill="none" stroke="#000000" d="M478.5769,-209.5614C512.7448,-244.5672 581.8423,-315.3592 620.2889,-354.7486"/>
<polygon fill="#000000" stroke="#000000" points="618.0605,-357.4764 627.5501,-362.1879 623.0698,-352.5869 618.0605,-357.4764"/>
</g>
<!-- 2fb43b3b&#45;694b&#45;4a28&#45;b6a0&#45;cc062f183afd&#45;&gt;1b6f8ced&#45;2d13&#45;42aa&#45;aa26&#45;3cadf20aad3a -->
<g id="edge12" class="edge">
<title>2fb43b3b&#45;694b&#45;4a28&#45;b6a0&#45;cc062f183afd&#45;&gt;1b6f8ced&#45;2d13&#45;42aa&#45;aa26&#45;3cadf20aad3a</title>
<path fill="none" stroke="#000000" d="M708.0231,-222.5475C729.994,-221.9687 755.0158,-221.8949 777.7642,-222.3262"/>
<polygon fill="#000000" stroke="#000000" points="777.96,-225.8315 788.037,-222.5599 778.1193,-218.8333 777.96,-225.8315"/>
</g>
<!-- 64c0a41d&#45;b562&#45;4fd8&#45;9f89&#45;deee0efe03ad -->
<g id="node9" class="node">
<title>64c0a41d&#45;b562&#45;4fd8&#45;9f89&#45;deee0efe03ad</title>
<polygon fill="#ffe4c4" stroke="#ffe4c4" points="2075.0072,-217.4019 1992.8816,-217.4019 1992.8816,-176.1981 2075.0072,-176.1981 2075.0072,-217.4019"/>
<text text-anchor="middle" x="2033.9444" y="-201" font-family="Times,serif" font-size="14.00" fill="#000000">@Singleton</text>
<text text-anchor="middle" x="2033.9444" y="-184.2" font-family="Times,serif" font-size="14.00" fill="#000000">Preferences</text>
</g>
<!-- 2fb43b3b&#45;694b&#45;4a28&#45;b6a0&#45;cc062f183afd&#45;&gt;64c0a41d&#45;b562&#45;4fd8&#45;9f89&#45;deee0efe03ad -->
<g id="edge13" class="edge">
<title>2fb43b3b&#45;694b&#45;4a28&#45;b6a0&#45;cc062f183afd&#45;&gt;64c0a41d&#45;b562&#45;4fd8&#45;9f89&#45;deee0efe03ad</title>
<path fill="none" stroke="#000000" d="M658.0316,-249.6807C681.3265,-296.3012 736.4831,-404.8 745.2614,-404.8 745.2614,-404.8 745.2614,-404.8 1004.3891,-404.8 1087.45,-404.8 1109.7315,-397.6776 1191.0084,-414.8 1208.213,-418.4245 1210.772,-425.3299 1228.0084,-428.8 1319.802,-447.2802 1555.465,-443.8 1649.1004,-443.8 1649.1004,-443.8 1649.1004,-443.8 1955.1636,-443.8 2000.0387,-443.8 2022.8027,-293.9472 2030.675,-227.6835"/>
<polygon fill="#000000" stroke="#000000" points="2034.1882,-227.7684 2031.8526,-217.4342 2027.234,-226.9694 2034.1882,-227.7684"/>
</g>
<!-- c202c054&#45;49c4&#45;4bf2&#45;8396&#45;34d4a9971613 -->
<g id="node10" class="node">
<title>c202c054&#45;49c4&#45;4bf2&#45;8396&#45;34d4a9971613</title>
<polygon fill="#ffe4c4" stroke="#ffe4c4" points="1191.166,-465.4019 1095.5366,-465.4019 1095.5366,-424.1981 1191.166,-424.1981 1191.166,-465.4019"/>
<text text-anchor="middle" x="1143.3513" y="-449" font-family="Times,serif" font-size="14.00" fill="#000000">@Singleton</text>
<text text-anchor="middle" x="1143.3513" y="-432.2" font-family="Times,serif" font-size="14.00" fill="#000000">LocationRepo</text>
</g>
<!-- 2fb43b3b&#45;694b&#45;4a28&#45;b6a0&#45;cc062f183afd&#45;&gt;c202c054&#45;49c4&#45;4bf2&#45;8396&#45;34d4a9971613 -->
<g id="edge11" class="edge">
<title>2fb43b3b&#45;694b&#45;4a28&#45;b6a0&#45;cc062f183afd&#45;&gt;c202c054&#45;49c4&#45;4bf2&#45;8396&#45;34d4a9971613</title>
<path fill="none" stroke="#000000" d="M658.8238,-249.4453C671.6696,-273.7236 692.9075,-315.4559 707.7614,-352.8 717.5802,-377.4854 705.0086,-393.2139 725.7614,-409.8 779.8132,-452.9995 984.0927,-451.325 1085.5085,-447.612"/>
<polygon fill="#000000" stroke="#000000" points="1085.7253,-451.1063 1095.5831,-447.2239 1085.4558,-444.1115 1085.7253,-451.1063"/>
</g>
<!-- 06fddcfc&#45;fdcd&#45;4c96&#45;abfd&#45;a397f566516b -->
<g id="node11" class="node">
<title>06fddcfc&#45;fdcd&#45;4c96&#45;abfd&#45;a397f566516b</title>
<polygon fill="#ff3030" stroke="#ff3030" points="1534.7858,-404.8 1238.1778,-404.8 1238.1778,-368.8 1534.7858,-368.8 1534.7858,-404.8"/>
<text text-anchor="middle" x="1386.4818" y="-382.6" font-family="Times,serif" font-size="14.00" fill="#000000">org.owntracks.android.data.repos.WaypointsRepo</text>
</g>
<!-- 2fb43b3b&#45;694b&#45;4a28&#45;b6a0&#45;cc062f183afd&#45;&gt;06fddcfc&#45;fdcd&#45;4c96&#45;abfd&#45;a397f566516b -->
<g id="edge14" class="edge">
<title>2fb43b3b&#45;694b&#45;4a28&#45;b6a0&#45;cc062f183afd&#45;&gt;06fddcfc&#45;fdcd&#45;4c96&#45;abfd&#45;a397f566516b</title>
<path fill="none" stroke="#000000" stroke-dasharray="5,2" d="M652.6577,-249.425C663.0057,-286.55 690.5416,-360.8 745.2614,-360.8 745.2614,-360.8 745.2614,-360.8 1143.3513,-360.8 1179.9229,-360.8 1219.4142,-363.7445 1255.7185,-367.6516"/>
<polygon fill="#000000" stroke="#000000" points="1255.5437,-371.1536 1265.8686,-368.7776 1256.3155,-364.1963 1255.5437,-371.1536"/>
<text text-anchor="middle" x="1220.1705" y="-356.1776" font-family="Times,serif" font-size="14.00" fill="#000000">Missing binding</text>
</g>
<!-- 9c129030&#45;d69d&#45;4696&#45;8539&#45;f868e3f42b12 -->
<g id="node12" class="node">
<title>9c129030&#45;d69d&#45;4696&#45;8539&#45;f868e3f42b12</title>
<polygon fill="#ffe4c4" stroke="#ffe4c4" points="1077.4998,-82.4019 931.2784,-82.4019 931.2784,-41.1981 1077.4998,-41.1981 1077.4998,-82.4019"/>
<text text-anchor="middle" x="1004.3891" y="-66" font-family="Times,serif" font-size="14.00" fill="#000000">@Singleton</text>
<text text-anchor="middle" x="1004.3891" y="-49.2" font-family="Times,serif" font-size="14.00" fill="#000000">DeviceMetricsProvider</text>
</g>
<!-- 2fb43b3b&#45;694b&#45;4a28&#45;b6a0&#45;cc062f183afd&#45;&gt;9c129030&#45;d69d&#45;4696&#45;8539&#45;f868e3f42b12 -->
<g id="edge10" class="edge">
<title>2fb43b3b&#45;694b&#45;4a28&#45;b6a0&#45;cc062f183afd&#45;&gt;9c129030&#45;d69d&#45;4696&#45;8539&#45;f868e3f42b12</title>
<path fill="none" stroke="#000000" d="M690.1969,-208.0051C745.4575,-181.1083 845.0569,-133.0527 931.084,-93.8 936.1373,-91.4942 941.4012,-89.1278 946.6864,-86.7759"/>
<polygon fill="#000000" stroke="#000000" points="948.4533,-89.8215 956.182,-82.5745 945.6209,-83.4201 948.4533,-89.8215"/>
</g>
<!-- 1b6f8ced&#45;2d13&#45;42aa&#45;aa26&#45;3cadf20aad3a&#45;&gt;8e1abb52&#45;3a69&#45;485f&#45;9d45&#45;0bd76cb0b0c9 -->
<g id="edge8" class="edge">
<title>1b6f8ced&#45;2d13&#45;42aa&#45;aa26&#45;3cadf20aad3a&#45;&gt;8e1abb52&#45;3a69&#45;485f&#45;9d45&#45;0bd76cb0b0c9</title>
<path fill="none" stroke="#000000" stroke-dasharray="5,2" d="M897.0926,-208.0705C903.0623,-204.0067 908.6174,-199.271 913.084,-193.8 930.6911,-172.2338 909.786,-151.7306 931.084,-133.8 942.8451,-123.8985 1106.1621,-105.9262 1233.8898,-93.2249"/>
<polygon fill="#000000" stroke="#000000" points="1234.5787,-96.6738 1244.1848,-92.2048 1233.8884,-89.708 1234.5787,-96.6738"/>
<text text-anchor="middle" x="1198.4867" y="-96.4048" font-family="Times,serif" font-size="14.00" fill="#000000">Missing binding</text>
</g>
<!-- 1b6f8ced&#45;2d13&#45;42aa&#45;aa26&#45;3cadf20aad3a&#45;&gt;2fb43b3b&#45;694b&#45;4a28&#45;b6a0&#45;cc062f183afd -->
<g id="edge9" class="edge">
<title>1b6f8ced&#45;2d13&#45;42aa&#45;aa26&#45;3cadf20aad3a&#45;&gt;2fb43b3b&#45;694b&#45;4a28&#45;b6a0&#45;cc062f183afd</title>
<path fill="none" stroke="#000000" d="M788.037,-235.0401C766.1098,-235.6261 741.0939,-235.707 718.3134,-235.2829"/>
<polygon fill="#000000" stroke="#000000" points="718.099,-231.7773 708.0231,-235.0525 717.9423,-238.7756 718.099,-231.7773"/>
</g>
<!-- 1b6f8ced&#45;2d13&#45;42aa&#45;aa26&#45;3cadf20aad3a&#45;&gt;64c0a41d&#45;b562&#45;4fd8&#45;9f89&#45;deee0efe03ad -->
<g id="edge21" class="edge">
<title>1b6f8ced&#45;2d13&#45;42aa&#45;aa26&#45;3cadf20aad3a&#45;&gt;64c0a41d&#45;b562&#45;4fd8&#45;9f89&#45;deee0efe03ad</title>
<path fill="none" stroke="#000000" d="M907.6494,-219.8971C982.3578,-209.257 1114.293,-192.0997 1228.0084,-185.8 1375.6856,-177.6188 1829.0152,-190.4495 1982.5139,-195.1693"/>
<polygon fill="#000000" stroke="#000000" points="1982.5091,-198.6707 1992.6125,-195.4814 1982.7255,-191.674 1982.5091,-198.6707"/>
</g>
<!-- 1b6f8ced&#45;2d13&#45;42aa&#45;aa26&#45;3cadf20aad3a&#45;&gt;06fddcfc&#45;fdcd&#45;4c96&#45;abfd&#45;a397f566516b -->
<g id="edge17" class="edge">
<title>1b6f8ced&#45;2d13&#45;42aa&#45;aa26&#45;3cadf20aad3a&#45;&gt;06fddcfc&#45;fdcd&#45;4c96&#45;abfd&#45;a397f566516b</title>
<path fill="none" stroke="#000000" stroke-dasharray="5,2" d="M890.649,-249.5618C903.5057,-255.4714 917.7444,-261.6862 931.084,-266.8 1060.2091,-316.3004 1093.5582,-327.4468 1228.0084,-359.8 1238.292,-362.2746 1249.0039,-364.6082 1259.792,-366.7884"/>
<polygon fill="#000000" stroke="#000000" points="1259.2221,-370.2434 1269.7107,-368.7471 1260.5783,-363.376 1259.2221,-370.2434"/>
<text text-anchor="middle" x="1315.4088" y="-356.1471" font-family="Times,serif" font-size="14.00" fill="#000000">Missing binding</text>
</g>
<!-- 903a0ec6&#45;3d61&#45;4bfd&#45;95bf&#45;bad3ed430a75 -->
<g id="node13" class="node">
<title>903a0ec6&#45;3d61&#45;4bfd&#45;95bf&#45;bad3ed430a75</title>
<polygon fill="#ff3030" stroke="#ff3030" points="2619.2432,-134.8 2150.2192,-134.8 2150.2192,-98.8 2619.2432,-98.8 2619.2432,-134.8"/>
<text text-anchor="middle" x="2384.7312" y="-112.6" font-family="Times,serif" font-size="14.00" fill="#000000">@org.owntracks.android.injection.qualifier.AppContext android.content.Context</text>
</g>
<!-- 1b6f8ced&#45;2d13&#45;42aa&#45;aa26&#45;3cadf20aad3a&#45;&gt;903a0ec6&#45;3d61&#45;4bfd&#45;95bf&#45;bad3ed430a75 -->
<g id="edge18" class="edge">
<title>1b6f8ced&#45;2d13&#45;42aa&#45;aa26&#45;3cadf20aad3a&#45;&gt;903a0ec6&#45;3d61&#45;4bfd&#45;95bf&#45;bad3ed430a75</title>
<path fill="none" stroke="#000000" stroke-dasharray="5,2" d="M863.4843,-207.9778C877.0443,-189.5691 897.0006,-161.8283 913.084,-136.8 921.697,-123.3969 917.2767,-113.7489 931.084,-105.8 931.084,-105.8 1544.9552,-105.8 1544.9552,-105.8 1553.0379,-105.1311 1554.8829,-103.5844 1562.9552,-102.8 1655.7962,-93.7782 1679.4673,-96.8 1772.7456,-96.8 1772.7456,-96.8 1772.7456,-96.8 2112.7252,-96.8 2133.1637,-96.8 2154.4429,-97.3686 2175.6981,-98.314"/>
<polygon fill="#000000" stroke="#000000" points="2175.6375,-101.815 2185.7916,-98.7908 2175.9679,-94.8228 2175.6375,-101.815"/>
<text text-anchor="middle" x="2140.0935" y="-86.1908" font-family="Times,serif" font-size="14.00" fill="#000000">Missing binding</text>
</g>
<!-- 43396031&#45;f001&#45;4c54&#45;9139&#45;d967f2718773 -->
<g id="node14" class="node">
<title>43396031&#45;f001&#45;4c54&#45;9139&#45;d967f2718773</title>
<polygon fill="#ff3030" stroke="#ff3030" points="2489.7362,-441.8 2279.7262,-441.8 2279.7262,-405.8 2489.7362,-405.8 2489.7362,-441.8"/>
<text text-anchor="middle" x="2384.7312" y="-419.6" font-family="Times,serif" font-size="14.00" fill="#000000">org.greenrobot.eventbus.EventBus</text>
</g>
<!-- 1b6f8ced&#45;2d13&#45;42aa&#45;aa26&#45;3cadf20aad3a&#45;&gt;43396031&#45;f001&#45;4c54&#45;9139&#45;d967f2718773 -->
<g id="edge19" class="edge">
<title>1b6f8ced&#45;2d13&#45;42aa&#45;aa26&#45;3cadf20aad3a&#45;&gt;43396031&#45;f001&#45;4c54&#45;9139&#45;d967f2718773</title>
<path fill="none" stroke="#000000" stroke-dasharray="5,2" d="M869.0477,-249.6287C885.0455,-264.5431 908.1208,-284.2958 931.084,-297.8 1037.9167,-360.6261 1075.8158,-353.0725 1191.0084,-398.8 1207.5009,-405.3469 1210.6336,-410.1974 1228.0084,-413.8 1319.6613,-432.804 1555.498,-423.8 1649.1004,-423.8 1649.1004,-423.8 1649.1004,-423.8 2112.7252,-423.8 2164.087,-423.8 2220.9041,-423.8 2269.27,-423.8"/>
<polygon fill="#000000" stroke="#000000" points="2269.4575,-427.3001 2279.4575,-423.8 2269.4575,-420.3001 2269.4575,-427.3001"/>
<text text-anchor="middle" x="2233.7594" y="-411.2" font-family="Times,serif" font-size="14.00" fill="#000000">Missing binding</text>
</g>
<!-- d1e2d535&#45;4915&#45;47fa&#45;91be&#45;d3df1a7fe26f -->
<g id="node15" class="node">
<title>d1e2d535&#45;4915&#45;47fa&#45;91be&#45;d3df1a7fe26f</title>
<polygon fill="#ffe4c4" stroke="#ffe4c4" points="1427.5446,-236.4019 1345.419,-236.4019 1345.419,-195.1981 1427.5446,-195.1981 1427.5446,-236.4019"/>
<text text-anchor="middle" x="1386.4818" y="-220" font-family="Times,serif" font-size="14.00" fill="#000000">@Singleton</text>
<text text-anchor="middle" x="1386.4818" y="-203.2" font-family="Times,serif" font-size="14.00" fill="#000000">Parser</text>
</g>
<!-- 1b6f8ced&#45;2d13&#45;42aa&#45;aa26&#45;3cadf20aad3a&#45;&gt;d1e2d535&#45;4915&#45;47fa&#45;91be&#45;d3df1a7fe26f -->
<g id="edge22" class="edge">
<title>1b6f8ced&#45;2d13&#45;42aa&#45;aa26&#45;3cadf20aad3a&#45;&gt;d1e2d535&#45;4915&#45;47fa&#45;91be&#45;d3df1a7fe26f</title>
<path fill="none" stroke="#000000" d="M907.8749,-227.3528C1014.4589,-224.7801 1235.0998,-219.4541 1335.1556,-217.0389"/>
<polygon fill="#000000" stroke="#000000" points="1335.4023,-220.5341 1345.3149,-216.7937 1335.2333,-213.5361 1335.4023,-220.5341"/>
</g>
<!-- 08f2ddc0&#45;a486&#45;4074&#45;9c49&#45;d616b2ee4996 -->
<g id="node16" class="node">
<title>08f2ddc0&#45;a486&#45;4074&#45;9c49&#45;d616b2ee4996</title>
<polygon fill="#ffe4c4" stroke="#ffe4c4" points="1895.5174,-177.4019 1813.3918,-177.4019 1813.3918,-136.1981 1895.5174,-136.1981 1895.5174,-177.4019"/>
<text text-anchor="middle" x="1854.4546" y="-161" font-family="Times,serif" font-size="14.00" fill="#000000">@Singleton</text>
<text text-anchor="middle" x="1854.4546" y="-144.2" font-family="Times,serif" font-size="14.00" fill="#000000">Scheduler</text>
</g>
<!-- 1b6f8ced&#45;2d13&#45;42aa&#45;aa26&#45;3cadf20aad3a&#45;&gt;08f2ddc0&#45;a486&#45;4074&#45;9c49&#45;d616b2ee4996 -->
<g id="edge23" class="edge">
<title>1b6f8ced&#45;2d13&#45;42aa&#45;aa26&#45;3cadf20aad3a&#45;&gt;08f2ddc0&#45;a486&#45;4074&#45;9c49&#45;d616b2ee4996</title>
<path fill="none" stroke="#000000" d="M871.4906,-207.9231C887.1876,-195.4314 908.9344,-180.6848 931.084,-173.8 1014.2533,-147.9482 1621.4281,-153.7336 1803.1866,-156.0749"/>
<polygon fill="#000000" stroke="#000000" points="1803.239,-159.5758 1813.284,-156.2071 1803.3307,-152.5764 1803.239,-159.5758"/>
</g>
<!-- 54a71e87&#45;6012&#45;4085&#45;9ce7&#45;4912f474b9cb -->
<g id="node17" class="node">
<title>54a71e87&#45;6012&#45;4085&#45;9ce7&#45;4912f474b9cb</title>
<polygon fill="#ffe4c4" stroke="#ffe4c4" points="1434.5618,-296.4019 1338.4018,-296.4019 1338.4018,-255.1981 1434.5618,-255.1981 1434.5618,-296.4019"/>
<text text-anchor="middle" x="1386.4818" y="-280" font-family="Times,serif" font-size="14.00" fill="#000000">@Singleton</text>
<text text-anchor="middle" x="1386.4818" y="-263.2" font-family="Times,serif" font-size="14.00" fill="#000000">ServiceBridge</text>
</g>
<!-- 1b6f8ced&#45;2d13&#45;42aa&#45;aa26&#45;3cadf20aad3a&#45;&gt;54a71e87&#45;6012&#45;4085&#45;9ce7&#45;4912f474b9cb -->
<g id="edge20" class="edge">
<title>1b6f8ced&#45;2d13&#45;42aa&#45;aa26&#45;3cadf20aad3a&#45;&gt;54a71e87&#45;6012&#45;4085&#45;9ce7&#45;4912f474b9cb</title>
<path fill="none" stroke="#000000" d="M907.8749,-234.032C1012.0484,-243.1232 1225.1784,-261.7231 1328.185,-270.7124"/>
<polygon fill="#000000" stroke="#000000" points="1328.1328,-274.2211 1338.3992,-271.6038 1328.7414,-267.2476 1328.1328,-274.2211"/>
</g>
<!-- 5cce5da3&#45;fdcf&#45;4efa&#45;9267&#45;0ca7352d1c7c -->
<g id="node18" class="node">
<title>5cce5da3&#45;fdcf&#45;4efa&#45;9267&#45;0ca7352d1c7c</title>
<polygon fill="#ffe4c4" stroke="#ffe4c4" points="1735.391,-146.4019 1562.8098,-146.4019 1562.8098,-105.1981 1735.391,-105.1981 1735.391,-146.4019"/>
<text text-anchor="middle" x="1649.1004" y="-130" font-family="Times,serif" font-size="14.00" fill="#000000">@Singleton</text>
<text text-anchor="middle" x="1649.1004" y="-113.2" font-family="Times,serif" font-size="14.00" fill="#000000">RunThingsOnOtherThreads</text>
</g>
<!-- 1b6f8ced&#45;2d13&#45;42aa&#45;aa26&#45;3cadf20aad3a&#45;&gt;5cce5da3&#45;fdcf&#45;4efa&#45;9267&#45;0ca7352d1c7c -->
<g id="edge16" class="edge">
<title>1b6f8ced&#45;2d13&#45;42aa&#45;aa26&#45;3cadf20aad3a&#45;&gt;5cce5da3&#45;fdcf&#45;4efa&#45;9267&#45;0ca7352d1c7c</title>
<path fill="none" stroke="#000000" d="M895.4507,-208.1522C901.8829,-204.0235 908.0051,-199.2477 913.084,-193.8 926.3777,-179.5408 914.9226,-164.7022 931.084,-153.8 981.295,-119.9288 1368.5329,-121.3339 1552.5599,-123.9859"/>
<polygon fill="#000000" stroke="#000000" points="1552.7248,-127.4887 1562.7757,-124.1375 1552.8287,-120.4894 1552.7248,-127.4887"/>
</g>
<!-- a3b9a86a&#45;d3ef&#45;4b9a&#45;b73d&#45;20fb245a86e5 -->
<g id="node19" class="node">
<title>a3b9a86a&#45;d3ef&#45;4b9a&#45;b73d&#45;20fb245a86e5</title>
<polygon fill="#ff3030" stroke="#ff3030" points="1544.9286,-350.8 1228.035,-350.8 1228.035,-314.8 1544.9286,-314.8 1544.9286,-350.8"/>
<text text-anchor="middle" x="1386.4818" y="-328.6" font-family="Times,serif" font-size="14.00" fill="#000000">androidx.test.espresso.idling.CountingIdlingResource</text>
</g>
<!-- 1b6f8ced&#45;2d13&#45;42aa&#45;aa26&#45;3cadf20aad3a&#45;&gt;a3b9a86a&#45;d3ef&#45;4b9a&#45;b73d&#45;20fb245a86e5 -->
<g id="edge15" class="edge">
<title>1b6f8ced&#45;2d13&#45;42aa&#45;aa26&#45;3cadf20aad3a&#45;&gt;a3b9a86a&#45;d3ef&#45;4b9a&#45;b73d&#45;20fb245a86e5</title>
<path fill="none" stroke="#000000" stroke-dasharray="5,2" d="M907.8562,-241.8998C915.6659,-243.5693 923.5628,-245.2389 931.084,-246.8 1062.8226,-274.1436 1095.6952,-281.3877 1228.0084,-305.8 1241.0388,-308.2042 1254.6866,-310.6452 1268.2746,-313.0268"/>
<polygon fill="#000000" stroke="#000000" points="1267.6958,-316.4786 1278.1485,-314.7491 1268.8986,-309.5827 1267.6958,-316.4786"/>
<text text-anchor="middle" x="1232.4504" y="-302.1491" font-family="Times,serif" font-size="14.00" fill="#000000">Missing binding</text>
</g>
<!-- c921f481&#45;e3f9&#45;4a9a&#45;89f5&#45;36302a4d9fb3&#45;&gt;dfdc7184&#45;4402&#45;4d12&#45;9773&#45;6b595919744b -->
<g id="edge1" class="edge">
<title>c921f481&#45;e3f9&#45;4a9a&#45;89f5&#45;36302a4d9fb3&#45;&gt;dfdc7184&#45;4402&#45;4d12&#45;9773&#45;6b595919744b</title>
<path fill="none" stroke="#000000" d="M672.5655,-403.5903C687.3721,-415.2704 706.8952,-429.5204 725.7614,-439.8 741.1909,-448.2071 758.4446,-455.8234 775.0129,-462.3597"/>
<polygon fill="#000000" stroke="#000000" points="774.0801,-465.7511 784.6698,-466.0812 776.5973,-459.2193 774.0801,-465.7511"/>
</g>
<!-- 64c0a41d&#45;b562&#45;4fd8&#45;9f89&#45;deee0efe03ad&#45;&gt;903a0ec6&#45;3d61&#45;4bfd&#45;95bf&#45;bad3ed430a75 -->
<g id="edge27" class="edge">
<title>64c0a41d&#45;b562&#45;4fd8&#45;9f89&#45;deee0efe03ad&#45;&gt;903a0ec6&#45;3d61&#45;4bfd&#45;95bf&#45;bad3ed430a75</title>
<path fill="none" stroke="#000000" stroke-dasharray="5,2" d="M2075.0993,-187.1819C2097.3373,-182.0004 2125.2766,-175.5157 2150.2252,-169.8 2197.7845,-158.9042 2250.8055,-146.9083 2294.3843,-137.0887"/>
<polygon fill="#000000" stroke="#000000" points="2295.4026,-140.4471 2304.3891,-134.8352 2293.8644,-133.6182 2295.4026,-140.4471"/>
<text text-anchor="middle" x="2258.691" y="-139.0352" font-family="Times,serif" font-size="14.00" fill="#000000">Missing binding</text>
</g>
<!-- 64c0a41d&#45;b562&#45;4fd8&#45;9f89&#45;deee0efe03ad&#45;&gt;43396031&#45;f001&#45;4c54&#45;9139&#45;d967f2718773 -->
<g id="edge28" class="edge">
<title>64c0a41d&#45;b562&#45;4fd8&#45;9f89&#45;deee0efe03ad&#45;&gt;43396031&#45;f001&#45;4c54&#45;9139&#45;d967f2718773</title>
<path fill="none" stroke="#000000" stroke-dasharray="5,2" d="M2066.0043,-217.5465C2131.2359,-259.759 2279.0505,-355.4123 2348.0153,-400.0405"/>
<polygon fill="#000000" stroke="#000000" points="2346.516,-403.2392 2356.813,-405.7336 2350.319,-397.3623 2346.516,-403.2392"/>
<text text-anchor="middle" x="2311.1149" y="-393.1336" font-family="Times,serif" font-size="14.00" fill="#000000">Missing binding</text>
</g>
<!-- 06a8e52d&#45;aad1&#45;46c4&#45;8845&#45;208fe540fbef -->
<g id="node20" class="node">
<title>06a8e52d&#45;aad1&#45;46c4&#45;8845&#45;208fe540fbef</title>
<polygon fill="#ff3030" stroke="#ff3030" points="2561.5149,-214.8 2207.9475,-214.8 2207.9475,-178.8 2561.5149,-178.8 2561.5149,-214.8"/>
<text text-anchor="middle" x="2384.7312" y="-192.6" font-family="Times,serif" font-size="14.00" fill="#000000">org.owntracks.android.support.preferences.PreferencesStore</text>
</g>
<!-- 64c0a41d&#45;b562&#45;4fd8&#45;9f89&#45;deee0efe03ad&#45;&gt;06a8e52d&#45;aad1&#45;46c4&#45;8845&#45;208fe540fbef -->
<g id="edge26" class="edge">
<title>64c0a41d&#45;b562&#45;4fd8&#45;9f89&#45;deee0efe03ad&#45;&gt;06a8e52d&#45;aad1&#45;46c4&#45;8845&#45;208fe540fbef</title>
<path fill="none" stroke="#000000" stroke-dasharray="5,2" d="M2075.2156,-196.8C2106.346,-196.8 2151.4588,-196.8 2197.6571,-196.8"/>
<polygon fill="#000000" stroke="#000000" points="2197.839,-200.3001 2207.8389,-196.8 2197.8389,-193.3001 2197.839,-200.3001"/>
<text text-anchor="middle" x="2162.1408" y="-184.2" font-family="Times,serif" font-size="14.00" fill="#000000">Missing binding</text>
</g>
<!-- c202c054&#45;49c4&#45;4bf2&#45;8396&#45;34d4a9971613&#45;&gt;43396031&#45;f001&#45;4c54&#45;9139&#45;d967f2718773 -->
<g id="edge29" class="edge">
<title>c202c054&#45;49c4&#45;4bf2&#45;8396&#45;34d4a9971613&#45;&gt;43396031&#45;f001&#45;4c54&#45;9139&#45;d967f2718773</title>
<path fill="none" stroke="#000000" stroke-dasharray="5,2" d="M1191.242,-450.7596C1240.2145,-456.3317 1318.5279,-463.8 1386.4818,-463.8 1386.4818,-463.8 1386.4818,-463.8 2112.7252,-463.8 2173.9334,-463.8 2242.0727,-453.7632 2294.8408,-443.7448"/>
<polygon fill="#000000" stroke="#000000" points="2295.6919,-447.1452 2304.8459,-441.8107 2294.3633,-440.2724 2295.6919,-447.1452"/>
<text text-anchor="middle" x="2259.1478" y="-446.0107" font-family="Times,serif" font-size="14.00" fill="#000000">Missing binding</text>
</g>
<!-- 9c129030&#45;d69d&#45;4696&#45;8539&#45;f868e3f42b12&#45;&gt;903a0ec6&#45;3d61&#45;4bfd&#45;95bf&#45;bad3ed430a75 -->
<g id="edge30" class="edge">
<title>9c129030&#45;d69d&#45;4696&#45;8539&#45;f868e3f42b12&#45;&gt;903a0ec6&#45;3d61&#45;4bfd&#45;95bf&#45;bad3ed430a75</title>
<path fill="none" stroke="#000000" stroke-dasharray="5,2" d="M1077.7965,-51.1559C1116.8271,-46.3795 1165.6781,-41.8 1209.5084,-41.8 1209.5084,-41.8 1209.5084,-41.8 2112.7252,-41.8 2193.1322,-41.8 2282.2552,-72.6343 2335.8597,-94.7616"/>
<polygon fill="#000000" stroke="#000000" points="2334.5458,-98.0059 2345.1214,-98.6446 2337.2524,-91.5503 2334.5458,-98.0059"/>
<text text-anchor="middle" x="2299.4233" y="-86.0446" font-family="Times,serif" font-size="14.00" fill="#000000">Missing binding</text>
</g>
<!-- df086dd6&#45;4ef9&#45;44d6&#45;8460&#45;74f88e45eca0 -->
<g id="node21" class="node">
<title>df086dd6&#45;4ef9&#45;44d6&#45;8460&#45;74f88e45eca0</title>
<polygon fill="#ffe4c4" stroke="#ffe4c4" points="1917.8733,-257.4019 1791.0359,-257.4019 1791.0359,-216.1981 1917.8733,-216.1981 1917.8733,-257.4019"/>
<text text-anchor="middle" x="1854.4546" y="-241" font-family="Times,serif" font-size="14.00" fill="#000000">@Singleton</text>
<text text-anchor="middle" x="1854.4546" y="-224.2" font-family="Times,serif" font-size="14.00" fill="#000000">EncryptionProvider</text>
</g>
<!-- d1e2d535&#45;4915&#45;47fa&#45;91be&#45;d3df1a7fe26f&#45;&gt;df086dd6&#45;4ef9&#45;44d6&#45;8460&#45;74f88e45eca0 -->
<g id="edge33" class="edge">
<title>d1e2d535&#45;4915&#45;47fa&#45;91be&#45;d3df1a7fe26f&#45;&gt;df086dd6&#45;4ef9&#45;44d6&#45;8460&#45;74f88e45eca0</title>
<path fill="none" stroke="#000000" d="M1427.6011,-217.6452C1506.765,-221.1976 1681.3078,-229.0301 1780.9438,-233.5012"/>
<polygon fill="#000000" stroke="#000000" points="1781.086,-237.0111 1791.2329,-233.963 1781.3999,-230.0181 1781.086,-237.0111"/>
</g>
<!-- 08f2ddc0&#45;a486&#45;4074&#45;9c49&#45;d616b2ee4996&#45;&gt;64c0a41d&#45;b562&#45;4fd8&#45;9f89&#45;deee0efe03ad -->
<g id="edge24" class="edge">
<title>08f2ddc0&#45;a486&#45;4074&#45;9c49&#45;d616b2ee4996&#45;&gt;64c0a41d&#45;b562&#45;4fd8&#45;9f89&#45;deee0efe03ad</title>
<path fill="none" stroke="#000000" d="M1895.6332,-165.9768C1921.5354,-171.7492 1955.1617,-179.243 1982.7723,-185.3961"/>
<polygon fill="#000000" stroke="#000000" points="1982.1251,-188.8377 1992.647,-187.5967 1983.6478,-182.0053 1982.1251,-188.8377"/>
</g>
<!-- 08f2ddc0&#45;a486&#45;4074&#45;9c49&#45;d616b2ee4996&#45;&gt;903a0ec6&#45;3d61&#45;4bfd&#45;95bf&#45;bad3ed430a75 -->
<g id="edge31" class="edge">
<title>08f2ddc0&#45;a486&#45;4074&#45;9c49&#45;d616b2ee4996&#45;&gt;903a0ec6&#45;3d61&#45;4bfd&#45;95bf&#45;bad3ed430a75</title>
<path fill="none" stroke="#000000" stroke-dasharray="5,2" d="M1895.5221,-150.8674C1913.7488,-148.7141 1935.485,-146.8 1955.1636,-146.8 1955.1636,-146.8 1955.1636,-146.8 2112.7252,-146.8 2161.7452,-146.8 2215.4367,-141.9267 2262.0709,-136.1083"/>
<polygon fill="#000000" stroke="#000000" points="2262.741,-139.5513 2272.2177,-134.8139 2261.8551,-132.6076 2262.741,-139.5513"/>
<text text-anchor="middle" x="2317.9158" y="-139.0139" font-family="Times,serif" font-size="14.00" fill="#000000">Missing binding</text>
</g>
<!-- 5cce5da3&#45;fdcf&#45;4efa&#45;9267&#45;0ca7352d1c7c&#45;&gt;903a0ec6&#45;3d61&#45;4bfd&#45;95bf&#45;bad3ed430a75 -->
<g id="edge32" class="edge">
<title>5cce5da3&#45;fdcf&#45;4efa&#45;9267&#45;0ca7352d1c7c&#45;&gt;903a0ec6&#45;3d61&#45;4bfd&#45;95bf&#45;bad3ed430a75</title>
<path fill="none" stroke="#000000" stroke-dasharray="5,2" d="M1735.5148,-117.9036C1747.9964,-117.2307 1760.6927,-116.8 1772.7456,-116.8 1772.7456,-116.8 1772.7456,-116.8 2112.7252,-116.8 2121.6552,-116.8 2130.7501,-116.8 2139.9368,-116.8"/>
<polygon fill="#000000" stroke="#000000" points="2139.938,-120.3001 2149.938,-116.8 2139.9379,-113.3001 2139.938,-120.3001"/>
<text text-anchor="middle" x="2104.2399" y="-104.2" font-family="Times,serif" font-size="14.00" fill="#000000">Missing binding</text>
</g>
<!-- df086dd6&#45;4ef9&#45;44d6&#45;8460&#45;74f88e45eca0&#45;&gt;64c0a41d&#45;b562&#45;4fd8&#45;9f89&#45;deee0efe03ad -->
<g id="edge25" class="edge">
<title>df086dd6&#45;4ef9&#45;44d6&#45;8460&#45;74f88e45eca0&#45;&gt;64c0a41d&#45;b562&#45;4fd8&#45;9f89&#45;deee0efe03ad</title>
<path fill="none" stroke="#000000" d="M1917.736,-222.6975C1939.0626,-217.9448 1962.5788,-212.7041 1982.845,-208.1877"/>
<polygon fill="#000000" stroke="#000000" points="1983.8132,-211.5579 1992.8124,-205.9664 1982.2905,-204.7255 1983.8132,-211.5579"/>
</g>
</g>
</svg>
