<svg width="2215px" height="342px"
 viewBox="0.00 0.00 2214.59 341.60" xmlns="http://www.w3.org/2000/svg" xmlns:xlink="http://www.w3.org/1999/xlink">
<g id="graph0" class="graph" transform="scale(1.0 1.0) rotate(0) translate(14.4 327.2)">
<title>org.owntracks.android.ui.preferences.PreferencesActivityModule_BindPreferencesFragment</title>
<polygon fill="#ffffff" stroke="transparent" points="-14.4,14.4 -14.4,-327.2 2200.192,-327.2 2200.192,14.4 -14.4,14.4"/>
<text text-anchor="middle" x="161.9391" y="-8.2" font-family="Times,serif" font-size="14.00" fill="#000000">PreferencesActivityModule_BindPreferencesFragment</text>
<g id="clust2" class="cluster">
<title>cluster_Dependency Graph</title>
<polygon fill="none" stroke="#000000" points="8,-32.8 8,-304.8 1529.8302,-304.8 1529.8302,-32.8 8,-32.8"/>
<text text-anchor="middle" x="70.2234" y="-288.2" font-family="Times,serif" font-size="14.00" fill="#000000">Dependency Graph</text>
</g>
<g id="clust3" class="cluster">
<title>cluster_Map&lt;Class&lt;?&gt;, AndroidInjector.Factory&lt;?&gt;&gt;</title>
<path fill="none" stroke="#000000" d="M116.8863,-194.8C116.8863,-194.8 1126.5544,-194.8 1126.5544,-194.8 1132.5544,-194.8 1138.5544,-200.8 1138.5544,-206.8 1138.5544,-206.8 1138.5544,-259.8 1138.5544,-259.8 1138.5544,-265.8 1132.5544,-271.8 1126.5544,-271.8 1126.5544,-271.8 116.8863,-271.8 116.8863,-271.8 110.8863,-271.8 104.8863,-265.8 104.8863,-259.8 104.8863,-259.8 104.8863,-206.8 104.8863,-206.8 104.8863,-200.8 110.8863,-194.8 116.8863,-194.8"/>
<text text-anchor="middle" x="621.7203" y="-255.2" font-family="Times,serif" font-size="14.00" fill="#000000">Map&lt;Class&lt;?&gt;, AndroidInjector.Factory&lt;?&gt;&gt;</text>
</g>
<g id="clust4" class="cluster">
<title>cluster_Subcomponents</title>
<polygon fill="none" stroke="#000000" points="1631.4852,-191.8 1631.4852,-274.8 2177.792,-274.8 2177.792,-191.8 1631.4852,-191.8"/>
<text text-anchor="middle" x="1684.204" y="-258.2" font-family="Times,serif" font-size="14.00" fill="#000000">Subcomponents</text>
</g>
<!-- e537d442&#45;49b7&#45;40ac&#45;9797&#45;264095845c78 -->
<g id="node1" class="node">
<title>e537d442&#45;49b7&#45;40ac&#45;9797&#45;264095845c78</title>
<polygon fill="#40e0d0" stroke="#40e0d0" points="1130.3258,-238.8 636.2406,-238.8 636.2406,-202.8 1130.3258,-202.8 1130.3258,-238.8"/>
<text text-anchor="middle" x="883.2832" y="-216.6" font-family="Times,serif" font-size="14.00" fill="#000000">PreferencesActivityModule_BindPreferencesFragment.bindAndroidInjectorFactory()</text>
</g>
<!-- cd8e3ec0&#45;5519&#45;4b41&#45;99b0&#45;006c9829ab1e -->
<g id="node2" class="node">
<title>cd8e3ec0&#45;5519&#45;4b41&#45;99b0&#45;006c9829ab1e</title>
<polygon fill="#40e0d0" stroke="#40e0d0" points="1521.9261,-249.4014 1256.5427,-249.4014 1256.5427,-192.1986 1521.9261,-192.1986 1521.9261,-249.4014"/>
<text text-anchor="middle" x="1389.2344" y="-233" font-family="Times,serif" font-size="14.00" fill="#000000">PreferencesFragmentSubcomponent.Factory</text>
<text text-anchor="middle" x="1389.2344" y="-200.2" font-family="Times,serif" font-size="14.00" fill="#000000">Subcomponent Creator</text>
</g>
<!-- e537d442&#45;49b7&#45;40ac&#45;9797&#45;264095845c78&#45;&gt;cd8e3ec0&#45;5519&#45;4b41&#45;99b0&#45;006c9829ab1e -->
<g id="edge2" class="edge">
<title>e537d442&#45;49b7&#45;40ac&#45;9797&#45;264095845c78&#45;&gt;cd8e3ec0&#45;5519&#45;4b41&#45;99b0&#45;006c9829ab1e</title>
<path fill="none" stroke="#000000" stroke-dasharray="1,5" d="M1130.3302,-220.8C1170.1117,-220.8 1210.0888,-220.8 1246.3236,-220.8"/>
<polygon fill="#000000" stroke="#000000" points="1246.4412,-224.3001 1256.4412,-220.8 1246.4411,-217.3001 1246.4412,-224.3001"/>
<text text-anchor="middle" x="1193.5965" y="-225" font-family="Times,serif" font-size="14.00" fill="#000000">delegates</text>
</g>
<!-- 0f8e5347&#45;22fd&#45;4615&#45;8c03&#45;ae23c091a8e0 -->
<g id="node7" class="node">
<title>0f8e5347&#45;22fd&#45;4615&#45;8c03&#45;ae23c091a8e0</title>
<g id="a_node7"><a xlink:href="full_org.owntracks.android.ui.preferences.PreferencesActivityModule_BindPreferencesFragment.PreferencesFragmentSubcomponent.svg" xlink:title="@PerFragment\nPreferencesActivityModule_BindPreferencesFragment.PreferencesFragmentSubcomponent">
<polygon fill="#7fffd4" stroke="#7fffd4" points="2169.9455,-241.4019 1639.3317,-241.4019 1639.3317,-200.1981 2169.9455,-200.1981 2169.9455,-241.4019"/>
<text text-anchor="middle" x="1904.6386" y="-225" font-family="Times,serif" font-size="14.00" fill="#000000">@PerFragment</text>
<text text-anchor="middle" x="1904.6386" y="-208.2" font-family="Times,serif" font-size="14.00" fill="#000000">PreferencesActivityModule_BindPreferencesFragment.PreferencesFragmentSubcomponent</text>
</a>
</g>
</g>
<!-- cd8e3ec0&#45;5519&#45;4b41&#45;99b0&#45;006c9829ab1e&#45;&gt;0f8e5347&#45;22fd&#45;4615&#45;8c03&#45;ae23c091a8e0 -->
<g id="edge3" class="edge">
<title>cd8e3ec0&#45;5519&#45;4b41&#45;99b0&#45;006c9829ab1e&#45;&gt;0f8e5347&#45;22fd&#45;4615&#45;8c03&#45;ae23c091a8e0:w</title>
<path fill="none" stroke="#000000" stroke-dasharray="5,2" d="M1522.1122,-220.8C1556.6639,-220.8 1594.0769,-220.8 1629.2824,-220.8"/>
<polygon fill="#000000" stroke="#000000" points="1629.6386,-224.3001 1639.6386,-220.8 1629.6386,-217.3001 1629.6386,-224.3001"/>
<text text-anchor="middle" x="1580.6577" y="-225" font-family="Times,serif" font-size="14.00" fill="#000000">subcomponent</text>
</g>
<!-- 595945bc&#45;faab&#45;4ee1&#45;96e4&#45;298ce5f16c0d -->
<g id="node3" class="node">
<title>595945bc&#45;faab&#45;4ee1&#45;96e4&#45;298ce5f16c0d</title>
<polygon fill="#ff3030" stroke="#ff3030" points="485.018,-184.8 15.994,-184.8 15.994,-148.8 485.018,-148.8 485.018,-184.8"/>
<text text-anchor="middle" x="250.506" y="-162.6" font-family="Times,serif" font-size="14.00" fill="#000000">@org.owntracks.android.injection.qualifier.AppContext android.content.Context</text>
</g>
<!-- 52a18f1e&#45;321a&#45;4c0d&#45;8c79&#45;7196fd6e5bd9 -->
<g id="node4" class="node">
<title>52a18f1e&#45;321a&#45;4c0d&#45;8c79&#45;7196fd6e5bd9</title>
<polygon fill="#ff3030" stroke="#ff3030" points="355.511,-130.8 145.501,-130.8 145.501,-94.8 355.511,-94.8 355.511,-130.8"/>
<text text-anchor="middle" x="250.506" y="-108.6" font-family="Times,serif" font-size="14.00" fill="#000000">org.greenrobot.eventbus.EventBus</text>
</g>
<!-- 6f4a3920&#45;6be2&#45;4bc5&#45;9827&#45;3f06db7db5e8 -->
<g id="node5" class="node">
<title>6f4a3920&#45;6be2&#45;4bc5&#45;9827&#45;3f06db7db5e8</title>
<polygon fill="#ff3030" stroke="#ff3030" points="427.2897,-76.8 73.7223,-76.8 73.7223,-40.8 427.2897,-40.8 427.2897,-76.8"/>
<text text-anchor="middle" x="250.506" y="-54.6" font-family="Times,serif" font-size="14.00" fill="#000000">org.owntracks.android.support.preferences.PreferencesStore</text>
</g>
<!-- 221845b9&#45;b96c&#45;4f8b&#45;a186&#45;15dfe26e916d -->
<g id="node6" class="node">
<title>221845b9&#45;b96c&#45;4f8b&#45;a186&#45;15dfe26e916d</title>
<polygon fill="#40e0d0" stroke="#40e0d0" points="388.2455,-238.8 124.7665,-238.8 124.7665,-242.8 112.7665,-242.8 112.7665,-202.8 388.2455,-202.8 388.2455,-238.8"/>
<polyline fill="none" stroke="#40e0d0" points="112.7665,-238.8 124.7665,-238.8 "/>
<text text-anchor="middle" x="250.506" y="-216.6" font-family="Times,serif" font-size="14.00" fill="#000000">Map&lt;Class&lt;?&gt;, AndroidInjector.Factory&lt;?&gt;&gt;</text>
</g>
<!-- 221845b9&#45;b96c&#45;4f8b&#45;a186&#45;15dfe26e916d&#45;&gt;e537d442&#45;49b7&#45;40ac&#45;9797&#45;264095845c78 -->
<g id="edge1" class="edge">
<title>221845b9&#45;b96c&#45;4f8b&#45;a186&#45;15dfe26e916d&#45;&gt;e537d442&#45;49b7&#45;40ac&#45;9797&#45;264095845c78</title>
<path fill="none" stroke="#000000" d="M388.1844,-220.8C431.2031,-220.8 478.8305,-220.8 522.512,-220.8 522.512,-220.8 522.512,-220.8 598.512,-220.8 607.498,-220.8 616.6435,-220.8 625.8806,-220.8"/>
<polygon fill="#000000" stroke="#000000" points="625.9365,-224.3001 635.9365,-220.8 625.9364,-217.3001 625.9365,-224.3001"/>
</g>
</g>
</svg>
