<svg width="2507px" height="1137px"
 viewBox="0.00 0.00 2506.84 1136.60" xmlns="http://www.w3.org/2000/svg" xmlns:xlink="http://www.w3.org/1999/xlink">
<g id="graph0" class="graph" transform="scale(1.0 1.0) rotate(0) translate(14.4 1122.2)">
<title>org.owntracks.android.injection.modules.AndroidBindingModule → org.owntracks.android.injection.modules.AndroidBindingModule_BindRegionsActivity.RegionsActivitySubcomponent</title>
<polygon fill="#ffffff" stroke="transparent" points="-14.4,14.4 -14.4,-1122.2 2492.4357,-1122.2 2492.4357,14.4 -14.4,14.4"/>
<text text-anchor="middle" x="304.7055" y="-8.2" font-family="Times,serif" font-size="14.00" fill="#000000">AndroidBindingModule → AndroidBindingModule_BindRegionsActivity.RegionsActivitySubcomponent</text>
<g id="clust5" class="cluster">
<title>cluster_AndroidBindingModule → AndroidBindingModule_BindRegionsActivity.RegionsActivitySubcomponent</title>
<g id="a_clust5"><a xlink:href="full_org.owntracks.android.injection.modules.AndroidBindingModule_BindRegionsActivity.RegionsActivitySubcomponent.svg" xlink:title="Inherited from AndroidBindingModule_BindRegionsActivity.RegionsActivitySubcomponent\n@PerActivity">
<polygon fill="none" stroke="#7fffd4" stroke-dasharray="5,2" points="196.6922,-44.8 196.6922,-1099.8 2470.0357,-1099.8 2470.0357,-44.8 196.6922,-44.8"/>
<text text-anchor="middle" x="1333.3639" y="-1083.2" font-family="Times,serif" font-size="14.00" fill="#000000">Inherited from AndroidBindingModule_BindRegionsActivity.RegionsActivitySubcomponent</text>
<text text-anchor="middle" x="1333.3639" y="-1066.4" font-family="Times,serif" font-size="14.00" fill="#000000">@PerActivity</text>
</a>
</g>
</g>
<g id="clust6" class="cluster">
<title>cluster_Map&lt;Class&lt;?&gt;, Provider&lt;AndroidInjector.Factory&lt;?&gt;&gt;&gt;</title>
<g id="a_clust6"><a xlink:href="full_org.owntracks.android.injection.modules.AndroidBindingModule_BindRegionsActivity.RegionsActivitySubcomponent.svg" xlink:title="Map&lt;Class&lt;?&gt;, Provider&lt;AndroidInjector.Factory&lt;?&gt;&gt;&gt;">
<path fill="none" stroke="#000000" d="M637.1954,-324.8C637.1954,-324.8 1754.9852,-324.8 1754.9852,-324.8 1760.9852,-324.8 1766.9852,-330.8 1766.9852,-336.8 1766.9852,-336.8 1766.9852,-1037.8 1766.9852,-1037.8 1766.9852,-1043.8 1760.9852,-1049.8 1754.9852,-1049.8 1754.9852,-1049.8 637.1954,-1049.8 637.1954,-1049.8 631.1954,-1049.8 625.1954,-1043.8 625.1954,-1037.8 625.1954,-1037.8 625.1954,-336.8 625.1954,-336.8 625.1954,-330.8 631.1954,-324.8 637.1954,-324.8"/>
<text text-anchor="middle" x="1196.0903" y="-1033.2" font-family="Times,serif" font-size="14.00" fill="#000000">Map&lt;Class&lt;?&gt;, Provider&lt;AndroidInjector.Factory&lt;?&gt;&gt;&gt;</text>
</a>
</g>
</g>
<g id="clust1" class="cluster">
<title>cluster_Entry Points</title>
<polygon fill="none" stroke="#000000" points="8,-177.8 8,-254.8 175.6922,-254.8 175.6922,-177.8 8,-177.8"/>
<text text-anchor="middle" x="50.8061" y="-238.2" font-family="Times,serif" font-size="14.00" fill="#000000">Entry Points</text>
</g>
<!-- 3cf7146a&#45;34fb&#45;4f79&#45;82d4&#45;2c4aae4492a6 -->
<g id="node1" class="node">
<title>3cf7146a&#45;34fb&#45;4f79&#45;82d4&#45;2c4aae4492a6</title>
<polygon fill="#40e0d0" stroke="#40e0d0" stroke-width="2" points="167.5386,-221.8 16.1536,-221.8 16.1536,-217.8 12.1536,-217.8 12.1536,-213.8 16.1536,-213.8 16.1536,-193.8 12.1536,-193.8 12.1536,-189.8 16.1536,-189.8 16.1536,-185.8 167.5386,-185.8 167.5386,-221.8"/>
<polyline fill="none" stroke="#40e0d0" stroke-width="2" points="16.1536,-217.8 20.1536,-217.8 20.1536,-213.8 16.1536,-213.8 "/>
<polyline fill="none" stroke="#40e0d0" stroke-width="2" points="16.1536,-193.8 20.1536,-193.8 20.1536,-189.8 16.1536,-189.8 "/>
<text text-anchor="middle" x="91.8461" y="-199.6" font-family="Times,serif" font-size="14.00" fill="#000000">inject (RegionsActivity)</text>
</g>
<!-- 30fca5a2&#45;9555&#45;4b3e&#45;b512&#45;bdba5b6e1827 -->
<g id="node2" class="node">
<title>30fca5a2&#45;9555&#45;4b3e&#45;b512&#45;bdba5b6e1827</title>
<polygon fill="#40e0d0" stroke="#40e0d0" points="469.3495,-509.8 242.4539,-509.8 242.4539,-473.8 469.3495,-473.8 469.3495,-509.8"/>
<text text-anchor="middle" x="355.9017" y="-487.6" font-family="Times,serif" font-size="14.00" fill="#000000">DispatchingAndroidInjector&lt;Object&gt;</text>
</g>
<!-- 3cf7146a&#45;34fb&#45;4f79&#45;82d4&#45;2c4aae4492a6&#45;&gt;30fca5a2&#45;9555&#45;4b3e&#45;b512&#45;bdba5b6e1827 -->
<g id="edge4" class="edge">
<title>3cf7146a&#45;34fb&#45;4f79&#45;82d4&#45;2c4aae4492a6&#45;&gt;30fca5a2&#45;9555&#45;4b3e&#45;b512&#45;bdba5b6e1827</title>
<path fill="none" stroke="#000000" d="M108.364,-221.8157C153.6545,-271.2132 279.9202,-408.9285 332.4791,-466.2534"/>
<polygon fill="#000000" stroke="#000000" points="330.0522,-468.7856 339.3901,-473.7911 335.2118,-464.0549 330.0522,-468.7856"/>
</g>
<!-- 2de18bbe&#45;6cf2&#45;4ba3&#45;b176&#45;362aae590a99 -->
<g id="node3" class="node">
<title>2de18bbe&#45;6cf2&#45;4ba3&#45;b176&#45;362aae590a99</title>
<polygon fill="#40e0d0" stroke="#40e0d0" points="507.321,-221.8 204.4824,-221.8 204.4824,-185.8 507.321,-185.8 507.321,-221.8"/>
<text text-anchor="middle" x="355.9017" y="-199.6" font-family="Times,serif" font-size="14.00" fill="#000000">RegionsMvvm.ViewModel&lt;RegionsMvvm.View&gt;</text>
</g>
<!-- 3cf7146a&#45;34fb&#45;4f79&#45;82d4&#45;2c4aae4492a6&#45;&gt;2de18bbe&#45;6cf2&#45;4ba3&#45;b176&#45;362aae590a99 -->
<g id="edge5" class="edge">
<title>3cf7146a&#45;34fb&#45;4f79&#45;82d4&#45;2c4aae4492a6&#45;&gt;2de18bbe&#45;6cf2&#45;4ba3&#45;b176&#45;362aae590a99</title>
<path fill="none" stroke="#000000" d="M167.8677,-203.8C176.2807,-203.8 185.0661,-203.8 194.0458,-203.8"/>
<polygon fill="#000000" stroke="#000000" points="194.2572,-207.3001 204.2572,-203.8 194.2572,-200.3001 194.2572,-207.3001"/>
</g>
<!-- 1267dd36&#45;2fc4&#45;4dc0&#45;9065&#45;4d5ad2c4ee79 -->
<g id="node4" class="node">
<title>1267dd36&#45;2fc4&#45;4dc0&#45;9065&#45;4d5ad2c4ee79</title>
<polygon fill="#7fffd4" stroke="#7fffd4" points="1160.6983,-134.4019 1054.3529,-134.4019 1054.3529,-93.1981 1160.6983,-93.1981 1160.6983,-134.4019"/>
<text text-anchor="middle" x="1107.5256" y="-118" font-family="Times,serif" font-size="14.00" fill="#000000">@PerActivity</text>
<text text-anchor="middle" x="1107.5256" y="-101.2" font-family="Times,serif" font-size="14.00" fill="#000000">DrawerProvider</text>
</g>
<!-- 3cf7146a&#45;34fb&#45;4f79&#45;82d4&#45;2c4aae4492a6&#45;&gt;1267dd36&#45;2fc4&#45;4dc0&#45;9065&#45;4d5ad2c4ee79 -->
<g id="edge2" class="edge">
<title>3cf7146a&#45;34fb&#45;4f79&#45;82d4&#45;2c4aae4492a6&#45;&gt;1267dd36&#45;2fc4&#45;4dc0&#45;9065&#45;4d5ad2c4ee79</title>
<path fill="none" stroke="#000000" d="M137.7738,-185.6314C189.8174,-166.7102 277.599,-139.8 355.9017,-139.8 355.9017,-139.8 355.9017,-139.8 1009.933,-139.8 1021.2569,-139.8 1033.0783,-138.1453 1044.4256,-135.6708"/>
<polygon fill="#000000" stroke="#000000" points="1045.3475,-139.0489 1054.251,-133.3062 1043.7096,-132.2433 1045.3475,-139.0489"/>
</g>
<!-- 13e9af84&#45;b688&#45;4cf3&#45;89a0&#45;942f494729be -->
<g id="node5" class="node">
<title>13e9af84&#45;b688&#45;4cf3&#45;89a0&#45;942f494729be</title>
<polygon fill="#76ee00" stroke="#76ee00" points="2461.8176,-194.4019 2379.6921,-194.4019 2379.6921,-153.1981 2461.8176,-153.1981 2461.8176,-194.4019"/>
<text text-anchor="middle" x="2420.7549" y="-178" font-family="Times,serif" font-size="14.00" fill="#000000">@Singleton</text>
<text text-anchor="middle" x="2420.7549" y="-161.2" font-family="Times,serif" font-size="14.00" fill="#000000">Preferences</text>
</g>
<!-- 3cf7146a&#45;34fb&#45;4f79&#45;82d4&#45;2c4aae4492a6&#45;&gt;13e9af84&#45;b688&#45;4cf3&#45;89a0&#45;942f494729be -->
<g id="edge3" class="edge">
<title>3cf7146a&#45;34fb&#45;4f79&#45;82d4&#45;2c4aae4492a6&#45;&gt;13e9af84&#45;b688&#45;4cf3&#45;89a0&#45;942f494729be</title>
<path fill="none" stroke="#000000" d="M105.3316,-185.6515C140.8462,-140.1445 242.0888,-24.8 355.9017,-24.8 355.9017,-24.8 355.9017,-24.8 2341.9741,-24.8 2394.9576,-24.8 2412.4026,-99.342 2418.0756,-142.978"/>
<polygon fill="#000000" stroke="#000000" points="2414.6189,-143.5541 2419.2521,-153.0822 2421.572,-142.7445 2414.6189,-143.5541"/>
</g>
<!-- 51d55dae&#45;9562&#45;4bbf&#45;8089&#45;2c0ee3bc3209 -->
<g id="node6" class="node">
<title>51d55dae&#45;9562&#45;4bbf&#45;8089&#45;2c0ee3bc3209</title>
<polygon fill="#7fffd4" stroke="#7fffd4" points="1154.4606,-194.4019 1060.5906,-194.4019 1060.5906,-153.1981 1154.4606,-153.1981 1154.4606,-194.4019"/>
<text text-anchor="middle" x="1107.5256" y="-178" font-family="Times,serif" font-size="14.00" fill="#000000">@PerActivity</text>
<text text-anchor="middle" x="1107.5256" y="-161.2" font-family="Times,serif" font-size="14.00" fill="#000000">Navigator</text>
</g>
<!-- 3cf7146a&#45;34fb&#45;4f79&#45;82d4&#45;2c4aae4492a6&#45;&gt;51d55dae&#45;9562&#45;4bbf&#45;8089&#45;2c0ee3bc3209 -->
<g id="edge1" class="edge">
<title>3cf7146a&#45;34fb&#45;4f79&#45;82d4&#45;2c4aae4492a6&#45;&gt;51d55dae&#45;9562&#45;4bbf&#45;8089&#45;2c0ee3bc3209</title>
<path fill="none" stroke="#000000" d="M93.2954,-221.8459C103.7392,-345.9191 172.3885,-1067.8 355.9017,-1067.8 355.9017,-1067.8 355.9017,-1067.8 1009.933,-1067.8 1057.9782,-1067.8 1021.2814,-244.1042 1047.433,-203.8 1049.0396,-201.324 1050.916,-199.0443 1052.9931,-196.9463"/>
<polygon fill="#000000" stroke="#000000" points="1055.2923,-199.5863 1060.7283,-190.4922 1050.8077,-194.2115 1055.2923,-199.5863"/>
</g>
<!-- f715f1ca&#45;0e6d&#45;4a2c&#45;9357&#45;b62854a1525f -->
<g id="node19" class="node">
<title>f715f1ca&#45;0e6d&#45;4a2c&#45;9357&#45;b62854a1525f</title>
<polygon fill="#40e0d0" stroke="#40e0d0" points="972.5519,-659.8 645.0765,-659.8 645.0765,-663.8 633.0765,-663.8 633.0765,-623.8 972.5519,-623.8 972.5519,-659.8"/>
<polyline fill="none" stroke="#40e0d0" points="633.0765,-659.8 645.0765,-659.8 "/>
<text text-anchor="middle" x="802.8142" y="-637.6" font-family="Times,serif" font-size="14.00" fill="#000000">Map&lt;Class&lt;?&gt;, Provider&lt;AndroidInjector.Factory&lt;?&gt;&gt;&gt;</text>
</g>
<!-- 30fca5a2&#45;9555&#45;4b3e&#45;b512&#45;bdba5b6e1827&#45;&gt;f715f1ca&#45;0e6d&#45;4a2c&#45;9357&#45;b62854a1525f -->
<g id="edge6" class="edge">
<title>30fca5a2&#45;9555&#45;4b3e&#45;b512&#45;bdba5b6e1827&#45;&gt;f715f1ca&#45;0e6d&#45;4a2c&#45;9357&#45;b62854a1525f</title>
<path fill="none" stroke="#000000" d="M385.7292,-509.9259C434.1006,-538.3939 533.5006,-593.0879 625.1954,-619.8 626.687,-620.2345 628.1881,-620.6605 629.6978,-621.078"/>
<polygon fill="#000000" stroke="#000000" points="629.2154,-624.5695 639.7756,-623.7134 630.9864,-617.7972 629.2154,-624.5695"/>
</g>
<!-- cef50a37&#45;5cf1&#45;443e&#45;9fb4&#45;31dbc54fc11f -->
<g id="node7" class="node">
<title>cef50a37&#45;5cf1&#45;443e&#45;9fb4&#45;31dbc54fc11f</title>
<polygon fill="#7fffd4" stroke="#7fffd4" points="867.069,-224.4019 738.5594,-224.4019 738.5594,-183.1981 867.069,-183.1981 867.069,-224.4019"/>
<text text-anchor="middle" x="802.8142" y="-208" font-family="Times,serif" font-size="14.00" fill="#000000">@PerActivity</text>
<text text-anchor="middle" x="802.8142" y="-191.2" font-family="Times,serif" font-size="14.00" fill="#000000">RegionsViewModel</text>
</g>
<!-- 2de18bbe&#45;6cf2&#45;4ba3&#45;b176&#45;362aae590a99&#45;&gt;cef50a37&#45;5cf1&#45;443e&#45;9fb4&#45;31dbc54fc11f -->
<g id="edge7" class="edge">
<title>2de18bbe&#45;6cf2&#45;4ba3&#45;b176&#45;362aae590a99&#45;&gt;cef50a37&#45;5cf1&#45;443e&#45;9fb4&#45;31dbc54fc11f</title>
<path fill="none" stroke="#000000" stroke-dasharray="1,5" d="M507.2059,-203.8C581.653,-203.8 668.0694,-203.8 728.1636,-203.8"/>
<polygon fill="#000000" stroke="#000000" points="728.3215,-207.3001 738.3215,-203.8 728.3214,-200.3001 728.3215,-207.3001"/>
<text text-anchor="middle" x="570.1533" y="-208" font-family="Times,serif" font-size="14.00" fill="#000000">delegates</text>
</g>
<!-- 3e8cc19f&#45;cd3c&#45;44c2&#45;8b50&#45;e40e2774eef5 -->
<g id="node13" class="node">
<title>3e8cc19f&#45;cd3c&#45;44c2&#45;8b50&#45;e40e2774eef5</title>
<polygon fill="#76ee00" stroke="#76ee00" points="2035.1255,-194.4019 1953,-194.4019 1953,-153.1981 2035.1255,-153.1981 2035.1255,-194.4019"/>
<text text-anchor="middle" x="1994.0627" y="-178" font-family="Times,serif" font-size="14.00" fill="#000000">@Singleton</text>
<text text-anchor="middle" x="1994.0627" y="-161.2" font-family="Times,serif" font-size="14.00" fill="#000000">Scheduler</text>
</g>
<!-- 1267dd36&#45;2fc4&#45;4dc0&#45;9065&#45;4d5ad2c4ee79&#45;&gt;3e8cc19f&#45;cd3c&#45;44c2&#45;8b50&#45;e40e2774eef5 -->
<g id="edge8" class="edge">
<title>1267dd36&#45;2fc4&#45;4dc0&#45;9065&#45;4d5ad2c4ee79&#45;&gt;3e8cc19f&#45;cd3c&#45;44c2&#45;8b50&#45;e40e2774eef5</title>
<path fill="none" stroke="#000000" d="M1160.7084,-113.8C1175.1194,-113.8 1190.7165,-113.8 1205.1182,-113.8 1205.1182,-113.8 1205.1182,-113.8 1822.0273,-113.8 1866.8429,-113.8 1914.7464,-132.1775 1948.5932,-148.591"/>
<polygon fill="#000000" stroke="#000000" points="1947.2409,-151.8275 1957.7527,-153.1514 1950.3609,-145.5612 1947.2409,-151.8275"/>
</g>
<!-- 049d8c4b&#45;e540&#45;42be&#45;a301&#45;33e743ccffd9 -->
<g id="node17" class="node">
<title>049d8c4b&#45;e540&#45;42be&#45;a301&#45;33e743ccffd9</title>
<polygon fill="#7fffd4" stroke="#7fffd4" points="1566.1247,-94.4019 1435.4787,-94.4019 1435.4787,-53.1981 1566.1247,-53.1981 1566.1247,-94.4019"/>
<text text-anchor="middle" x="1500.8017" y="-78" font-family="Times,serif" font-size="14.00" fill="#000000">@PerActivity</text>
<text text-anchor="middle" x="1500.8017" y="-61.2" font-family="Times,serif" font-size="14.00" fill="#000000">AppCompatActivity</text>
</g>
<!-- 1267dd36&#45;2fc4&#45;4dc0&#45;9065&#45;4d5ad2c4ee79&#45;&gt;049d8c4b&#45;e540&#45;42be&#45;a301&#45;33e743ccffd9 -->
<g id="edge9" class="edge">
<title>1267dd36&#45;2fc4&#45;4dc0&#45;9065&#45;4d5ad2c4ee79&#45;&gt;049d8c4b&#45;e540&#45;42be&#45;a301&#45;33e743ccffd9</title>
<path fill="none" stroke="#000000" d="M1160.8274,-94.702C1169.0411,-92.3533 1177.4931,-90.2675 1185.6182,-88.8 1266.597,-74.1739 1361.062,-71.5477 1425.3052,-71.8747"/>
<polygon fill="#000000" stroke="#000000" points="1425.3233,-75.3749 1435.3497,-71.9512 1425.3766,-68.3751 1425.3233,-75.3749"/>
</g>
<!-- 51d55dae&#45;9562&#45;4bbf&#45;8089&#45;2c0ee3bc3209&#45;&gt;049d8c4b&#45;e540&#45;42be&#45;a301&#45;33e743ccffd9 -->
<g id="edge15" class="edge">
<title>51d55dae&#45;9562&#45;4bbf&#45;8089&#45;2c0ee3bc3209&#45;&gt;049d8c4b&#45;e540&#45;42be&#45;a301&#45;33e743ccffd9</title>
<path fill="none" stroke="#000000" d="M1151.8372,-153.1564C1157.2607,-150.2013 1162.6402,-147.0535 1167.6182,-143.8 1176.3352,-138.1028 1176.9628,-134.5904 1185.6182,-128.8 1201.4811,-118.1879 1205.414,-114.5319 1223.6182,-108.8 1289.8206,-87.9549 1368.6162,-79.4777 1425.2427,-76.0548"/>
<polygon fill="#000000" stroke="#000000" points="1425.7634,-79.5311 1435.5501,-75.4727 1425.3687,-72.5422 1425.7634,-79.5311"/>
</g>
<!-- cef50a37&#45;5cf1&#45;443e&#45;9fb4&#45;31dbc54fc11f&#45;&gt;51d55dae&#45;9562&#45;4bbf&#45;8089&#45;2c0ee3bc3209 -->
<g id="edge14" class="edge">
<title>cef50a37&#45;5cf1&#45;443e&#45;9fb4&#45;31dbc54fc11f&#45;&gt;51d55dae&#45;9562&#45;4bbf&#45;8089&#45;2c0ee3bc3209</title>
<path fill="none" stroke="#000000" d="M867.4357,-197.4378C921.6466,-192.1005 998.338,-184.5499 1050.3466,-179.4295"/>
<polygon fill="#000000" stroke="#000000" points="1050.7963,-182.9022 1060.4052,-178.4392 1050.1103,-175.9359 1050.7963,-182.9022"/>
</g>
<!-- 44a9aedd&#45;b378&#45;4ee4&#45;a331&#45;b7eedca595b8 -->
<g id="node8" class="node">
<title>44a9aedd&#45;b378&#45;4ee4&#45;a331&#45;b7eedca595b8</title>
<polygon fill="#76ee00" stroke="#76ee00" points="1167.7109,-254.4019 1047.3403,-254.4019 1047.3403,-213.1981 1167.7109,-213.1981 1167.7109,-254.4019"/>
<text text-anchor="middle" x="1107.5256" y="-238" font-family="Times,serif" font-size="14.00" fill="#000000">@Singleton</text>
<text text-anchor="middle" x="1107.5256" y="-221.2" font-family="Times,serif" font-size="14.00" fill="#000000">LocationProcessor</text>
</g>
<!-- cef50a37&#45;5cf1&#45;443e&#45;9fb4&#45;31dbc54fc11f&#45;&gt;44a9aedd&#45;b378&#45;4ee4&#45;a331&#45;b7eedca595b8 -->
<g id="edge29" class="edge">
<title>cef50a37&#45;5cf1&#45;443e&#45;9fb4&#45;31dbc54fc11f&#45;&gt;44a9aedd&#45;b378&#45;4ee4&#45;a331&#45;b7eedca595b8</title>
<path fill="none" stroke="#000000" d="M867.4357,-210.1622C917.3064,-215.0722 986.2022,-221.8552 1037.4046,-226.8963"/>
<polygon fill="#000000" stroke="#000000" points="1037.1035,-230.3835 1047.3983,-227.8802 1037.7894,-223.4172 1037.1035,-230.3835"/>
</g>
<!-- 44a9aedd&#45;b378&#45;4ee4&#45;a331&#45;b7eedca595b8&#45;&gt;13e9af84&#45;b688&#45;4cf3&#45;89a0&#45;942f494729be -->
<g id="edge10" class="edge">
<title>44a9aedd&#45;b378&#45;4ee4&#45;a331&#45;b7eedca595b8&#45;&gt;13e9af84&#45;b688&#45;4cf3&#45;89a0&#45;942f494729be</title>
<path fill="none" stroke="#000000" d="M1155.933,-213.1121C1160.1283,-210.3133 1164.1057,-207.2128 1167.6182,-203.8 1192.9315,-179.2049 1169.824,-133.8 1205.1182,-133.8 1205.1182,-133.8 1205.1182,-133.8 2341.9741,-133.8 2357.553,-133.8 2373.1703,-140.0957 2386.3435,-147.6918"/>
<polygon fill="#000000" stroke="#000000" points="2384.7013,-150.7921 2395.0424,-153.097 2388.3958,-144.8464 2384.7013,-150.7921"/>
</g>
<!-- f377ad34&#45;6ca1&#45;4d57&#45;af8b&#45;8e8030dd00ed -->
<g id="node9" class="node">
<title>f377ad34&#45;6ca1&#45;4d57&#45;af8b&#45;8e8030dd00ed</title>
<polygon fill="#76ee00" stroke="#76ee00" points="1560.7022,-254.4019 1440.9012,-254.4019 1440.9012,-213.1981 1560.7022,-213.1981 1560.7022,-254.4019"/>
<text text-anchor="middle" x="1500.8017" y="-238" font-family="Times,serif" font-size="14.00" fill="#000000">@Singleton</text>
<text text-anchor="middle" x="1500.8017" y="-221.2" font-family="Times,serif" font-size="14.00" fill="#000000">MessageProcessor</text>
</g>
<!-- 44a9aedd&#45;b378&#45;4ee4&#45;a331&#45;b7eedca595b8&#45;&gt;f377ad34&#45;6ca1&#45;4d57&#45;af8b&#45;8e8030dd00ed -->
<g id="edge31" class="edge">
<title>44a9aedd&#45;b378&#45;4ee4&#45;a331&#45;b7eedca595b8&#45;&gt;f377ad34&#45;6ca1&#45;4d57&#45;af8b&#45;8e8030dd00ed</title>
<path fill="none" stroke="#000000" d="M1167.6839,-228.7773C1238.4809,-226.5744 1355.8529,-226.4786 1430.7024,-228.4898"/>
<polygon fill="#000000" stroke="#000000" points="1430.8753,-231.9962 1440.9725,-228.7875 1431.0782,-224.9991 1430.8753,-231.9962"/>
</g>
<!-- f0f557bb&#45;27d8&#45;41cc&#45;965d&#45;9f5f40a1461f -->
<g id="node10" class="node">
<title>f0f557bb&#45;27d8&#45;41cc&#45;965d&#45;9f5f40a1461f</title>
<polygon fill="#76ee00" stroke="#76ee00" points="1548.6164,-314.4019 1452.987,-314.4019 1452.987,-273.1981 1548.6164,-273.1981 1548.6164,-314.4019"/>
<text text-anchor="middle" x="1500.8017" y="-298" font-family="Times,serif" font-size="14.00" fill="#000000">@Singleton</text>
<text text-anchor="middle" x="1500.8017" y="-281.2" font-family="Times,serif" font-size="14.00" fill="#000000">LocationRepo</text>
</g>
<!-- 44a9aedd&#45;b378&#45;4ee4&#45;a331&#45;b7eedca595b8&#45;&gt;f0f557bb&#45;27d8&#45;41cc&#45;965d&#45;9f5f40a1461f -->
<g id="edge33" class="edge">
<title>44a9aedd&#45;b378&#45;4ee4&#45;a331&#45;b7eedca595b8&#45;&gt;f0f557bb&#45;27d8&#45;41cc&#45;965d&#45;9f5f40a1461f</title>
<path fill="none" stroke="#000000" d="M1167.7892,-248.5741C1191.0651,-253.9139 1217.9803,-259.6442 1242.6182,-263.8 1311.0317,-275.3395 1390.3965,-283.8392 1442.8812,-288.7881"/>
<polygon fill="#000000" stroke="#000000" points="1442.7273,-292.2888 1453.0086,-289.7303 1443.3758,-285.3189 1442.7273,-292.2888"/>
</g>
<!-- 44c1e1c3&#45;98c4&#45;451e&#45;8359&#45;3438883e90d7 -->
<g id="node11" class="node">
<title>44c1e1c3&#45;98c4&#45;451e&#45;8359&#45;3438883e90d7</title>
<polygon fill="#76ee00" stroke="#76ee00" points="1573.9124,-194.4019 1427.691,-194.4019 1427.691,-153.1981 1573.9124,-153.1981 1573.9124,-194.4019"/>
<text text-anchor="middle" x="1500.8017" y="-178" font-family="Times,serif" font-size="14.00" fill="#000000">@Singleton</text>
<text text-anchor="middle" x="1500.8017" y="-161.2" font-family="Times,serif" font-size="14.00" fill="#000000">DeviceMetricsProvider</text>
</g>
<!-- 44a9aedd&#45;b378&#45;4ee4&#45;a331&#45;b7eedca595b8&#45;&gt;44c1e1c3&#45;98c4&#45;451e&#45;8359&#45;3438883e90d7 -->
<g id="edge32" class="edge">
<title>44a9aedd&#45;b378&#45;4ee4&#45;a331&#45;b7eedca595b8&#45;&gt;44c1e1c3&#45;98c4&#45;451e&#45;8359&#45;3438883e90d7</title>
<path fill="none" stroke="#000000" d="M1167.7892,-219.0259C1191.0651,-213.6861 1217.9803,-207.9558 1242.6182,-203.8 1300.6901,-194.0048 1366.6528,-186.3999 1417.3681,-181.2978"/>
<polygon fill="#000000" stroke="#000000" points="1418.0202,-184.7504 1427.6253,-180.279 1417.3283,-177.7846 1418.0202,-184.7504"/>
</g>
<!-- f377ad34&#45;6ca1&#45;4d57&#45;af8b&#45;8e8030dd00ed&#45;&gt;13e9af84&#45;b688&#45;4cf3&#45;89a0&#45;942f494729be -->
<g id="edge11" class="edge">
<title>f377ad34&#45;6ca1&#45;4d57&#45;af8b&#45;8e8030dd00ed&#45;&gt;13e9af84&#45;b688&#45;4cf3&#45;89a0&#45;942f494729be</title>
<path fill="none" stroke="#000000" d="M1560.5508,-227.859C1617.2668,-225.0203 1703.1031,-228.2058 1766.9852,-263.8 1801.5579,-283.0634 1782.4502,-333.8 1822.0273,-333.8 1822.0273,-333.8 1822.0273,-333.8 2341.9741,-333.8 2370.4716,-333.8 2398.7194,-251.0735 2412.3422,-204.5904"/>
<polygon fill="#000000" stroke="#000000" points="2415.7813,-205.2947 2415.1759,-194.7172 2409.053,-203.3636 2415.7813,-205.2947"/>
</g>
<!-- f377ad34&#45;6ca1&#45;4d57&#45;af8b&#45;8e8030dd00ed&#45;&gt;44a9aedd&#45;b378&#45;4ee4&#45;a331&#45;b7eedca595b8 -->
<g id="edge30" class="edge">
<title>f377ad34&#45;6ca1&#45;4d57&#45;af8b&#45;8e8030dd00ed&#45;&gt;44a9aedd&#45;b378&#45;4ee4&#45;a331&#45;b7eedca595b8</title>
<path fill="none" stroke="#000000" d="M1440.9725,-238.8125C1370.3202,-241.0218 1252.9547,-241.1242 1177.9735,-239.1196"/>
<polygon fill="#000000" stroke="#000000" points="1177.7807,-235.6126 1167.6839,-238.8227 1177.5788,-242.6097 1177.7807,-235.6126"/>
</g>
<!-- cc76c16f&#45;482a&#45;4f17&#45;ace9&#45;59d89ad0e458 -->
<g id="node12" class="node">
<title>cc76c16f&#45;482a&#45;4f17&#45;ace9&#45;59d89ad0e458</title>
<polygon fill="#76ee00" stroke="#76ee00" points="2035.1255,-394.4019 1953,-394.4019 1953,-353.1981 2035.1255,-353.1981 2035.1255,-394.4019"/>
<text text-anchor="middle" x="1994.0627" y="-378" font-family="Times,serif" font-size="14.00" fill="#000000">@Singleton</text>
<text text-anchor="middle" x="1994.0627" y="-361.2" font-family="Times,serif" font-size="14.00" fill="#000000">Parser</text>
</g>
<!-- f377ad34&#45;6ca1&#45;4d57&#45;af8b&#45;8e8030dd00ed&#45;&gt;cc76c16f&#45;482a&#45;4f17&#45;ace9&#45;59d89ad0e458 -->
<g id="edge35" class="edge">
<title>f377ad34&#45;6ca1&#45;4d57&#45;af8b&#45;8e8030dd00ed&#45;&gt;cc76c16f&#45;482a&#45;4f17&#45;ace9&#45;59d89ad0e458</title>
<path fill="none" stroke="#000000" d="M1560.627,-221.5969C1621.1592,-213.0583 1713.2577,-211.1533 1766.9852,-263.8 1791.0044,-287.336 1753.5332,-314.6988 1776.9852,-338.8 1819.3614,-382.3493 1892.9661,-385.2735 1942.5809,-381.2559"/>
<polygon fill="#000000" stroke="#000000" points="1943.1519,-384.7179 1952.7841,-380.3053 1942.5026,-377.7481 1943.1519,-384.7179"/>
</g>
<!-- f377ad34&#45;6ca1&#45;4d57&#45;af8b&#45;8e8030dd00ed&#45;&gt;3e8cc19f&#45;cd3c&#45;44c2&#45;8b50&#45;e40e2774eef5 -->
<g id="edge34" class="edge">
<title>f377ad34&#45;6ca1&#45;4d57&#45;af8b&#45;8e8030dd00ed&#45;&gt;3e8cc19f&#45;cd3c&#45;44c2&#45;8b50&#45;e40e2774eef5</title>
<path fill="none" stroke="#000000" d="M1560.5705,-227.3941C1614.5434,-221.5308 1696.1288,-212.4726 1766.9852,-203.8 1827.3499,-196.4115 1896.6313,-187.1443 1942.6327,-180.8798"/>
<polygon fill="#000000" stroke="#000000" points="1943.2216,-184.332 1952.6566,-179.5121 1942.2752,-177.3962 1943.2216,-184.332"/>
</g>
<!-- 7c8bb54c&#45;41d3&#45;44ce&#45;84ca&#45;29eb0afb45d8 -->
<g id="node14" class="node">
<title>7c8bb54c&#45;41d3&#45;44ce&#45;84ca&#45;29eb0afb45d8</title>
<polygon fill="#76ee00" stroke="#76ee00" points="2042.1428,-254.4019 1945.9827,-254.4019 1945.9827,-213.1981 2042.1428,-213.1981 2042.1428,-254.4019"/>
<text text-anchor="middle" x="1994.0627" y="-238" font-family="Times,serif" font-size="14.00" fill="#000000">@Singleton</text>
<text text-anchor="middle" x="1994.0627" y="-221.2" font-family="Times,serif" font-size="14.00" fill="#000000">ServiceBridge</text>
</g>
<!-- f377ad34&#45;6ca1&#45;4d57&#45;af8b&#45;8e8030dd00ed&#45;&gt;7c8bb54c&#45;41d3&#45;44ce&#45;84ca&#45;29eb0afb45d8 -->
<g id="edge36" class="edge">
<title>f377ad34&#45;6ca1&#45;4d57&#45;af8b&#45;8e8030dd00ed&#45;&gt;7c8bb54c&#45;41d3&#45;44ce&#45;84ca&#45;29eb0afb45d8</title>
<path fill="none" stroke="#000000" d="M1560.792,-233.8C1656.1921,-233.8 1841.317,-233.8 1935.6909,-233.8"/>
<polygon fill="#000000" stroke="#000000" points="1935.9123,-237.3001 1945.9123,-233.8 1935.9122,-230.3001 1935.9123,-237.3001"/>
</g>
<!-- 845caa5f&#45;e863&#45;46fe&#45;bba7&#45;cd3d43ec69b1 -->
<g id="node15" class="node">
<title>845caa5f&#45;e863&#45;46fe&#45;bba7&#45;cd3d43ec69b1</title>
<polygon fill="#76ee00" stroke="#76ee00" points="2080.3534,-314.4019 1907.7721,-314.4019 1907.7721,-273.1981 2080.3534,-273.1981 2080.3534,-314.4019"/>
<text text-anchor="middle" x="1994.0627" y="-298" font-family="Times,serif" font-size="14.00" fill="#000000">@Singleton</text>
<text text-anchor="middle" x="1994.0627" y="-281.2" font-family="Times,serif" font-size="14.00" fill="#000000">RunThingsOnOtherThreads</text>
</g>
<!-- f377ad34&#45;6ca1&#45;4d57&#45;af8b&#45;8e8030dd00ed&#45;&gt;845caa5f&#45;e863&#45;46fe&#45;bba7&#45;cd3d43ec69b1 -->
<g id="edge37" class="edge">
<title>f377ad34&#45;6ca1&#45;4d57&#45;af8b&#45;8e8030dd00ed&#45;&gt;845caa5f&#45;e863&#45;46fe&#45;bba7&#45;cd3d43ec69b1</title>
<path fill="none" stroke="#000000" d="M1560.5705,-240.2059C1614.5434,-246.0692 1696.1288,-255.1274 1766.9852,-263.8 1809.9224,-269.0554 1857.3711,-275.2614 1897.7442,-280.6611"/>
<polygon fill="#000000" stroke="#000000" points="1897.4727,-284.156 1907.849,-282.0155 1898.4027,-277.218 1897.4727,-284.156"/>
</g>
<!-- 2dd20861&#45;efea&#45;4f63&#45;a899&#45;a77281a5837f -->
<g id="node16" class="node">
<title>2dd20861&#45;efea&#45;4f63&#45;a899&#45;a77281a5837f</title>
<polygon fill="#76ee00" stroke="#76ee00" points="2304.6838,-394.4019 2177.8464,-394.4019 2177.8464,-353.1981 2304.6838,-353.1981 2304.6838,-394.4019"/>
<text text-anchor="middle" x="2241.2651" y="-378" font-family="Times,serif" font-size="14.00" fill="#000000">@Singleton</text>
<text text-anchor="middle" x="2241.2651" y="-361.2" font-family="Times,serif" font-size="14.00" fill="#000000">EncryptionProvider</text>
</g>
<!-- cc76c16f&#45;482a&#45;4f17&#45;ace9&#45;59d89ad0e458&#45;&gt;2dd20861&#45;efea&#45;4f63&#45;a899&#45;a77281a5837f -->
<g id="edge38" class="edge">
<title>cc76c16f&#45;482a&#45;4f17&#45;ace9&#45;59d89ad0e458&#45;&gt;2dd20861&#45;efea&#45;4f63&#45;a899&#45;a77281a5837f</title>
<path fill="none" stroke="#000000" d="M2035.1607,-373.8C2071.1304,-373.8 2124.256,-373.8 2167.5611,-373.8"/>
<polygon fill="#000000" stroke="#000000" points="2167.7731,-377.3001 2177.773,-373.8 2167.773,-370.3001 2167.7731,-377.3001"/>
</g>
<!-- 3e8cc19f&#45;cd3c&#45;44c2&#45;8b50&#45;e40e2774eef5&#45;&gt;13e9af84&#45;b688&#45;4cf3&#45;89a0&#45;942f494729be -->
<g id="edge12" class="edge">
<title>3e8cc19f&#45;cd3c&#45;44c2&#45;8b50&#45;e40e2774eef5&#45;&gt;13e9af84&#45;b688&#45;4cf3&#45;89a0&#45;942f494729be</title>
<path fill="none" stroke="#000000" d="M2035.4222,-173.8C2064.7651,-173.8 2105.0772,-173.8 2140.5561,-173.8 2140.5561,-173.8 2140.5561,-173.8 2341.9741,-173.8 2350.8183,-173.8 2360.2211,-173.8 2369.3359,-173.8"/>
<polygon fill="#000000" stroke="#000000" points="2369.4594,-177.3001 2379.4593,-173.8 2369.4593,-170.3001 2369.4594,-177.3001"/>
</g>
<!-- 2dd20861&#45;efea&#45;4f63&#45;a899&#45;a77281a5837f&#45;&gt;13e9af84&#45;b688&#45;4cf3&#45;89a0&#45;942f494729be -->
<g id="edge13" class="edge">
<title>2dd20861&#45;efea&#45;4f63&#45;a899&#45;a77281a5837f&#45;&gt;13e9af84&#45;b688&#45;4cf3&#45;89a0&#45;942f494729be</title>
<path fill="none" stroke="#000000" d="M2304.6897,-366.8582C2324.9184,-361.8531 2346.0342,-353.3171 2361.4741,-338.8 2399.318,-303.2179 2413.0502,-241.7525 2418.0003,-204.7243"/>
<polygon fill="#000000" stroke="#000000" points="2421.5081,-204.8673 2419.2242,-194.5216 2414.5579,-204.0335 2421.5081,-204.8673"/>
</g>
<!-- b5b5861e&#45;3aff&#45;45ad&#45;8945&#45;3a211b9a076e -->
<g id="node18" class="node">
<title>b5b5861e&#45;3aff&#45;45ad&#45;8945&#45;3a211b9a076e</title>
<polygon fill="#40e0d0" stroke="#40e0d0" points="2103.0494,-91.8 1929.676,-91.8 1885.0761,-55.8 2058.4495,-55.8 2103.0494,-91.8"/>
<text text-anchor="middle" x="1994.0627" y="-69.6" font-family="Times,serif" font-size="14.00" fill="#000000">RegionsActivity</text>
</g>
<!-- 049d8c4b&#45;e540&#45;42be&#45;a301&#45;33e743ccffd9&#45;&gt;b5b5861e&#45;3aff&#45;45ad&#45;8945&#45;3a211b9a076e -->
<g id="edge39" class="edge">
<title>049d8c4b&#45;e540&#45;42be&#45;a301&#45;33e743ccffd9&#45;&gt;b5b5861e&#45;3aff&#45;45ad&#45;8945&#45;3a211b9a076e</title>
<path fill="none" stroke="#000000" stroke-dasharray="1,5" d="M1566.0484,-73.8C1650.6386,-73.8 1798.8909,-73.8 1896.7855,-73.8"/>
<polygon fill="#000000" stroke="#000000" points="1896.9846,-77.3001 1906.9845,-73.8 1896.9845,-70.3001 1896.9846,-77.3001"/>
<text text-anchor="middle" x="1822.0273" y="-78" font-family="Times,serif" font-size="14.00" fill="#000000">delegates</text>
</g>
<!-- e2df994e&#45;1b30&#45;43b0&#45;9c59&#45;a62014b6676f -->
<g id="node20" class="node">
<title>e2df994e&#45;1b30&#45;43b0&#45;9c59&#45;a62014b6676f</title>
<polygon fill="#40e0d0" stroke="#40e0d0" points="1721.8441,-368.8 1279.7593,-368.8 1279.7593,-332.8 1721.8441,-332.8 1721.8441,-368.8"/>
<text text-anchor="middle" x="1500.8017" y="-346.6" font-family="Times,serif" font-size="14.00" fill="#000000">AndroidBindingModule_BindRegionActivity.bindAndroidInjectorFactory()</text>
</g>
<!-- f715f1ca&#45;0e6d&#45;4a2c&#45;9357&#45;b62854a1525f&#45;&gt;e2df994e&#45;1b30&#45;43b0&#45;9c59&#45;a62014b6676f -->
<g id="edge24" class="edge">
<title>f715f1ca&#45;0e6d&#45;4a2c&#45;9357&#45;b62854a1525f&#45;&gt;e2df994e&#45;1b30&#45;43b0&#45;9c59&#45;a62014b6676f</title>
<path fill="none" stroke="#000000" d="M968.2474,-623.7569C969.6812,-622.4922 971.0773,-621.1739 972.433,-619.8 1013.4339,-578.2471 951.5574,-359.8 1009.933,-359.8 1009.933,-359.8 1009.933,-359.8 1205.1182,-359.8 1226.0505,-359.8 1247.8124,-359.5719 1269.6093,-359.1882"/>
<polygon fill="#000000" stroke="#000000" points="1269.6908,-362.6874 1279.6237,-359.0013 1269.5601,-355.6887 1269.6908,-362.6874"/>
</g>
<!-- 71bd8e26&#45;5544&#45;4901&#45;9cc3&#45;afaeea23a6fd -->
<g id="node21" class="node">
<title>71bd8e26&#45;5544&#45;4901&#45;9cc3&#45;afaeea23a6fd</title>
<polygon fill="#40e0d0" stroke="#40e0d0" points="1726.3937,-422.8 1275.2097,-422.8 1275.2097,-386.8 1726.3937,-386.8 1726.3937,-422.8"/>
<text text-anchor="middle" x="1500.8017" y="-400.6" font-family="Times,serif" font-size="14.00" fill="#000000">AndroidBindingModule_BindContactsActivity.bindAndroidInjectorFactory()</text>
</g>
<!-- f715f1ca&#45;0e6d&#45;4a2c&#45;9357&#45;b62854a1525f&#45;&gt;71bd8e26&#45;5544&#45;4901&#45;9cc3&#45;afaeea23a6fd -->
<g id="edge20" class="edge">
<title>f715f1ca&#45;0e6d&#45;4a2c&#45;9357&#45;b62854a1525f&#45;&gt;71bd8e26&#45;5544&#45;4901&#45;9cc3&#45;afaeea23a6fd</title>
<path fill="none" stroke="#000000" d="M968.0866,-623.5914C969.5711,-622.379 971.0209,-621.1158 972.433,-619.8 1024.287,-571.4821 939.0567,-464.8 1009.933,-464.8 1009.933,-464.8 1009.933,-464.8 1205.1182,-464.8 1227.3193,-464.8 1222.2831,-440.7091 1242.6182,-431.8 1250.0284,-428.5535 1257.669,-425.6295 1265.471,-422.9987"/>
<polygon fill="#000000" stroke="#000000" points="1266.6033,-426.3114 1275.0633,-419.9333 1264.4724,-419.6436 1266.6033,-426.3114"/>
</g>
<!-- 5d91f504&#45;272e&#45;4a74&#45;b502&#45;a6a01742e625 -->
<g id="node22" class="node">
<title>5d91f504&#45;272e&#45;4a74&#45;b502&#45;a6a01742e625</title>
<polygon fill="#40e0d0" stroke="#40e0d0" points="1728.5418,-476.8 1273.0616,-476.8 1273.0616,-440.8 1728.5418,-440.8 1728.5418,-476.8"/>
<text text-anchor="middle" x="1500.8017" y="-454.6" font-family="Times,serif" font-size="14.00" fill="#000000">AndroidBindingModule_BindWelcomeActivity.bindAndroidInjectorFactory()</text>
</g>
<!-- f715f1ca&#45;0e6d&#45;4a2c&#45;9357&#45;b62854a1525f&#45;&gt;5d91f504&#45;272e&#45;4a74&#45;b502&#45;a6a01742e625 -->
<g id="edge18" class="edge">
<title>f715f1ca&#45;0e6d&#45;4a2c&#45;9357&#45;b62854a1525f&#45;&gt;5d91f504&#45;272e&#45;4a74&#45;b502&#45;a6a01742e625</title>
<path fill="none" stroke="#000000" d="M967.4953,-623.5863C969.1778,-622.3784 970.8249,-621.117 972.433,-619.8 1006.913,-591.5626 965.3659,-526.8 1009.933,-526.8 1009.933,-526.8 1009.933,-526.8 1205.1182,-526.8 1229.8129,-526.8 1220.5686,-496.9195 1242.6182,-485.8 1249.2579,-482.4516 1256.1143,-479.4227 1263.1318,-476.686"/>
<polygon fill="#000000" stroke="#000000" points="1264.6179,-479.8687 1272.7957,-473.1327 1262.2022,-473.2988 1264.6179,-479.8687"/>
</g>
<!-- 32dc22f8&#45;ad06&#45;4905&#45;8054&#45;5098c6b9077b -->
<g id="node23" class="node">
<title>32dc22f8&#45;ad06&#45;4905&#45;8054&#45;5098c6b9077b</title>
<polygon fill="#40e0d0" stroke="#40e0d0" points="1733.9227,-530.8 1267.6807,-530.8 1267.6807,-494.8 1733.9227,-494.8 1733.9227,-530.8"/>
<text text-anchor="middle" x="1500.8017" y="-508.6" font-family="Times,serif" font-size="14.00" fill="#000000">AndroidBindingModule_BindBackgroundService.bindAndroidInjectorFactory()</text>
</g>
<!-- f715f1ca&#45;0e6d&#45;4a2c&#45;9357&#45;b62854a1525f&#45;&gt;32dc22f8&#45;ad06&#45;4905&#45;8054&#45;5098c6b9077b -->
<g id="edge26" class="edge">
<title>f715f1ca&#45;0e6d&#45;4a2c&#45;9357&#45;b62854a1525f&#45;&gt;32dc22f8&#45;ad06&#45;4905&#45;8054&#45;5098c6b9077b</title>
<path fill="none" stroke="#000000" d="M965.9562,-623.7374C968.1581,-622.4903 970.3189,-621.1788 972.433,-619.8 999.4072,-602.208 977.7292,-557.8 1009.933,-557.8 1009.933,-557.8 1009.933,-557.8 1205.1182,-557.8 1223.6054,-557.8 1224.8299,-544.8354 1242.6182,-539.8 1251.3757,-537.321 1260.3582,-535.065 1269.4758,-533.0124"/>
<polygon fill="#000000" stroke="#000000" points="1270.3829,-536.3973 1279.418,-530.864 1268.9044,-529.5552 1270.3829,-536.3973"/>
</g>
<!-- e402ee1b&#45;3db9&#45;40e2&#45;a00e&#45;d6cf83ebe9ad -->
<g id="node24" class="node">
<title>e402ee1b&#45;3db9&#45;40e2&#45;a00e&#45;d6cf83ebe9ad</title>
<polygon fill="#40e0d0" stroke="#40e0d0" points="1719.3965,-584.8 1282.2069,-584.8 1282.2069,-548.8 1719.3965,-548.8 1719.3965,-584.8"/>
<text text-anchor="middle" x="1500.8017" y="-562.6" font-family="Times,serif" font-size="14.00" fill="#000000">AndroidBindingModule_BindEditorActivity.bindAndroidInjectorFactory()</text>
</g>
<!-- f715f1ca&#45;0e6d&#45;4a2c&#45;9357&#45;b62854a1525f&#45;&gt;e402ee1b&#45;3db9&#45;40e2&#45;a00e&#45;d6cf83ebe9ad -->
<g id="edge16" class="edge">
<title>f715f1ca&#45;0e6d&#45;4a2c&#45;9357&#45;b62854a1525f&#45;&gt;e402ee1b&#45;3db9&#45;40e2&#45;a00e&#45;d6cf83ebe9ad</title>
<path fill="none" stroke="#000000" d="M959.512,-623.74C963.8894,-622.5115 968.2046,-621.2 972.433,-619.8 990.5669,-613.7959 990.8309,-598.8 1009.933,-598.8 1009.933,-598.8 1009.933,-598.8 1205.1182,-598.8 1221.9324,-598.8 1225.9217,-595.7857 1242.6182,-593.8 1265.1343,-591.1221 1288.7726,-588.454 1312.2221,-585.8951"/>
<polygon fill="#000000" stroke="#000000" points="1312.6929,-589.3647 1322.2565,-584.8055 1311.9371,-582.4056 1312.6929,-589.3647"/>
</g>
<!-- 1348fa5a&#45;2a03&#45;4e83&#45;9a94&#45;9cd238271587 -->
<g id="node25" class="node">
<title>1348fa5a&#45;2a03&#45;4e83&#45;9a94&#45;9cd238271587</title>
<polygon fill="#40e0d0" stroke="#40e0d0" points="1759.1688,-638.8 1242.4346,-638.8 1242.4346,-602.8 1759.1688,-602.8 1759.1688,-638.8"/>
<text text-anchor="middle" x="1500.8017" y="-616.6" font-family="Times,serif" font-size="14.00" fill="#000000">AndroidBindingModule_BindBackgroundServiceReceiver.bindAndroidInjectorFactory()</text>
</g>
<!-- f715f1ca&#45;0e6d&#45;4a2c&#45;9357&#45;b62854a1525f&#45;&gt;1348fa5a&#45;2a03&#45;4e83&#45;9a94&#45;9cd238271587 -->
<g id="edge27" class="edge">
<title>f715f1ca&#45;0e6d&#45;4a2c&#45;9357&#45;b62854a1525f&#45;&gt;1348fa5a&#45;2a03&#45;4e83&#45;9a94&#45;9cd238271587</title>
<path fill="none" stroke="#000000" d="M972.5384,-624.6561C985.1819,-624.1129 997.7514,-623.8 1009.933,-623.8 1009.933,-623.8 1009.933,-623.8 1205.1182,-623.8 1214.072,-623.8 1223.1783,-623.7861 1232.3746,-623.7601"/>
<polygon fill="#000000" stroke="#000000" points="1232.3976,-627.2602 1242.3861,-623.7273 1232.3746,-620.2602 1232.3976,-627.2602"/>
</g>
<!-- 43a9d07b&#45;f13e&#45;4ce3&#45;af57&#45;9c61485e8e7d -->
<g id="node26" class="node">
<title>43a9d07b&#45;f13e&#45;4ce3&#45;af57&#45;9c61485e8e7d</title>
<polygon fill="#40e0d0" stroke="#40e0d0" points="1719.1252,-692.8 1282.4782,-692.8 1282.4782,-656.8 1719.1252,-656.8 1719.1252,-692.8"/>
<text text-anchor="middle" x="1500.8017" y="-670.6" font-family="Times,serif" font-size="14.00" fill="#000000">AndroidBindingModule_BindStatusActivity.bindAndroidInjectorFactory()</text>
</g>
<!-- f715f1ca&#45;0e6d&#45;4a2c&#45;9357&#45;b62854a1525f&#45;&gt;43a9d07b&#45;f13e&#45;4ce3&#45;af57&#45;9c61485e8e7d -->
<g id="edge17" class="edge">
<title>f715f1ca&#45;0e6d&#45;4a2c&#45;9357&#45;b62854a1525f&#45;&gt;43a9d07b&#45;f13e&#45;4ce3&#45;af57&#45;9c61485e8e7d</title>
<path fill="none" stroke="#000000" d="M970.5589,-659.8052C983.8679,-660.4346 997.1143,-660.8 1009.933,-660.8 1009.933,-660.8 1009.933,-660.8 1205.1182,-660.8 1226.942,-660.8 1249.6617,-661.1852 1272.3796,-661.8279"/>
<polygon fill="#000000" stroke="#000000" points="1272.3618,-665.3288 1282.4621,-662.1297 1272.5714,-658.332 1272.3618,-665.3288"/>
</g>
<!-- 15a4e3c1&#45;dd41&#45;415d&#45;9f6a&#45;75f918539b34 -->
<g id="node27" class="node">
<title>15a4e3c1&#45;dd41&#45;415d&#45;9f6a&#45;75f918539b34</title>
<polygon fill="#40e0d0" stroke="#40e0d0" points="1734.6843,-746.8 1266.9191,-746.8 1266.9191,-710.8 1734.6843,-710.8 1734.6843,-746.8"/>
<text text-anchor="middle" x="1500.8017" y="-724.6" font-family="Times,serif" font-size="14.00" fill="#000000">AndroidBindingModule_BindPreferencesActivity.bindAndroidInjectorFactory()</text>
</g>
<!-- f715f1ca&#45;0e6d&#45;4a2c&#45;9357&#45;b62854a1525f&#45;&gt;15a4e3c1&#45;dd41&#45;415d&#45;9f6a&#45;75f918539b34 -->
<g id="edge28" class="edge">
<title>f715f1ca&#45;0e6d&#45;4a2c&#45;9357&#45;b62854a1525f&#45;&gt;15a4e3c1&#45;dd41&#45;415d&#45;9f6a&#45;75f918539b34</title>
<path fill="none" stroke="#000000" d="M964.3784,-659.9072C967.1108,-661.1338 969.7984,-662.4302 972.433,-663.8 994.3431,-675.1918 985.2383,-704.8 1009.933,-704.8 1009.933,-704.8 1009.933,-704.8 1205.1182,-704.8 1244.7633,-704.8 1287.3006,-706.9699 1327.4064,-710.0049"/>
<polygon fill="#000000" stroke="#000000" points="1327.3057,-713.5075 1337.5472,-710.7943 1327.849,-706.5286 1327.3057,-713.5075"/>
</g>
<!-- 68ba459f&#45;8edf&#45;4f97&#45;b5cd&#45;6a2ed98eb17f -->
<g id="node28" class="node">
<title>68ba459f&#45;8edf&#45;4f97&#45;b5cd&#45;6a2ed98eb17f</title>
<polygon fill="#40e0d0" stroke="#40e0d0" points="1714.5614,-800.8 1287.042,-800.8 1287.042,-764.8 1714.5614,-764.8 1714.5614,-800.8"/>
<text text-anchor="middle" x="1500.8017" y="-778.6" font-family="Times,serif" font-size="14.00" fill="#000000">AndroidBindingModule_BindMapActivity.bindAndroidInjectorFactory()</text>
</g>
<!-- f715f1ca&#45;0e6d&#45;4a2c&#45;9357&#45;b62854a1525f&#45;&gt;68ba459f&#45;8edf&#45;4f97&#45;b5cd&#45;6a2ed98eb17f -->
<g id="edge23" class="edge">
<title>f715f1ca&#45;0e6d&#45;4a2c&#45;9357&#45;b62854a1525f&#45;&gt;68ba459f&#45;8edf&#45;4f97&#45;b5cd&#45;6a2ed98eb17f</title>
<path fill="none" stroke="#000000" d="M966.4745,-659.8911C968.5017,-661.132 970.4895,-662.434 972.433,-663.8 1002.2748,-684.7734 973.4581,-736.8 1009.933,-736.8 1009.933,-736.8 1009.933,-736.8 1205.1182,-736.8 1223.8021,-736.8 1224.6964,-750.5185 1242.6182,-755.8 1253.7634,-759.0844 1265.2823,-761.9812 1276.9866,-764.535"/>
<polygon fill="#000000" stroke="#000000" points="1276.3528,-767.9781 1286.8577,-766.6005 1277.7866,-761.1265 1276.3528,-767.9781"/>
</g>
<!-- cdd0cc5f&#45;fe4a&#45;47e5&#45;bfac&#45;f695de32ec04 -->
<g id="node29" class="node">
<title>cdd0cc5f&#45;fe4a&#45;47e5&#45;bfac&#45;f695de32ec04</title>
<polygon fill="#40e0d0" stroke="#40e0d0" points="1733.6483,-854.8 1267.9551,-854.8 1267.9551,-818.8 1733.6483,-818.8 1733.6483,-854.8"/>
<text text-anchor="middle" x="1500.8017" y="-832.6" font-family="Times,serif" font-size="14.00" fill="#000000">AndroidBindingModule_BindLogViewerActivity.bindAndroidInjectorFactory()</text>
</g>
<!-- f715f1ca&#45;0e6d&#45;4a2c&#45;9357&#45;b62854a1525f&#45;&gt;cdd0cc5f&#45;fe4a&#45;47e5&#45;bfac&#45;f695de32ec04 -->
<g id="edge19" class="edge">
<title>f715f1ca&#45;0e6d&#45;4a2c&#45;9357&#45;b62854a1525f&#45;&gt;cdd0cc5f&#45;fe4a&#45;47e5&#45;bfac&#45;f695de32ec04</title>
<path fill="none" stroke="#000000" d="M967.6592,-659.822C969.2902,-661.0902 970.8826,-662.4155 972.433,-663.8 998.3824,-686.9735 975.1424,-815.8 1009.933,-815.8 1009.933,-815.8 1009.933,-815.8 1205.1182,-815.8 1233.0848,-815.8 1262.5019,-816.7463 1291.4936,-818.2371"/>
<polygon fill="#000000" stroke="#000000" points="1291.5542,-821.7453 1301.7275,-818.7865 1291.9295,-814.7554 1291.5542,-821.7453"/>
</g>
<!-- 94720cb6&#45;b13f&#45;4952&#45;9d67&#45;ffd40d2ee488 -->
<g id="node30" class="node">
<title>94720cb6&#45;b13f&#45;4952&#45;9d67&#45;ffd40d2ee488</title>
<polygon fill="#40e0d0" stroke="#40e0d0" points="1716.1693,-908.8 1285.4341,-908.8 1285.4341,-872.8 1716.1693,-872.8 1716.1693,-908.8"/>
<text text-anchor="middle" x="1500.8017" y="-886.6" font-family="Times,serif" font-size="14.00" fill="#000000">AndroidBindingModule_BindLoadActivity.bindAndroidInjectorFactory()</text>
</g>
<!-- f715f1ca&#45;0e6d&#45;4a2c&#45;9357&#45;b62854a1525f&#45;&gt;94720cb6&#45;b13f&#45;4952&#45;9d67&#45;ffd40d2ee488 -->
<g id="edge25" class="edge">
<title>f715f1ca&#45;0e6d&#45;4a2c&#45;9357&#45;b62854a1525f&#45;&gt;94720cb6&#45;b13f&#45;4952&#45;9d67&#45;ffd40d2ee488</title>
<path fill="none" stroke="#000000" d="M968.1963,-659.8942C969.6462,-661.1427 971.0594,-662.444 972.433,-663.8 1001.2009,-692.1988 969.5092,-841.8 1009.933,-841.8 1009.933,-841.8 1009.933,-841.8 1205.1182,-841.8 1224.4413,-841.8 1224.2601,-857.7697 1242.6182,-863.8 1253.2154,-867.281 1264.1768,-870.3413 1275.3329,-873.0297"/>
<polygon fill="#000000" stroke="#000000" points="1274.6522,-876.4644 1285.1826,-875.2977 1276.223,-869.643 1274.6522,-876.4644"/>
</g>
<!-- 8900ef60&#45;e6f2&#45;4528&#45;917e&#45;3e6bb9baa2f2 -->
<g id="node31" class="node">
<title>8900ef60&#45;e6f2&#45;4528&#45;917e&#45;3e6bb9baa2f2</title>
<polygon fill="#40e0d0" stroke="#40e0d0" points="1724.7885,-962.8 1276.8149,-962.8 1276.8149,-926.8 1724.7885,-926.8 1724.7885,-962.8"/>
<text text-anchor="middle" x="1500.8017" y="-940.6" font-family="Times,serif" font-size="14.00" fill="#000000">AndroidBindingModule_BindRegionsActivity.bindAndroidInjectorFactory()</text>
</g>
<!-- f715f1ca&#45;0e6d&#45;4a2c&#45;9357&#45;b62854a1525f&#45;&gt;8900ef60&#45;e6f2&#45;4528&#45;917e&#45;3e6bb9baa2f2 -->
<g id="edge22" class="edge">
<title>f715f1ca&#45;0e6d&#45;4a2c&#45;9357&#45;b62854a1525f&#45;&gt;8900ef60&#45;e6f2&#45;4528&#45;917e&#45;3e6bb9baa2f2</title>
<path fill="none" stroke="#000000" d="M968.2503,-659.8403C969.6831,-661.1058 971.0783,-662.4251 972.433,-663.8 1013.7123,-705.6962 951.1174,-925.8 1009.933,-925.8 1009.933,-925.8 1009.933,-925.8 1205.1182,-925.8 1225.0109,-925.8 1245.641,-926.2336 1266.3317,-926.9697"/>
<polygon fill="#000000" stroke="#000000" points="1266.3655,-930.4734 1276.4909,-927.3548 1266.6307,-923.4785 1266.3655,-930.4734"/>
</g>
<!-- c7528740&#45;db03&#45;4834&#45;8e35&#45;f1acfbdbaf94 -->
<g id="node32" class="node">
<title>c7528740&#45;db03&#45;4834&#45;8e35&#45;f1acfbdbaf94</title>
<polygon fill="#40e0d0" stroke="#40e0d0" points="1733.9492,-1016.8 1267.6542,-1016.8 1267.6542,-980.8 1733.9492,-980.8 1733.9492,-1016.8"/>
<text text-anchor="middle" x="1500.8017" y="-994.6" font-family="Times,serif" font-size="14.00" fill="#000000">AndroidBindingModule_BindConnectionActivity.bindAndroidInjectorFactory()</text>
</g>
<!-- f715f1ca&#45;0e6d&#45;4a2c&#45;9357&#45;b62854a1525f&#45;&gt;c7528740&#45;db03&#45;4834&#45;8e35&#45;f1acfbdbaf94 -->
<g id="edge21" class="edge">
<title>f715f1ca&#45;0e6d&#45;4a2c&#45;9357&#45;b62854a1525f&#45;&gt;c7528740&#45;db03&#45;4834&#45;8e35&#45;f1acfbdbaf94</title>
<path fill="none" stroke="#000000" d="M968.6594,-660.057C969.9516,-661.2571 971.2102,-662.5042 972.433,-663.8 1023.2388,-717.639 935.9069,-994.8 1009.933,-994.8 1009.933,-994.8 1009.933,-994.8 1205.1182,-994.8 1222.07,-994.8 1239.5679,-994.8665 1257.1891,-994.9825"/>
<polygon fill="#000000" stroke="#000000" points="1257.5506,-998.485 1267.5753,-995.0563 1257.6004,-991.4852 1257.5506,-998.485"/>
</g>
</g>
</svg>
