<svg width="1509px" height="207px"
 viewBox="0.00 0.00 1508.58 206.60" xmlns="http://www.w3.org/2000/svg" xmlns:xlink="http://www.w3.org/1999/xlink">
<g id="graph0" class="graph" transform="scale(1.0 1.0) rotate(0) translate(14.4 192.2)">
<title>org.owntracks.android.ui.contacts.ContactsActivityModule</title>
<polygon fill="#ffffff" stroke="transparent" points="-14.4,14.4 -14.4,-192.2 1494.1834,-192.2 1494.1834,14.4 -14.4,14.4"/>
<text text-anchor="middle" x="77.2125" y="-8.2" font-family="Times,serif" font-size="14.00" fill="#000000">ContactsActivityModule</text>
<g id="clust2" class="cluster">
<title>cluster_Dependency Graph</title>
<polygon fill="none" stroke="#000000" points="8,-32.8 8,-169.8 1471.7834,-169.8 1471.7834,-32.8 8,-32.8"/>
<text text-anchor="middle" x="70.2234" y="-153.2" font-family="Times,serif" font-size="14.00" fill="#000000">Dependency Graph</text>
</g>
<!-- bf1a2423&#45;027b&#45;4f9c&#45;9c8f&#45;0e932403daf0 -->
<g id="node1" class="node">
<title>bf1a2423&#45;027b&#45;4f9c&#45;9c8f&#45;0e932403daf0</title>
<polygon fill="#7fffd4" stroke="#7fffd4" points="1033.7675,-136.4019 903.1215,-136.4019 903.1215,-95.1981 1033.7675,-95.1981 1033.7675,-136.4019"/>
<text text-anchor="middle" x="968.4445" y="-120" font-family="Times,serif" font-size="14.00" fill="#000000">@PerActivity</text>
<text text-anchor="middle" x="968.4445" y="-103.2" font-family="Times,serif" font-size="14.00" fill="#000000">AppCompatActivity</text>
</g>
<!-- 941115e3&#45;fb55&#45;4fdf&#45;a02c&#45;5cb52eb06182 -->
<g id="node2" class="node">
<title>941115e3&#45;fb55&#45;4fdf&#45;a02c&#45;5cb52eb06182</title>
<polygon fill="#ff3030" stroke="#ff3030" points="1463.8301,-133.8 1159.6433,-133.8 1159.6433,-97.8 1463.8301,-97.8 1463.8301,-133.8"/>
<text text-anchor="middle" x="1311.7367" y="-111.6" font-family="Times,serif" font-size="14.00" fill="#000000">org.owntracks.android.ui.contacts.ContactsActivity</text>
</g>
<!-- bf1a2423&#45;027b&#45;4f9c&#45;9c8f&#45;0e932403daf0&#45;&gt;941115e3&#45;fb55&#45;4fdf&#45;a02c&#45;5cb52eb06182 -->
<g id="edge2" class="edge">
<title>bf1a2423&#45;027b&#45;4f9c&#45;9c8f&#45;0e932403daf0&#45;&gt;941115e3&#45;fb55&#45;4fdf&#45;a02c&#45;5cb52eb06182</title>
<path fill="none" stroke="#000000" stroke-dasharray="5,2" d="M1033.8232,-115.8C1066.8016,-115.8 1108.4084,-115.8 1149.3147,-115.8"/>
<polygon fill="#000000" stroke="#000000" points="1149.4136,-119.3001 1159.4136,-115.8 1149.4136,-112.3001 1149.4136,-119.3001"/>
<text text-anchor="middle" x="1096.6479" y="-120" font-family="Times,serif" font-size="14.00" fill="#000000">delegates</text>
<text text-anchor="middle" x="1113.7155" y="-103.2" font-family="Times,serif" font-size="14.00" fill="#000000">Missing binding</text>
</g>
<!-- 03c7c391&#45;fd73&#45;4869&#45;9434&#45;2dc8b96d7abd -->
<g id="node3" class="node">
<title>03c7c391&#45;fd73&#45;4869&#45;9434&#45;2dc8b96d7abd</title>
<polygon fill="#40e0d0" stroke="#40e0d0" points="210.5484,-87.8 16.1504,-87.8 16.1504,-51.8 210.5484,-51.8 210.5484,-87.8"/>
<text text-anchor="middle" x="113.3494" y="-65.6" font-family="Times,serif" font-size="14.00" fill="#000000">ContactsMvvm.ViewModel&lt;?&gt;</text>
</g>
<!-- 663cea8c&#45;ffe1&#45;4fbe&#45;a72d&#45;1ad951715a3c -->
<g id="node4" class="node">
<title>663cea8c&#45;ffe1&#45;4fbe&#45;a72d&#45;1ad951715a3c</title>
<polygon fill="#7fffd4" stroke="#7fffd4" points="468.5728,-90.4019 336.853,-90.4019 336.853,-49.1981 468.5728,-49.1981 468.5728,-90.4019"/>
<text text-anchor="middle" x="402.7129" y="-74" font-family="Times,serif" font-size="14.00" fill="#000000">@PerActivity</text>
<text text-anchor="middle" x="402.7129" y="-57.2" font-family="Times,serif" font-size="14.00" fill="#000000">ContactsViewModel</text>
</g>
<!-- 03c7c391&#45;fd73&#45;4869&#45;9434&#45;2dc8b96d7abd&#45;&gt;663cea8c&#45;ffe1&#45;4fbe&#45;a72d&#45;1ad951715a3c -->
<g id="edge3" class="edge">
<title>03c7c391&#45;fd73&#45;4869&#45;9434&#45;2dc8b96d7abd&#45;&gt;663cea8c&#45;ffe1&#45;4fbe&#45;a72d&#45;1ad951715a3c</title>
<path fill="none" stroke="#000000" stroke-dasharray="1,5" d="M210.9113,-69.8C248.5429,-69.8 290.9488,-69.8 326.2999,-69.8"/>
<polygon fill="#000000" stroke="#000000" points="326.551,-73.3001 336.551,-69.8 326.551,-66.3001 326.551,-73.3001"/>
<text text-anchor="middle" x="273.7409" y="-74" font-family="Times,serif" font-size="14.00" fill="#000000">delegates</text>
</g>
<!-- 9e8be772&#45;6a90&#45;4c57&#45;9c4a&#45;a2a3071363a4 -->
<g id="node5" class="node">
<title>9e8be772&#45;6a90&#45;4c57&#45;9c4a&#45;a2a3071363a4</title>
<polygon fill="#ff3030" stroke="#ff3030" points="828.1036,-76.8 543.8224,-76.8 543.8224,-40.8 828.1036,-40.8 828.1036,-76.8"/>
<text text-anchor="middle" x="685.963" y="-54.6" font-family="Times,serif" font-size="14.00" fill="#000000">org.owntracks.android.data.repos.ContactsRepo</text>
</g>
<!-- 663cea8c&#45;ffe1&#45;4fbe&#45;a72d&#45;1ad951715a3c&#45;&gt;9e8be772&#45;6a90&#45;4c57&#45;9c4a&#45;a2a3071363a4 -->
<g id="edge4" class="edge">
<title>663cea8c&#45;ffe1&#45;4fbe&#45;a72d&#45;1ad951715a3c&#45;&gt;9e8be772&#45;6a90&#45;4c57&#45;9c4a&#45;a2a3071363a4</title>
<path fill="none" stroke="#000000" stroke-dasharray="5,2" d="M468.765,-67.2349C488.4162,-66.4717 510.8128,-65.6019 533.5822,-64.7177"/>
<polygon fill="#000000" stroke="#000000" points="533.8509,-68.21 543.7075,-64.3245 533.5792,-61.2153 533.8509,-68.21"/>
<text text-anchor="middle" x="498.0094" y="-51.7245" font-family="Times,serif" font-size="14.00" fill="#000000">Missing binding</text>
</g>
<!-- 768baccf&#45;8480&#45;4753&#45;9c76&#45;26e678f5b2b6 -->
<g id="node6" class="node">
<title>768baccf&#45;8480&#45;4753&#45;9c76&#45;26e678f5b2b6</title>
<polygon fill="#7fffd4" stroke="#7fffd4" points="732.898,-136.4019 639.028,-136.4019 639.028,-95.1981 732.898,-95.1981 732.898,-136.4019"/>
<text text-anchor="middle" x="685.963" y="-120" font-family="Times,serif" font-size="14.00" fill="#000000">@PerActivity</text>
<text text-anchor="middle" x="685.963" y="-103.2" font-family="Times,serif" font-size="14.00" fill="#000000">Navigator</text>
</g>
<!-- 663cea8c&#45;ffe1&#45;4fbe&#45;a72d&#45;1ad951715a3c&#45;&gt;768baccf&#45;8480&#45;4753&#45;9c76&#45;26e678f5b2b6 -->
<g id="edge5" class="edge">
<title>663cea8c&#45;ffe1&#45;4fbe&#45;a72d&#45;1ad951715a3c&#45;&gt;768baccf&#45;8480&#45;4753&#45;9c76&#45;26e678f5b2b6</title>
<path fill="none" stroke="#000000" d="M468.765,-80.5269C517.2462,-88.4003 582.4368,-98.9873 628.713,-106.5026"/>
<polygon fill="#000000" stroke="#000000" points="628.4409,-110.0042 638.8727,-108.1525 629.5631,-103.0947 628.4409,-110.0042"/>
</g>
<!-- 768baccf&#45;8480&#45;4753&#45;9c76&#45;26e678f5b2b6&#45;&gt;bf1a2423&#45;027b&#45;4f9c&#45;9c8f&#45;0e932403daf0 -->
<g id="edge1" class="edge">
<title>768baccf&#45;8480&#45;4753&#45;9c76&#45;26e678f5b2b6&#45;&gt;bf1a2423&#45;027b&#45;4f9c&#45;9c8f&#45;0e932403daf0</title>
<path fill="none" stroke="#000000" d="M732.9262,-115.8C776.4443,-115.8 841.938,-115.8 892.822,-115.8"/>
<polygon fill="#000000" stroke="#000000" points="893.1188,-119.3001 903.1188,-115.8 893.1188,-112.3001 893.1188,-119.3001"/>
</g>
</g>
</svg>
