<svg width="651px" height="147px"
 viewBox="0.00 0.00 651.23 146.60" xmlns="http://www.w3.org/2000/svg" xmlns:xlink="http://www.w3.org/1999/xlink">
<g id="graph0" class="graph" transform="scale(1.0 1.0) rotate(0) translate(14.4 132.2)">
<title>org.owntracks.android.ui.welcome.permission.PermissionFragmentModule</title>
<polygon fill="#ffffff" stroke="transparent" points="-14.4,14.4 -14.4,-132.2 636.8266,-132.2 636.8266,14.4 -14.4,14.4"/>
<text text-anchor="middle" x="87.7111" y="-8.2" font-family="Times,serif" font-size="14.00" fill="#000000">PermissionFragmentModule</text>
<g id="clust2" class="cluster">
<title>cluster_Dependency Graph</title>
<polygon fill="none" stroke="#000000" points="8,-32.8 8,-109.8 614.4266,-109.8 614.4266,-32.8 8,-32.8"/>
<text text-anchor="middle" x="70.2234" y="-93.2" font-family="Times,serif" font-size="14.00" fill="#000000">Dependency Graph</text>
</g>
<!-- c0079e42&#45;8d9c&#45;48a4&#45;9e28&#45;e27f9999b50e -->
<g id="node1" class="node">
<title>c0079e42&#45;8d9c&#45;48a4&#45;9e28&#45;e27f9999b50e</title>
<polygon fill="#40e0d0" stroke="#40e0d0" points="85.4813,-76.8 16.1723,-76.8 16.1723,-40.8 85.4813,-40.8 85.4813,-76.8"/>
<text text-anchor="middle" x="50.8268" y="-54.6" font-family="Times,serif" font-size="14.00" fill="#000000">Fragment</text>
</g>
<!-- 2f905f7d&#45;b622&#45;4aa3&#45;8fef&#45;42d462a05181 -->
<g id="node2" class="node">
<title>2f905f7d&#45;b622&#45;4aa3&#45;8fef&#45;42d462a05181</title>
<polygon fill="#ff3030" stroke="#ff3030" points="606.2711,-76.8 211.8933,-76.8 211.8933,-40.8 606.2711,-40.8 606.2711,-76.8"/>
<text text-anchor="middle" x="409.0822" y="-54.6" font-family="Times,serif" font-size="14.00" fill="#000000">org.owntracks.android.ui.welcome.permission.PermissionFragment</text>
</g>
<!-- c0079e42&#45;8d9c&#45;48a4&#45;9e28&#45;e27f9999b50e&#45;&gt;2f905f7d&#45;b622&#45;4aa3&#45;8fef&#45;42d462a05181 -->
<g id="edge1" class="edge">
<title>c0079e42&#45;8d9c&#45;48a4&#45;9e28&#45;e27f9999b50e&#45;&gt;2f905f7d&#45;b622&#45;4aa3&#45;8fef&#45;42d462a05181</title>
<path fill="none" stroke="#000000" stroke-dasharray="5,2" d="M85.5034,-58.8C113.8281,-58.8 156.4214,-58.8 201.4816,-58.8"/>
<polygon fill="#000000" stroke="#000000" points="201.7426,-62.3001 211.7425,-58.8 201.7425,-55.3001 201.7426,-62.3001"/>
<text text-anchor="middle" x="148.6957" y="-63" font-family="Times,serif" font-size="14.00" fill="#000000">delegates</text>
<text text-anchor="middle" x="166.0444" y="-46.2" font-family="Times,serif" font-size="14.00" fill="#000000">Missing binding</text>
</g>
</g>
</svg>
