<svg width="2362px" height="1249px"
 viewBox="0.00 0.00 2361.85 1248.60" xmlns="http://www.w3.org/2000/svg" xmlns:xlink="http://www.w3.org/1999/xlink">
<g id="graph0" class="graph" transform="scale(1.0 1.0) rotate(0) translate(14.4 1234.2)">
<title>org.owntracks.android.injection.modules.AndroidBindingModule → org.owntracks.android.injection.modules.AndroidBindingModule_BindConnectionActivity.ConnectionActivitySubcomponent</title>
<polygon fill="#ffffff" stroke="transparent" points="-14.4,14.4 -14.4,-1234.2 2347.4455,-1234.2 2347.4455,14.4 -14.4,14.4"/>
<text text-anchor="middle" x="323.3661" y="-8.2" font-family="Times,serif" font-size="14.00" fill="#000000">AndroidBindingModule → AndroidBindingModule_BindConnectionActivity.ConnectionActivitySubcomponent</text>
<g id="clust5" class="cluster">
<title>cluster_AndroidBindingModule → AndroidBindingModule_BindConnectionActivity.ConnectionActivitySubcomponent</title>
<g id="a_clust5"><a xlink:href="full_org.owntracks.android.injection.modules.AndroidBindingModule_BindConnectionActivity.ConnectionActivitySubcomponent.svg" xlink:title="Inherited from AndroidBindingModule_BindConnectionActivity.ConnectionActivitySubcomponent\n@PerActivity">
<polygon fill="none" stroke="#7fffd4" stroke-dasharray="5,2" points="215.3528,-44.8 215.3528,-1211.8 2325.0455,-1211.8 2325.0455,-44.8 215.3528,-44.8"/>
<text text-anchor="middle" x="1270.1992" y="-1195.2" font-family="Times,serif" font-size="14.00" fill="#000000">Inherited from AndroidBindingModule_BindConnectionActivity.ConnectionActivitySubcomponent</text>
<text text-anchor="middle" x="1270.1992" y="-1178.4" font-family="Times,serif" font-size="14.00" fill="#000000">@PerActivity</text>
</a>
</g>
</g>
<g id="clust6" class="cluster">
<title>cluster_Map&lt;Class&lt;?&gt;, Provider&lt;AndroidInjector.Factory&lt;?&gt;&gt;&gt;</title>
<g id="a_clust6"><a xlink:href="full_org.owntracks.android.injection.modules.AndroidBindingModule_BindConnectionActivity.ConnectionActivitySubcomponent.svg" xlink:title="Map&lt;Class&lt;?&gt;, Provider&lt;AndroidInjector.Factory&lt;?&gt;&gt;&gt;">
<path fill="none" stroke="#000000" d="M529.5519,-436.8C529.5519,-436.8 1725.9072,-436.8 1725.9072,-436.8 1731.9072,-436.8 1737.9072,-442.8 1737.9072,-448.8 1737.9072,-448.8 1737.9072,-1149.8 1737.9072,-1149.8 1737.9072,-1155.8 1731.9072,-1161.8 1725.9072,-1161.8 1725.9072,-1161.8 529.5519,-1161.8 529.5519,-1161.8 523.5519,-1161.8 517.5519,-1155.8 517.5519,-1149.8 517.5519,-1149.8 517.5519,-448.8 517.5519,-448.8 517.5519,-442.8 523.5519,-436.8 529.5519,-436.8"/>
<text text-anchor="middle" x="1127.7295" y="-1145.2" font-family="Times,serif" font-size="14.00" fill="#000000">Map&lt;Class&lt;?&gt;, Provider&lt;AndroidInjector.Factory&lt;?&gt;&gt;&gt;</text>
</a>
</g>
</g>
<g id="clust1" class="cluster">
<title>cluster_Entry Points</title>
<polygon fill="none" stroke="#000000" points="8,-137.8 8,-214.8 194.3528,-214.8 194.3528,-137.8 8,-137.8"/>
<text text-anchor="middle" x="50.8061" y="-198.2" font-family="Times,serif" font-size="14.00" fill="#000000">Entry Points</text>
</g>
<!-- 79491f7e&#45;97f9&#45;47b2&#45;bd51&#45;cbd41eb9ea46 -->
<g id="node1" class="node">
<title>79491f7e&#45;97f9&#45;47b2&#45;bd51&#45;cbd41eb9ea46</title>
<polygon fill="#40e0d0" stroke="#40e0d0" stroke-width="2" points="186.5296,-181.8 15.8232,-181.8 15.8232,-177.8 11.8232,-177.8 11.8232,-173.8 15.8232,-173.8 15.8232,-153.8 11.8232,-153.8 11.8232,-149.8 15.8232,-149.8 15.8232,-145.8 186.5296,-145.8 186.5296,-181.8"/>
<polyline fill="none" stroke="#40e0d0" stroke-width="2" points="15.8232,-177.8 19.8232,-177.8 19.8232,-173.8 15.8232,-173.8 "/>
<polyline fill="none" stroke="#40e0d0" stroke-width="2" points="15.8232,-153.8 19.8232,-153.8 19.8232,-149.8 15.8232,-149.8 "/>
<text text-anchor="middle" x="101.1764" y="-159.6" font-family="Times,serif" font-size="14.00" fill="#000000">inject (ConnectionActivity)</text>
</g>
<!-- c94efb10&#45;38a4&#45;4495&#45;a1f1&#45;a6bb2b8d475f -->
<g id="node2" class="node">
<title>c94efb10&#45;38a4&#45;4495&#45;a1f1&#45;a6bb2b8d475f</title>
<polygon fill="#40e0d0" stroke="#40e0d0" points="450.2745,-373.8 223.3789,-373.8 223.3789,-337.8 450.2745,-337.8 450.2745,-373.8"/>
<text text-anchor="middle" x="336.8267" y="-351.6" font-family="Times,serif" font-size="14.00" fill="#000000">DispatchingAndroidInjector&lt;Object&gt;</text>
</g>
<!-- 79491f7e&#45;97f9&#45;47b2&#45;bd51&#45;cbd41eb9ea46&#45;&gt;c94efb10&#45;38a4&#45;4495&#45;a1f1&#45;a6bb2b8d475f -->
<g id="edge1" class="edge">
<title>79491f7e&#45;97f9&#45;47b2&#45;bd51&#45;cbd41eb9ea46&#45;&gt;c94efb10&#45;38a4&#45;4495&#45;a1f1&#45;a6bb2b8d475f</title>
<path fill="none" stroke="#000000" d="M119.9879,-182.1422C142.1565,-203.4691 180.4079,-239.3755 215.3528,-267.8 243.5444,-290.7313 277.096,-314.811 301.7871,-331.9732"/>
<polygon fill="#000000" stroke="#000000" points="299.9124,-334.9321 310.1279,-337.742 303.8943,-329.175 299.9124,-334.9321"/>
</g>
<!-- b127fd24&#45;86e2&#45;4d5c&#45;a6ff&#45;f00c36709fdd -->
<g id="node3" class="node">
<title>b127fd24&#45;86e2&#45;4d5c&#45;a6ff&#45;f00c36709fdd</title>
<polygon fill="#40e0d0" stroke="#40e0d0" points="864.911,-88.8 525.4304,-88.8 525.4304,-52.8 864.911,-52.8 864.911,-88.8"/>
<text text-anchor="middle" x="695.1707" y="-66.6" font-family="Times,serif" font-size="14.00" fill="#000000">ConnectionMvvm.ViewModel&lt;ConnectionMvvm.View&gt;</text>
</g>
<!-- 79491f7e&#45;97f9&#45;47b2&#45;bd51&#45;cbd41eb9ea46&#45;&gt;b127fd24&#45;86e2&#45;4d5c&#45;a6ff&#45;f00c36709fdd -->
<g id="edge4" class="edge">
<title>79491f7e&#45;97f9&#45;47b2&#45;bd51&#45;cbd41eb9ea46&#45;&gt;b127fd24&#45;86e2&#45;4d5c&#45;a6ff&#45;f00c36709fdd</title>
<path fill="none" stroke="#000000" d="M176.2237,-145.7544C189.2316,-142.9007 202.655,-140.1279 215.3528,-137.8 320.2197,-118.5744 438.8734,-101.9615 531.9513,-90.0875"/>
<polygon fill="#000000" stroke="#000000" points="532.5428,-93.5406 542.0221,-88.8085 531.6608,-86.5964 532.5428,-93.5406"/>
</g>
<!-- 2d0d3d57&#45;b7c8&#45;4d20&#45;9d9c&#45;2b7fef937ab8 -->
<g id="node4" class="node">
<title>2d0d3d57&#45;b7c8&#45;4d20&#45;9d9c&#45;2b7fef937ab8</title>
<polygon fill="#7fffd4" stroke="#7fffd4" points="748.3434,-148.4019 641.998,-148.4019 641.998,-107.1981 748.3434,-107.1981 748.3434,-148.4019"/>
<text text-anchor="middle" x="695.1707" y="-132" font-family="Times,serif" font-size="14.00" fill="#000000">@PerActivity</text>
<text text-anchor="middle" x="695.1707" y="-115.2" font-family="Times,serif" font-size="14.00" fill="#000000">DrawerProvider</text>
</g>
<!-- 79491f7e&#45;97f9&#45;47b2&#45;bd51&#45;cbd41eb9ea46&#45;&gt;2d0d3d57&#45;b7c8&#45;4d20&#45;9d9c&#45;2b7fef937ab8 -->
<g id="edge5" class="edge">
<title>79491f7e&#45;97f9&#45;47b2&#45;bd51&#45;cbd41eb9ea46&#45;&gt;2d0d3d57&#45;b7c8&#45;4d20&#45;9d9c&#45;2b7fef937ab8</title>
<path fill="none" stroke="#000000" d="M186.5974,-158.6229C307.2667,-151.3096 524.8565,-138.1222 632.0277,-131.6269"/>
<polygon fill="#000000" stroke="#000000" points="632.2775,-135.1183 642.0474,-131.0196 631.854,-128.1311 632.2775,-135.1183"/>
</g>
<!-- ec3535bb&#45;a1c8&#45;4e1a&#45;ad70&#45;95ec0a7f0b55 -->
<g id="node5" class="node">
<title>ec3535bb&#45;a1c8&#45;4e1a&#45;ad70&#45;95ec0a7f0b55</title>
<polygon fill="#76ee00" stroke="#76ee00" points="1512.7865,-194.4019 1430.6609,-194.4019 1430.6609,-153.1981 1512.7865,-153.1981 1512.7865,-194.4019"/>
<text text-anchor="middle" x="1471.7237" y="-178" font-family="Times,serif" font-size="14.00" fill="#000000">@Singleton</text>
<text text-anchor="middle" x="1471.7237" y="-161.2" font-family="Times,serif" font-size="14.00" fill="#000000">Preferences</text>
</g>
<!-- 79491f7e&#45;97f9&#45;47b2&#45;bd51&#45;cbd41eb9ea46&#45;&gt;ec3535bb&#45;a1c8&#45;4e1a&#45;ad70&#45;95ec0a7f0b55 -->
<g id="edge3" class="edge">
<title>79491f7e&#45;97f9&#45;47b2&#45;bd51&#45;cbd41eb9ea46&#45;&gt;ec3535bb&#45;a1c8&#45;4e1a&#45;ad70&#45;95ec0a7f0b55</title>
<path fill="none" stroke="#000000" d="M117.5011,-145.6282C153.2444,-107.9506 242.7798,-24.8 336.8267,-24.8 336.8267,-24.8 336.8267,-24.8 1176.0402,-24.8 1214.9062,-24.8 1183.7185,-78.8755 1213.5402,-103.8 1272.5822,-153.1464 1363.3486,-167.9394 1420.0423,-172.2354"/>
<polygon fill="#000000" stroke="#000000" points="1420.0035,-175.7407 1430.2163,-172.9214 1420.4745,-168.7565 1420.0035,-175.7407"/>
</g>
<!-- 11d0aa72&#45;4547&#45;4e8a&#45;955d&#45;431beef43403 -->
<g id="node6" class="node">
<title>11d0aa72&#45;4547&#45;4e8a&#45;955d&#45;431beef43403</title>
<polygon fill="#76ee00" stroke="#76ee00" points="781.4613,-428.4019 608.8801,-428.4019 608.8801,-387.1981 781.4613,-387.1981 781.4613,-428.4019"/>
<text text-anchor="middle" x="695.1707" y="-412" font-family="Times,serif" font-size="14.00" fill="#000000">@Singleton</text>
<text text-anchor="middle" x="695.1707" y="-395.2" font-family="Times,serif" font-size="14.00" fill="#000000">RunThingsOnOtherThreads</text>
</g>
<!-- 79491f7e&#45;97f9&#45;47b2&#45;bd51&#45;cbd41eb9ea46&#45;&gt;11d0aa72&#45;4547&#45;4e8a&#45;955d&#45;431beef43403 -->
<g id="edge2" class="edge">
<title>79491f7e&#45;97f9&#45;47b2&#45;bd51&#45;cbd41eb9ea46&#45;&gt;11d0aa72&#45;4547&#45;4e8a&#45;955d&#45;431beef43403</title>
<path fill="none" stroke="#000000" d="M104.4155,-182.0231C113.238,-225.6097 142.1254,-335.7463 215.3528,-382.8 276.5708,-422.1368 477.2093,-419.4675 598.7971,-413.7775"/>
<polygon fill="#000000" stroke="#000000" points="599.0398,-417.27 608.8592,-413.2913 598.7019,-410.2781 599.0398,-417.27"/>
</g>
<!-- 82767231&#45;558e&#45;4adf&#45;bf57&#45;2a7b02ae6b40 -->
<g id="node7" class="node">
<title>82767231&#45;558e&#45;4adf&#45;bf57&#45;2a7b02ae6b40</title>
<polygon fill="#76ee00" stroke="#76ee00" points="396.7272,-258.4019 276.9262,-258.4019 276.9262,-217.1981 396.7272,-217.1981 396.7272,-258.4019"/>
<text text-anchor="middle" x="336.8267" y="-242" font-family="Times,serif" font-size="14.00" fill="#000000">@Singleton</text>
<text text-anchor="middle" x="336.8267" y="-225.2" font-family="Times,serif" font-size="14.00" fill="#000000">MessageProcessor</text>
</g>
<!-- 79491f7e&#45;97f9&#45;47b2&#45;bd51&#45;cbd41eb9ea46&#45;&gt;82767231&#45;558e&#45;4adf&#45;bf57&#45;2a7b02ae6b40 -->
<g id="edge6" class="edge">
<title>79491f7e&#45;97f9&#45;47b2&#45;bd51&#45;cbd41eb9ea46&#45;&gt;82767231&#45;558e&#45;4adf&#45;bf57&#45;2a7b02ae6b40</title>
<path fill="none" stroke="#000000" d="M158.5216,-181.8078C191.2727,-192.0924 232.5772,-205.0631 267.1828,-215.9301"/>
<polygon fill="#000000" stroke="#000000" points="266.1638,-219.2786 276.753,-218.9354 268.261,-212.6001 266.1638,-219.2786"/>
</g>
<!-- a79be386&#45;dfb3&#45;4c18&#45;8aa0&#45;ebd8d41741a5 -->
<g id="node19" class="node">
<title>a79be386&#45;dfb3&#45;4c18&#45;8aa0&#45;ebd8d41741a5</title>
<polygon fill="#40e0d0" stroke="#40e0d0" points="864.9084,-770.8 537.433,-770.8 537.433,-774.8 525.433,-774.8 525.433,-734.8 864.9084,-734.8 864.9084,-770.8"/>
<polyline fill="none" stroke="#40e0d0" points="525.433,-770.8 537.433,-770.8 "/>
<text text-anchor="middle" x="695.1707" y="-748.6" font-family="Times,serif" font-size="14.00" fill="#000000">Map&lt;Class&lt;?&gt;, Provider&lt;AndroidInjector.Factory&lt;?&gt;&gt;&gt;</text>
</g>
<!-- c94efb10&#45;38a4&#45;4495&#45;a1f1&#45;a6bb2b8d475f&#45;&gt;a79be386&#45;dfb3&#45;4c18&#45;8aa0&#45;ebd8d41741a5 -->
<g id="edge7" class="edge">
<title>c94efb10&#45;38a4&#45;4495&#45;a1f1&#45;a6bb2b8d475f&#45;&gt;a79be386&#45;dfb3&#45;4c18&#45;8aa0&#45;ebd8d41741a5</title>
<path fill="none" stroke="#000000" d="M448.0357,-373.8414C455.9644,-378.378 463.2154,-383.9555 469.3006,-390.8 570.7098,-504.8641 408.6765,-623.8392 517.5519,-730.8 517.7043,-730.9497 517.8571,-731.0988 518.0104,-731.2472"/>
<polygon fill="#000000" stroke="#000000" points="515.3628,-733.5833 525.207,-737.5 519.9539,-728.2992 515.3628,-733.5833"/>
</g>
<!-- cd82a6ed&#45;a454&#45;4004&#45;b789&#45;d502151ad74a -->
<g id="node8" class="node">
<title>cd82a6ed&#45;a454&#45;4004&#45;b789&#45;d502151ad74a</title>
<polygon fill="#7fffd4" stroke="#7fffd4" points="1138.7484,-94.4019 990.9168,-94.4019 990.9168,-53.1981 1138.7484,-53.1981 1138.7484,-94.4019"/>
<text text-anchor="middle" x="1064.8326" y="-78" font-family="Times,serif" font-size="14.00" fill="#000000">@PerActivity</text>
<text text-anchor="middle" x="1064.8326" y="-61.2" font-family="Times,serif" font-size="14.00" fill="#000000">ConnectionViewModel</text>
</g>
<!-- b127fd24&#45;86e2&#45;4d5c&#45;a6ff&#45;f00c36709fdd&#45;&gt;cd82a6ed&#45;a454&#45;4004&#45;b789&#45;d502151ad74a -->
<g id="edge8" class="edge">
<title>b127fd24&#45;86e2&#45;4d5c&#45;a6ff&#45;f00c36709fdd&#45;&gt;cd82a6ed&#45;a454&#45;4004&#45;b789&#45;d502151ad74a</title>
<path fill="none" stroke="#000000" stroke-dasharray="1,5" d="M865.1248,-72.1793C905.1695,-72.5043 946.1517,-72.8368 980.487,-73.1155"/>
<polygon fill="#000000" stroke="#000000" points="980.8928,-76.6188 990.9209,-73.2002 980.9497,-69.619 980.8928,-76.6188"/>
<text text-anchor="middle" x="928.0829" y="-78" font-family="Times,serif" font-size="14.00" fill="#000000">delegates</text>
</g>
<!-- 2b32062d&#45;9e7c&#45;4161&#45;b03d&#45;aa213ce88dad -->
<g id="node10" class="node">
<title>2b32062d&#45;9e7c&#45;4161&#45;b03d&#45;aa213ce88dad</title>
<polygon fill="#7fffd4" stroke="#7fffd4" points="1935.3915,-104.4019 1804.7455,-104.4019 1804.7455,-63.1981 1935.3915,-63.1981 1935.3915,-104.4019"/>
<text text-anchor="middle" x="1870.0685" y="-88" font-family="Times,serif" font-size="14.00" fill="#000000">@PerActivity</text>
<text text-anchor="middle" x="1870.0685" y="-71.2" font-family="Times,serif" font-size="14.00" fill="#000000">AppCompatActivity</text>
</g>
<!-- 2d0d3d57&#45;b7c8&#45;4d20&#45;9d9c&#45;2b7fef937ab8&#45;&gt;2b32062d&#45;9e7c&#45;4161&#45;b03d&#45;aa213ce88dad -->
<g id="edge9" class="edge">
<title>2d0d3d57&#45;b7c8&#45;4d20&#45;9d9c&#45;2b7fef937ab8&#45;&gt;2b32062d&#45;9e7c&#45;4161&#45;b03d&#45;aa213ce88dad</title>
<path fill="none" stroke="#000000" d="M748.3063,-122.7852C795.4791,-118.7681 866.3065,-113.8 928.0829,-113.8 928.0829,-113.8 928.0829,-113.8 1767.4072,-113.8 1781.602,-113.8 1796.4736,-111.1249 1810.3521,-107.3723"/>
<polygon fill="#000000" stroke="#000000" points="1811.6445,-110.6409 1820.2584,-104.4723 1809.6778,-103.9229 1811.6445,-110.6409"/>
</g>
<!-- 5233a1c3&#45;2cf1&#45;4125&#45;9904&#45;9b57c0ee81e7 -->
<g id="node12" class="node">
<title>5233a1c3&#45;2cf1&#45;4125&#45;9904&#45;9b57c0ee81e7</title>
<polygon fill="#76ee00" stroke="#76ee00" points="1105.8954,-174.4019 1023.7698,-174.4019 1023.7698,-133.1981 1105.8954,-133.1981 1105.8954,-174.4019"/>
<text text-anchor="middle" x="1064.8326" y="-158" font-family="Times,serif" font-size="14.00" fill="#000000">@Singleton</text>
<text text-anchor="middle" x="1064.8326" y="-141.2" font-family="Times,serif" font-size="14.00" fill="#000000">Scheduler</text>
</g>
<!-- 2d0d3d57&#45;b7c8&#45;4d20&#45;9d9c&#45;2b7fef937ab8&#45;&gt;5233a1c3&#45;2cf1&#45;4125&#45;9904&#45;9b57c0ee81e7 -->
<g id="edge10" class="edge">
<title>2d0d3d57&#45;b7c8&#45;4d20&#45;9d9c&#45;2b7fef937ab8&#45;&gt;5233a1c3&#45;2cf1&#45;4125&#45;9904&#45;9b57c0ee81e7</title>
<path fill="none" stroke="#000000" d="M748.5279,-131.5529C819.2749,-136.5288 943.3044,-145.2524 1013.1821,-150.1672"/>
<polygon fill="#000000" stroke="#000000" points="1013.28,-153.6826 1023.5009,-150.893 1013.7711,-146.6999 1013.28,-153.6826"/>
</g>
<!-- 82767231&#45;558e&#45;4adf&#45;bf57&#45;2a7b02ae6b40&#45;&gt;ec3535bb&#45;a1c8&#45;4e1a&#45;ad70&#45;95ec0a7f0b55 -->
<g id="edge14" class="edge">
<title>82767231&#45;558e&#45;4adf&#45;bf57&#45;2a7b02ae6b40&#45;&gt;ec3535bb&#45;a1c8&#45;4e1a&#45;ad70&#45;95ec0a7f0b55</title>
<path fill="none" stroke="#000000" d="M396.6779,-238.58C525.4722,-240.4732 820.865,-246.0463 865.0408,-257.8 926.1649,-274.0631 929.7042,-308.6964 991.125,-323.8 1054.7475,-339.445 1074.4824,-337.5547 1138.5402,-323.8 1249.6766,-299.9365 1368.47,-235.9898 1429.7522,-199.764"/>
<polygon fill="#000000" stroke="#000000" points="1431.5706,-202.7547 1438.3687,-194.6284 1427.9868,-196.7417 1431.5706,-202.7547"/>
</g>
<!-- 82767231&#45;558e&#45;4adf&#45;bf57&#45;2a7b02ae6b40&#45;&gt;11d0aa72&#45;4547&#45;4e8a&#45;955d&#45;431beef43403 -->
<g id="edge16" class="edge">
<title>82767231&#45;558e&#45;4adf&#45;bf57&#45;2a7b02ae6b40&#45;&gt;11d0aa72&#45;4547&#45;4e8a&#45;955d&#45;431beef43403</title>
<path fill="none" stroke="#000000" d="M366.3227,-258.615C400.9965,-283.4616 459.8316,-326.8133 507.3006,-367.8 512.1181,-371.9597 511.8776,-374.9166 517.5519,-377.8 542.3826,-390.418 571.4342,-397.8875 598.7643,-402.2635"/>
<polygon fill="#000000" stroke="#000000" points="598.3399,-405.7387 608.7444,-403.7395 599.3641,-398.814 598.3399,-405.7387"/>
</g>
<!-- 82767231&#45;558e&#45;4adf&#45;bf57&#45;2a7b02ae6b40&#45;&gt;5233a1c3&#45;2cf1&#45;4125&#45;9904&#45;9b57c0ee81e7 -->
<g id="edge21" class="edge">
<title>82767231&#45;558e&#45;4adf&#45;bf57&#45;2a7b02ae6b40&#45;&gt;5233a1c3&#45;2cf1&#45;4125&#45;9904&#45;9b57c0ee81e7</title>
<path fill="none" stroke="#000000" d="M362.9493,-217.1763C391.7855,-196.528 440.4193,-167.8 487.8006,-167.8 487.8006,-167.8 487.8006,-167.8 928.0829,-167.8 956.3997,-167.8 987.8441,-164.7925 1013.4339,-161.5654"/>
<polygon fill="#000000" stroke="#000000" points="1014.1935,-164.9959 1023.6541,-160.2264 1013.2841,-158.0552 1014.1935,-164.9959"/>
</g>
<!-- d05e0095&#45;e92c&#45;4bec&#45;a5f0&#45;a1697db4c3cd -->
<g id="node13" class="node">
<title>d05e0095&#45;e92c&#45;4bec&#45;a5f0&#45;a1697db4c3cd</title>
<polygon fill="#76ee00" stroke="#76ee00" points="736.2335,-308.4019 654.1079,-308.4019 654.1079,-267.1981 736.2335,-267.1981 736.2335,-308.4019"/>
<text text-anchor="middle" x="695.1707" y="-292" font-family="Times,serif" font-size="14.00" fill="#000000">@Singleton</text>
<text text-anchor="middle" x="695.1707" y="-275.2" font-family="Times,serif" font-size="14.00" fill="#000000">Parser</text>
</g>
<!-- 82767231&#45;558e&#45;4adf&#45;bf57&#45;2a7b02ae6b40&#45;&gt;d05e0095&#45;e92c&#45;4bec&#45;a5f0&#45;a1697db4c3cd -->
<g id="edge18" class="edge">
<title>82767231&#45;558e&#45;4adf&#45;bf57&#45;2a7b02ae6b40&#45;&gt;d05e0095&#45;e92c&#45;4bec&#45;a5f0&#45;a1697db4c3cd</title>
<path fill="none" stroke="#000000" d="M396.8054,-246.1689C466.0248,-255.8271 578.6811,-271.5461 643.9566,-280.6541"/>
<polygon fill="#000000" stroke="#000000" points="643.6244,-284.1415 654.0122,-282.0571 644.5918,-277.2087 643.6244,-284.1415"/>
</g>
<!-- cda83b61&#45;2f77&#45;4efb&#45;a0b0&#45;c98a160b7b1f -->
<g id="node14" class="node">
<title>cda83b61&#45;2f77&#45;4efb&#45;a0b0&#45;c98a160b7b1f</title>
<polygon fill="#76ee00" stroke="#76ee00" points="743.2507,-368.4019 647.0907,-368.4019 647.0907,-327.1981 743.2507,-327.1981 743.2507,-368.4019"/>
<text text-anchor="middle" x="695.1707" y="-352" font-family="Times,serif" font-size="14.00" fill="#000000">@Singleton</text>
<text text-anchor="middle" x="695.1707" y="-335.2" font-family="Times,serif" font-size="14.00" fill="#000000">ServiceBridge</text>
</g>
<!-- 82767231&#45;558e&#45;4adf&#45;bf57&#45;2a7b02ae6b40&#45;&gt;cda83b61&#45;2f77&#45;4efb&#45;a0b0&#45;c98a160b7b1f -->
<g id="edge20" class="edge">
<title>82767231&#45;558e&#45;4adf&#45;bf57&#45;2a7b02ae6b40&#45;&gt;cda83b61&#45;2f77&#45;4efb&#45;a0b0&#45;c98a160b7b1f</title>
<path fill="none" stroke="#000000" d="M375.935,-258.5349C411.8264,-276.7272 466.9478,-302.5873 517.5519,-317.8 556.5316,-329.5182 601.7868,-337.0755 636.861,-341.6739"/>
<polygon fill="#000000" stroke="#000000" points="636.5736,-345.1654 646.9343,-342.9503 637.4537,-338.2209 636.5736,-345.1654"/>
</g>
<!-- 967af0ca&#45;4530&#45;406f&#45;a2c5&#45;0b1ed9ef84cd -->
<g id="node15" class="node">
<title>967af0ca&#45;4530&#45;406f&#45;a2c5&#45;0b1ed9ef84cd</title>
<polygon fill="#76ee00" stroke="#76ee00" points="755.356,-228.4019 634.9854,-228.4019 634.9854,-187.1981 755.356,-187.1981 755.356,-228.4019"/>
<text text-anchor="middle" x="695.1707" y="-212" font-family="Times,serif" font-size="14.00" fill="#000000">@Singleton</text>
<text text-anchor="middle" x="695.1707" y="-195.2" font-family="Times,serif" font-size="14.00" fill="#000000">LocationProcessor</text>
</g>
<!-- 82767231&#45;558e&#45;4adf&#45;bf57&#45;2a7b02ae6b40&#45;&gt;967af0ca&#45;4530&#45;406f&#45;a2c5&#45;0b1ed9ef84cd -->
<g id="edge19" class="edge">
<title>82767231&#45;558e&#45;4adf&#45;bf57&#45;2a7b02ae6b40&#45;&gt;967af0ca&#45;4530&#45;406f&#45;a2c5&#45;0b1ed9ef84cd</title>
<path fill="none" stroke="#000000" d="M396.8054,-227.5869C459.5946,-220.3601 558.1253,-212.0094 624.6112,-208.2097"/>
<polygon fill="#000000" stroke="#000000" points="625.2031,-211.6826 634.9963,-207.6398 624.8195,-204.6931 625.2031,-211.6826"/>
</g>
<!-- cd82a6ed&#45;a454&#45;4004&#45;b789&#45;d502151ad74a&#45;&gt;ec3535bb&#45;a1c8&#45;4e1a&#45;ad70&#45;95ec0a7f0b55 -->
<g id="edge13" class="edge">
<title>cd82a6ed&#45;a454&#45;4004&#45;b789&#45;d502151ad74a&#45;&gt;ec3535bb&#45;a1c8&#45;4e1a&#45;ad70&#45;95ec0a7f0b55</title>
<path fill="none" stroke="#000000" d="M1138.9896,-92.0253C1220.5906,-112.08 1349.5741,-143.7798 1420.6012,-161.2358"/>
<polygon fill="#000000" stroke="#000000" points="1420.1012,-164.717 1430.6475,-163.7049 1421.7719,-157.9193 1420.1012,-164.717"/>
</g>
<!-- 6e32e263&#45;db0d&#45;4954&#45;b69e&#45;d6f15a84004c -->
<g id="node9" class="node">
<title>6e32e263&#45;db0d&#45;4954&#45;b69e&#45;d6f15a84004c</title>
<polygon fill="#7fffd4" stroke="#7fffd4" points="1518.6587,-94.4019 1424.7887,-94.4019 1424.7887,-53.1981 1518.6587,-53.1981 1518.6587,-94.4019"/>
<text text-anchor="middle" x="1471.7237" y="-78" font-family="Times,serif" font-size="14.00" fill="#000000">@PerActivity</text>
<text text-anchor="middle" x="1471.7237" y="-61.2" font-family="Times,serif" font-size="14.00" fill="#000000">Navigator</text>
</g>
<!-- cd82a6ed&#45;a454&#45;4004&#45;b789&#45;d502151ad74a&#45;&gt;6e32e263&#45;db0d&#45;4954&#45;b69e&#45;d6f15a84004c -->
<g id="edge35" class="edge">
<title>cd82a6ed&#45;a454&#45;4004&#45;b789&#45;d502151ad74a&#45;&gt;6e32e263&#45;db0d&#45;4954&#45;b69e&#45;d6f15a84004c</title>
<path fill="none" stroke="#000000" d="M1138.9896,-73.8C1218.2966,-73.8 1342.3595,-73.8 1414.4759,-73.8"/>
<polygon fill="#000000" stroke="#000000" points="1414.7276,-77.3001 1424.7276,-73.8 1414.7276,-70.3001 1414.7276,-77.3001"/>
</g>
<!-- 6e32e263&#45;db0d&#45;4954&#45;b69e&#45;d6f15a84004c&#45;&gt;2b32062d&#45;9e7c&#45;4161&#45;b03d&#45;aa213ce88dad -->
<g id="edge36" class="edge">
<title>6e32e263&#45;db0d&#45;4954&#45;b69e&#45;d6f15a84004c&#45;&gt;2b32062d&#45;9e7c&#45;4161&#45;b03d&#45;aa213ce88dad</title>
<path fill="none" stroke="#000000" d="M1518.5903,-74.9765C1586.535,-76.6822 1713.1355,-79.8604 1794.407,-81.9006"/>
<polygon fill="#000000" stroke="#000000" points="1794.4933,-85.4038 1804.578,-82.1559 1794.669,-78.406 1794.4933,-85.4038"/>
</g>
<!-- 903d67b0&#45;5970&#45;457e&#45;b9f3&#45;72561a6eb4cb -->
<g id="node11" class="node">
<title>903d67b0&#45;5970&#45;457e&#45;b9f3&#45;72561a6eb4cb</title>
<polygon fill="#40e0d0" stroke="#40e0d0" points="2316.9114,-101.8 2113.7189,-101.8 2061.4481,-65.8 2264.6406,-65.8 2316.9114,-101.8"/>
<text text-anchor="middle" x="2189.1798" y="-79.6" font-family="Times,serif" font-size="14.00" fill="#000000">ConnectionActivity</text>
</g>
<!-- 2b32062d&#45;9e7c&#45;4161&#45;b03d&#45;aa213ce88dad&#45;&gt;903d67b0&#45;5970&#45;457e&#45;b9f3&#45;72561a6eb4cb -->
<g id="edge37" class="edge">
<title>2b32062d&#45;9e7c&#45;4161&#45;b03d&#45;aa213ce88dad&#45;&gt;903d67b0&#45;5970&#45;457e&#45;b9f3&#45;72561a6eb4cb</title>
<path fill="none" stroke="#000000" stroke-dasharray="1,5" d="M1935.4155,-83.8C1976.2719,-83.8 2029.9682,-83.8 2077.4418,-83.8"/>
<polygon fill="#000000" stroke="#000000" points="2077.4708,-87.3001 2087.4708,-83.8 2077.4708,-80.3001 2077.4708,-87.3001"/>
<text text-anchor="middle" x="1998.2719" y="-88" font-family="Times,serif" font-size="14.00" fill="#000000">delegates</text>
</g>
<!-- 5233a1c3&#45;2cf1&#45;4125&#45;9904&#45;9b57c0ee81e7&#45;&gt;ec3535bb&#45;a1c8&#45;4e1a&#45;ad70&#45;95ec0a7f0b55 -->
<g id="edge15" class="edge">
<title>5233a1c3&#45;2cf1&#45;4125&#45;9904&#45;9b57c0ee81e7&#45;&gt;ec3535bb&#45;a1c8&#45;4e1a&#45;ad70&#45;95ec0a7f0b55</title>
<path fill="none" stroke="#000000" d="M1106.0867,-155.8278C1180.8747,-159.5038 1338.6424,-167.2586 1420.3116,-171.2729"/>
<polygon fill="#000000" stroke="#000000" points="1420.2006,-174.7716 1430.3604,-171.7669 1420.5444,-167.78 1420.2006,-174.7716"/>
</g>
<!-- 220b71cf&#45;629b&#45;4087&#45;8072&#45;1c96ccd61114 -->
<g id="node16" class="node">
<title>220b71cf&#45;629b&#45;4087&#45;8072&#45;1c96ccd61114</title>
<polygon fill="#76ee00" stroke="#76ee00" points="1128.2513,-394.4019 1001.4139,-394.4019 1001.4139,-353.1981 1128.2513,-353.1981 1128.2513,-394.4019"/>
<text text-anchor="middle" x="1064.8326" y="-378" font-family="Times,serif" font-size="14.00" fill="#000000">@Singleton</text>
<text text-anchor="middle" x="1064.8326" y="-361.2" font-family="Times,serif" font-size="14.00" fill="#000000">EncryptionProvider</text>
</g>
<!-- d05e0095&#45;e92c&#45;4bec&#45;a5f0&#45;a1697db4c3cd&#45;&gt;220b71cf&#45;629b&#45;4087&#45;8072&#45;1c96ccd61114 -->
<g id="edge38" class="edge">
<title>d05e0095&#45;e92c&#45;4bec&#45;a5f0&#45;a1697db4c3cd&#45;&gt;220b71cf&#45;629b&#45;4087&#45;8072&#45;1c96ccd61114</title>
<path fill="none" stroke="#000000" d="M736.2425,-293.8917C770.7881,-299.2926 821.3879,-307.853 865.0408,-317.8 907.277,-327.4242 953.9186,-340.3635 991.5069,-351.3797"/>
<polygon fill="#000000" stroke="#000000" points="990.7757,-354.8129 1001.3573,-354.2831 992.7549,-348.0985 990.7757,-354.8129"/>
</g>
<!-- 967af0ca&#45;4530&#45;406f&#45;a2c5&#45;0b1ed9ef84cd&#45;&gt;ec3535bb&#45;a1c8&#45;4e1a&#45;ad70&#45;95ec0a7f0b55 -->
<g id="edge12" class="edge">
<title>967af0ca&#45;4530&#45;406f&#45;a2c5&#45;0b1ed9ef84cd&#45;&gt;ec3535bb&#45;a1c8&#45;4e1a&#45;ad70&#45;95ec0a7f0b55</title>
<path fill="none" stroke="#000000" d="M755.434,-202.1863C802.4239,-198.2914 869.3447,-193.8 928.0829,-193.8 928.0829,-193.8 928.0829,-193.8 1176.0402,-193.8 1261.9507,-193.8 1361.5824,-185.2915 1420.4879,-179.3738"/>
<polygon fill="#000000" stroke="#000000" points="1421.0525,-182.8345 1430.646,-178.3383 1420.3426,-175.8706 1421.0525,-182.8345"/>
</g>
<!-- 967af0ca&#45;4530&#45;406f&#45;a2c5&#45;0b1ed9ef84cd&#45;&gt;82767231&#45;558e&#45;4adf&#45;bf57&#45;2a7b02ae6b40 -->
<g id="edge17" class="edge">
<title>967af0ca&#45;4530&#45;406f&#45;a2c5&#45;0b1ed9ef84cd&#45;&gt;82767231&#45;558e&#45;4adf&#45;bf57&#45;2a7b02ae6b40</title>
<path fill="none" stroke="#000000" d="M634.9963,-218.0356C572.133,-225.2647 473.5986,-233.6119 407.1792,-237.4021"/>
<polygon fill="#000000" stroke="#000000" points="406.599,-233.9286 396.8054,-237.9704 406.9819,-240.9181 406.599,-233.9286"/>
</g>
<!-- b2a9b6a1&#45;df9e&#45;48ee&#45;a7f1&#45;2c213e3bb0ef -->
<g id="node17" class="node">
<title>b2a9b6a1&#45;df9e&#45;48ee&#45;a7f1&#45;2c213e3bb0ef</title>
<polygon fill="#76ee00" stroke="#76ee00" points="1112.6473,-254.4019 1017.0179,-254.4019 1017.0179,-213.1981 1112.6473,-213.1981 1112.6473,-254.4019"/>
<text text-anchor="middle" x="1064.8326" y="-238" font-family="Times,serif" font-size="14.00" fill="#000000">@Singleton</text>
<text text-anchor="middle" x="1064.8326" y="-221.2" font-family="Times,serif" font-size="14.00" fill="#000000">LocationRepo</text>
</g>
<!-- 967af0ca&#45;4530&#45;406f&#45;a2c5&#45;0b1ed9ef84cd&#45;&gt;b2a9b6a1&#45;df9e&#45;48ee&#45;a7f1&#45;2c213e3bb0ef -->
<g id="edge40" class="edge">
<title>967af0ca&#45;4530&#45;406f&#45;a2c5&#45;0b1ed9ef84cd&#45;&gt;b2a9b6a1&#45;df9e&#45;48ee&#45;a7f1&#45;2c213e3bb0ef</title>
<path fill="none" stroke="#000000" d="M755.386,-212.0352C824.857,-216.9214 938.2921,-224.8998 1006.8182,-229.7196"/>
<polygon fill="#000000" stroke="#000000" points="1006.7834,-233.2257 1017.0044,-230.436 1007.2746,-226.2429 1006.7834,-233.2257"/>
</g>
<!-- 3bd175c5&#45;af3a&#45;45a5&#45;ab02&#45;46d71e86bbf4 -->
<g id="node18" class="node">
<title>3bd175c5&#45;af3a&#45;45a5&#45;ab02&#45;46d71e86bbf4</title>
<polygon fill="#76ee00" stroke="#76ee00" points="1137.9433,-314.4019 991.7219,-314.4019 991.7219,-273.1981 1137.9433,-273.1981 1137.9433,-314.4019"/>
<text text-anchor="middle" x="1064.8326" y="-298" font-family="Times,serif" font-size="14.00" fill="#000000">@Singleton</text>
<text text-anchor="middle" x="1064.8326" y="-281.2" font-family="Times,serif" font-size="14.00" fill="#000000">DeviceMetricsProvider</text>
</g>
<!-- 967af0ca&#45;4530&#45;406f&#45;a2c5&#45;0b1ed9ef84cd&#45;&gt;3bd175c5&#45;af3a&#45;45a5&#45;ab02&#45;46d71e86bbf4 -->
<g id="edge39" class="edge">
<title>967af0ca&#45;4530&#45;406f&#45;a2c5&#45;0b1ed9ef84cd&#45;&gt;3bd175c5&#45;af3a&#45;45a5&#45;ab02&#45;46d71e86bbf4</title>
<path fill="none" stroke="#000000" d="M755.461,-219.5093C787.9963,-226.0075 828.8043,-234.4467 865.0408,-242.8 903.463,-251.6571 945.8076,-262.3336 981.5867,-271.6243"/>
<polygon fill="#000000" stroke="#000000" points="980.9361,-275.0715 991.4955,-274.2053 982.7006,-268.2976 980.9361,-275.0715"/>
</g>
<!-- 220b71cf&#45;629b&#45;4087&#45;8072&#45;1c96ccd61114&#45;&gt;ec3535bb&#45;a1c8&#45;4e1a&#45;ad70&#45;95ec0a7f0b55 -->
<g id="edge11" class="edge">
<title>220b71cf&#45;629b&#45;4087&#45;8072&#45;1c96ccd61114&#45;&gt;ec3535bb&#45;a1c8&#45;4e1a&#45;ad70&#45;95ec0a7f0b55</title>
<path fill="none" stroke="#000000" d="M1128.1787,-360.5915C1149.9658,-355.0713 1174.2282,-347.8126 1195.5402,-338.8 1286.4777,-300.3435 1383.5164,-236.3219 1434.8694,-200.3784"/>
<polygon fill="#000000" stroke="#000000" points="1437.152,-203.0518 1443.3132,-194.4326 1433.1218,-197.3284 1437.152,-203.0518"/>
</g>
<!-- f9dc9321&#45;095b&#45;4c14&#45;9b59&#45;4a5d64b4ea97 -->
<g id="node20" class="node">
<title>f9dc9321&#45;095b&#45;4c14&#45;9b59&#45;4a5d64b4ea97</title>
<polygon fill="#40e0d0" stroke="#40e0d0" points="1692.7661,-966.8 1250.6813,-966.8 1250.6813,-930.8 1692.7661,-930.8 1692.7661,-966.8"/>
<text text-anchor="middle" x="1471.7237" y="-944.6" font-family="Times,serif" font-size="14.00" fill="#000000">AndroidBindingModule_BindRegionActivity.bindAndroidInjectorFactory()</text>
</g>
<!-- a79be386&#45;dfb3&#45;4c18&#45;8aa0&#45;ebd8d41741a5&#45;&gt;f9dc9321&#45;095b&#45;4c14&#45;9b59&#45;4a5d64b4ea97 -->
<g id="edge25" class="edge">
<title>a79be386&#45;dfb3&#45;4c18&#45;8aa0&#45;ebd8d41741a5&#45;&gt;f9dc9321&#45;095b&#45;4c14&#45;9b59&#45;4a5d64b4ea97</title>
<path fill="none" stroke="#000000" d="M712.5986,-770.8759C749.0083,-806.5964 837.3186,-882.8 928.0829,-882.8 928.0829,-882.8 928.0829,-882.8 1176.0402,-882.8 1200.0865,-882.8 1191.9362,-911.2412 1213.5402,-921.8 1222.2552,-926.0594 1231.3298,-929.7934 1240.6419,-933.0603"/>
<polygon fill="#000000" stroke="#000000" points="1239.8337,-936.4794 1250.427,-936.2981 1242.0327,-929.8338 1239.8337,-936.4794"/>
</g>
<!-- 95c41fa9&#45;9fe9&#45;4cce&#45;8814&#45;9694f5aaac94 -->
<g id="node21" class="node">
<title>95c41fa9&#45;9fe9&#45;4cce&#45;8814&#45;9694f5aaac94</title>
<polygon fill="#40e0d0" stroke="#40e0d0" points="1697.3157,-1020.8 1246.1317,-1020.8 1246.1317,-984.8 1697.3157,-984.8 1697.3157,-1020.8"/>
<text text-anchor="middle" x="1471.7237" y="-998.6" font-family="Times,serif" font-size="14.00" fill="#000000">AndroidBindingModule_BindContactsActivity.bindAndroidInjectorFactory()</text>
</g>
<!-- a79be386&#45;dfb3&#45;4c18&#45;8aa0&#45;ebd8d41741a5&#45;&gt;95c41fa9&#45;9fe9&#45;4cce&#45;8814&#45;9694f5aaac94 -->
<g id="edge31" class="edge">
<title>a79be386&#45;dfb3&#45;4c18&#45;8aa0&#45;ebd8d41741a5&#45;&gt;95c41fa9&#45;9fe9&#45;4cce&#45;8814&#45;9694f5aaac94</title>
<path fill="none" stroke="#000000" d="M702.4869,-770.8498C726.1165,-825.878 806.0182,-987.8 928.0829,-987.8 928.0829,-987.8 928.0829,-987.8 1176.0402,-987.8 1195.4974,-987.8 1215.6655,-988.128 1235.909,-988.6869"/>
<polygon fill="#000000" stroke="#000000" points="1236.0739,-992.1932 1246.1727,-988.9896 1236.2802,-985.1963 1236.0739,-992.1932"/>
</g>
<!-- 3070dcc1&#45;f3d4&#45;4853&#45;be9b&#45;d826eb2a14e8 -->
<g id="node22" class="node">
<title>3070dcc1&#45;f3d4&#45;4853&#45;be9b&#45;d826eb2a14e8</title>
<polygon fill="#40e0d0" stroke="#40e0d0" points="1699.4638,-1074.8 1243.9836,-1074.8 1243.9836,-1038.8 1699.4638,-1038.8 1699.4638,-1074.8"/>
<text text-anchor="middle" x="1471.7237" y="-1052.6" font-family="Times,serif" font-size="14.00" fill="#000000">AndroidBindingModule_BindWelcomeActivity.bindAndroidInjectorFactory()</text>
</g>
<!-- a79be386&#45;dfb3&#45;4c18&#45;8aa0&#45;ebd8d41741a5&#45;&gt;3070dcc1&#45;f3d4&#45;4853&#45;be9b&#45;d826eb2a14e8 -->
<g id="edge23" class="edge">
<title>a79be386&#45;dfb3&#45;4c18&#45;8aa0&#45;ebd8d41741a5&#45;&gt;3070dcc1&#45;f3d4&#45;4853&#45;be9b&#45;d826eb2a14e8</title>
<path fill="none" stroke="#000000" d="M701.3222,-771.0124C722.5086,-829.9663 798.3688,-1011.8 928.0829,-1011.8 928.0829,-1011.8 928.0829,-1011.8 1176.0402,-1011.8 1194.5274,-1011.8 1195.7519,-1024.7646 1213.5402,-1029.8 1222.2977,-1032.279 1231.2802,-1034.535 1240.3978,-1036.5876"/>
<polygon fill="#000000" stroke="#000000" points="1239.8264,-1040.0448 1250.34,-1038.736 1241.3049,-1033.2027 1239.8264,-1040.0448"/>
</g>
<!-- 8db1bd36&#45;3e4c&#45;432c&#45;a82b&#45;625011605f94 -->
<g id="node23" class="node">
<title>8db1bd36&#45;3e4c&#45;432c&#45;a82b&#45;625011605f94</title>
<polygon fill="#40e0d0" stroke="#40e0d0" points="1704.8447,-1128.8 1238.6027,-1128.8 1238.6027,-1092.8 1704.8447,-1092.8 1704.8447,-1128.8"/>
<text text-anchor="middle" x="1471.7237" y="-1106.6" font-family="Times,serif" font-size="14.00" fill="#000000">AndroidBindingModule_BindBackgroundService.bindAndroidInjectorFactory()</text>
</g>
<!-- a79be386&#45;dfb3&#45;4c18&#45;8aa0&#45;ebd8d41741a5&#45;&gt;8db1bd36&#45;3e4c&#45;432c&#45;a82b&#45;625011605f94 -->
<g id="edge33" class="edge">
<title>a79be386&#45;dfb3&#45;4c18&#45;8aa0&#45;ebd8d41741a5&#45;&gt;8db1bd36&#45;3e4c&#45;432c&#45;a82b&#45;625011605f94</title>
<path fill="none" stroke="#000000" d="M697.906,-770.8926C709.9596,-843.2346 765.1776,-1107.8 928.0829,-1107.8 928.0829,-1107.8 928.0829,-1107.8 1176.0402,-1107.8 1192.9913,-1107.8 1210.4887,-1107.8499 1228.1096,-1107.9369"/>
<polygon fill="#000000" stroke="#000000" points="1228.477,-1111.4388 1238.4955,-1107.9922 1228.5144,-1104.4389 1228.477,-1111.4388"/>
</g>
<!-- 7812a9e7&#45;718a&#45;4070&#45;8dbb&#45;50a93a2857b0 -->
<g id="node24" class="node">
<title>7812a9e7&#45;718a&#45;4070&#45;8dbb&#45;50a93a2857b0</title>
<polygon fill="#40e0d0" stroke="#40e0d0" points="1690.3185,-480.8 1253.1289,-480.8 1253.1289,-444.8 1690.3185,-444.8 1690.3185,-480.8"/>
<text text-anchor="middle" x="1471.7237" y="-458.6" font-family="Times,serif" font-size="14.00" fill="#000000">AndroidBindingModule_BindEditorActivity.bindAndroidInjectorFactory()</text>
</g>
<!-- a79be386&#45;dfb3&#45;4c18&#45;8aa0&#45;ebd8d41741a5&#45;&gt;7812a9e7&#45;718a&#45;4070&#45;8dbb&#45;50a93a2857b0 -->
<g id="edge27" class="edge">
<title>a79be386&#45;dfb3&#45;4c18&#45;8aa0&#45;ebd8d41741a5&#45;&gt;7812a9e7&#45;718a&#45;4070&#45;8dbb&#45;50a93a2857b0</title>
<path fill="none" stroke="#000000" d="M860.6712,-734.5787C862.1632,-733.3703 863.6207,-732.1114 865.0408,-730.8 879.6419,-717.3168 895.6893,-574.6321 902.0408,-555.8 910.6843,-530.1722 901.0367,-500.8 928.0829,-500.8 928.0829,-500.8 928.0829,-500.8 1176.0402,-500.8 1193.4091,-500.8 1196.5637,-493.4712 1213.5402,-489.8 1226.0892,-487.0862 1239.0425,-484.6421 1252.1548,-482.4412"/>
<polygon fill="#000000" stroke="#000000" points="1252.9007,-485.8659 1262.2087,-480.8051 1251.7764,-478.9568 1252.9007,-485.8659"/>
</g>
<!-- a0d8cd8c&#45;b033&#45;412d&#45;a381&#45;b7911dcbe9b4 -->
<g id="node25" class="node">
<title>a0d8cd8c&#45;b033&#45;412d&#45;a381&#45;b7911dcbe9b4</title>
<polygon fill="#40e0d0" stroke="#40e0d0" points="1730.0908,-534.8 1213.3566,-534.8 1213.3566,-498.8 1730.0908,-498.8 1730.0908,-534.8"/>
<text text-anchor="middle" x="1471.7237" y="-512.6" font-family="Times,serif" font-size="14.00" fill="#000000">AndroidBindingModule_BindBackgroundServiceReceiver.bindAndroidInjectorFactory()</text>
</g>
<!-- a79be386&#45;dfb3&#45;4c18&#45;8aa0&#45;ebd8d41741a5&#45;&gt;a0d8cd8c&#45;b033&#45;412d&#45;a381&#45;b7911dcbe9b4 -->
<g id="edge22" class="edge">
<title>a79be386&#45;dfb3&#45;4c18&#45;8aa0&#45;ebd8d41741a5&#45;&gt;a0d8cd8c&#45;b033&#45;412d&#45;a381&#45;b7911dcbe9b4</title>
<path fill="none" stroke="#000000" d="M860.2204,-734.7389C861.8663,-733.483 863.4742,-732.1707 865.0408,-730.8 895.5206,-704.1308 887.5828,-559.8 928.0829,-559.8 928.0829,-559.8 928.0829,-559.8 1176.0402,-559.8 1194.1605,-559.8 1196.0001,-548.3487 1213.5402,-543.8 1223.458,-541.228 1233.6505,-538.8999 1243.9907,-536.7926"/>
<polygon fill="#000000" stroke="#000000" points="1244.8066,-540.1994 1253.9455,-534.8392 1243.4587,-533.3304 1244.8066,-540.1994"/>
</g>
<!-- 32a3f750&#45;a423&#45;4399&#45;ab67&#45;75bfb1f1b276 -->
<g id="node26" class="node">
<title>32a3f750&#45;a423&#45;4399&#45;ab67&#45;75bfb1f1b276</title>
<polygon fill="#40e0d0" stroke="#40e0d0" points="1690.0472,-588.8 1253.4002,-588.8 1253.4002,-552.8 1690.0472,-552.8 1690.0472,-588.8"/>
<text text-anchor="middle" x="1471.7237" y="-566.6" font-family="Times,serif" font-size="14.00" fill="#000000">AndroidBindingModule_BindStatusActivity.bindAndroidInjectorFactory()</text>
</g>
<!-- a79be386&#45;dfb3&#45;4c18&#45;8aa0&#45;ebd8d41741a5&#45;&gt;32a3f750&#45;a423&#45;4399&#45;ab67&#45;75bfb1f1b276 -->
<g id="edge32" class="edge">
<title>a79be386&#45;dfb3&#45;4c18&#45;8aa0&#45;ebd8d41741a5&#45;&gt;32a3f750&#45;a423&#45;4399&#45;ab67&#45;75bfb1f1b276</title>
<path fill="none" stroke="#000000" d="M859.6186,-734.7046C861.4656,-733.4624 863.2744,-732.1616 865.0408,-730.8 891.1047,-710.7089 895.1743,-596.8 928.0829,-596.8 928.0829,-596.8 928.0829,-596.8 1176.0402,-596.8 1221.1941,-596.8 1270.0782,-593.754 1314.8489,-589.7472"/>
<polygon fill="#000000" stroke="#000000" points="1315.2944,-593.2211 1324.933,-588.8224 1314.6552,-586.2503 1315.2944,-593.2211"/>
</g>
<!-- 7d9a902e&#45;945a&#45;4085&#45;88a8&#45;ccca48299217 -->
<g id="node27" class="node">
<title>7d9a902e&#45;945a&#45;4085&#45;88a8&#45;ccca48299217</title>
<polygon fill="#40e0d0" stroke="#40e0d0" points="1705.6063,-642.8 1237.8411,-642.8 1237.8411,-606.8 1705.6063,-606.8 1705.6063,-642.8"/>
<text text-anchor="middle" x="1471.7237" y="-620.6" font-family="Times,serif" font-size="14.00" fill="#000000">AndroidBindingModule_BindPreferencesActivity.bindAndroidInjectorFactory()</text>
</g>
<!-- a79be386&#45;dfb3&#45;4c18&#45;8aa0&#45;ebd8d41741a5&#45;&gt;7d9a902e&#45;945a&#45;4085&#45;88a8&#45;ccca48299217 -->
<g id="edge30" class="edge">
<title>a79be386&#45;dfb3&#45;4c18&#45;8aa0&#45;ebd8d41741a5&#45;&gt;7d9a902e&#45;945a&#45;4085&#45;88a8&#45;ccca48299217</title>
<path fill="none" stroke="#000000" d="M858.0004,-734.6986C860.3912,-733.4659 862.7401,-732.1674 865.0408,-730.8 906.0887,-706.4026 880.3319,-643.8 928.0829,-643.8 928.0829,-643.8 928.0829,-643.8 1176.0402,-643.8 1192.8104,-643.8 1210.1046,-643.4919 1227.5174,-642.9541"/>
<polygon fill="#000000" stroke="#000000" points="1227.9028,-646.4432 1237.7804,-642.6115 1227.6692,-639.4471 1227.9028,-646.4432"/>
</g>
<!-- db14a273&#45;2bcc&#45;4e98&#45;9a4c&#45;ffcd07bea987 -->
<g id="node28" class="node">
<title>db14a273&#45;2bcc&#45;4e98&#45;9a4c&#45;ffcd07bea987</title>
<polygon fill="#40e0d0" stroke="#40e0d0" points="1685.4834,-696.8 1257.964,-696.8 1257.964,-660.8 1685.4834,-660.8 1685.4834,-696.8"/>
<text text-anchor="middle" x="1471.7237" y="-674.6" font-family="Times,serif" font-size="14.00" fill="#000000">AndroidBindingModule_BindMapActivity.bindAndroidInjectorFactory()</text>
</g>
<!-- a79be386&#45;dfb3&#45;4c18&#45;8aa0&#45;ebd8d41741a5&#45;&gt;db14a273&#45;2bcc&#45;4e98&#45;9a4c&#45;ffcd07bea987 -->
<g id="edge26" class="edge">
<title>a79be386&#45;dfb3&#45;4c18&#45;8aa0&#45;ebd8d41741a5&#45;&gt;db14a273&#45;2bcc&#45;4e98&#45;9a4c&#45;ffcd07bea987</title>
<path fill="none" stroke="#000000" d="M851.609,-734.703C856.1586,-733.4856 860.6449,-732.1864 865.0408,-730.8 895.2016,-721.2876 896.4576,-697.8 928.0829,-697.8 928.0829,-697.8 928.0829,-697.8 1176.0402,-697.8 1199.3237,-697.8 1223.6174,-697.206 1247.8361,-696.2281"/>
<polygon fill="#000000" stroke="#000000" points="1247.9973,-699.7245 1257.8394,-695.8026 1247.6997,-692.7308 1247.9973,-699.7245"/>
</g>
<!-- 2d9bcc34&#45;606f&#45;40ba&#45;807d&#45;91d0b981d769 -->
<g id="node29" class="node">
<title>2d9bcc34&#45;606f&#45;40ba&#45;807d&#45;91d0b981d769</title>
<polygon fill="#40e0d0" stroke="#40e0d0" points="1704.5703,-750.8 1238.8771,-750.8 1238.8771,-714.8 1704.5703,-714.8 1704.5703,-750.8"/>
<text text-anchor="middle" x="1471.7237" y="-728.6" font-family="Times,serif" font-size="14.00" fill="#000000">AndroidBindingModule_BindLogViewerActivity.bindAndroidInjectorFactory()</text>
</g>
<!-- a79be386&#45;dfb3&#45;4c18&#45;8aa0&#45;ebd8d41741a5&#45;&gt;2d9bcc34&#45;606f&#45;40ba&#45;807d&#45;91d0b981d769 -->
<g id="edge29" class="edge">
<title>a79be386&#45;dfb3&#45;4c18&#45;8aa0&#45;ebd8d41741a5&#45;&gt;2d9bcc34&#45;606f&#45;40ba&#45;807d&#45;91d0b981d769</title>
<path fill="none" stroke="#000000" d="M864.8752,-736.625C886.1376,-735.5004 907.6018,-734.8 928.0829,-734.8 928.0829,-734.8 928.0829,-734.8 1176.0402,-734.8 1192.9908,-734.8 1210.4879,-734.7667 1228.1085,-734.7088"/>
<polygon fill="#000000" stroke="#000000" points="1228.5068,-738.2075 1238.4943,-734.6718 1228.4819,-731.2075 1228.5068,-738.2075"/>
</g>
<!-- 62e63dc6&#45;f010&#45;40f7&#45;8c00&#45;3021928bcc96 -->
<g id="node30" class="node">
<title>62e63dc6&#45;f010&#45;40f7&#45;8c00&#45;3021928bcc96</title>
<polygon fill="#40e0d0" stroke="#40e0d0" points="1687.0913,-804.8 1256.3561,-804.8 1256.3561,-768.8 1687.0913,-768.8 1687.0913,-804.8"/>
<text text-anchor="middle" x="1471.7237" y="-782.6" font-family="Times,serif" font-size="14.00" fill="#000000">AndroidBindingModule_BindLoadActivity.bindAndroidInjectorFactory()</text>
</g>
<!-- a79be386&#45;dfb3&#45;4c18&#45;8aa0&#45;ebd8d41741a5&#45;&gt;62e63dc6&#45;f010&#45;40f7&#45;8c00&#45;3021928bcc96 -->
<g id="edge34" class="edge">
<title>a79be386&#45;dfb3&#45;4c18&#45;8aa0&#45;ebd8d41741a5&#45;&gt;62e63dc6&#45;f010&#45;40f7&#45;8c00&#45;3021928bcc96</title>
<path fill="none" stroke="#000000" d="M864.8618,-769.8736C886.1264,-771.0606 907.5948,-771.8 928.0829,-771.8 928.0829,-771.8 928.0829,-771.8 1176.0402,-771.8 1198.7526,-771.8 1222.4337,-772.2469 1246.0724,-772.9864"/>
<polygon fill="#000000" stroke="#000000" points="1246.0877,-776.4887 1256.1978,-773.3208 1246.3188,-769.4926 1246.0877,-776.4887"/>
</g>
<!-- ce0c993a&#45;8e60&#45;40da&#45;98e7&#45;b3d7616ee005 -->
<g id="node31" class="node">
<title>ce0c993a&#45;8e60&#45;40da&#45;98e7&#45;b3d7616ee005</title>
<polygon fill="#40e0d0" stroke="#40e0d0" points="1695.7105,-858.8 1247.7369,-858.8 1247.7369,-822.8 1695.7105,-822.8 1695.7105,-858.8"/>
<text text-anchor="middle" x="1471.7237" y="-836.6" font-family="Times,serif" font-size="14.00" fill="#000000">AndroidBindingModule_BindRegionsActivity.bindAndroidInjectorFactory()</text>
</g>
<!-- a79be386&#45;dfb3&#45;4c18&#45;8aa0&#45;ebd8d41741a5&#45;&gt;ce0c993a&#45;8e60&#45;40da&#45;98e7&#45;b3d7616ee005 -->
<g id="edge24" class="edge">
<title>a79be386&#45;dfb3&#45;4c18&#45;8aa0&#45;ebd8d41741a5&#45;&gt;ce0c993a&#45;8e60&#45;40da&#45;98e7&#45;b3d7616ee005</title>
<path fill="none" stroke="#000000" d="M735.4796,-770.9686C781.2041,-789.8898 858.4709,-816.8 928.0829,-816.8 928.0829,-816.8 928.0829,-816.8 1176.0402,-816.8 1215.6853,-816.8 1258.2226,-818.9699 1298.3284,-822.0049"/>
<polygon fill="#000000" stroke="#000000" points="1298.2277,-825.5075 1308.4692,-822.7943 1298.771,-818.5286 1298.2277,-825.5075"/>
</g>
<!-- 718740a9&#45;a6be&#45;43da&#45;a09e&#45;d287b642154e -->
<g id="node32" class="node">
<title>718740a9&#45;a6be&#45;43da&#45;a09e&#45;d287b642154e</title>
<polygon fill="#40e0d0" stroke="#40e0d0" points="1704.8712,-912.8 1238.5762,-912.8 1238.5762,-876.8 1704.8712,-876.8 1704.8712,-912.8"/>
<text text-anchor="middle" x="1471.7237" y="-890.6" font-family="Times,serif" font-size="14.00" fill="#000000">AndroidBindingModule_BindConnectionActivity.bindAndroidInjectorFactory()</text>
</g>
<!-- a79be386&#45;dfb3&#45;4c18&#45;8aa0&#45;ebd8d41741a5&#45;&gt;718740a9&#45;a6be&#45;43da&#45;a09e&#45;d287b642154e -->
<g id="edge28" class="edge">
<title>a79be386&#45;dfb3&#45;4c18&#45;8aa0&#45;ebd8d41741a5&#45;&gt;718740a9&#45;a6be&#45;43da&#45;a09e&#45;d287b642154e</title>
<path fill="none" stroke="#000000" d="M718.8482,-770.8568C759.3755,-799.908 845.6639,-853.8 928.0829,-853.8 928.0829,-853.8 928.0829,-853.8 1176.0402,-853.8 1193.8305,-853.8 1196.2215,-863.7312 1213.5402,-867.8 1224.8513,-870.4574 1236.5027,-872.8534 1248.3111,-875.0137"/>
<polygon fill="#000000" stroke="#000000" points="1247.8064,-878.4787 1258.2631,-876.7735 1249.0253,-871.5856 1247.8064,-878.4787"/>
</g>
</g>
</svg>
