<svg width="2129px" height="396px"
 viewBox="0.00 0.00 2128.80 395.60" xmlns="http://www.w3.org/2000/svg" xmlns:xlink="http://www.w3.org/1999/xlink">
<g id="graph0" class="graph" transform="scale(1.0 1.0) rotate(0) translate(14.4 381.2)">
<title>org.owntracks.android.injection.modules.AndroidBindingModule_BindStatusActivity</title>
<polygon fill="#ffffff" stroke="transparent" points="-14.4,14.4 -14.4,-381.2 2114.4042,-381.2 2114.4042,14.4 -14.4,14.4"/>
<text text-anchor="middle" x="132.8296" y="-8.2" font-family="Times,serif" font-size="14.00" fill="#000000">AndroidBindingModule_BindStatusActivity</text>
<g id="clust2" class="cluster">
<title>cluster_Dependency Graph</title>
<polygon fill="none" stroke="#000000" points="8,-32.8 8,-358.8 1541.0904,-358.8 1541.0904,-32.8 8,-32.8"/>
<text text-anchor="middle" x="70.2234" y="-342.2" font-family="Times,serif" font-size="14.00" fill="#000000">Dependency Graph</text>
</g>
<g id="clust3" class="cluster">
<title>cluster_Map&lt;Class&lt;?&gt;, AndroidInjector.Factory&lt;?&gt;&gt;</title>
<path fill="none" stroke="#000000" d="M171.0404,-248.8C171.0404,-248.8 1176.6436,-248.8 1176.6436,-248.8 1182.6436,-248.8 1188.6436,-254.8 1188.6436,-260.8 1188.6436,-260.8 1188.6436,-313.8 1188.6436,-313.8 1188.6436,-319.8 1182.6436,-325.8 1176.6436,-325.8 1176.6436,-325.8 171.0404,-325.8 171.0404,-325.8 165.0404,-325.8 159.0404,-319.8 159.0404,-313.8 159.0404,-313.8 159.0404,-260.8 159.0404,-260.8 159.0404,-254.8 165.0404,-248.8 171.0404,-248.8"/>
<text text-anchor="middle" x="673.842" y="-309.2" font-family="Times,serif" font-size="14.00" fill="#000000">Map&lt;Class&lt;?&gt;, AndroidInjector.Factory&lt;?&gt;&gt;</text>
</g>
<g id="clust4" class="cluster">
<title>cluster_Subcomponents</title>
<polygon fill="none" stroke="#000000" points="1642.7454,-245.8 1642.7454,-328.8 2092.0042,-328.8 2092.0042,-245.8 1642.7454,-245.8"/>
<text text-anchor="middle" x="1695.4642" y="-312.2" font-family="Times,serif" font-size="14.00" fill="#000000">Subcomponents</text>
</g>
<!-- 8bcccd23&#45;7920&#45;4468&#45;ae35&#45;63bc154ee079 -->
<g id="node1" class="node">
<title>8bcccd23&#45;7920&#45;4468&#45;ae35&#45;63bc154ee079</title>
<polygon fill="#40e0d0" stroke="#40e0d0" points="1180.8054,-292.8 744.1584,-292.8 744.1584,-256.8 1180.8054,-256.8 1180.8054,-292.8"/>
<text text-anchor="middle" x="962.4819" y="-270.6" font-family="Times,serif" font-size="14.00" fill="#000000">AndroidBindingModule_BindStatusActivity.bindAndroidInjectorFactory()</text>
</g>
<!-- 296560a1&#45;d6b6&#45;4404&#45;a1c6&#45;02ee6f55cab9 -->
<g id="node2" class="node">
<title>296560a1&#45;d6b6&#45;4404&#45;a1c6&#45;02ee6f55cab9</title>
<polygon fill="#40e0d0" stroke="#40e0d0" points="1533.272,-303.4014 1306.5462,-303.4014 1306.5462,-246.1986 1533.272,-246.1986 1533.272,-303.4014"/>
<text text-anchor="middle" x="1419.9091" y="-287" font-family="Times,serif" font-size="14.00" fill="#000000">StatusActivitySubcomponent.Factory</text>
<text text-anchor="middle" x="1419.9091" y="-254.2" font-family="Times,serif" font-size="14.00" fill="#000000">Subcomponent Creator</text>
</g>
<!-- 8bcccd23&#45;7920&#45;4468&#45;ae35&#45;63bc154ee079&#45;&gt;296560a1&#45;d6b6&#45;4404&#45;a1c6&#45;02ee6f55cab9 -->
<g id="edge2" class="edge">
<title>8bcccd23&#45;7920&#45;4468&#45;ae35&#45;63bc154ee079&#45;&gt;296560a1&#45;d6b6&#45;4404&#45;a1c6&#45;02ee6f55cab9</title>
<path fill="none" stroke="#000000" stroke-dasharray="1,5" d="M1180.8128,-274.8C1220.4653,-274.8 1260.5349,-274.8 1296.2409,-274.8"/>
<polygon fill="#000000" stroke="#000000" points="1296.6826,-278.3001 1306.6826,-274.8 1296.6826,-271.3001 1296.6826,-278.3001"/>
<text text-anchor="middle" x="1243.6857" y="-279" font-family="Times,serif" font-size="14.00" fill="#000000">delegates</text>
</g>
<!-- 82ae72ef&#45;2990&#45;4d0f&#45;a70a&#45;50d82e57204b -->
<g id="node8" class="node">
<title>82ae72ef&#45;2990&#45;4d0f&#45;a70a&#45;50d82e57204b</title>
<g id="a_node8"><a xlink:href="full_org.owntracks.android.injection.modules.AndroidBindingModule_BindStatusActivity.StatusActivitySubcomponent.svg" xlink:title="@PerActivity\nAndroidBindingModule_BindStatusActivity.StatusActivitySubcomponent">
<polygon fill="#7fffd4" stroke="#7fffd4" points="2084.1337,-295.4019 1650.6159,-295.4019 1650.6159,-254.1981 2084.1337,-254.1981 2084.1337,-295.4019"/>
<text text-anchor="middle" x="1867.3748" y="-279" font-family="Times,serif" font-size="14.00" fill="#000000">@PerActivity</text>
<text text-anchor="middle" x="1867.3748" y="-262.2" font-family="Times,serif" font-size="14.00" fill="#000000">AndroidBindingModule_BindStatusActivity.StatusActivitySubcomponent</text>
</a>
</g>
</g>
<!-- 296560a1&#45;d6b6&#45;4404&#45;a1c6&#45;02ee6f55cab9&#45;&gt;82ae72ef&#45;2990&#45;4d0f&#45;a70a&#45;50d82e57204b -->
<g id="edge3" class="edge">
<title>296560a1&#45;d6b6&#45;4404&#45;a1c6&#45;02ee6f55cab9&#45;&gt;82ae72ef&#45;2990&#45;4d0f&#45;a70a&#45;50d82e57204b:w</title>
<path fill="none" stroke="#000000" stroke-dasharray="5,2" d="M1533.3212,-274.8C1567.2581,-274.8 1604.8142,-274.8 1640.0226,-274.8"/>
<polygon fill="#000000" stroke="#000000" points="1640.3748,-278.3001 1650.3748,-274.8 1640.3748,-271.3001 1640.3748,-278.3001"/>
<text text-anchor="middle" x="1591.9179" y="-279" font-family="Times,serif" font-size="14.00" fill="#000000">subcomponent</text>
</g>
<!-- 9950eed2&#45;5ab0&#45;4977&#45;9d80&#45;40bf8ae2a831 -->
<g id="node3" class="node">
<title>9950eed2&#45;5ab0&#45;4977&#45;9d80&#45;40bf8ae2a831</title>
<polygon fill="#ff3030" stroke="#ff3030" points="409.6651,-238.8 199.6551,-238.8 199.6551,-202.8 409.6651,-202.8 409.6651,-238.8"/>
<text text-anchor="middle" x="304.6601" y="-216.6" font-family="Times,serif" font-size="14.00" fill="#000000">org.greenrobot.eventbus.EventBus</text>
</g>
<!-- f8ce6dcc&#45;2cea&#45;4d06&#45;8fa8&#45;adf9e937641b -->
<g id="node4" class="node">
<title>f8ce6dcc&#45;2cea&#45;4d06&#45;8fa8&#45;adf9e937641b</title>
<polygon fill="#ff3030" stroke="#ff3030" points="593.4804,-184.8 15.8398,-184.8 15.8398,-148.8 593.4804,-148.8 593.4804,-184.8"/>
<text text-anchor="middle" x="304.6601" y="-162.6" font-family="Times,serif" font-size="14.00" fill="#000000">java.util.Map&lt;java.lang.String,javax.inject.Provider&lt;dagger.android.AndroidInjector.Factory&lt;?&gt;&gt;&gt;</text>
</g>
<!-- c7fe0e39&#45;c831&#45;4a9a&#45;bad3&#45;012e380524f9 -->
<g id="node5" class="node">
<title>c7fe0e39&#45;c831&#45;4a9a&#45;bad3&#45;012e380524f9</title>
<polygon fill="#ff3030" stroke="#ff3030" points="539.1721,-130.8 70.1481,-130.8 70.1481,-94.8 539.1721,-94.8 539.1721,-130.8"/>
<text text-anchor="middle" x="304.6601" y="-108.6" font-family="Times,serif" font-size="14.00" fill="#000000">@org.owntracks.android.injection.qualifier.AppContext android.content.Context</text>
</g>
<!-- 93aa4700&#45;c359&#45;438a&#45;91c2&#45;39fa2786e6be -->
<g id="node6" class="node">
<title>93aa4700&#45;c359&#45;438a&#45;91c2&#45;39fa2786e6be</title>
<polygon fill="#ff3030" stroke="#ff3030" points="481.4438,-76.8 127.8764,-76.8 127.8764,-40.8 481.4438,-40.8 481.4438,-76.8"/>
<text text-anchor="middle" x="304.6601" y="-54.6" font-family="Times,serif" font-size="14.00" fill="#000000">org.owntracks.android.support.preferences.PreferencesStore</text>
</g>
<!-- 7ebc4add&#45;058b&#45;4b0d&#45;8652&#45;c6fcf3eb9658 -->
<g id="node7" class="node">
<title>7ebc4add&#45;058b&#45;4b0d&#45;8652&#45;c6fcf3eb9658</title>
<polygon fill="#40e0d0" stroke="#40e0d0" points="442.3996,-292.8 178.9206,-292.8 178.9206,-296.8 166.9206,-296.8 166.9206,-256.8 442.3996,-256.8 442.3996,-292.8"/>
<polyline fill="none" stroke="#40e0d0" points="166.9206,-292.8 178.9206,-292.8 "/>
<text text-anchor="middle" x="304.6601" y="-270.6" font-family="Times,serif" font-size="14.00" fill="#000000">Map&lt;Class&lt;?&gt;, AndroidInjector.Factory&lt;?&gt;&gt;</text>
</g>
<!-- 7ebc4add&#45;058b&#45;4b0d&#45;8652&#45;c6fcf3eb9658&#45;&gt;8bcccd23&#45;7920&#45;4468&#45;ae35&#45;63bc154ee079 -->
<g id="edge1" class="edge">
<title>7ebc4add&#45;058b&#45;4b0d&#45;8652&#45;c6fcf3eb9658&#45;&gt;8bcccd23&#45;7920&#45;4468&#45;ae35&#45;63bc154ee079</title>
<path fill="none" stroke="#000000" d="M442.3313,-274.8C500.4944,-274.8 568.9574,-274.8 630.8202,-274.8 630.8202,-274.8 630.8202,-274.8 706.8202,-274.8 715.784,-274.8 724.9247,-274.8 734.1584,-274.8"/>
<polygon fill="#000000" stroke="#000000" points="734.2106,-278.3001 744.2105,-274.8 734.2105,-271.3001 734.2106,-278.3001"/>
</g>
</g>
</svg>
