<svg width="1377px" height="510px"
 viewBox="0.00 0.00 1377.07 509.60" xmlns="http://www.w3.org/2000/svg" xmlns:xlink="http://www.w3.org/1999/xlink">
<g id="graph0" class="graph" transform="scale(1.0 1.0) rotate(0) translate(14.4 495.2)">
<title>org.owntracks.android.injection.components.AppComponent → org.owntracks.android.injection.modules.AndroidBindingModule_BindLogViewerActivity.LogViewerActivitySubcomponent</title>
<polygon fill="#ffffff" stroke="transparent" points="-14.4,14.4 -14.4,-495.2 1362.6723,-495.2 1362.6723,14.4 -14.4,14.4"/>
<text text-anchor="middle" x="299.6221" y="-8.2" font-family="Times,serif" font-size="14.00" fill="#000000">AppComponent → AndroidBindingModule_BindLogViewerActivity.LogViewerActivitySubcomponent</text>
<g id="clust1" class="cluster">
<title>cluster_Entry Points</title>
<polygon fill="none" stroke="#000000" points="8,-149.8 8,-226.8 193.552,-226.8 193.552,-149.8 8,-149.8"/>
<text text-anchor="middle" x="50.8061" y="-210.2" font-family="Times,serif" font-size="14.00" fill="#000000">Entry Points</text>
</g>
<g id="clust5" class="cluster">
<title>cluster_AppComponent → AndroidBindingModule_BindLogViewerActivity.LogViewerActivitySubcomponent</title>
<g id="a_clust5"><a xlink:href="org.owntracks.android.injection.modules.AndroidBindingModule_BindLogViewerActivity.LogViewerActivitySubcomponent.svg" xlink:title="Inherited from AndroidBindingModule_BindLogViewerActivity.LogViewerActivitySubcomponent\n@PerActivity">
<polygon fill="none" stroke="#ffe4c4" stroke-dasharray="5,2" points="214.552,-313.8 214.552,-472.8 1340.2723,-472.8 1340.2723,-313.8 214.552,-313.8"/>
<text text-anchor="middle" x="777.4122" y="-456.2" font-family="Times,serif" font-size="14.00" fill="#000000">Inherited from AndroidBindingModule_BindLogViewerActivity.LogViewerActivitySubcomponent</text>
<text text-anchor="middle" x="777.4122" y="-439.4" font-family="Times,serif" font-size="14.00" fill="#000000">@PerActivity</text>
</a>
</g>
</g>
<g id="clust4" class="cluster">
<title>cluster_AppComponent</title>
<g id="a_clust4"><a xlink:href="org.owntracks.android.injection.components.AppComponent.svg" xlink:title="Inherited from AppComponent\n@Singleton">
<polygon fill="none" stroke="#7fffd4" stroke-dasharray="5,2" points="549.806,-32.8 549.806,-305.8 792.7538,-305.8 792.7538,-32.8 549.806,-32.8"/>
<text text-anchor="middle" x="671.2799" y="-289.2" font-family="Times,serif" font-size="14.00" fill="#000000">Inherited from AppComponent</text>
<text text-anchor="middle" x="671.2799" y="-272.4" font-family="Times,serif" font-size="14.00" fill="#000000">@Singleton</text>
</a>
</g>
</g>
<!-- 170d8cb7&#45;1a4d&#45;411b&#45;95b3&#45;baefd1fef6e8 -->
<g id="node1" class="node">
<title>170d8cb7&#45;1a4d&#45;411b&#45;95b3&#45;baefd1fef6e8</title>
<polygon fill="#40e0d0" stroke="#40e0d0" stroke-width="2" points="185.3286,-193.8 16.2234,-193.8 16.2234,-189.8 12.2234,-189.8 12.2234,-185.8 16.2234,-185.8 16.2234,-165.8 12.2234,-165.8 12.2234,-161.8 16.2234,-161.8 16.2234,-157.8 185.3286,-157.8 185.3286,-193.8"/>
<polyline fill="none" stroke="#40e0d0" stroke-width="2" points="16.2234,-189.8 20.2234,-189.8 20.2234,-185.8 16.2234,-185.8 "/>
<polyline fill="none" stroke="#40e0d0" stroke-width="2" points="16.2234,-165.8 20.2234,-165.8 20.2234,-161.8 16.2234,-161.8 "/>
<text text-anchor="middle" x="100.776" y="-171.6" font-family="Times,serif" font-size="14.00" fill="#000000">inject (LogViewerActivity)</text>
</g>
<!-- 25841675&#45;1905&#45;4a2d&#45;928b&#45;5a2e771afaf6 -->
<g id="node2" class="node">
<title>25841675&#45;1905&#45;4a2d&#45;928b&#45;5a2e771afaf6</title>
<polygon fill="#40e0d0" stroke="#40e0d0" points="339.6741,-388.8 222.5113,-388.8 222.5113,-352.8 339.6741,-352.8 339.6741,-388.8"/>
<text text-anchor="middle" x="281.0927" y="-366.6" font-family="Times,serif" font-size="14.00" fill="#000000">NoOpViewModel</text>
</g>
<!-- 170d8cb7&#45;1a4d&#45;411b&#45;95b3&#45;baefd1fef6e8&#45;&gt;25841675&#45;1905&#45;4a2d&#45;928b&#45;5a2e771afaf6 -->
<g id="edge4" class="edge">
<title>170d8cb7&#45;1a4d&#45;411b&#45;95b3&#45;baefd1fef6e8&#45;&gt;25841675&#45;1905&#45;4a2d&#45;928b&#45;5a2e771afaf6</title>
<path fill="none" stroke="#000000" d="M117.7398,-194.1451C150.0409,-229.0766 220.4431,-305.2117 257.3845,-345.1612"/>
<polygon fill="#000000" stroke="#000000" points="254.9464,-347.6798 264.3054,-352.6457 260.0859,-342.9273 254.9464,-347.6798"/>
</g>
<!-- db9f4551&#45;9907&#45;4501&#45;86c4&#45;0757cd0a96b8 -->
<g id="node3" class="node">
<title>db9f4551&#45;9907&#45;4501&#45;86c4&#45;0757cd0a96b8</title>
<polygon fill="#ffe4c4" stroke="#ffe4c4" points="520.8924,-363.4019 414.547,-363.4019 414.547,-322.1981 520.8924,-322.1981 520.8924,-363.4019"/>
<text text-anchor="middle" x="467.7197" y="-347" font-family="Times,serif" font-size="14.00" fill="#000000">@PerActivity</text>
<text text-anchor="middle" x="467.7197" y="-330.2" font-family="Times,serif" font-size="14.00" fill="#000000">DrawerProvider</text>
</g>
<!-- 170d8cb7&#45;1a4d&#45;411b&#45;95b3&#45;baefd1fef6e8&#45;&gt;db9f4551&#45;9907&#45;4501&#45;86c4&#45;0757cd0a96b8 -->
<g id="edge5" class="edge">
<title>170d8cb7&#45;1a4d&#45;411b&#45;95b3&#45;baefd1fef6e8&#45;&gt;db9f4551&#45;9907&#45;4501&#45;86c4&#45;0757cd0a96b8</title>
<path fill="none" stroke="#000000" d="M140.394,-193.8306C206.2388,-223.7972 338.3275,-283.9122 413.011,-317.9015"/>
<polygon fill="#000000" stroke="#000000" points="411.7174,-321.1581 422.2689,-322.1149 414.617,-314.7869 411.7174,-321.1581"/>
</g>
<!-- 29027682&#45;6c6e&#45;4447&#45;a2ab&#45;d990292aef90 -->
<g id="node7" class="node">
<title>29027682&#45;6c6e&#45;4447&#45;a2ab&#45;d990292aef90</title>
<polygon fill="#7fffd4" stroke="#7fffd4" points="712.3427,-196.4019 630.2171,-196.4019 630.2171,-155.1981 712.3427,-155.1981 712.3427,-196.4019"/>
<text text-anchor="middle" x="671.2799" y="-180" font-family="Times,serif" font-size="14.00" fill="#000000">@Singleton</text>
<text text-anchor="middle" x="671.2799" y="-163.2" font-family="Times,serif" font-size="14.00" fill="#000000">Preferences</text>
</g>
<!-- 170d8cb7&#45;1a4d&#45;411b&#45;95b3&#45;baefd1fef6e8&#45;&gt;29027682&#45;6c6e&#45;4447&#45;a2ab&#45;d990292aef90 -->
<g id="edge2" class="edge">
<title>170d8cb7&#45;1a4d&#45;411b&#45;95b3&#45;baefd1fef6e8&#45;&gt;29027682&#45;6c6e&#45;4447&#45;a2ab&#45;d990292aef90</title>
<path fill="none" stroke="#000000" d="M185.6256,-175.8C215.7692,-175.8 249.9442,-175.8 281.0927,-175.8 281.0927,-175.8 281.0927,-175.8 467.7197,-175.8 519.5209,-175.8 578.737,-175.8 619.8945,-175.8"/>
<polygon fill="#000000" stroke="#000000" points="619.9538,-179.3001 629.9537,-175.8 619.9537,-172.3001 619.9538,-179.3001"/>
</g>
<!-- 500dc2c3&#45;89ee&#45;429f&#45;b0b0&#45;2c8458d86516 -->
<g id="node8" class="node">
<title>500dc2c3&#45;89ee&#45;429f&#45;b0b0&#45;2c8458d86516</title>
<polygon fill="#7fffd4" stroke="#7fffd4" points="712.3427,-136.4019 630.2171,-136.4019 630.2171,-95.1981 712.3427,-95.1981 712.3427,-136.4019"/>
<text text-anchor="middle" x="671.2799" y="-120" font-family="Times,serif" font-size="14.00" fill="#000000">@Singleton</text>
<text text-anchor="middle" x="671.2799" y="-103.2" font-family="Times,serif" font-size="14.00" fill="#000000">EventBus</text>
</g>
<!-- 170d8cb7&#45;1a4d&#45;411b&#45;95b3&#45;baefd1fef6e8&#45;&gt;500dc2c3&#45;89ee&#45;429f&#45;b0b0&#45;2c8458d86516 -->
<g id="edge1" class="edge">
<title>170d8cb7&#45;1a4d&#45;411b&#45;95b3&#45;baefd1fef6e8&#45;&gt;500dc2c3&#45;89ee&#45;429f&#45;b0b0&#45;2c8458d86516</title>
<path fill="none" stroke="#000000" d="M142.5318,-157.6934C178.532,-143.7352 232.2701,-126.8 281.0927,-126.8 281.0927,-126.8 281.0927,-126.8 467.7197,-126.8 519.5964,-126.8 578.8016,-123.1938 619.936,-120.111"/>
<polygon fill="#000000" stroke="#000000" points="620.2856,-123.5946 629.9891,-119.341 619.7509,-116.615 620.2856,-123.5946"/>
</g>
<!-- 6b601659&#45;229f&#45;462c&#45;ab34&#45;29e853e7ea3c -->
<g id="node9" class="node">
<title>6b601659&#45;229f&#45;462c&#45;ab34&#45;29e853e7ea3c</title>
<polygon fill="#40e0d0" stroke="#40e0d0" points="784.7277,-76.8 557.8321,-76.8 557.8321,-40.8 784.7277,-40.8 784.7277,-76.8"/>
<text text-anchor="middle" x="671.2799" y="-54.6" font-family="Times,serif" font-size="14.00" fill="#000000">DispatchingAndroidInjector&lt;Object&gt;</text>
</g>
<!-- 170d8cb7&#45;1a4d&#45;411b&#45;95b3&#45;baefd1fef6e8&#45;&gt;6b601659&#45;229f&#45;462c&#45;ab34&#45;29e853e7ea3c -->
<g id="edge3" class="edge">
<title>170d8cb7&#45;1a4d&#45;411b&#45;95b3&#45;baefd1fef6e8&#45;&gt;6b601659&#45;229f&#45;462c&#45;ab34&#45;29e853e7ea3c</title>
<path fill="none" stroke="#000000" d="M118.3549,-157.5644C148.6226,-128.2256 213.8354,-73.8 281.0927,-73.8 281.0927,-73.8 281.0927,-73.8 467.7197,-73.8 493.6428,-73.8 521.3727,-72.5751 547.76,-70.8254"/>
<polygon fill="#000000" stroke="#000000" points="548.0664,-74.3127 557.8009,-70.1306 547.5831,-67.3294 548.0664,-74.3127"/>
</g>
<!-- 6b58468f&#45;a6cb&#45;4859&#45;a386&#45;25f320a07ab3 -->
<g id="node4" class="node">
<title>6b58468f&#45;a6cb&#45;4859&#45;a386&#45;25f320a07ab3</title>
<polygon fill="#ffe4c4" stroke="#ffe4c4" points="514.6547,-423.4019 420.7847,-423.4019 420.7847,-382.1981 514.6547,-382.1981 514.6547,-423.4019"/>
<text text-anchor="middle" x="467.7197" y="-407" font-family="Times,serif" font-size="14.00" fill="#000000">@PerActivity</text>
<text text-anchor="middle" x="467.7197" y="-390.2" font-family="Times,serif" font-size="14.00" fill="#000000">Navigator</text>
</g>
<!-- 25841675&#45;1905&#45;4a2d&#45;928b&#45;5a2e771afaf6&#45;&gt;6b58468f&#45;a6cb&#45;4859&#45;a386&#45;25f320a07ab3 -->
<g id="edge6" class="edge">
<title>25841675&#45;1905&#45;4a2d&#45;928b&#45;5a2e771afaf6&#45;&gt;6b58468f&#45;a6cb&#45;4859&#45;a386&#45;25f320a07ab3</title>
<path fill="none" stroke="#000000" d="M339.8865,-380.8811C362.494,-384.7575 388.2483,-389.1734 410.6874,-393.0209"/>
<polygon fill="#000000" stroke="#000000" points="410.293,-396.5043 420.7407,-394.7447 411.476,-389.605 410.293,-396.5043"/>
</g>
<!-- ea31ea5d&#45;87b0&#45;40f9&#45;bf97&#45;86135ffe08c7 -->
<g id="node5" class="node">
<title>ea31ea5d&#45;87b0&#45;40f9&#45;bf97&#45;86135ffe08c7</title>
<polygon fill="#ffe4c4" stroke="#ffe4c4" points="952.2381,-393.4019 821.5921,-393.4019 821.5921,-352.1981 952.2381,-352.1981 952.2381,-393.4019"/>
<text text-anchor="middle" x="886.9151" y="-377" font-family="Times,serif" font-size="14.00" fill="#000000">@PerActivity</text>
<text text-anchor="middle" x="886.9151" y="-360.2" font-family="Times,serif" font-size="14.00" fill="#000000">AppCompatActivity</text>
</g>
<!-- db9f4551&#45;9907&#45;4501&#45;86c4&#45;0757cd0a96b8&#45;&gt;ea31ea5d&#45;87b0&#45;40f9&#45;bf97&#45;86135ffe08c7 -->
<g id="edge7" class="edge">
<title>db9f4551&#45;9907&#45;4501&#45;86c4&#45;0757cd0a96b8&#45;&gt;ea31ea5d&#45;87b0&#45;40f9&#45;bf97&#45;86135ffe08c7</title>
<path fill="none" stroke="#000000" d="M520.8111,-346.5995C594.3041,-351.8591 727.4413,-361.3871 811.3042,-367.3889"/>
<polygon fill="#000000" stroke="#000000" points="811.3084,-370.898 821.5327,-368.1209 811.8081,-363.9159 811.3084,-370.898"/>
</g>
<!-- 6a428f82&#45;287d&#45;40ec&#45;acd2&#45;6b6b6a097716 -->
<g id="node10" class="node">
<title>6a428f82&#45;287d&#45;40ec&#45;acd2&#45;6b6b6a097716</title>
<polygon fill="#7fffd4" stroke="#7fffd4" points="712.3427,-256.4019 630.2171,-256.4019 630.2171,-215.1981 712.3427,-215.1981 712.3427,-256.4019"/>
<text text-anchor="middle" x="671.2799" y="-240" font-family="Times,serif" font-size="14.00" fill="#000000">@Singleton</text>
<text text-anchor="middle" x="671.2799" y="-223.2" font-family="Times,serif" font-size="14.00" fill="#000000">Scheduler</text>
</g>
<!-- db9f4551&#45;9907&#45;4501&#45;86c4&#45;0757cd0a96b8&#45;&gt;6a428f82&#45;287d&#45;40ec&#45;acd2&#45;6b6b6a097716 -->
<g id="edge8" class="edge">
<title>db9f4551&#45;9907&#45;4501&#45;86c4&#45;0757cd0a96b8&#45;&gt;6a428f82&#45;287d&#45;40ec&#45;acd2&#45;6b6b6a097716</title>
<path fill="none" stroke="#000000" d="M506.9682,-322.1693C539.9511,-304.8321 587.2382,-279.9759 622.6229,-261.3762"/>
<polygon fill="#000000" stroke="#000000" points="624.582,-264.3005 631.8052,-256.5496 621.325,-258.1044 624.582,-264.3005"/>
</g>
<!-- 6b58468f&#45;a6cb&#45;4859&#45;a386&#45;25f320a07ab3&#45;&gt;ea31ea5d&#45;87b0&#45;40f9&#45;bf97&#45;86135ffe08c7 -->
<g id="edge9" class="edge">
<title>6b58468f&#45;a6cb&#45;4859&#45;a386&#45;25f320a07ab3&#45;&gt;ea31ea5d&#45;87b0&#45;40f9&#45;bf97&#45;86135ffe08c7</title>
<path fill="none" stroke="#000000" d="M514.5865,-399.4459C586.618,-394.291 725.2332,-384.3709 811.5074,-378.1966"/>
<polygon fill="#000000" stroke="#000000" points="811.7771,-381.6863 821.5017,-377.4814 811.2773,-374.7042 811.7771,-381.6863"/>
</g>
<!-- 25d8060a&#45;ff5e&#45;4271&#45;85db&#45;56912ff7a96a -->
<g id="node6" class="node">
<title>25d8060a&#45;ff5e&#45;4271&#45;85db&#45;56912ff7a96a</title>
<polygon fill="#40e0d0" stroke="#40e0d0" points="1332.3282,-390.8 1130.1219,-390.8 1078.1047,-354.8 1280.3111,-354.8 1332.3282,-390.8"/>
<text text-anchor="middle" x="1205.2165" y="-368.6" font-family="Times,serif" font-size="14.00" fill="#000000">LogViewerActivity</text>
</g>
<!-- ea31ea5d&#45;87b0&#45;40f9&#45;bf97&#45;86135ffe08c7&#45;&gt;25d8060a&#45;ff5e&#45;4271&#45;85db&#45;56912ff7a96a -->
<g id="edge10" class="edge">
<title>ea31ea5d&#45;87b0&#45;40f9&#45;bf97&#45;86135ffe08c7&#45;&gt;25d8060a&#45;ff5e&#45;4271&#45;85db&#45;56912ff7a96a</title>
<path fill="none" stroke="#000000" stroke-dasharray="1,5" d="M952.0962,-372.8C992.9339,-372.8 1046.6322,-372.8 1094.0579,-372.8"/>
<polygon fill="#000000" stroke="#000000" points="1094.076,-376.3001 1104.076,-372.8 1094.0759,-369.3001 1094.076,-376.3001"/>
<text text-anchor="middle" x="1015.1185" y="-377" font-family="Times,serif" font-size="14.00" fill="#000000">delegates</text>
</g>
</g>
</svg>
