<svg width="1730px" height="608px"
 viewBox="0.00 0.00 1730.47 607.60" xmlns="http://www.w3.org/2000/svg" xmlns:xlink="http://www.w3.org/1999/xlink">
<g id="graph0" class="graph" transform="scale(1.0 1.0) rotate(0) translate(14.4 593.2)">
<title>org.owntracks.android.injection.components.AppComponent → org.owntracks.android.injection.modules.AndroidBindingModule_BindRegionActivity.RegionActivitySubcomponent</title>
<polygon fill="#ffffff" stroke="transparent" points="-14.4,14.4 -14.4,-593.2 1716.0727,-593.2 1716.0727,14.4 -14.4,14.4"/>
<text text-anchor="middle" x="276.3177" y="-8.2" font-family="Times,serif" font-size="14.00" fill="#000000">AppComponent → AndroidBindingModule_BindRegionActivity.RegionActivitySubcomponent</text>
<g id="clust2" class="cluster">
<title>cluster_Dependency Graph</title>
<polygon fill="none" stroke="#000000" points="191.2476,-427.8 191.2476,-570.8 1693.6727,-570.8 1693.6727,-427.8 191.2476,-427.8"/>
<text text-anchor="middle" x="253.471" y="-554.2" font-family="Times,serif" font-size="14.00" fill="#000000">Dependency Graph</text>
</g>
<g id="clust1" class="cluster">
<title>cluster_Entry Points</title>
<polygon fill="none" stroke="#000000" points="8,-245.8 8,-322.8 170.2476,-322.8 170.2476,-245.8 8,-245.8"/>
<text text-anchor="middle" x="50.8061" y="-306.2" font-family="Times,serif" font-size="14.00" fill="#000000">Entry Points</text>
</g>
<g id="clust5" class="cluster">
<title>cluster_AppComponent</title>
<g id="a_clust5"><a xlink:href="org.owntracks.android.injection.components.AppComponent.svg" xlink:title="Inherited from AppComponent\n@Singleton">
<polygon fill="none" stroke="#7fffd4" stroke-dasharray="5,2" points="950.3442,-32.8 950.3442,-419.8 1193.292,-419.8 1193.292,-32.8 950.3442,-32.8"/>
<text text-anchor="middle" x="1071.8181" y="-403.2" font-family="Times,serif" font-size="14.00" fill="#000000">Inherited from AppComponent</text>
<text text-anchor="middle" x="1071.8181" y="-386.4" font-family="Times,serif" font-size="14.00" fill="#000000">@Singleton</text>
</a>
</g>
</g>
<!-- a6547ba2&#45;f763&#45;4cf8&#45;ba1c&#45;3dc54dfd2d55 -->
<g id="node1" class="node">
<title>a6547ba2&#45;f763&#45;4cf8&#45;ba1c&#45;3dc54dfd2d55</title>
<polygon fill="#40e0d0" stroke="#40e0d0" stroke-width="2" points="162.3716,-289.8 15.876,-289.8 15.876,-285.8 11.876,-285.8 11.876,-281.8 15.876,-281.8 15.876,-261.8 11.876,-261.8 11.876,-257.8 15.876,-257.8 15.876,-253.8 162.3716,-253.8 162.3716,-289.8"/>
<polyline fill="none" stroke="#40e0d0" stroke-width="2" points="15.876,-285.8 19.876,-285.8 19.876,-281.8 15.876,-281.8 "/>
<polyline fill="none" stroke="#40e0d0" stroke-width="2" points="15.876,-261.8 19.876,-261.8 19.876,-257.8 15.876,-257.8 "/>
<text text-anchor="middle" x="89.1238" y="-267.6" font-family="Times,serif" font-size="14.00" fill="#000000">inject (RegionActivity)</text>
</g>
<!-- 39240a31&#45;182a&#45;494a&#45;a838&#45;0a6376958d00 -->
<g id="node2" class="node">
<title>39240a31&#45;182a&#45;494a&#45;a838&#45;0a6376958d00</title>
<polygon fill="#40e0d0" stroke="#40e0d0" points="490.5427,-472.8 199.4823,-472.8 199.4823,-436.8 490.5427,-436.8 490.5427,-472.8"/>
<text text-anchor="middle" x="345.0125" y="-450.6" font-family="Times,serif" font-size="14.00" fill="#000000">RegionMvvm.ViewModel&lt;RegionMvvm.View&gt;</text>
</g>
<!-- a6547ba2&#45;f763&#45;4cf8&#45;ba1c&#45;3dc54dfd2d55&#45;&gt;39240a31&#45;182a&#45;494a&#45;a838&#45;0a6376958d00 -->
<g id="edge5" class="edge">
<title>a6547ba2&#45;f763&#45;4cf8&#45;ba1c&#45;3dc54dfd2d55&#45;&gt;39240a31&#45;182a&#45;494a&#45;a838&#45;0a6376958d00</title>
<path fill="none" stroke="#000000" d="M96.1369,-290.0845C108.4935,-319.8186 137.001,-378.4726 180.2476,-409.8 193.8981,-419.6883 209.6102,-427.404 225.7952,-433.4243"/>
<polygon fill="#000000" stroke="#000000" points="224.7726,-436.7746 235.3674,-436.7768 227.0864,-430.168 224.7726,-436.7746"/>
</g>
<!-- ee16c609&#45;4f65&#45;478c&#45;91ed&#45;ede8d9240330 -->
<g id="node3" class="node">
<title>ee16c609&#45;4f65&#45;478c&#45;91ed&#45;ede8d9240330</title>
<polygon fill="#ffe4c4" stroke="#ffe4c4" points="921.4306,-477.4019 815.0852,-477.4019 815.0852,-436.1981 921.4306,-436.1981 921.4306,-477.4019"/>
<text text-anchor="middle" x="868.2579" y="-461" font-family="Times,serif" font-size="14.00" fill="#000000">@PerActivity</text>
<text text-anchor="middle" x="868.2579" y="-444.2" font-family="Times,serif" font-size="14.00" fill="#000000">DrawerProvider</text>
</g>
<!-- a6547ba2&#45;f763&#45;4cf8&#45;ba1c&#45;3dc54dfd2d55&#45;&gt;ee16c609&#45;4f65&#45;478c&#45;91ed&#45;ede8d9240330 -->
<g id="edge2" class="edge">
<title>a6547ba2&#45;f763&#45;4cf8&#45;ba1c&#45;3dc54dfd2d55&#45;&gt;ee16c609&#45;4f65&#45;478c&#45;91ed&#45;ede8d9240330</title>
<path fill="none" stroke="#000000" d="M124.5257,-289.8908C172.9776,-312.9328 263.2725,-349.8 345.0125,-349.8 345.0125,-349.8 345.0125,-349.8 777.6716,-349.8 818.2578,-349.8 844.4049,-395.1979 857.7032,-426.8523"/>
<polygon fill="#000000" stroke="#000000" points="854.4637,-428.1777 861.4196,-436.1693 860.9656,-425.5842 854.4637,-428.1777"/>
</g>
<!-- ae544c29&#45;8c09&#45;4cbc&#45;b769&#45;9734fa966647 -->
<g id="node4" class="node">
<title>ae544c29&#45;8c09&#45;4cbc&#45;b769&#45;9734fa966647</title>
<polygon fill="#ffe4c4" stroke="#ffe4c4" points="915.1929,-537.4019 821.3229,-537.4019 821.3229,-496.1981 915.1929,-496.1981 915.1929,-537.4019"/>
<text text-anchor="middle" x="868.2579" y="-521" font-family="Times,serif" font-size="14.00" fill="#000000">@PerActivity</text>
<text text-anchor="middle" x="868.2579" y="-504.2" font-family="Times,serif" font-size="14.00" fill="#000000">Navigator</text>
</g>
<!-- a6547ba2&#45;f763&#45;4cf8&#45;ba1c&#45;3dc54dfd2d55&#45;&gt;ae544c29&#45;8c09&#45;4cbc&#45;b769&#45;9734fa966647 -->
<g id="edge6" class="edge">
<title>a6547ba2&#45;f763&#45;4cf8&#45;ba1c&#45;3dc54dfd2d55&#45;&gt;ae544c29&#45;8c09&#45;4cbc&#45;b769&#45;9734fa966647</title>
<path fill="none" stroke="#000000" d="M109.2584,-290.0403C128.9249,-307.0332 160.3304,-332.0493 191.2476,-347.8 255.0388,-380.2983 273.4202,-395.8 345.0125,-395.8 345.0125,-395.8 345.0125,-395.8 777.6716,-395.8 821.4155,-395.8 786.2076,-454.0186 815.1716,-486.8 816.0193,-487.7594 816.9054,-488.6952 817.8243,-489.6073"/>
<polygon fill="#000000" stroke="#000000" points="815.557,-492.2737 825.4214,-496.1395 820.1208,-486.9659 815.557,-492.2737"/>
</g>
<!-- ff72691e&#45;644e&#45;469c&#45;8d6d&#45;45f0c2b386c9 -->
<g id="node8" class="node">
<title>ff72691e&#45;644e&#45;469c&#45;8d6d&#45;45f0c2b386c9</title>
<polygon fill="#7fffd4" stroke="#7fffd4" points="1112.8809,-196.4019 1030.7553,-196.4019 1030.7553,-155.1981 1112.8809,-155.1981 1112.8809,-196.4019"/>
<text text-anchor="middle" x="1071.8181" y="-180" font-family="Times,serif" font-size="14.00" fill="#000000">@Singleton</text>
<text text-anchor="middle" x="1071.8181" y="-163.2" font-family="Times,serif" font-size="14.00" fill="#000000">Preferences</text>
</g>
<!-- a6547ba2&#45;f763&#45;4cf8&#45;ba1c&#45;3dc54dfd2d55&#45;&gt;ff72691e&#45;644e&#45;469c&#45;8d6d&#45;45f0c2b386c9 -->
<g id="edge1" class="edge">
<title>a6547ba2&#45;f763&#45;4cf8&#45;ba1c&#45;3dc54dfd2d55&#45;&gt;ff72691e&#45;644e&#45;469c&#45;8d6d&#45;45f0c2b386c9</title>
<path fill="none" stroke="#000000" d="M121.1121,-253.7737C168.4748,-228.8227 260.751,-186.8 345.0125,-186.8 345.0125,-186.8 345.0125,-186.8 868.2579,-186.8 920.1346,-186.8 979.3398,-183.1938 1020.4742,-180.111"/>
<polygon fill="#000000" stroke="#000000" points="1020.8238,-183.5946 1030.5273,-179.341 1020.2891,-176.615 1020.8238,-183.5946"/>
</g>
<!-- 66250599&#45;55bb&#45;45f7&#45;99e9&#45;ad3ea76a36e6 -->
<g id="node9" class="node">
<title>66250599&#45;55bb&#45;45f7&#45;99e9&#45;ad3ea76a36e6</title>
<polygon fill="#7fffd4" stroke="#7fffd4" points="1112.8809,-136.4019 1030.7553,-136.4019 1030.7553,-95.1981 1112.8809,-95.1981 1112.8809,-136.4019"/>
<text text-anchor="middle" x="1071.8181" y="-120" font-family="Times,serif" font-size="14.00" fill="#000000">@Singleton</text>
<text text-anchor="middle" x="1071.8181" y="-103.2" font-family="Times,serif" font-size="14.00" fill="#000000">EventBus</text>
</g>
<!-- a6547ba2&#45;f763&#45;4cf8&#45;ba1c&#45;3dc54dfd2d55&#45;&gt;66250599&#45;55bb&#45;45f7&#45;99e9&#45;ad3ea76a36e6 -->
<g id="edge3" class="edge">
<title>a6547ba2&#45;f763&#45;4cf8&#45;ba1c&#45;3dc54dfd2d55&#45;&gt;66250599&#45;55bb&#45;45f7&#45;99e9&#45;ad3ea76a36e6</title>
<path fill="none" stroke="#000000" d="M105.5427,-253.7086C124.4662,-233.8266 157.34,-202.1489 191.2476,-182.8 253.7832,-147.1149 273.0116,-131.8 345.0125,-131.8 345.0125,-131.8 345.0125,-131.8 868.2579,-131.8 920.2188,-131.8 979.4118,-126.5546 1020.5203,-122.0705"/>
<polygon fill="#000000" stroke="#000000" points="1021.016,-125.537 1030.5666,-120.9506 1020.2403,-118.5801 1021.016,-125.537"/>
</g>
<!-- 8cc7f68f&#45;a336&#45;46ea&#45;bf55&#45;d9515193b5f7 -->
<g id="node10" class="node">
<title>8cc7f68f&#45;a336&#45;46ea&#45;bf55&#45;d9515193b5f7</title>
<polygon fill="#40e0d0" stroke="#40e0d0" points="1185.2659,-76.8 958.3703,-76.8 958.3703,-40.8 1185.2659,-40.8 1185.2659,-76.8"/>
<text text-anchor="middle" x="1071.8181" y="-54.6" font-family="Times,serif" font-size="14.00" fill="#000000">DispatchingAndroidInjector&lt;Object&gt;</text>
</g>
<!-- a6547ba2&#45;f763&#45;4cf8&#45;ba1c&#45;3dc54dfd2d55&#45;&gt;8cc7f68f&#45;a336&#45;46ea&#45;bf55&#45;d9515193b5f7 -->
<g id="edge4" class="edge">
<title>a6547ba2&#45;f763&#45;4cf8&#45;ba1c&#45;3dc54dfd2d55&#45;&gt;8cc7f68f&#45;a336&#45;46ea&#45;bf55&#45;d9515193b5f7</title>
<path fill="none" stroke="#000000" d="M97.5366,-253.7435C112.4054,-223.6513 146.0756,-163.0745 191.2476,-127.8 249.0659,-82.6501 271.6541,-67.8 345.0125,-67.8 345.0125,-67.8 345.0125,-67.8 868.2579,-67.8 894.1361,-67.8 921.8468,-67.0651 948.2296,-66.0153"/>
<polygon fill="#000000" stroke="#000000" points="948.4232,-69.5103 958.2694,-65.5984 948.1327,-62.5163 948.4232,-69.5103"/>
</g>
<!-- bdb47e8e&#45;26c9&#45;4501&#45;a7c1&#45;dbdf87b2c90a -->
<g id="node5" class="node">
<title>bdb47e8e&#45;26c9&#45;4501&#45;a7c1&#45;dbdf87b2c90a</title>
<polygon fill="#ffe4c4" stroke="#ffe4c4" points="740.327,-477.4019 616.7062,-477.4019 616.7062,-436.1981 740.327,-436.1981 740.327,-477.4019"/>
<text text-anchor="middle" x="678.5166" y="-461" font-family="Times,serif" font-size="14.00" fill="#000000">@PerActivity</text>
<text text-anchor="middle" x="678.5166" y="-444.2" font-family="Times,serif" font-size="14.00" fill="#000000">RegionViewModel</text>
</g>
<!-- 39240a31&#45;182a&#45;494a&#45;a838&#45;0a6376958d00&#45;&gt;bdb47e8e&#45;26c9&#45;4501&#45;a7c1&#45;dbdf87b2c90a -->
<g id="edge7" class="edge">
<title>39240a31&#45;182a&#45;494a&#45;a838&#45;0a6376958d00&#45;&gt;bdb47e8e&#45;26c9&#45;4501&#45;a7c1&#45;dbdf87b2c90a</title>
<path fill="none" stroke="#000000" stroke-dasharray="1,5" d="M490.8071,-455.6743C530.8355,-455.9144 572.501,-456.1642 606.3791,-456.3674"/>
<polygon fill="#000000" stroke="#000000" points="606.6118,-459.8688 616.6326,-456.4289 606.6538,-452.8689 606.6118,-459.8688"/>
<text text-anchor="middle" x="553.8195" y="-460" font-family="Times,serif" font-size="14.00" fill="#000000">delegates</text>
</g>
<!-- 8907ea6f&#45;4f97&#45;4fd0&#45;9d31&#45;047a63c82f8a -->
<g id="node6" class="node">
<title>8907ea6f&#45;4f97&#45;4fd0&#45;9d31&#45;047a63c82f8a</title>
<polygon fill="#ffe4c4" stroke="#ffe4c4" points="1352.7763,-507.4019 1222.1303,-507.4019 1222.1303,-466.1981 1352.7763,-466.1981 1352.7763,-507.4019"/>
<text text-anchor="middle" x="1287.4533" y="-491" font-family="Times,serif" font-size="14.00" fill="#000000">@PerActivity</text>
<text text-anchor="middle" x="1287.4533" y="-474.2" font-family="Times,serif" font-size="14.00" fill="#000000">AppCompatActivity</text>
</g>
<!-- ee16c609&#45;4f65&#45;478c&#45;91ed&#45;ede8d9240330&#45;&gt;8907ea6f&#45;4f97&#45;4fd0&#45;9d31&#45;047a63c82f8a -->
<g id="edge8" class="edge">
<title>ee16c609&#45;4f65&#45;478c&#45;91ed&#45;ede8d9240330&#45;&gt;8907ea6f&#45;4f97&#45;4fd0&#45;9d31&#45;047a63c82f8a</title>
<path fill="none" stroke="#000000" d="M921.3493,-460.5995C994.8423,-465.8591 1127.9795,-475.3871 1211.8424,-481.3889"/>
<polygon fill="#000000" stroke="#000000" points="1211.8466,-484.898 1222.0709,-482.1209 1212.3463,-477.9159 1211.8466,-484.898"/>
</g>
<!-- 22029a29&#45;1028&#45;4f18&#45;bef1&#45;3cbf9c8b55d9 -->
<g id="node11" class="node">
<title>22029a29&#45;1028&#45;4f18&#45;bef1&#45;3cbf9c8b55d9</title>
<polygon fill="#7fffd4" stroke="#7fffd4" points="1112.8809,-370.4019 1030.7553,-370.4019 1030.7553,-329.1981 1112.8809,-329.1981 1112.8809,-370.4019"/>
<text text-anchor="middle" x="1071.8181" y="-354" font-family="Times,serif" font-size="14.00" fill="#000000">@Singleton</text>
<text text-anchor="middle" x="1071.8181" y="-337.2" font-family="Times,serif" font-size="14.00" fill="#000000">Scheduler</text>
</g>
<!-- ee16c609&#45;4f65&#45;478c&#45;91ed&#45;ede8d9240330&#45;&gt;22029a29&#45;1028&#45;4f18&#45;bef1&#45;3cbf9c8b55d9 -->
<g id="edge9" class="edge">
<title>ee16c609&#45;4f65&#45;478c&#45;91ed&#45;ede8d9240330&#45;&gt;22029a29&#45;1028&#45;4f18&#45;bef1&#45;3cbf9c8b55d9</title>
<path fill="none" stroke="#000000" d="M907.5064,-436.1693C940.4893,-418.8321 987.7764,-393.9759 1023.1611,-375.3762"/>
<polygon fill="#000000" stroke="#000000" points="1025.1202,-378.3005 1032.3434,-370.5496 1021.8632,-372.1044 1025.1202,-378.3005"/>
</g>
<!-- ae544c29&#45;8c09&#45;4cbc&#45;b769&#45;9734fa966647&#45;&gt;8907ea6f&#45;4f97&#45;4fd0&#45;9d31&#45;047a63c82f8a -->
<g id="edge11" class="edge">
<title>ae544c29&#45;8c09&#45;4cbc&#45;b769&#45;9734fa966647&#45;&gt;8907ea6f&#45;4f97&#45;4fd0&#45;9d31&#45;047a63c82f8a</title>
<path fill="none" stroke="#000000" d="M915.1247,-513.4459C987.1562,-508.291 1125.7714,-498.3709 1212.0456,-492.1966"/>
<polygon fill="#000000" stroke="#000000" points="1212.3153,-495.6863 1222.0399,-491.4814 1211.8155,-488.7042 1212.3153,-495.6863"/>
</g>
<!-- bdb47e8e&#45;26c9&#45;4501&#45;a7c1&#45;dbdf87b2c90a&#45;&gt;ae544c29&#45;8c09&#45;4cbc&#45;b769&#45;9734fa966647 -->
<g id="edge10" class="edge">
<title>bdb47e8e&#45;26c9&#45;4501&#45;a7c1&#45;dbdf87b2c90a&#45;&gt;ae544c29&#45;8c09&#45;4cbc&#45;b769&#45;9734fa966647</title>
<path fill="none" stroke="#000000" d="M740.3825,-476.3632C763.3683,-483.6318 789.3071,-491.8342 811.7859,-498.9424"/>
<polygon fill="#000000" stroke="#000000" points="810.9273,-502.3417 821.5172,-502.0197 813.0379,-495.6674 810.9273,-502.3417"/>
</g>
<!-- f475fc20&#45;958c&#45;4603&#45;bea4&#45;3b7a26435243 -->
<g id="node12" class="node">
<title>f475fc20&#45;958c&#45;4603&#45;bea4&#45;3b7a26435243</title>
<polygon fill="#40e0d0" stroke="#40e0d0" points="1125.0245,-310.8 1018.6117,-310.8 1018.6117,-274.8 1125.0245,-274.8 1125.0245,-310.8"/>
<text text-anchor="middle" x="1071.8181" y="-288.6" font-family="Times,serif" font-size="14.00" fill="#000000">WaypointsRepo</text>
</g>
<!-- bdb47e8e&#45;26c9&#45;4501&#45;a7c1&#45;dbdf87b2c90a&#45;&gt;f475fc20&#45;958c&#45;4603&#45;bea4&#45;3b7a26435243 -->
<g id="edge13" class="edge">
<title>bdb47e8e&#45;26c9&#45;4501&#45;a7c1&#45;dbdf87b2c90a&#45;&gt;f475fc20&#45;958c&#45;4603&#45;bea4&#45;3b7a26435243</title>
<path fill="none" stroke="#000000" d="M692.0523,-436.1468C711.4931,-408.3411 750.1006,-359.6144 796.1716,-335.8 862.9403,-301.2868 950.0492,-292.8155 1008.3039,-291.496"/>
<polygon fill="#000000" stroke="#000000" points="1008.5322,-294.9929 1018.4743,-291.3316 1008.419,-287.9938 1008.5322,-294.9929"/>
</g>
<!-- 5fa01ea2&#45;6af3&#45;4ad8&#45;ab1c&#45;88e23d2e70d6 -->
<g id="node13" class="node">
<title>5fa01ea2&#45;6af3&#45;4ad8&#45;ab1c&#45;88e23d2e70d6</title>
<polygon fill="#7fffd4" stroke="#7fffd4" points="1119.6328,-256.4019 1024.0034,-256.4019 1024.0034,-215.1981 1119.6328,-215.1981 1119.6328,-256.4019"/>
<text text-anchor="middle" x="1071.8181" y="-240" font-family="Times,serif" font-size="14.00" fill="#000000">@Singleton</text>
<text text-anchor="middle" x="1071.8181" y="-223.2" font-family="Times,serif" font-size="14.00" fill="#000000">LocationRepo</text>
</g>
<!-- bdb47e8e&#45;26c9&#45;4501&#45;a7c1&#45;dbdf87b2c90a&#45;&gt;5fa01ea2&#45;6af3&#45;4ad8&#45;ab1c&#45;88e23d2e70d6 -->
<g id="edge12" class="edge">
<title>bdb47e8e&#45;26c9&#45;4501&#45;a7c1&#45;dbdf87b2c90a&#45;&gt;5fa01ea2&#45;6af3&#45;4ad8&#45;ab1c&#45;88e23d2e70d6</title>
<path fill="none" stroke="#000000" d="M689.4732,-436.1038C709.386,-400.6945 755.0703,-328.9182 815.1716,-293.8 876.8645,-257.7518 958.9824,-244.1019 1013.5333,-238.9371"/>
<polygon fill="#000000" stroke="#000000" points="1014.0695,-242.4036 1023.7243,-238.0405 1013.456,-235.4305 1014.0695,-242.4036"/>
</g>
<!-- b140706b&#45;939e&#45;4826&#45;ad07&#45;e4bbdabca27f -->
<g id="node7" class="node">
<title>b140706b&#45;939e&#45;4826&#45;ad07&#45;e4bbdabca27f</title>
<polygon fill="#40e0d0" stroke="#40e0d0" points="1685.6596,-504.8 1521.0558,-504.8 1478.7119,-468.8 1643.3156,-468.8 1685.6596,-504.8"/>
<text text-anchor="middle" x="1582.1857" y="-482.6" font-family="Times,serif" font-size="14.00" fill="#000000">RegionActivity</text>
</g>
<!-- 8907ea6f&#45;4f97&#45;4fd0&#45;9d31&#45;047a63c82f8a&#45;&gt;b140706b&#45;939e&#45;4826&#45;ad07&#45;e4bbdabca27f -->
<g id="edge14" class="edge">
<title>8907ea6f&#45;4f97&#45;4fd0&#45;9d31&#45;047a63c82f8a&#45;&gt;b140706b&#45;939e&#45;4826&#45;ad07&#45;e4bbdabca27f</title>
<path fill="none" stroke="#000000" stroke-dasharray="1,5" d="M1352.864,-486.8C1393.0632,-486.8 1445.1923,-486.8 1489.5891,-486.8"/>
<polygon fill="#000000" stroke="#000000" points="1489.8139,-490.3001 1499.8139,-486.8 1489.8138,-483.3001 1489.8139,-490.3001"/>
<text text-anchor="middle" x="1415.6567" y="-491" font-family="Times,serif" font-size="14.00" fill="#000000">delegates</text>
</g>
</g>
</svg>
