<svg width="1876px" height="690px"
 viewBox="0.00 0.00 1875.65 689.60" xmlns="http://www.w3.org/2000/svg" xmlns:xlink="http://www.w3.org/1999/xlink">
<g id="graph0" class="graph" transform="scale(1.0 1.0) rotate(0) translate(14.4 675.2)">
<title>org.owntracks.android.injection.components.AppComponent → org.owntracks.android.injection.modules.AndroidBindingModule_BindConnectionActivity.ConnectionActivitySubcomponent</title>
<polygon fill="#ffffff" stroke="transparent" points="-14.4,14.4 -14.4,-675.2 1861.2511,-675.2 1861.2511,14.4 -14.4,14.4"/>
<text text-anchor="middle" x="300.4229" y="-8.2" font-family="Times,serif" font-size="14.00" fill="#000000">AppComponent → AndroidBindingModule_BindConnectionActivity.ConnectionActivitySubcomponent</text>
<g id="clust1" class="cluster">
<title>cluster_Entry Points</title>
<polygon fill="none" stroke="#000000" points="8,-209.8 8,-286.8 194.3528,-286.8 194.3528,-209.8 8,-209.8"/>
<text text-anchor="middle" x="50.8061" y="-270.2" font-family="Times,serif" font-size="14.00" fill="#000000">Entry Points</text>
</g>
<g id="clust2" class="cluster">
<title>cluster_Dependency Graph</title>
<polygon fill="none" stroke="#000000" points="215.3528,-509.8 215.3528,-652.8 1838.8511,-652.8 1838.8511,-509.8 215.3528,-509.8"/>
<text text-anchor="middle" x="277.5762" y="-636.2" font-family="Times,serif" font-size="14.00" fill="#000000">Dependency Graph</text>
</g>
<g id="clust4" class="cluster">
<title>cluster_AppComponent</title>
<g id="a_clust4"><a xlink:href="org.owntracks.android.injection.components.AppComponent.svg" xlink:title="Inherited from AppComponent\n@Singleton">
<polygon fill="none" stroke="#7fffd4" stroke-dasharray="5,2" points="1046.765,-32.8 1046.765,-501.8 1289.7128,-501.8 1289.7128,-32.8 1046.765,-32.8"/>
<text text-anchor="middle" x="1168.2389" y="-485.2" font-family="Times,serif" font-size="14.00" fill="#000000">Inherited from AppComponent</text>
<text text-anchor="middle" x="1168.2389" y="-468.4" font-family="Times,serif" font-size="14.00" fill="#000000">@Singleton</text>
</a>
</g>
</g>
<!-- d8bd0187&#45;d81b&#45;462f&#45;93de&#45;857fd9911404 -->
<g id="node1" class="node">
<title>d8bd0187&#45;d81b&#45;462f&#45;93de&#45;857fd9911404</title>
<polygon fill="#40e0d0" stroke="#40e0d0" stroke-width="2" points="186.5296,-253.8 15.8232,-253.8 15.8232,-249.8 11.8232,-249.8 11.8232,-245.8 15.8232,-245.8 15.8232,-225.8 11.8232,-225.8 11.8232,-221.8 15.8232,-221.8 15.8232,-217.8 186.5296,-217.8 186.5296,-253.8"/>
<polyline fill="none" stroke="#40e0d0" stroke-width="2" points="15.8232,-249.8 19.8232,-249.8 19.8232,-245.8 15.8232,-245.8 "/>
<polyline fill="none" stroke="#40e0d0" stroke-width="2" points="15.8232,-225.8 19.8232,-225.8 19.8232,-221.8 15.8232,-221.8 "/>
<text text-anchor="middle" x="101.1764" y="-231.6" font-family="Times,serif" font-size="14.00" fill="#000000">inject (ConnectionActivity)</text>
</g>
<!-- 85a01e89&#45;bcd2&#45;432f&#45;87b2&#45;aac76d678c4b -->
<g id="node2" class="node">
<title>85a01e89&#45;bcd2&#45;432f&#45;87b2&#45;aac76d678c4b</title>
<polygon fill="#40e0d0" stroke="#40e0d0" points="562.9632,-554.8 223.4826,-554.8 223.4826,-518.8 562.9632,-518.8 562.9632,-554.8"/>
<text text-anchor="middle" x="393.2229" y="-532.6" font-family="Times,serif" font-size="14.00" fill="#000000">ConnectionMvvm.ViewModel&lt;ConnectionMvvm.View&gt;</text>
</g>
<!-- d8bd0187&#45;d81b&#45;462f&#45;93de&#45;857fd9911404&#45;&gt;85a01e89&#45;bcd2&#45;432f&#45;87b2&#45;aac76d678c4b -->
<g id="edge2" class="edge">
<title>d8bd0187&#45;d81b&#45;462f&#45;93de&#45;857fd9911404&#45;&gt;85a01e89&#45;bcd2&#45;432f&#45;87b2&#45;aac76d678c4b</title>
<path fill="none" stroke="#000000" d="M119.0056,-254.1758C169.0217,-305.7253 310.7529,-451.8017 368.3884,-511.2041"/>
<polygon fill="#000000" stroke="#000000" points="366.1516,-513.9249 375.6271,-518.6647 371.1755,-509.0504 366.1516,-513.9249"/>
</g>
<!-- 354d76aa&#45;06de&#45;4621&#45;b6ee&#45;74a30c49f5ba -->
<g id="node3" class="node">
<title>354d76aa&#45;06de&#45;4621&#45;b6ee&#45;74a30c49f5ba</title>
<polygon fill="#ffe4c4" stroke="#ffe4c4" points="1017.8514,-559.4019 911.506,-559.4019 911.506,-518.1981 1017.8514,-518.1981 1017.8514,-559.4019"/>
<text text-anchor="middle" x="964.6787" y="-543" font-family="Times,serif" font-size="14.00" fill="#000000">@PerActivity</text>
<text text-anchor="middle" x="964.6787" y="-526.2" font-family="Times,serif" font-size="14.00" fill="#000000">DrawerProvider</text>
</g>
<!-- d8bd0187&#45;d81b&#45;462f&#45;93de&#45;857fd9911404&#45;&gt;354d76aa&#45;06de&#45;4621&#45;b6ee&#45;74a30c49f5ba -->
<g id="edge6" class="edge">
<title>d8bd0187&#45;d81b&#45;462f&#45;93de&#45;857fd9911404&#45;&gt;354d76aa&#45;06de&#45;4621&#45;b6ee&#45;74a30c49f5ba</title>
<path fill="none" stroke="#000000" d="M125.6959,-253.9615C145.8027,-267.9225 175.5469,-286.5082 204.3528,-296.8 284.3277,-325.3735 308.2969,-325.8 393.2229,-325.8 393.2229,-325.8 393.2229,-325.8 855.0924,-325.8 935.9364,-325.8 957.1916,-448.627 962.7397,-507.7372"/>
<polygon fill="#000000" stroke="#000000" points="959.2762,-508.3181 963.6037,-517.9888 966.2514,-507.7302 959.2762,-508.3181"/>
</g>
<!-- e4d227f4&#45;336a&#45;4936&#45;88a6&#45;7add1866d22f -->
<g id="node8" class="node">
<title>e4d227f4&#45;336a&#45;4936&#45;88a6&#45;7add1866d22f</title>
<polygon fill="#7fffd4" stroke="#7fffd4" points="1228.1394,-256.4019 1108.3384,-256.4019 1108.3384,-215.1981 1228.1394,-215.1981 1228.1394,-256.4019"/>
<text text-anchor="middle" x="1168.2389" y="-240" font-family="Times,serif" font-size="14.00" fill="#000000">@Singleton</text>
<text text-anchor="middle" x="1168.2389" y="-223.2" font-family="Times,serif" font-size="14.00" fill="#000000">MessageProcessor</text>
</g>
<!-- d8bd0187&#45;d81b&#45;462f&#45;93de&#45;857fd9911404&#45;&gt;e4d227f4&#45;336a&#45;4936&#45;88a6&#45;7add1866d22f -->
<g id="edge3" class="edge">
<title>d8bd0187&#45;d81b&#45;462f&#45;93de&#45;857fd9911404&#45;&gt;e4d227f4&#45;336a&#45;4936&#45;88a6&#45;7add1866d22f</title>
<path fill="none" stroke="#000000" d="M186.4774,-235.8C244.7172,-235.8 323.6337,-235.8 393.2229,-235.8 393.2229,-235.8 393.2229,-235.8 964.6787,-235.8 1008.9611,-235.8 1058.6621,-235.8 1097.8684,-235.8"/>
<polygon fill="#000000" stroke="#000000" points="1098.1163,-239.3001 1108.1162,-235.8 1098.1162,-232.3001 1098.1163,-239.3001"/>
</g>
<!-- 83ba5cee&#45;1175&#45;470d&#45;b9be&#45;d7ab0c140454 -->
<g id="node9" class="node">
<title>83ba5cee&#45;1175&#45;470d&#45;b9be&#45;d7ab0c140454</title>
<polygon fill="#7fffd4" stroke="#7fffd4" points="1254.5295,-196.4019 1081.9483,-196.4019 1081.9483,-155.1981 1254.5295,-155.1981 1254.5295,-196.4019"/>
<text text-anchor="middle" x="1168.2389" y="-180" font-family="Times,serif" font-size="14.00" fill="#000000">@Singleton</text>
<text text-anchor="middle" x="1168.2389" y="-163.2" font-family="Times,serif" font-size="14.00" fill="#000000">RunThingsOnOtherThreads</text>
</g>
<!-- d8bd0187&#45;d81b&#45;462f&#45;93de&#45;857fd9911404&#45;&gt;83ba5cee&#45;1175&#45;470d&#45;b9be&#45;d7ab0c140454 -->
<g id="edge7" class="edge">
<title>d8bd0187&#45;d81b&#45;462f&#45;93de&#45;857fd9911404&#45;&gt;83ba5cee&#45;1175&#45;470d&#45;b9be&#45;d7ab0c140454</title>
<path fill="none" stroke="#000000" d="M169.3788,-217.763C228.224,-203.7915 315.7205,-186.8 393.2229,-186.8 393.2229,-186.8 393.2229,-186.8 964.6787,-186.8 999.4789,-186.8 1037.5769,-185.1772 1071.3053,-183.1782"/>
<polygon fill="#000000" stroke="#000000" points="1071.8563,-186.6511 1081.624,-182.5471 1071.4289,-179.6642 1071.8563,-186.6511"/>
</g>
<!-- 62aa999b&#45;db35&#45;4c6c&#45;a643&#45;e37ede4be43c -->
<g id="node10" class="node">
<title>62aa999b&#45;db35&#45;4c6c&#45;a643&#45;e37ede4be43c</title>
<polygon fill="#7fffd4" stroke="#7fffd4" points="1209.3017,-316.4019 1127.1761,-316.4019 1127.1761,-275.1981 1209.3017,-275.1981 1209.3017,-316.4019"/>
<text text-anchor="middle" x="1168.2389" y="-300" font-family="Times,serif" font-size="14.00" fill="#000000">@Singleton</text>
<text text-anchor="middle" x="1168.2389" y="-283.2" font-family="Times,serif" font-size="14.00" fill="#000000">Preferences</text>
</g>
<!-- d8bd0187&#45;d81b&#45;462f&#45;93de&#45;857fd9911404&#45;&gt;62aa999b&#45;db35&#45;4c6c&#45;a643&#45;e37ede4be43c -->
<g id="edge5" class="edge">
<title>d8bd0187&#45;d81b&#45;462f&#45;93de&#45;857fd9911404&#45;&gt;62aa999b&#45;db35&#45;4c6c&#45;a643&#45;e37ede4be43c</title>
<path fill="none" stroke="#000000" d="M172.6721,-253.837C231.4832,-267.0913 317.2176,-282.8 393.2229,-282.8 393.2229,-282.8 393.2229,-282.8 964.6787,-282.8 1016.5854,-282.8 1075.7862,-287.0619 1116.9114,-290.7052"/>
<polygon fill="#000000" stroke="#000000" points="1116.6872,-294.1991 1126.962,-291.6152 1117.3184,-287.2276 1116.6872,-294.1991"/>
</g>
<!-- b39bc067&#45;0109&#45;4745&#45;999a&#45;67e287420228 -->
<g id="node11" class="node">
<title>b39bc067&#45;0109&#45;4745&#45;999a&#45;67e287420228</title>
<polygon fill="#7fffd4" stroke="#7fffd4" points="1209.3017,-136.4019 1127.1761,-136.4019 1127.1761,-95.1981 1209.3017,-95.1981 1209.3017,-136.4019"/>
<text text-anchor="middle" x="1168.2389" y="-120" font-family="Times,serif" font-size="14.00" fill="#000000">@Singleton</text>
<text text-anchor="middle" x="1168.2389" y="-103.2" font-family="Times,serif" font-size="14.00" fill="#000000">EventBus</text>
</g>
<!-- d8bd0187&#45;d81b&#45;462f&#45;93de&#45;857fd9911404&#45;&gt;b39bc067&#45;0109&#45;4745&#45;999a&#45;67e287420228 -->
<g id="edge4" class="edge">
<title>d8bd0187&#45;d81b&#45;462f&#45;93de&#45;857fd9911404&#45;&gt;b39bc067&#45;0109&#45;4745&#45;999a&#45;67e287420228</title>
<path fill="none" stroke="#000000" d="M131.0635,-217.6228C182.6097,-188.0535 292.4164,-132.8 393.2229,-132.8 393.2229,-132.8 393.2229,-132.8 964.6787,-132.8 1016.6602,-132.8 1075.8501,-127.2268 1116.9524,-122.4624"/>
<polygon fill="#000000" stroke="#000000" points="1117.4782,-125.9247 1126.997,-121.2725 1116.6547,-118.9733 1117.4782,-125.9247"/>
</g>
<!-- 8b5053cb&#45;de63&#45;4362&#45;a50a&#45;1a604d8b10aa -->
<g id="node12" class="node">
<title>8b5053cb&#45;de63&#45;4362&#45;a50a&#45;1a604d8b10aa</title>
<polygon fill="#40e0d0" stroke="#40e0d0" points="1281.6867,-76.8 1054.7911,-76.8 1054.7911,-40.8 1281.6867,-40.8 1281.6867,-76.8"/>
<text text-anchor="middle" x="1168.2389" y="-54.6" font-family="Times,serif" font-size="14.00" fill="#000000">DispatchingAndroidInjector&lt;Object&gt;</text>
</g>
<!-- d8bd0187&#45;d81b&#45;462f&#45;93de&#45;857fd9911404&#45;&gt;8b5053cb&#45;de63&#45;4362&#45;a50a&#45;1a604d8b10aa -->
<g id="edge1" class="edge">
<title>d8bd0187&#45;d81b&#45;462f&#45;93de&#45;857fd9911404&#45;&gt;8b5053cb&#45;de63&#45;4362&#45;a50a&#45;1a604d8b10aa</title>
<path fill="none" stroke="#000000" d="M115.8343,-217.5209C135.8707,-193.7154 174.065,-152.3682 215.3528,-128.8 286.8819,-87.9693 310.8605,-76.8 393.2229,-76.8 393.2229,-76.8 393.2229,-76.8 964.6787,-76.8 990.5539,-76.8 1018.2075,-75.339 1044.5261,-73.2496"/>
<polygon fill="#000000" stroke="#000000" points="1044.8644,-76.7336 1054.5411,-72.4197 1044.2862,-69.7575 1044.8644,-76.7336"/>
</g>
<!-- b73f326c&#45;e218&#45;4969&#45;8996&#45;03dbd8f3467b -->
<g id="node4" class="node">
<title>b73f326c&#45;e218&#45;4969&#45;8996&#45;03dbd8f3467b</title>
<polygon fill="#ffe4c4" stroke="#ffe4c4" points="836.8006,-559.4019 688.969,-559.4019 688.969,-518.1981 836.8006,-518.1981 836.8006,-559.4019"/>
<text text-anchor="middle" x="762.8848" y="-543" font-family="Times,serif" font-size="14.00" fill="#000000">@PerActivity</text>
<text text-anchor="middle" x="762.8848" y="-526.2" font-family="Times,serif" font-size="14.00" fill="#000000">ConnectionViewModel</text>
</g>
<!-- 85a01e89&#45;bcd2&#45;432f&#45;87b2&#45;aac76d678c4b&#45;&gt;b73f326c&#45;e218&#45;4969&#45;8996&#45;03dbd8f3467b -->
<g id="edge8" class="edge">
<title>85a01e89&#45;bcd2&#45;432f&#45;87b2&#45;aac76d678c4b&#45;&gt;b73f326c&#45;e218&#45;4969&#45;8996&#45;03dbd8f3467b</title>
<path fill="none" stroke="#000000" stroke-dasharray="1,5" d="M563.177,-537.7195C603.2217,-537.9362 644.2039,-538.1579 678.5392,-538.3437"/>
<polygon fill="#000000" stroke="#000000" points="678.9543,-541.8459 688.9731,-538.4001 678.9923,-534.846 678.9543,-541.8459"/>
<text text-anchor="middle" x="626.1351" y="-542" font-family="Times,serif" font-size="14.00" fill="#000000">delegates</text>
</g>
<!-- 52caff15&#45;8392&#45;41d2&#45;8f60&#45;f9300cc8ffca -->
<g id="node6" class="node">
<title>52caff15&#45;8392&#45;41d2&#45;8f60&#45;f9300cc8ffca</title>
<polygon fill="#ffe4c4" stroke="#ffe4c4" points="1449.1971,-589.4019 1318.5511,-589.4019 1318.5511,-548.1981 1449.1971,-548.1981 1449.1971,-589.4019"/>
<text text-anchor="middle" x="1383.8741" y="-573" font-family="Times,serif" font-size="14.00" fill="#000000">@PerActivity</text>
<text text-anchor="middle" x="1383.8741" y="-556.2" font-family="Times,serif" font-size="14.00" fill="#000000">AppCompatActivity</text>
</g>
<!-- 354d76aa&#45;06de&#45;4621&#45;b6ee&#45;74a30c49f5ba&#45;&gt;52caff15&#45;8392&#45;41d2&#45;8f60&#45;f9300cc8ffca -->
<g id="edge9" class="edge">
<title>354d76aa&#45;06de&#45;4621&#45;b6ee&#45;74a30c49f5ba&#45;&gt;52caff15&#45;8392&#45;41d2&#45;8f60&#45;f9300cc8ffca</title>
<path fill="none" stroke="#000000" d="M1017.7701,-542.5995C1091.2631,-547.8591 1224.4003,-557.3871 1308.2632,-563.3889"/>
<polygon fill="#000000" stroke="#000000" points="1308.2674,-566.898 1318.4917,-564.1209 1308.7671,-559.9159 1308.2674,-566.898"/>
</g>
<!-- 4181a7c1&#45;7fa0&#45;4c86&#45;be09&#45;b4636be6aa90 -->
<g id="node13" class="node">
<title>4181a7c1&#45;7fa0&#45;4c86&#45;be09&#45;b4636be6aa90</title>
<polygon fill="#7fffd4" stroke="#7fffd4" points="1209.3017,-452.4019 1127.1761,-452.4019 1127.1761,-411.1981 1209.3017,-411.1981 1209.3017,-452.4019"/>
<text text-anchor="middle" x="1168.2389" y="-436" font-family="Times,serif" font-size="14.00" fill="#000000">@Singleton</text>
<text text-anchor="middle" x="1168.2389" y="-419.2" font-family="Times,serif" font-size="14.00" fill="#000000">Scheduler</text>
</g>
<!-- 354d76aa&#45;06de&#45;4621&#45;b6ee&#45;74a30c49f5ba&#45;&gt;4181a7c1&#45;7fa0&#45;4c86&#45;be09&#45;b4636be6aa90 -->
<g id="edge10" class="edge">
<title>354d76aa&#45;06de&#45;4621&#45;b6ee&#45;74a30c49f5ba&#45;&gt;4181a7c1&#45;7fa0&#45;4c86&#45;be09&#45;b4636be6aa90</title>
<path fill="none" stroke="#000000" d="M1003.9272,-518.1693C1036.9101,-500.8321 1084.1972,-475.9759 1119.5819,-457.3762"/>
<polygon fill="#000000" stroke="#000000" points="1121.541,-460.3005 1128.7642,-452.5496 1118.284,-454.1044 1121.541,-460.3005"/>
</g>
<!-- 6b0150eb&#45;fd15&#45;44d9&#45;beed&#45;79fb3aa3aabb -->
<g id="node5" class="node">
<title>6b0150eb&#45;fd15&#45;44d9&#45;beed&#45;79fb3aa3aabb</title>
<polygon fill="#ffe4c4" stroke="#ffe4c4" points="1011.6137,-619.4019 917.7437,-619.4019 917.7437,-578.1981 1011.6137,-578.1981 1011.6137,-619.4019"/>
<text text-anchor="middle" x="964.6787" y="-603" font-family="Times,serif" font-size="14.00" fill="#000000">@PerActivity</text>
<text text-anchor="middle" x="964.6787" y="-586.2" font-family="Times,serif" font-size="14.00" fill="#000000">Navigator</text>
</g>
<!-- b73f326c&#45;e218&#45;4969&#45;8996&#45;03dbd8f3467b&#45;&gt;6b0150eb&#45;fd15&#45;44d9&#45;beed&#45;79fb3aa3aabb -->
<g id="edge11" class="edge">
<title>b73f326c&#45;e218&#45;4969&#45;8996&#45;03dbd8f3467b&#45;&gt;6b0150eb&#45;fd15&#45;44d9&#45;beed&#45;79fb3aa3aabb</title>
<path fill="none" stroke="#000000" d="M832.3308,-559.4486C857.0704,-566.8045 884.613,-574.9938 908.1387,-581.9888"/>
<polygon fill="#000000" stroke="#000000" points="907.3725,-585.4123 917.9553,-584.9076 909.3675,-578.7026 907.3725,-585.4123"/>
</g>
<!-- b73f326c&#45;e218&#45;4969&#45;8996&#45;03dbd8f3467b&#45;&gt;62aa999b&#45;db35&#45;4c6c&#45;a643&#45;e37ede4be43c -->
<g id="edge12" class="edge">
<title>b73f326c&#45;e218&#45;4969&#45;8996&#45;03dbd8f3467b&#45;&gt;62aa999b&#45;db35&#45;4c6c&#45;a643&#45;e37ede4be43c</title>
<path fill="none" stroke="#000000" d="M783.0161,-517.9228C826.5569,-474.1856 934.637,-373.0846 1046.765,-325.8 1069.0694,-316.3942 1094.9725,-309.4926 1117.1151,-304.6972"/>
<polygon fill="#000000" stroke="#000000" points="1117.9205,-308.1047 1126.9977,-302.6408 1116.4944,-301.2515 1117.9205,-308.1047"/>
</g>
<!-- 1ea38bc5&#45;2f8a&#45;4289&#45;8190&#45;20de57cdff57 -->
<g id="node14" class="node">
<title>1ea38bc5&#45;2f8a&#45;4289&#45;8190&#45;20de57cdff57</title>
<polygon fill="#7fffd4" stroke="#7fffd4" points="1217.0711,-393.2014 1119.4067,-393.2014 1119.4067,-334.3986 1217.0711,-334.3986 1217.0711,-393.2014"/>
<text text-anchor="middle" x="1168.2389" y="-376.4" font-family="Times,serif" font-size="14.00" fill="#000000">@AppContext</text>
<text text-anchor="middle" x="1168.2389" y="-359.6" font-family="Times,serif" font-size="14.00" fill="#000000">@Singleton</text>
<text text-anchor="middle" x="1168.2389" y="-342.8" font-family="Times,serif" font-size="14.00" fill="#000000">Context</text>
</g>
<!-- b73f326c&#45;e218&#45;4969&#45;8996&#45;03dbd8f3467b&#45;&gt;1ea38bc5&#45;2f8a&#45;4289&#45;8190&#45;20de57cdff57 -->
<g id="edge13" class="edge">
<title>b73f326c&#45;e218&#45;4969&#45;8996&#45;03dbd8f3467b&#45;&gt;1ea38bc5&#45;2f8a&#45;4289&#45;8190&#45;20de57cdff57</title>
<path fill="none" stroke="#000000" d="M801.111,-518.1263C854.8898,-489.5594 956.4304,-437.5048 1046.765,-401.8 1066.9859,-393.8077 1089.6088,-386.3453 1109.7996,-380.1862"/>
<polygon fill="#000000" stroke="#000000" points="1110.9265,-383.5022 1119.495,-377.2707 1108.9106,-376.7987 1110.9265,-383.5022"/>
</g>
<!-- 6b0150eb&#45;fd15&#45;44d9&#45;beed&#45;79fb3aa3aabb&#45;&gt;52caff15&#45;8392&#45;41d2&#45;8f60&#45;f9300cc8ffca -->
<g id="edge14" class="edge">
<title>6b0150eb&#45;fd15&#45;44d9&#45;beed&#45;79fb3aa3aabb&#45;&gt;52caff15&#45;8392&#45;41d2&#45;8f60&#45;f9300cc8ffca</title>
<path fill="none" stroke="#000000" d="M1011.5455,-595.4459C1083.577,-590.291 1222.1922,-580.3709 1308.4664,-574.1966"/>
<polygon fill="#000000" stroke="#000000" points="1308.7361,-577.6863 1318.4607,-573.4814 1308.2363,-570.7042 1308.7361,-577.6863"/>
</g>
<!-- 7460642f&#45;c3f0&#45;4352&#45;af14&#45;d983631f49d5 -->
<g id="node7" class="node">
<title>7460642f&#45;c3f0&#45;4352&#45;af14&#45;d983631f49d5</title>
<polygon fill="#40e0d0" stroke="#40e0d0" points="1830.717,-586.8 1627.5245,-586.8 1575.2537,-550.8 1778.4462,-550.8 1830.717,-586.8"/>
<text text-anchor="middle" x="1702.9854" y="-564.6" font-family="Times,serif" font-size="14.00" fill="#000000">ConnectionActivity</text>
</g>
<!-- 52caff15&#45;8392&#45;41d2&#45;8f60&#45;f9300cc8ffca&#45;&gt;7460642f&#45;c3f0&#45;4352&#45;af14&#45;d983631f49d5 -->
<g id="edge15" class="edge">
<title>52caff15&#45;8392&#45;41d2&#45;8f60&#45;f9300cc8ffca&#45;&gt;7460642f&#45;c3f0&#45;4352&#45;af14&#45;d983631f49d5</title>
<path fill="none" stroke="#000000" stroke-dasharray="1,5" d="M1449.2211,-568.8C1490.0775,-568.8 1543.7738,-568.8 1591.2474,-568.8"/>
<polygon fill="#000000" stroke="#000000" points="1591.2764,-572.3001 1601.2764,-568.8 1591.2764,-565.3001 1591.2764,-572.3001"/>
<text text-anchor="middle" x="1512.0775" y="-573" font-family="Times,serif" font-size="14.00" fill="#000000">delegates</text>
</g>
</g>
</svg>
