<svg width="1339px" height="248px"
 viewBox="0.00 0.00 1339.41 247.60" xmlns="http://www.w3.org/2000/svg" xmlns:xlink="http://www.w3.org/1999/xlink">
<g id="graph0" class="graph" transform="scale(1.0 1.0) rotate(0) translate(14.4 233.2)">
<title>org.owntracks.android.injection.components.AppComponent → org.owntracks.android.injection.modules.AndroidBindingModule_BindWelcomeActivity.WelcomeActivitySubcomponent → org.owntracks.android.ui.welcome.WelcomeActivityModule_BindFinishFragment.FinishFragmentSubcomponent</title>
<polygon fill="#ffffff" stroke="transparent" points="-14.4,14.4 -14.4,-233.2 1325.0134,-233.2 1325.0134,14.4 -14.4,14.4"/>
<text text-anchor="middle" x="519.3241" y="-8.2" font-family="Times,serif" font-size="14.00" fill="#000000">AppComponent → AndroidBindingModule_BindWelcomeActivity.WelcomeActivitySubcomponent → WelcomeActivityModule_BindFinishFragment.FinishFragmentSubcomponent</text>
<g id="clust5" class="cluster">
<title>cluster_AppComponent → AndroidBindingModule_BindWelcomeActivity.WelcomeActivitySubcomponent → WelcomeActivityModule_BindFinishFragment.FinishFragmentSubcomponent</title>
<g id="a_clust5"><a xlink:href="org.owntracks.android.ui.welcome.WelcomeActivityModule_BindFinishFragment.FinishFragmentSubcomponent.svg" xlink:title="Inherited from WelcomeActivityModule_BindFinishFragment.FinishFragmentSubcomponent\n@PerFragment">
<polygon fill="none" stroke="#ff7f50" stroke-dasharray="5,2" points="192.5842,-116.8 192.5842,-210.8 734.6656,-210.8 734.6656,-116.8 192.5842,-116.8"/>
<text text-anchor="middle" x="463.6249" y="-194.2" font-family="Times,serif" font-size="14.00" fill="#000000">Inherited from WelcomeActivityModule_BindFinishFragment.FinishFragmentSubcomponent</text>
<text text-anchor="middle" x="463.6249" y="-177.4" font-family="Times,serif" font-size="14.00" fill="#000000">@PerFragment</text>
</a>
</g>
</g>
<g id="clust4" class="cluster">
<title>cluster_AppComponent → AndroidBindingModule_BindWelcomeActivity.WelcomeActivitySubcomponent</title>
<g id="a_clust4"><a xlink:href="org.owntracks.android.injection.modules.AndroidBindingModule_BindWelcomeActivity.WelcomeActivitySubcomponent.svg" xlink:title="Inherited from AndroidBindingModule_BindWelcomeActivity.WelcomeActivitySubcomponent\n@PerActivity">
<polygon fill="none" stroke="#ffe4c4" stroke-dasharray="5,2" points="754.6656,-32.8 754.6656,-185.8 1310.6134,-185.8 1310.6134,-32.8 754.6656,-32.8"/>
<text text-anchor="middle" x="1032.6395" y="-169.2" font-family="Times,serif" font-size="14.00" fill="#000000">Inherited from AndroidBindingModule_BindWelcomeActivity.WelcomeActivitySubcomponent</text>
<text text-anchor="middle" x="1032.6395" y="-152.4" font-family="Times,serif" font-size="14.00" fill="#000000">@PerActivity</text>
</a>
</g>
</g>
<g id="clust1" class="cluster">
<title>cluster_Entry Points</title>
<polygon fill="none" stroke="#000000" points="8,-70.8 8,-147.8 172.5842,-147.8 172.5842,-70.8 8,-70.8"/>
<text text-anchor="middle" x="50.8061" y="-131.2" font-family="Times,serif" font-size="14.00" fill="#000000">Entry Points</text>
</g>
<!-- 37576df6&#45;e6de&#45;4787&#45;8394&#45;605e3a67e6a1 -->
<g id="node1" class="node">
<title>37576df6&#45;e6de&#45;4787&#45;8394&#45;605e3a67e6a1</title>
<polygon fill="#40e0d0" stroke="#40e0d0" stroke-width="2" points="164.3769,-114.8 16.2073,-114.8 16.2073,-110.8 12.2073,-110.8 12.2073,-106.8 16.2073,-106.8 16.2073,-86.8 12.2073,-86.8 12.2073,-82.8 16.2073,-82.8 16.2073,-78.8 164.3769,-78.8 164.3769,-114.8"/>
<polyline fill="none" stroke="#40e0d0" stroke-width="2" points="16.2073,-110.8 20.2073,-110.8 20.2073,-106.8 16.2073,-106.8 "/>
<polyline fill="none" stroke="#40e0d0" stroke-width="2" points="16.2073,-86.8 20.2073,-86.8 20.2073,-82.8 16.2073,-82.8 "/>
<text text-anchor="middle" x="90.2921" y="-92.6" font-family="Times,serif" font-size="14.00" fill="#000000">inject (FinishFragment)</text>
</g>
<!-- 7cf6f08b&#45;06ec&#45;4844&#45;a508&#45;88d22a7f862d -->
<g id="node2" class="node">
<title>7cf6f08b&#45;06ec&#45;4844&#45;a508&#45;88d22a7f862d</title>
<polygon fill="#40e0d0" stroke="#40e0d0" points="521.7063,-160.8 404.5435,-160.8 404.5435,-124.8 521.7063,-124.8 521.7063,-160.8"/>
<text text-anchor="middle" x="463.1249" y="-138.6" font-family="Times,serif" font-size="14.00" fill="#000000">NoOpViewModel</text>
</g>
<!-- 37576df6&#45;e6de&#45;4787&#45;8394&#45;605e3a67e6a1&#45;&gt;7cf6f08b&#45;06ec&#45;4844&#45;a508&#45;88d22a7f862d -->
<g id="edge2" class="edge">
<title>37576df6&#45;e6de&#45;4787&#45;8394&#45;605e3a67e6a1&#45;&gt;7cf6f08b&#45;06ec&#45;4844&#45;a508&#45;88d22a7f862d</title>
<path fill="none" stroke="#000000" d="M164.5777,-107.1292C174.0013,-108.3918 183.5161,-109.6433 192.5842,-110.8 261.1216,-119.5427 339.5356,-128.7278 394.2359,-135.0034"/>
<polygon fill="#000000" stroke="#000000" points="394.1743,-138.5192 404.5076,-136.1797 394.9707,-131.5646 394.1743,-138.5192"/>
</g>
<!-- 1a1ea5e0&#45;6184&#45;4531&#45;bcff&#45;1b27286537ff -->
<g id="node3" class="node">
<title>1a1ea5e0&#45;6184&#45;4531&#45;bcff&#45;1b27286537ff</title>
<polygon fill="#40e0d0" stroke="#40e0d0" points="1145.5873,-76.8 918.6917,-76.8 918.6917,-40.8 1145.5873,-40.8 1145.5873,-76.8"/>
<text text-anchor="middle" x="1032.1395" y="-54.6" font-family="Times,serif" font-size="14.00" fill="#000000">DispatchingAndroidInjector&lt;Object&gt;</text>
</g>
<!-- 37576df6&#45;e6de&#45;4787&#45;8394&#45;605e3a67e6a1&#45;&gt;1a1ea5e0&#45;6184&#45;4531&#45;bcff&#45;1b27286537ff -->
<g id="edge1" class="edge">
<title>37576df6&#45;e6de&#45;4787&#45;8394&#45;605e3a67e6a1&#45;&gt;1a1ea5e0&#45;6184&#45;4531&#45;bcff&#45;1b27286537ff</title>
<path fill="none" stroke="#000000" d="M164.5905,-93.8023C325.8714,-87.2953 709.4728,-71.8184 908.1317,-63.8032"/>
<polygon fill="#000000" stroke="#000000" points="908.4733,-67.2924 918.324,-63.392 908.191,-60.2981 908.4733,-67.2924"/>
</g>
<!-- 64972dbf&#45;2262&#45;4693&#45;9512&#45;17e88abf500c -->
<g id="node4" class="node">
<title>64972dbf&#45;2262&#45;4693&#45;9512&#45;17e88abf500c</title>
<polygon fill="#ffe4c4" stroke="#ffe4c4" points="1079.0745,-136.4019 985.2045,-136.4019 985.2045,-95.1981 1079.0745,-95.1981 1079.0745,-136.4019"/>
<text text-anchor="middle" x="1032.1395" y="-120" font-family="Times,serif" font-size="14.00" fill="#000000">@PerActivity</text>
<text text-anchor="middle" x="1032.1395" y="-103.2" font-family="Times,serif" font-size="14.00" fill="#000000">Navigator</text>
</g>
<!-- 37576df6&#45;e6de&#45;4787&#45;8394&#45;605e3a67e6a1&#45;&gt;64972dbf&#45;2262&#45;4693&#45;9512&#45;17e88abf500c -->
<g id="edge3" class="edge">
<title>37576df6&#45;e6de&#45;4787&#45;8394&#45;605e3a67e6a1&#45;&gt;64972dbf&#45;2262&#45;4693&#45;9512&#45;17e88abf500c</title>
<path fill="none" stroke="#000000" d="M164.5905,-98.2988C346.7213,-101.973 812.3696,-111.3666 975.0251,-114.6478"/>
<polygon fill="#000000" stroke="#000000" points="975.2259,-118.1525 985.2945,-114.855 975.3671,-111.1539 975.2259,-118.1525"/>
</g>
<!-- 7cf6f08b&#45;06ec&#45;4844&#45;a508&#45;88d22a7f862d&#45;&gt;64972dbf&#45;2262&#45;4693&#45;9512&#45;17e88abf500c -->
<g id="edge4" class="edge">
<title>7cf6f08b&#45;06ec&#45;4844&#45;a508&#45;88d22a7f862d&#45;&gt;64972dbf&#45;2262&#45;4693&#45;9512&#45;17e88abf500c</title>
<path fill="none" stroke="#000000" d="M521.8763,-140.0122C631.6317,-134.8043 866.4883,-123.6602 975.0033,-118.5111"/>
<polygon fill="#000000" stroke="#000000" points="975.2791,-122.0021 985.1019,-118.032 974.9472,-115.01 975.2791,-122.0021"/>
</g>
</g>
</svg>
