<svg width="1638px" height="1034px"
 viewBox="0.00 0.00 1637.67 1033.60" xmlns="http://www.w3.org/2000/svg" xmlns:xlink="http://www.w3.org/1999/xlink">
<g id="graph0" class="graph" transform="scale(1.0 1.0) rotate(0) translate(14.4 1019.2)">
<title>org.owntracks.android.injection.components.AppComponent → org.owntracks.android.injection.modules.AndroidBindingModule_BindMapActivity.MapActivitySubcomponent</title>
<polygon fill="#ffffff" stroke="transparent" points="-14.4,14.4 -14.4,-1019.2 1623.2673,-1019.2 1623.2673,14.4 -14.4,14.4"/>
<text text-anchor="middle" x="261.5351" y="-8.2" font-family="Times,serif" font-size="14.00" fill="#000000">AppComponent → AndroidBindingModule_BindMapActivity.MapActivitySubcomponent</text>
<g id="clust2" class="cluster">
<title>cluster_Dependency Graph</title>
<polygon fill="none" stroke="#000000" points="8,-793.8 8,-996.8 1600.8673,-996.8 1600.8673,-793.8 8,-793.8"/>
<text text-anchor="middle" x="70.2234" y="-980.2" font-family="Times,serif" font-size="14.00" fill="#000000">Dependency Graph</text>
</g>
<g id="clust5" class="cluster">
<title>cluster_AppComponent</title>
<g id="a_clust5"><a xlink:href="org.owntracks.android.injection.components.AppComponent.svg" xlink:title="Inherited from AppComponent\n@Singleton">
<polygon fill="none" stroke="#7fffd4" stroke-dasharray="5,2" points="887.4396,-32.8 887.4396,-785.8 1130.3874,-785.8 1130.3874,-32.8 887.4396,-32.8"/>
<text text-anchor="middle" x="1008.9135" y="-769.2" font-family="Times,serif" font-size="14.00" fill="#000000">Inherited from AppComponent</text>
<text text-anchor="middle" x="1008.9135" y="-752.4" font-family="Times,serif" font-size="14.00" fill="#000000">@Singleton</text>
</a>
</g>
</g>
<g id="clust1" class="cluster">
<title>cluster_Entry Points</title>
<polygon fill="none" stroke="#000000" points="541.5762,-522.8 541.5762,-599.8 689.0412,-599.8 689.0412,-522.8 541.5762,-522.8"/>
<text text-anchor="middle" x="584.3823" y="-583.2" font-family="Times,serif" font-size="14.00" fill="#000000">Entry Points</text>
</g>
<!-- 06d9bbb5&#45;e6ea&#45;4316&#45;ae5a&#45;2e0288d5ec7c -->
<g id="node1" class="node">
<title>06d9bbb5&#45;e6ea&#45;4316&#45;ae5a&#45;2e0288d5ec7c</title>
<polygon fill="#40e0d0" stroke="#40e0d0" stroke-width="2" points="681.2745,-566.8 549.3429,-566.8 549.3429,-562.8 545.3429,-562.8 545.3429,-558.8 549.3429,-558.8 549.3429,-538.8 545.3429,-538.8 545.3429,-534.8 549.3429,-534.8 549.3429,-530.8 681.2745,-530.8 681.2745,-566.8"/>
<polyline fill="none" stroke="#40e0d0" stroke-width="2" points="549.3429,-562.8 553.3429,-562.8 553.3429,-558.8 549.3429,-558.8 "/>
<polyline fill="none" stroke="#40e0d0" stroke-width="2" points="549.3429,-538.8 553.3429,-538.8 553.3429,-534.8 549.3429,-534.8 "/>
<text text-anchor="middle" x="615.3087" y="-544.6" font-family="Times,serif" font-size="14.00" fill="#000000">inject (MapActivity)</text>
</g>
<!-- 8ffd2659&#45;9e02&#45;45bf&#45;b2f2&#45;d118e4760b7d -->
<g id="node2" class="node">
<title>8ffd2659&#45;9e02&#45;45bf&#45;b2f2&#45;d118e4760b7d</title>
<polygon fill="#40e0d0" stroke="#40e0d0" points="277.9469,-838.8 16.0177,-838.8 16.0177,-802.8 277.9469,-802.8 277.9469,-838.8"/>
<text text-anchor="middle" x="146.9823" y="-816.6" font-family="Times,serif" font-size="14.00" fill="#000000">MapMvvm.ViewModel&lt;MapMvvm.View&gt;</text>
</g>
<!-- 06d9bbb5&#45;e6ea&#45;4316&#45;ae5a&#45;2e0288d5ec7c&#45;&gt;8ffd2659&#45;9e02&#45;45bf&#45;b2f2&#45;d118e4760b7d -->
<g id="edge12" class="edge">
<title>06d9bbb5&#45;e6ea&#45;4316&#45;ae5a&#45;2e0288d5ec7c&#45;&gt;8ffd2659&#45;9e02&#45;45bf&#45;b2f2&#45;d118e4760b7d</title>
<path fill="none" stroke="#000000" d="M584.2288,-566.8509C501.8949,-614.6697 278.2154,-744.5809 186.7596,-797.6977"/>
<polygon fill="#000000" stroke="#000000" points="184.9627,-794.6937 178.0732,-802.7427 188.4784,-800.7469 184.9627,-794.6937"/>
</g>
<!-- 861d30aa&#45;2341&#45;4741&#45;8930&#45;cc8885e6e80f -->
<g id="node3" class="node">
<title>861d30aa&#45;2341&#45;4741&#45;8930&#45;cc8885e6e80f</title>
<polygon fill="#ffe4c4" stroke="#ffe4c4" points="841.4131,-903.4019 735.0677,-903.4019 735.0677,-862.1981 841.4131,-862.1981 841.4131,-903.4019"/>
<text text-anchor="middle" x="788.2404" y="-887" font-family="Times,serif" font-size="14.00" fill="#000000">@PerActivity</text>
<text text-anchor="middle" x="788.2404" y="-870.2" font-family="Times,serif" font-size="14.00" fill="#000000">DrawerProvider</text>
</g>
<!-- 06d9bbb5&#45;e6ea&#45;4316&#45;ae5a&#45;2e0288d5ec7c&#45;&gt;861d30aa&#45;2341&#45;4741&#45;8930&#45;cc8885e6e80f -->
<g id="edge13" class="edge">
<title>06d9bbb5&#45;e6ea&#45;4316&#45;ae5a&#45;2e0288d5ec7c&#45;&gt;861d30aa&#45;2341&#45;4741&#45;8930&#45;cc8885e6e80f</title>
<path fill="none" stroke="#000000" d="M622.6435,-567.0121C638.182,-605.9874 675.0375,-700.55 700.0412,-781.8 709.6161,-812.9139 696.8805,-828.0618 718.0412,-852.8 720.6325,-855.8294 723.5839,-858.561 726.7751,-861.0231"/>
<polygon fill="#000000" stroke="#000000" points="724.8727,-863.9613 735.1327,-866.6038 728.76,-858.1399 724.8727,-863.9613"/>
</g>
<!-- 0d0f7b8b&#45;3ea1&#45;48ad&#45;af3d&#45;ad3f672b1fe7 -->
<g id="node4" class="node">
<title>0d0f7b8b&#45;3ea1&#45;48ad&#45;af3d&#45;ad3f672b1fe7</title>
<polygon fill="#ffe4c4" stroke="#ffe4c4" points="835.1754,-963.4019 741.3054,-963.4019 741.3054,-922.1981 835.1754,-922.1981 835.1754,-963.4019"/>
<text text-anchor="middle" x="788.2404" y="-947" font-family="Times,serif" font-size="14.00" fill="#000000">@PerActivity</text>
<text text-anchor="middle" x="788.2404" y="-930.2" font-family="Times,serif" font-size="14.00" fill="#000000">Navigator</text>
</g>
<!-- 06d9bbb5&#45;e6ea&#45;4316&#45;ae5a&#45;2e0288d5ec7c&#45;&gt;0d0f7b8b&#45;3ea1&#45;48ad&#45;af3d&#45;ad3f672b1fe7 -->
<g id="edge8" class="edge">
<title>06d9bbb5&#45;e6ea&#45;4316&#45;ae5a&#45;2e0288d5ec7c&#45;&gt;0d0f7b8b&#45;3ea1&#45;48ad&#45;af3d&#45;ad3f672b1fe7</title>
<path fill="none" stroke="#000000" d="M621.265,-566.8223C634.3612,-606.744 666.3017,-705.75 689.0412,-789.8 696.3753,-816.9082 699.9662,-891.3073 718.0412,-912.8 722.1278,-917.6593 727.1433,-921.7506 732.5968,-925.191"/>
<polygon fill="#000000" stroke="#000000" points="731.01,-928.3128 741.4567,-930.0785 734.3912,-922.1836 731.01,-928.3128"/>
</g>
<!-- 14867cac&#45;2f8a&#45;430a&#45;91a9&#45;0b9a31ae4dd6 -->
<g id="node5" class="node">
<title>14867cac&#45;2f8a&#45;430a&#45;91a9&#45;0b9a31ae4dd6</title>
<polygon fill="#ffe4c4" stroke="#ffe4c4" points="858.6394,-843.4019 717.8414,-843.4019 717.8414,-802.1981 858.6394,-802.1981 858.6394,-843.4019"/>
<text text-anchor="middle" x="788.2404" y="-827" font-family="Times,serif" font-size="14.00" fill="#000000">@PerActivity</text>
<text text-anchor="middle" x="788.2404" y="-810.2" font-family="Times,serif" font-size="14.00" fill="#000000">RequirementsChecker</text>
</g>
<!-- 06d9bbb5&#45;e6ea&#45;4316&#45;ae5a&#45;2e0288d5ec7c&#45;&gt;14867cac&#45;2f8a&#45;430a&#45;91a9&#45;0b9a31ae4dd6 -->
<g id="edge3" class="edge">
<title>06d9bbb5&#45;e6ea&#45;4316&#45;ae5a&#45;2e0288d5ec7c&#45;&gt;14867cac&#45;2f8a&#45;430a&#45;91a9&#45;0b9a31ae4dd6</title>
<path fill="none" stroke="#000000" d="M626.9238,-567.2034C656.3242,-613.7866 733.8891,-736.6836 769.6717,-793.379"/>
<polygon fill="#000000" stroke="#000000" points="766.745,-795.2995 775.0421,-801.888 772.6646,-791.5634 766.745,-795.2995"/>
</g>
<!-- 0be49a03&#45;0a88&#45;4355&#45;bf75&#45;3dac75a06758 -->
<g id="node9" class="node">
<title>0be49a03&#45;0a88&#45;4355&#45;bf75&#45;3dac75a06758</title>
<polygon fill="#7fffd4" stroke="#7fffd4" points="1085.5591,-382.4019 932.2679,-382.4019 932.2679,-341.1981 1085.5591,-341.1981 1085.5591,-382.4019"/>
<text text-anchor="middle" x="1008.9135" y="-366" font-family="Times,serif" font-size="14.00" fill="#000000">@Singleton</text>
<text text-anchor="middle" x="1008.9135" y="-349.2" font-family="Times,serif" font-size="14.00" fill="#000000">CountingIdlingResource</text>
</g>
<!-- 06d9bbb5&#45;e6ea&#45;4316&#45;ae5a&#45;2e0288d5ec7c&#45;&gt;0be49a03&#45;0a88&#45;4355&#45;bf75&#45;3dac75a06758 -->
<g id="edge2" class="edge">
<title>06d9bbb5&#45;e6ea&#45;4316&#45;ae5a&#45;2e0288d5ec7c&#45;&gt;0be49a03&#45;0a88&#45;4355&#45;bf75&#45;3dac75a06758</title>
<path fill="none" stroke="#000000" d="M629.6798,-530.7519C647.9388,-509.0343 681.501,-472.9801 718.0412,-452.8 782.1727,-417.3821 820.1055,-456.4079 877.4396,-410.8 884.9076,-404.8594 879.9258,-397.6825 887.4396,-391.8 897.7304,-383.7435 909.8935,-377.8168 922.4804,-373.4638"/>
<polygon fill="#000000" stroke="#000000" points="923.6665,-376.7601 932.1644,-370.4327 921.5754,-370.0797 923.6665,-376.7601"/>
</g>
<!-- 07ec4bfd&#45;43e0&#45;43a7&#45;9e4d&#45;4b545206bc38 -->
<g id="node10" class="node">
<title>07ec4bfd&#45;43e0&#45;43a7&#45;9e4d&#45;4b545206bc38</title>
<polygon fill="#7fffd4" stroke="#7fffd4" points="1095.2041,-322.4019 922.6229,-322.4019 922.6229,-281.1981 1095.2041,-281.1981 1095.2041,-322.4019"/>
<text text-anchor="middle" x="1008.9135" y="-306" font-family="Times,serif" font-size="14.00" fill="#000000">@Singleton</text>
<text text-anchor="middle" x="1008.9135" y="-289.2" font-family="Times,serif" font-size="14.00" fill="#000000">RunThingsOnOtherThreads</text>
</g>
<!-- 06d9bbb5&#45;e6ea&#45;4316&#45;ae5a&#45;2e0288d5ec7c&#45;&gt;07ec4bfd&#45;43e0&#45;43a7&#45;9e4d&#45;4b545206bc38 -->
<g id="edge1" class="edge">
<title>06d9bbb5&#45;e6ea&#45;4316&#45;ae5a&#45;2e0288d5ec7c&#45;&gt;07ec4bfd&#45;43e0&#45;43a7&#45;9e4d&#45;4b545206bc38</title>
<path fill="none" stroke="#000000" d="M624.69,-530.7384C640.2547,-502.5595 674.1039,-448.3134 718.0412,-418.8 779.2492,-377.6856 826.4001,-426.0145 877.4396,-372.8 890.4228,-359.2635 874.196,-345.0819 887.4396,-331.8 894.8205,-324.3977 903.7187,-318.7183 913.303,-314.3756"/>
<polygon fill="#000000" stroke="#000000" points="914.7017,-317.5856 922.6752,-310.6089 912.0913,-311.0905 914.7017,-317.5856"/>
</g>
<!-- 01617d3a&#45;6879&#45;4e9a&#45;bd95&#45;e14a52582d2e -->
<g id="node11" class="node">
<title>01617d3a&#45;6879&#45;4e9a&#45;bd95&#45;e14a52582d2e</title>
<polygon fill="#7fffd4" stroke="#7fffd4" points="1068.0341,-262.4019 949.7929,-262.4019 949.7929,-221.1981 1068.0341,-221.1981 1068.0341,-262.4019"/>
<text text-anchor="middle" x="1008.9135" y="-246" font-family="Times,serif" font-size="14.00" fill="#000000">@Singleton</text>
<text text-anchor="middle" x="1008.9135" y="-229.2" font-family="Times,serif" font-size="14.00" fill="#000000">GeocoderProvider</text>
</g>
<!-- 06d9bbb5&#45;e6ea&#45;4316&#45;ae5a&#45;2e0288d5ec7c&#45;&gt;01617d3a&#45;6879&#45;4e9a&#45;bd95&#45;e14a52582d2e -->
<g id="edge6" class="edge">
<title>06d9bbb5&#45;e6ea&#45;4316&#45;ae5a&#45;2e0288d5ec7c&#45;&gt;01617d3a&#45;6879&#45;4e9a&#45;bd95&#45;e14a52582d2e</title>
<path fill="none" stroke="#000000" d="M621.6346,-530.6944C634.4177,-496.7543 666.5688,-423.4251 718.0412,-383.8 776.7698,-338.5888 828.8489,-390.7647 877.4396,-334.8 896.0265,-313.3925 868.2595,-292.6777 887.4396,-271.8 900.893,-257.1559 920.2577,-249.1489 939.5858,-244.9047"/>
<polygon fill="#000000" stroke="#000000" points="940.4762,-248.2988 949.6583,-243.0131 939.1841,-241.4191 940.4762,-248.2988"/>
</g>
<!-- 4d8b3da7&#45;d3c8&#45;4487&#45;83ca&#45;c652f1447bc5 -->
<g id="node12" class="node">
<title>4d8b3da7&#45;d3c8&#45;4487&#45;83ca&#45;c652f1447bc5</title>
<polygon fill="#7fffd4" stroke="#7fffd4" points="1049.9763,-676.4019 967.8507,-676.4019 967.8507,-635.1981 1049.9763,-635.1981 1049.9763,-676.4019"/>
<text text-anchor="middle" x="1008.9135" y="-660" font-family="Times,serif" font-size="14.00" fill="#000000">@Singleton</text>
<text text-anchor="middle" x="1008.9135" y="-643.2" font-family="Times,serif" font-size="14.00" fill="#000000">Preferences</text>
</g>
<!-- 06d9bbb5&#45;e6ea&#45;4316&#45;ae5a&#45;2e0288d5ec7c&#45;&gt;4d8b3da7&#45;d3c8&#45;4487&#45;83ca&#45;c652f1447bc5 -->
<g id="edge9" class="edge">
<title>06d9bbb5&#45;e6ea&#45;4316&#45;ae5a&#45;2e0288d5ec7c&#45;&gt;4d8b3da7&#45;d3c8&#45;4487&#45;83ca&#45;c652f1447bc5</title>
<path fill="none" stroke="#000000" d="M652.7045,-566.8653C671.9014,-575.6095 695.8607,-585.72 718.0412,-592.8 800.2307,-619.0349 898.9486,-637.8483 957.6686,-647.7606"/>
<polygon fill="#000000" stroke="#000000" points="957.3612,-651.2575 967.8006,-649.4494 958.5122,-644.3528 957.3612,-651.2575"/>
</g>
<!-- 11d7049d&#45;8a19&#45;46c7&#45;8f9f&#45;66501fed4bb0 -->
<g id="node13" class="node">
<title>11d7049d&#45;8a19&#45;46c7&#45;8f9f&#45;66501fed4bb0</title>
<polygon fill="#7fffd4" stroke="#7fffd4" points="1049.9763,-616.4019 967.8507,-616.4019 967.8507,-575.1981 1049.9763,-575.1981 1049.9763,-616.4019"/>
<text text-anchor="middle" x="1008.9135" y="-600" font-family="Times,serif" font-size="14.00" fill="#000000">@Singleton</text>
<text text-anchor="middle" x="1008.9135" y="-583.2" font-family="Times,serif" font-size="14.00" fill="#000000">EventBus</text>
</g>
<!-- 06d9bbb5&#45;e6ea&#45;4316&#45;ae5a&#45;2e0288d5ec7c&#45;&gt;11d7049d&#45;8a19&#45;46c7&#45;8f9f&#45;66501fed4bb0 -->
<g id="edge4" class="edge">
<title>06d9bbb5&#45;e6ea&#45;4316&#45;ae5a&#45;2e0288d5ec7c&#45;&gt;11d7049d&#45;8a19&#45;46c7&#45;8f9f&#45;66501fed4bb0</title>
<path fill="none" stroke="#000000" d="M681.1166,-548.5741C687.1752,-549.3158 693.2209,-550.0796 699.0412,-550.8 789.9904,-562.0565 896.09,-574.1606 957.5765,-583.6728"/>
<polygon fill="#000000" stroke="#000000" points="957.3625,-587.1827 967.7882,-585.2971 958.4621,-580.2696 957.3625,-587.1827"/>
</g>
<!-- 06d9bbb5&#45;e6ea&#45;4316&#45;ae5a&#45;2e0288d5ec7c&#45;&gt;11d7049d&#45;8a19&#45;46c7&#45;8f9f&#45;66501fed4bb0 -->
<g id="edge11" class="edge">
<title>06d9bbb5&#45;e6ea&#45;4316&#45;ae5a&#45;2e0288d5ec7c&#45;&gt;11d7049d&#45;8a19&#45;46c7&#45;8f9f&#45;66501fed4bb0</title>
<path fill="none" stroke="#000000" d="M681.1166,-566.5054C687.1752,-567.3158 693.2209,-568.0796 699.0412,-568.8 789.9904,-580.0565 896.09,-592.1606 957.5765,-596.4748"/>
<polygon fill="#000000" stroke="#000000" points="957.5808,-599.9825 967.7882,-597.1437 958.0384,-592.9975 957.5808,-599.9825"/>
</g>
<!-- 4767ae65&#45;bc6a&#45;43d3&#45;a1b9&#45;00222be17acb -->
<g id="node14" class="node">
<title>4767ae65&#45;bc6a&#45;43d3&#45;a1b9&#45;00222be17acb</title>
<polygon fill="#7fffd4" stroke="#7fffd4" points="1080.1501,-556.4019 937.6769,-556.4019 937.6769,-515.1981 1080.1501,-515.1981 1080.1501,-556.4019"/>
<text text-anchor="middle" x="1008.9135" y="-540" font-family="Times,serif" font-size="14.00" fill="#000000">@Singleton</text>
<text text-anchor="middle" x="1008.9135" y="-523.2" font-family="Times,serif" font-size="14.00" fill="#000000">ContactImageProvider</text>
</g>
<!-- 06d9bbb5&#45;e6ea&#45;4316&#45;ae5a&#45;2e0288d5ec7c&#45;&gt;4767ae65&#45;bc6a&#45;43d3&#45;a1b9&#45;00222be17acb -->
<g id="edge7" class="edge">
<title>06d9bbb5&#45;e6ea&#45;4316&#45;ae5a&#45;2e0288d5ec7c&#45;&gt;4767ae65&#45;bc6a&#45;43d3&#45;a1b9&#45;00222be17acb</title>
<path fill="none" stroke="#000000" d="M681.1893,-546.6241C748.9105,-544.3874 854.4839,-540.9005 927.4176,-538.4917"/>
<polygon fill="#000000" stroke="#000000" points="927.6059,-541.9874 937.4849,-538.1591 927.3748,-534.9913 927.6059,-541.9874"/>
</g>
<!-- dcc16881&#45;fb2b&#45;460a&#45;a93b&#45;3f625f34ab4e -->
<g id="node15" class="node">
<title>dcc16881&#45;fb2b&#45;460a&#45;a93b&#45;3f625f34ab4e</title>
<polygon fill="#40e0d0" stroke="#40e0d0" points="1122.3613,-496.8 895.4657,-496.8 895.4657,-460.8 1122.3613,-460.8 1122.3613,-496.8"/>
<text text-anchor="middle" x="1008.9135" y="-474.6" font-family="Times,serif" font-size="14.00" fill="#000000">DispatchingAndroidInjector&lt;Object&gt;</text>
</g>
<!-- 06d9bbb5&#45;e6ea&#45;4316&#45;ae5a&#45;2e0288d5ec7c&#45;&gt;dcc16881&#45;fb2b&#45;460a&#45;a93b&#45;3f625f34ab4e -->
<g id="edge10" class="edge">
<title>06d9bbb5&#45;e6ea&#45;4316&#45;ae5a&#45;2e0288d5ec7c&#45;&gt;dcc16881&#45;fb2b&#45;460a&#45;a93b&#45;3f625f34ab4e</title>
<path fill="none" stroke="#000000" d="M681.1893,-537.0836C740.1156,-526.6039 827.7008,-511.0275 897.5049,-498.6133"/>
<polygon fill="#000000" stroke="#000000" points="898.4367,-502.0026 907.6693,-496.8056 897.211,-495.1107 898.4367,-502.0026"/>
</g>
<!-- 761bb33c&#45;9178&#45;4116&#45;af5b&#45;c03367385fea -->
<g id="node16" class="node">
<title>761bb33c&#45;9178&#45;4116&#45;af5b&#45;c03367385fea</title>
<polygon fill="#7fffd4" stroke="#7fffd4" points="1056.7282,-442.4019 961.0988,-442.4019 961.0988,-401.1981 1056.7282,-401.1981 1056.7282,-442.4019"/>
<text text-anchor="middle" x="1008.9135" y="-426" font-family="Times,serif" font-size="14.00" fill="#000000">@Singleton</text>
<text text-anchor="middle" x="1008.9135" y="-409.2" font-family="Times,serif" font-size="14.00" fill="#000000">LocationRepo</text>
</g>
<!-- 06d9bbb5&#45;e6ea&#45;4316&#45;ae5a&#45;2e0288d5ec7c&#45;&gt;761bb33c&#45;9178&#45;4116&#45;af5b&#45;c03367385fea -->
<g id="edge5" class="edge">
<title>06d9bbb5&#45;e6ea&#45;4316&#45;ae5a&#45;2e0288d5ec7c&#45;&gt;761bb33c&#45;9178&#45;4116&#45;af5b&#45;c03367385fea</title>
<path fill="none" stroke="#000000" d="M650.384,-530.7542C669.9718,-521.1002 695.005,-509.4533 718.0412,-500.8 796.9947,-471.1418 891.8291,-447.5142 951.2513,-434.0797"/>
<polygon fill="#000000" stroke="#000000" points="952.2058,-437.4527 961.1987,-431.8512 950.6755,-430.622 952.2058,-437.4527"/>
</g>
<!-- e86951ff&#45;f7d2&#45;4906&#45;afc0&#45;eaecf7c56527 -->
<g id="node6" class="node">
<title>e86951ff&#45;f7d2&#45;4906&#45;afc0&#45;eaecf7c56527</title>
<polygon fill="#ffe4c4" stroke="#ffe4c4" points="512.3409,-843.4019 404.2841,-843.4019 404.2841,-802.1981 512.3409,-802.1981 512.3409,-843.4019"/>
<text text-anchor="middle" x="458.3125" y="-827" font-family="Times,serif" font-size="14.00" fill="#000000">@PerActivity</text>
<text text-anchor="middle" x="458.3125" y="-810.2" font-family="Times,serif" font-size="14.00" fill="#000000">MapViewModel</text>
</g>
<!-- 8ffd2659&#45;9e02&#45;45bf&#45;b2f2&#45;d118e4760b7d&#45;&gt;e86951ff&#45;f7d2&#45;4906&#45;afc0&#45;eaecf7c56527 -->
<g id="edge14" class="edge">
<title>8ffd2659&#45;9e02&#45;45bf&#45;b2f2&#45;d118e4760b7d&#45;&gt;e86951ff&#45;f7d2&#45;4906&#45;afc0&#45;eaecf7c56527</title>
<path fill="none" stroke="#000000" stroke-dasharray="1,5" d="M278.112,-821.6424C318.1719,-821.8997 360.4555,-822.1714 393.9886,-822.3868"/>
<polygon fill="#000000" stroke="#000000" points="394.0801,-825.8873 404.1024,-822.4518 394.1251,-818.8875 394.0801,-825.8873"/>
<text text-anchor="middle" x="341.0067" y="-826" font-family="Times,serif" font-size="14.00" fill="#000000">delegates</text>
</g>
<!-- 6d981dba&#45;e652&#45;437a&#45;8133&#45;ef226edefaa4 -->
<g id="node7" class="node">
<title>6d981dba&#45;e652&#45;437a&#45;8133&#45;ef226edefaa4</title>
<polygon fill="#ffe4c4" stroke="#ffe4c4" points="1289.8717,-903.4019 1159.2257,-903.4019 1159.2257,-862.1981 1289.8717,-862.1981 1289.8717,-903.4019"/>
<text text-anchor="middle" x="1224.5487" y="-887" font-family="Times,serif" font-size="14.00" fill="#000000">@PerActivity</text>
<text text-anchor="middle" x="1224.5487" y="-870.2" font-family="Times,serif" font-size="14.00" fill="#000000">AppCompatActivity</text>
</g>
<!-- 861d30aa&#45;2341&#45;4741&#45;8930&#45;cc8885e6e80f&#45;&gt;6d981dba&#45;e652&#45;437a&#45;8133&#45;ef226edefaa4 -->
<g id="edge16" class="edge">
<title>861d30aa&#45;2341&#45;4741&#45;8930&#45;cc8885e6e80f&#45;&gt;6d981dba&#45;e652&#45;437a&#45;8133&#45;ef226edefaa4</title>
<path fill="none" stroke="#000000" d="M841.7404,-882.8C918.7882,-882.8 1061.347,-882.8 1149.0739,-882.8"/>
<polygon fill="#000000" stroke="#000000" points="1149.229,-886.3001 1159.2289,-882.8 1149.2289,-879.3001 1149.229,-886.3001"/>
</g>
<!-- f94a3e95&#45;c39d&#45;4aff&#45;bc0e&#45;3d57274f668f -->
<g id="node17" class="node">
<title>f94a3e95&#45;c39d&#45;4aff&#45;bc0e&#45;3d57274f668f</title>
<polygon fill="#7fffd4" stroke="#7fffd4" points="1049.9763,-736.4019 967.8507,-736.4019 967.8507,-695.1981 1049.9763,-695.1981 1049.9763,-736.4019"/>
<text text-anchor="middle" x="1008.9135" y="-720" font-family="Times,serif" font-size="14.00" fill="#000000">@Singleton</text>
<text text-anchor="middle" x="1008.9135" y="-703.2" font-family="Times,serif" font-size="14.00" fill="#000000">Scheduler</text>
</g>
<!-- 861d30aa&#45;2341&#45;4741&#45;8930&#45;cc8885e6e80f&#45;&gt;f94a3e95&#45;c39d&#45;4aff&#45;bc0e&#45;3d57274f668f -->
<g id="edge15" class="edge">
<title>861d30aa&#45;2341&#45;4741&#45;8930&#45;cc8885e6e80f&#45;&gt;f94a3e95&#45;c39d&#45;4aff&#45;bc0e&#45;3d57274f668f</title>
<path fill="none" stroke="#000000" d="M841.5163,-865.1656C847.6702,-861.6969 853.4997,-857.6057 858.4396,-852.8 880.5335,-831.3062 866.9409,-812.8201 887.4396,-789.8 907.0254,-767.8051 934.7267,-750.2431 958.731,-737.7573"/>
<polygon fill="#000000" stroke="#000000" points="960.3721,-740.8497 967.7252,-733.2219 957.2203,-734.5993 960.3721,-740.8497"/>
</g>
<!-- 0d0f7b8b&#45;3ea1&#45;48ad&#45;af3d&#45;ad3f672b1fe7&#45;&gt;6d981dba&#45;e652&#45;437a&#45;8133&#45;ef226edefaa4 -->
<g id="edge18" class="edge">
<title>0d0f7b8b&#45;3ea1&#45;48ad&#45;af3d&#45;ad3f672b1fe7&#45;&gt;6d981dba&#45;e652&#45;437a&#45;8133&#45;ef226edefaa4</title>
<path fill="none" stroke="#000000" d="M835.3476,-936.3219C910.6693,-925.9639 1058.8952,-905.5802 1149.1063,-893.1746"/>
<polygon fill="#000000" stroke="#000000" points="1149.8405,-896.6067 1159.2704,-891.7769 1148.8868,-889.672 1149.8405,-896.6067"/>
</g>
<!-- 14867cac&#45;2f8a&#45;430a&#45;91a9&#45;0b9a31ae4dd6&#45;&gt;6d981dba&#45;e652&#45;437a&#45;8133&#45;ef226edefaa4 -->
<g id="edge20" class="edge">
<title>14867cac&#45;2f8a&#45;430a&#45;91a9&#45;0b9a31ae4dd6&#45;&gt;6d981dba&#45;e652&#45;437a&#45;8133&#45;ef226edefaa4</title>
<path fill="none" stroke="#000000" d="M858.8258,-832.5067C938.3892,-843.4481 1067.2525,-861.169 1148.8557,-872.3909"/>
<polygon fill="#000000" stroke="#000000" points="1148.6757,-875.899 1159.0593,-873.7941 1149.6294,-868.9643 1148.6757,-875.899"/>
</g>
<!-- 14867cac&#45;2f8a&#45;430a&#45;91a9&#45;0b9a31ae4dd6&#45;&gt;4d8b3da7&#45;d3c8&#45;4487&#45;83ca&#45;c652f1447bc5 -->
<g id="edge19" class="edge">
<title>14867cac&#45;2f8a&#45;430a&#45;91a9&#45;0b9a31ae4dd6&#45;&gt;4d8b3da7&#45;d3c8&#45;4487&#45;83ca&#45;c652f1447bc5</title>
<path fill="none" stroke="#000000" d="M797.446,-802.0631C812.0264,-771.6925 843.3664,-715.5082 887.4396,-685.8 908.1515,-671.8389 934.764,-664.367 957.7981,-660.3715"/>
<polygon fill="#000000" stroke="#000000" points="958.4179,-663.8172 967.7582,-658.8163 957.3379,-656.901 958.4179,-663.8172"/>
</g>
<!-- e86951ff&#45;f7d2&#45;4906&#45;afc0&#45;eaecf7c56527&#45;&gt;0d0f7b8b&#45;3ea1&#45;48ad&#45;af3d&#45;ad3f672b1fe7 -->
<g id="edge17" class="edge">
<title>e86951ff&#45;f7d2&#45;4906&#45;afc0&#45;eaecf7c56527&#45;&gt;0d0f7b8b&#45;3ea1&#45;48ad&#45;af3d&#45;ad3f672b1fe7</title>
<path fill="none" stroke="#000000" d="M512.4239,-842.4812C572.8986,-864.4768 670.3659,-899.9272 731.7793,-922.2642"/>
<polygon fill="#000000" stroke="#000000" points="730.721,-925.6035 741.315,-925.7325 733.1137,-919.0252 730.721,-925.6035"/>
</g>
<!-- 4848202c&#45;56ed&#45;4733&#45;ae21&#45;2c8db678c40b -->
<g id="node18" class="node">
<title>4848202c&#45;56ed&#45;4733&#45;ae21&#45;2c8db678c40b</title>
<polygon fill="#7fffd4" stroke="#7fffd4" points="1068.814,-82.4019 949.013,-82.4019 949.013,-41.1981 1068.814,-41.1981 1068.814,-82.4019"/>
<text text-anchor="middle" x="1008.9135" y="-66" font-family="Times,serif" font-size="14.00" fill="#000000">@Singleton</text>
<text text-anchor="middle" x="1008.9135" y="-49.2" font-family="Times,serif" font-size="14.00" fill="#000000">MessageProcessor</text>
</g>
<!-- e86951ff&#45;f7d2&#45;4906&#45;afc0&#45;eaecf7c56527&#45;&gt;4848202c&#45;56ed&#45;4733&#45;ae21&#45;2c8db678c40b -->
<g id="edge23" class="edge">
<title>e86951ff&#45;f7d2&#45;4906&#45;afc0&#45;eaecf7c56527&#45;&gt;4848202c&#45;56ed&#45;4733&#45;ae21&#45;2c8db678c40b</title>
<path fill="none" stroke="#000000" d="M458.5638,-801.9667C460.09,-707.7738 470.6419,-322.2992 541.5762,-229.8 637.2881,-104.9905 833.9041,-72.7493 939.0137,-64.5262"/>
<polygon fill="#000000" stroke="#000000" points="939.4841,-68.0012 949.2026,-63.782 938.9742,-61.0198 939.4841,-68.0012"/>
</g>
<!-- ef1cd451&#45;2998&#45;4a2a&#45;9889&#45;55082c6abd4f -->
<g id="node19" class="node">
<title>ef1cd451&#45;2998&#45;4a2a&#45;9889&#45;55082c6abd4f</title>
<polygon fill="#7fffd4" stroke="#7fffd4" points="1069.0988,-202.4019 948.7282,-202.4019 948.7282,-161.1981 1069.0988,-161.1981 1069.0988,-202.4019"/>
<text text-anchor="middle" x="1008.9135" y="-186" font-family="Times,serif" font-size="14.00" fill="#000000">@Singleton</text>
<text text-anchor="middle" x="1008.9135" y="-169.2" font-family="Times,serif" font-size="14.00" fill="#000000">LocationProcessor</text>
</g>
<!-- e86951ff&#45;f7d2&#45;4906&#45;afc0&#45;eaecf7c56527&#45;&gt;ef1cd451&#45;2998&#45;4a2a&#45;9889&#45;55082c6abd4f -->
<g id="edge21" class="edge">
<title>e86951ff&#45;f7d2&#45;4906&#45;afc0&#45;eaecf7c56527&#45;&gt;ef1cd451&#45;2998&#45;4a2a&#45;9889&#45;55082c6abd4f</title>
<path fill="none" stroke="#000000" d="M460.1875,-802.1591C465.6114,-750.8744 484.7354,-614.8773 541.5762,-518.8 597.1843,-424.8062 633.0022,-416.3234 718.0412,-347.8 784.2886,-294.4187 825.7587,-309.3824 877.4396,-241.8 885.9771,-230.6357 877.1138,-221.3346 887.4396,-211.8 901.4413,-198.8711 920.1128,-191.2803 938.609,-186.8874"/>
<polygon fill="#000000" stroke="#000000" points="939.462,-190.2849 948.5364,-184.8164 938.0323,-183.4324 939.462,-190.2849"/>
</g>
<!-- 1d2d86a6&#45;a17f&#45;42e6&#45;8ed8&#45;4e4cedf351f7 -->
<g id="node20" class="node">
<title>1d2d86a6&#45;a17f&#45;42e6&#45;8ed8&#45;4e4cedf351f7</title>
<polygon fill="#7fffd4" stroke="#7fffd4" points="1055.9574,-142.4019 961.8696,-142.4019 961.8696,-101.1981 1055.9574,-101.1981 1055.9574,-142.4019"/>
<text text-anchor="middle" x="1008.9135" y="-126" font-family="Times,serif" font-size="14.00" fill="#000000">@Singleton</text>
<text text-anchor="middle" x="1008.9135" y="-109.2" font-family="Times,serif" font-size="14.00" fill="#000000">ContactsRepo</text>
</g>
<!-- e86951ff&#45;f7d2&#45;4906&#45;afc0&#45;eaecf7c56527&#45;&gt;1d2d86a6&#45;a17f&#45;42e6&#45;8ed8&#45;4e4cedf351f7 -->
<g id="edge22" class="edge">
<title>e86951ff&#45;f7d2&#45;4906&#45;afc0&#45;eaecf7c56527&#45;&gt;1d2d86a6&#45;a17f&#45;42e6&#45;8ed8&#45;4e4cedf351f7</title>
<path fill="none" stroke="#000000" d="M459.8667,-802.0384C466.144,-722.6262 491.7122,-438.9266 541.5762,-365.8 639.7598,-221.8116 850.4279,-157.0311 951.9344,-133.2881"/>
<polygon fill="#000000" stroke="#000000" points="952.737,-136.695 961.7035,-131.0513 951.1746,-129.8716 952.737,-136.695"/>
</g>
<!-- 7783fcdc&#45;4d7d&#45;4d06&#45;99a8&#45;3a60d912ff05 -->
<g id="node8" class="node">
<title>7783fcdc&#45;4d7d&#45;4d06&#45;99a8&#45;3a60d912ff05</title>
<polygon fill="#40e0d0" stroke="#40e0d0" points="1592.9038,-900.8 1452.0039,-900.8 1415.7577,-864.8 1556.6576,-864.8 1592.9038,-900.8"/>
<text text-anchor="middle" x="1504.3307" y="-878.6" font-family="Times,serif" font-size="14.00" fill="#000000">MapActivity</text>
</g>
<!-- 6d981dba&#45;e652&#45;437a&#45;8133&#45;ef226edefaa4&#45;&gt;7783fcdc&#45;4d7d&#45;4d06&#45;99a8&#45;3a60d912ff05 -->
<g id="edge24" class="edge">
<title>6d981dba&#45;e652&#45;437a&#45;8133&#45;ef226edefaa4&#45;&gt;7783fcdc&#45;4d7d&#45;4d06&#45;99a8&#45;3a60d912ff05</title>
<path fill="none" stroke="#000000" stroke-dasharray="1,5" d="M1289.7921,-882.8C1329.7051,-882.8 1381.0837,-882.8 1423.5544,-882.8"/>
<polygon fill="#000000" stroke="#000000" points="1423.5866,-886.3001 1433.5866,-882.8 1423.5865,-879.3001 1423.5866,-886.3001"/>
<text text-anchor="middle" x="1352.7521" y="-887" font-family="Times,serif" font-size="14.00" fill="#000000">delegates</text>
</g>
</g>
</svg>
