<svg width="1317px" height="248px"
 viewBox="0.00 0.00 1316.62 247.60" xmlns="http://www.w3.org/2000/svg" xmlns:xlink="http://www.w3.org/1999/xlink">
<g id="graph0" class="graph" transform="scale(1.0 1.0) rotate(0) translate(14.4 233.2)">
<title>org.owntracks.android.injection.components.AppComponent → org.owntracks.android.injection.modules.AndroidBindingModule_BindWelcomeActivity.WelcomeActivitySubcomponent → org.owntracks.android.ui.welcome.WelcomeActivityModule_BindIntroFragment.IntroFragmentSubcomponent</title>
<polygon fill="#ffffff" stroke="transparent" points="-14.4,14.4 -14.4,-233.2 1302.2168,-233.2 1302.2168,14.4 -14.4,14.4"/>
<text text-anchor="middle" x="511.5275" y="-8.2" font-family="Times,serif" font-size="14.00" fill="#000000">AppComponent → AndroidBindingModule_BindWelcomeActivity.WelcomeActivitySubcomponent → WelcomeActivityModule_BindIntroFragment.IntroFragmentSubcomponent</text>
<g id="clust5" class="cluster">
<title>cluster_AppComponent → AndroidBindingModule_BindWelcomeActivity.WelcomeActivitySubcomponent → WelcomeActivityModule_BindIntroFragment.IntroFragmentSubcomponent</title>
<g id="a_clust5"><a xlink:href="org.owntracks.android.ui.welcome.WelcomeActivityModule_BindIntroFragment.IntroFragmentSubcomponent.svg" xlink:title="Inherited from WelcomeActivityModule_BindIntroFragment.IntroFragmentSubcomponent\n@PerFragment">
<polygon fill="none" stroke="#ff7f50" stroke-dasharray="5,2" points="184.7876,-116.8 184.7876,-210.8 711.869,-210.8 711.869,-116.8 184.7876,-116.8"/>
<text text-anchor="middle" x="448.3283" y="-194.2" font-family="Times,serif" font-size="14.00" fill="#000000">Inherited from WelcomeActivityModule_BindIntroFragment.IntroFragmentSubcomponent</text>
<text text-anchor="middle" x="448.3283" y="-177.4" font-family="Times,serif" font-size="14.00" fill="#000000">@PerFragment</text>
</a>
</g>
</g>
<g id="clust4" class="cluster">
<title>cluster_AppComponent → AndroidBindingModule_BindWelcomeActivity.WelcomeActivitySubcomponent</title>
<g id="a_clust4"><a xlink:href="org.owntracks.android.injection.modules.AndroidBindingModule_BindWelcomeActivity.WelcomeActivitySubcomponent.svg" xlink:title="Inherited from AndroidBindingModule_BindWelcomeActivity.WelcomeActivitySubcomponent\n@PerActivity">
<polygon fill="none" stroke="#ffe4c4" stroke-dasharray="5,2" points="731.869,-32.8 731.869,-185.8 1287.8168,-185.8 1287.8168,-32.8 731.869,-32.8"/>
<text text-anchor="middle" x="1009.8429" y="-169.2" font-family="Times,serif" font-size="14.00" fill="#000000">Inherited from AndroidBindingModule_BindWelcomeActivity.WelcomeActivitySubcomponent</text>
<text text-anchor="middle" x="1009.8429" y="-152.4" font-family="Times,serif" font-size="14.00" fill="#000000">@PerActivity</text>
</a>
</g>
</g>
<g id="clust1" class="cluster">
<title>cluster_Entry Points</title>
<polygon fill="none" stroke="#000000" points="8,-70.8 8,-147.8 164.7876,-147.8 164.7876,-70.8 8,-70.8"/>
<text text-anchor="middle" x="50.8061" y="-131.2" font-family="Times,serif" font-size="14.00" fill="#000000">Entry Points</text>
</g>
<!-- ad062baf&#45;f7a6&#45;40ac&#45;92a2&#45;b8880910c946 -->
<g id="node1" class="node">
<title>ad062baf&#45;f7a6&#45;40ac&#45;92a2&#45;b8880910c946</title>
<polygon fill="#40e0d0" stroke="#40e0d0" stroke-width="2" points="156.6816,-114.8 16.106,-114.8 16.106,-110.8 12.106,-110.8 12.106,-106.8 16.106,-106.8 16.106,-86.8 12.106,-86.8 12.106,-82.8 16.106,-82.8 16.106,-78.8 156.6816,-78.8 156.6816,-114.8"/>
<polyline fill="none" stroke="#40e0d0" stroke-width="2" points="16.106,-110.8 20.106,-110.8 20.106,-106.8 16.106,-106.8 "/>
<polyline fill="none" stroke="#40e0d0" stroke-width="2" points="16.106,-86.8 20.106,-86.8 20.106,-82.8 16.106,-82.8 "/>
<text text-anchor="middle" x="86.3938" y="-92.6" font-family="Times,serif" font-size="14.00" fill="#000000">inject (IntroFragment)</text>
</g>
<!-- d7ede2cd&#45;4b28&#45;471b&#45;a384&#45;9386a6b86ac0 -->
<g id="node2" class="node">
<title>d7ede2cd&#45;4b28&#45;471b&#45;a384&#45;9386a6b86ac0</title>
<polygon fill="#40e0d0" stroke="#40e0d0" points="506.9097,-160.8 389.7469,-160.8 389.7469,-124.8 506.9097,-124.8 506.9097,-160.8"/>
<text text-anchor="middle" x="448.3283" y="-138.6" font-family="Times,serif" font-size="14.00" fill="#000000">NoOpViewModel</text>
</g>
<!-- ad062baf&#45;f7a6&#45;40ac&#45;92a2&#45;b8880910c946&#45;&gt;d7ede2cd&#45;4b28&#45;471b&#45;a384&#45;9386a6b86ac0 -->
<g id="edge2" class="edge">
<title>ad062baf&#45;f7a6&#45;40ac&#45;92a2&#45;b8880910c946&#45;&gt;d7ede2cd&#45;4b28&#45;471b&#45;a384&#45;9386a6b86ac0</title>
<path fill="none" stroke="#000000" d="M156.7791,-106.9934C166.1916,-108.3043 175.7213,-109.6047 184.7876,-110.8 250.8961,-119.5158 326.4539,-128.6005 379.6668,-134.8536"/>
<polygon fill="#000000" stroke="#000000" points="379.3287,-138.3378 389.6684,-136.0264 380.1441,-131.3855 379.3287,-138.3378"/>
</g>
<!-- 15345b75&#45;9db8&#45;4dbb&#45;addb&#45;406ba32cf249 -->
<g id="node3" class="node">
<title>15345b75&#45;9db8&#45;4dbb&#45;addb&#45;406ba32cf249</title>
<polygon fill="#40e0d0" stroke="#40e0d0" points="1122.7907,-76.8 895.8951,-76.8 895.8951,-40.8 1122.7907,-40.8 1122.7907,-76.8"/>
<text text-anchor="middle" x="1009.3429" y="-54.6" font-family="Times,serif" font-size="14.00" fill="#000000">DispatchingAndroidInjector&lt;Object&gt;</text>
</g>
<!-- ad062baf&#45;f7a6&#45;40ac&#45;92a2&#45;b8880910c946&#45;&gt;15345b75&#45;9db8&#45;4dbb&#45;addb&#45;406ba32cf249 -->
<g id="edge1" class="edge">
<title>ad062baf&#45;f7a6&#45;40ac&#45;92a2&#45;b8880910c946&#45;&gt;15345b75&#45;9db8&#45;4dbb&#45;addb&#45;406ba32cf249</title>
<path fill="none" stroke="#000000" d="M156.9026,-93.897C312.9488,-87.4722 689.1909,-71.9814 885.4797,-63.8997"/>
<polygon fill="#000000" stroke="#000000" points="885.7055,-67.3935 895.553,-63.485 885.4174,-60.3994 885.7055,-67.3935"/>
</g>
<!-- 7895fd0a&#45;5d1f&#45;4b2d&#45;8b16&#45;d188ceec8336 -->
<g id="node4" class="node">
<title>7895fd0a&#45;5d1f&#45;4b2d&#45;8b16&#45;d188ceec8336</title>
<polygon fill="#ffe4c4" stroke="#ffe4c4" points="1056.2779,-136.4019 962.4079,-136.4019 962.4079,-95.1981 1056.2779,-95.1981 1056.2779,-136.4019"/>
<text text-anchor="middle" x="1009.3429" y="-120" font-family="Times,serif" font-size="14.00" fill="#000000">@PerActivity</text>
<text text-anchor="middle" x="1009.3429" y="-103.2" font-family="Times,serif" font-size="14.00" fill="#000000">Navigator</text>
</g>
<!-- ad062baf&#45;f7a6&#45;40ac&#45;92a2&#45;b8880910c946&#45;&gt;7895fd0a&#45;5d1f&#45;4b2d&#45;8b16&#45;d188ceec8336 -->
<g id="edge3" class="edge">
<title>ad062baf&#45;f7a6&#45;40ac&#45;92a2&#45;b8880910c946&#45;&gt;7895fd0a&#45;5d1f&#45;4b2d&#45;8b16&#45;d188ceec8336</title>
<path fill="none" stroke="#000000" d="M156.9026,-98.2515C333.3834,-101.8846 791.5069,-111.3156 952.4369,-114.6285"/>
<polygon fill="#000000" stroke="#000000" points="952.5312,-118.1311 962.6011,-114.8378 952.6753,-111.1326 952.5312,-118.1311"/>
</g>
<!-- d7ede2cd&#45;4b28&#45;471b&#45;a384&#45;9386a6b86ac0&#45;&gt;7895fd0a&#45;5d1f&#45;4b2d&#45;8b16&#45;d188ceec8336 -->
<g id="edge4" class="edge">
<title>d7ede2cd&#45;4b28&#45;471b&#45;a384&#45;9386a6b86ac0&#45;&gt;7895fd0a&#45;5d1f&#45;4b2d&#45;8b16&#45;d188ceec8336</title>
<path fill="none" stroke="#000000" d="M507.0425,-139.9743C615.2706,-134.7656 844.9343,-123.7125 952.0723,-118.5563"/>
<polygon fill="#000000" stroke="#000000" points="952.5385,-122.038 962.3587,-118.0612 952.202,-115.0461 952.5385,-122.038"/>
</g>
</g>
</svg>
