<svg width="630px" height="763px"
 viewBox="0.00 0.00 629.59 762.60" xmlns="http://www.w3.org/2000/svg" xmlns:xlink="http://www.w3.org/1999/xlink">
<g id="graph0" class="graph" transform="scale(1.0 1.0) rotate(0) translate(14.4 748.2)">
<title>org.owntracks.android.injection.components.AppComponent → org.owntracks.android.injection.modules.AndroidBindingModule_BindBackgroundService.BackgroundServiceSubcomponent</title>
<polygon fill="#ffffff" stroke="transparent" points="-14.4,14.4 -14.4,-748.2 615.1926,-748.2 615.1926,14.4 -14.4,14.4"/>
<text text-anchor="middle" x="300.3963" y="-8.2" font-family="Times,serif" font-size="14.00" fill="#000000">AppComponent → AndroidBindingModule_BindBackgroundService.BackgroundServiceSubcomponent</text>
<g id="clust1" class="cluster">
<title>cluster_Entry Points</title>
<polygon fill="none" stroke="#000000" points="103.088,-335.8 103.088,-412.8 289.4142,-412.8 289.4142,-335.8 103.088,-335.8"/>
<text text-anchor="middle" x="145.8941" y="-396.2" font-family="Times,serif" font-size="14.00" fill="#000000">Entry Points</text>
</g>
<g id="clust4" class="cluster">
<title>cluster_AppComponent</title>
<g id="a_clust4"><a xlink:href="org.owntracks.android.injection.components.AppComponent.svg" xlink:title="Inherited from AppComponent\n@Singleton">
<polygon fill="none" stroke="#7fffd4" stroke-dasharray="5,2" points="309.4142,-32.8 309.4142,-725.8 498.7046,-725.8 498.7046,-32.8 309.4142,-32.8"/>
<text text-anchor="middle" x="404.0594" y="-709.2" font-family="Times,serif" font-size="14.00" fill="#000000">Inherited from AppComponent</text>
<text text-anchor="middle" x="404.0594" y="-692.4" font-family="Times,serif" font-size="14.00" fill="#000000">@Singleton</text>
</a>
</g>
</g>
<!-- a6ebd954&#45;8291&#45;40f0&#45;8aac&#45;287371edf6ad -->
<g id="node1" class="node">
<title>a6ebd954&#45;8291&#45;40f0&#45;8aac&#45;287371edf6ad</title>
<polygon fill="#40e0d0" stroke="#40e0d0" stroke-width="2" points="281.5776,-379.8 110.9246,-379.8 110.9246,-375.8 106.9246,-375.8 106.9246,-371.8 110.9246,-371.8 110.9246,-351.8 106.9246,-351.8 106.9246,-347.8 110.9246,-347.8 110.9246,-343.8 281.5776,-343.8 281.5776,-379.8"/>
<polyline fill="none" stroke="#40e0d0" stroke-width="2" points="110.9246,-375.8 114.9246,-375.8 114.9246,-371.8 110.9246,-371.8 "/>
<polyline fill="none" stroke="#40e0d0" stroke-width="2" points="110.9246,-351.8 114.9246,-351.8 114.9246,-347.8 110.9246,-347.8 "/>
<text text-anchor="middle" x="196.2511" y="-357.6" font-family="Times,serif" font-size="14.00" fill="#000000">inject (BackgroundService)</text>
</g>
<!-- 10d0b97d&#45;a788&#45;4e3e&#45;8a8c&#45;c156b177b6c2 -->
<g id="node2" class="node">
<title>10d0b97d&#45;a788&#45;4e3e&#45;8a8c&#45;c156b177b6c2</title>
<polygon fill="#7fffd4" stroke="#7fffd4" points="444.6222,-676.4019 362.4966,-676.4019 362.4966,-635.1981 444.6222,-635.1981 444.6222,-676.4019"/>
<text text-anchor="middle" x="403.5594" y="-660" font-family="Times,serif" font-size="14.00" fill="#000000">@Singleton</text>
<text text-anchor="middle" x="403.5594" y="-643.2" font-family="Times,serif" font-size="14.00" fill="#000000">Scheduler</text>
</g>
<!-- a6ebd954&#45;8291&#45;40f0&#45;8aac&#45;287371edf6ad&#45;&gt;10d0b97d&#45;a788&#45;4e3e&#45;8a8c&#45;c156b177b6c2 -->
<g id="edge4" class="edge">
<title>a6ebd954&#45;8291&#45;40f0&#45;8aac&#45;287371edf6ad&#45;&gt;10d0b97d&#45;a788&#45;4e3e&#45;8a8c&#45;c156b177b6c2</title>
<path fill="none" stroke="#000000" d="M198.7563,-379.8303C206.299,-427.2553 233.174,-556.5817 309.4142,-625.8 321.2914,-636.5833 337.0541,-643.4917 352.2786,-647.9171"/>
<polygon fill="#000000" stroke="#000000" points="351.6006,-651.3571 362.1593,-650.4825 353.3598,-644.5817 351.6006,-651.3571"/>
</g>
<!-- 7581d8c9&#45;f652&#45;48a0&#45;a8e1&#45;8585d344fbca -->
<g id="node3" class="node">
<title>7581d8c9&#45;f652&#45;48a0&#45;a8e1&#45;8585d344fbca</title>
<polygon fill="#7fffd4" stroke="#7fffd4" points="463.4599,-616.4019 343.6589,-616.4019 343.6589,-575.1981 463.4599,-575.1981 463.4599,-616.4019"/>
<text text-anchor="middle" x="403.5594" y="-600" font-family="Times,serif" font-size="14.00" fill="#000000">@Singleton</text>
<text text-anchor="middle" x="403.5594" y="-583.2" font-family="Times,serif" font-size="14.00" fill="#000000">MessageProcessor</text>
</g>
<!-- a6ebd954&#45;8291&#45;40f0&#45;8aac&#45;287371edf6ad&#45;&gt;7581d8c9&#45;f652&#45;48a0&#45;a8e1&#45;8585d344fbca -->
<g id="edge1" class="edge">
<title>a6ebd954&#45;8291&#45;40f0&#45;8aac&#45;287371edf6ad&#45;&gt;7581d8c9&#45;f652&#45;48a0&#45;a8e1&#45;8585d344fbca</title>
<path fill="none" stroke="#000000" d="M201.3111,-380.0398C213.2715,-419.784 247.0705,-514.7207 309.4142,-565.8 316.8005,-571.8517 325.4258,-576.6901 334.402,-580.5566"/>
<polygon fill="#000000" stroke="#000000" points="333.2579,-583.8672 343.846,-584.2443 335.8041,-577.3466 333.2579,-583.8672"/>
</g>
<!-- 6088305e&#45;be08&#45;4f72&#45;b5a9&#45;31b33b79a0ae -->
<g id="node4" class="node">
<title>6088305e&#45;be08&#45;4f72&#45;b5a9&#45;31b33b79a0ae</title>
<polygon fill="#7fffd4" stroke="#7fffd4" points="489.85,-556.4019 317.2688,-556.4019 317.2688,-515.1981 489.85,-515.1981 489.85,-556.4019"/>
<text text-anchor="middle" x="403.5594" y="-540" font-family="Times,serif" font-size="14.00" fill="#000000">@Singleton</text>
<text text-anchor="middle" x="403.5594" y="-523.2" font-family="Times,serif" font-size="14.00" fill="#000000">RunThingsOnOtherThreads</text>
</g>
<!-- a6ebd954&#45;8291&#45;40f0&#45;8aac&#45;287371edf6ad&#45;&gt;6088305e&#45;be08&#45;4f72&#45;b5a9&#45;31b33b79a0ae -->
<g id="edge3" class="edge">
<title>a6ebd954&#45;8291&#45;40f0&#45;8aac&#45;287371edf6ad&#45;&gt;6088305e&#45;be08&#45;4f72&#45;b5a9&#45;31b33b79a0ae</title>
<path fill="none" stroke="#000000" d="M205.836,-380.1569C222.6989,-410.6915 260.5642,-471.9036 309.4142,-505.8 311.5723,-507.2975 313.8091,-508.7232 316.1074,-510.0803"/>
<polygon fill="#000000" stroke="#000000" points="314.7745,-513.3371 325.241,-514.9816 318.0845,-507.1691 314.7745,-513.3371"/>
</g>
<!-- 412dd831&#45;764c&#45;46d1&#45;a9f1&#45;689d8c4f6866 -->
<g id="node5" class="node">
<title>412dd831&#45;764c&#45;46d1&#45;a9f1&#45;689d8c4f6866</title>
<polygon fill="#40e0d0" stroke="#40e0d0" points="456.7658,-496.8 350.353,-496.8 350.353,-460.8 456.7658,-460.8 456.7658,-496.8"/>
<text text-anchor="middle" x="403.5594" y="-474.6" font-family="Times,serif" font-size="14.00" fill="#000000">WaypointsRepo</text>
</g>
<!-- a6ebd954&#45;8291&#45;40f0&#45;8aac&#45;287371edf6ad&#45;&gt;412dd831&#45;764c&#45;46d1&#45;a9f1&#45;689d8c4f6866 -->
<g id="edge9" class="edge">
<title>a6ebd954&#45;8291&#45;40f0&#45;8aac&#45;287371edf6ad&#45;&gt;412dd831&#45;764c&#45;46d1&#45;a9f1&#45;689d8c4f6866</title>
<path fill="none" stroke="#000000" d="M214.26,-379.9105C235.3441,-400.1546 272.1457,-432.6062 309.4142,-451.8 319.136,-456.8069 329.9149,-461.0021 340.6061,-464.4775"/>
<polygon fill="#000000" stroke="#000000" points="339.7805,-467.8851 350.3671,-467.4695 341.8319,-461.1924 339.7805,-467.8851"/>
</g>
<!-- d397ef67&#45;4a45&#45;4358&#45;a1fd&#45;b6556cb33ee3 -->
<g id="node6" class="node">
<title>d397ef67&#45;4a45&#45;4358&#45;a1fd&#45;b6556cb33ee3</title>
<polygon fill="#7fffd4" stroke="#7fffd4" points="462.68,-442.4019 344.4388,-442.4019 344.4388,-401.1981 462.68,-401.1981 462.68,-442.4019"/>
<text text-anchor="middle" x="403.5594" y="-426" font-family="Times,serif" font-size="14.00" fill="#000000">@Singleton</text>
<text text-anchor="middle" x="403.5594" y="-409.2" font-family="Times,serif" font-size="14.00" fill="#000000">GeocoderProvider</text>
</g>
<!-- a6ebd954&#45;8291&#45;40f0&#45;8aac&#45;287371edf6ad&#45;&gt;d397ef67&#45;4a45&#45;4358&#45;a1fd&#45;b6556cb33ee3 -->
<g id="edge7" class="edge">
<title>a6ebd954&#45;8291&#45;40f0&#45;8aac&#45;287371edf6ad&#45;&gt;d397ef67&#45;4a45&#45;4358&#45;a1fd&#45;b6556cb33ee3</title>
<path fill="none" stroke="#000000" d="M258.4504,-379.802C282.4563,-386.7499 310.014,-394.7257 334.6207,-401.8475"/>
<polygon fill="#000000" stroke="#000000" points="333.6697,-405.2158 344.2486,-404.634 335.6159,-398.4918 333.6697,-405.2158"/>
</g>
<!-- 9406d461&#45;4793&#45;4b38&#45;9b95&#45;c6e5424fd7a2 -->
<g id="node7" class="node">
<title>9406d461&#45;4793&#45;4b38&#45;9b95&#45;c6e5424fd7a2</title>
<polygon fill="#7fffd4" stroke="#7fffd4" points="444.6222,-382.4019 362.4966,-382.4019 362.4966,-341.1981 444.6222,-341.1981 444.6222,-382.4019"/>
<text text-anchor="middle" x="403.5594" y="-366" font-family="Times,serif" font-size="14.00" fill="#000000">@Singleton</text>
<text text-anchor="middle" x="403.5594" y="-349.2" font-family="Times,serif" font-size="14.00" fill="#000000">Preferences</text>
</g>
<!-- a6ebd954&#45;8291&#45;40f0&#45;8aac&#45;287371edf6ad&#45;&gt;9406d461&#45;4793&#45;4b38&#45;9b95&#45;c6e5424fd7a2 -->
<g id="edge8" class="edge">
<title>a6ebd954&#45;8291&#45;40f0&#45;8aac&#45;287371edf6ad&#45;&gt;9406d461&#45;4793&#45;4b38&#45;9b95&#45;c6e5424fd7a2</title>
<path fill="none" stroke="#000000" d="M281.4688,-361.8C305.4618,-361.8 330.8166,-361.8 352.1656,-361.8"/>
<polygon fill="#000000" stroke="#000000" points="352.3008,-365.3001 362.3008,-361.8 352.3007,-358.3001 352.3008,-365.3001"/>
</g>
<!-- c51ff77d&#45;26b0&#45;4bca&#45;b495&#45;0c49108a7a3e -->
<g id="node8" class="node">
<title>c51ff77d&#45;26b0&#45;4bca&#45;b495&#45;0c49108a7a3e</title>
<polygon fill="#7fffd4" stroke="#7fffd4" points="444.6222,-322.4019 362.4966,-322.4019 362.4966,-281.1981 444.6222,-281.1981 444.6222,-322.4019"/>
<text text-anchor="middle" x="403.5594" y="-306" font-family="Times,serif" font-size="14.00" fill="#000000">@Singleton</text>
<text text-anchor="middle" x="403.5594" y="-289.2" font-family="Times,serif" font-size="14.00" fill="#000000">EventBus</text>
</g>
<!-- a6ebd954&#45;8291&#45;40f0&#45;8aac&#45;287371edf6ad&#45;&gt;c51ff77d&#45;26b0&#45;4bca&#45;b495&#45;0c49108a7a3e -->
<g id="edge6" class="edge">
<title>a6ebd954&#45;8291&#45;40f0&#45;8aac&#45;287371edf6ad&#45;&gt;c51ff77d&#45;26b0&#45;4bca&#45;b495&#45;0c49108a7a3e</title>
<path fill="none" stroke="#000000" d="M258.4504,-343.798C288.5361,-335.0905 324.2003,-324.7684 352.6429,-316.5365"/>
<polygon fill="#000000" stroke="#000000" points="353.7485,-319.8602 362.3812,-313.718 351.8024,-313.1361 353.7485,-319.8602"/>
</g>
<!-- beafc588&#45;3bae&#45;42af&#45;99d1&#45;62b3b3d2fb18 -->
<g id="node9" class="node">
<title>beafc588&#45;3bae&#45;42af&#45;99d1&#45;62b3b3d2fb18</title>
<polygon fill="#7fffd4" stroke="#7fffd4" points="463.7447,-262.4019 343.3741,-262.4019 343.3741,-221.1981 463.7447,-221.1981 463.7447,-262.4019"/>
<text text-anchor="middle" x="403.5594" y="-246" font-family="Times,serif" font-size="14.00" fill="#000000">@Singleton</text>
<text text-anchor="middle" x="403.5594" y="-229.2" font-family="Times,serif" font-size="14.00" fill="#000000">LocationProcessor</text>
</g>
<!-- a6ebd954&#45;8291&#45;40f0&#45;8aac&#45;287371edf6ad&#45;&gt;beafc588&#45;3bae&#45;42af&#45;99d1&#45;62b3b3d2fb18 -->
<g id="edge2" class="edge">
<title>a6ebd954&#45;8291&#45;40f0&#45;8aac&#45;287371edf6ad&#45;&gt;beafc588&#45;3bae&#45;42af&#45;99d1&#45;62b3b3d2fb18</title>
<path fill="none" stroke="#000000" d="M214.7451,-343.5243C235.9834,-323.4359 272.6512,-291.4174 309.4142,-271.8 317.1115,-267.6926 325.4662,-264.0331 333.9133,-260.8057"/>
<polygon fill="#000000" stroke="#000000" points="335.2514,-264.0436 343.4596,-257.3446 332.8654,-257.4628 335.2514,-264.0436"/>
</g>
<!-- d7dacebb&#45;62bf&#45;4307&#45;9f5a&#45;68ae4016038a -->
<g id="node10" class="node">
<title>d7dacebb&#45;62bf&#45;4307&#45;9f5a&#45;68ae4016038a</title>
<polygon fill="#7fffd4" stroke="#7fffd4" points="451.3741,-202.4019 355.7447,-202.4019 355.7447,-161.1981 451.3741,-161.1981 451.3741,-202.4019"/>
<text text-anchor="middle" x="403.5594" y="-186" font-family="Times,serif" font-size="14.00" fill="#000000">@Singleton</text>
<text text-anchor="middle" x="403.5594" y="-169.2" font-family="Times,serif" font-size="14.00" fill="#000000">LocationRepo</text>
</g>
<!-- a6ebd954&#45;8291&#45;40f0&#45;8aac&#45;287371edf6ad&#45;&gt;d7dacebb&#45;62bf&#45;4307&#45;9f5a&#45;68ae4016038a -->
<g id="edge5" class="edge">
<title>a6ebd954&#45;8291&#45;40f0&#45;8aac&#45;287371edf6ad&#45;&gt;d7dacebb&#45;62bf&#45;4307&#45;9f5a&#45;68ae4016038a</title>
<path fill="none" stroke="#000000" d="M205.1105,-343.6795C221.4021,-312.2175 259.1093,-247.4463 309.4142,-211.8 320.2332,-204.1336 333.1018,-198.3618 345.796,-194.0393"/>
<polygon fill="#000000" stroke="#000000" points="346.943,-197.3477 355.4325,-191.0091 344.8431,-190.6701 346.943,-197.3477"/>
</g>
<!-- b68f5564&#45;703d&#45;45a1&#45;b640&#45;f9349d4b34c5 -->
<g id="node11" class="node">
<title>b68f5564&#45;703d&#45;45a1&#45;b640&#45;f9349d4b34c5</title>
<polygon fill="#7fffd4" stroke="#7fffd4" points="451.6394,-142.4019 355.4794,-142.4019 355.4794,-101.1981 451.6394,-101.1981 451.6394,-142.4019"/>
<text text-anchor="middle" x="403.5594" y="-126" font-family="Times,serif" font-size="14.00" fill="#000000">@Singleton</text>
<text text-anchor="middle" x="403.5594" y="-109.2" font-family="Times,serif" font-size="14.00" fill="#000000">ServiceBridge</text>
</g>
<!-- a6ebd954&#45;8291&#45;40f0&#45;8aac&#45;287371edf6ad&#45;&gt;b68f5564&#45;703d&#45;45a1&#45;b640&#45;f9349d4b34c5 -->
<g id="edge10" class="edge">
<title>a6ebd954&#45;8291&#45;40f0&#45;8aac&#45;287371edf6ad&#45;&gt;b68f5564&#45;703d&#45;45a1&#45;b640&#45;f9349d4b34c5</title>
<path fill="none" stroke="#000000" d="M200.9756,-343.6417C212.4545,-303.1107 245.6647,-204.6844 309.4142,-151.8 319.83,-143.1594 332.7668,-136.9953 345.6818,-132.6019"/>
<polygon fill="#000000" stroke="#000000" points="346.984,-135.8632 355.5115,-129.5757 344.9243,-129.1731 346.984,-135.8632"/>
</g>
<!-- 0eb96689&#45;f097&#45;4f14&#45;a875&#45;b3888e8c2dce -->
<g id="node12" class="node">
<title>0eb96689&#45;f097&#45;4f14&#45;a875&#45;b3888e8c2dce</title>
<polygon fill="#7fffd4" stroke="#7fffd4" points="450.6033,-82.4019 356.5155,-82.4019 356.5155,-41.1981 450.6033,-41.1981 450.6033,-82.4019"/>
<text text-anchor="middle" x="403.5594" y="-66" font-family="Times,serif" font-size="14.00" fill="#000000">@Singleton</text>
<text text-anchor="middle" x="403.5594" y="-49.2" font-family="Times,serif" font-size="14.00" fill="#000000">ContactsRepo</text>
</g>
<!-- a6ebd954&#45;8291&#45;40f0&#45;8aac&#45;287371edf6ad&#45;&gt;0eb96689&#45;f097&#45;4f14&#45;a875&#45;b3888e8c2dce -->
<g id="edge11" class="edge">
<title>a6ebd954&#45;8291&#45;40f0&#45;8aac&#45;287371edf6ad&#45;&gt;0eb96689&#45;f097&#45;4f14&#45;a875&#45;b3888e8c2dce</title>
<path fill="none" stroke="#000000" d="M198.5718,-343.7186C205.716,-295.5253 231.8057,-162.8343 309.4142,-91.8 319.8005,-82.2935 333.2044,-75.7991 346.6233,-71.3625"/>
<polygon fill="#000000" stroke="#000000" points="347.7589,-74.6765 356.3541,-68.482 345.7719,-67.9644 347.7589,-74.6765"/>
</g>
</g>
</svg>
