<svg width="1668px" height="614px"
 viewBox="0.00 0.00 1668.03 613.60" xmlns="http://www.w3.org/2000/svg" xmlns:xlink="http://www.w3.org/1999/xlink">
<g id="graph0" class="graph" transform="scale(1.0 1.0) rotate(0) translate(14.4 599.2)">
<title>org.owntracks.android.injection.components.AppComponent → org.owntracks.android.injection.modules.AndroidBindingModule_BindContactsActivity.ContactsActivitySubcomponent</title>
<polygon fill="#ffffff" stroke="transparent" points="-14.4,14.4 -14.4,-599.2 1653.635,-599.2 1653.635,14.4 -14.4,14.4"/>
<text text-anchor="middle" x="284.8675" y="-8.2" font-family="Times,serif" font-size="14.00" fill="#000000">AppComponent → AndroidBindingModule_BindContactsActivity.ContactsActivitySubcomponent</text>
<g id="clust1" class="cluster">
<title>cluster_Entry Points</title>
<polygon fill="none" stroke="#000000" points="8,-190.8 8,-267.8 178.7974,-267.8 178.7974,-190.8 8,-190.8"/>
<text text-anchor="middle" x="50.8061" y="-251.2" font-family="Times,serif" font-size="14.00" fill="#000000">Entry Points</text>
</g>
<g id="clust5" class="cluster">
<title>cluster_AppComponent</title>
<g id="a_clust5"><a xlink:href="org.owntracks.android.injection.components.AppComponent.svg" xlink:title="Inherited from AppComponent\n@Singleton">
<polygon fill="none" stroke="#7fffd4" stroke-dasharray="5,2" points="870.6128,-32.8 870.6128,-425.8 1113.5606,-425.8 1113.5606,-32.8 870.6128,-32.8"/>
<text text-anchor="middle" x="992.0867" y="-409.2" font-family="Times,serif" font-size="14.00" fill="#000000">Inherited from AppComponent</text>
<text text-anchor="middle" x="992.0867" y="-392.4" font-family="Times,serif" font-size="14.00" fill="#000000">@Singleton</text>
</a>
</g>
</g>
<g id="clust2" class="cluster">
<title>cluster_Dependency Graph</title>
<polygon fill="none" stroke="#000000" points="199.7974,-433.8 199.7974,-576.8 1631.235,-576.8 1631.235,-433.8 199.7974,-433.8"/>
<text text-anchor="middle" x="262.0208" y="-560.2" font-family="Times,serif" font-size="14.00" fill="#000000">Dependency Graph</text>
</g>
<!-- c6be66f7&#45;07af&#45;415d&#45;8085&#45;b58a7d9ac86c -->
<g id="node1" class="node">
<title>c6be66f7&#45;07af&#45;415d&#45;8085&#45;b58a7d9ac86c</title>
<polygon fill="#40e0d0" stroke="#40e0d0" stroke-width="2" points="170.6962,-234.8 16.1012,-234.8 16.1012,-230.8 12.1012,-230.8 12.1012,-226.8 16.1012,-226.8 16.1012,-206.8 12.1012,-206.8 12.1012,-202.8 16.1012,-202.8 16.1012,-198.8 170.6962,-198.8 170.6962,-234.8"/>
<polyline fill="none" stroke="#40e0d0" stroke-width="2" points="16.1012,-230.8 20.1012,-230.8 20.1012,-226.8 16.1012,-226.8 "/>
<polyline fill="none" stroke="#40e0d0" stroke-width="2" points="16.1012,-206.8 20.1012,-206.8 20.1012,-202.8 16.1012,-202.8 "/>
<text text-anchor="middle" x="93.3987" y="-212.6" font-family="Times,serif" font-size="14.00" fill="#000000">inject (ContactsActivity)</text>
</g>
<!-- 629b0be7&#45;2271&#45;459d&#45;b255&#45;4bd51212431f -->
<g id="node2" class="node">
<title>629b0be7&#45;2271&#45;459d&#45;b255&#45;4bd51212431f</title>
<polygon fill="#40e0d0" stroke="#40e0d0" points="402.3458,-478.8 207.9478,-478.8 207.9478,-442.8 402.3458,-442.8 402.3458,-478.8"/>
<text text-anchor="middle" x="305.1468" y="-456.6" font-family="Times,serif" font-size="14.00" fill="#000000">ContactsMvvm.ViewModel&lt;?&gt;</text>
</g>
<!-- c6be66f7&#45;07af&#45;415d&#45;8085&#45;b58a7d9ac86c&#45;&gt;629b0be7&#45;2271&#45;459d&#45;b255&#45;4bd51212431f -->
<g id="edge4" class="edge">
<title>c6be66f7&#45;07af&#45;415d&#45;8085&#45;b58a7d9ac86c&#45;&gt;629b0be7&#45;2271&#45;459d&#45;b255&#45;4bd51212431f</title>
<path fill="none" stroke="#000000" d="M107.2195,-234.8766C125.4267,-258.4927 158.6723,-300.9399 188.7974,-335.8 219.3652,-371.1724 256.4202,-410.3952 280.3728,-435.3042"/>
<polygon fill="#000000" stroke="#000000" points="277.9033,-437.7855 287.364,-442.5549 282.9424,-432.9268 277.9033,-437.7855"/>
</g>
<!-- 7d3f8353&#45;79d9&#45;4ab0&#45;9f01&#45;f8a9cbf06c1b -->
<g id="node3" class="node">
<title>7d3f8353&#45;79d9&#45;4ab0&#45;9f01&#45;f8a9cbf06c1b</title>
<polygon fill="#ffe4c4" stroke="#ffe4c4" points="841.6992,-483.4019 735.3538,-483.4019 735.3538,-442.1981 841.6992,-442.1981 841.6992,-483.4019"/>
<text text-anchor="middle" x="788.5265" y="-467" font-family="Times,serif" font-size="14.00" fill="#000000">@PerActivity</text>
<text text-anchor="middle" x="788.5265" y="-450.2" font-family="Times,serif" font-size="14.00" fill="#000000">DrawerProvider</text>
</g>
<!-- c6be66f7&#45;07af&#45;415d&#45;8085&#45;b58a7d9ac86c&#45;&gt;7d3f8353&#45;79d9&#45;4ab0&#45;9f01&#45;f8a9cbf06c1b -->
<g id="edge5" class="edge">
<title>c6be66f7&#45;07af&#45;415d&#45;8085&#45;b58a7d9ac86c&#45;&gt;7d3f8353&#45;79d9&#45;4ab0&#45;9f01&#45;f8a9cbf06c1b</title>
<path fill="none" stroke="#000000" d="M113.6672,-234.8501C149.5525,-264.8712 227.799,-321.8 305.1468,-321.8 305.1468,-321.8 305.1468,-321.8 697.9402,-321.8 749.9761,-321.8 773.5175,-390.6156 782.9812,-432.0964"/>
<polygon fill="#000000" stroke="#000000" points="779.5834,-432.9452 785.0926,-441.995 786.4294,-431.4848 779.5834,-432.9452"/>
</g>
<!-- b7c25b74&#45;4ff3&#45;4e23&#45;a7d6&#45;0ece23801468 -->
<g id="node8" class="node">
<title>b7c25b74&#45;4ff3&#45;4e23&#45;a7d6&#45;0ece23801468</title>
<polygon fill="#7fffd4" stroke="#7fffd4" points="1033.1495,-256.4019 951.0239,-256.4019 951.0239,-215.1981 1033.1495,-215.1981 1033.1495,-256.4019"/>
<text text-anchor="middle" x="992.0867" y="-240" font-family="Times,serif" font-size="14.00" fill="#000000">@Singleton</text>
<text text-anchor="middle" x="992.0867" y="-223.2" font-family="Times,serif" font-size="14.00" fill="#000000">Preferences</text>
</g>
<!-- c6be66f7&#45;07af&#45;415d&#45;8085&#45;b58a7d9ac86c&#45;&gt;b7c25b74&#45;4ff3&#45;4e23&#45;a7d6&#45;0ece23801468 -->
<g id="edge1" class="edge">
<title>c6be66f7&#45;07af&#45;415d&#45;8085&#45;b58a7d9ac86c&#45;&gt;b7c25b74&#45;4ff3&#45;4e23&#45;a7d6&#45;0ece23801468</title>
<path fill="none" stroke="#000000" d="M170.758,-224.3736C210.8246,-227.6723 260.5679,-230.8 305.1468,-230.8 305.1468,-230.8 305.1468,-230.8 788.5265,-230.8 840.3433,-230.8 899.5572,-232.4392 940.7099,-233.8405"/>
<polygon fill="#000000" stroke="#000000" points="940.6521,-237.3405 950.7678,-234.1904 940.8956,-230.3447 940.6521,-237.3405"/>
</g>
<!-- 25e8a21a&#45;443c&#45;4cb5&#45;a679&#45;edf0c2fb6b2f -->
<g id="node9" class="node">
<title>25e8a21a&#45;443c&#45;4cb5&#45;a679&#45;edf0c2fb6b2f</title>
<polygon fill="#7fffd4" stroke="#7fffd4" points="1051.2073,-196.4019 932.9661,-196.4019 932.9661,-155.1981 1051.2073,-155.1981 1051.2073,-196.4019"/>
<text text-anchor="middle" x="992.0867" y="-180" font-family="Times,serif" font-size="14.00" fill="#000000">@Singleton</text>
<text text-anchor="middle" x="992.0867" y="-163.2" font-family="Times,serif" font-size="14.00" fill="#000000">GeocoderProvider</text>
</g>
<!-- c6be66f7&#45;07af&#45;415d&#45;8085&#45;b58a7d9ac86c&#45;&gt;25e8a21a&#45;443c&#45;4cb5&#45;a679&#45;edf0c2fb6b2f -->
<g id="edge6" class="edge">
<title>c6be66f7&#45;07af&#45;415d&#45;8085&#45;b58a7d9ac86c&#45;&gt;25e8a21a&#45;443c&#45;4cb5&#45;a679&#45;edf0c2fb6b2f</title>
<path fill="none" stroke="#000000" d="M170.9647,-200.4831C210.8697,-193.4468 260.4064,-186.8 305.1468,-186.8 305.1468,-186.8 305.1468,-186.8 788.5265,-186.8 833.2934,-186.8 883.5176,-184.1145 922.8772,-181.3974"/>
<polygon fill="#000000" stroke="#000000" points="923.1698,-184.8855 932.898,-180.6888 922.6761,-177.9029 923.1698,-184.8855"/>
</g>
<!-- 8577c933&#45;90d1&#45;4c90&#45;87b5&#45;72f01ad9baee -->
<g id="node10" class="node">
<title>8577c933&#45;90d1&#45;4c90&#45;87b5&#45;72f01ad9baee</title>
<polygon fill="#7fffd4" stroke="#7fffd4" points="1033.1495,-136.4019 951.0239,-136.4019 951.0239,-95.1981 1033.1495,-95.1981 1033.1495,-136.4019"/>
<text text-anchor="middle" x="992.0867" y="-120" font-family="Times,serif" font-size="14.00" fill="#000000">@Singleton</text>
<text text-anchor="middle" x="992.0867" y="-103.2" font-family="Times,serif" font-size="14.00" fill="#000000">EventBus</text>
</g>
<!-- c6be66f7&#45;07af&#45;415d&#45;8085&#45;b58a7d9ac86c&#45;&gt;8577c933&#45;90d1&#45;4c90&#45;87b5&#45;72f01ad9baee -->
<g id="edge3" class="edge">
<title>c6be66f7&#45;07af&#45;415d&#45;8085&#45;b58a7d9ac86c&#45;&gt;8577c933&#45;90d1&#45;4c90&#45;87b5&#45;72f01ad9baee</title>
<path fill="none" stroke="#000000" d="M121.9418,-198.6758C161.4805,-175.3523 235.8935,-137.8 305.1468,-137.8 305.1468,-137.8 305.1468,-137.8 788.5265,-137.8 840.6293,-137.8 899.8017,-130.5876 940.8667,-124.422"/>
<polygon fill="#000000" stroke="#000000" points="941.5481,-127.8585 950.9015,-122.882 940.4863,-120.9395 941.5481,-127.8585"/>
</g>
<!-- ef9170fe&#45;7a08&#45;45a6&#45;84b1&#45;ec98d3885aee -->
<g id="node11" class="node">
<title>ef9170fe&#45;7a08&#45;45a6&#45;84b1&#45;ec98d3885aee</title>
<polygon fill="#40e0d0" stroke="#40e0d0" points="1105.5345,-76.8 878.6389,-76.8 878.6389,-40.8 1105.5345,-40.8 1105.5345,-76.8"/>
<text text-anchor="middle" x="992.0867" y="-54.6" font-family="Times,serif" font-size="14.00" fill="#000000">DispatchingAndroidInjector&lt;Object&gt;</text>
</g>
<!-- c6be66f7&#45;07af&#45;415d&#45;8085&#45;b58a7d9ac86c&#45;&gt;ef9170fe&#45;7a08&#45;45a6&#45;84b1&#45;ec98d3885aee -->
<g id="edge2" class="edge">
<title>c6be66f7&#45;07af&#45;415d&#45;8085&#45;b58a7d9ac86c&#45;&gt;ef9170fe&#45;7a08&#45;45a6&#45;84b1&#45;ec98d3885aee</title>
<path fill="none" stroke="#000000" d="M108.6023,-198.7227C140.8208,-162.5713 220.0234,-84.8 305.1468,-84.8 305.1468,-84.8 305.1468,-84.8 788.5265,-84.8 818.695,-84.8 851.1773,-81.9553 881.1419,-78.1479"/>
<polygon fill="#000000" stroke="#000000" points="881.7433,-81.599 891.2003,-76.8224 880.8288,-74.659 881.7433,-81.599"/>
</g>
<!-- 42dc2a18&#45;2f85&#45;49fc&#45;9bff&#45;7e0ea86b1737 -->
<g id="node4" class="node">
<title>42dc2a18&#45;2f85&#45;49fc&#45;9bff&#45;7e0ea86b1737</title>
<polygon fill="#ffe4c4" stroke="#ffe4c4" points="660.3702,-483.4019 528.6504,-483.4019 528.6504,-442.1981 660.3702,-442.1981 660.3702,-483.4019"/>
<text text-anchor="middle" x="594.5103" y="-467" font-family="Times,serif" font-size="14.00" fill="#000000">@PerActivity</text>
<text text-anchor="middle" x="594.5103" y="-450.2" font-family="Times,serif" font-size="14.00" fill="#000000">ContactsViewModel</text>
</g>
<!-- 629b0be7&#45;2271&#45;459d&#45;b255&#45;4bd51212431f&#45;&gt;42dc2a18&#45;2f85&#45;49fc&#45;9bff&#45;7e0ea86b1737 -->
<g id="edge7" class="edge">
<title>629b0be7&#45;2271&#45;459d&#45;b255&#45;4bd51212431f&#45;&gt;42dc2a18&#45;2f85&#45;49fc&#45;9bff&#45;7e0ea86b1737</title>
<path fill="none" stroke="#000000" stroke-dasharray="1,5" d="M402.7087,-461.4743C440.3403,-461.7344 482.7462,-462.0275 518.0973,-462.2719"/>
<polygon fill="#000000" stroke="#000000" points="518.3244,-465.7734 528.3484,-462.3427 518.3729,-458.7736 518.3244,-465.7734"/>
<text text-anchor="middle" x="465.5383" y="-466" font-family="Times,serif" font-size="14.00" fill="#000000">delegates</text>
</g>
<!-- 4a3100bf&#45;ca63&#45;4004&#45;8f22&#45;f8b447d17169 -->
<g id="node6" class="node">
<title>4a3100bf&#45;ca63&#45;4004&#45;8f22&#45;f8b447d17169</title>
<polygon fill="#ffe4c4" stroke="#ffe4c4" points="1273.0449,-513.4019 1142.3989,-513.4019 1142.3989,-472.1981 1273.0449,-472.1981 1273.0449,-513.4019"/>
<text text-anchor="middle" x="1207.7219" y="-497" font-family="Times,serif" font-size="14.00" fill="#000000">@PerActivity</text>
<text text-anchor="middle" x="1207.7219" y="-480.2" font-family="Times,serif" font-size="14.00" fill="#000000">AppCompatActivity</text>
</g>
<!-- 7d3f8353&#45;79d9&#45;4ab0&#45;9f01&#45;f8a9cbf06c1b&#45;&gt;4a3100bf&#45;ca63&#45;4004&#45;8f22&#45;f8b447d17169 -->
<g id="edge9" class="edge">
<title>7d3f8353&#45;79d9&#45;4ab0&#45;9f01&#45;f8a9cbf06c1b&#45;&gt;4a3100bf&#45;ca63&#45;4004&#45;8f22&#45;f8b447d17169</title>
<path fill="none" stroke="#000000" d="M841.6179,-466.5995C915.1109,-471.8591 1048.2481,-481.3871 1132.111,-487.3889"/>
<polygon fill="#000000" stroke="#000000" points="1132.1152,-490.898 1142.3395,-488.1209 1132.6149,-483.9159 1132.1152,-490.898"/>
</g>
<!-- 7d0708d7&#45;e23e&#45;4111&#45;b726&#45;bddcad8ce58e -->
<g id="node12" class="node">
<title>7d0708d7&#45;e23e&#45;4111&#45;b726&#45;bddcad8ce58e</title>
<polygon fill="#7fffd4" stroke="#7fffd4" points="1033.1495,-376.4019 951.0239,-376.4019 951.0239,-335.1981 1033.1495,-335.1981 1033.1495,-376.4019"/>
<text text-anchor="middle" x="992.0867" y="-360" font-family="Times,serif" font-size="14.00" fill="#000000">@Singleton</text>
<text text-anchor="middle" x="992.0867" y="-343.2" font-family="Times,serif" font-size="14.00" fill="#000000">Scheduler</text>
</g>
<!-- 7d3f8353&#45;79d9&#45;4ab0&#45;9f01&#45;f8a9cbf06c1b&#45;&gt;7d0708d7&#45;e23e&#45;4111&#45;b726&#45;bddcad8ce58e -->
<g id="edge8" class="edge">
<title>7d3f8353&#45;79d9&#45;4ab0&#45;9f01&#45;f8a9cbf06c1b&#45;&gt;7d0708d7&#45;e23e&#45;4111&#45;b726&#45;bddcad8ce58e</title>
<path fill="none" stroke="#000000" d="M827.775,-442.1693C860.7579,-424.8321 908.045,-399.9759 943.4297,-381.3762"/>
<polygon fill="#000000" stroke="#000000" points="945.3888,-384.3005 952.612,-376.5496 942.1318,-378.1044 945.3888,-384.3005"/>
</g>
<!-- 672c94ea&#45;a9a7&#45;4c57&#45;a413&#45;aa1fef71f371 -->
<g id="node5" class="node">
<title>672c94ea&#45;a9a7&#45;4c57&#45;a413&#45;aa1fef71f371</title>
<polygon fill="#ffe4c4" stroke="#ffe4c4" points="835.4615,-543.4019 741.5915,-543.4019 741.5915,-502.1981 835.4615,-502.1981 835.4615,-543.4019"/>
<text text-anchor="middle" x="788.5265" y="-527" font-family="Times,serif" font-size="14.00" fill="#000000">@PerActivity</text>
<text text-anchor="middle" x="788.5265" y="-510.2" font-family="Times,serif" font-size="14.00" fill="#000000">Navigator</text>
</g>
<!-- 42dc2a18&#45;2f85&#45;49fc&#45;9bff&#45;7e0ea86b1737&#45;&gt;672c94ea&#45;a9a7&#45;4c57&#45;a413&#45;aa1fef71f371 -->
<g id="edge11" class="edge">
<title>42dc2a18&#45;2f85&#45;49fc&#45;9bff&#45;7e0ea86b1737&#45;&gt;672c94ea&#45;a9a7&#45;4c57&#45;a413&#45;aa1fef71f371</title>
<path fill="none" stroke="#000000" d="M660.4661,-483.197C683.7196,-490.3882 709.6344,-498.4024 732.0353,-505.3299"/>
<polygon fill="#000000" stroke="#000000" points="731.1415,-508.717 741.7292,-508.3278 733.2097,-502.0295 731.1415,-508.717"/>
</g>
<!-- 53a92ace&#45;a4b8&#45;4321&#45;b308&#45;d76ae68fb43a -->
<g id="node13" class="node">
<title>53a92ace&#45;a4b8&#45;4321&#45;b308&#45;d76ae68fb43a</title>
<polygon fill="#7fffd4" stroke="#7fffd4" points="1039.1306,-316.4019 945.0428,-316.4019 945.0428,-275.1981 1039.1306,-275.1981 1039.1306,-316.4019"/>
<text text-anchor="middle" x="992.0867" y="-300" font-family="Times,serif" font-size="14.00" fill="#000000">@Singleton</text>
<text text-anchor="middle" x="992.0867" y="-283.2" font-family="Times,serif" font-size="14.00" fill="#000000">ContactsRepo</text>
</g>
<!-- 42dc2a18&#45;2f85&#45;49fc&#45;9bff&#45;7e0ea86b1737&#45;&gt;53a92ace&#45;a4b8&#45;4321&#45;b308&#45;d76ae68fb43a -->
<g id="edge10" class="edge">
<title>42dc2a18&#45;2f85&#45;49fc&#45;9bff&#45;7e0ea86b1737&#45;&gt;53a92ace&#45;a4b8&#45;4321&#45;b308&#45;d76ae68fb43a</title>
<path fill="none" stroke="#000000" d="M630.0119,-442.0205C681.5242,-412.6117 780.68,-358.7666 870.6128,-325.8 891.2077,-318.2505 914.4549,-311.9892 935.0579,-307.1744"/>
<polygon fill="#000000" stroke="#000000" points="935.9617,-310.5583 944.9365,-304.9277 934.4093,-303.7326 935.9617,-310.5583"/>
</g>
<!-- 672c94ea&#45;a9a7&#45;4c57&#45;a413&#45;aa1fef71f371&#45;&gt;4a3100bf&#45;ca63&#45;4004&#45;8f22&#45;f8b447d17169 -->
<g id="edge12" class="edge">
<title>672c94ea&#45;a9a7&#45;4c57&#45;a413&#45;aa1fef71f371&#45;&gt;4a3100bf&#45;ca63&#45;4004&#45;8f22&#45;f8b447d17169</title>
<path fill="none" stroke="#000000" d="M835.3933,-519.4459C907.4248,-514.291 1046.04,-504.3709 1132.3142,-498.1966"/>
<polygon fill="#000000" stroke="#000000" points="1132.5839,-501.6863 1142.3085,-497.4814 1132.0841,-494.7042 1132.5839,-501.6863"/>
</g>
<!-- f542175b&#45;9481&#45;4128&#45;b1c0&#45;afbec71a4f01 -->
<g id="node7" class="node">
<title>f542175b&#45;9481&#45;4128&#45;b1c0&#45;afbec71a4f01</title>
<polygon fill="#40e0d0" stroke="#40e0d0" points="1623.3689,-510.8 1444.7761,-510.8 1398.8335,-474.8 1577.4263,-474.8 1623.3689,-510.8"/>
<text text-anchor="middle" x="1511.1012" y="-488.6" font-family="Times,serif" font-size="14.00" fill="#000000">ContactsActivity</text>
</g>
<!-- 4a3100bf&#45;ca63&#45;4004&#45;8f22&#45;f8b447d17169&#45;&gt;f542175b&#45;9481&#45;4128&#45;b1c0&#45;afbec71a4f01 -->
<g id="edge13" class="edge">
<title>4a3100bf&#45;ca63&#45;4004&#45;8f22&#45;f8b447d17169&#45;&gt;f542175b&#45;9481&#45;4128&#45;b1c0&#45;afbec71a4f01</title>
<path fill="none" stroke="#000000" stroke-dasharray="1,5" d="M1273.1772,-492.8C1313.5008,-492.8 1365.9986,-492.8 1411.4187,-492.8"/>
<polygon fill="#000000" stroke="#000000" points="1411.5944,-496.3001 1421.5944,-492.8 1411.5943,-489.3001 1411.5944,-496.3001"/>
<text text-anchor="middle" x="1335.9253" y="-497" font-family="Times,serif" font-size="14.00" fill="#000000">delegates</text>
</g>
</g>
</svg>
