<svg width="1763px" height="624px"
 viewBox="0.00 0.00 1763.26 623.60" xmlns="http://www.w3.org/2000/svg" xmlns:xlink="http://www.w3.org/1999/xlink">
<g id="graph0" class="graph" transform="scale(1.0 1.0) rotate(0) translate(14.4 609.2)">
<title>org.owntracks.android.injection.components.AppComponent → org.owntracks.android.injection.modules.AndroidBindingModule_BindRegionsActivity.RegionsActivitySubcomponent</title>
<polygon fill="#ffffff" stroke="transparent" points="-14.4,14.4 -14.4,-609.2 1748.8639,-609.2 1748.8639,14.4 -14.4,14.4"/>
<text text-anchor="middle" x="281.7623" y="-8.2" font-family="Times,serif" font-size="14.00" fill="#000000">AppComponent → AndroidBindingModule_BindRegionsActivity.RegionsActivitySubcomponent</text>
<g id="clust4" class="cluster">
<title>cluster_AppComponent → AndroidBindingModule_BindRegionsActivity.RegionsActivitySubcomponent</title>
<g id="a_clust4"><a xlink:href="org.owntracks.android.injection.modules.AndroidBindingModule_BindRegionsActivity.RegionsActivitySubcomponent.svg" xlink:title="Inherited from AndroidBindingModule_BindRegionsActivity.RegionsActivitySubcomponent\n@PerActivity">
<polygon fill="none" stroke="#ffe4c4" stroke-dasharray="5,2" points="196.6922,-427.8 196.6922,-586.8 1726.4639,-586.8 1726.4639,-427.8 196.6922,-427.8"/>
<text text-anchor="middle" x="961.578" y="-570.2" font-family="Times,serif" font-size="14.00" fill="#000000">Inherited from AndroidBindingModule_BindRegionsActivity.RegionsActivitySubcomponent</text>
<text text-anchor="middle" x="961.578" y="-553.4" font-family="Times,serif" font-size="14.00" fill="#000000">@PerActivity</text>
</a>
</g>
</g>
<g id="clust1" class="cluster">
<title>cluster_Entry Points</title>
<polygon fill="none" stroke="#000000" points="8,-245.8 8,-322.8 175.6922,-322.8 175.6922,-245.8 8,-245.8"/>
<text text-anchor="middle" x="50.8061" y="-306.2" font-family="Times,serif" font-size="14.00" fill="#000000">Entry Points</text>
</g>
<g id="clust5" class="cluster">
<title>cluster_AppComponent</title>
<g id="a_clust5"><a xlink:href="org.owntracks.android.injection.components.AppComponent.svg" xlink:title="Inherited from AppComponent\n@Singleton">
<polygon fill="none" stroke="#7fffd4" stroke-dasharray="5,2" points="972.1226,-32.8 972.1226,-419.8 1215.0704,-419.8 1215.0704,-32.8 972.1226,-32.8"/>
<text text-anchor="middle" x="1093.5965" y="-403.2" font-family="Times,serif" font-size="14.00" fill="#000000">Inherited from AppComponent</text>
<text text-anchor="middle" x="1093.5965" y="-386.4" font-family="Times,serif" font-size="14.00" fill="#000000">@Singleton</text>
</a>
</g>
</g>
<!-- 5fede781&#45;8c5e&#45;4ca2&#45;a42e&#45;40e5328ddc4c -->
<g id="node1" class="node">
<title>5fede781&#45;8c5e&#45;4ca2&#45;a42e&#45;40e5328ddc4c</title>
<polygon fill="#40e0d0" stroke="#40e0d0" stroke-width="2" points="167.5386,-289.8 16.1536,-289.8 16.1536,-285.8 12.1536,-285.8 12.1536,-281.8 16.1536,-281.8 16.1536,-261.8 12.1536,-261.8 12.1536,-257.8 16.1536,-257.8 16.1536,-253.8 167.5386,-253.8 167.5386,-289.8"/>
<polyline fill="none" stroke="#40e0d0" stroke-width="2" points="16.1536,-285.8 20.1536,-285.8 20.1536,-281.8 16.1536,-281.8 "/>
<polyline fill="none" stroke="#40e0d0" stroke-width="2" points="16.1536,-261.8 20.1536,-261.8 20.1536,-257.8 16.1536,-257.8 "/>
<text text-anchor="middle" x="91.8461" y="-267.6" font-family="Times,serif" font-size="14.00" fill="#000000">inject (RegionsActivity)</text>
</g>
<!-- 373df63e&#45;11ed&#45;4642&#45;abea&#45;017d147fdc26 -->
<g id="node2" class="node">
<title>373df63e&#45;11ed&#45;4642&#45;abea&#45;017d147fdc26</title>
<polygon fill="#40e0d0" stroke="#40e0d0" points="507.321,-472.8 204.4824,-472.8 204.4824,-436.8 507.321,-436.8 507.321,-472.8"/>
<text text-anchor="middle" x="355.9017" y="-450.6" font-family="Times,serif" font-size="14.00" fill="#000000">RegionsMvvm.ViewModel&lt;RegionsMvvm.View&gt;</text>
</g>
<!-- 5fede781&#45;8c5e&#45;4ca2&#45;a42e&#45;40e5328ddc4c&#45;&gt;373df63e&#45;11ed&#45;4642&#45;abea&#45;017d147fdc26 -->
<g id="edge1" class="edge">
<title>5fede781&#45;8c5e&#45;4ca2&#45;a42e&#45;40e5328ddc4c&#45;&gt;373df63e&#45;11ed&#45;4642&#45;abea&#45;017d147fdc26</title>
<path fill="none" stroke="#000000" d="M99.1931,-290.127C112.0976,-319.9223 141.7079,-378.6622 185.6922,-409.8 199.6645,-419.6914 215.6701,-427.4086 232.1505,-433.4295"/>
<polygon fill="#000000" stroke="#000000" points="231.3024,-436.839 241.8971,-436.7822 233.5794,-430.2197 231.3024,-436.839"/>
</g>
<!-- f2dbfd44&#45;0309&#45;473e&#45;bc3a&#45;f55c113a75d0 -->
<g id="node3" class="node">
<title>f2dbfd44&#45;0309&#45;473e&#45;bc3a&#45;f55c113a75d0</title>
<polygon fill="#ffe4c4" stroke="#ffe4c4" points="943.209,-477.4019 836.8636,-477.4019 836.8636,-436.1981 943.209,-436.1981 943.209,-477.4019"/>
<text text-anchor="middle" x="890.0363" y="-461" font-family="Times,serif" font-size="14.00" fill="#000000">@PerActivity</text>
<text text-anchor="middle" x="890.0363" y="-444.2" font-family="Times,serif" font-size="14.00" fill="#000000">DrawerProvider</text>
</g>
<!-- 5fede781&#45;8c5e&#45;4ca2&#45;a42e&#45;40e5328ddc4c&#45;&gt;f2dbfd44&#45;0309&#45;473e&#45;bc3a&#45;f55c113a75d0 -->
<g id="edge2" class="edge">
<title>5fede781&#45;8c5e&#45;4ca2&#45;a42e&#45;40e5328ddc4c&#45;&gt;f2dbfd44&#45;0309&#45;473e&#45;bc3a&#45;f55c113a75d0</title>
<path fill="none" stroke="#000000" d="M128.442,-289.8908C178.5128,-312.9328 271.7716,-349.8 355.9017,-349.8 355.9017,-349.8 355.9017,-349.8 799.45,-349.8 840.0362,-349.8 866.1833,-395.1979 879.4816,-426.8523"/>
<polygon fill="#000000" stroke="#000000" points="876.2421,-428.1777 883.198,-436.1693 882.744,-425.5842 876.2421,-428.1777"/>
</g>
<!-- 39a49f32&#45;600d&#45;4525&#45;a3a9&#45;483dbe1c506b -->
<g id="node4" class="node">
<title>39a49f32&#45;600d&#45;4525&#45;a3a9&#45;483dbe1c506b</title>
<polygon fill="#ffe4c4" stroke="#ffe4c4" points="936.9713,-537.4019 843.1013,-537.4019 843.1013,-496.1981 936.9713,-496.1981 936.9713,-537.4019"/>
<text text-anchor="middle" x="890.0363" y="-521" font-family="Times,serif" font-size="14.00" fill="#000000">@PerActivity</text>
<text text-anchor="middle" x="890.0363" y="-504.2" font-family="Times,serif" font-size="14.00" fill="#000000">Navigator</text>
</g>
<!-- 5fede781&#45;8c5e&#45;4ca2&#45;a42e&#45;40e5328ddc4c&#45;&gt;39a49f32&#45;600d&#45;4525&#45;a3a9&#45;483dbe1c506b -->
<g id="edge3" class="edge">
<title>5fede781&#45;8c5e&#45;4ca2&#45;a42e&#45;40e5328ddc4c&#45;&gt;39a49f32&#45;600d&#45;4525&#45;a3a9&#45;483dbe1c506b</title>
<path fill="none" stroke="#000000" d="M113.0198,-290.0999C133.3154,-306.8466 165.4045,-331.308 196.6922,-346.8 263.0397,-379.6517 281.8665,-395.8 355.9017,-395.8 355.9017,-395.8 355.9017,-395.8 799.45,-395.8 843.1939,-395.8 807.986,-454.0186 836.95,-486.8 837.7977,-487.7594 838.6838,-488.6952 839.6027,-489.6073"/>
<polygon fill="#000000" stroke="#000000" points="837.3354,-492.2737 847.1998,-496.1395 841.8992,-486.9659 837.3354,-492.2737"/>
</g>
<!-- 6381454c&#45;388d&#45;4fe7&#45;992c&#45;3b8ca703581f -->
<g id="node8" class="node">
<title>6381454c&#45;388d&#45;4fe7&#45;992c&#45;3b8ca703581f</title>
<polygon fill="#7fffd4" stroke="#7fffd4" points="1134.6593,-196.4019 1052.5337,-196.4019 1052.5337,-155.1981 1134.6593,-155.1981 1134.6593,-196.4019"/>
<text text-anchor="middle" x="1093.5965" y="-180" font-family="Times,serif" font-size="14.00" fill="#000000">@Singleton</text>
<text text-anchor="middle" x="1093.5965" y="-163.2" font-family="Times,serif" font-size="14.00" fill="#000000">Preferences</text>
</g>
<!-- 5fede781&#45;8c5e&#45;4ca2&#45;a42e&#45;40e5328ddc4c&#45;&gt;6381454c&#45;388d&#45;4fe7&#45;992c&#45;3b8ca703581f -->
<g id="edge5" class="edge">
<title>5fede781&#45;8c5e&#45;4ca2&#45;a42e&#45;40e5328ddc4c&#45;&gt;6381454c&#45;388d&#45;4fe7&#45;992c&#45;3b8ca703581f</title>
<path fill="none" stroke="#000000" d="M124.925,-253.7737C173.8861,-228.8227 269.2144,-186.8 355.9017,-186.8 355.9017,-186.8 355.9017,-186.8 890.0363,-186.8 941.913,-186.8 1001.1182,-183.1938 1042.2526,-180.111"/>
<polygon fill="#000000" stroke="#000000" points="1042.6022,-183.5946 1052.3057,-179.341 1042.0675,-176.615 1042.6022,-183.5946"/>
</g>
<!-- fc742e1b&#45;4129&#45;4ef5&#45;848b&#45;468c047d6c5d -->
<g id="node9" class="node">
<title>fc742e1b&#45;4129&#45;4ef5&#45;848b&#45;468c047d6c5d</title>
<polygon fill="#7fffd4" stroke="#7fffd4" points="1134.6593,-136.4019 1052.5337,-136.4019 1052.5337,-95.1981 1134.6593,-95.1981 1134.6593,-136.4019"/>
<text text-anchor="middle" x="1093.5965" y="-120" font-family="Times,serif" font-size="14.00" fill="#000000">@Singleton</text>
<text text-anchor="middle" x="1093.5965" y="-103.2" font-family="Times,serif" font-size="14.00" fill="#000000">EventBus</text>
</g>
<!-- 5fede781&#45;8c5e&#45;4ca2&#45;a42e&#45;40e5328ddc4c&#45;&gt;fc742e1b&#45;4129&#45;4ef5&#45;848b&#45;468c047d6c5d -->
<g id="edge4" class="edge">
<title>5fede781&#45;8c5e&#45;4ca2&#45;a42e&#45;40e5328ddc4c&#45;&gt;fc742e1b&#45;4129&#45;4ef5&#45;848b&#45;468c047d6c5d</title>
<path fill="none" stroke="#000000" d="M108.7624,-253.669C128.244,-233.7515 162.0419,-202.042 196.6922,-182.8 261.6499,-146.7276 281.6001,-131.8 355.9017,-131.8 355.9017,-131.8 355.9017,-131.8 890.0363,-131.8 941.9972,-131.8 1001.1902,-126.5546 1042.2987,-122.0705"/>
<polygon fill="#000000" stroke="#000000" points="1042.7944,-125.537 1052.345,-120.9506 1042.0187,-118.5801 1042.7944,-125.537"/>
</g>
<!-- c50e5c92&#45;a817&#45;4467&#45;8c09&#45;132d0a7d0cb8 -->
<g id="node10" class="node">
<title>c50e5c92&#45;a817&#45;4467&#45;8c09&#45;132d0a7d0cb8</title>
<polygon fill="#40e0d0" stroke="#40e0d0" points="1207.0443,-76.8 980.1487,-76.8 980.1487,-40.8 1207.0443,-40.8 1207.0443,-76.8"/>
<text text-anchor="middle" x="1093.5965" y="-54.6" font-family="Times,serif" font-size="14.00" fill="#000000">DispatchingAndroidInjector&lt;Object&gt;</text>
</g>
<!-- 5fede781&#45;8c5e&#45;4ca2&#45;a42e&#45;40e5328ddc4c&#45;&gt;c50e5c92&#45;a817&#45;4467&#45;8c09&#45;132d0a7d0cb8 -->
<g id="edge6" class="edge">
<title>5fede781&#45;8c5e&#45;4ca2&#45;a42e&#45;40e5328ddc4c&#45;&gt;c50e5c92&#45;a817&#45;4467&#45;8c09&#45;132d0a7d0cb8</title>
<path fill="none" stroke="#000000" d="M100.5643,-253.6924C115.9489,-223.525 150.6881,-162.8402 196.6922,-127.8 256.8477,-81.9811 280.2839,-67.8 355.9017,-67.8 355.9017,-67.8 355.9017,-67.8 890.0363,-67.8 915.9145,-67.8 943.6252,-67.0651 970.008,-66.0153"/>
<polygon fill="#000000" stroke="#000000" points="970.2016,-69.5103 980.0478,-65.5984 969.9111,-62.5163 970.2016,-69.5103"/>
</g>
<!-- e8bf8c96&#45;e95f&#45;40b9&#45;b42d&#45;c9b5a585007c -->
<g id="node5" class="node">
<title>e8bf8c96&#45;e95f&#45;40b9&#45;b42d&#45;c9b5a585007c</title>
<polygon fill="#ffe4c4" stroke="#ffe4c4" points="761.8275,-477.4019 633.3179,-477.4019 633.3179,-436.1981 761.8275,-436.1981 761.8275,-477.4019"/>
<text text-anchor="middle" x="697.5727" y="-461" font-family="Times,serif" font-size="14.00" fill="#000000">@PerActivity</text>
<text text-anchor="middle" x="697.5727" y="-444.2" font-family="Times,serif" font-size="14.00" fill="#000000">RegionsViewModel</text>
</g>
<!-- 373df63e&#45;11ed&#45;4642&#45;abea&#45;017d147fdc26&#45;&gt;e8bf8c96&#45;e95f&#45;40b9&#45;b42d&#45;c9b5a585007c -->
<g id="edge7" class="edge">
<title>373df63e&#45;11ed&#45;4642&#45;abea&#45;017d147fdc26&#45;&gt;e8bf8c96&#45;e95f&#45;40b9&#45;b42d&#45;c9b5a585007c</title>
<path fill="none" stroke="#000000" stroke-dasharray="1,5" d="M507.2557,-455.686C547.373,-455.9208 588.9424,-456.1641 622.9588,-456.3632"/>
<polygon fill="#000000" stroke="#000000" points="623.2428,-459.8649 633.2631,-456.4236 623.2838,-452.865 623.2428,-459.8649"/>
<text text-anchor="middle" x="570.1533" y="-460" font-family="Times,serif" font-size="14.00" fill="#000000">delegates</text>
</g>
<!-- 79b45136&#45;4dac&#45;4555&#45;9613&#45;3cc8a28ccd7a -->
<g id="node6" class="node">
<title>79b45136&#45;4dac&#45;4555&#45;9613&#45;3cc8a28ccd7a</title>
<polygon fill="#ffe4c4" stroke="#ffe4c4" points="1374.5547,-507.4019 1243.9087,-507.4019 1243.9087,-466.1981 1374.5547,-466.1981 1374.5547,-507.4019"/>
<text text-anchor="middle" x="1309.2317" y="-491" font-family="Times,serif" font-size="14.00" fill="#000000">@PerActivity</text>
<text text-anchor="middle" x="1309.2317" y="-474.2" font-family="Times,serif" font-size="14.00" fill="#000000">AppCompatActivity</text>
</g>
<!-- f2dbfd44&#45;0309&#45;473e&#45;bc3a&#45;f55c113a75d0&#45;&gt;79b45136&#45;4dac&#45;4555&#45;9613&#45;3cc8a28ccd7a -->
<g id="edge8" class="edge">
<title>f2dbfd44&#45;0309&#45;473e&#45;bc3a&#45;f55c113a75d0&#45;&gt;79b45136&#45;4dac&#45;4555&#45;9613&#45;3cc8a28ccd7a</title>
<path fill="none" stroke="#000000" d="M943.1277,-460.5995C1016.6207,-465.8591 1149.7579,-475.3871 1233.6208,-481.3889"/>
<polygon fill="#000000" stroke="#000000" points="1233.625,-484.898 1243.8493,-482.1209 1234.1247,-477.9159 1233.625,-484.898"/>
</g>
<!-- 64f8547e&#45;5425&#45;4843&#45;b379&#45;1e3400a6c7c6 -->
<g id="node11" class="node">
<title>64f8547e&#45;5425&#45;4843&#45;b379&#45;1e3400a6c7c6</title>
<polygon fill="#7fffd4" stroke="#7fffd4" points="1134.6593,-370.4019 1052.5337,-370.4019 1052.5337,-329.1981 1134.6593,-329.1981 1134.6593,-370.4019"/>
<text text-anchor="middle" x="1093.5965" y="-354" font-family="Times,serif" font-size="14.00" fill="#000000">@Singleton</text>
<text text-anchor="middle" x="1093.5965" y="-337.2" font-family="Times,serif" font-size="14.00" fill="#000000">Scheduler</text>
</g>
<!-- f2dbfd44&#45;0309&#45;473e&#45;bc3a&#45;f55c113a75d0&#45;&gt;64f8547e&#45;5425&#45;4843&#45;b379&#45;1e3400a6c7c6 -->
<g id="edge9" class="edge">
<title>f2dbfd44&#45;0309&#45;473e&#45;bc3a&#45;f55c113a75d0&#45;&gt;64f8547e&#45;5425&#45;4843&#45;b379&#45;1e3400a6c7c6</title>
<path fill="none" stroke="#000000" d="M929.2848,-436.1693C962.2677,-418.8321 1009.5548,-393.9759 1044.9395,-375.3762"/>
<polygon fill="#000000" stroke="#000000" points="1046.8986,-378.3005 1054.1218,-370.5496 1043.6416,-372.1044 1046.8986,-378.3005"/>
</g>
<!-- 39a49f32&#45;600d&#45;4525&#45;a3a9&#45;483dbe1c506b&#45;&gt;79b45136&#45;4dac&#45;4555&#45;9613&#45;3cc8a28ccd7a -->
<g id="edge11" class="edge">
<title>39a49f32&#45;600d&#45;4525&#45;a3a9&#45;483dbe1c506b&#45;&gt;79b45136&#45;4dac&#45;4555&#45;9613&#45;3cc8a28ccd7a</title>
<path fill="none" stroke="#000000" d="M936.9031,-513.4459C1008.9346,-508.291 1147.5498,-498.3709 1233.824,-492.1966"/>
<polygon fill="#000000" stroke="#000000" points="1234.0937,-495.6863 1243.8183,-491.4814 1233.5939,-488.7042 1234.0937,-495.6863"/>
</g>
<!-- e8bf8c96&#45;e95f&#45;40b9&#45;b42d&#45;c9b5a585007c&#45;&gt;39a49f32&#45;600d&#45;4525&#45;a3a9&#45;483dbe1c506b -->
<g id="edge10" class="edge">
<title>e8bf8c96&#45;e95f&#45;40b9&#45;b42d&#45;c9b5a585007c&#45;&gt;39a49f32&#45;600d&#45;4525&#45;a3a9&#45;483dbe1c506b</title>
<path fill="none" stroke="#000000" d="M761.9279,-476.8625C785.0595,-484.0738 810.9613,-492.1486 833.389,-499.1404"/>
<polygon fill="#000000" stroke="#000000" points="832.5087,-502.532 843.0972,-502.1669 834.5921,-495.8492 832.5087,-502.532"/>
</g>
<!-- c51a0db3&#45;c27d&#45;4d1d&#45;9ca2&#45;eca665cb44f3 -->
<g id="node12" class="node">
<title>c51a0db3&#45;c27d&#45;4d1d&#45;9ca2&#45;eca665cb44f3</title>
<polygon fill="#40e0d0" stroke="#40e0d0" points="1146.8029,-310.8 1040.3901,-310.8 1040.3901,-274.8 1146.8029,-274.8 1146.8029,-310.8"/>
<text text-anchor="middle" x="1093.5965" y="-288.6" font-family="Times,serif" font-size="14.00" fill="#000000">WaypointsRepo</text>
</g>
<!-- e8bf8c96&#45;e95f&#45;40b9&#45;b42d&#45;c9b5a585007c&#45;&gt;c51a0db3&#45;c27d&#45;4d1d&#45;9ca2&#45;eca665cb44f3 -->
<g id="edge12" class="edge">
<title>e8bf8c96&#45;e95f&#45;40b9&#45;b42d&#45;c9b5a585007c&#45;&gt;c51a0db3&#45;c27d&#45;4d1d&#45;9ca2&#45;eca665cb44f3</title>
<path fill="none" stroke="#000000" d="M711.5381,-436.1475C731.5639,-408.3427 771.221,-359.617 817.95,-335.8 884.9149,-301.6691 971.9821,-293.1167 1030.1736,-291.6739"/>
<polygon fill="#000000" stroke="#000000" points="1030.3986,-295.1704 1040.3324,-291.4869 1030.2697,-288.1716 1030.3986,-295.1704"/>
</g>
<!-- 0d9b5240&#45;994a&#45;466a&#45;a1e6&#45;8a39f2a602e0 -->
<g id="node13" class="node">
<title>0d9b5240&#45;994a&#45;466a&#45;a1e6&#45;8a39f2a602e0</title>
<polygon fill="#7fffd4" stroke="#7fffd4" points="1153.7818,-256.4019 1033.4112,-256.4019 1033.4112,-215.1981 1153.7818,-215.1981 1153.7818,-256.4019"/>
<text text-anchor="middle" x="1093.5965" y="-240" font-family="Times,serif" font-size="14.00" fill="#000000">@Singleton</text>
<text text-anchor="middle" x="1093.5965" y="-223.2" font-family="Times,serif" font-size="14.00" fill="#000000">LocationProcessor</text>
</g>
<!-- e8bf8c96&#45;e95f&#45;40b9&#45;b42d&#45;c9b5a585007c&#45;&gt;0d9b5240&#45;994a&#45;466a&#45;a1e6&#45;8a39f2a602e0 -->
<g id="edge13" class="edge">
<title>e8bf8c96&#45;e95f&#45;40b9&#45;b42d&#45;c9b5a585007c&#45;&gt;0d9b5240&#45;994a&#45;466a&#45;a1e6&#45;8a39f2a602e0</title>
<path fill="none" stroke="#000000" d="M709.057,-435.9514C729.674,-400.664 776.5098,-329.6166 836.95,-294.8 894.4509,-261.6766 969.2503,-247.1473 1023.2484,-240.7752"/>
<polygon fill="#000000" stroke="#000000" points="1023.8684,-244.2279 1033.4194,-239.642 1023.0933,-237.2709 1023.8684,-244.2279"/>
</g>
<!-- 45ff37d1&#45;0576&#45;44ff&#45;a8ef&#45;3bd7b7aca57c -->
<g id="node7" class="node">
<title>45ff37d1&#45;0576&#45;44ff&#45;a8ef&#45;3bd7b7aca57c</title>
<polygon fill="#40e0d0" stroke="#40e0d0" points="1718.4572,-504.8 1545.0838,-504.8 1500.4839,-468.8 1673.8573,-468.8 1718.4572,-504.8"/>
<text text-anchor="middle" x="1609.4705" y="-482.6" font-family="Times,serif" font-size="14.00" fill="#000000">RegionsActivity</text>
</g>
<!-- 79b45136&#45;4dac&#45;4555&#45;9613&#45;3cc8a28ccd7a&#45;&gt;45ff37d1&#45;0576&#45;44ff&#45;a8ef&#45;3bd7b7aca57c -->
<g id="edge14" class="edge">
<title>79b45136&#45;4dac&#45;4555&#45;9613&#45;3cc8a28ccd7a&#45;&gt;45ff37d1&#45;0576&#45;44ff&#45;a8ef&#45;3bd7b7aca57c</title>
<path fill="none" stroke="#000000" stroke-dasharray="1,5" d="M1374.7494,-486.8C1415.0928,-486.8 1467.5398,-486.8 1512.6221,-486.8"/>
<polygon fill="#000000" stroke="#000000" points="1512.716,-490.3001 1522.716,-486.8 1512.716,-483.3001 1512.716,-490.3001"/>
<text text-anchor="middle" x="1437.4351" y="-491" font-family="Times,serif" font-size="14.00" fill="#000000">delegates</text>
</g>
</g>
</svg>
