<svg width="1693px" height="570px"
 viewBox="0.00 0.00 1693.02 569.60" xmlns="http://www.w3.org/2000/svg" xmlns:xlink="http://www.w3.org/1999/xlink">
<g id="graph0" class="graph" transform="scale(1.0 1.0) rotate(0) translate(14.4 555.2)">
<title>org.owntracks.android.injection.components.AppComponent → org.owntracks.android.injection.modules.AndroidBindingModule_BindStatusActivity.StatusActivitySubcomponent</title>
<polygon fill="#ffffff" stroke="transparent" points="-14.4,14.4 -14.4,-555.2 1678.6187,-555.2 1678.6187,14.4 -14.4,14.4"/>
<text text-anchor="middle" x="270.0989" y="-8.2" font-family="Times,serif" font-size="14.00" fill="#000000">AppComponent → AndroidBindingModule_BindStatusActivity.StatusActivitySubcomponent</text>
<g id="clust5" class="cluster">
<title>cluster_AppComponent</title>
<g id="a_clust5"><a xlink:href="org.owntracks.android.injection.components.AppComponent.svg" xlink:title="Inherited from AppComponent\n@Singleton">
<polygon fill="none" stroke="#7fffd4" stroke-dasharray="5,2" points="925.469,-32.8 925.469,-381.8 1168.4168,-381.8 1168.4168,-32.8 925.469,-32.8"/>
<text text-anchor="middle" x="1046.9429" y="-365.2" font-family="Times,serif" font-size="14.00" fill="#000000">Inherited from AppComponent</text>
<text text-anchor="middle" x="1046.9429" y="-348.4" font-family="Times,serif" font-size="14.00" fill="#000000">@Singleton</text>
</a>
</g>
</g>
<g id="clust1" class="cluster">
<title>cluster_Entry Points</title>
<polygon fill="none" stroke="#000000" points="8,-149.8 8,-226.8 164.0288,-226.8 164.0288,-149.8 8,-149.8"/>
<text text-anchor="middle" x="50.8061" y="-210.2" font-family="Times,serif" font-size="14.00" fill="#000000">Entry Points</text>
</g>
<g id="clust2" class="cluster">
<title>cluster_Dependency Graph</title>
<polygon fill="none" stroke="#000000" points="185.0288,-389.8 185.0288,-532.8 1656.2187,-532.8 1656.2187,-389.8 185.0288,-389.8"/>
<text text-anchor="middle" x="247.2522" y="-516.2" font-family="Times,serif" font-size="14.00" fill="#000000">Dependency Graph</text>
</g>
<!-- 605285b6&#45;d841&#45;4487&#45;9bec&#45;72aadaba9011 -->
<g id="node1" class="node">
<title>605285b6&#45;d841&#45;4487&#45;9bec&#45;72aadaba9011</title>
<polygon fill="#40e0d0" stroke="#40e0d0" stroke-width="2" points="156.0432,-193.8 15.9856,-193.8 15.9856,-189.8 11.9856,-189.8 11.9856,-185.8 15.9856,-185.8 15.9856,-165.8 11.9856,-165.8 11.9856,-161.8 15.9856,-161.8 15.9856,-157.8 156.0432,-157.8 156.0432,-193.8"/>
<polyline fill="none" stroke="#40e0d0" stroke-width="2" points="15.9856,-189.8 19.9856,-189.8 19.9856,-185.8 15.9856,-185.8 "/>
<polyline fill="none" stroke="#40e0d0" stroke-width="2" points="15.9856,-165.8 19.9856,-165.8 19.9856,-161.8 15.9856,-161.8 "/>
<text text-anchor="middle" x="86.0144" y="-171.6" font-family="Times,serif" font-size="14.00" fill="#000000">inject (StatusActivity)</text>
</g>
<!-- cc61eba5&#45;b1fc&#45;47aa&#45;b10f&#45;aa77e33f4972 -->
<g id="node2" class="node">
<title>cc61eba5&#45;b1fc&#45;47aa&#45;b10f&#45;aa77e33f4972</title>
<polygon fill="#40e0d0" stroke="#40e0d0" points="472.1671,-434.8 192.9827,-434.8 192.9827,-398.8 472.1671,-398.8 472.1671,-434.8"/>
<text text-anchor="middle" x="332.5749" y="-412.6" font-family="Times,serif" font-size="14.00" fill="#000000">StatusMvvm.ViewModel&lt;StatusMvvm.View&gt;</text>
</g>
<!-- 605285b6&#45;d841&#45;4487&#45;9bec&#45;72aadaba9011&#45;&gt;cc61eba5&#45;b1fc&#45;47aa&#45;b10f&#45;aa77e33f4972 -->
<g id="edge5" class="edge">
<title>605285b6&#45;d841&#45;4487&#45;9bec&#45;72aadaba9011&#45;&gt;cc61eba5&#45;b1fc&#45;47aa&#45;b10f&#45;aa77e33f4972</title>
<path fill="none" stroke="#000000" d="M104.5465,-193.9142C148.0086,-236.3961 256.59,-342.5288 306.605,-391.4158"/>
<polygon fill="#000000" stroke="#000000" points="304.23,-393.9886 313.8277,-398.4756 309.123,-388.9827 304.23,-393.9886"/>
</g>
<!-- c67ed9ea&#45;161a&#45;4763&#45;91e3&#45;2c0ed0a4dc25 -->
<g id="node3" class="node">
<title>c67ed9ea&#45;161a&#45;4763&#45;91e3&#45;2c0ed0a4dc25</title>
<polygon fill="#ffe4c4" stroke="#ffe4c4" points="896.5554,-439.4019 790.21,-439.4019 790.21,-398.1981 896.5554,-398.1981 896.5554,-439.4019"/>
<text text-anchor="middle" x="843.3827" y="-423" font-family="Times,serif" font-size="14.00" fill="#000000">@PerActivity</text>
<text text-anchor="middle" x="843.3827" y="-406.2" font-family="Times,serif" font-size="14.00" fill="#000000">DrawerProvider</text>
</g>
<!-- 605285b6&#45;d841&#45;4487&#45;9bec&#45;72aadaba9011&#45;&gt;c67ed9ea&#45;161a&#45;4763&#45;91e3&#45;2c0ed0a4dc25 -->
<g id="edge4" class="edge">
<title>605285b6&#45;d841&#45;4487&#45;9bec&#45;72aadaba9011&#45;&gt;c67ed9ea&#45;161a&#45;4763&#45;91e3&#45;2c0ed0a4dc25</title>
<path fill="none" stroke="#000000" d="M146.2008,-193.837C195.7513,-207.0913 268.0818,-222.8 332.5749,-222.8 332.5749,-222.8 332.5749,-222.8 752.7964,-222.8 788.8054,-222.8 821.7852,-333.1857 836.0024,-388.2767"/>
<polygon fill="#000000" stroke="#000000" points="832.6661,-389.3598 838.5132,-398.195 839.452,-387.6419 832.6661,-389.3598"/>
</g>
<!-- cab17459&#45;124a&#45;425d&#45;acbb&#45;314a514fd685 -->
<g id="node8" class="node">
<title>cab17459&#45;124a&#45;425d&#45;acbb&#45;314a514fd685</title>
<polygon fill="#7fffd4" stroke="#7fffd4" points="1088.0057,-196.4019 1005.8801,-196.4019 1005.8801,-155.1981 1088.0057,-155.1981 1088.0057,-196.4019"/>
<text text-anchor="middle" x="1046.9429" y="-180" font-family="Times,serif" font-size="14.00" fill="#000000">@Singleton</text>
<text text-anchor="middle" x="1046.9429" y="-163.2" font-family="Times,serif" font-size="14.00" fill="#000000">Preferences</text>
</g>
<!-- 605285b6&#45;d841&#45;4487&#45;9bec&#45;72aadaba9011&#45;&gt;cab17459&#45;124a&#45;425d&#45;acbb&#45;314a514fd685 -->
<g id="edge3" class="edge">
<title>605285b6&#45;d841&#45;4487&#45;9bec&#45;72aadaba9011&#45;&gt;cab17459&#45;124a&#45;425d&#45;acbb&#45;314a514fd685</title>
<path fill="none" stroke="#000000" d="M156.1576,-175.8C205.4986,-175.8 273.0751,-175.8 332.5749,-175.8 332.5749,-175.8 332.5749,-175.8 843.3827,-175.8 895.1839,-175.8 954.4,-175.8 995.5575,-175.8"/>
<polygon fill="#000000" stroke="#000000" points="995.6168,-179.3001 1005.6167,-175.8 995.6167,-172.3001 995.6168,-179.3001"/>
</g>
<!-- b23e02cf&#45;607b&#45;4603&#45;ac4e&#45;070cdb739516 -->
<g id="node9" class="node">
<title>b23e02cf&#45;607b&#45;4603&#45;ac4e&#45;070cdb739516</title>
<polygon fill="#7fffd4" stroke="#7fffd4" points="1088.0057,-136.4019 1005.8801,-136.4019 1005.8801,-95.1981 1088.0057,-95.1981 1088.0057,-136.4019"/>
<text text-anchor="middle" x="1046.9429" y="-120" font-family="Times,serif" font-size="14.00" fill="#000000">@Singleton</text>
<text text-anchor="middle" x="1046.9429" y="-103.2" font-family="Times,serif" font-size="14.00" fill="#000000">EventBus</text>
</g>
<!-- 605285b6&#45;d841&#45;4487&#45;9bec&#45;72aadaba9011&#45;&gt;b23e02cf&#45;607b&#45;4603&#45;ac4e&#45;070cdb739516 -->
<g id="edge1" class="edge">
<title>605285b6&#45;d841&#45;4487&#45;9bec&#45;72aadaba9011&#45;&gt;b23e02cf&#45;607b&#45;4603&#45;ac4e&#45;070cdb739516</title>
<path fill="none" stroke="#000000" d="M143.6586,-157.6934C193.2232,-143.7352 266.8925,-126.8 332.5749,-126.8 332.5749,-126.8 332.5749,-126.8 843.3827,-126.8 895.2594,-126.8 954.4646,-123.1938 995.599,-120.111"/>
<polygon fill="#000000" stroke="#000000" points="995.9486,-123.5946 1005.6521,-119.341 995.4139,-116.615 995.9486,-123.5946"/>
</g>
<!-- 6f549352&#45;730d&#45;4395&#45;9c45&#45;ac9f647693e7 -->
<g id="node10" class="node">
<title>6f549352&#45;730d&#45;4395&#45;9c45&#45;ac9f647693e7</title>
<polygon fill="#40e0d0" stroke="#40e0d0" points="1160.3907,-76.8 933.4951,-76.8 933.4951,-40.8 1160.3907,-40.8 1160.3907,-76.8"/>
<text text-anchor="middle" x="1046.9429" y="-54.6" font-family="Times,serif" font-size="14.00" fill="#000000">DispatchingAndroidInjector&lt;Object&gt;</text>
</g>
<!-- 605285b6&#45;d841&#45;4487&#45;9bec&#45;72aadaba9011&#45;&gt;6f549352&#45;730d&#45;4395&#45;9c45&#45;ac9f647693e7 -->
<g id="edge2" class="edge">
<title>605285b6&#45;d841&#45;4487&#45;9bec&#45;72aadaba9011&#45;&gt;6f549352&#45;730d&#45;4395&#45;9c45&#45;ac9f647693e7</title>
<path fill="none" stroke="#000000" d="M110.8704,-157.7992C153.8273,-128.5171 245.7175,-73.8 332.5749,-73.8 332.5749,-73.8 332.5749,-73.8 843.3827,-73.8 869.3058,-73.8 897.0357,-72.5751 923.423,-70.8254"/>
<polygon fill="#000000" stroke="#000000" points="923.7294,-74.3127 933.4639,-70.1306 923.2461,-67.3294 923.7294,-74.3127"/>
</g>
<!-- 6c492548&#45;eb21&#45;4b4f&#45;83a9&#45;2059b0717b68 -->
<g id="node4" class="node">
<title>6c492548&#45;eb21&#45;4b4f&#45;83a9&#45;2059b0717b68</title>
<polygon fill="#ffe4c4" stroke="#ffe4c4" points="715.342,-439.4019 598.1596,-439.4019 598.1596,-398.1981 715.342,-398.1981 715.342,-439.4019"/>
<text text-anchor="middle" x="656.7508" y="-423" font-family="Times,serif" font-size="14.00" fill="#000000">@PerActivity</text>
<text text-anchor="middle" x="656.7508" y="-406.2" font-family="Times,serif" font-size="14.00" fill="#000000">StatusViewModel</text>
</g>
<!-- cc61eba5&#45;b1fc&#45;47aa&#45;b10f&#45;aa77e33f4972&#45;&gt;6c492548&#45;eb21&#45;4b4f&#45;83a9&#45;2059b0717b68 -->
<g id="edge6" class="edge">
<title>cc61eba5&#45;b1fc&#45;47aa&#45;b10f&#45;aa77e33f4972&#45;&gt;6c492548&#45;eb21&#45;4b4f&#45;83a9&#45;2059b0717b68</title>
<path fill="none" stroke="#000000" stroke-dasharray="1,5" d="M472.4068,-417.6627C512.3183,-417.9089 554.065,-418.1665 587.7183,-418.3741"/>
<polygon fill="#000000" stroke="#000000" points="587.8701,-421.875 597.8916,-418.4369 587.9134,-414.8751 587.8701,-421.875"/>
<text text-anchor="middle" x="535.1631" y="-422" font-family="Times,serif" font-size="14.00" fill="#000000">delegates</text>
</g>
<!-- 266b0ad9&#45;0078&#45;40a2&#45;83c0&#45;8b104230c170 -->
<g id="node6" class="node">
<title>266b0ad9&#45;0078&#45;40a2&#45;83c0&#45;8b104230c170</title>
<polygon fill="#ffe4c4" stroke="#ffe4c4" points="1327.9011,-469.4019 1197.2551,-469.4019 1197.2551,-428.1981 1327.9011,-428.1981 1327.9011,-469.4019"/>
<text text-anchor="middle" x="1262.5781" y="-453" font-family="Times,serif" font-size="14.00" fill="#000000">@PerActivity</text>
<text text-anchor="middle" x="1262.5781" y="-436.2" font-family="Times,serif" font-size="14.00" fill="#000000">AppCompatActivity</text>
</g>
<!-- c67ed9ea&#45;161a&#45;4763&#45;91e3&#45;2c0ed0a4dc25&#45;&gt;266b0ad9&#45;0078&#45;40a2&#45;83c0&#45;8b104230c170 -->
<g id="edge7" class="edge">
<title>c67ed9ea&#45;161a&#45;4763&#45;91e3&#45;2c0ed0a4dc25&#45;&gt;266b0ad9&#45;0078&#45;40a2&#45;83c0&#45;8b104230c170</title>
<path fill="none" stroke="#000000" d="M896.4741,-422.5995C969.9671,-427.8591 1103.1043,-437.3871 1186.9672,-443.3889"/>
<polygon fill="#000000" stroke="#000000" points="1186.9714,-446.898 1197.1957,-444.1209 1187.4711,-439.9159 1186.9714,-446.898"/>
</g>
<!-- a96cd203&#45;7325&#45;44a0&#45;b1b7&#45;6d0a02be8578 -->
<g id="node11" class="node">
<title>a96cd203&#45;7325&#45;44a0&#45;b1b7&#45;6d0a02be8578</title>
<polygon fill="#7fffd4" stroke="#7fffd4" points="1088.0057,-332.4019 1005.8801,-332.4019 1005.8801,-291.1981 1088.0057,-291.1981 1088.0057,-332.4019"/>
<text text-anchor="middle" x="1046.9429" y="-316" font-family="Times,serif" font-size="14.00" fill="#000000">@Singleton</text>
<text text-anchor="middle" x="1046.9429" y="-299.2" font-family="Times,serif" font-size="14.00" fill="#000000">Scheduler</text>
</g>
<!-- c67ed9ea&#45;161a&#45;4763&#45;91e3&#45;2c0ed0a4dc25&#45;&gt;a96cd203&#45;7325&#45;44a0&#45;b1b7&#45;6d0a02be8578 -->
<g id="edge8" class="edge">
<title>c67ed9ea&#45;161a&#45;4763&#45;91e3&#45;2c0ed0a4dc25&#45;&gt;a96cd203&#45;7325&#45;44a0&#45;b1b7&#45;6d0a02be8578</title>
<path fill="none" stroke="#000000" d="M882.6312,-398.1693C915.6141,-380.8321 962.9012,-355.9759 998.2859,-337.3762"/>
<polygon fill="#000000" stroke="#000000" points="1000.245,-340.3005 1007.4682,-332.5496 996.988,-334.1044 1000.245,-340.3005"/>
</g>
<!-- 88292ae7&#45;15e6&#45;4ad8&#45;9df8&#45;ebdc298715c1 -->
<g id="node5" class="node">
<title>88292ae7&#45;15e6&#45;4ad8&#45;9df8&#45;ebdc298715c1</title>
<polygon fill="#ffe4c4" stroke="#ffe4c4" points="890.3177,-499.4019 796.4477,-499.4019 796.4477,-458.1981 890.3177,-458.1981 890.3177,-499.4019"/>
<text text-anchor="middle" x="843.3827" y="-483" font-family="Times,serif" font-size="14.00" fill="#000000">@PerActivity</text>
<text text-anchor="middle" x="843.3827" y="-466.2" font-family="Times,serif" font-size="14.00" fill="#000000">Navigator</text>
</g>
<!-- 6c492548&#45;eb21&#45;4b4f&#45;83a9&#45;2059b0717b68&#45;&gt;88292ae7&#45;15e6&#45;4ad8&#45;9df8&#45;ebdc298715c1 -->
<g id="edge9" class="edge">
<title>6c492548&#45;eb21&#45;4b4f&#45;83a9&#45;2059b0717b68&#45;&gt;88292ae7&#45;15e6&#45;4ad8&#45;9df8&#45;ebdc298715c1</title>
<path fill="none" stroke="#000000" d="M715.5461,-437.702C738.2561,-445.003 764.1413,-453.3248 786.6519,-460.5617"/>
<polygon fill="#000000" stroke="#000000" points="785.8111,-463.9678 796.4024,-463.6964 787.9536,-457.3037 785.8111,-463.9678"/>
</g>
<!-- eca02f70&#45;96e1&#45;443a&#45;95d1&#45;4e8cc1e52fdd -->
<g id="node12" class="node">
<title>eca02f70&#45;96e1&#45;443a&#45;95d1&#45;4e8cc1e52fdd</title>
<polygon fill="#7fffd4" stroke="#7fffd4" points="1095.7751,-273.2014 998.1107,-273.2014 998.1107,-214.3986 1095.7751,-214.3986 1095.7751,-273.2014"/>
<text text-anchor="middle" x="1046.9429" y="-256.4" font-family="Times,serif" font-size="14.00" fill="#000000">@AppContext</text>
<text text-anchor="middle" x="1046.9429" y="-239.6" font-family="Times,serif" font-size="14.00" fill="#000000">@Singleton</text>
<text text-anchor="middle" x="1046.9429" y="-222.8" font-family="Times,serif" font-size="14.00" fill="#000000">Context</text>
</g>
<!-- 6c492548&#45;eb21&#45;4b4f&#45;83a9&#45;2059b0717b68&#45;&gt;eca02f70&#45;96e1&#45;443a&#45;95d1&#45;4e8cc1e52fdd -->
<g id="edge10" class="edge">
<title>6c492548&#45;eb21&#45;4b4f&#45;83a9&#45;2059b0717b68&#45;&gt;eca02f70&#45;96e1&#45;443a&#45;95d1&#45;4e8cc1e52fdd</title>
<path fill="none" stroke="#000000" d="M692.7791,-397.9581C743.5023,-369.1937 839.4055,-316.9085 925.469,-281.8 945.6014,-273.5872 968.2038,-266.0738 988.403,-259.9355"/>
<polygon fill="#000000" stroke="#000000" points="989.5258,-263.253 998.1046,-257.0356 987.521,-256.5462 989.5258,-263.253"/>
</g>
<!-- 88292ae7&#45;15e6&#45;4ad8&#45;9df8&#45;ebdc298715c1&#45;&gt;266b0ad9&#45;0078&#45;40a2&#45;83c0&#45;8b104230c170 -->
<g id="edge11" class="edge">
<title>88292ae7&#45;15e6&#45;4ad8&#45;9df8&#45;ebdc298715c1&#45;&gt;266b0ad9&#45;0078&#45;40a2&#45;83c0&#45;8b104230c170</title>
<path fill="none" stroke="#000000" d="M890.2495,-475.4459C962.281,-470.291 1100.8962,-460.3709 1187.1704,-454.1966"/>
<polygon fill="#000000" stroke="#000000" points="1187.4401,-457.6863 1197.1647,-453.4814 1186.9403,-450.7042 1187.4401,-457.6863"/>
</g>
<!-- dc6fd411&#45;8260&#45;4719&#45;b257&#45;ed2aa4928078 -->
<g id="node7" class="node">
<title>dc6fd411&#45;8260&#45;4719&#45;b257&#45;ed2aa4928078</title>
<polygon fill="#40e0d0" stroke="#40e0d0" points="1648.4166,-466.8 1493.4822,-466.8 1453.6257,-430.8 1608.5601,-430.8 1648.4166,-466.8"/>
<text text-anchor="middle" x="1551.0211" y="-444.6" font-family="Times,serif" font-size="14.00" fill="#000000">StatusActivity</text>
</g>
<!-- 266b0ad9&#45;0078&#45;40a2&#45;83c0&#45;8b104230c170&#45;&gt;dc6fd411&#45;8260&#45;4719&#45;b257&#45;ed2aa4928078 -->
<g id="edge12" class="edge">
<title>266b0ad9&#45;0078&#45;40a2&#45;83c0&#45;8b104230c170&#45;&gt;dc6fd411&#45;8260&#45;4719&#45;b257&#45;ed2aa4928078</title>
<path fill="none" stroke="#000000" stroke-dasharray="1,5" d="M1328.0303,-448.8C1368.1235,-448.8 1419.9324,-448.8 1463.5194,-448.8"/>
<polygon fill="#000000" stroke="#000000" points="1463.5459,-452.3001 1473.5459,-448.8 1463.5459,-445.3001 1463.5459,-452.3001"/>
<text text-anchor="middle" x="1390.7815" y="-453" font-family="Times,serif" font-size="14.00" fill="#000000">delegates</text>
</g>
</g>
</svg>
