<svg width="1698px" height="624px"
 viewBox="0.00 0.00 1697.66 623.60" xmlns="http://www.w3.org/2000/svg" xmlns:xlink="http://www.w3.org/1999/xlink">
<g id="graph0" class="graph" transform="scale(1.0 1.0) rotate(0) translate(14.4 609.2)">
<title>org.owntracks.android.injection.components.AppComponent → org.owntracks.android.injection.modules.AndroidBindingModule_BindEditorActivity.EditorActivitySubcomponent</title>
<polygon fill="#ffffff" stroke="transparent" points="-14.4,14.4 -14.4,-609.2 1683.2646,-609.2 1683.2646,14.4 -14.4,14.4"/>
<text text-anchor="middle" x="270.8703" y="-8.2" font-family="Times,serif" font-size="14.00" fill="#000000">AppComponent → AndroidBindingModule_BindEditorActivity.EditorActivitySubcomponent</text>
<g id="clust1" class="cluster">
<title>cluster_Entry Points</title>
<polygon fill="none" stroke="#000000" points="8,-211.8 8,-288.8 164.8002,-288.8 164.8002,-211.8 8,-211.8"/>
<text text-anchor="middle" x="50.8061" y="-272.2" font-family="Times,serif" font-size="14.00" fill="#000000">Entry Points</text>
</g>
<g id="clust4" class="cluster">
<title>cluster_AppComponent → AndroidBindingModule_BindEditorActivity.EditorActivitySubcomponent</title>
<g id="a_clust4"><a xlink:href="org.owntracks.android.injection.modules.AndroidBindingModule_BindEditorActivity.EditorActivitySubcomponent.svg" xlink:title="Inherited from AndroidBindingModule_BindEditorActivity.EditorActivitySubcomponent\n@PerActivity">
<polygon fill="none" stroke="#ffe4c4" stroke-dasharray="5,2" points="185.8002,-427.8 185.8002,-586.8 1660.8646,-586.8 1660.8646,-427.8 185.8002,-427.8"/>
<text text-anchor="middle" x="923.3324" y="-570.2" font-family="Times,serif" font-size="14.00" fill="#000000">Inherited from AndroidBindingModule_BindEditorActivity.EditorActivitySubcomponent</text>
<text text-anchor="middle" x="923.3324" y="-553.4" font-family="Times,serif" font-size="14.00" fill="#000000">@PerActivity</text>
</a>
</g>
</g>
<g id="clust5" class="cluster">
<title>cluster_AppComponent</title>
<g id="a_clust5"><a xlink:href="org.owntracks.android.injection.components.AppComponent.svg" xlink:title="Inherited from AppComponent\n@Singleton">
<polygon fill="none" stroke="#7fffd4" stroke-dasharray="5,2" points="747.382,-32.8 747.382,-419.8 990.3298,-419.8 990.3298,-32.8 747.382,-32.8"/>
<text text-anchor="middle" x="868.8559" y="-403.2" font-family="Times,serif" font-size="14.00" fill="#000000">Inherited from AppComponent</text>
<text text-anchor="middle" x="868.8559" y="-386.4" font-family="Times,serif" font-size="14.00" fill="#000000">@Singleton</text>
</a>
</g>
</g>
<!-- 931b62ee&#45;48b8&#45;42a1&#45;b4f0&#45;d9c19ff04a0f -->
<g id="node1" class="node">
<title>931b62ee&#45;48b8&#45;42a1&#45;b4f0&#45;d9c19ff04a0f</title>
<polygon fill="#40e0d0" stroke="#40e0d0" stroke-width="2" points="156.7004,-255.8 16.0998,-255.8 16.0998,-251.8 12.0998,-251.8 12.0998,-247.8 16.0998,-247.8 16.0998,-227.8 12.0998,-227.8 12.0998,-223.8 16.0998,-223.8 16.0998,-219.8 156.7004,-219.8 156.7004,-255.8"/>
<polyline fill="none" stroke="#40e0d0" stroke-width="2" points="16.0998,-251.8 20.0998,-251.8 20.0998,-247.8 16.0998,-247.8 "/>
<polyline fill="none" stroke="#40e0d0" stroke-width="2" points="16.0998,-227.8 20.0998,-227.8 20.0998,-223.8 16.0998,-223.8 "/>
<text text-anchor="middle" x="86.4001" y="-233.6" font-family="Times,serif" font-size="14.00" fill="#000000">inject (EditorActivity)</text>
</g>
<!-- 522bf0ed&#45;0cce&#45;47d7&#45;b218&#45;822e30369435 -->
<g id="node2" class="node">
<title>522bf0ed&#45;0cce&#45;47d7&#45;b218&#45;822e30369435</title>
<polygon fill="#40e0d0" stroke="#40e0d0" points="474.2529,-502.8 193.9825,-502.8 193.9825,-466.8 474.2529,-466.8 474.2529,-502.8"/>
<text text-anchor="middle" x="334.1177" y="-480.6" font-family="Times,serif" font-size="14.00" fill="#000000">EditorMvvm.ViewModel&lt;EditorMvvm.View&gt;</text>
</g>
<!-- 931b62ee&#45;48b8&#45;42a1&#45;b4f0&#45;d9c19ff04a0f&#45;&gt;522bf0ed&#45;0cce&#45;47d7&#45;b218&#45;822e30369435 -->
<g id="edge9" class="edge">
<title>931b62ee&#45;48b8&#45;42a1&#45;b4f0&#45;d9c19ff04a0f&#45;&gt;522bf0ed&#45;0cce&#45;47d7&#45;b218&#45;822e30369435</title>
<path fill="none" stroke="#000000" d="M88.2707,-256.0529C93.5648,-297.732 112.5704,-400.2663 174.8002,-451.8 179.2192,-455.4595 183.94,-458.746 188.8868,-461.6957"/>
<polygon fill="#000000" stroke="#000000" points="187.56,-464.9577 198.0189,-466.6492 190.8976,-458.8046 187.56,-464.9577"/>
</g>
<!-- 78e57a47&#45;d282&#45;466a&#45;b16b&#45;3b3b07a5d861 -->
<g id="node3" class="node">
<title>78e57a47&#45;d282&#45;466a&#45;b16b&#45;3b3b07a5d861</title>
<polygon fill="#ffe4c4" stroke="#ffe4c4" points="1125.5888,-477.4019 1019.2434,-477.4019 1019.2434,-436.1981 1125.5888,-436.1981 1125.5888,-477.4019"/>
<text text-anchor="middle" x="1072.4161" y="-461" font-family="Times,serif" font-size="14.00" fill="#000000">@PerActivity</text>
<text text-anchor="middle" x="1072.4161" y="-444.2" font-family="Times,serif" font-size="14.00" fill="#000000">DrawerProvider</text>
</g>
<!-- 931b62ee&#45;48b8&#45;42a1&#45;b4f0&#45;d9c19ff04a0f&#45;&gt;78e57a47&#45;d282&#45;466a&#45;b16b&#45;3b3b07a5d861 -->
<g id="edge5" class="edge">
<title>931b62ee&#45;48b8&#45;42a1&#45;b4f0&#45;d9c19ff04a0f&#45;&gt;78e57a47&#45;d282&#45;466a&#45;b16b&#45;3b3b07a5d861</title>
<path fill="none" stroke="#000000" d="M89.8109,-256.0678C97.6674,-292.6089 120.6841,-374.5562 174.8002,-413.8 232.7688,-455.8376 262.511,-437.8 334.1177,-437.8 334.1177,-437.8 334.1177,-437.8 868.8559,-437.8 915.8743,-437.8 968.7382,-442.8875 1008.8084,-447.7973"/>
<polygon fill="#000000" stroke="#000000" points="1008.6115,-451.3 1018.9694,-449.072 1009.4829,-444.3544 1008.6115,-451.3"/>
</g>
<!-- 5a1c0f1c&#45;e0ff&#45;41d9&#45;92f7&#45;a3cba5e66887 -->
<g id="node4" class="node">
<title>5a1c0f1c&#45;e0ff&#45;41d9&#45;92f7&#45;a3cba5e66887</title>
<polygon fill="#ffe4c4" stroke="#ffe4c4" points="1119.3511,-537.4019 1025.4811,-537.4019 1025.4811,-496.1981 1119.3511,-496.1981 1119.3511,-537.4019"/>
<text text-anchor="middle" x="1072.4161" y="-521" font-family="Times,serif" font-size="14.00" fill="#000000">@PerActivity</text>
<text text-anchor="middle" x="1072.4161" y="-504.2" font-family="Times,serif" font-size="14.00" fill="#000000">Navigator</text>
</g>
<!-- 931b62ee&#45;48b8&#45;42a1&#45;b4f0&#45;d9c19ff04a0f&#45;&gt;5a1c0f1c&#45;e0ff&#45;41d9&#45;92f7&#45;a3cba5e66887 -->
<g id="edge6" class="edge">
<title>931b62ee&#45;48b8&#45;42a1&#45;b4f0&#45;d9c19ff04a0f&#45;&gt;5a1c0f1c&#45;e0ff&#45;41d9&#45;92f7&#45;a3cba5e66887</title>
<path fill="none" stroke="#000000" d="M100.7009,-256.0686C135.6265,-298.4357 230.0599,-399.8 334.1177,-399.8 334.1177,-399.8 334.1177,-399.8 582.0194,-399.8 674.9331,-399.8 900.7172,-465.2532 990.3298,-489.8 998.5456,-492.0505 1007.1551,-494.6309 1015.5796,-497.2843"/>
<polygon fill="#000000" stroke="#000000" points="1014.7583,-500.6964 1025.3495,-500.4171 1016.8958,-494.0307 1014.7583,-500.6964"/>
</g>
<!-- fc39929c&#45;f0bb&#45;4484&#45;a7d9&#45;cfd8aca7d1be -->
<g id="node8" class="node">
<title>fc39929c&#45;f0bb&#45;4484&#45;a7d9&#45;cfd8aca7d1be</title>
<polygon fill="#7fffd4" stroke="#7fffd4" points="909.9187,-370.4019 827.7931,-370.4019 827.7931,-329.1981 909.9187,-329.1981 909.9187,-370.4019"/>
<text text-anchor="middle" x="868.8559" y="-354" font-family="Times,serif" font-size="14.00" fill="#000000">@Singleton</text>
<text text-anchor="middle" x="868.8559" y="-337.2" font-family="Times,serif" font-size="14.00" fill="#000000">Parser</text>
</g>
<!-- 931b62ee&#45;48b8&#45;42a1&#45;b4f0&#45;d9c19ff04a0f&#45;&gt;fc39929c&#45;f0bb&#45;4484&#45;a7d9&#45;cfd8aca7d1be -->
<g id="edge1" class="edge">
<title>931b62ee&#45;48b8&#45;42a1&#45;b4f0&#45;d9c19ff04a0f&#45;&gt;fc39929c&#45;f0bb&#45;4484&#45;a7d9&#45;cfd8aca7d1be</title>
<path fill="none" stroke="#000000" d="M109.8381,-256.0441C152.1235,-287.0738 245.0796,-346.8 334.1177,-346.8 334.1177,-346.8 334.1177,-346.8 659.4507,-346.8 713.3615,-346.8 775.0713,-347.8064 817.4604,-348.6534"/>
<polygon fill="#000000" stroke="#000000" points="817.4671,-352.1542 827.5364,-348.859 817.61,-345.1556 817.4671,-352.1542"/>
</g>
<!-- c72f0acd&#45;a7a9&#45;4667&#45;8a21&#45;77fc2392a6b2 -->
<g id="node9" class="node">
<title>c72f0acd&#45;a7a9&#45;4667&#45;8a21&#45;77fc2392a6b2</title>
<polygon fill="#40e0d0" stroke="#40e0d0" points="922.0623,-310.8 815.6495,-310.8 815.6495,-274.8 922.0623,-274.8 922.0623,-310.8"/>
<text text-anchor="middle" x="868.8559" y="-288.6" font-family="Times,serif" font-size="14.00" fill="#000000">WaypointsRepo</text>
</g>
<!-- 931b62ee&#45;48b8&#45;42a1&#45;b4f0&#45;d9c19ff04a0f&#45;&gt;c72f0acd&#45;a7a9&#45;4667&#45;8a21&#45;77fc2392a6b2 -->
<g id="edge10" class="edge">
<title>931b62ee&#45;48b8&#45;42a1&#45;b4f0&#45;d9c19ff04a0f&#45;&gt;c72f0acd&#45;a7a9&#45;4667&#45;8a21&#45;77fc2392a6b2</title>
<path fill="none" stroke="#000000" d="M142.8133,-255.8511C192.6034,-270.173 267.4295,-287.8 334.1177,-287.8 334.1177,-287.8 334.1177,-287.8 659.4507,-287.8 708.3963,-287.8 763.7588,-289.1821 805.2611,-290.493"/>
<polygon fill="#000000" stroke="#000000" points="805.3938,-293.999 815.5016,-290.8239 805.6199,-287.0027 805.3938,-293.999"/>
</g>
<!-- 17df815c&#45;2b30&#45;422d&#45;b8d8&#45;30e6aa2ae29b -->
<g id="node10" class="node">
<title>17df815c&#45;2b30&#45;422d&#45;b8d8&#45;30e6aa2ae29b</title>
<polygon fill="#7fffd4" stroke="#7fffd4" points="909.9187,-256.4019 827.7931,-256.4019 827.7931,-215.1981 909.9187,-215.1981 909.9187,-256.4019"/>
<text text-anchor="middle" x="868.8559" y="-240" font-family="Times,serif" font-size="14.00" fill="#000000">@Singleton</text>
<text text-anchor="middle" x="868.8559" y="-223.2" font-family="Times,serif" font-size="14.00" fill="#000000">Preferences</text>
</g>
<!-- 931b62ee&#45;48b8&#45;42a1&#45;b4f0&#45;d9c19ff04a0f&#45;&gt;17df815c&#45;2b30&#45;422d&#45;b8d8&#45;30e6aa2ae29b -->
<g id="edge2" class="edge">
<title>931b62ee&#45;48b8&#45;42a1&#45;b4f0&#45;d9c19ff04a0f&#45;&gt;17df815c&#45;2b30&#45;422d&#45;b8d8&#45;30e6aa2ae29b</title>
<path fill="none" stroke="#000000" d="M156.8725,-230.2407C206.445,-228.8 274.3386,-228.8 334.1177,-228.8 334.1177,-228.8 334.1177,-228.8 659.4507,-228.8 713.3584,-228.8 775.0687,-228.1291 817.4588,-229.3131"/>
<polygon fill="#000000" stroke="#000000" points="817.4251,-232.8138 827.535,-229.6453 817.6558,-225.8176 817.4251,-232.8138"/>
</g>
<!-- 931b62ee&#45;48b8&#45;42a1&#45;b4f0&#45;d9c19ff04a0f&#45;&gt;17df815c&#45;2b30&#45;422d&#45;b8d8&#45;30e6aa2ae29b -->
<g id="edge3" class="edge">
<title>931b62ee&#45;48b8&#45;42a1&#45;b4f0&#45;d9c19ff04a0f&#45;&gt;17df815c&#45;2b30&#45;422d&#45;b8d8&#45;30e6aa2ae29b</title>
<path fill="none" stroke="#000000" d="M156.8725,-245.3593C206.445,-246.8 274.3386,-246.8 334.1177,-246.8 334.1177,-246.8 334.1177,-246.8 659.4507,-246.8 713.3584,-246.8 775.0687,-246.1291 817.4588,-243.8157"/>
<polygon fill="#000000" stroke="#000000" points="817.7633,-247.3038 827.535,-243.2094 817.3429,-240.3164 817.7633,-247.3038"/>
</g>
<!-- 0394f89c&#45;21ad&#45;4ba6&#45;aa0f&#45;c7966ea7d7a5 -->
<g id="node11" class="node">
<title>0394f89c&#45;21ad&#45;4ba6&#45;aa0f&#45;c7966ea7d7a5</title>
<polygon fill="#7fffd4" stroke="#7fffd4" points="909.9187,-196.4019 827.7931,-196.4019 827.7931,-155.1981 909.9187,-155.1981 909.9187,-196.4019"/>
<text text-anchor="middle" x="868.8559" y="-180" font-family="Times,serif" font-size="14.00" fill="#000000">@Singleton</text>
<text text-anchor="middle" x="868.8559" y="-163.2" font-family="Times,serif" font-size="14.00" fill="#000000">EventBus</text>
</g>
<!-- 931b62ee&#45;48b8&#45;42a1&#45;b4f0&#45;d9c19ff04a0f&#45;&gt;0394f89c&#45;21ad&#45;4ba6&#45;aa0f&#45;c7966ea7d7a5 -->
<g id="edge4" class="edge">
<title>931b62ee&#45;48b8&#45;42a1&#45;b4f0&#45;d9c19ff04a0f&#45;&gt;0394f89c&#45;21ad&#45;4ba6&#45;aa0f&#45;c7966ea7d7a5</title>
<path fill="none" stroke="#000000" d="M118.7305,-219.7255C165.529,-200.1788 255.1935,-172.8 334.1177,-172.8 334.1177,-172.8 334.1177,-172.8 659.4507,-172.8 713.3781,-172.8 775.0853,-170.7872 817.4692,-170.8419"/>
<polygon fill="#000000" stroke="#000000" points="817.5239,-174.3422 827.5439,-170.8999 817.5643,-167.3423 817.5239,-174.3422"/>
</g>
<!-- 931b62ee&#45;48b8&#45;42a1&#45;b4f0&#45;d9c19ff04a0f&#45;&gt;0394f89c&#45;21ad&#45;4ba6&#45;aa0f&#45;c7966ea7d7a5 -->
<g id="edge8" class="edge">
<title>931b62ee&#45;48b8&#45;42a1&#45;b4f0&#45;d9c19ff04a0f&#45;&gt;0394f89c&#45;21ad&#45;4ba6&#45;aa0f&#45;c7966ea7d7a5</title>
<path fill="none" stroke="#000000" d="M156.7243,-220.7386C205.7973,-207.132 273.1608,-190.8 334.1177,-190.8 334.1177,-190.8 334.1177,-190.8 659.4507,-190.8 713.3781,-190.8 775.0853,-188.7872 817.4692,-185.3445"/>
<polygon fill="#000000" stroke="#000000" points="817.8866,-188.8214 827.5439,-184.464 817.2772,-181.848 817.8866,-188.8214"/>
</g>
<!-- eb0e2adf&#45;88ef&#45;4bc2&#45;b372&#45;2ec58a0a4fb8 -->
<g id="node12" class="node">
<title>eb0e2adf&#45;88ef&#45;4bc2&#45;b372&#45;2ec58a0a4fb8</title>
<polygon fill="#40e0d0" stroke="#40e0d0" points="982.3037,-136.8 755.4081,-136.8 755.4081,-100.8 982.3037,-100.8 982.3037,-136.8"/>
<text text-anchor="middle" x="868.8559" y="-114.6" font-family="Times,serif" font-size="14.00" fill="#000000">DispatchingAndroidInjector&lt;Object&gt;</text>
</g>
<!-- 931b62ee&#45;48b8&#45;42a1&#45;b4f0&#45;d9c19ff04a0f&#45;&gt;eb0e2adf&#45;88ef&#45;4bc2&#45;b372&#45;2ec58a0a4fb8 -->
<g id="edge7" class="edge">
<title>931b62ee&#45;48b8&#45;42a1&#45;b4f0&#45;d9c19ff04a0f&#45;&gt;eb0e2adf&#45;88ef&#45;4bc2&#45;b372&#45;2ec58a0a4fb8</title>
<path fill="none" stroke="#000000" d="M109.4778,-219.6357C151.5642,-188.3927 244.7113,-127.8 334.1177,-127.8 334.1177,-127.8 334.1177,-127.8 659.4507,-127.8 687.1601,-127.8 716.9129,-127.0037 745.0418,-125.8848"/>
<polygon fill="#000000" stroke="#000000" points="745.4783,-129.3698 755.3249,-125.4589 745.1885,-122.3758 745.4783,-129.3698"/>
</g>
<!-- 7adb5c6c&#45;7bba&#45;4bce&#45;afb6&#45;5a4c771a9e35 -->
<g id="node5" class="node">
<title>7adb5c6c&#45;7bba&#45;4bce&#45;afb6&#45;5a4c771a9e35</title>
<polygon fill="#ffe4c4" stroke="#ffe4c4" points="718.3134,-507.4019 600.588,-507.4019 600.588,-466.1981 718.3134,-466.1981 718.3134,-507.4019"/>
<text text-anchor="middle" x="659.4507" y="-491" font-family="Times,serif" font-size="14.00" fill="#000000">@PerActivity</text>
<text text-anchor="middle" x="659.4507" y="-474.2" font-family="Times,serif" font-size="14.00" fill="#000000">EditorViewModel</text>
</g>
<!-- 522bf0ed&#45;0cce&#45;47d7&#45;b218&#45;822e30369435&#45;&gt;7adb5c6c&#45;7bba&#45;4bce&#45;afb6&#45;5a4c771a9e35 -->
<g id="edge11" class="edge">
<title>522bf0ed&#45;0cce&#45;47d7&#45;b218&#45;822e30369435&#45;&gt;7adb5c6c&#45;7bba&#45;4bce&#45;afb6&#45;5a4c771a9e35</title>
<path fill="none" stroke="#000000" stroke-dasharray="1,5" d="M474.4487,-485.6627C514.5027,-485.9089 556.3983,-486.1665 590.1718,-486.3741"/>
<polygon fill="#000000" stroke="#000000" points="590.36,-489.8752 600.3814,-486.4369 590.4031,-482.8754 590.36,-489.8752"/>
<text text-anchor="middle" x="537.4773" y="-490" font-family="Times,serif" font-size="14.00" fill="#000000">delegates</text>
</g>
<!-- 708e5969&#45;9f99&#45;488b&#45;be47&#45;2ddfcec342c6 -->
<g id="node6" class="node">
<title>708e5969&#45;9f99&#45;488b&#45;be47&#45;2ddfcec342c6</title>
<polygon fill="#ffe4c4" stroke="#ffe4c4" points="1330.9867,-507.4019 1200.3407,-507.4019 1200.3407,-466.1981 1330.9867,-466.1981 1330.9867,-507.4019"/>
<text text-anchor="middle" x="1265.6637" y="-491" font-family="Times,serif" font-size="14.00" fill="#000000">@PerActivity</text>
<text text-anchor="middle" x="1265.6637" y="-474.2" font-family="Times,serif" font-size="14.00" fill="#000000">AppCompatActivity</text>
</g>
<!-- 78e57a47&#45;d282&#45;466a&#45;b16b&#45;3b3b07a5d861&#45;&gt;708e5969&#45;9f99&#45;488b&#45;be47&#45;2ddfcec342c6 -->
<g id="edge12" class="edge">
<title>78e57a47&#45;d282&#45;466a&#45;b16b&#45;3b3b07a5d861&#45;&gt;708e5969&#45;9f99&#45;488b&#45;be47&#45;2ddfcec342c6</title>
<path fill="none" stroke="#000000" d="M1125.7334,-465.077C1145.6975,-468.1763 1168.7716,-471.7583 1190.3528,-475.1086"/>
<polygon fill="#000000" stroke="#000000" points="1190.0571,-478.6046 1200.4757,-476.6801 1191.131,-471.6874 1190.0571,-478.6046"/>
</g>
<!-- 88b79640&#45;6d41&#45;48e6&#45;9189&#45;31a55d141b61 -->
<g id="node13" class="node">
<title>88b79640&#45;6d41&#45;48e6&#45;9189&#45;31a55d141b61</title>
<polygon fill="#7fffd4" stroke="#7fffd4" points="909.9187,-82.4019 827.7931,-82.4019 827.7931,-41.1981 909.9187,-41.1981 909.9187,-82.4019"/>
<text text-anchor="middle" x="868.8559" y="-66" font-family="Times,serif" font-size="14.00" fill="#000000">@Singleton</text>
<text text-anchor="middle" x="868.8559" y="-49.2" font-family="Times,serif" font-size="14.00" fill="#000000">Scheduler</text>
</g>
<!-- 78e57a47&#45;d282&#45;466a&#45;b16b&#45;3b3b07a5d861&#45;&gt;88b79640&#45;6d41&#45;48e6&#45;9189&#45;31a55d141b61 -->
<g id="edge13" class="edge">
<title>78e57a47&#45;d282&#45;466a&#45;b16b&#45;3b3b07a5d861&#45;&gt;88b79640&#45;6d41&#45;48e6&#45;9189&#45;31a55d141b61</title>
<path fill="none" stroke="#000000" d="M1070.5794,-436.0389C1063.9913,-366.2677 1039.2963,-141.8011 990.3298,-91.8 972.1765,-73.2632 944.5208,-65.493 920.1808,-62.478"/>
<polygon fill="#000000" stroke="#000000" points="920.2883,-58.9714 909.9898,-61.4595 919.5921,-65.9367 920.2883,-58.9714"/>
</g>
<!-- 5a1c0f1c&#45;e0ff&#45;41d9&#45;92f7&#45;a3cba5e66887&#45;&gt;708e5969&#45;9f99&#45;488b&#45;be47&#45;2ddfcec342c6 -->
<g id="edge15" class="edge">
<title>5a1c0f1c&#45;e0ff&#45;41d9&#45;92f7&#45;a3cba5e66887&#45;&gt;708e5969&#45;9f99&#45;488b&#45;be47&#45;2ddfcec342c6</title>
<path fill="none" stroke="#000000" d="M1119.196,-509.5378C1140.5034,-506.23 1166.264,-502.2309 1190.2022,-498.5147"/>
<polygon fill="#000000" stroke="#000000" points="1190.9868,-501.9349 1200.3315,-496.9423 1189.9129,-495.0178 1190.9868,-501.9349"/>
</g>
<!-- 7adb5c6c&#45;7bba&#45;4bce&#45;afb6&#45;5a4c771a9e35&#45;&gt;5a1c0f1c&#45;e0ff&#45;41d9&#45;92f7&#45;a3cba5e66887 -->
<g id="edge14" class="edge">
<title>7adb5c6c&#45;7bba&#45;4bce&#45;afb6&#45;5a4c771a9e35&#45;&gt;5a1c0f1c&#45;e0ff&#45;41d9&#45;92f7&#45;a3cba5e66887</title>
<path fill="none" stroke="#000000" d="M718.6186,-491.0983C797.8054,-496.8508 937.3076,-506.985 1015.3895,-512.6573"/>
<polygon fill="#000000" stroke="#000000" points="1015.2968,-516.1597 1025.5241,-513.3935 1015.8041,-509.1781 1015.2968,-516.1597"/>
</g>
<!-- 7adb5c6c&#45;7bba&#45;4bce&#45;afb6&#45;5a4c771a9e35&#45;&gt;fc39929c&#45;f0bb&#45;4484&#45;a7d9&#45;cfd8aca7d1be -->
<g id="edge16" class="edge">
<title>7adb5c6c&#45;7bba&#45;4bce&#45;afb6&#45;5a4c771a9e35&#45;&gt;fc39929c&#45;f0bb&#45;4484&#45;a7d9&#45;cfd8aca7d1be</title>
<path fill="none" stroke="#000000" d="M687.1951,-466.1153C704.3192,-453.5517 726.8637,-437.3729 747.382,-423.8 772.5845,-407.1285 801.4481,-389.4872 824.7144,-375.6124"/>
<polygon fill="#000000" stroke="#000000" points="826.5286,-378.6058 833.3381,-370.4891 822.9532,-372.5877 826.5286,-378.6058"/>
</g>
<!-- 7adb5c6c&#45;7bba&#45;4bce&#45;afb6&#45;5a4c771a9e35&#45;&gt;c72f0acd&#45;a7a9&#45;4667&#45;8a21&#45;77fc2392a6b2 -->
<g id="edge17" class="edge">
<title>7adb5c6c&#45;7bba&#45;4bce&#45;afb6&#45;5a4c771a9e35&#45;&gt;c72f0acd&#45;a7a9&#45;4667&#45;8a21&#45;77fc2392a6b2</title>
<path fill="none" stroke="#000000" d="M669.7884,-466.0566C691.6129,-422.4229 740.9217,-324.736 747.382,-319.8 763.9767,-307.1209 785.3596,-300.1674 805.5483,-296.4233"/>
<polygon fill="#000000" stroke="#000000" points="806.3375,-299.8412 815.6498,-294.7883 805.219,-292.9311 806.3375,-299.8412"/>
</g>
<!-- 7adb5c6c&#45;7bba&#45;4bce&#45;afb6&#45;5a4c771a9e35&#45;&gt;17df815c&#45;2b30&#45;422d&#45;b8d8&#45;30e6aa2ae29b -->
<g id="edge18" class="edge">
<title>7adb5c6c&#45;7bba&#45;4bce&#45;afb6&#45;5a4c771a9e35&#45;&gt;17df815c&#45;2b30&#45;422d&#45;b8d8&#45;30e6aa2ae29b</title>
<path fill="none" stroke="#000000" d="M661.4567,-466.1828C666.8579,-422.352 685.7585,-319.5348 747.382,-265.8 766.6504,-248.9982 793.875,-241.3043 817.6685,-237.8952"/>
<polygon fill="#000000" stroke="#000000" points="818.1192,-241.3662 827.6224,-236.6824 817.2725,-234.4176 818.1192,-241.3662"/>
</g>
<!-- 7bebe62f&#45;3a07&#45;4cf7&#45;8e5f&#45;9035b735a5c9 -->
<g id="node7" class="node">
<title>7bebe62f&#45;3a07&#45;4cf7&#45;8e5f&#45;9035b735a5c9</title>
<polygon fill="#40e0d0" stroke="#40e0d0" points="1652.8423,-504.8 1497.0172,-504.8 1456.9315,-468.8 1612.7566,-468.8 1652.8423,-504.8"/>
<text text-anchor="middle" x="1554.8869" y="-482.6" font-family="Times,serif" font-size="14.00" fill="#000000">EditorActivity</text>
</g>
<!-- 708e5969&#45;9f99&#45;488b&#45;be47&#45;2ddfcec342c6&#45;&gt;7bebe62f&#45;3a07&#45;4cf7&#45;8e5f&#45;9035b735a5c9 -->
<g id="edge19" class="edge">
<title>708e5969&#45;9f99&#45;488b&#45;be47&#45;2ddfcec342c6&#45;&gt;7bebe62f&#45;3a07&#45;4cf7&#45;8e5f&#45;9035b735a5c9</title>
<path fill="none" stroke="#000000" stroke-dasharray="1,5" d="M1330.9317,-486.8C1371.0421,-486.8 1422.9477,-486.8 1466.6878,-486.8"/>
<polygon fill="#000000" stroke="#000000" points="1466.7511,-490.3001 1476.7511,-486.8 1466.751,-483.3001 1466.7511,-490.3001"/>
<text text-anchor="middle" x="1393.8671" y="-491" font-family="Times,serif" font-size="14.00" fill="#000000">delegates</text>
</g>
</g>
</svg>
