<svg width="1660px" height="608px"
 viewBox="0.00 0.00 1660.16 607.60" xmlns="http://www.w3.org/2000/svg" xmlns:xlink="http://www.w3.org/1999/xlink">
<g id="graph0" class="graph" transform="scale(1.0 1.0) rotate(0) translate(14.4 593.2)">
<title>org.owntracks.android.injection.components.AppComponent → org.owntracks.android.injection.modules.AndroidBindingModule_BindLoadActivity.LoadActivitySubcomponent</title>
<polygon fill="#ffffff" stroke="transparent" points="-14.4,14.4 -14.4,-593.2 1645.76,-593.2 1645.76,14.4 -14.4,14.4"/>
<text text-anchor="middle" x="264.6431" y="-8.2" font-family="Times,serif" font-size="14.00" fill="#000000">AppComponent → AndroidBindingModule_BindLoadActivity.LoadActivitySubcomponent</text>
<g id="clust1" class="cluster">
<title>cluster_Entry Points</title>
<polygon fill="none" stroke="#000000" points="8,-125.8 8,-202.8 158.573,-202.8 158.573,-125.8 8,-125.8"/>
<text text-anchor="middle" x="50.8061" y="-186.2" font-family="Times,serif" font-size="14.00" fill="#000000">Entry Points</text>
</g>
<g id="clust5" class="cluster">
<title>cluster_AppComponent</title>
<g id="a_clust5"><a xlink:href="org.owntracks.android.injection.components.AppComponent.svg" xlink:title="Inherited from AppComponent\n@Singleton">
<polygon fill="none" stroke="#7fffd4" stroke-dasharray="5,2" points="903.6458,-32.8 903.6458,-419.8 1146.5936,-419.8 1146.5936,-32.8 903.6458,-32.8"/>
<text text-anchor="middle" x="1025.1197" y="-403.2" font-family="Times,serif" font-size="14.00" fill="#000000">Inherited from AppComponent</text>
<text text-anchor="middle" x="1025.1197" y="-386.4" font-family="Times,serif" font-size="14.00" fill="#000000">@Singleton</text>
</a>
</g>
</g>
<g id="clust2" class="cluster">
<title>cluster_Dependency Graph</title>
<polygon fill="none" stroke="#000000" points="179.573,-427.8 179.573,-570.8 1623.36,-570.8 1623.36,-427.8 179.573,-427.8"/>
<text text-anchor="middle" x="241.7964" y="-554.2" font-family="Times,serif" font-size="14.00" fill="#000000">Dependency Graph</text>
</g>
<!-- 7a08bb48&#45;095c&#45;45a7&#45;9b95&#45;3b5fad328f67 -->
<g id="node1" class="node">
<title>7a08bb48&#45;095c&#45;45a7&#45;9b95&#45;3b5fad328f67</title>
<polygon fill="#40e0d0" stroke="#40e0d0" stroke-width="2" points="150.3602,-169.8 16.2128,-169.8 16.2128,-165.8 12.2128,-165.8 12.2128,-161.8 16.2128,-161.8 16.2128,-141.8 12.2128,-141.8 12.2128,-137.8 16.2128,-137.8 16.2128,-133.8 150.3602,-133.8 150.3602,-169.8"/>
<polyline fill="none" stroke="#40e0d0" stroke-width="2" points="16.2128,-165.8 20.2128,-165.8 20.2128,-161.8 16.2128,-161.8 "/>
<polyline fill="none" stroke="#40e0d0" stroke-width="2" points="16.2128,-141.8 20.2128,-141.8 20.2128,-137.8 16.2128,-137.8 "/>
<text text-anchor="middle" x="83.2865" y="-147.6" font-family="Times,serif" font-size="14.00" fill="#000000">inject (LoadActivity)</text>
</g>
<!-- a42671c2&#45;3d40&#45;4fcd&#45;8be9&#45;a1c0912853c2 -->
<g id="node2" class="node">
<title>a42671c2&#45;3d40&#45;4fcd&#45;8be9&#45;a1c0912853c2</title>
<polygon fill="#40e0d0" stroke="#40e0d0" points="455.844,-472.8 187.4826,-472.8 187.4826,-436.8 455.844,-436.8 455.844,-472.8"/>
<text text-anchor="middle" x="321.6633" y="-450.6" font-family="Times,serif" font-size="14.00" fill="#000000">LoadMvvm.ViewModel&lt;LoadMvvm.View&gt;</text>
</g>
<!-- 7a08bb48&#45;095c&#45;45a7&#45;9b95&#45;3b5fad328f67&#45;&gt;a42671c2&#45;3d40&#45;4fcd&#45;8be9&#45;a1c0912853c2 -->
<g id="edge1" class="edge">
<title>7a08bb48&#45;095c&#45;45a7&#45;9b95&#45;3b5fad328f67&#45;&gt;a42671c2&#45;3d40&#45;4fcd&#45;8be9&#45;a1c0912853c2</title>
<path fill="none" stroke="#000000" d="M95.9686,-169.8817C112.352,-193.0797 141.9362,-234.427 168.573,-268.8 213.6349,-326.9493 269.048,-393.0021 299.3135,-428.6444"/>
<polygon fill="#000000" stroke="#000000" points="296.9442,-431.261 306.0893,-436.6105 302.2762,-426.7256 296.9442,-431.261"/>
</g>
<!-- 2c554c98&#45;f6ff&#45;496f&#45;90f1&#45;018274dd2147 -->
<g id="node3" class="node">
<title>2c554c98&#45;f6ff&#45;496f&#45;90f1&#45;018274dd2147</title>
<polygon fill="#ffe4c4" stroke="#ffe4c4" points="874.7322,-477.4019 768.3868,-477.4019 768.3868,-436.1981 874.7322,-436.1981 874.7322,-477.4019"/>
<text text-anchor="middle" x="821.5595" y="-461" font-family="Times,serif" font-size="14.00" fill="#000000">@PerActivity</text>
<text text-anchor="middle" x="821.5595" y="-444.2" font-family="Times,serif" font-size="14.00" fill="#000000">DrawerProvider</text>
</g>
<!-- 7a08bb48&#45;095c&#45;45a7&#45;9b95&#45;3b5fad328f67&#45;&gt;2c554c98&#45;f6ff&#45;496f&#45;90f1&#45;018274dd2147 -->
<g id="edge3" class="edge">
<title>7a08bb48&#45;095c&#45;45a7&#45;9b95&#45;3b5fad328f67&#45;&gt;2c554c98&#45;f6ff&#45;496f&#45;90f1&#45;018274dd2147</title>
<path fill="none" stroke="#000000" d="M118.6255,-169.9398C133.6888,-177.0369 151.6607,-184.6851 168.573,-189.8 234.6324,-209.7788 252.6489,-215.8 321.6633,-215.8 321.6633,-215.8 321.6633,-215.8 730.9732,-215.8 775.3256,-215.8 805.3507,-360.6267 816.6085,-425.7398"/>
<polygon fill="#000000" stroke="#000000" points="813.1969,-426.557 818.3134,-435.8344 820.0991,-425.3912 813.1969,-426.557"/>
</g>
<!-- 073b31cb&#45;9709&#45;433d&#45;826f&#45;43b07b8c3ed0 -->
<g id="node4" class="node">
<title>073b31cb&#45;9709&#45;433d&#45;826f&#45;43b07b8c3ed0</title>
<polygon fill="#ffe4c4" stroke="#ffe4c4" points="868.4945,-537.4019 774.6245,-537.4019 774.6245,-496.1981 868.4945,-496.1981 868.4945,-537.4019"/>
<text text-anchor="middle" x="821.5595" y="-521" font-family="Times,serif" font-size="14.00" fill="#000000">@PerActivity</text>
<text text-anchor="middle" x="821.5595" y="-504.2" font-family="Times,serif" font-size="14.00" fill="#000000">Navigator</text>
</g>
<!-- 7a08bb48&#45;095c&#45;45a7&#45;9b95&#45;3b5fad328f67&#45;&gt;073b31cb&#45;9709&#45;433d&#45;826f&#45;43b07b8c3ed0 -->
<g id="edge6" class="edge">
<title>7a08bb48&#45;095c&#45;45a7&#45;9b95&#45;3b5fad328f67&#45;&gt;073b31cb&#45;9709&#45;433d&#45;826f&#45;43b07b8c3ed0</title>
<path fill="none" stroke="#000000" d="M104.9133,-169.8888C123.6098,-184.696 151.9131,-205.1875 179.573,-217.8 238.9487,-244.8744 256.4061,-254.8 321.6633,-254.8 321.6633,-254.8 321.6633,-254.8 730.9732,-254.8 783.1979,-254.8 738.6266,-443.9444 768.4732,-486.8 769.0026,-487.5601 769.5578,-488.3033 770.1364,-489.0299"/>
<polygon fill="#000000" stroke="#000000" points="767.6353,-491.4782 777.1249,-496.1897 772.6446,-486.5888 767.6353,-491.4782"/>
</g>
<!-- 45af22ed&#45;a6e4&#45;4127&#45;af62&#45;315fc7ddbe40 -->
<g id="node8" class="node">
<title>45af22ed&#45;a6e4&#45;4127&#45;af62&#45;315fc7ddbe40</title>
<polygon fill="#7fffd4" stroke="#7fffd4" points="1066.1825,-196.4019 984.0569,-196.4019 984.0569,-155.1981 1066.1825,-155.1981 1066.1825,-196.4019"/>
<text text-anchor="middle" x="1025.1197" y="-180" font-family="Times,serif" font-size="14.00" fill="#000000">@Singleton</text>
<text text-anchor="middle" x="1025.1197" y="-163.2" font-family="Times,serif" font-size="14.00" fill="#000000">Preferences</text>
</g>
<!-- 7a08bb48&#45;095c&#45;45a7&#45;9b95&#45;3b5fad328f67&#45;&gt;45af22ed&#45;a6e4&#45;4127&#45;af62&#45;315fc7ddbe40 -->
<g id="edge2" class="edge">
<title>7a08bb48&#45;095c&#45;45a7&#45;9b95&#45;3b5fad328f67&#45;&gt;45af22ed&#45;a6e4&#45;4127&#45;af62&#45;315fc7ddbe40</title>
<path fill="none" stroke="#000000" d="M150.4061,-162.1872C198.0691,-168.6734 263.6396,-175.8 321.6633,-175.8 321.6633,-175.8 321.6633,-175.8 821.5595,-175.8 873.3607,-175.8 932.5768,-175.8 973.7343,-175.8"/>
<polygon fill="#000000" stroke="#000000" points="973.7936,-179.3001 983.7935,-175.8 973.7935,-172.3001 973.7936,-179.3001"/>
</g>
<!-- 137fa271&#45;3f88&#45;4d53&#45;872d&#45;6faf69e0e481 -->
<g id="node9" class="node">
<title>137fa271&#45;3f88&#45;4d53&#45;872d&#45;6faf69e0e481</title>
<polygon fill="#7fffd4" stroke="#7fffd4" points="1066.1825,-136.4019 984.0569,-136.4019 984.0569,-95.1981 1066.1825,-95.1981 1066.1825,-136.4019"/>
<text text-anchor="middle" x="1025.1197" y="-120" font-family="Times,serif" font-size="14.00" fill="#000000">@Singleton</text>
<text text-anchor="middle" x="1025.1197" y="-103.2" font-family="Times,serif" font-size="14.00" fill="#000000">EventBus</text>
</g>
<!-- 7a08bb48&#45;095c&#45;45a7&#45;9b95&#45;3b5fad328f67&#45;&gt;137fa271&#45;3f88&#45;4d53&#45;872d&#45;6faf69e0e481 -->
<g id="edge5" class="edge">
<title>7a08bb48&#45;095c&#45;45a7&#45;9b95&#45;3b5fad328f67&#45;&gt;137fa271&#45;3f88&#45;4d53&#45;872d&#45;6faf69e0e481</title>
<path fill="none" stroke="#000000" d="M150.4209,-134.3019C198.0907,-126.6296 263.6633,-119.8 321.6633,-119.8 321.6633,-119.8 321.6633,-119.8 821.5595,-119.8 873.4662,-119.8 932.667,-115.5381 973.7922,-113.5842"/>
<polygon fill="#000000" stroke="#000000" points="974.0067,-117.0782 983.8428,-113.1412 973.6984,-110.085 974.0067,-117.0782"/>
</g>
<!-- 7a08bb48&#45;095c&#45;45a7&#45;9b95&#45;3b5fad328f67&#45;&gt;137fa271&#45;3f88&#45;4d53&#45;872d&#45;6faf69e0e481 -->
<g id="edge7" class="edge">
<title>7a08bb48&#45;095c&#45;45a7&#45;9b95&#45;3b5fad328f67&#45;&gt;137fa271&#45;3f88&#45;4d53&#45;872d&#45;6faf69e0e481</title>
<path fill="none" stroke="#000000" d="M150.4209,-149.3894C198.0907,-144.6296 263.6633,-137.8 321.6633,-137.8 321.6633,-137.8 321.6633,-137.8 821.5595,-137.8 873.4662,-137.8 932.667,-133.5381 973.7922,-128.2054"/>
<polygon fill="#000000" stroke="#000000" points="974.4105,-131.6535 983.8428,-126.8285 973.4603,-124.7183 974.4105,-131.6535"/>
</g>
<!-- dbf15fd1&#45;9a54&#45;43e3&#45;a9f5&#45;cc2c5d136a98 -->
<g id="node10" class="node">
<title>dbf15fd1&#45;9a54&#45;43e3&#45;a9f5&#45;cc2c5d136a98</title>
<polygon fill="#40e0d0" stroke="#40e0d0" points="1138.5675,-76.8 911.6719,-76.8 911.6719,-40.8 1138.5675,-40.8 1138.5675,-76.8"/>
<text text-anchor="middle" x="1025.1197" y="-54.6" font-family="Times,serif" font-size="14.00" fill="#000000">DispatchingAndroidInjector&lt;Object&gt;</text>
</g>
<!-- 7a08bb48&#45;095c&#45;45a7&#45;9b95&#45;3b5fad328f67&#45;&gt;dbf15fd1&#45;9a54&#45;43e3&#45;a9f5&#45;cc2c5d136a98 -->
<g id="edge4" class="edge">
<title>7a08bb48&#45;095c&#45;45a7&#45;9b95&#45;3b5fad328f67&#45;&gt;dbf15fd1&#45;9a54&#45;43e3&#45;a9f5&#45;cc2c5d136a98</title>
<path fill="none" stroke="#000000" d="M114.8978,-133.622C159.484,-109.7405 244.0802,-70.8 321.6633,-70.8 321.6633,-70.8 321.6633,-70.8 821.5595,-70.8 847.4573,-70.8 875.1765,-69.8201 901.5612,-68.4203"/>
<polygon fill="#000000" stroke="#000000" points="901.8103,-71.912 911.6015,-67.8645 901.4233,-64.9227 901.8103,-71.912"/>
</g>
<!-- ee8a6a35&#45;052a&#45;4a0e&#45;9a2d&#45;3a0583d811b0 -->
<g id="node5" class="node">
<title>ee8a6a35&#45;052a&#45;4a0e&#45;9a2d&#45;3a0583d811b0</title>
<polygon fill="#ffe4c4" stroke="#ffe4c4" points="693.2915,-477.4019 582.0195,-477.4019 582.0195,-436.1981 693.2915,-436.1981 693.2915,-477.4019"/>
<text text-anchor="middle" x="637.6555" y="-461" font-family="Times,serif" font-size="14.00" fill="#000000">@PerActivity</text>
<text text-anchor="middle" x="637.6555" y="-444.2" font-family="Times,serif" font-size="14.00" fill="#000000">LoadViewModel</text>
</g>
<!-- a42671c2&#45;3d40&#45;4fcd&#45;8be9&#45;a1c0912853c2&#45;&gt;ee8a6a35&#45;052a&#45;4a0e&#45;9a2d&#45;3a0583d811b0 -->
<g id="edge8" class="edge">
<title>a42671c2&#45;3d40&#45;4fcd&#45;8be9&#45;a1c0912853c2&#45;&gt;ee8a6a35&#45;052a&#45;4a0e&#45;9a2d&#45;3a0583d811b0</title>
<path fill="none" stroke="#000000" stroke-dasharray="1,5" d="M456.1306,-455.6511C496.1673,-455.9045 538.2659,-456.1709 571.8305,-456.3834"/>
<polygon fill="#000000" stroke="#000000" points="571.9394,-459.884 581.9614,-456.4475 571.9838,-452.8842 571.9394,-459.884"/>
<text text-anchor="middle" x="518.7957" y="-460" font-family="Times,serif" font-size="14.00" fill="#000000">delegates</text>
</g>
<!-- b1144537&#45;9809&#45;41ad&#45;98b3&#45;b0e8a71cdd4c -->
<g id="node6" class="node">
<title>b1144537&#45;9809&#45;41ad&#45;98b3&#45;b0e8a71cdd4c</title>
<polygon fill="#ffe4c4" stroke="#ffe4c4" points="1306.0779,-507.4019 1175.4319,-507.4019 1175.4319,-466.1981 1306.0779,-466.1981 1306.0779,-507.4019"/>
<text text-anchor="middle" x="1240.7549" y="-491" font-family="Times,serif" font-size="14.00" fill="#000000">@PerActivity</text>
<text text-anchor="middle" x="1240.7549" y="-474.2" font-family="Times,serif" font-size="14.00" fill="#000000">AppCompatActivity</text>
</g>
<!-- 2c554c98&#45;f6ff&#45;496f&#45;90f1&#45;018274dd2147&#45;&gt;b1144537&#45;9809&#45;41ad&#45;98b3&#45;b0e8a71cdd4c -->
<g id="edge10" class="edge">
<title>2c554c98&#45;f6ff&#45;496f&#45;90f1&#45;018274dd2147&#45;&gt;b1144537&#45;9809&#45;41ad&#45;98b3&#45;b0e8a71cdd4c</title>
<path fill="none" stroke="#000000" d="M874.6509,-460.5995C948.1439,-465.8591 1081.2811,-475.3871 1165.144,-481.3889"/>
<polygon fill="#000000" stroke="#000000" points="1165.1482,-484.898 1175.3725,-482.1209 1165.6479,-477.9159 1165.1482,-484.898"/>
</g>
<!-- fbf63fa9&#45;9cc3&#45;4eb2&#45;99e7&#45;814ee1ecfe63 -->
<g id="node11" class="node">
<title>fbf63fa9&#45;9cc3&#45;4eb2&#45;99e7&#45;814ee1ecfe63</title>
<polygon fill="#7fffd4" stroke="#7fffd4" points="1066.1825,-370.4019 984.0569,-370.4019 984.0569,-329.1981 1066.1825,-329.1981 1066.1825,-370.4019"/>
<text text-anchor="middle" x="1025.1197" y="-354" font-family="Times,serif" font-size="14.00" fill="#000000">@Singleton</text>
<text text-anchor="middle" x="1025.1197" y="-337.2" font-family="Times,serif" font-size="14.00" fill="#000000">Scheduler</text>
</g>
<!-- 2c554c98&#45;f6ff&#45;496f&#45;90f1&#45;018274dd2147&#45;&gt;fbf63fa9&#45;9cc3&#45;4eb2&#45;99e7&#45;814ee1ecfe63 -->
<g id="edge9" class="edge">
<title>2c554c98&#45;f6ff&#45;496f&#45;90f1&#45;018274dd2147&#45;&gt;fbf63fa9&#45;9cc3&#45;4eb2&#45;99e7&#45;814ee1ecfe63</title>
<path fill="none" stroke="#000000" d="M860.808,-436.1693C893.7909,-418.8321 941.078,-393.9759 976.4627,-375.3762"/>
<polygon fill="#000000" stroke="#000000" points="978.4218,-378.3005 985.645,-370.5496 975.1648,-372.1044 978.4218,-378.3005"/>
</g>
<!-- 073b31cb&#45;9709&#45;433d&#45;826f&#45;43b07b8c3ed0&#45;&gt;b1144537&#45;9809&#45;41ad&#45;98b3&#45;b0e8a71cdd4c -->
<g id="edge12" class="edge">
<title>073b31cb&#45;9709&#45;433d&#45;826f&#45;43b07b8c3ed0&#45;&gt;b1144537&#45;9809&#45;41ad&#45;98b3&#45;b0e8a71cdd4c</title>
<path fill="none" stroke="#000000" d="M868.4263,-513.4459C940.4578,-508.291 1079.073,-498.3709 1165.3472,-492.1966"/>
<polygon fill="#000000" stroke="#000000" points="1165.6169,-495.6863 1175.3415,-491.4814 1165.1171,-488.7042 1165.6169,-495.6863"/>
</g>
<!-- ee8a6a35&#45;052a&#45;4a0e&#45;9a2d&#45;3a0583d811b0&#45;&gt;073b31cb&#45;9709&#45;433d&#45;826f&#45;43b07b8c3ed0 -->
<g id="edge11" class="edge">
<title>ee8a6a35&#45;052a&#45;4a0e&#45;9a2d&#45;3a0583d811b0&#45;&gt;073b31cb&#45;9709&#45;433d&#45;826f&#45;43b07b8c3ed0</title>
<path fill="none" stroke="#000000" d="M693.3318,-474.9648C716.0877,-482.3891 742.3735,-490.965 765.1993,-498.4121"/>
<polygon fill="#000000" stroke="#000000" points="764.1571,-501.7536 774.7495,-501.5279 766.3283,-495.0988 764.1571,-501.7536"/>
</g>
<!-- ee8a6a35&#45;052a&#45;4a0e&#45;9a2d&#45;3a0583d811b0&#45;&gt;45af22ed&#45;a6e4&#45;4127&#45;af62&#45;315fc7ddbe40 -->
<g id="edge15" class="edge">
<title>ee8a6a35&#45;052a&#45;4a0e&#45;9a2d&#45;3a0583d811b0&#45;&gt;45af22ed&#45;a6e4&#45;4127&#45;af62&#45;315fc7ddbe40</title>
<path fill="none" stroke="#000000" d="M653.0312,-436.0057C690.1953,-387.3571 790.248,-265.7219 903.6458,-205.8 925.2978,-194.3586 951.4369,-187.1763 973.9122,-182.7208"/>
<polygon fill="#000000" stroke="#000000" points="974.757,-186.1239 983.9516,-180.86 973.4812,-179.2411 974.757,-186.1239"/>
</g>
<!-- 39fe19bb&#45;631f&#45;4be1&#45;9b90&#45;cdebfc83f588 -->
<g id="node12" class="node">
<title>39fe19bb&#45;631f&#45;4be1&#45;9b90&#45;cdebfc83f588</title>
<polygon fill="#7fffd4" stroke="#7fffd4" points="1066.1825,-310.4019 984.0569,-310.4019 984.0569,-269.1981 1066.1825,-269.1981 1066.1825,-310.4019"/>
<text text-anchor="middle" x="1025.1197" y="-294" font-family="Times,serif" font-size="14.00" fill="#000000">@Singleton</text>
<text text-anchor="middle" x="1025.1197" y="-277.2" font-family="Times,serif" font-size="14.00" fill="#000000">Parser</text>
</g>
<!-- ee8a6a35&#45;052a&#45;4a0e&#45;9a2d&#45;3a0583d811b0&#45;&gt;39fe19bb&#45;631f&#45;4be1&#45;9b90&#45;cdebfc83f588 -->
<g id="edge13" class="edge">
<title>ee8a6a35&#45;052a&#45;4a0e&#45;9a2d&#45;3a0583d811b0&#45;&gt;39fe19bb&#45;631f&#45;4be1&#45;9b90&#45;cdebfc83f588</title>
<path fill="none" stroke="#000000" d="M693.3079,-440.6611C759.9141,-420.3133 865.9528,-384.3028 893.6458,-353.8 904.2335,-342.1381 892.2661,-330.6904 903.6458,-319.8 922.253,-301.9927 949.6803,-294.245 973.7668,-291.0585"/>
<polygon fill="#000000" stroke="#000000" points="974.2893,-294.5223 983.8496,-289.9561 973.5284,-287.5638 974.2893,-294.5223"/>
</g>
<!-- d8e6851a&#45;77f2&#45;4307&#45;9510&#45;58cc46e2fa8d -->
<g id="node13" class="node">
<title>d8e6851a&#45;77f2&#45;4307&#45;9510&#45;58cc46e2fa8d</title>
<polygon fill="#40e0d0" stroke="#40e0d0" points="1078.3261,-250.8 971.9133,-250.8 971.9133,-214.8 1078.3261,-214.8 1078.3261,-250.8"/>
<text text-anchor="middle" x="1025.1197" y="-228.6" font-family="Times,serif" font-size="14.00" fill="#000000">WaypointsRepo</text>
</g>
<!-- ee8a6a35&#45;052a&#45;4a0e&#45;9a2d&#45;3a0583d811b0&#45;&gt;d8e6851a&#45;77f2&#45;4307&#45;9510&#45;58cc46e2fa8d -->
<g id="edge14" class="edge">
<title>ee8a6a35&#45;052a&#45;4a0e&#45;9a2d&#45;3a0583d811b0&#45;&gt;d8e6851a&#45;77f2&#45;4307&#45;9510&#45;58cc46e2fa8d</title>
<path fill="none" stroke="#000000" d="M663.5954,-435.9785C689.22,-416.0453 730.0443,-385.96 768.4732,-364.8 821.244,-335.7429 855.6831,-359.5751 893.6458,-312.8 908.7518,-294.1874 886.9709,-277.0211 903.6458,-259.8 918.7599,-244.1908 940.7468,-236.6789 961.8736,-233.3112"/>
<polygon fill="#000000" stroke="#000000" points="962.3558,-236.778 971.8158,-232.0073 961.4455,-229.8374 962.3558,-236.778"/>
</g>
<!-- 68a82d44&#45;8eec&#45;46d7&#45;b8ad&#45;da9ca34723e1 -->
<g id="node7" class="node">
<title>68a82d44&#45;8eec&#45;46d7&#45;b8ad&#45;da9ca34723e1</title>
<polygon fill="#40e0d0" stroke="#40e0d0" points="1615.5402,-504.8 1469.4115,-504.8 1431.8202,-468.8 1577.9489,-468.8 1615.5402,-504.8"/>
<text text-anchor="middle" x="1523.6802" y="-482.6" font-family="Times,serif" font-size="14.00" fill="#000000">LoadActivity</text>
</g>
<!-- b1144537&#45;9809&#45;41ad&#45;98b3&#45;b0e8a71cdd4c&#45;&gt;68a82d44&#45;8eec&#45;46d7&#45;b8ad&#45;da9ca34723e1 -->
<g id="edge16" class="edge">
<title>b1144537&#45;9809&#45;41ad&#45;98b3&#45;b0e8a71cdd4c&#45;&gt;68a82d44&#45;8eec&#45;46d7&#45;b8ad&#45;da9ca34723e1</title>
<path fill="none" stroke="#000000" stroke-dasharray="1,5" d="M1306.0189,-486.8C1345.9798,-486.8 1397.5035,-486.8 1440.3897,-486.8"/>
<polygon fill="#000000" stroke="#000000" points="1440.5271,-490.3001 1450.5271,-486.8 1440.5271,-483.3001 1440.5271,-490.3001"/>
<text text-anchor="middle" x="1368.9583" y="-491" font-family="Times,serif" font-size="14.00" fill="#000000">delegates</text>
</g>
</g>
</svg>
